%TF.GenerationSoftware,KiCad,Pcbnew,9.0.7*%
%TF.CreationDate,2026-01-19T21:12:20-05:00*%
%TF.ProjectId,psu,7073752e-6b69-4636-9164-5f7063625858,rev?*%
%TF.SameCoordinates,Original*%
%TF.FileFunction,Copper,L2,Bot*%
%TF.FilePolarity,Positive*%
%FSLAX46Y46*%
G04 Gerber Fmt 4.6, Leading zero omitted, Abs format (unit mm)*
G04 Created by KiCad (PCBNEW 9.0.7) date 2026-01-19 21:12:20*
%MOMM*%
%LPD*%
G01*
G04 APERTURE LIST*
G04 Aperture macros list*
%AMRoundRect*
0 Rectangle with rounded corners*
0 $1 Rounding radius*
0 $2 $3 $4 $5 $6 $7 $8 $9 X,Y pos of 4 corners*
0 Add a 4 corners polygon primitive as box body*
4,1,4,$2,$3,$4,$5,$6,$7,$8,$9,$2,$3,0*
0 Add four circle primitives for the rounded corners*
1,1,$1+$1,$2,$3*
1,1,$1+$1,$4,$5*
1,1,$1+$1,$6,$7*
1,1,$1+$1,$8,$9*
0 Add four rect primitives between the rounded corners*
20,1,$1+$1,$2,$3,$4,$5,0*
20,1,$1+$1,$4,$5,$6,$7,0*
20,1,$1+$1,$6,$7,$8,$9,0*
20,1,$1+$1,$8,$9,$2,$3,0*%
G04 Aperture macros list end*
%TA.AperFunction,ComponentPad*%
%ADD10RoundRect,0.250000X-0.625000X0.350000X-0.625000X-0.350000X0.625000X-0.350000X0.625000X0.350000X0*%
%TD*%
%TA.AperFunction,ComponentPad*%
%ADD11O,1.750000X1.200000*%
%TD*%
%TA.AperFunction,ComponentPad*%
%ADD12C,1.600000*%
%TD*%
%TA.AperFunction,ComponentPad*%
%ADD13RoundRect,0.249999X-0.850001X0.850001X-0.850001X-0.850001X0.850001X-0.850001X0.850001X0.850001X0*%
%TD*%
%TA.AperFunction,ComponentPad*%
%ADD14C,2.200000*%
%TD*%
%TA.AperFunction,ComponentPad*%
%ADD15R,1.508000X1.508000*%
%TD*%
%TA.AperFunction,ComponentPad*%
%ADD16C,1.508000*%
%TD*%
%TA.AperFunction,ComponentPad*%
%ADD17RoundRect,0.250001X0.949999X-0.949999X0.949999X0.949999X-0.949999X0.949999X-0.949999X-0.949999X0*%
%TD*%
%TA.AperFunction,ComponentPad*%
%ADD18C,2.400000*%
%TD*%
G04 APERTURE END LIST*
D10*
%TO.P,J3,1,Pin_1*%
%TO.N,GND*%
X158500000Y-84600000D03*
D11*
%TO.P,J3,2,Pin_2*%
%TO.N,+5V*%
X158500000Y-86600000D03*
%TD*%
D10*
%TO.P,J2,1,Pin_1*%
%TO.N,+15V*%
X150550000Y-75400000D03*
D11*
%TO.P,J2,2,Pin_2*%
%TO.N,GND*%
X150550000Y-77400000D03*
%TO.P,J2,3,Pin_3*%
%TO.N,-15V*%
X150550000Y-79400000D03*
%TD*%
D12*
%TO.P,C7,1*%
%TO.N,+5V*%
X157550000Y-80000000D03*
%TO.P,C7,2*%
%TO.N,GND*%
X162550000Y-80000000D03*
%TD*%
D13*
%TO.P,D3,1,K*%
%TO.N,+15V*%
X88000000Y-63920000D03*
D14*
%TO.P,D3,2,A*%
%TO.N,Net-(D1-K)*%
X88000000Y-74080000D03*
%TD*%
D15*
%TO.P,PS1,1,+VIN*%
%TO.N,+15V*%
X157800000Y-68460000D03*
D16*
%TO.P,PS1,2,GND*%
%TO.N,GND*%
X157800000Y-71000000D03*
%TO.P,PS1,3,+VOUT*%
%TO.N,+5V*%
X157800000Y-73540000D03*
%TD*%
D17*
%TO.P,C3,1*%
%TO.N,+15V*%
X112000000Y-71000000D03*
D18*
%TO.P,C3,2*%
%TO.N,GND*%
X112000000Y-63500000D03*
%TD*%
D17*
%TO.P,C4,1*%
%TO.N,+15V*%
X133000000Y-70987245D03*
D18*
%TO.P,C4,2*%
%TO.N,GND*%
X133000000Y-63487245D03*
%TD*%
D13*
%TO.P,D4,1,K*%
%TO.N,+15V*%
X98000000Y-64000000D03*
D14*
%TO.P,D4,2,A*%
%TO.N,Net-(D2-K)*%
X98000000Y-74160000D03*
%TD*%
D17*
%TO.P,C1,1*%
%TO.N,GND*%
X112000000Y-90025510D03*
D18*
%TO.P,C1,2*%
%TO.N,-15V*%
X112000000Y-82525510D03*
%TD*%
D12*
%TO.P,C5,1*%
%TO.N,+15V*%
X143800000Y-69100000D03*
%TO.P,C5,2*%
%TO.N,GND*%
X143800000Y-74100000D03*
%TD*%
D13*
%TO.P,J1,1,Pin_1*%
%TO.N,Net-(D1-K)*%
X82500000Y-74420000D03*
D14*
%TO.P,J1,2,Pin_2*%
%TO.N,GND*%
X82500000Y-76960000D03*
%TO.P,J1,3,Pin_3*%
%TO.N,Net-(D2-K)*%
X82500000Y-79500000D03*
%TD*%
D12*
%TO.P,C6,1*%
%TO.N,GND*%
X143800000Y-78800000D03*
%TO.P,C6,2*%
%TO.N,-15V*%
X143800000Y-83800000D03*
%TD*%
D17*
%TO.P,C2,1*%
%TO.N,GND*%
X133000000Y-90012755D03*
D18*
%TO.P,C2,2*%
%TO.N,-15V*%
X133000000Y-82512755D03*
%TD*%
D13*
%TO.P,D2,1,K*%
%TO.N,Net-(D2-K)*%
X98000000Y-80920000D03*
D14*
%TO.P,D2,2,A*%
%TO.N,-15V*%
X98000000Y-91080000D03*
%TD*%
D13*
%TO.P,D1,1,K*%
%TO.N,Net-(D1-K)*%
X88000000Y-80840000D03*
D14*
%TO.P,D1,2,A*%
%TO.N,-15V*%
X88000000Y-91000000D03*
%TD*%
%TA.AperFunction,Conductor*%
%TO.N,GND*%
G36*
X168342539Y-58020185D02*
G01*
X168388294Y-58072989D01*
X168399500Y-58124500D01*
X168399500Y-95375500D01*
X168379815Y-95442539D01*
X168327011Y-95488294D01*
X168275500Y-95499500D01*
X78624500Y-95499500D01*
X78557461Y-95479815D01*
X78511706Y-95427011D01*
X78500500Y-95375500D01*
X78500500Y-92378711D01*
X79649500Y-92378711D01*
X79649500Y-92621288D01*
X79681161Y-92861785D01*
X79743947Y-93096104D01*
X79799530Y-93230293D01*
X79836776Y-93320212D01*
X79958064Y-93530289D01*
X79958066Y-93530292D01*
X79958067Y-93530293D01*
X80105733Y-93722736D01*
X80105739Y-93722743D01*
X80277256Y-93894260D01*
X80277263Y-93894266D01*
X80357787Y-93956054D01*
X80469711Y-94041936D01*
X80679788Y-94163224D01*
X80903900Y-94256054D01*
X81138211Y-94318838D01*
X81318586Y-94342584D01*
X81378711Y-94350500D01*
X81378712Y-94350500D01*
X81621289Y-94350500D01*
X81669388Y-94344167D01*
X81861789Y-94318838D01*
X82096100Y-94256054D01*
X82320212Y-94163224D01*
X82530289Y-94041936D01*
X82722738Y-93894265D01*
X82894265Y-93722738D01*
X83041936Y-93530289D01*
X83163224Y-93320212D01*
X83256054Y-93096100D01*
X83318838Y-92861789D01*
X83350500Y-92621288D01*
X83350500Y-92378712D01*
X83318838Y-92138211D01*
X83256054Y-91903900D01*
X83163224Y-91679788D01*
X83041936Y-91469711D01*
X82972936Y-91379788D01*
X82894266Y-91277263D01*
X82894260Y-91277256D01*
X82722743Y-91105739D01*
X82722736Y-91105733D01*
X82542641Y-90967542D01*
X82542640Y-90967541D01*
X82530294Y-90958067D01*
X82384752Y-90874038D01*
X86399500Y-90874038D01*
X86399500Y-91125962D01*
X86406429Y-91169711D01*
X86438910Y-91374785D01*
X86516760Y-91614383D01*
X86568036Y-91715016D01*
X86630808Y-91838214D01*
X86631132Y-91838848D01*
X86779201Y-92042649D01*
X86779205Y-92042654D01*
X86957345Y-92220794D01*
X86957350Y-92220798D01*
X87095664Y-92321288D01*
X87161155Y-92368870D01*
X87304184Y-92441747D01*
X87385616Y-92483239D01*
X87385618Y-92483239D01*
X87385621Y-92483241D01*
X87625215Y-92561090D01*
X87874038Y-92600500D01*
X87874039Y-92600500D01*
X88125961Y-92600500D01*
X88125962Y-92600500D01*
X88374785Y-92561090D01*
X88614379Y-92483241D01*
X88838845Y-92368870D01*
X89042656Y-92220793D01*
X89220793Y-92042656D01*
X89368870Y-91838845D01*
X89483241Y-91614379D01*
X89561090Y-91374785D01*
X89600500Y-91125962D01*
X89600500Y-90954038D01*
X96399500Y-90954038D01*
X96399500Y-91205962D01*
X96435158Y-91431099D01*
X96438910Y-91454785D01*
X96516760Y-91694383D01*
X96595413Y-91848747D01*
X96623515Y-91903900D01*
X96631132Y-91918848D01*
X96779201Y-92122649D01*
X96779205Y-92122654D01*
X96957345Y-92300794D01*
X96957350Y-92300798D01*
X97135117Y-92429952D01*
X97161155Y-92448870D01*
X97304184Y-92521747D01*
X97385616Y-92563239D01*
X97385618Y-92563239D01*
X97385621Y-92563241D01*
X97625215Y-92641090D01*
X97874038Y-92680500D01*
X97874039Y-92680500D01*
X98125961Y-92680500D01*
X98125962Y-92680500D01*
X98374785Y-92641090D01*
X98614379Y-92563241D01*
X98838845Y-92448870D01*
X99042656Y-92300793D01*
X99220793Y-92122656D01*
X99252721Y-92078711D01*
X162749500Y-92078711D01*
X162749500Y-92321288D01*
X162781161Y-92561785D01*
X162843947Y-92796104D01*
X162871155Y-92861789D01*
X162936776Y-93020212D01*
X163058064Y-93230289D01*
X163058066Y-93230292D01*
X163058067Y-93230293D01*
X163205733Y-93422736D01*
X163205739Y-93422743D01*
X163377256Y-93594260D01*
X163377262Y-93594265D01*
X163569711Y-93741936D01*
X163779788Y-93863224D01*
X164003900Y-93956054D01*
X164238211Y-94018838D01*
X164413661Y-94041936D01*
X164478711Y-94050500D01*
X164478712Y-94050500D01*
X164721289Y-94050500D01*
X164786339Y-94041936D01*
X164961789Y-94018838D01*
X165196100Y-93956054D01*
X165420212Y-93863224D01*
X165630289Y-93741936D01*
X165822738Y-93594265D01*
X165994265Y-93422738D01*
X166141936Y-93230289D01*
X166263224Y-93020212D01*
X166356054Y-92796100D01*
X166418838Y-92561789D01*
X166450500Y-92321288D01*
X166450500Y-92078712D01*
X166418838Y-91838211D01*
X166356054Y-91603900D01*
X166263224Y-91379788D01*
X166141936Y-91169711D01*
X166081018Y-91090321D01*
X165994266Y-90977263D01*
X165994260Y-90977256D01*
X165822743Y-90805739D01*
X165822736Y-90805733D01*
X165630293Y-90658067D01*
X165630292Y-90658066D01*
X165630289Y-90658064D01*
X165420212Y-90536776D01*
X165420205Y-90536773D01*
X165196104Y-90443947D01*
X165078944Y-90412554D01*
X164961789Y-90381162D01*
X164961788Y-90381161D01*
X164961785Y-90381161D01*
X164721289Y-90349500D01*
X164721288Y-90349500D01*
X164478712Y-90349500D01*
X164478711Y-90349500D01*
X164238214Y-90381161D01*
X164003895Y-90443947D01*
X163779794Y-90536773D01*
X163779785Y-90536777D01*
X163569706Y-90658067D01*
X163377263Y-90805733D01*
X163377256Y-90805739D01*
X163205739Y-90977256D01*
X163205733Y-90977263D01*
X163058067Y-91169706D01*
X162936777Y-91379785D01*
X162936773Y-91379794D01*
X162843947Y-91603895D01*
X162781161Y-91838214D01*
X162749500Y-92078711D01*
X99252721Y-92078711D01*
X99308624Y-92001768D01*
X99340790Y-91957492D01*
X99368870Y-91918845D01*
X99483241Y-91694379D01*
X99561090Y-91454785D01*
X99600500Y-91205962D01*
X99600500Y-90954038D01*
X99561090Y-90705215D01*
X99483241Y-90465621D01*
X99483239Y-90465618D01*
X99483239Y-90465616D01*
X99388888Y-90280443D01*
X99368870Y-90241155D01*
X99310744Y-90161151D01*
X99220798Y-90037350D01*
X99220794Y-90037345D01*
X99042654Y-89859205D01*
X99042649Y-89859201D01*
X98838848Y-89711132D01*
X98838847Y-89711131D01*
X98838845Y-89711130D01*
X98732809Y-89657102D01*
X98614383Y-89596760D01*
X98374785Y-89518910D01*
X98125962Y-89479500D01*
X97874038Y-89479500D01*
X97749626Y-89499205D01*
X97625214Y-89518910D01*
X97385616Y-89596760D01*
X97161151Y-89711132D01*
X96957350Y-89859201D01*
X96957345Y-89859205D01*
X96779205Y-90037345D01*
X96779201Y-90037350D01*
X96631132Y-90241151D01*
X96516760Y-90465616D01*
X96438910Y-90705214D01*
X96432775Y-90743947D01*
X96399500Y-90954038D01*
X89600500Y-90954038D01*
X89600500Y-90874038D01*
X89561090Y-90625215D01*
X89483241Y-90385621D01*
X89483239Y-90385618D01*
X89483239Y-90385616D01*
X89427137Y-90275510D01*
X89368870Y-90161155D01*
X89278917Y-90037345D01*
X89220798Y-89957350D01*
X89220794Y-89957345D01*
X89042654Y-89779205D01*
X89042649Y-89779201D01*
X88838848Y-89631132D01*
X88838847Y-89631131D01*
X88838845Y-89631130D01*
X88768747Y-89595413D01*
X88614383Y-89516760D01*
X88374785Y-89438910D01*
X88290181Y-89425510D01*
X88125962Y-89399500D01*
X87874038Y-89399500D01*
X87790350Y-89412755D01*
X87625214Y-89438910D01*
X87385616Y-89516760D01*
X87161151Y-89631132D01*
X86957350Y-89779201D01*
X86957345Y-89779205D01*
X86779205Y-89957345D01*
X86779201Y-89957350D01*
X86631132Y-90161151D01*
X86516760Y-90385616D01*
X86438910Y-90625214D01*
X86410318Y-90805735D01*
X86399500Y-90874038D01*
X82384752Y-90874038D01*
X82320214Y-90836777D01*
X82320205Y-90836773D01*
X82096104Y-90743947D01*
X81861785Y-90681161D01*
X81621289Y-90649500D01*
X81621288Y-90649500D01*
X81378712Y-90649500D01*
X81378711Y-90649500D01*
X81138214Y-90681161D01*
X80903895Y-90743947D01*
X80679794Y-90836773D01*
X80679785Y-90836777D01*
X80469706Y-90958067D01*
X80277263Y-91105733D01*
X80277256Y-91105739D01*
X80105739Y-91277256D01*
X80105733Y-91277263D01*
X79958067Y-91469706D01*
X79836777Y-91679785D01*
X79836773Y-91679794D01*
X79743947Y-91903895D01*
X79681161Y-92138214D01*
X79649500Y-92378711D01*
X78500500Y-92378711D01*
X78500500Y-89025524D01*
X110300000Y-89025524D01*
X110300000Y-89775510D01*
X111451518Y-89775510D01*
X111440889Y-89793919D01*
X111400000Y-89946519D01*
X111400000Y-90104501D01*
X111440889Y-90257101D01*
X111451518Y-90275510D01*
X110300000Y-90275510D01*
X110300000Y-91025495D01*
X110310493Y-91128199D01*
X110310494Y-91128206D01*
X110365641Y-91294628D01*
X110365643Y-91294633D01*
X110457684Y-91443854D01*
X110581655Y-91567825D01*
X110730876Y-91659866D01*
X110730881Y-91659868D01*
X110897303Y-91715015D01*
X110897310Y-91715016D01*
X111000014Y-91725509D01*
X111000027Y-91725510D01*
X111750000Y-91725510D01*
X111750000Y-90573992D01*
X111768409Y-90584621D01*
X111921009Y-90625510D01*
X112078991Y-90625510D01*
X112231591Y-90584621D01*
X112250000Y-90573992D01*
X112250000Y-91725510D01*
X112999973Y-91725510D01*
X112999985Y-91725509D01*
X113102689Y-91715016D01*
X113102696Y-91715015D01*
X113269118Y-91659868D01*
X113269123Y-91659866D01*
X113418344Y-91567825D01*
X113542315Y-91443854D01*
X113634356Y-91294633D01*
X113634358Y-91294628D01*
X113689505Y-91128206D01*
X113689506Y-91128199D01*
X113699999Y-91025495D01*
X113700000Y-91025482D01*
X113700000Y-90275510D01*
X112548482Y-90275510D01*
X112559111Y-90257101D01*
X112600000Y-90104501D01*
X112600000Y-89946519D01*
X112559111Y-89793919D01*
X112548482Y-89775510D01*
X113700000Y-89775510D01*
X113700000Y-89025537D01*
X113699999Y-89025527D01*
X113699662Y-89022224D01*
X113699662Y-89022223D01*
X113698696Y-89012769D01*
X131300000Y-89012769D01*
X131300000Y-89762755D01*
X132451518Y-89762755D01*
X132440889Y-89781164D01*
X132400000Y-89933764D01*
X132400000Y-90091746D01*
X132440889Y-90244346D01*
X132451518Y-90262755D01*
X131300000Y-90262755D01*
X131300000Y-91012740D01*
X131310493Y-91115444D01*
X131310494Y-91115451D01*
X131365641Y-91281873D01*
X131365643Y-91281878D01*
X131457684Y-91431099D01*
X131581655Y-91555070D01*
X131730876Y-91647111D01*
X131730881Y-91647113D01*
X131897303Y-91702260D01*
X131897310Y-91702261D01*
X132000014Y-91712754D01*
X132000027Y-91712755D01*
X132750000Y-91712755D01*
X132750000Y-90561237D01*
X132768409Y-90571866D01*
X132921009Y-90612755D01*
X133078991Y-90612755D01*
X133231591Y-90571866D01*
X133250000Y-90561237D01*
X133250000Y-91712755D01*
X133999973Y-91712755D01*
X133999985Y-91712754D01*
X134102689Y-91702261D01*
X134102696Y-91702260D01*
X134269118Y-91647113D01*
X134269123Y-91647111D01*
X134418344Y-91555070D01*
X134542315Y-91431099D01*
X134634356Y-91281878D01*
X134634358Y-91281873D01*
X134689505Y-91115451D01*
X134689506Y-91115444D01*
X134699999Y-91012740D01*
X134700000Y-91012727D01*
X134700000Y-90262755D01*
X133548482Y-90262755D01*
X133559111Y-90244346D01*
X133600000Y-90091746D01*
X133600000Y-89933764D01*
X133559111Y-89781164D01*
X133548482Y-89762755D01*
X134700000Y-89762755D01*
X134700000Y-89012782D01*
X134699999Y-89012769D01*
X134689506Y-88910065D01*
X134689505Y-88910058D01*
X134634358Y-88743636D01*
X134634356Y-88743631D01*
X134542315Y-88594410D01*
X134418344Y-88470439D01*
X134269123Y-88378398D01*
X134269118Y-88378396D01*
X134102696Y-88323249D01*
X134102689Y-88323248D01*
X133999985Y-88312755D01*
X133250000Y-88312755D01*
X133250000Y-89464272D01*
X133231591Y-89453644D01*
X133078991Y-89412755D01*
X132921009Y-89412755D01*
X132768409Y-89453644D01*
X132750000Y-89464272D01*
X132750000Y-88312755D01*
X132000014Y-88312755D01*
X131897310Y-88323248D01*
X131897303Y-88323249D01*
X131730881Y-88378396D01*
X131730876Y-88378398D01*
X131581655Y-88470439D01*
X131457684Y-88594410D01*
X131365643Y-88743631D01*
X131365641Y-88743636D01*
X131310494Y-88910058D01*
X131310493Y-88910065D01*
X131300000Y-89012769D01*
X113698696Y-89012769D01*
X113689506Y-88922820D01*
X113689505Y-88922813D01*
X113634358Y-88756391D01*
X113634356Y-88756386D01*
X113542315Y-88607165D01*
X113418344Y-88483194D01*
X113269123Y-88391153D01*
X113269118Y-88391151D01*
X113102696Y-88336004D01*
X113102689Y-88336003D01*
X112999985Y-88325510D01*
X112250000Y-88325510D01*
X112250000Y-89477027D01*
X112231591Y-89466399D01*
X112078991Y-89425510D01*
X111921009Y-89425510D01*
X111768409Y-89466399D01*
X111750000Y-89477027D01*
X111750000Y-88325510D01*
X111000014Y-88325510D01*
X110897310Y-88336003D01*
X110897303Y-88336004D01*
X110730881Y-88391151D01*
X110730876Y-88391153D01*
X110581655Y-88483194D01*
X110457684Y-88607165D01*
X110365643Y-88756386D01*
X110365641Y-88756391D01*
X110310494Y-88922813D01*
X110310493Y-88922820D01*
X110300000Y-89025524D01*
X78500500Y-89025524D01*
X78500500Y-86513389D01*
X157124500Y-86513389D01*
X157124500Y-86686611D01*
X157151598Y-86857701D01*
X157205127Y-87022445D01*
X157283768Y-87176788D01*
X157385586Y-87316928D01*
X157508072Y-87439414D01*
X157648212Y-87541232D01*
X157802555Y-87619873D01*
X157967299Y-87673402D01*
X158138389Y-87700500D01*
X158138390Y-87700500D01*
X158861610Y-87700500D01*
X158861611Y-87700500D01*
X159032701Y-87673402D01*
X159197445Y-87619873D01*
X159351788Y-87541232D01*
X159491928Y-87439414D01*
X159614414Y-87316928D01*
X159716232Y-87176788D01*
X159794873Y-87022445D01*
X159848402Y-86857701D01*
X159875500Y-86686611D01*
X159875500Y-86513389D01*
X159848402Y-86342299D01*
X159794873Y-86177555D01*
X159716232Y-86023212D01*
X159614414Y-85883072D01*
X159506508Y-85775166D01*
X159473023Y-85713843D01*
X159478007Y-85644151D01*
X159519879Y-85588218D01*
X159529094Y-85581945D01*
X159593345Y-85542315D01*
X159717315Y-85418345D01*
X159809356Y-85269124D01*
X159809358Y-85269119D01*
X159864505Y-85102697D01*
X159864506Y-85102690D01*
X159874999Y-84999986D01*
X159875000Y-84999973D01*
X159875000Y-84850000D01*
X158780330Y-84850000D01*
X158800075Y-84830255D01*
X158849444Y-84744745D01*
X158875000Y-84649370D01*
X158875000Y-84550630D01*
X158849444Y-84455255D01*
X158800075Y-84369745D01*
X158780330Y-84350000D01*
X159874999Y-84350000D01*
X159874999Y-84200028D01*
X159874998Y-84200013D01*
X159864505Y-84097302D01*
X159809358Y-83930880D01*
X159809356Y-83930875D01*
X159717315Y-83781654D01*
X159593345Y-83657684D01*
X159444124Y-83565643D01*
X159444119Y-83565641D01*
X159277697Y-83510494D01*
X159277690Y-83510493D01*
X159174986Y-83500000D01*
X158750000Y-83500000D01*
X158750000Y-84319670D01*
X158730255Y-84299925D01*
X158644745Y-84250556D01*
X158549370Y-84225000D01*
X158450630Y-84225000D01*
X158355255Y-84250556D01*
X158269745Y-84299925D01*
X158250000Y-84319670D01*
X158250000Y-83500000D01*
X157825028Y-83500000D01*
X157825012Y-83500001D01*
X157722302Y-83510494D01*
X157555880Y-83565641D01*
X157555875Y-83565643D01*
X157406654Y-83657684D01*
X157282684Y-83781654D01*
X157190643Y-83930875D01*
X157190641Y-83930880D01*
X157135494Y-84097302D01*
X157135493Y-84097309D01*
X157125000Y-84200013D01*
X157125000Y-84350000D01*
X158219670Y-84350000D01*
X158199925Y-84369745D01*
X158150556Y-84455255D01*
X158125000Y-84550630D01*
X158125000Y-84649370D01*
X158150556Y-84744745D01*
X158199925Y-84830255D01*
X158219670Y-84850000D01*
X157125001Y-84850000D01*
X157125001Y-84999986D01*
X157135494Y-85102697D01*
X157190641Y-85269119D01*
X157190643Y-85269124D01*
X157282684Y-85418345D01*
X157406656Y-85542317D01*
X157470906Y-85581946D01*
X157517631Y-85633893D01*
X157528854Y-85702856D01*
X157501011Y-85766938D01*
X157493492Y-85775166D01*
X157385585Y-85883073D01*
X157283768Y-86023211D01*
X157205128Y-86177552D01*
X157151597Y-86342302D01*
X157124500Y-86513389D01*
X78500500Y-86513389D01*
X78500500Y-79421153D01*
X79159500Y-79421153D01*
X79159500Y-79578846D01*
X79190261Y-79733489D01*
X79190264Y-79733501D01*
X79250602Y-79879172D01*
X79250609Y-79879185D01*
X79338210Y-80010288D01*
X79338213Y-80010292D01*
X79449707Y-80121786D01*
X79449711Y-80121789D01*
X79580814Y-80209390D01*
X79580827Y-80209397D01*
X79653296Y-80239414D01*
X79726503Y-80269737D01*
X79881153Y-80300499D01*
X79881156Y-80300500D01*
X79881158Y-80300500D01*
X80038844Y-80300500D01*
X80038845Y-80300499D01*
X80193497Y-80269737D01*
X80339179Y-80209394D01*
X80470289Y-80121789D01*
X80581789Y-80010289D01*
X80669394Y-79879179D01*
X80696609Y-79813475D01*
X80740447Y-79759073D01*
X80806741Y-79737007D01*
X80874440Y-79754285D01*
X80922052Y-79805421D01*
X80933642Y-79841528D01*
X80938910Y-79874787D01*
X81016760Y-80114383D01*
X81131132Y-80338848D01*
X81279201Y-80542649D01*
X81279205Y-80542654D01*
X81457345Y-80720794D01*
X81457350Y-80720798D01*
X81623278Y-80841351D01*
X81661155Y-80868870D01*
X81804184Y-80941747D01*
X81885616Y-80983239D01*
X81885618Y-80983239D01*
X81885621Y-80983241D01*
X82125215Y-81061090D01*
X82374038Y-81100500D01*
X82374039Y-81100500D01*
X82625961Y-81100500D01*
X82625962Y-81100500D01*
X82874785Y-81061090D01*
X83114379Y-80983241D01*
X83338845Y-80868870D01*
X83542656Y-80720793D01*
X83720793Y-80542656D01*
X83868870Y-80338845D01*
X83983241Y-80114379D01*
X84039906Y-79939982D01*
X86399500Y-79939982D01*
X86399500Y-81740017D01*
X86410000Y-81842796D01*
X86410001Y-81842798D01*
X86465186Y-82009335D01*
X86557288Y-82158656D01*
X86681344Y-82282712D01*
X86830665Y-82374814D01*
X86997202Y-82429999D01*
X87099990Y-82440500D01*
X87099995Y-82440500D01*
X88900005Y-82440500D01*
X88900010Y-82440500D01*
X89002798Y-82429999D01*
X89169335Y-82374814D01*
X89318656Y-82282712D01*
X89442712Y-82158656D01*
X89534814Y-82009335D01*
X89589999Y-81842798D01*
X89600500Y-81740010D01*
X89600500Y-80019982D01*
X96399500Y-80019982D01*
X96399500Y-81820017D01*
X96410000Y-81922796D01*
X96438677Y-82009337D01*
X96465186Y-82089335D01*
X96557288Y-82238656D01*
X96681344Y-82362712D01*
X96830665Y-82454814D01*
X96997202Y-82509999D01*
X97099990Y-82520500D01*
X97099995Y-82520500D01*
X98900005Y-82520500D01*
X98900010Y-82520500D01*
X99002798Y-82509999D01*
X99169335Y-82454814D01*
X99235409Y-82414059D01*
X110299500Y-82414059D01*
X110299500Y-82636960D01*
X110299501Y-82636976D01*
X110328594Y-82857962D01*
X110328595Y-82857967D01*
X110328596Y-82857973D01*
X110382875Y-83060545D01*
X110386290Y-83073290D01*
X110386293Y-83073300D01*
X110471593Y-83279232D01*
X110471595Y-83279236D01*
X110583052Y-83472284D01*
X110583057Y-83472290D01*
X110583058Y-83472292D01*
X110718751Y-83649132D01*
X110718757Y-83649139D01*
X110876370Y-83806752D01*
X110876376Y-83806757D01*
X111053226Y-83942458D01*
X111246274Y-84053915D01*
X111351020Y-84097302D01*
X111421425Y-84126465D01*
X111452219Y-84139220D01*
X111667537Y-84196914D01*
X111888543Y-84226010D01*
X111888550Y-84226010D01*
X112111450Y-84226010D01*
X112111457Y-84226010D01*
X112332463Y-84196914D01*
X112547781Y-84139220D01*
X112753726Y-84053915D01*
X112946774Y-83942458D01*
X113123624Y-83806757D01*
X113281247Y-83649134D01*
X113416948Y-83472284D01*
X113528405Y-83279236D01*
X113613710Y-83073291D01*
X113671404Y-82857973D01*
X113700500Y-82636967D01*
X113700500Y-82414053D01*
X113698822Y-82401304D01*
X131299500Y-82401304D01*
X131299500Y-82624205D01*
X131299501Y-82624221D01*
X131328594Y-82845207D01*
X131328595Y-82845212D01*
X131328596Y-82845218D01*
X131357419Y-82952786D01*
X131386290Y-83060535D01*
X131386293Y-83060545D01*
X131471593Y-83266477D01*
X131471595Y-83266481D01*
X131583052Y-83459529D01*
X131583057Y-83459535D01*
X131583058Y-83459537D01*
X131718751Y-83636377D01*
X131718757Y-83636384D01*
X131876370Y-83793997D01*
X131876377Y-83794003D01*
X131893000Y-83806758D01*
X132053226Y-83929703D01*
X132246274Y-84041160D01*
X132452219Y-84126465D01*
X132667537Y-84184159D01*
X132888543Y-84213255D01*
X132888550Y-84213255D01*
X133111450Y-84213255D01*
X133111457Y-84213255D01*
X133332463Y-84184159D01*
X133547781Y-84126465D01*
X133753726Y-84041160D01*
X133946774Y-83929703D01*
X134123624Y-83794002D01*
X134219978Y-83697648D01*
X142499500Y-83697648D01*
X142499500Y-83902351D01*
X142531522Y-84104534D01*
X142594781Y-84299223D01*
X142658691Y-84424653D01*
X142674284Y-84455255D01*
X142687715Y-84481613D01*
X142808028Y-84647213D01*
X142952786Y-84791971D01*
X143101581Y-84900075D01*
X143118390Y-84912287D01*
X143191315Y-84949444D01*
X143300776Y-85005218D01*
X143300778Y-85005218D01*
X143300781Y-85005220D01*
X143405137Y-85039127D01*
X143495465Y-85068477D01*
X143596557Y-85084488D01*
X143697648Y-85100500D01*
X143697649Y-85100500D01*
X143902351Y-85100500D01*
X143902352Y-85100500D01*
X144104534Y-85068477D01*
X144299219Y-85005220D01*
X144481610Y-84912287D01*
X144574590Y-84844732D01*
X144647213Y-84791971D01*
X144647215Y-84791968D01*
X144647219Y-84791966D01*
X144791966Y-84647219D01*
X144791968Y-84647215D01*
X144791971Y-84647213D01*
X144862141Y-84550630D01*
X144912287Y-84481610D01*
X145005220Y-84299219D01*
X145061352Y-84126464D01*
X145068476Y-84104538D01*
X145068476Y-84104537D01*
X145068477Y-84104534D01*
X145100500Y-83902352D01*
X145100500Y-83697648D01*
X145090796Y-83636379D01*
X145068477Y-83495465D01*
X145005218Y-83300776D01*
X144971503Y-83234607D01*
X144912287Y-83118390D01*
X144904556Y-83107749D01*
X144791971Y-82952786D01*
X144647213Y-82808028D01*
X144481613Y-82687715D01*
X144481612Y-82687714D01*
X144481610Y-82687713D01*
X144424653Y-82658691D01*
X144299223Y-82594781D01*
X144104534Y-82531522D01*
X143929995Y-82503878D01*
X143902352Y-82499500D01*
X143697648Y-82499500D01*
X143673329Y-82503351D01*
X143495465Y-82531522D01*
X143300776Y-82594781D01*
X143118386Y-82687715D01*
X142952786Y-82808028D01*
X142808028Y-82952786D01*
X142687715Y-83118386D01*
X142594781Y-83300776D01*
X142531522Y-83495465D01*
X142499500Y-83697648D01*
X134219978Y-83697648D01*
X134281247Y-83636379D01*
X134288279Y-83627214D01*
X134295895Y-83617290D01*
X134377842Y-83510493D01*
X134416948Y-83459529D01*
X134528405Y-83266481D01*
X134613710Y-83060536D01*
X134671404Y-82845218D01*
X134700500Y-82624212D01*
X134700500Y-82401298D01*
X134671404Y-82180292D01*
X134613710Y-81964974D01*
X134528405Y-81759029D01*
X134416948Y-81565981D01*
X134281247Y-81389131D01*
X134281242Y-81389125D01*
X134123629Y-81231512D01*
X134123622Y-81231506D01*
X133946782Y-81095813D01*
X133946780Y-81095812D01*
X133946774Y-81095807D01*
X133753726Y-80984350D01*
X133753722Y-80984348D01*
X133547790Y-80899048D01*
X133547783Y-80899046D01*
X133547781Y-80899045D01*
X133332463Y-80841351D01*
X133332457Y-80841350D01*
X133332452Y-80841349D01*
X133111466Y-80812256D01*
X133111463Y-80812255D01*
X133111457Y-80812255D01*
X132888543Y-80812255D01*
X132888537Y-80812255D01*
X132888533Y-80812256D01*
X132667547Y-80841349D01*
X132667540Y-80841350D01*
X132667537Y-80841351D01*
X132452219Y-80899045D01*
X132452209Y-80899048D01*
X132246277Y-80984348D01*
X132246273Y-80984350D01*
X132053226Y-81095807D01*
X132053217Y-81095813D01*
X131876377Y-81231506D01*
X131876370Y-81231512D01*
X131718757Y-81389125D01*
X131718751Y-81389132D01*
X131583058Y-81565972D01*
X131583052Y-81565981D01*
X131471595Y-81759028D01*
X131471593Y-81759032D01*
X131386293Y-81964964D01*
X131386290Y-81964974D01*
X131328597Y-82180289D01*
X131328594Y-82180302D01*
X131299501Y-82401288D01*
X131299500Y-82401304D01*
X113698822Y-82401304D01*
X113671404Y-82193047D01*
X113613710Y-81977729D01*
X113528405Y-81771784D01*
X113416948Y-81578736D01*
X113281247Y-81401886D01*
X113281242Y-81401880D01*
X113123629Y-81244267D01*
X113123622Y-81244261D01*
X112946782Y-81108568D01*
X112946780Y-81108567D01*
X112946774Y-81108562D01*
X112753726Y-80997105D01*
X112753722Y-80997103D01*
X112547790Y-80911803D01*
X112547783Y-80911801D01*
X112547781Y-80911800D01*
X112332463Y-80854106D01*
X112332457Y-80854105D01*
X112332452Y-80854104D01*
X112111466Y-80825011D01*
X112111463Y-80825010D01*
X112111457Y-80825010D01*
X111888543Y-80825010D01*
X111888537Y-80825010D01*
X111888533Y-80825011D01*
X111667547Y-80854104D01*
X111667540Y-80854105D01*
X111667537Y-80854106D01*
X111452219Y-80911800D01*
X111452209Y-80911803D01*
X111246277Y-80997103D01*
X111246273Y-80997105D01*
X111053226Y-81108562D01*
X111053217Y-81108568D01*
X110876377Y-81244261D01*
X110876370Y-81244267D01*
X110718757Y-81401880D01*
X110718751Y-81401887D01*
X110583058Y-81578727D01*
X110583052Y-81578736D01*
X110471595Y-81771783D01*
X110471593Y-81771787D01*
X110386293Y-81977719D01*
X110386290Y-81977729D01*
X110332015Y-82180289D01*
X110328597Y-82193044D01*
X110328594Y-82193057D01*
X110299501Y-82414043D01*
X110299500Y-82414059D01*
X99235409Y-82414059D01*
X99318656Y-82362712D01*
X99442712Y-82238656D01*
X99534814Y-82089335D01*
X99589999Y-81922798D01*
X99600500Y-81820010D01*
X99600500Y-80019990D01*
X99589999Y-79917202D01*
X99534814Y-79750665D01*
X99442712Y-79601344D01*
X99318656Y-79477288D01*
X99188957Y-79397289D01*
X99169337Y-79385187D01*
X99169332Y-79385185D01*
X99167863Y-79384698D01*
X99002798Y-79330001D01*
X99002796Y-79330000D01*
X98900017Y-79319500D01*
X98900010Y-79319500D01*
X97099990Y-79319500D01*
X97099982Y-79319500D01*
X96997203Y-79330000D01*
X96997202Y-79330001D01*
X96914669Y-79357349D01*
X96830667Y-79385185D01*
X96830662Y-79385187D01*
X96681342Y-79477289D01*
X96557289Y-79601342D01*
X96465187Y-79750662D01*
X96465186Y-79750665D01*
X96410001Y-79917202D01*
X96410001Y-79917203D01*
X96410000Y-79917203D01*
X96399500Y-80019982D01*
X89600500Y-80019982D01*
X89600500Y-79939990D01*
X89589999Y-79837202D01*
X89534814Y-79670665D01*
X89442712Y-79521344D01*
X89318656Y-79397288D01*
X89225890Y-79340070D01*
X89169337Y-79305187D01*
X89169332Y-79305185D01*
X89150748Y-79299027D01*
X89002798Y-79250001D01*
X89002796Y-79250000D01*
X88900017Y-79239500D01*
X88900010Y-79239500D01*
X87099990Y-79239500D01*
X87099982Y-79239500D01*
X86997203Y-79250000D01*
X86997202Y-79250001D01*
X86924549Y-79274076D01*
X86830667Y-79305185D01*
X86830662Y-79305187D01*
X86681342Y-79397289D01*
X86557289Y-79521342D01*
X86465187Y-79670662D01*
X86465186Y-79670665D01*
X86410001Y-79837202D01*
X86410001Y-79837203D01*
X86410000Y-79837203D01*
X86399500Y-79939982D01*
X84039906Y-79939982D01*
X84061090Y-79874785D01*
X84100500Y-79625962D01*
X84100500Y-79374038D01*
X84061090Y-79125215D01*
X83983241Y-78885621D01*
X83983239Y-78885618D01*
X83983239Y-78885616D01*
X83913686Y-78749111D01*
X83888662Y-78700000D01*
X83887481Y-78697682D01*
X142500000Y-78697682D01*
X142500000Y-78902317D01*
X142532009Y-79104417D01*
X142595244Y-79299031D01*
X142688141Y-79481350D01*
X142688147Y-79481359D01*
X142720523Y-79525921D01*
X142720524Y-79525922D01*
X143400000Y-78846446D01*
X143400000Y-78852661D01*
X143427259Y-78954394D01*
X143479920Y-79045606D01*
X143554394Y-79120080D01*
X143645606Y-79172741D01*
X143747339Y-79200000D01*
X143753553Y-79200000D01*
X143074076Y-79879474D01*
X143118650Y-79911859D01*
X143300968Y-80004755D01*
X143495582Y-80067990D01*
X143697683Y-80100000D01*
X143902317Y-80100000D01*
X144104417Y-80067990D01*
X144299031Y-80004755D01*
X144481349Y-79911859D01*
X144525921Y-79879474D01*
X143846447Y-79200000D01*
X143852661Y-79200000D01*
X143954394Y-79172741D01*
X144045606Y-79120080D01*
X144120080Y-79045606D01*
X144172741Y-78954394D01*
X144200000Y-78852661D01*
X144200000Y-78846447D01*
X144879474Y-79525921D01*
X144911859Y-79481349D01*
X145004757Y-79299027D01*
X145014122Y-79270205D01*
X145014124Y-79270198D01*
X145067990Y-79104417D01*
X145100000Y-78902317D01*
X145100000Y-78697682D01*
X145067990Y-78495582D01*
X145004755Y-78300968D01*
X144911859Y-78118650D01*
X144879474Y-78074077D01*
X144879474Y-78074076D01*
X144200000Y-78753551D01*
X144200000Y-78747339D01*
X144172741Y-78645606D01*
X144120080Y-78554394D01*
X144045606Y-78479920D01*
X143954394Y-78427259D01*
X143852661Y-78400000D01*
X143846446Y-78400000D01*
X144525922Y-77720524D01*
X144525921Y-77720523D01*
X144481359Y-77688147D01*
X144481350Y-77688141D01*
X144299031Y-77595244D01*
X144104417Y-77532009D01*
X143902317Y-77500000D01*
X143697683Y-77500000D01*
X143495582Y-77532009D01*
X143300968Y-77595244D01*
X143118644Y-77688143D01*
X143074077Y-77720523D01*
X143074077Y-77720524D01*
X143753554Y-78400000D01*
X143747339Y-78400000D01*
X143645606Y-78427259D01*
X143554394Y-78479920D01*
X143479920Y-78554394D01*
X143427259Y-78645606D01*
X143400000Y-78747339D01*
X143400000Y-78753553D01*
X142720524Y-78074077D01*
X142720523Y-78074077D01*
X142688143Y-78118644D01*
X142595244Y-78300968D01*
X142532009Y-78495582D01*
X142500000Y-78697682D01*
X83887481Y-78697682D01*
X83868870Y-78661155D01*
X83849952Y-78635117D01*
X83720798Y-78457350D01*
X83720794Y-78457345D01*
X83542654Y-78279205D01*
X83542649Y-78279201D01*
X83338848Y-78131132D01*
X83338847Y-78131131D01*
X83338845Y-78131130D01*
X83268747Y-78095413D01*
X83114383Y-78016760D01*
X82874785Y-77938910D01*
X82625962Y-77899500D01*
X82374038Y-77899500D01*
X82249626Y-77919205D01*
X82125214Y-77938910D01*
X81885616Y-78016760D01*
X81661151Y-78131132D01*
X81457350Y-78279201D01*
X81457345Y-78279205D01*
X81279205Y-78457345D01*
X81279201Y-78457350D01*
X81131132Y-78661151D01*
X81016760Y-78885616D01*
X80938910Y-79125211D01*
X80933642Y-79158472D01*
X80903711Y-79221606D01*
X80844398Y-79258536D01*
X80774536Y-79257536D01*
X80716304Y-79218925D01*
X80696610Y-79186527D01*
X80669394Y-79120821D01*
X80669390Y-79120814D01*
X80581789Y-78989711D01*
X80581786Y-78989707D01*
X80470292Y-78878213D01*
X80470288Y-78878210D01*
X80339185Y-78790609D01*
X80339172Y-78790602D01*
X80193501Y-78730264D01*
X80193489Y-78730261D01*
X80038845Y-78699500D01*
X80038842Y-78699500D01*
X79881158Y-78699500D01*
X79881155Y-78699500D01*
X79726510Y-78730261D01*
X79726498Y-78730264D01*
X79580827Y-78790602D01*
X79580814Y-78790609D01*
X79449711Y-78878210D01*
X79449707Y-78878213D01*
X79338213Y-78989707D01*
X79338210Y-78989711D01*
X79250609Y-79120814D01*
X79250602Y-79120827D01*
X79190264Y-79266498D01*
X79190261Y-79266510D01*
X79159500Y-79421153D01*
X78500500Y-79421153D01*
X78500500Y-76881153D01*
X79159500Y-76881153D01*
X79159500Y-77038846D01*
X79190261Y-77193489D01*
X79190264Y-77193501D01*
X79250602Y-77339172D01*
X79250609Y-77339185D01*
X79338210Y-77470288D01*
X79338213Y-77470292D01*
X79449707Y-77581786D01*
X79449711Y-77581789D01*
X79580814Y-77669390D01*
X79580827Y-77669397D01*
X79726498Y-77729735D01*
X79726503Y-77729737D01*
X79881153Y-77760499D01*
X79881156Y-77760500D01*
X79881158Y-77760500D01*
X80038844Y-77760500D01*
X80038845Y-77760499D01*
X80193497Y-77729737D01*
X80339179Y-77669394D01*
X80346232Y-77664681D01*
X80346233Y-77664681D01*
X80387859Y-77636866D01*
X80470289Y-77581789D01*
X80581789Y-77470289D01*
X80669394Y-77339179D01*
X80729737Y-77193497D01*
X80760500Y-77038842D01*
X80760500Y-76881158D01*
X80760500Y-76881155D01*
X80760499Y-76881153D01*
X80729738Y-76726510D01*
X80729737Y-76726503D01*
X80711882Y-76683397D01*
X80669397Y-76580827D01*
X80669390Y-76580814D01*
X80581789Y-76449711D01*
X80581786Y-76449707D01*
X80470292Y-76338213D01*
X80470288Y-76338210D01*
X80339185Y-76250609D01*
X80339172Y-76250602D01*
X80193501Y-76190264D01*
X80193489Y-76190261D01*
X80038845Y-76159500D01*
X80038842Y-76159500D01*
X79881158Y-76159500D01*
X79881155Y-76159500D01*
X79726510Y-76190261D01*
X79726498Y-76190264D01*
X79580827Y-76250602D01*
X79580814Y-76250609D01*
X79449711Y-76338210D01*
X79449707Y-76338213D01*
X79338213Y-76449707D01*
X79338210Y-76449711D01*
X79250609Y-76580814D01*
X79250602Y-76580827D01*
X79190264Y-76726498D01*
X79190261Y-76726510D01*
X79159500Y-76881153D01*
X78500500Y-76881153D01*
X78500500Y-74341153D01*
X79159500Y-74341153D01*
X79159500Y-74498846D01*
X79190261Y-74653489D01*
X79190264Y-74653501D01*
X79250602Y-74799172D01*
X79250609Y-74799185D01*
X79338210Y-74930288D01*
X79338213Y-74930292D01*
X79449707Y-75041786D01*
X79449711Y-75041789D01*
X79580814Y-75129390D01*
X79580827Y-75129397D01*
X79726498Y-75189735D01*
X79726503Y-75189737D01*
X79881153Y-75220499D01*
X79881156Y-75220500D01*
X79881158Y-75220500D01*
X80038844Y-75220500D01*
X80038845Y-75220499D01*
X80193497Y-75189737D01*
X80339179Y-75129394D01*
X80470289Y-75041789D01*
X80581789Y-74930289D01*
X80669394Y-74799179D01*
X80672398Y-74794684D01*
X80726010Y-74749879D01*
X80795335Y-74741172D01*
X80858363Y-74771326D01*
X80895082Y-74830770D01*
X80899500Y-74863575D01*
X80899500Y-75320017D01*
X80910000Y-75422796D01*
X80910001Y-75422798D01*
X80965186Y-75589335D01*
X81057288Y-75738656D01*
X81181344Y-75862712D01*
X81330665Y-75954814D01*
X81497202Y-76009999D01*
X81599990Y-76020500D01*
X81599995Y-76020500D01*
X83400005Y-76020500D01*
X83400010Y-76020500D01*
X83502798Y-76009999D01*
X83669335Y-75954814D01*
X83818656Y-75862712D01*
X83942712Y-75738656D01*
X84034814Y-75589335D01*
X84089999Y-75422798D01*
X84100500Y-75320010D01*
X84100500Y-73954038D01*
X86399500Y-73954038D01*
X86399500Y-74205961D01*
X86438910Y-74454785D01*
X86516760Y-74694383D01*
X86595413Y-74848747D01*
X86620103Y-74897204D01*
X86631132Y-74918848D01*
X86779201Y-75122649D01*
X86779205Y-75122654D01*
X86957345Y-75300794D01*
X86957350Y-75300798D01*
X87093891Y-75400000D01*
X87161155Y-75448870D01*
X87304184Y-75521747D01*
X87385616Y-75563239D01*
X87385618Y-75563239D01*
X87385621Y-75563241D01*
X87625215Y-75641090D01*
X87874038Y-75680500D01*
X87874039Y-75680500D01*
X88125961Y-75680500D01*
X88125962Y-75680500D01*
X88374785Y-75641090D01*
X88614379Y-75563241D01*
X88838845Y-75448870D01*
X89042656Y-75300793D01*
X89220793Y-75122656D01*
X89368870Y-74918845D01*
X89483241Y-74694379D01*
X89561090Y-74454785D01*
X89600500Y-74205962D01*
X89600500Y-74034038D01*
X96399500Y-74034038D01*
X96399500Y-74285962D01*
X96408242Y-74341158D01*
X96438910Y-74534785D01*
X96516760Y-74774383D01*
X96631132Y-74998848D01*
X96779201Y-75202649D01*
X96779205Y-75202654D01*
X96957345Y-75380794D01*
X96957350Y-75380798D01*
X97051040Y-75448867D01*
X97161155Y-75528870D01*
X97304184Y-75601747D01*
X97385616Y-75643239D01*
X97385618Y-75643239D01*
X97385621Y-75643241D01*
X97625215Y-75721090D01*
X97874038Y-75760500D01*
X97874039Y-75760500D01*
X98125961Y-75760500D01*
X98125962Y-75760500D01*
X98374785Y-75721090D01*
X98614379Y-75643241D01*
X98838845Y-75528870D01*
X99042656Y-75380793D01*
X99220793Y-75202656D01*
X99274024Y-75129390D01*
X99324926Y-75059330D01*
X99368032Y-74999998D01*
X99368870Y-74998845D01*
X99483241Y-74774379D01*
X99561090Y-74534785D01*
X99600500Y-74285962D01*
X99600500Y-74034038D01*
X99594742Y-73997682D01*
X142500000Y-73997682D01*
X142500000Y-74202317D01*
X142532009Y-74404417D01*
X142595244Y-74599031D01*
X142688141Y-74781350D01*
X142688147Y-74781359D01*
X142720523Y-74825921D01*
X142720524Y-74825922D01*
X143400000Y-74146446D01*
X143400000Y-74152661D01*
X143427259Y-74254394D01*
X143479920Y-74345606D01*
X143554394Y-74420080D01*
X143645606Y-74472741D01*
X143747339Y-74500000D01*
X143753553Y-74500000D01*
X143074076Y-75179474D01*
X143118650Y-75211859D01*
X143300968Y-75304755D01*
X143495582Y-75367990D01*
X143697683Y-75400000D01*
X143902317Y-75400000D01*
X144104417Y-75367990D01*
X144299031Y-75304755D01*
X144481349Y-75211859D01*
X144525921Y-75179474D01*
X144525922Y-75179474D01*
X144430963Y-75084515D01*
X144346431Y-74999983D01*
X149174500Y-74999983D01*
X149174500Y-75800001D01*
X149174501Y-75800019D01*
X149185000Y-75902796D01*
X149185001Y-75902799D01*
X149224004Y-76020500D01*
X149240186Y-76069334D01*
X149332288Y-76218656D01*
X149456344Y-76342712D01*
X149520981Y-76382580D01*
X149567705Y-76434526D01*
X149578928Y-76503489D01*
X149551085Y-76567571D01*
X149543566Y-76575799D01*
X149435964Y-76683401D01*
X149334195Y-76823475D01*
X149255591Y-76977744D01*
X149202085Y-77142415D01*
X149200884Y-77149999D01*
X149200885Y-77150000D01*
X150269670Y-77150000D01*
X150249925Y-77169745D01*
X150200556Y-77255255D01*
X150175000Y-77350630D01*
X150175000Y-77449370D01*
X150200556Y-77544745D01*
X150249925Y-77630255D01*
X150269670Y-77650000D01*
X149200885Y-77650000D01*
X149202085Y-77657584D01*
X149255591Y-77822255D01*
X149334195Y-77976524D01*
X149435967Y-78116602D01*
X149558401Y-78239036D01*
X149641447Y-78299371D01*
X149684114Y-78354701D01*
X149690093Y-78424314D01*
X149657488Y-78486109D01*
X149641450Y-78500007D01*
X149558072Y-78560585D01*
X149435588Y-78683069D01*
X149435588Y-78683070D01*
X149435586Y-78683072D01*
X149423287Y-78700000D01*
X149333768Y-78823211D01*
X149255128Y-78977552D01*
X149201597Y-79142302D01*
X149174500Y-79313389D01*
X149174500Y-79486610D01*
X149192671Y-79601342D01*
X149201598Y-79657701D01*
X149252213Y-79813478D01*
X149255128Y-79822447D01*
X149293462Y-79897682D01*
X149333768Y-79976788D01*
X149435586Y-80116928D01*
X149558072Y-80239414D01*
X149698212Y-80341232D01*
X149852555Y-80419873D01*
X150017299Y-80473402D01*
X150188389Y-80500500D01*
X150188390Y-80500500D01*
X150911610Y-80500500D01*
X150911611Y-80500500D01*
X151082701Y-80473402D01*
X151247445Y-80419873D01*
X151401788Y-80341232D01*
X151541928Y-80239414D01*
X151664414Y-80116928D01*
X151766232Y-79976788D01*
X151806538Y-79897682D01*
X151806555Y-79897648D01*
X156249500Y-79897648D01*
X156249500Y-80102351D01*
X156281522Y-80304534D01*
X156344781Y-80499223D01*
X156366911Y-80542654D01*
X156437585Y-80681359D01*
X156437715Y-80681613D01*
X156558028Y-80847213D01*
X156702786Y-80991971D01*
X156823226Y-81079474D01*
X156868390Y-81112287D01*
X156984607Y-81171503D01*
X157050776Y-81205218D01*
X157050778Y-81205218D01*
X157050781Y-81205220D01*
X157155137Y-81239127D01*
X157245465Y-81268477D01*
X157346557Y-81284488D01*
X157447648Y-81300500D01*
X157447649Y-81300500D01*
X157652351Y-81300500D01*
X157652352Y-81300500D01*
X157854534Y-81268477D01*
X158049219Y-81205220D01*
X158231610Y-81112287D01*
X158324590Y-81044732D01*
X158397213Y-80991971D01*
X158397215Y-80991968D01*
X158397219Y-80991966D01*
X158541966Y-80847219D01*
X158541968Y-80847215D01*
X158541971Y-80847213D01*
X158594732Y-80774590D01*
X158662287Y-80681610D01*
X158755220Y-80499219D01*
X158818477Y-80304534D01*
X158850500Y-80102352D01*
X158850500Y-79897682D01*
X161250000Y-79897682D01*
X161250000Y-80102317D01*
X161282009Y-80304417D01*
X161345244Y-80499031D01*
X161438141Y-80681350D01*
X161438147Y-80681359D01*
X161470523Y-80725921D01*
X161470524Y-80725922D01*
X162150000Y-80046446D01*
X162150000Y-80052661D01*
X162177259Y-80154394D01*
X162229920Y-80245606D01*
X162304394Y-80320080D01*
X162395606Y-80372741D01*
X162497339Y-80400000D01*
X162503553Y-80400000D01*
X161824076Y-81079474D01*
X161868650Y-81111859D01*
X162050968Y-81204755D01*
X162245582Y-81267990D01*
X162447683Y-81300000D01*
X162652317Y-81300000D01*
X162854417Y-81267990D01*
X163049031Y-81204755D01*
X163231349Y-81111859D01*
X163275921Y-81079474D01*
X162596447Y-80400000D01*
X162602661Y-80400000D01*
X162704394Y-80372741D01*
X162795606Y-80320080D01*
X162870080Y-80245606D01*
X162922741Y-80154394D01*
X162950000Y-80052661D01*
X162950000Y-80046448D01*
X163629474Y-80725922D01*
X163629474Y-80725921D01*
X163661859Y-80681349D01*
X163754755Y-80499031D01*
X163817990Y-80304417D01*
X163850000Y-80102317D01*
X163850000Y-79897682D01*
X163817990Y-79695582D01*
X163754755Y-79500968D01*
X163661859Y-79318650D01*
X163629474Y-79274077D01*
X163629474Y-79274076D01*
X162950000Y-79953551D01*
X162950000Y-79947339D01*
X162922741Y-79845606D01*
X162870080Y-79754394D01*
X162795606Y-79679920D01*
X162704394Y-79627259D01*
X162602661Y-79600000D01*
X162596446Y-79600000D01*
X163275922Y-78920524D01*
X163275921Y-78920523D01*
X163231359Y-78888147D01*
X163231350Y-78888141D01*
X163049031Y-78795244D01*
X162854417Y-78732009D01*
X162652317Y-78700000D01*
X162447683Y-78700000D01*
X162245582Y-78732009D01*
X162050968Y-78795244D01*
X161868644Y-78888143D01*
X161824077Y-78920523D01*
X161824077Y-78920524D01*
X162503554Y-79600000D01*
X162497339Y-79600000D01*
X162395606Y-79627259D01*
X162304394Y-79679920D01*
X162229920Y-79754394D01*
X162177259Y-79845606D01*
X162150000Y-79947339D01*
X162150000Y-79953553D01*
X161470524Y-79274077D01*
X161470523Y-79274077D01*
X161438143Y-79318644D01*
X161345244Y-79500968D01*
X161282009Y-79695582D01*
X161250000Y-79897682D01*
X158850500Y-79897682D01*
X158850500Y-79897648D01*
X158837169Y-79813478D01*
X158818477Y-79695465D01*
X158780585Y-79578846D01*
X158755220Y-79500781D01*
X158755218Y-79500778D01*
X158755218Y-79500776D01*
X158702488Y-79397289D01*
X158662287Y-79318390D01*
X158630092Y-79274077D01*
X158541971Y-79152786D01*
X158397213Y-79008028D01*
X158231613Y-78887715D01*
X158231612Y-78887714D01*
X158231610Y-78887713D01*
X158162817Y-78852661D01*
X158049223Y-78794781D01*
X157854534Y-78731522D01*
X157679995Y-78703878D01*
X157652352Y-78699500D01*
X157447648Y-78699500D01*
X157423329Y-78703351D01*
X157245465Y-78731522D01*
X157050776Y-78794781D01*
X156868386Y-78887715D01*
X156702786Y-79008028D01*
X156558028Y-79152786D01*
X156437715Y-79318386D01*
X156344781Y-79500776D01*
X156281522Y-79695465D01*
X156249500Y-79897648D01*
X151806555Y-79897648D01*
X151837721Y-79836482D01*
X151837721Y-79836481D01*
X151837722Y-79836479D01*
X151844873Y-79822445D01*
X151898402Y-79657701D01*
X151925500Y-79486611D01*
X151925500Y-79313389D01*
X151898402Y-79142299D01*
X151844873Y-78977555D01*
X151766232Y-78823212D01*
X151664414Y-78683072D01*
X151541928Y-78560586D01*
X151458550Y-78500008D01*
X151415885Y-78444677D01*
X151409906Y-78375064D01*
X151442512Y-78313269D01*
X151458552Y-78299371D01*
X151541598Y-78239036D01*
X151664032Y-78116602D01*
X151765804Y-77976524D01*
X151844408Y-77822255D01*
X151897914Y-77657584D01*
X151899115Y-77650000D01*
X150830330Y-77650000D01*
X150850075Y-77630255D01*
X150899444Y-77544745D01*
X150925000Y-77449370D01*
X150925000Y-77350630D01*
X150899444Y-77255255D01*
X150850075Y-77169745D01*
X150830330Y-77150000D01*
X151899115Y-77150000D01*
X151899115Y-77149999D01*
X151897914Y-77142415D01*
X151844408Y-76977744D01*
X151765804Y-76823475D01*
X151664032Y-76683397D01*
X151556434Y-76575799D01*
X151522949Y-76514476D01*
X151527933Y-76444784D01*
X151569805Y-76388851D01*
X151578995Y-76382594D01*
X151643656Y-76342712D01*
X151767712Y-76218656D01*
X151859814Y-76069334D01*
X151914999Y-75902797D01*
X151925500Y-75800009D01*
X151925499Y-74999992D01*
X151914999Y-74897203D01*
X151859814Y-74730666D01*
X151767712Y-74581344D01*
X151643656Y-74457288D01*
X151494334Y-74365186D01*
X151327797Y-74310001D01*
X151327795Y-74310000D01*
X151225010Y-74299500D01*
X149874998Y-74299500D01*
X149874981Y-74299501D01*
X149772203Y-74310000D01*
X149772200Y-74310001D01*
X149605668Y-74365185D01*
X149605663Y-74365187D01*
X149456342Y-74457289D01*
X149332289Y-74581342D01*
X149240187Y-74730663D01*
X149240185Y-74730668D01*
X149223391Y-74781349D01*
X149185001Y-74897203D01*
X149185001Y-74897204D01*
X149185000Y-74897204D01*
X149174500Y-74999983D01*
X144346431Y-74999983D01*
X143846447Y-74500000D01*
X143852661Y-74500000D01*
X143954394Y-74472741D01*
X144045606Y-74420080D01*
X144120080Y-74345606D01*
X144172741Y-74254394D01*
X144200000Y-74152661D01*
X144200000Y-74146447D01*
X144879474Y-74825921D01*
X144911859Y-74781349D01*
X145004755Y-74599031D01*
X145067990Y-74404417D01*
X145100000Y-74202317D01*
X145100000Y-73997682D01*
X145067990Y-73795582D01*
X145004755Y-73600968D01*
X144949585Y-73492692D01*
X144949584Y-73492690D01*
X144911861Y-73418652D01*
X144879474Y-73374077D01*
X144879474Y-73374076D01*
X144200000Y-74053551D01*
X144200000Y-74047339D01*
X144172741Y-73945606D01*
X144120080Y-73854394D01*
X144045606Y-73779920D01*
X143954394Y-73727259D01*
X143852661Y-73700000D01*
X143846446Y-73700000D01*
X144525922Y-73020524D01*
X144525921Y-73020523D01*
X144481359Y-72988147D01*
X144481350Y-72988141D01*
X144299031Y-72895244D01*
X144104417Y-72832009D01*
X143902317Y-72800000D01*
X143697683Y-72800000D01*
X143495582Y-72832009D01*
X143300968Y-72895244D01*
X143118644Y-72988143D01*
X143074077Y-73020523D01*
X143074077Y-73020524D01*
X143753554Y-73700000D01*
X143747339Y-73700000D01*
X143645606Y-73727259D01*
X143554394Y-73779920D01*
X143479920Y-73854394D01*
X143427259Y-73945606D01*
X143400000Y-74047339D01*
X143400000Y-74053553D01*
X142720524Y-73374077D01*
X142720523Y-73374077D01*
X142688143Y-73418644D01*
X142595244Y-73600968D01*
X142532009Y-73795582D01*
X142500000Y-73997682D01*
X99594742Y-73997682D01*
X99561090Y-73785215D01*
X99483241Y-73545621D01*
X99483239Y-73545618D01*
X99483239Y-73545616D01*
X99417808Y-73417202D01*
X99368870Y-73321155D01*
X99314439Y-73246237D01*
X99237742Y-73140671D01*
X99237740Y-73140669D01*
X99220794Y-73117345D01*
X99042654Y-72939205D01*
X99042649Y-72939201D01*
X98838848Y-72791132D01*
X98838847Y-72791131D01*
X98838845Y-72791130D01*
X98768747Y-72755413D01*
X98614383Y-72676760D01*
X98374785Y-72598910D01*
X98125962Y-72559500D01*
X97874038Y-72559500D01*
X97749626Y-72579205D01*
X97625214Y-72598910D01*
X97385616Y-72676760D01*
X97161151Y-72791132D01*
X96957350Y-72939201D01*
X96957345Y-72939205D01*
X96779205Y-73117345D01*
X96779201Y-73117350D01*
X96631132Y-73321151D01*
X96516760Y-73545616D01*
X96438910Y-73785214D01*
X96436851Y-73798213D01*
X96399500Y-74034038D01*
X89600500Y-74034038D01*
X89600500Y-73954038D01*
X89561090Y-73705215D01*
X89483241Y-73465621D01*
X89483239Y-73465618D01*
X89483239Y-73465616D01*
X89436597Y-73374077D01*
X89368870Y-73241155D01*
X89349952Y-73215117D01*
X89220798Y-73037350D01*
X89220794Y-73037345D01*
X89042654Y-72859205D01*
X89042649Y-72859201D01*
X88838848Y-72711132D01*
X88838847Y-72711131D01*
X88838845Y-72711130D01*
X88768747Y-72675413D01*
X88614383Y-72596760D01*
X88374785Y-72518910D01*
X88125962Y-72479500D01*
X87874038Y-72479500D01*
X87749626Y-72499205D01*
X87625214Y-72518910D01*
X87385616Y-72596760D01*
X87161151Y-72711132D01*
X86957350Y-72859201D01*
X86957345Y-72859205D01*
X86779205Y-73037345D01*
X86779201Y-73037350D01*
X86631132Y-73241151D01*
X86516760Y-73465616D01*
X86438910Y-73705214D01*
X86399500Y-73954038D01*
X84100500Y-73954038D01*
X84100500Y-73519990D01*
X84089999Y-73417202D01*
X84034814Y-73250665D01*
X83942712Y-73101344D01*
X83818656Y-72977288D01*
X83669335Y-72885186D01*
X83502798Y-72830001D01*
X83502796Y-72830000D01*
X83400017Y-72819500D01*
X83400010Y-72819500D01*
X81599990Y-72819500D01*
X81599982Y-72819500D01*
X81497203Y-72830000D01*
X81497202Y-72830001D01*
X81414669Y-72857349D01*
X81330667Y-72885185D01*
X81330662Y-72885187D01*
X81181342Y-72977289D01*
X81057289Y-73101342D01*
X80965187Y-73250662D01*
X80965186Y-73250665D01*
X80910001Y-73417202D01*
X80910001Y-73417203D01*
X80910000Y-73417203D01*
X80899500Y-73519982D01*
X80899500Y-73976424D01*
X80879815Y-74043463D01*
X80827011Y-74089218D01*
X80757853Y-74099162D01*
X80694297Y-74070137D01*
X80672398Y-74045315D01*
X80581789Y-73909711D01*
X80581786Y-73909707D01*
X80470292Y-73798213D01*
X80470288Y-73798210D01*
X80339185Y-73710609D01*
X80339172Y-73710602D01*
X80193501Y-73650264D01*
X80193489Y-73650261D01*
X80038845Y-73619500D01*
X80038842Y-73619500D01*
X79881158Y-73619500D01*
X79881155Y-73619500D01*
X79726510Y-73650261D01*
X79726498Y-73650264D01*
X79580827Y-73710602D01*
X79580814Y-73710609D01*
X79449711Y-73798210D01*
X79449707Y-73798213D01*
X79338213Y-73909707D01*
X79338210Y-73909711D01*
X79250609Y-74040814D01*
X79250602Y-74040827D01*
X79190264Y-74186498D01*
X79190261Y-74186510D01*
X79159500Y-74341153D01*
X78500500Y-74341153D01*
X78500500Y-69999984D01*
X110299500Y-69999984D01*
X110299500Y-72000015D01*
X110310000Y-72102795D01*
X110310001Y-72102796D01*
X110365186Y-72269335D01*
X110365187Y-72269337D01*
X110457286Y-72418651D01*
X110457289Y-72418655D01*
X110581344Y-72542710D01*
X110581348Y-72542713D01*
X110730662Y-72634812D01*
X110730664Y-72634813D01*
X110730666Y-72634814D01*
X110897203Y-72689999D01*
X110999992Y-72700500D01*
X110999997Y-72700500D01*
X113000003Y-72700500D01*
X113000008Y-72700500D01*
X113102797Y-72689999D01*
X113269334Y-72634814D01*
X113418655Y-72542711D01*
X113542711Y-72418655D01*
X113634814Y-72269334D01*
X113689999Y-72102797D01*
X113700500Y-72000008D01*
X113700500Y-69999992D01*
X113699197Y-69987242D01*
X113699196Y-69987229D01*
X131299500Y-69987229D01*
X131299500Y-71987260D01*
X131310000Y-72090040D01*
X131310001Y-72090042D01*
X131314228Y-72102797D01*
X131365186Y-72256580D01*
X131365187Y-72256582D01*
X131457286Y-72405896D01*
X131457289Y-72405900D01*
X131581344Y-72529955D01*
X131581348Y-72529958D01*
X131730662Y-72622057D01*
X131730664Y-72622058D01*
X131730666Y-72622059D01*
X131897203Y-72677244D01*
X131999992Y-72687745D01*
X131999997Y-72687745D01*
X134000003Y-72687745D01*
X134000008Y-72687745D01*
X134102797Y-72677244D01*
X134269334Y-72622059D01*
X134418655Y-72529956D01*
X134542711Y-72405900D01*
X134634814Y-72256579D01*
X134689999Y-72090042D01*
X134700500Y-71987253D01*
X134700500Y-69987237D01*
X134689999Y-69884448D01*
X134634814Y-69717911D01*
X134634697Y-69717722D01*
X134542713Y-69568593D01*
X134542710Y-69568589D01*
X134418655Y-69444534D01*
X134418651Y-69444531D01*
X134269337Y-69352432D01*
X134269335Y-69352431D01*
X134175936Y-69321482D01*
X134102797Y-69297246D01*
X134102795Y-69297245D01*
X134000015Y-69286745D01*
X134000008Y-69286745D01*
X131999992Y-69286745D01*
X131999984Y-69286745D01*
X131897204Y-69297245D01*
X131897203Y-69297246D01*
X131730664Y-69352431D01*
X131730662Y-69352432D01*
X131581348Y-69444531D01*
X131581344Y-69444534D01*
X131457289Y-69568589D01*
X131457286Y-69568593D01*
X131365187Y-69717907D01*
X131365186Y-69717909D01*
X131310001Y-69884448D01*
X131310000Y-69884449D01*
X131299500Y-69987229D01*
X113699196Y-69987229D01*
X113689999Y-69897205D01*
X113689999Y-69897204D01*
X113689999Y-69897203D01*
X113634814Y-69730666D01*
X113626945Y-69717909D01*
X113542713Y-69581348D01*
X113542710Y-69581344D01*
X113418655Y-69457289D01*
X113418651Y-69457286D01*
X113269337Y-69365187D01*
X113269335Y-69365186D01*
X113137444Y-69321482D01*
X113102797Y-69310001D01*
X113102795Y-69310000D01*
X113000015Y-69299500D01*
X113000008Y-69299500D01*
X110999992Y-69299500D01*
X110999984Y-69299500D01*
X110897204Y-69310000D01*
X110897203Y-69310001D01*
X110730664Y-69365186D01*
X110730662Y-69365187D01*
X110581348Y-69457286D01*
X110581344Y-69457289D01*
X110457289Y-69581344D01*
X110457286Y-69581348D01*
X110365187Y-69730662D01*
X110365186Y-69730664D01*
X110310001Y-69897203D01*
X110310000Y-69897204D01*
X110299500Y-69999984D01*
X78500500Y-69999984D01*
X78500500Y-68997648D01*
X142499500Y-68997648D01*
X142499500Y-69202351D01*
X142531522Y-69404534D01*
X142594781Y-69599223D01*
X142687715Y-69781613D01*
X142808028Y-69947213D01*
X142952786Y-70091971D01*
X143107749Y-70204556D01*
X143118390Y-70212287D01*
X143234607Y-70271503D01*
X143300776Y-70305218D01*
X143300778Y-70305218D01*
X143300781Y-70305220D01*
X143405137Y-70339127D01*
X143495465Y-70368477D01*
X143596557Y-70384488D01*
X143697648Y-70400500D01*
X143697649Y-70400500D01*
X143902351Y-70400500D01*
X143902352Y-70400500D01*
X144104534Y-70368477D01*
X144299219Y-70305220D01*
X144481610Y-70212287D01*
X144574590Y-70144732D01*
X144647213Y-70091971D01*
X144647215Y-70091968D01*
X144647219Y-70091966D01*
X144791966Y-69947219D01*
X144791968Y-69947215D01*
X144791971Y-69947213D01*
X144858135Y-69856144D01*
X144912287Y-69781610D01*
X145005220Y-69599219D01*
X145068477Y-69404534D01*
X145100500Y-69202352D01*
X145100500Y-68997648D01*
X145068477Y-68795466D01*
X145005220Y-68600781D01*
X145005218Y-68600778D01*
X145005218Y-68600776D01*
X144971503Y-68534607D01*
X144912287Y-68418390D01*
X144904556Y-68407749D01*
X144791971Y-68252786D01*
X144647213Y-68108028D01*
X144481613Y-67987715D01*
X144481612Y-67987714D01*
X144481610Y-67987713D01*
X144424653Y-67958691D01*
X144299223Y-67894781D01*
X144104534Y-67831522D01*
X143929995Y-67803878D01*
X143902352Y-67799500D01*
X143697648Y-67799500D01*
X143673329Y-67803351D01*
X143495465Y-67831522D01*
X143300776Y-67894781D01*
X143118386Y-67987715D01*
X142952786Y-68108028D01*
X142808028Y-68252786D01*
X142687715Y-68418386D01*
X142594781Y-68600776D01*
X142531522Y-68795465D01*
X142499500Y-68997648D01*
X78500500Y-68997648D01*
X78500500Y-67658135D01*
X156545500Y-67658135D01*
X156545500Y-69261870D01*
X156545501Y-69261876D01*
X156551908Y-69321483D01*
X156602202Y-69456328D01*
X156602206Y-69456335D01*
X156688452Y-69571544D01*
X156688455Y-69571547D01*
X156803664Y-69657793D01*
X156803671Y-69657797D01*
X156938517Y-69708091D01*
X156938516Y-69708091D01*
X156945444Y-69708835D01*
X156998127Y-69714500D01*
X157054275Y-69714499D01*
X157121312Y-69734182D01*
X157167068Y-69786986D01*
X157177012Y-69856144D01*
X157147988Y-69919700D01*
X157127159Y-69938817D01*
X157107010Y-69953455D01*
X157107010Y-69953457D01*
X157670591Y-70517037D01*
X157607007Y-70534075D01*
X157492993Y-70599901D01*
X157399901Y-70692993D01*
X157334075Y-70807007D01*
X157317037Y-70870590D01*
X156753457Y-70307010D01*
X156753456Y-70307010D01*
X156727483Y-70342760D01*
X156727482Y-70342762D01*
X156637873Y-70518626D01*
X156576876Y-70706353D01*
X156546000Y-70901302D01*
X156546000Y-71098697D01*
X156576876Y-71293646D01*
X156637873Y-71481373D01*
X156727483Y-71657239D01*
X156753457Y-71692988D01*
X156753457Y-71692989D01*
X157317037Y-71129409D01*
X157334075Y-71192993D01*
X157399901Y-71307007D01*
X157492993Y-71400099D01*
X157607007Y-71465925D01*
X157670590Y-71482962D01*
X157107009Y-72046541D01*
X157107010Y-72046542D01*
X157142755Y-72072512D01*
X157142768Y-72072520D01*
X157312953Y-72159235D01*
X157363749Y-72207210D01*
X157380544Y-72275031D01*
X157358006Y-72341166D01*
X157312954Y-72380203D01*
X157151189Y-72462627D01*
X157142495Y-72467058D01*
X156982753Y-72583115D01*
X156843115Y-72722753D01*
X156727058Y-72882495D01*
X156637408Y-73058441D01*
X156576389Y-73246236D01*
X156545500Y-73441263D01*
X156545500Y-73638736D01*
X156576389Y-73833763D01*
X156622743Y-73976424D01*
X156637409Y-74021561D01*
X156721456Y-74186510D01*
X156727058Y-74197504D01*
X156843115Y-74357246D01*
X156982753Y-74496884D01*
X157099002Y-74581342D01*
X157142499Y-74612944D01*
X157318439Y-74702591D01*
X157404852Y-74730668D01*
X157506236Y-74763610D01*
X157701264Y-74794500D01*
X157701269Y-74794500D01*
X157898736Y-74794500D01*
X158093763Y-74763610D01*
X158281561Y-74702591D01*
X158457501Y-74612944D01*
X158547192Y-74547779D01*
X158617246Y-74496884D01*
X158617248Y-74496881D01*
X158617252Y-74496879D01*
X158756879Y-74357252D01*
X158756881Y-74357248D01*
X158756884Y-74357246D01*
X158831609Y-74254394D01*
X158872944Y-74197501D01*
X158962591Y-74021561D01*
X159023610Y-73833763D01*
X159031299Y-73785215D01*
X159054500Y-73638736D01*
X159054500Y-73441263D01*
X159023610Y-73246236D01*
X159003270Y-73183637D01*
X158962591Y-73058439D01*
X158872944Y-72882499D01*
X158856017Y-72859201D01*
X158756884Y-72722753D01*
X158617246Y-72583115D01*
X158457505Y-72467058D01*
X158452334Y-72464423D01*
X158287043Y-72380202D01*
X158236250Y-72332230D01*
X158219455Y-72264409D01*
X158241992Y-72198275D01*
X158287046Y-72159235D01*
X158457241Y-72072516D01*
X158492988Y-72046543D01*
X158492988Y-72046541D01*
X157929410Y-71482962D01*
X157992993Y-71465925D01*
X158107007Y-71400099D01*
X158200099Y-71307007D01*
X158265925Y-71192993D01*
X158282962Y-71129409D01*
X158846541Y-71692988D01*
X158846543Y-71692988D01*
X158872516Y-71657241D01*
X158962126Y-71481373D01*
X159023123Y-71293646D01*
X159054000Y-71098697D01*
X159054000Y-70901302D01*
X159023123Y-70706353D01*
X158962126Y-70518626D01*
X158872520Y-70342768D01*
X158872512Y-70342755D01*
X158846542Y-70307010D01*
X158846541Y-70307009D01*
X158282962Y-70870589D01*
X158265925Y-70807007D01*
X158200099Y-70692993D01*
X158107007Y-70599901D01*
X157992993Y-70534075D01*
X157929409Y-70517037D01*
X158492989Y-69953457D01*
X158492988Y-69953456D01*
X158472839Y-69938817D01*
X158430173Y-69883487D01*
X158424194Y-69813874D01*
X158456800Y-69752079D01*
X158517638Y-69717722D01*
X158545723Y-69714499D01*
X158601872Y-69714499D01*
X158661483Y-69708091D01*
X158796331Y-69657796D01*
X158911546Y-69571546D01*
X158997796Y-69456331D01*
X159048091Y-69321483D01*
X159054500Y-69261873D01*
X159054499Y-67658128D01*
X159048091Y-67598517D01*
X158997796Y-67463669D01*
X158997795Y-67463668D01*
X158997793Y-67463664D01*
X158911547Y-67348455D01*
X158911544Y-67348452D01*
X158796335Y-67262206D01*
X158796328Y-67262202D01*
X158661482Y-67211908D01*
X158661483Y-67211908D01*
X158601883Y-67205501D01*
X158601881Y-67205500D01*
X158601873Y-67205500D01*
X158601864Y-67205500D01*
X156998129Y-67205500D01*
X156998123Y-67205501D01*
X156938516Y-67211908D01*
X156803671Y-67262202D01*
X156803664Y-67262206D01*
X156688455Y-67348452D01*
X156688452Y-67348455D01*
X156602206Y-67463664D01*
X156602202Y-67463671D01*
X156551908Y-67598517D01*
X156545501Y-67658116D01*
X156545501Y-67658123D01*
X156545500Y-67658135D01*
X78500500Y-67658135D01*
X78500500Y-63019982D01*
X86399500Y-63019982D01*
X86399500Y-64820017D01*
X86410000Y-64922796D01*
X86410001Y-64922798D01*
X86465186Y-65089335D01*
X86557288Y-65238656D01*
X86681344Y-65362712D01*
X86830665Y-65454814D01*
X86997202Y-65509999D01*
X87099990Y-65520500D01*
X87099995Y-65520500D01*
X88900005Y-65520500D01*
X88900010Y-65520500D01*
X89002798Y-65509999D01*
X89169335Y-65454814D01*
X89318656Y-65362712D01*
X89442712Y-65238656D01*
X89534814Y-65089335D01*
X89589999Y-64922798D01*
X89600500Y-64820010D01*
X89600500Y-63099982D01*
X96399500Y-63099982D01*
X96399500Y-64900017D01*
X96410000Y-65002796D01*
X96461482Y-65158156D01*
X96465186Y-65169335D01*
X96557288Y-65318656D01*
X96681344Y-65442712D01*
X96830665Y-65534814D01*
X96997202Y-65589999D01*
X97099990Y-65600500D01*
X97099995Y-65600500D01*
X98900005Y-65600500D01*
X98900010Y-65600500D01*
X99002798Y-65589999D01*
X99169335Y-65534814D01*
X99318656Y-65442712D01*
X99442712Y-65318656D01*
X99534814Y-65169335D01*
X99589999Y-65002798D01*
X99600500Y-64900010D01*
X99600500Y-63388575D01*
X110300000Y-63388575D01*
X110300000Y-63611424D01*
X110329085Y-63832354D01*
X110329088Y-63832367D01*
X110386763Y-64047618D01*
X110472045Y-64253502D01*
X110472054Y-64253520D01*
X110583464Y-64446491D01*
X110583473Y-64446504D01*
X110634040Y-64512403D01*
X110634043Y-64512403D01*
X111435387Y-63711059D01*
X111440889Y-63731591D01*
X111519881Y-63868408D01*
X111631592Y-63980119D01*
X111768409Y-64059111D01*
X111788940Y-64064612D01*
X110987595Y-64865955D01*
X110987595Y-64865956D01*
X111053507Y-64916533D01*
X111246485Y-65027949D01*
X111246497Y-65027954D01*
X111452381Y-65113236D01*
X111667632Y-65170911D01*
X111667645Y-65170914D01*
X111888575Y-65200000D01*
X112111425Y-65200000D01*
X112332354Y-65170914D01*
X112332367Y-65170911D01*
X112547618Y-65113236D01*
X112753502Y-65027954D01*
X112753514Y-65027949D01*
X112946498Y-64916530D01*
X113012403Y-64865957D01*
X113012404Y-64865956D01*
X112211059Y-64064612D01*
X112231591Y-64059111D01*
X112368408Y-63980119D01*
X112480119Y-63868408D01*
X112559111Y-63731591D01*
X112564612Y-63711059D01*
X113365956Y-64512404D01*
X113365957Y-64512403D01*
X113416530Y-64446498D01*
X113527949Y-64253514D01*
X113527954Y-64253502D01*
X113613236Y-64047618D01*
X113670911Y-63832367D01*
X113670914Y-63832354D01*
X113700000Y-63611424D01*
X113700000Y-63388577D01*
X113699918Y-63387955D01*
X113699918Y-63387952D01*
X113699917Y-63387947D01*
X113698320Y-63375820D01*
X131300000Y-63375820D01*
X131300000Y-63598669D01*
X131329085Y-63819599D01*
X131329088Y-63819612D01*
X131386763Y-64034863D01*
X131472045Y-64240747D01*
X131472054Y-64240765D01*
X131583464Y-64433736D01*
X131583473Y-64433749D01*
X131634040Y-64499648D01*
X131634043Y-64499648D01*
X132435387Y-63698304D01*
X132440889Y-63718836D01*
X132519881Y-63855653D01*
X132631592Y-63967364D01*
X132768409Y-64046356D01*
X132788940Y-64051857D01*
X131987595Y-64853200D01*
X131987595Y-64853201D01*
X132053507Y-64903778D01*
X132246485Y-65015194D01*
X132246497Y-65015199D01*
X132452381Y-65100481D01*
X132667632Y-65158156D01*
X132667645Y-65158159D01*
X132888575Y-65187245D01*
X133111425Y-65187245D01*
X133332354Y-65158159D01*
X133332367Y-65158156D01*
X133547618Y-65100481D01*
X133753502Y-65015199D01*
X133753514Y-65015194D01*
X133946498Y-64903775D01*
X134012403Y-64853202D01*
X134012404Y-64853201D01*
X133211059Y-64051857D01*
X133231591Y-64046356D01*
X133368408Y-63967364D01*
X133480119Y-63855653D01*
X133559111Y-63718836D01*
X133564612Y-63698304D01*
X134365956Y-64499649D01*
X134365957Y-64499648D01*
X134416530Y-64433743D01*
X134527949Y-64240759D01*
X134527954Y-64240747D01*
X134613236Y-64034863D01*
X134670911Y-63819612D01*
X134670914Y-63819599D01*
X134700000Y-63598669D01*
X134700000Y-63375820D01*
X134670914Y-63154890D01*
X134670911Y-63154877D01*
X134613236Y-62939626D01*
X134527954Y-62733742D01*
X134527949Y-62733730D01*
X134416533Y-62540752D01*
X134365956Y-62474840D01*
X134365955Y-62474840D01*
X133564612Y-63276184D01*
X133559111Y-63255654D01*
X133480119Y-63118837D01*
X133368408Y-63007126D01*
X133231591Y-62928134D01*
X133211058Y-62922632D01*
X134012403Y-62121288D01*
X134012403Y-62121285D01*
X133946504Y-62070718D01*
X133946491Y-62070709D01*
X133753520Y-61959299D01*
X133753502Y-61959290D01*
X133547618Y-61874008D01*
X133332367Y-61816333D01*
X133332354Y-61816330D01*
X133111425Y-61787245D01*
X132888575Y-61787245D01*
X132667645Y-61816330D01*
X132667632Y-61816333D01*
X132452381Y-61874008D01*
X132246497Y-61959290D01*
X132246479Y-61959299D01*
X132053511Y-62070707D01*
X131987595Y-62121287D01*
X132788941Y-62922632D01*
X132768409Y-62928134D01*
X132631592Y-63007126D01*
X132519881Y-63118837D01*
X132440889Y-63255654D01*
X132435387Y-63276185D01*
X131634042Y-62474840D01*
X131583462Y-62540756D01*
X131472054Y-62733724D01*
X131472045Y-62733742D01*
X131386763Y-62939626D01*
X131329088Y-63154877D01*
X131329085Y-63154890D01*
X131300000Y-63375820D01*
X113698320Y-63375820D01*
X113670914Y-63167645D01*
X113670911Y-63167632D01*
X113613236Y-62952381D01*
X113527954Y-62746497D01*
X113527949Y-62746485D01*
X113416533Y-62553507D01*
X113365956Y-62487595D01*
X113365955Y-62487595D01*
X112564612Y-63288939D01*
X112559111Y-63268409D01*
X112480119Y-63131592D01*
X112368408Y-63019881D01*
X112231591Y-62940889D01*
X112211058Y-62935387D01*
X113012403Y-62134043D01*
X113012403Y-62134041D01*
X112946504Y-62083473D01*
X112946491Y-62083464D01*
X112753520Y-61972054D01*
X112753502Y-61972045D01*
X112547618Y-61886763D01*
X112332367Y-61829088D01*
X112332354Y-61829085D01*
X112111425Y-61800000D01*
X111888575Y-61800000D01*
X111667645Y-61829085D01*
X111667632Y-61829088D01*
X111452381Y-61886763D01*
X111246497Y-61972045D01*
X111246479Y-61972054D01*
X111053511Y-62083462D01*
X110987595Y-62134042D01*
X111788941Y-62935387D01*
X111768409Y-62940889D01*
X111631592Y-63019881D01*
X111519881Y-63131592D01*
X111440889Y-63268409D01*
X111435387Y-63288940D01*
X110634042Y-62487595D01*
X110583462Y-62553511D01*
X110472054Y-62746479D01*
X110472045Y-62746497D01*
X110386763Y-62952381D01*
X110329088Y-63167632D01*
X110329085Y-63167645D01*
X110300000Y-63388575D01*
X99600500Y-63388575D01*
X99600500Y-63099990D01*
X99589999Y-62997202D01*
X99534814Y-62830665D01*
X99442712Y-62681344D01*
X99318656Y-62557288D01*
X99188957Y-62477289D01*
X99169337Y-62465187D01*
X99169332Y-62465185D01*
X99167863Y-62464698D01*
X99002798Y-62410001D01*
X99002796Y-62410000D01*
X98900017Y-62399500D01*
X98900010Y-62399500D01*
X97099990Y-62399500D01*
X97099982Y-62399500D01*
X96997203Y-62410000D01*
X96997202Y-62410001D01*
X96914669Y-62437349D01*
X96830667Y-62465185D01*
X96830662Y-62465187D01*
X96681342Y-62557289D01*
X96557289Y-62681342D01*
X96465187Y-62830662D01*
X96465186Y-62830665D01*
X96410001Y-62997202D01*
X96410001Y-62997203D01*
X96410000Y-62997203D01*
X96399500Y-63099982D01*
X89600500Y-63099982D01*
X89600500Y-63019990D01*
X89589999Y-62917202D01*
X89534814Y-62750665D01*
X89442712Y-62601344D01*
X89318656Y-62477288D01*
X89225890Y-62420070D01*
X89169337Y-62385187D01*
X89169332Y-62385185D01*
X89167863Y-62384698D01*
X89002798Y-62330001D01*
X89002796Y-62330000D01*
X88900017Y-62319500D01*
X88900010Y-62319500D01*
X87099990Y-62319500D01*
X87099982Y-62319500D01*
X86997203Y-62330000D01*
X86997202Y-62330001D01*
X86914669Y-62357349D01*
X86830667Y-62385185D01*
X86830662Y-62385187D01*
X86681342Y-62477289D01*
X86557289Y-62601342D01*
X86465187Y-62750662D01*
X86465186Y-62750665D01*
X86410001Y-62917202D01*
X86410001Y-62917203D01*
X86410000Y-62917203D01*
X86399500Y-63019982D01*
X78500500Y-63019982D01*
X78500500Y-60878711D01*
X79649500Y-60878711D01*
X79649500Y-61121288D01*
X79681161Y-61361785D01*
X79743947Y-61596104D01*
X79836773Y-61820205D01*
X79836777Y-61820214D01*
X79858974Y-61858661D01*
X79958064Y-62030289D01*
X79958066Y-62030292D01*
X79958067Y-62030293D01*
X80105733Y-62222736D01*
X80105739Y-62222743D01*
X80277256Y-62394260D01*
X80277263Y-62394266D01*
X80382270Y-62474840D01*
X80469711Y-62541936D01*
X80679788Y-62663224D01*
X80850005Y-62733730D01*
X80890882Y-62750662D01*
X80903900Y-62756054D01*
X81138211Y-62818838D01*
X81318586Y-62842584D01*
X81378711Y-62850500D01*
X81378712Y-62850500D01*
X81621289Y-62850500D01*
X81669388Y-62844167D01*
X81861789Y-62818838D01*
X82096100Y-62756054D01*
X82320212Y-62663224D01*
X82530289Y-62541936D01*
X82722738Y-62394265D01*
X82894265Y-62222738D01*
X82962324Y-62134042D01*
X82983451Y-62106509D01*
X83010922Y-62070707D01*
X83041936Y-62030289D01*
X83163224Y-61820212D01*
X83256054Y-61596100D01*
X83318838Y-61361789D01*
X83350500Y-61121288D01*
X83350500Y-60878712D01*
X83350500Y-60878711D01*
X162349500Y-60878711D01*
X162349500Y-61121288D01*
X162381161Y-61361785D01*
X162443947Y-61596104D01*
X162536773Y-61820205D01*
X162536777Y-61820214D01*
X162558974Y-61858661D01*
X162658064Y-62030289D01*
X162658066Y-62030292D01*
X162658067Y-62030293D01*
X162805733Y-62222736D01*
X162805739Y-62222743D01*
X162977256Y-62394260D01*
X162977263Y-62394266D01*
X163082270Y-62474840D01*
X163169711Y-62541936D01*
X163379788Y-62663224D01*
X163550005Y-62733730D01*
X163590882Y-62750662D01*
X163603900Y-62756054D01*
X163838211Y-62818838D01*
X164018586Y-62842584D01*
X164078711Y-62850500D01*
X164078712Y-62850500D01*
X164321289Y-62850500D01*
X164369388Y-62844167D01*
X164561789Y-62818838D01*
X164796100Y-62756054D01*
X165020212Y-62663224D01*
X165230289Y-62541936D01*
X165422738Y-62394265D01*
X165594265Y-62222738D01*
X165741936Y-62030289D01*
X165863224Y-61820212D01*
X165956054Y-61596100D01*
X166018838Y-61361789D01*
X166050500Y-61121288D01*
X166050500Y-60878712D01*
X166018838Y-60638211D01*
X165956054Y-60403900D01*
X165863224Y-60179788D01*
X165741936Y-59969711D01*
X165594265Y-59777262D01*
X165594260Y-59777256D01*
X165422743Y-59605739D01*
X165422736Y-59605733D01*
X165230293Y-59458067D01*
X165230292Y-59458066D01*
X165230289Y-59458064D01*
X165020212Y-59336776D01*
X165020205Y-59336773D01*
X164796104Y-59243947D01*
X164561785Y-59181161D01*
X164321289Y-59149500D01*
X164321288Y-59149500D01*
X164078712Y-59149500D01*
X164078711Y-59149500D01*
X163838214Y-59181161D01*
X163603895Y-59243947D01*
X163379794Y-59336773D01*
X163379785Y-59336777D01*
X163169706Y-59458067D01*
X162977263Y-59605733D01*
X162977256Y-59605739D01*
X162805739Y-59777256D01*
X162805733Y-59777263D01*
X162658067Y-59969706D01*
X162536777Y-60179785D01*
X162536773Y-60179794D01*
X162443947Y-60403895D01*
X162381161Y-60638214D01*
X162349500Y-60878711D01*
X83350500Y-60878711D01*
X83318838Y-60638211D01*
X83256054Y-60403900D01*
X83163224Y-60179788D01*
X83041936Y-59969711D01*
X82894265Y-59777262D01*
X82894260Y-59777256D01*
X82722743Y-59605739D01*
X82722736Y-59605733D01*
X82530293Y-59458067D01*
X82530292Y-59458066D01*
X82530289Y-59458064D01*
X82320212Y-59336776D01*
X82320205Y-59336773D01*
X82096104Y-59243947D01*
X81861785Y-59181161D01*
X81621289Y-59149500D01*
X81621288Y-59149500D01*
X81378712Y-59149500D01*
X81378711Y-59149500D01*
X81138214Y-59181161D01*
X80903895Y-59243947D01*
X80679794Y-59336773D01*
X80679785Y-59336777D01*
X80469706Y-59458067D01*
X80277263Y-59605733D01*
X80277256Y-59605739D01*
X80105739Y-59777256D01*
X80105733Y-59777263D01*
X79958067Y-59969706D01*
X79836777Y-60179785D01*
X79836773Y-60179794D01*
X79743947Y-60403895D01*
X79681161Y-60638214D01*
X79649500Y-60878711D01*
X78500500Y-60878711D01*
X78500500Y-58124500D01*
X78520185Y-58057461D01*
X78572989Y-58011706D01*
X78624500Y-58000500D01*
X168275500Y-58000500D01*
X168342539Y-58020185D01*
G37*
%TD.AperFunction*%
%TD*%
M02*
