%TF.GenerationSoftware,KiCad,Pcbnew,9.0.7*%
%TF.CreationDate,2026-01-19T21:12:20-05:00*%
%TF.ProjectId,psu,7073752e-6b69-4636-9164-5f7063625858,rev?*%
%TF.SameCoordinates,Original*%
%TF.FileFunction,Legend,Top*%
%TF.FilePolarity,Positive*%
%FSLAX46Y46*%
G04 Gerber Fmt 4.6, Leading zero omitted, Abs format (unit mm)*
G04 Created by KiCad (PCBNEW 9.0.7) date 2026-01-19 21:12:20*
%MOMM*%
%LPD*%
G01*
G04 APERTURE LIST*
%ADD10C,0.100000*%
%ADD11C,0.150000*%
%ADD12C,0.120000*%
%ADD13C,0.127000*%
%ADD14C,0.200000*%
G04 APERTURE END LIST*
D10*
X153187693Y-76920038D02*
X153092455Y-76872419D01*
X153092455Y-76872419D02*
X152949598Y-76872419D01*
X152949598Y-76872419D02*
X152806741Y-76920038D01*
X152806741Y-76920038D02*
X152711503Y-77015276D01*
X152711503Y-77015276D02*
X152663884Y-77110514D01*
X152663884Y-77110514D02*
X152616265Y-77300990D01*
X152616265Y-77300990D02*
X152616265Y-77443847D01*
X152616265Y-77443847D02*
X152663884Y-77634323D01*
X152663884Y-77634323D02*
X152711503Y-77729561D01*
X152711503Y-77729561D02*
X152806741Y-77824800D01*
X152806741Y-77824800D02*
X152949598Y-77872419D01*
X152949598Y-77872419D02*
X153044836Y-77872419D01*
X153044836Y-77872419D02*
X153187693Y-77824800D01*
X153187693Y-77824800D02*
X153235312Y-77777180D01*
X153235312Y-77777180D02*
X153235312Y-77443847D01*
X153235312Y-77443847D02*
X153044836Y-77443847D01*
X153663884Y-77872419D02*
X153663884Y-76872419D01*
X153663884Y-76872419D02*
X154235312Y-77872419D01*
X154235312Y-77872419D02*
X154235312Y-76872419D01*
X154711503Y-77872419D02*
X154711503Y-76872419D01*
X154711503Y-76872419D02*
X154949598Y-76872419D01*
X154949598Y-76872419D02*
X155092455Y-76920038D01*
X155092455Y-76920038D02*
X155187693Y-77015276D01*
X155187693Y-77015276D02*
X155235312Y-77110514D01*
X155235312Y-77110514D02*
X155282931Y-77300990D01*
X155282931Y-77300990D02*
X155282931Y-77443847D01*
X155282931Y-77443847D02*
X155235312Y-77634323D01*
X155235312Y-77634323D02*
X155187693Y-77729561D01*
X155187693Y-77729561D02*
X155092455Y-77824800D01*
X155092455Y-77824800D02*
X154949598Y-77872419D01*
X154949598Y-77872419D02*
X154711503Y-77872419D01*
X151303884Y-82491466D02*
X152065789Y-82491466D01*
X153065788Y-82872419D02*
X152494360Y-82872419D01*
X152780074Y-82872419D02*
X152780074Y-81872419D01*
X152780074Y-81872419D02*
X152684836Y-82015276D01*
X152684836Y-82015276D02*
X152589598Y-82110514D01*
X152589598Y-82110514D02*
X152494360Y-82158133D01*
X153970550Y-81872419D02*
X153494360Y-81872419D01*
X153494360Y-81872419D02*
X153446741Y-82348609D01*
X153446741Y-82348609D02*
X153494360Y-82300990D01*
X153494360Y-82300990D02*
X153589598Y-82253371D01*
X153589598Y-82253371D02*
X153827693Y-82253371D01*
X153827693Y-82253371D02*
X153922931Y-82300990D01*
X153922931Y-82300990D02*
X153970550Y-82348609D01*
X153970550Y-82348609D02*
X154018169Y-82443847D01*
X154018169Y-82443847D02*
X154018169Y-82681942D01*
X154018169Y-82681942D02*
X153970550Y-82777180D01*
X153970550Y-82777180D02*
X153922931Y-82824800D01*
X153922931Y-82824800D02*
X153827693Y-82872419D01*
X153827693Y-82872419D02*
X153589598Y-82872419D01*
X153589598Y-82872419D02*
X153494360Y-82824800D01*
X153494360Y-82824800D02*
X153446741Y-82777180D01*
X154303884Y-81872419D02*
X154637217Y-82872419D01*
X154637217Y-82872419D02*
X154970550Y-81872419D01*
X151353884Y-72091466D02*
X152115789Y-72091466D01*
X151734836Y-72472419D02*
X151734836Y-71710514D01*
X153115788Y-72472419D02*
X152544360Y-72472419D01*
X152830074Y-72472419D02*
X152830074Y-71472419D01*
X152830074Y-71472419D02*
X152734836Y-71615276D01*
X152734836Y-71615276D02*
X152639598Y-71710514D01*
X152639598Y-71710514D02*
X152544360Y-71758133D01*
X154020550Y-71472419D02*
X153544360Y-71472419D01*
X153544360Y-71472419D02*
X153496741Y-71948609D01*
X153496741Y-71948609D02*
X153544360Y-71900990D01*
X153544360Y-71900990D02*
X153639598Y-71853371D01*
X153639598Y-71853371D02*
X153877693Y-71853371D01*
X153877693Y-71853371D02*
X153972931Y-71900990D01*
X153972931Y-71900990D02*
X154020550Y-71948609D01*
X154020550Y-71948609D02*
X154068169Y-72043847D01*
X154068169Y-72043847D02*
X154068169Y-72281942D01*
X154068169Y-72281942D02*
X154020550Y-72377180D01*
X154020550Y-72377180D02*
X153972931Y-72424800D01*
X153972931Y-72424800D02*
X153877693Y-72472419D01*
X153877693Y-72472419D02*
X153639598Y-72472419D01*
X153639598Y-72472419D02*
X153544360Y-72424800D01*
X153544360Y-72424800D02*
X153496741Y-72377180D01*
X154353884Y-71472419D02*
X154687217Y-72472419D01*
X154687217Y-72472419D02*
X155020550Y-71472419D01*
X79000000Y-66500000D02*
X83500000Y-66500000D01*
X83500000Y-72000000D01*
X79000000Y-72000000D01*
X79000000Y-66500000D01*
X161437693Y-82410038D02*
X161342455Y-82362419D01*
X161342455Y-82362419D02*
X161199598Y-82362419D01*
X161199598Y-82362419D02*
X161056741Y-82410038D01*
X161056741Y-82410038D02*
X160961503Y-82505276D01*
X160961503Y-82505276D02*
X160913884Y-82600514D01*
X160913884Y-82600514D02*
X160866265Y-82790990D01*
X160866265Y-82790990D02*
X160866265Y-82933847D01*
X160866265Y-82933847D02*
X160913884Y-83124323D01*
X160913884Y-83124323D02*
X160961503Y-83219561D01*
X160961503Y-83219561D02*
X161056741Y-83314800D01*
X161056741Y-83314800D02*
X161199598Y-83362419D01*
X161199598Y-83362419D02*
X161294836Y-83362419D01*
X161294836Y-83362419D02*
X161437693Y-83314800D01*
X161437693Y-83314800D02*
X161485312Y-83267180D01*
X161485312Y-83267180D02*
X161485312Y-82933847D01*
X161485312Y-82933847D02*
X161294836Y-82933847D01*
X161913884Y-83362419D02*
X161913884Y-82362419D01*
X161913884Y-82362419D02*
X162485312Y-83362419D01*
X162485312Y-83362419D02*
X162485312Y-82362419D01*
X162961503Y-83362419D02*
X162961503Y-82362419D01*
X162961503Y-82362419D02*
X163199598Y-82362419D01*
X163199598Y-82362419D02*
X163342455Y-82410038D01*
X163342455Y-82410038D02*
X163437693Y-82505276D01*
X163437693Y-82505276D02*
X163485312Y-82600514D01*
X163485312Y-82600514D02*
X163532931Y-82790990D01*
X163532931Y-82790990D02*
X163532931Y-82933847D01*
X163532931Y-82933847D02*
X163485312Y-83124323D01*
X163485312Y-83124323D02*
X163437693Y-83219561D01*
X163437693Y-83219561D02*
X163342455Y-83314800D01*
X163342455Y-83314800D02*
X163199598Y-83362419D01*
X163199598Y-83362419D02*
X162961503Y-83362419D01*
X160613884Y-88151466D02*
X161375789Y-88151466D01*
X160994836Y-88532419D02*
X160994836Y-87770514D01*
X162328169Y-87532419D02*
X161851979Y-87532419D01*
X161851979Y-87532419D02*
X161804360Y-88008609D01*
X161804360Y-88008609D02*
X161851979Y-87960990D01*
X161851979Y-87960990D02*
X161947217Y-87913371D01*
X161947217Y-87913371D02*
X162185312Y-87913371D01*
X162185312Y-87913371D02*
X162280550Y-87960990D01*
X162280550Y-87960990D02*
X162328169Y-88008609D01*
X162328169Y-88008609D02*
X162375788Y-88103847D01*
X162375788Y-88103847D02*
X162375788Y-88341942D01*
X162375788Y-88341942D02*
X162328169Y-88437180D01*
X162328169Y-88437180D02*
X162280550Y-88484800D01*
X162280550Y-88484800D02*
X162185312Y-88532419D01*
X162185312Y-88532419D02*
X161947217Y-88532419D01*
X161947217Y-88532419D02*
X161851979Y-88484800D01*
X161851979Y-88484800D02*
X161804360Y-88437180D01*
X162661503Y-87532419D02*
X162994836Y-88532419D01*
X162994836Y-88532419D02*
X163328169Y-87532419D01*
X79756265Y-67866816D02*
X80232455Y-67866816D01*
X79661027Y-68152531D02*
X79994360Y-67152531D01*
X79994360Y-67152531D02*
X80327693Y-68152531D01*
X81232455Y-68057292D02*
X81184836Y-68104912D01*
X81184836Y-68104912D02*
X81041979Y-68152531D01*
X81041979Y-68152531D02*
X80946741Y-68152531D01*
X80946741Y-68152531D02*
X80803884Y-68104912D01*
X80803884Y-68104912D02*
X80708646Y-68009673D01*
X80708646Y-68009673D02*
X80661027Y-67914435D01*
X80661027Y-67914435D02*
X80613408Y-67723959D01*
X80613408Y-67723959D02*
X80613408Y-67581102D01*
X80613408Y-67581102D02*
X80661027Y-67390626D01*
X80661027Y-67390626D02*
X80708646Y-67295388D01*
X80708646Y-67295388D02*
X80803884Y-67200150D01*
X80803884Y-67200150D02*
X80946741Y-67152531D01*
X80946741Y-67152531D02*
X81041979Y-67152531D01*
X81041979Y-67152531D02*
X81184836Y-67200150D01*
X81184836Y-67200150D02*
X81232455Y-67247769D01*
X82184836Y-68152531D02*
X81613408Y-68152531D01*
X81899122Y-68152531D02*
X81899122Y-67152531D01*
X81899122Y-67152531D02*
X81803884Y-67295388D01*
X81803884Y-67295388D02*
X81708646Y-67390626D01*
X81708646Y-67390626D02*
X81613408Y-67438245D01*
X80375312Y-69667236D02*
X80327693Y-69714856D01*
X80327693Y-69714856D02*
X80184836Y-69762475D01*
X80184836Y-69762475D02*
X80089598Y-69762475D01*
X80089598Y-69762475D02*
X79946741Y-69714856D01*
X79946741Y-69714856D02*
X79851503Y-69619617D01*
X79851503Y-69619617D02*
X79803884Y-69524379D01*
X79803884Y-69524379D02*
X79756265Y-69333903D01*
X79756265Y-69333903D02*
X79756265Y-69191046D01*
X79756265Y-69191046D02*
X79803884Y-69000570D01*
X79803884Y-69000570D02*
X79851503Y-68905332D01*
X79851503Y-68905332D02*
X79946741Y-68810094D01*
X79946741Y-68810094D02*
X80089598Y-68762475D01*
X80089598Y-68762475D02*
X80184836Y-68762475D01*
X80184836Y-68762475D02*
X80327693Y-68810094D01*
X80327693Y-68810094D02*
X80375312Y-68857713D01*
X80661027Y-68762475D02*
X81232455Y-68762475D01*
X80946741Y-69762475D02*
X80946741Y-68762475D01*
X79756265Y-71086704D02*
X80232455Y-71086704D01*
X79661027Y-71372419D02*
X79994360Y-70372419D01*
X79994360Y-70372419D02*
X80327693Y-71372419D01*
X81232455Y-71277180D02*
X81184836Y-71324800D01*
X81184836Y-71324800D02*
X81041979Y-71372419D01*
X81041979Y-71372419D02*
X80946741Y-71372419D01*
X80946741Y-71372419D02*
X80803884Y-71324800D01*
X80803884Y-71324800D02*
X80708646Y-71229561D01*
X80708646Y-71229561D02*
X80661027Y-71134323D01*
X80661027Y-71134323D02*
X80613408Y-70943847D01*
X80613408Y-70943847D02*
X80613408Y-70800990D01*
X80613408Y-70800990D02*
X80661027Y-70610514D01*
X80661027Y-70610514D02*
X80708646Y-70515276D01*
X80708646Y-70515276D02*
X80803884Y-70420038D01*
X80803884Y-70420038D02*
X80946741Y-70372419D01*
X80946741Y-70372419D02*
X81041979Y-70372419D01*
X81041979Y-70372419D02*
X81184836Y-70420038D01*
X81184836Y-70420038D02*
X81232455Y-70467657D01*
X81613408Y-70467657D02*
X81661027Y-70420038D01*
X81661027Y-70420038D02*
X81756265Y-70372419D01*
X81756265Y-70372419D02*
X81994360Y-70372419D01*
X81994360Y-70372419D02*
X82089598Y-70420038D01*
X82089598Y-70420038D02*
X82137217Y-70467657D01*
X82137217Y-70467657D02*
X82184836Y-70562895D01*
X82184836Y-70562895D02*
X82184836Y-70658133D01*
X82184836Y-70658133D02*
X82137217Y-70800990D01*
X82137217Y-70800990D02*
X81565789Y-71372419D01*
X81565789Y-71372419D02*
X82184836Y-71372419D01*
D11*
X160854819Y-85933333D02*
X161569104Y-85933333D01*
X161569104Y-85933333D02*
X161711961Y-85980952D01*
X161711961Y-85980952D02*
X161807200Y-86076190D01*
X161807200Y-86076190D02*
X161854819Y-86219047D01*
X161854819Y-86219047D02*
X161854819Y-86314285D01*
X160854819Y-85552380D02*
X160854819Y-84933333D01*
X160854819Y-84933333D02*
X161235771Y-85266666D01*
X161235771Y-85266666D02*
X161235771Y-85123809D01*
X161235771Y-85123809D02*
X161283390Y-85028571D01*
X161283390Y-85028571D02*
X161331009Y-84980952D01*
X161331009Y-84980952D02*
X161426247Y-84933333D01*
X161426247Y-84933333D02*
X161664342Y-84933333D01*
X161664342Y-84933333D02*
X161759580Y-84980952D01*
X161759580Y-84980952D02*
X161807200Y-85028571D01*
X161807200Y-85028571D02*
X161854819Y-85123809D01*
X161854819Y-85123809D02*
X161854819Y-85409523D01*
X161854819Y-85409523D02*
X161807200Y-85504761D01*
X161807200Y-85504761D02*
X161759580Y-85552380D01*
X159883333Y-77859580D02*
X159835714Y-77907200D01*
X159835714Y-77907200D02*
X159692857Y-77954819D01*
X159692857Y-77954819D02*
X159597619Y-77954819D01*
X159597619Y-77954819D02*
X159454762Y-77907200D01*
X159454762Y-77907200D02*
X159359524Y-77811961D01*
X159359524Y-77811961D02*
X159311905Y-77716723D01*
X159311905Y-77716723D02*
X159264286Y-77526247D01*
X159264286Y-77526247D02*
X159264286Y-77383390D01*
X159264286Y-77383390D02*
X159311905Y-77192914D01*
X159311905Y-77192914D02*
X159359524Y-77097676D01*
X159359524Y-77097676D02*
X159454762Y-77002438D01*
X159454762Y-77002438D02*
X159597619Y-76954819D01*
X159597619Y-76954819D02*
X159692857Y-76954819D01*
X159692857Y-76954819D02*
X159835714Y-77002438D01*
X159835714Y-77002438D02*
X159883333Y-77050057D01*
X160216667Y-76954819D02*
X160883333Y-76954819D01*
X160883333Y-76954819D02*
X160454762Y-77954819D01*
X90924819Y-69738094D02*
X89924819Y-69738094D01*
X89924819Y-69738094D02*
X89924819Y-69499999D01*
X89924819Y-69499999D02*
X89972438Y-69357142D01*
X89972438Y-69357142D02*
X90067676Y-69261904D01*
X90067676Y-69261904D02*
X90162914Y-69214285D01*
X90162914Y-69214285D02*
X90353390Y-69166666D01*
X90353390Y-69166666D02*
X90496247Y-69166666D01*
X90496247Y-69166666D02*
X90686723Y-69214285D01*
X90686723Y-69214285D02*
X90781961Y-69261904D01*
X90781961Y-69261904D02*
X90877200Y-69357142D01*
X90877200Y-69357142D02*
X90924819Y-69499999D01*
X90924819Y-69499999D02*
X90924819Y-69738094D01*
X89924819Y-68833332D02*
X89924819Y-68214285D01*
X89924819Y-68214285D02*
X90305771Y-68547618D01*
X90305771Y-68547618D02*
X90305771Y-68404761D01*
X90305771Y-68404761D02*
X90353390Y-68309523D01*
X90353390Y-68309523D02*
X90401009Y-68261904D01*
X90401009Y-68261904D02*
X90496247Y-68214285D01*
X90496247Y-68214285D02*
X90734342Y-68214285D01*
X90734342Y-68214285D02*
X90829580Y-68261904D01*
X90829580Y-68261904D02*
X90877200Y-68309523D01*
X90877200Y-68309523D02*
X90924819Y-68404761D01*
X90924819Y-68404761D02*
X90924819Y-68690475D01*
X90924819Y-68690475D02*
X90877200Y-68785713D01*
X90877200Y-68785713D02*
X90829580Y-68833332D01*
X90554819Y-64181904D02*
X89554819Y-64181904D01*
X90554819Y-63610476D02*
X89983390Y-64039047D01*
X89554819Y-63610476D02*
X90126247Y-64181904D01*
X166219819Y-69674285D02*
X165219819Y-69674285D01*
X165219819Y-69674285D02*
X165219819Y-69293333D01*
X165219819Y-69293333D02*
X165267438Y-69198095D01*
X165267438Y-69198095D02*
X165315057Y-69150476D01*
X165315057Y-69150476D02*
X165410295Y-69102857D01*
X165410295Y-69102857D02*
X165553152Y-69102857D01*
X165553152Y-69102857D02*
X165648390Y-69150476D01*
X165648390Y-69150476D02*
X165696009Y-69198095D01*
X165696009Y-69198095D02*
X165743628Y-69293333D01*
X165743628Y-69293333D02*
X165743628Y-69674285D01*
X166172200Y-68721904D02*
X166219819Y-68579047D01*
X166219819Y-68579047D02*
X166219819Y-68340952D01*
X166219819Y-68340952D02*
X166172200Y-68245714D01*
X166172200Y-68245714D02*
X166124580Y-68198095D01*
X166124580Y-68198095D02*
X166029342Y-68150476D01*
X166029342Y-68150476D02*
X165934104Y-68150476D01*
X165934104Y-68150476D02*
X165838866Y-68198095D01*
X165838866Y-68198095D02*
X165791247Y-68245714D01*
X165791247Y-68245714D02*
X165743628Y-68340952D01*
X165743628Y-68340952D02*
X165696009Y-68531428D01*
X165696009Y-68531428D02*
X165648390Y-68626666D01*
X165648390Y-68626666D02*
X165600771Y-68674285D01*
X165600771Y-68674285D02*
X165505533Y-68721904D01*
X165505533Y-68721904D02*
X165410295Y-68721904D01*
X165410295Y-68721904D02*
X165315057Y-68674285D01*
X165315057Y-68674285D02*
X165267438Y-68626666D01*
X165267438Y-68626666D02*
X165219819Y-68531428D01*
X165219819Y-68531428D02*
X165219819Y-68293333D01*
X165219819Y-68293333D02*
X165267438Y-68150476D01*
X166219819Y-67198095D02*
X166219819Y-67769523D01*
X166219819Y-67483809D02*
X165219819Y-67483809D01*
X165219819Y-67483809D02*
X165362676Y-67579047D01*
X165362676Y-67579047D02*
X165457914Y-67674285D01*
X165457914Y-67674285D02*
X165505533Y-67769523D01*
X103109580Y-67416666D02*
X103157200Y-67464285D01*
X103157200Y-67464285D02*
X103204819Y-67607142D01*
X103204819Y-67607142D02*
X103204819Y-67702380D01*
X103204819Y-67702380D02*
X103157200Y-67845237D01*
X103157200Y-67845237D02*
X103061961Y-67940475D01*
X103061961Y-67940475D02*
X102966723Y-67988094D01*
X102966723Y-67988094D02*
X102776247Y-68035713D01*
X102776247Y-68035713D02*
X102633390Y-68035713D01*
X102633390Y-68035713D02*
X102442914Y-67988094D01*
X102442914Y-67988094D02*
X102347676Y-67940475D01*
X102347676Y-67940475D02*
X102252438Y-67845237D01*
X102252438Y-67845237D02*
X102204819Y-67702380D01*
X102204819Y-67702380D02*
X102204819Y-67607142D01*
X102204819Y-67607142D02*
X102252438Y-67464285D01*
X102252438Y-67464285D02*
X102300057Y-67416666D01*
X102204819Y-67083332D02*
X102204819Y-66464285D01*
X102204819Y-66464285D02*
X102585771Y-66797618D01*
X102585771Y-66797618D02*
X102585771Y-66654761D01*
X102585771Y-66654761D02*
X102633390Y-66559523D01*
X102633390Y-66559523D02*
X102681009Y-66511904D01*
X102681009Y-66511904D02*
X102776247Y-66464285D01*
X102776247Y-66464285D02*
X103014342Y-66464285D01*
X103014342Y-66464285D02*
X103109580Y-66511904D01*
X103109580Y-66511904D02*
X103157200Y-66559523D01*
X103157200Y-66559523D02*
X103204819Y-66654761D01*
X103204819Y-66654761D02*
X103204819Y-66940475D01*
X103204819Y-66940475D02*
X103157200Y-67035713D01*
X103157200Y-67035713D02*
X103109580Y-67083332D01*
X124109580Y-67403911D02*
X124157200Y-67451530D01*
X124157200Y-67451530D02*
X124204819Y-67594387D01*
X124204819Y-67594387D02*
X124204819Y-67689625D01*
X124204819Y-67689625D02*
X124157200Y-67832482D01*
X124157200Y-67832482D02*
X124061961Y-67927720D01*
X124061961Y-67927720D02*
X123966723Y-67975339D01*
X123966723Y-67975339D02*
X123776247Y-68022958D01*
X123776247Y-68022958D02*
X123633390Y-68022958D01*
X123633390Y-68022958D02*
X123442914Y-67975339D01*
X123442914Y-67975339D02*
X123347676Y-67927720D01*
X123347676Y-67927720D02*
X123252438Y-67832482D01*
X123252438Y-67832482D02*
X123204819Y-67689625D01*
X123204819Y-67689625D02*
X123204819Y-67594387D01*
X123204819Y-67594387D02*
X123252438Y-67451530D01*
X123252438Y-67451530D02*
X123300057Y-67403911D01*
X123538152Y-66546768D02*
X124204819Y-66546768D01*
X123157200Y-66784863D02*
X123871485Y-67022958D01*
X123871485Y-67022958D02*
X123871485Y-66403911D01*
X100924819Y-69818094D02*
X99924819Y-69818094D01*
X99924819Y-69818094D02*
X99924819Y-69579999D01*
X99924819Y-69579999D02*
X99972438Y-69437142D01*
X99972438Y-69437142D02*
X100067676Y-69341904D01*
X100067676Y-69341904D02*
X100162914Y-69294285D01*
X100162914Y-69294285D02*
X100353390Y-69246666D01*
X100353390Y-69246666D02*
X100496247Y-69246666D01*
X100496247Y-69246666D02*
X100686723Y-69294285D01*
X100686723Y-69294285D02*
X100781961Y-69341904D01*
X100781961Y-69341904D02*
X100877200Y-69437142D01*
X100877200Y-69437142D02*
X100924819Y-69579999D01*
X100924819Y-69579999D02*
X100924819Y-69818094D01*
X100258152Y-68389523D02*
X100924819Y-68389523D01*
X99877200Y-68627618D02*
X100591485Y-68865713D01*
X100591485Y-68865713D02*
X100591485Y-68246666D01*
X100554819Y-64261904D02*
X99554819Y-64261904D01*
X100554819Y-63690476D02*
X99983390Y-64119047D01*
X99554819Y-63690476D02*
X100126247Y-64261904D01*
X103109580Y-86442176D02*
X103157200Y-86489795D01*
X103157200Y-86489795D02*
X103204819Y-86632652D01*
X103204819Y-86632652D02*
X103204819Y-86727890D01*
X103204819Y-86727890D02*
X103157200Y-86870747D01*
X103157200Y-86870747D02*
X103061961Y-86965985D01*
X103061961Y-86965985D02*
X102966723Y-87013604D01*
X102966723Y-87013604D02*
X102776247Y-87061223D01*
X102776247Y-87061223D02*
X102633390Y-87061223D01*
X102633390Y-87061223D02*
X102442914Y-87013604D01*
X102442914Y-87013604D02*
X102347676Y-86965985D01*
X102347676Y-86965985D02*
X102252438Y-86870747D01*
X102252438Y-86870747D02*
X102204819Y-86727890D01*
X102204819Y-86727890D02*
X102204819Y-86632652D01*
X102204819Y-86632652D02*
X102252438Y-86489795D01*
X102252438Y-86489795D02*
X102300057Y-86442176D01*
X103204819Y-85489795D02*
X103204819Y-86061223D01*
X103204819Y-85775509D02*
X102204819Y-85775509D01*
X102204819Y-85775509D02*
X102347676Y-85870747D01*
X102347676Y-85870747D02*
X102442914Y-85965985D01*
X102442914Y-85965985D02*
X102490533Y-86061223D01*
X146659580Y-71766666D02*
X146707200Y-71814285D01*
X146707200Y-71814285D02*
X146754819Y-71957142D01*
X146754819Y-71957142D02*
X146754819Y-72052380D01*
X146754819Y-72052380D02*
X146707200Y-72195237D01*
X146707200Y-72195237D02*
X146611961Y-72290475D01*
X146611961Y-72290475D02*
X146516723Y-72338094D01*
X146516723Y-72338094D02*
X146326247Y-72385713D01*
X146326247Y-72385713D02*
X146183390Y-72385713D01*
X146183390Y-72385713D02*
X145992914Y-72338094D01*
X145992914Y-72338094D02*
X145897676Y-72290475D01*
X145897676Y-72290475D02*
X145802438Y-72195237D01*
X145802438Y-72195237D02*
X145754819Y-72052380D01*
X145754819Y-72052380D02*
X145754819Y-71957142D01*
X145754819Y-71957142D02*
X145802438Y-71814285D01*
X145802438Y-71814285D02*
X145850057Y-71766666D01*
X145754819Y-70861904D02*
X145754819Y-71338094D01*
X145754819Y-71338094D02*
X146231009Y-71385713D01*
X146231009Y-71385713D02*
X146183390Y-71338094D01*
X146183390Y-71338094D02*
X146135771Y-71242856D01*
X146135771Y-71242856D02*
X146135771Y-71004761D01*
X146135771Y-71004761D02*
X146183390Y-70909523D01*
X146183390Y-70909523D02*
X146231009Y-70861904D01*
X146231009Y-70861904D02*
X146326247Y-70814285D01*
X146326247Y-70814285D02*
X146564342Y-70814285D01*
X146564342Y-70814285D02*
X146659580Y-70861904D01*
X146659580Y-70861904D02*
X146707200Y-70909523D01*
X146707200Y-70909523D02*
X146754819Y-71004761D01*
X146754819Y-71004761D02*
X146754819Y-71242856D01*
X146754819Y-71242856D02*
X146707200Y-71338094D01*
X146707200Y-71338094D02*
X146659580Y-71385713D01*
X86174819Y-77293333D02*
X86889104Y-77293333D01*
X86889104Y-77293333D02*
X87031961Y-77340952D01*
X87031961Y-77340952D02*
X87127200Y-77436190D01*
X87127200Y-77436190D02*
X87174819Y-77579047D01*
X87174819Y-77579047D02*
X87174819Y-77674285D01*
X87174819Y-76293333D02*
X87174819Y-76864761D01*
X87174819Y-76579047D02*
X86174819Y-76579047D01*
X86174819Y-76579047D02*
X86317676Y-76674285D01*
X86317676Y-76674285D02*
X86412914Y-76769523D01*
X86412914Y-76769523D02*
X86460533Y-76864761D01*
X146659580Y-81466666D02*
X146707200Y-81514285D01*
X146707200Y-81514285D02*
X146754819Y-81657142D01*
X146754819Y-81657142D02*
X146754819Y-81752380D01*
X146754819Y-81752380D02*
X146707200Y-81895237D01*
X146707200Y-81895237D02*
X146611961Y-81990475D01*
X146611961Y-81990475D02*
X146516723Y-82038094D01*
X146516723Y-82038094D02*
X146326247Y-82085713D01*
X146326247Y-82085713D02*
X146183390Y-82085713D01*
X146183390Y-82085713D02*
X145992914Y-82038094D01*
X145992914Y-82038094D02*
X145897676Y-81990475D01*
X145897676Y-81990475D02*
X145802438Y-81895237D01*
X145802438Y-81895237D02*
X145754819Y-81752380D01*
X145754819Y-81752380D02*
X145754819Y-81657142D01*
X145754819Y-81657142D02*
X145802438Y-81514285D01*
X145802438Y-81514285D02*
X145850057Y-81466666D01*
X145754819Y-80609523D02*
X145754819Y-80799999D01*
X145754819Y-80799999D02*
X145802438Y-80895237D01*
X145802438Y-80895237D02*
X145850057Y-80942856D01*
X145850057Y-80942856D02*
X145992914Y-81038094D01*
X145992914Y-81038094D02*
X146183390Y-81085713D01*
X146183390Y-81085713D02*
X146564342Y-81085713D01*
X146564342Y-81085713D02*
X146659580Y-81038094D01*
X146659580Y-81038094D02*
X146707200Y-80990475D01*
X146707200Y-80990475D02*
X146754819Y-80895237D01*
X146754819Y-80895237D02*
X146754819Y-80704761D01*
X146754819Y-80704761D02*
X146707200Y-80609523D01*
X146707200Y-80609523D02*
X146659580Y-80561904D01*
X146659580Y-80561904D02*
X146564342Y-80514285D01*
X146564342Y-80514285D02*
X146326247Y-80514285D01*
X146326247Y-80514285D02*
X146231009Y-80561904D01*
X146231009Y-80561904D02*
X146183390Y-80609523D01*
X146183390Y-80609523D02*
X146135771Y-80704761D01*
X146135771Y-80704761D02*
X146135771Y-80895237D01*
X146135771Y-80895237D02*
X146183390Y-80990475D01*
X146183390Y-80990475D02*
X146231009Y-81038094D01*
X146231009Y-81038094D02*
X146326247Y-81085713D01*
X124109580Y-86429421D02*
X124157200Y-86477040D01*
X124157200Y-86477040D02*
X124204819Y-86619897D01*
X124204819Y-86619897D02*
X124204819Y-86715135D01*
X124204819Y-86715135D02*
X124157200Y-86857992D01*
X124157200Y-86857992D02*
X124061961Y-86953230D01*
X124061961Y-86953230D02*
X123966723Y-87000849D01*
X123966723Y-87000849D02*
X123776247Y-87048468D01*
X123776247Y-87048468D02*
X123633390Y-87048468D01*
X123633390Y-87048468D02*
X123442914Y-87000849D01*
X123442914Y-87000849D02*
X123347676Y-86953230D01*
X123347676Y-86953230D02*
X123252438Y-86857992D01*
X123252438Y-86857992D02*
X123204819Y-86715135D01*
X123204819Y-86715135D02*
X123204819Y-86619897D01*
X123204819Y-86619897D02*
X123252438Y-86477040D01*
X123252438Y-86477040D02*
X123300057Y-86429421D01*
X123300057Y-86048468D02*
X123252438Y-86000849D01*
X123252438Y-86000849D02*
X123204819Y-85905611D01*
X123204819Y-85905611D02*
X123204819Y-85667516D01*
X123204819Y-85667516D02*
X123252438Y-85572278D01*
X123252438Y-85572278D02*
X123300057Y-85524659D01*
X123300057Y-85524659D02*
X123395295Y-85477040D01*
X123395295Y-85477040D02*
X123490533Y-85477040D01*
X123490533Y-85477040D02*
X123633390Y-85524659D01*
X123633390Y-85524659D02*
X124204819Y-86096087D01*
X124204819Y-86096087D02*
X124204819Y-85477040D01*
X100924819Y-86738094D02*
X99924819Y-86738094D01*
X99924819Y-86738094D02*
X99924819Y-86499999D01*
X99924819Y-86499999D02*
X99972438Y-86357142D01*
X99972438Y-86357142D02*
X100067676Y-86261904D01*
X100067676Y-86261904D02*
X100162914Y-86214285D01*
X100162914Y-86214285D02*
X100353390Y-86166666D01*
X100353390Y-86166666D02*
X100496247Y-86166666D01*
X100496247Y-86166666D02*
X100686723Y-86214285D01*
X100686723Y-86214285D02*
X100781961Y-86261904D01*
X100781961Y-86261904D02*
X100877200Y-86357142D01*
X100877200Y-86357142D02*
X100924819Y-86499999D01*
X100924819Y-86499999D02*
X100924819Y-86738094D01*
X100020057Y-85785713D02*
X99972438Y-85738094D01*
X99972438Y-85738094D02*
X99924819Y-85642856D01*
X99924819Y-85642856D02*
X99924819Y-85404761D01*
X99924819Y-85404761D02*
X99972438Y-85309523D01*
X99972438Y-85309523D02*
X100020057Y-85261904D01*
X100020057Y-85261904D02*
X100115295Y-85214285D01*
X100115295Y-85214285D02*
X100210533Y-85214285D01*
X100210533Y-85214285D02*
X100353390Y-85261904D01*
X100353390Y-85261904D02*
X100924819Y-85833332D01*
X100924819Y-85833332D02*
X100924819Y-85214285D01*
X100554819Y-81181904D02*
X99554819Y-81181904D01*
X100554819Y-80610476D02*
X99983390Y-81039047D01*
X99554819Y-80610476D02*
X100126247Y-81181904D01*
X90924819Y-86658094D02*
X89924819Y-86658094D01*
X89924819Y-86658094D02*
X89924819Y-86419999D01*
X89924819Y-86419999D02*
X89972438Y-86277142D01*
X89972438Y-86277142D02*
X90067676Y-86181904D01*
X90067676Y-86181904D02*
X90162914Y-86134285D01*
X90162914Y-86134285D02*
X90353390Y-86086666D01*
X90353390Y-86086666D02*
X90496247Y-86086666D01*
X90496247Y-86086666D02*
X90686723Y-86134285D01*
X90686723Y-86134285D02*
X90781961Y-86181904D01*
X90781961Y-86181904D02*
X90877200Y-86277142D01*
X90877200Y-86277142D02*
X90924819Y-86419999D01*
X90924819Y-86419999D02*
X90924819Y-86658094D01*
X90924819Y-85134285D02*
X90924819Y-85705713D01*
X90924819Y-85419999D02*
X89924819Y-85419999D01*
X89924819Y-85419999D02*
X90067676Y-85515237D01*
X90067676Y-85515237D02*
X90162914Y-85610475D01*
X90162914Y-85610475D02*
X90210533Y-85705713D01*
X90554819Y-81101904D02*
X89554819Y-81101904D01*
X90554819Y-80530476D02*
X89983390Y-80959047D01*
X89554819Y-80530476D02*
X90126247Y-81101904D01*
D12*
%TO.C,J3*%
X160610000Y-82240000D02*
X159360000Y-82240000D01*
X159000000Y-82540000D02*
X159000000Y-83150000D01*
X157700000Y-82540000D02*
X157700000Y-83150000D01*
X159700000Y-83150000D02*
X156200000Y-83150000D01*
X156200000Y-83150000D02*
X156200000Y-88050000D01*
X160610000Y-83490000D02*
X160610000Y-82240000D01*
X160510000Y-84000000D02*
X160310000Y-84000000D01*
X160510000Y-84300000D02*
X160510000Y-84000000D01*
X160410000Y-84300000D02*
X160410000Y-84000000D01*
X160310000Y-84300000D02*
X160510000Y-84300000D01*
X160310000Y-85100000D02*
X159700000Y-85100000D01*
X159700000Y-85100000D02*
X159700000Y-83150000D01*
X156700000Y-85500000D02*
X156700000Y-85700000D01*
X156200000Y-85500000D02*
X156700000Y-85500000D01*
X156200000Y-85600000D02*
X156700000Y-85600000D01*
X156700000Y-85700000D02*
X156200000Y-85700000D01*
X159700000Y-86100000D02*
X160310000Y-86100000D01*
X159700000Y-88050000D02*
X159700000Y-86100000D01*
X156200000Y-88050000D02*
X159700000Y-88050000D01*
X159000000Y-88660000D02*
X159000000Y-88050000D01*
X157700000Y-88660000D02*
X157700000Y-88050000D01*
X160310000Y-82540000D02*
X155590000Y-82540000D01*
X155590000Y-88660000D01*
X160310000Y-88660000D01*
X160310000Y-82540000D01*
%TO.C,J2*%
X152660000Y-73040000D02*
X151410000Y-73040000D01*
X151050000Y-73340000D02*
X151050000Y-73950000D01*
X149750000Y-73340000D02*
X149750000Y-73950000D01*
X151750000Y-73950000D02*
X148250000Y-73950000D01*
X148250000Y-73950000D02*
X148250000Y-80850000D01*
X152660000Y-74290000D02*
X152660000Y-73040000D01*
X152560000Y-74800000D02*
X152360000Y-74800000D01*
X152560000Y-75100000D02*
X152560000Y-74800000D01*
X152460000Y-75100000D02*
X152460000Y-74800000D01*
X152360000Y-75100000D02*
X152560000Y-75100000D01*
X152360000Y-75900000D02*
X151750000Y-75900000D01*
X151750000Y-75900000D02*
X151750000Y-73950000D01*
X148750000Y-76300000D02*
X148750000Y-76500000D01*
X148250000Y-76300000D02*
X148750000Y-76300000D01*
X148250000Y-76400000D02*
X148750000Y-76400000D01*
X148750000Y-76500000D02*
X148250000Y-76500000D01*
X148750000Y-78300000D02*
X148750000Y-78500000D01*
X148250000Y-78300000D02*
X148750000Y-78300000D01*
X148250000Y-78400000D02*
X148750000Y-78400000D01*
X148750000Y-78500000D02*
X148250000Y-78500000D01*
X151750000Y-78900000D02*
X152360000Y-78900000D01*
X151750000Y-80850000D02*
X151750000Y-78900000D01*
X148250000Y-80850000D02*
X151750000Y-80850000D01*
X151050000Y-81460000D02*
X151050000Y-80850000D01*
X149750000Y-81460000D02*
X149750000Y-80850000D01*
X152360000Y-73340000D02*
X147640000Y-73340000D01*
X147640000Y-81460000D01*
X152360000Y-81460000D01*
X152360000Y-73340000D01*
%TO.C,C7*%
X157430000Y-78630000D02*
X162670000Y-78630000D01*
X157430000Y-78967000D02*
X157430000Y-78630000D01*
X157430000Y-81370000D02*
X157430000Y-81033000D01*
X162670000Y-78630000D02*
X162670000Y-78967000D01*
X162670000Y-81033000D02*
X162670000Y-81370000D01*
X162670000Y-81370000D02*
X157430000Y-81370000D01*
%TO.C,D3*%
X88000000Y-65260000D02*
X88000000Y-66280000D01*
X88000000Y-72740000D02*
X88000000Y-71720000D01*
X89470000Y-67060000D02*
X86530000Y-67060000D01*
X89470000Y-67180000D02*
X86530000Y-67180000D01*
X89470000Y-67300000D02*
X86530000Y-67300000D01*
X89470000Y-66280000D02*
X86530000Y-66280000D01*
X86530000Y-71720000D01*
X89470000Y-71720000D01*
X89470000Y-66280000D01*
D13*
%TO.C,PS1*%
X155800000Y-65150000D02*
X155800000Y-76750000D01*
X155800000Y-76750000D02*
X164300000Y-76750000D01*
X164300000Y-65150000D02*
X155800000Y-65150000D01*
X164300000Y-76750000D02*
X164300000Y-65150000D01*
D14*
X157900000Y-64600000D02*
G75*
G02*
X157700000Y-64600000I-100000J0D01*
G01*
X157700000Y-64600000D02*
G75*
G02*
X157900000Y-64600000I100000J0D01*
G01*
D12*
%TO.C,C3*%
X103920000Y-67170000D02*
X120080000Y-67170000D01*
X103920000Y-67210000D02*
X120080000Y-67210000D01*
X103920000Y-67250000D02*
X120080000Y-67250000D01*
X103921000Y-67130000D02*
X120079000Y-67130000D01*
X103922000Y-67050000D02*
X120078000Y-67050000D01*
X103922000Y-67090000D02*
X120078000Y-67090000D01*
X103924000Y-67010000D02*
X120076000Y-67010000D01*
X103925000Y-66970000D02*
X120075000Y-66970000D01*
X103926000Y-66930000D02*
X120074000Y-66930000D01*
X103928000Y-66890000D02*
X120072000Y-66890000D01*
X103930000Y-66850000D02*
X120070000Y-66850000D01*
X103932000Y-66810000D02*
X120068000Y-66810000D01*
X103934000Y-66770000D02*
X120066000Y-66770000D01*
X103937000Y-66730000D02*
X120063000Y-66730000D01*
X103939000Y-66690000D02*
X120061000Y-66690000D01*
X103942000Y-66650000D02*
X120058000Y-66650000D01*
X103945000Y-66610000D02*
X120055000Y-66610000D01*
X103949000Y-66570000D02*
X120051000Y-66570000D01*
X103952000Y-66530000D02*
X120048000Y-66530000D01*
X103956000Y-66490000D02*
X120044000Y-66490000D01*
X103960000Y-66450000D02*
X120040000Y-66450000D01*
X103964000Y-66410000D02*
X120036000Y-66410000D01*
X103968000Y-66370000D02*
X120032000Y-66370000D01*
X103972000Y-66330000D02*
X120028000Y-66330000D01*
X103977000Y-66290000D02*
X120023000Y-66290000D01*
X103982000Y-66250000D02*
X120018000Y-66250000D01*
X103987000Y-66210000D02*
X120013000Y-66210000D01*
X103992000Y-66170000D02*
X120008000Y-66170000D01*
X103998000Y-66130000D02*
X120002000Y-66130000D01*
X104003000Y-66090000D02*
X119997000Y-66090000D01*
X104009000Y-66050000D02*
X119991000Y-66050000D01*
X104015000Y-66010000D02*
X119985000Y-66010000D01*
X104022000Y-65970000D02*
X119978000Y-65970000D01*
X104028000Y-65930000D02*
X119972000Y-65930000D01*
X104035000Y-65890000D02*
X119965000Y-65890000D01*
X104042000Y-65850000D02*
X119958000Y-65850000D01*
X104049000Y-65810000D02*
X119951000Y-65810000D01*
X104056000Y-65770000D02*
X119944000Y-65770000D01*
X104064000Y-65730000D02*
X119936000Y-65730000D01*
X104071000Y-65690000D02*
X119929000Y-65690000D01*
X104079000Y-65650000D02*
X119921000Y-65650000D01*
X104087000Y-65610000D02*
X119913000Y-65610000D01*
X104096000Y-65570000D02*
X119904000Y-65570000D01*
X104104000Y-65530000D02*
X119896000Y-65530000D01*
X104113000Y-65490000D02*
X119887000Y-65490000D01*
X104122000Y-65450000D02*
X119878000Y-65450000D01*
X104131000Y-65410000D02*
X119869000Y-65410000D01*
X104141000Y-65370000D02*
X119859000Y-65370000D01*
X104150000Y-65330000D02*
X119850000Y-65330000D01*
X104160000Y-65290000D02*
X119840000Y-65290000D01*
X104170000Y-65250000D02*
X119830000Y-65250000D01*
X104180000Y-65210000D02*
X119820000Y-65210000D01*
X104191000Y-65170000D02*
X119809000Y-65170000D01*
X104202000Y-65130000D02*
X119798000Y-65130000D01*
X104213000Y-65090000D02*
X119787000Y-65090000D01*
X104224000Y-65050000D02*
X119776000Y-65050000D01*
X104235000Y-65010000D02*
X119765000Y-65010000D01*
X104247000Y-64970000D02*
X119753000Y-64970000D01*
X104258000Y-64930000D02*
X110560000Y-64930000D01*
X104271000Y-64890000D02*
X110560000Y-64890000D01*
X104283000Y-64850000D02*
X110560000Y-64850000D01*
X104295000Y-64810000D02*
X110560000Y-64810000D01*
X104308000Y-64770000D02*
X110560000Y-64770000D01*
X104321000Y-64730000D02*
X110560000Y-64730000D01*
X104334000Y-64690000D02*
X110560000Y-64690000D01*
X104348000Y-64650000D02*
X110560000Y-64650000D01*
X104361000Y-64610000D02*
X110560000Y-64610000D01*
X104375000Y-64570000D02*
X110560000Y-64570000D01*
X104389000Y-64530000D02*
X110560000Y-64530000D01*
X104403000Y-64490000D02*
X110560000Y-64490000D01*
X104418000Y-64450000D02*
X110560000Y-64450000D01*
X104433000Y-64410000D02*
X110560000Y-64410000D01*
X104448000Y-64370000D02*
X110560000Y-64370000D01*
X104463000Y-64330000D02*
X110560000Y-64330000D01*
X104479000Y-64290000D02*
X110560000Y-64290000D01*
X104495000Y-64250000D02*
X110560000Y-64250000D01*
X104511000Y-64210000D02*
X110560000Y-64210000D01*
X104527000Y-64170000D02*
X110560000Y-64170000D01*
X104543000Y-64130000D02*
X110560000Y-64130000D01*
X104560000Y-64090000D02*
X110560000Y-64090000D01*
X104577000Y-64050000D02*
X110560000Y-64050000D01*
X104594000Y-64010000D02*
X110560000Y-64010000D01*
X104612000Y-63970000D02*
X110560000Y-63970000D01*
X104630000Y-63930000D02*
X110560000Y-63930000D01*
X104648000Y-63890000D02*
X110560000Y-63890000D01*
X104666000Y-63850000D02*
X110560000Y-63850000D01*
X104685000Y-63810000D02*
X110560000Y-63810000D01*
X104704000Y-63770000D02*
X110560000Y-63770000D01*
X104723000Y-63730000D02*
X110560000Y-63730000D01*
X104742000Y-63690000D02*
X110560000Y-63690000D01*
X104762000Y-63650000D02*
X110560000Y-63650000D01*
X104782000Y-63610000D02*
X110560000Y-63610000D01*
X104802000Y-63570000D02*
X110560000Y-63570000D01*
X104822000Y-63530000D02*
X110560000Y-63530000D01*
X104843000Y-63490000D02*
X110560000Y-63490000D01*
X104864000Y-63450000D02*
X110560000Y-63450000D01*
X104885000Y-63410000D02*
X110560000Y-63410000D01*
X104907000Y-63370000D02*
X110560000Y-63370000D01*
X104929000Y-63330000D02*
X110560000Y-63330000D01*
X104951000Y-63290000D02*
X110560000Y-63290000D01*
X104974000Y-63250000D02*
X110560000Y-63250000D01*
X104996000Y-63210000D02*
X110560000Y-63210000D01*
X105019000Y-63170000D02*
X110560000Y-63170000D01*
X105043000Y-63130000D02*
X110560000Y-63130000D01*
X105067000Y-63090000D02*
X110560000Y-63090000D01*
X105091000Y-63050000D02*
X110560000Y-63050000D01*
X105115000Y-63010000D02*
X110560000Y-63010000D01*
X105140000Y-62970000D02*
X110560000Y-62970000D01*
X105165000Y-62930000D02*
X110560000Y-62930000D01*
X105190000Y-62890000D02*
X110560000Y-62890000D01*
X105215000Y-62850000D02*
X110560000Y-62850000D01*
X105241000Y-62810000D02*
X110560000Y-62810000D01*
X105268000Y-62770000D02*
X110560000Y-62770000D01*
X105294000Y-62730000D02*
X110560000Y-62730000D01*
X105321000Y-62690000D02*
X110560000Y-62690000D01*
X105349000Y-62650000D02*
X110560000Y-62650000D01*
X105376000Y-62610000D02*
X110560000Y-62610000D01*
X105404000Y-62570000D02*
X110560000Y-62570000D01*
X105433000Y-62530000D02*
X110560000Y-62530000D01*
X105461000Y-62490000D02*
X110560000Y-62490000D01*
X105491000Y-62450000D02*
X110560000Y-62450000D01*
X105520000Y-62410000D02*
X110560000Y-62410000D01*
X105550000Y-62370000D02*
X110560000Y-62370000D01*
X105580000Y-62330000D02*
X110560000Y-62330000D01*
X105611000Y-62290000D02*
X110560000Y-62290000D01*
X105642000Y-62250000D02*
X110560000Y-62250000D01*
X105673000Y-62210000D02*
X110560000Y-62210000D01*
X105705000Y-62170000D02*
X110560000Y-62170000D01*
X105738000Y-62130000D02*
X110560000Y-62130000D01*
X105770000Y-62090000D02*
X110560000Y-62090000D01*
X105803000Y-62050000D02*
X118197000Y-62050000D01*
X105837000Y-62010000D02*
X118163000Y-62010000D01*
X105871000Y-61970000D02*
X118129000Y-61970000D01*
X105906000Y-61930000D02*
X118094000Y-61930000D01*
X105940000Y-61890000D02*
X118060000Y-61890000D01*
X105976000Y-61850000D02*
X118024000Y-61850000D01*
X106012000Y-61810000D02*
X117988000Y-61810000D01*
X106048000Y-61770000D02*
X117952000Y-61770000D01*
X106085000Y-61730000D02*
X117915000Y-61730000D01*
X106122000Y-61690000D02*
X117878000Y-61690000D01*
X106160000Y-61650000D02*
X117840000Y-61650000D01*
X106198000Y-61610000D02*
X117802000Y-61610000D01*
X106237000Y-61570000D02*
X117763000Y-61570000D01*
X106277000Y-61530000D02*
X117723000Y-61530000D01*
X106317000Y-61490000D02*
X117683000Y-61490000D01*
X106357000Y-61450000D02*
X117643000Y-61450000D01*
X106398000Y-61410000D02*
X117602000Y-61410000D01*
X106440000Y-61370000D02*
X117560000Y-61370000D01*
X106482000Y-61330000D02*
X117518000Y-61330000D01*
X106525000Y-61290000D02*
X117475000Y-61290000D01*
X106569000Y-61250000D02*
X117431000Y-61250000D01*
X106613000Y-61210000D02*
X117387000Y-61210000D01*
X106645000Y-75139491D02*
X108245000Y-75139491D01*
X106658000Y-61170000D02*
X117342000Y-61170000D01*
X106703000Y-61130000D02*
X117297000Y-61130000D01*
X106750000Y-61090000D02*
X117250000Y-61090000D01*
X106796000Y-61050000D02*
X117204000Y-61050000D01*
X106844000Y-61010000D02*
X117156000Y-61010000D01*
X106893000Y-60970000D02*
X117107000Y-60970000D01*
X106942000Y-60930000D02*
X117058000Y-60930000D01*
X106992000Y-60890000D02*
X117008000Y-60890000D01*
X107043000Y-60850000D02*
X116957000Y-60850000D01*
X107094000Y-60810000D02*
X116906000Y-60810000D01*
X107147000Y-60770000D02*
X116853000Y-60770000D01*
X107200000Y-60730000D02*
X116800000Y-60730000D01*
X107255000Y-60690000D02*
X116745000Y-60690000D01*
X107310000Y-60650000D02*
X116690000Y-60650000D01*
X107366000Y-60610000D02*
X116634000Y-60610000D01*
X107424000Y-60570000D02*
X116576000Y-60570000D01*
X107445000Y-75939491D02*
X107445000Y-74339491D01*
X107482000Y-60530000D02*
X116518000Y-60530000D01*
X107541000Y-60490000D02*
X116459000Y-60490000D01*
X107602000Y-60450000D02*
X116398000Y-60450000D01*
X107664000Y-60410000D02*
X116336000Y-60410000D01*
X107727000Y-60370000D02*
X116273000Y-60370000D01*
X107792000Y-60330000D02*
X116208000Y-60330000D01*
X107858000Y-60290000D02*
X116142000Y-60290000D01*
X107925000Y-60250000D02*
X116075000Y-60250000D01*
X107994000Y-60210000D02*
X116006000Y-60210000D01*
X108064000Y-60170000D02*
X115936000Y-60170000D01*
X108136000Y-60130000D02*
X115864000Y-60130000D01*
X108210000Y-60090000D02*
X115790000Y-60090000D01*
X108286000Y-60050000D02*
X115714000Y-60050000D01*
X108363000Y-60010000D02*
X115637000Y-60010000D01*
X108443000Y-59970000D02*
X115557000Y-59970000D01*
X108525000Y-59930000D02*
X115475000Y-59930000D01*
X108610000Y-59890000D02*
X115390000Y-59890000D01*
X108697000Y-59850000D02*
X115303000Y-59850000D01*
X108787000Y-59810000D02*
X115213000Y-59810000D01*
X108880000Y-59770000D02*
X115120000Y-59770000D01*
X108977000Y-59730000D02*
X115023000Y-59730000D01*
X109077000Y-59690000D02*
X114923000Y-59690000D01*
X109181000Y-59650000D02*
X114819000Y-59650000D01*
X109290000Y-59610000D02*
X114710000Y-59610000D01*
X109403000Y-59570000D02*
X114597000Y-59570000D01*
X109523000Y-59530000D02*
X114477000Y-59530000D01*
X109649000Y-59490000D02*
X114351000Y-59490000D01*
X109783000Y-59450000D02*
X114217000Y-59450000D01*
X109926000Y-59410000D02*
X114074000Y-59410000D01*
X110080000Y-59370000D02*
X113920000Y-59370000D01*
X110249000Y-59330000D02*
X113751000Y-59330000D01*
X110436000Y-59290000D02*
X113564000Y-59290000D01*
X110649000Y-59250000D02*
X113351000Y-59250000D01*
X110903000Y-59210000D02*
X113097000Y-59210000D01*
X111235000Y-59170000D02*
X112765000Y-59170000D01*
X113440000Y-62090000D02*
X118230000Y-62090000D01*
X113440000Y-62130000D02*
X118262000Y-62130000D01*
X113440000Y-62170000D02*
X118295000Y-62170000D01*
X113440000Y-62210000D02*
X118327000Y-62210000D01*
X113440000Y-62250000D02*
X118358000Y-62250000D01*
X113440000Y-62290000D02*
X118389000Y-62290000D01*
X113440000Y-62330000D02*
X118420000Y-62330000D01*
X113440000Y-62370000D02*
X118450000Y-62370000D01*
X113440000Y-62410000D02*
X118480000Y-62410000D01*
X113440000Y-62450000D02*
X118509000Y-62450000D01*
X113440000Y-62490000D02*
X118539000Y-62490000D01*
X113440000Y-62530000D02*
X118567000Y-62530000D01*
X113440000Y-62570000D02*
X118596000Y-62570000D01*
X113440000Y-62610000D02*
X118624000Y-62610000D01*
X113440000Y-62650000D02*
X118651000Y-62650000D01*
X113440000Y-62690000D02*
X118679000Y-62690000D01*
X113440000Y-62730000D02*
X118706000Y-62730000D01*
X113440000Y-62770000D02*
X118732000Y-62770000D01*
X113440000Y-62810000D02*
X118759000Y-62810000D01*
X113440000Y-62850000D02*
X118785000Y-62850000D01*
X113440000Y-62890000D02*
X118810000Y-62890000D01*
X113440000Y-62930000D02*
X118835000Y-62930000D01*
X113440000Y-62970000D02*
X118860000Y-62970000D01*
X113440000Y-63010000D02*
X118885000Y-63010000D01*
X113440000Y-63050000D02*
X118909000Y-63050000D01*
X113440000Y-63090000D02*
X118933000Y-63090000D01*
X113440000Y-63130000D02*
X118957000Y-63130000D01*
X113440000Y-63170000D02*
X118981000Y-63170000D01*
X113440000Y-63210000D02*
X119004000Y-63210000D01*
X113440000Y-63250000D02*
X119026000Y-63250000D01*
X113440000Y-63290000D02*
X119049000Y-63290000D01*
X113440000Y-63330000D02*
X119071000Y-63330000D01*
X113440000Y-63370000D02*
X119093000Y-63370000D01*
X113440000Y-63410000D02*
X119115000Y-63410000D01*
X113440000Y-63450000D02*
X119136000Y-63450000D01*
X113440000Y-63490000D02*
X119157000Y-63490000D01*
X113440000Y-63530000D02*
X119178000Y-63530000D01*
X113440000Y-63570000D02*
X119198000Y-63570000D01*
X113440000Y-63610000D02*
X119218000Y-63610000D01*
X113440000Y-63650000D02*
X119238000Y-63650000D01*
X113440000Y-63690000D02*
X119258000Y-63690000D01*
X113440000Y-63730000D02*
X119277000Y-63730000D01*
X113440000Y-63770000D02*
X119296000Y-63770000D01*
X113440000Y-63810000D02*
X119315000Y-63810000D01*
X113440000Y-63850000D02*
X119334000Y-63850000D01*
X113440000Y-63890000D02*
X119352000Y-63890000D01*
X113440000Y-63930000D02*
X119370000Y-63930000D01*
X113440000Y-63970000D02*
X119388000Y-63970000D01*
X113440000Y-64010000D02*
X119406000Y-64010000D01*
X113440000Y-64050000D02*
X119423000Y-64050000D01*
X113440000Y-64090000D02*
X119440000Y-64090000D01*
X113440000Y-64130000D02*
X119457000Y-64130000D01*
X113440000Y-64170000D02*
X119473000Y-64170000D01*
X113440000Y-64210000D02*
X119489000Y-64210000D01*
X113440000Y-64250000D02*
X119505000Y-64250000D01*
X113440000Y-64290000D02*
X119521000Y-64290000D01*
X113440000Y-64330000D02*
X119537000Y-64330000D01*
X113440000Y-64370000D02*
X119552000Y-64370000D01*
X113440000Y-64410000D02*
X119567000Y-64410000D01*
X113440000Y-64450000D02*
X119582000Y-64450000D01*
X113440000Y-64490000D02*
X119597000Y-64490000D01*
X113440000Y-64530000D02*
X119611000Y-64530000D01*
X113440000Y-64570000D02*
X119625000Y-64570000D01*
X113440000Y-64610000D02*
X119639000Y-64610000D01*
X113440000Y-64650000D02*
X119652000Y-64650000D01*
X113440000Y-64690000D02*
X119666000Y-64690000D01*
X113440000Y-64730000D02*
X119679000Y-64730000D01*
X113440000Y-64770000D02*
X119692000Y-64770000D01*
X113440000Y-64810000D02*
X119705000Y-64810000D01*
X113440000Y-64850000D02*
X119717000Y-64850000D01*
X113440000Y-64890000D02*
X119729000Y-64890000D01*
X113440000Y-64930000D02*
X119742000Y-64930000D01*
X120120000Y-67250000D02*
G75*
G02*
X103880000Y-67250000I-8120000J0D01*
G01*
X103880000Y-67250000D02*
G75*
G02*
X120120000Y-67250000I8120000J0D01*
G01*
%TO.C,C4*%
X124920000Y-67157245D02*
X141080000Y-67157245D01*
X124920000Y-67197245D02*
X141080000Y-67197245D01*
X124920000Y-67237245D02*
X141080000Y-67237245D01*
X124921000Y-67117245D02*
X141079000Y-67117245D01*
X124922000Y-67037245D02*
X141078000Y-67037245D01*
X124922000Y-67077245D02*
X141078000Y-67077245D01*
X124924000Y-66997245D02*
X141076000Y-66997245D01*
X124925000Y-66957245D02*
X141075000Y-66957245D01*
X124926000Y-66917245D02*
X141074000Y-66917245D01*
X124928000Y-66877245D02*
X141072000Y-66877245D01*
X124930000Y-66837245D02*
X141070000Y-66837245D01*
X124932000Y-66797245D02*
X141068000Y-66797245D01*
X124934000Y-66757245D02*
X141066000Y-66757245D01*
X124937000Y-66717245D02*
X141063000Y-66717245D01*
X124939000Y-66677245D02*
X141061000Y-66677245D01*
X124942000Y-66637245D02*
X141058000Y-66637245D01*
X124945000Y-66597245D02*
X141055000Y-66597245D01*
X124949000Y-66557245D02*
X141051000Y-66557245D01*
X124952000Y-66517245D02*
X141048000Y-66517245D01*
X124956000Y-66477245D02*
X141044000Y-66477245D01*
X124960000Y-66437245D02*
X141040000Y-66437245D01*
X124964000Y-66397245D02*
X141036000Y-66397245D01*
X124968000Y-66357245D02*
X141032000Y-66357245D01*
X124972000Y-66317245D02*
X141028000Y-66317245D01*
X124977000Y-66277245D02*
X141023000Y-66277245D01*
X124982000Y-66237245D02*
X141018000Y-66237245D01*
X124987000Y-66197245D02*
X141013000Y-66197245D01*
X124992000Y-66157245D02*
X141008000Y-66157245D01*
X124998000Y-66117245D02*
X141002000Y-66117245D01*
X125003000Y-66077245D02*
X140997000Y-66077245D01*
X125009000Y-66037245D02*
X140991000Y-66037245D01*
X125015000Y-65997245D02*
X140985000Y-65997245D01*
X125022000Y-65957245D02*
X140978000Y-65957245D01*
X125028000Y-65917245D02*
X140972000Y-65917245D01*
X125035000Y-65877245D02*
X140965000Y-65877245D01*
X125042000Y-65837245D02*
X140958000Y-65837245D01*
X125049000Y-65797245D02*
X140951000Y-65797245D01*
X125056000Y-65757245D02*
X140944000Y-65757245D01*
X125064000Y-65717245D02*
X140936000Y-65717245D01*
X125071000Y-65677245D02*
X140929000Y-65677245D01*
X125079000Y-65637245D02*
X140921000Y-65637245D01*
X125087000Y-65597245D02*
X140913000Y-65597245D01*
X125096000Y-65557245D02*
X140904000Y-65557245D01*
X125104000Y-65517245D02*
X140896000Y-65517245D01*
X125113000Y-65477245D02*
X140887000Y-65477245D01*
X125122000Y-65437245D02*
X140878000Y-65437245D01*
X125131000Y-65397245D02*
X140869000Y-65397245D01*
X125141000Y-65357245D02*
X140859000Y-65357245D01*
X125150000Y-65317245D02*
X140850000Y-65317245D01*
X125160000Y-65277245D02*
X140840000Y-65277245D01*
X125170000Y-65237245D02*
X140830000Y-65237245D01*
X125180000Y-65197245D02*
X140820000Y-65197245D01*
X125191000Y-65157245D02*
X140809000Y-65157245D01*
X125202000Y-65117245D02*
X140798000Y-65117245D01*
X125213000Y-65077245D02*
X140787000Y-65077245D01*
X125224000Y-65037245D02*
X140776000Y-65037245D01*
X125235000Y-64997245D02*
X140765000Y-64997245D01*
X125247000Y-64957245D02*
X140753000Y-64957245D01*
X125258000Y-64917245D02*
X131560000Y-64917245D01*
X125271000Y-64877245D02*
X131560000Y-64877245D01*
X125283000Y-64837245D02*
X131560000Y-64837245D01*
X125295000Y-64797245D02*
X131560000Y-64797245D01*
X125308000Y-64757245D02*
X131560000Y-64757245D01*
X125321000Y-64717245D02*
X131560000Y-64717245D01*
X125334000Y-64677245D02*
X131560000Y-64677245D01*
X125348000Y-64637245D02*
X131560000Y-64637245D01*
X125361000Y-64597245D02*
X131560000Y-64597245D01*
X125375000Y-64557245D02*
X131560000Y-64557245D01*
X125389000Y-64517245D02*
X131560000Y-64517245D01*
X125403000Y-64477245D02*
X131560000Y-64477245D01*
X125418000Y-64437245D02*
X131560000Y-64437245D01*
X125433000Y-64397245D02*
X131560000Y-64397245D01*
X125448000Y-64357245D02*
X131560000Y-64357245D01*
X125463000Y-64317245D02*
X131560000Y-64317245D01*
X125479000Y-64277245D02*
X131560000Y-64277245D01*
X125495000Y-64237245D02*
X131560000Y-64237245D01*
X125511000Y-64197245D02*
X131560000Y-64197245D01*
X125527000Y-64157245D02*
X131560000Y-64157245D01*
X125543000Y-64117245D02*
X131560000Y-64117245D01*
X125560000Y-64077245D02*
X131560000Y-64077245D01*
X125577000Y-64037245D02*
X131560000Y-64037245D01*
X125594000Y-63997245D02*
X131560000Y-63997245D01*
X125612000Y-63957245D02*
X131560000Y-63957245D01*
X125630000Y-63917245D02*
X131560000Y-63917245D01*
X125648000Y-63877245D02*
X131560000Y-63877245D01*
X125666000Y-63837245D02*
X131560000Y-63837245D01*
X125685000Y-63797245D02*
X131560000Y-63797245D01*
X125704000Y-63757245D02*
X131560000Y-63757245D01*
X125723000Y-63717245D02*
X131560000Y-63717245D01*
X125742000Y-63677245D02*
X131560000Y-63677245D01*
X125762000Y-63637245D02*
X131560000Y-63637245D01*
X125782000Y-63597245D02*
X131560000Y-63597245D01*
X125802000Y-63557245D02*
X131560000Y-63557245D01*
X125822000Y-63517245D02*
X131560000Y-63517245D01*
X125843000Y-63477245D02*
X131560000Y-63477245D01*
X125864000Y-63437245D02*
X131560000Y-63437245D01*
X125885000Y-63397245D02*
X131560000Y-63397245D01*
X125907000Y-63357245D02*
X131560000Y-63357245D01*
X125929000Y-63317245D02*
X131560000Y-63317245D01*
X125951000Y-63277245D02*
X131560000Y-63277245D01*
X125974000Y-63237245D02*
X131560000Y-63237245D01*
X125996000Y-63197245D02*
X131560000Y-63197245D01*
X126019000Y-63157245D02*
X131560000Y-63157245D01*
X126043000Y-63117245D02*
X131560000Y-63117245D01*
X126067000Y-63077245D02*
X131560000Y-63077245D01*
X126091000Y-63037245D02*
X131560000Y-63037245D01*
X126115000Y-62997245D02*
X131560000Y-62997245D01*
X126140000Y-62957245D02*
X131560000Y-62957245D01*
X126165000Y-62917245D02*
X131560000Y-62917245D01*
X126190000Y-62877245D02*
X131560000Y-62877245D01*
X126215000Y-62837245D02*
X131560000Y-62837245D01*
X126241000Y-62797245D02*
X131560000Y-62797245D01*
X126268000Y-62757245D02*
X131560000Y-62757245D01*
X126294000Y-62717245D02*
X131560000Y-62717245D01*
X126321000Y-62677245D02*
X131560000Y-62677245D01*
X126349000Y-62637245D02*
X131560000Y-62637245D01*
X126376000Y-62597245D02*
X131560000Y-62597245D01*
X126404000Y-62557245D02*
X131560000Y-62557245D01*
X126433000Y-62517245D02*
X131560000Y-62517245D01*
X126461000Y-62477245D02*
X131560000Y-62477245D01*
X126491000Y-62437245D02*
X131560000Y-62437245D01*
X126520000Y-62397245D02*
X131560000Y-62397245D01*
X126550000Y-62357245D02*
X131560000Y-62357245D01*
X126580000Y-62317245D02*
X131560000Y-62317245D01*
X126611000Y-62277245D02*
X131560000Y-62277245D01*
X126642000Y-62237245D02*
X131560000Y-62237245D01*
X126673000Y-62197245D02*
X131560000Y-62197245D01*
X126705000Y-62157245D02*
X131560000Y-62157245D01*
X126738000Y-62117245D02*
X131560000Y-62117245D01*
X126770000Y-62077245D02*
X131560000Y-62077245D01*
X126803000Y-62037245D02*
X139197000Y-62037245D01*
X126837000Y-61997245D02*
X139163000Y-61997245D01*
X126871000Y-61957245D02*
X139129000Y-61957245D01*
X126906000Y-61917245D02*
X139094000Y-61917245D01*
X126940000Y-61877245D02*
X139060000Y-61877245D01*
X126976000Y-61837245D02*
X139024000Y-61837245D01*
X127012000Y-61797245D02*
X138988000Y-61797245D01*
X127048000Y-61757245D02*
X138952000Y-61757245D01*
X127085000Y-61717245D02*
X138915000Y-61717245D01*
X127122000Y-61677245D02*
X138878000Y-61677245D01*
X127160000Y-61637245D02*
X138840000Y-61637245D01*
X127198000Y-61597245D02*
X138802000Y-61597245D01*
X127237000Y-61557245D02*
X138763000Y-61557245D01*
X127277000Y-61517245D02*
X138723000Y-61517245D01*
X127317000Y-61477245D02*
X138683000Y-61477245D01*
X127357000Y-61437245D02*
X138643000Y-61437245D01*
X127398000Y-61397245D02*
X138602000Y-61397245D01*
X127440000Y-61357245D02*
X138560000Y-61357245D01*
X127482000Y-61317245D02*
X138518000Y-61317245D01*
X127525000Y-61277245D02*
X138475000Y-61277245D01*
X127569000Y-61237245D02*
X138431000Y-61237245D01*
X127613000Y-61197245D02*
X138387000Y-61197245D01*
X127645000Y-75126736D02*
X129245000Y-75126736D01*
X127658000Y-61157245D02*
X138342000Y-61157245D01*
X127703000Y-61117245D02*
X138297000Y-61117245D01*
X127750000Y-61077245D02*
X138250000Y-61077245D01*
X127796000Y-61037245D02*
X138204000Y-61037245D01*
X127844000Y-60997245D02*
X138156000Y-60997245D01*
X127893000Y-60957245D02*
X138107000Y-60957245D01*
X127942000Y-60917245D02*
X138058000Y-60917245D01*
X127992000Y-60877245D02*
X138008000Y-60877245D01*
X128043000Y-60837245D02*
X137957000Y-60837245D01*
X128094000Y-60797245D02*
X137906000Y-60797245D01*
X128147000Y-60757245D02*
X137853000Y-60757245D01*
X128200000Y-60717245D02*
X137800000Y-60717245D01*
X128255000Y-60677245D02*
X137745000Y-60677245D01*
X128310000Y-60637245D02*
X137690000Y-60637245D01*
X128366000Y-60597245D02*
X137634000Y-60597245D01*
X128424000Y-60557245D02*
X137576000Y-60557245D01*
X128445000Y-75926736D02*
X128445000Y-74326736D01*
X128482000Y-60517245D02*
X137518000Y-60517245D01*
X128541000Y-60477245D02*
X137459000Y-60477245D01*
X128602000Y-60437245D02*
X137398000Y-60437245D01*
X128664000Y-60397245D02*
X137336000Y-60397245D01*
X128727000Y-60357245D02*
X137273000Y-60357245D01*
X128792000Y-60317245D02*
X137208000Y-60317245D01*
X128858000Y-60277245D02*
X137142000Y-60277245D01*
X128925000Y-60237245D02*
X137075000Y-60237245D01*
X128994000Y-60197245D02*
X137006000Y-60197245D01*
X129064000Y-60157245D02*
X136936000Y-60157245D01*
X129136000Y-60117245D02*
X136864000Y-60117245D01*
X129210000Y-60077245D02*
X136790000Y-60077245D01*
X129286000Y-60037245D02*
X136714000Y-60037245D01*
X129363000Y-59997245D02*
X136637000Y-59997245D01*
X129443000Y-59957245D02*
X136557000Y-59957245D01*
X129525000Y-59917245D02*
X136475000Y-59917245D01*
X129610000Y-59877245D02*
X136390000Y-59877245D01*
X129697000Y-59837245D02*
X136303000Y-59837245D01*
X129787000Y-59797245D02*
X136213000Y-59797245D01*
X129880000Y-59757245D02*
X136120000Y-59757245D01*
X129977000Y-59717245D02*
X136023000Y-59717245D01*
X130077000Y-59677245D02*
X135923000Y-59677245D01*
X130181000Y-59637245D02*
X135819000Y-59637245D01*
X130290000Y-59597245D02*
X135710000Y-59597245D01*
X130403000Y-59557245D02*
X135597000Y-59557245D01*
X130523000Y-59517245D02*
X135477000Y-59517245D01*
X130649000Y-59477245D02*
X135351000Y-59477245D01*
X130783000Y-59437245D02*
X135217000Y-59437245D01*
X130926000Y-59397245D02*
X135074000Y-59397245D01*
X131080000Y-59357245D02*
X134920000Y-59357245D01*
X131249000Y-59317245D02*
X134751000Y-59317245D01*
X131436000Y-59277245D02*
X134564000Y-59277245D01*
X131649000Y-59237245D02*
X134351000Y-59237245D01*
X131903000Y-59197245D02*
X134097000Y-59197245D01*
X132235000Y-59157245D02*
X133765000Y-59157245D01*
X134440000Y-62077245D02*
X139230000Y-62077245D01*
X134440000Y-62117245D02*
X139262000Y-62117245D01*
X134440000Y-62157245D02*
X139295000Y-62157245D01*
X134440000Y-62197245D02*
X139327000Y-62197245D01*
X134440000Y-62237245D02*
X139358000Y-62237245D01*
X134440000Y-62277245D02*
X139389000Y-62277245D01*
X134440000Y-62317245D02*
X139420000Y-62317245D01*
X134440000Y-62357245D02*
X139450000Y-62357245D01*
X134440000Y-62397245D02*
X139480000Y-62397245D01*
X134440000Y-62437245D02*
X139509000Y-62437245D01*
X134440000Y-62477245D02*
X139539000Y-62477245D01*
X134440000Y-62517245D02*
X139567000Y-62517245D01*
X134440000Y-62557245D02*
X139596000Y-62557245D01*
X134440000Y-62597245D02*
X139624000Y-62597245D01*
X134440000Y-62637245D02*
X139651000Y-62637245D01*
X134440000Y-62677245D02*
X139679000Y-62677245D01*
X134440000Y-62717245D02*
X139706000Y-62717245D01*
X134440000Y-62757245D02*
X139732000Y-62757245D01*
X134440000Y-62797245D02*
X139759000Y-62797245D01*
X134440000Y-62837245D02*
X139785000Y-62837245D01*
X134440000Y-62877245D02*
X139810000Y-62877245D01*
X134440000Y-62917245D02*
X139835000Y-62917245D01*
X134440000Y-62957245D02*
X139860000Y-62957245D01*
X134440000Y-62997245D02*
X139885000Y-62997245D01*
X134440000Y-63037245D02*
X139909000Y-63037245D01*
X134440000Y-63077245D02*
X139933000Y-63077245D01*
X134440000Y-63117245D02*
X139957000Y-63117245D01*
X134440000Y-63157245D02*
X139981000Y-63157245D01*
X134440000Y-63197245D02*
X140004000Y-63197245D01*
X134440000Y-63237245D02*
X140026000Y-63237245D01*
X134440000Y-63277245D02*
X140049000Y-63277245D01*
X134440000Y-63317245D02*
X140071000Y-63317245D01*
X134440000Y-63357245D02*
X140093000Y-63357245D01*
X134440000Y-63397245D02*
X140115000Y-63397245D01*
X134440000Y-63437245D02*
X140136000Y-63437245D01*
X134440000Y-63477245D02*
X140157000Y-63477245D01*
X134440000Y-63517245D02*
X140178000Y-63517245D01*
X134440000Y-63557245D02*
X140198000Y-63557245D01*
X134440000Y-63597245D02*
X140218000Y-63597245D01*
X134440000Y-63637245D02*
X140238000Y-63637245D01*
X134440000Y-63677245D02*
X140258000Y-63677245D01*
X134440000Y-63717245D02*
X140277000Y-63717245D01*
X134440000Y-63757245D02*
X140296000Y-63757245D01*
X134440000Y-63797245D02*
X140315000Y-63797245D01*
X134440000Y-63837245D02*
X140334000Y-63837245D01*
X134440000Y-63877245D02*
X140352000Y-63877245D01*
X134440000Y-63917245D02*
X140370000Y-63917245D01*
X134440000Y-63957245D02*
X140388000Y-63957245D01*
X134440000Y-63997245D02*
X140406000Y-63997245D01*
X134440000Y-64037245D02*
X140423000Y-64037245D01*
X134440000Y-64077245D02*
X140440000Y-64077245D01*
X134440000Y-64117245D02*
X140457000Y-64117245D01*
X134440000Y-64157245D02*
X140473000Y-64157245D01*
X134440000Y-64197245D02*
X140489000Y-64197245D01*
X134440000Y-64237245D02*
X140505000Y-64237245D01*
X134440000Y-64277245D02*
X140521000Y-64277245D01*
X134440000Y-64317245D02*
X140537000Y-64317245D01*
X134440000Y-64357245D02*
X140552000Y-64357245D01*
X134440000Y-64397245D02*
X140567000Y-64397245D01*
X134440000Y-64437245D02*
X140582000Y-64437245D01*
X134440000Y-64477245D02*
X140597000Y-64477245D01*
X134440000Y-64517245D02*
X140611000Y-64517245D01*
X134440000Y-64557245D02*
X140625000Y-64557245D01*
X134440000Y-64597245D02*
X140639000Y-64597245D01*
X134440000Y-64637245D02*
X140652000Y-64637245D01*
X134440000Y-64677245D02*
X140666000Y-64677245D01*
X134440000Y-64717245D02*
X140679000Y-64717245D01*
X134440000Y-64757245D02*
X140692000Y-64757245D01*
X134440000Y-64797245D02*
X140705000Y-64797245D01*
X134440000Y-64837245D02*
X140717000Y-64837245D01*
X134440000Y-64877245D02*
X140729000Y-64877245D01*
X134440000Y-64917245D02*
X140742000Y-64917245D01*
X141120000Y-67237245D02*
G75*
G02*
X124880000Y-67237245I-8120000J0D01*
G01*
X124880000Y-67237245D02*
G75*
G02*
X141120000Y-67237245I8120000J0D01*
G01*
%TO.C,D4*%
X98000000Y-65340000D02*
X98000000Y-66360000D01*
X98000000Y-72820000D02*
X98000000Y-71800000D01*
X99470000Y-67140000D02*
X96530000Y-67140000D01*
X99470000Y-67260000D02*
X96530000Y-67260000D01*
X99470000Y-67380000D02*
X96530000Y-67380000D01*
X99470000Y-66360000D02*
X96530000Y-66360000D01*
X96530000Y-71800000D01*
X99470000Y-71800000D01*
X99470000Y-66360000D01*
%TO.C,C1*%
X103920000Y-86195510D02*
X120080000Y-86195510D01*
X103920000Y-86235510D02*
X120080000Y-86235510D01*
X103920000Y-86275510D02*
X120080000Y-86275510D01*
X103921000Y-86155510D02*
X120079000Y-86155510D01*
X103922000Y-86075510D02*
X120078000Y-86075510D01*
X103922000Y-86115510D02*
X120078000Y-86115510D01*
X103924000Y-86035510D02*
X120076000Y-86035510D01*
X103925000Y-85995510D02*
X120075000Y-85995510D01*
X103926000Y-85955510D02*
X120074000Y-85955510D01*
X103928000Y-85915510D02*
X120072000Y-85915510D01*
X103930000Y-85875510D02*
X120070000Y-85875510D01*
X103932000Y-85835510D02*
X120068000Y-85835510D01*
X103934000Y-85795510D02*
X120066000Y-85795510D01*
X103937000Y-85755510D02*
X120063000Y-85755510D01*
X103939000Y-85715510D02*
X120061000Y-85715510D01*
X103942000Y-85675510D02*
X120058000Y-85675510D01*
X103945000Y-85635510D02*
X120055000Y-85635510D01*
X103949000Y-85595510D02*
X120051000Y-85595510D01*
X103952000Y-85555510D02*
X120048000Y-85555510D01*
X103956000Y-85515510D02*
X120044000Y-85515510D01*
X103960000Y-85475510D02*
X120040000Y-85475510D01*
X103964000Y-85435510D02*
X120036000Y-85435510D01*
X103968000Y-85395510D02*
X120032000Y-85395510D01*
X103972000Y-85355510D02*
X120028000Y-85355510D01*
X103977000Y-85315510D02*
X120023000Y-85315510D01*
X103982000Y-85275510D02*
X120018000Y-85275510D01*
X103987000Y-85235510D02*
X120013000Y-85235510D01*
X103992000Y-85195510D02*
X120008000Y-85195510D01*
X103998000Y-85155510D02*
X120002000Y-85155510D01*
X104003000Y-85115510D02*
X119997000Y-85115510D01*
X104009000Y-85075510D02*
X119991000Y-85075510D01*
X104015000Y-85035510D02*
X119985000Y-85035510D01*
X104022000Y-84995510D02*
X119978000Y-84995510D01*
X104028000Y-84955510D02*
X119972000Y-84955510D01*
X104035000Y-84915510D02*
X119965000Y-84915510D01*
X104042000Y-84875510D02*
X119958000Y-84875510D01*
X104049000Y-84835510D02*
X119951000Y-84835510D01*
X104056000Y-84795510D02*
X119944000Y-84795510D01*
X104064000Y-84755510D02*
X119936000Y-84755510D01*
X104071000Y-84715510D02*
X119929000Y-84715510D01*
X104079000Y-84675510D02*
X119921000Y-84675510D01*
X104087000Y-84635510D02*
X119913000Y-84635510D01*
X104096000Y-84595510D02*
X119904000Y-84595510D01*
X104104000Y-84555510D02*
X119896000Y-84555510D01*
X104113000Y-84515510D02*
X119887000Y-84515510D01*
X104122000Y-84475510D02*
X119878000Y-84475510D01*
X104131000Y-84435510D02*
X119869000Y-84435510D01*
X104141000Y-84395510D02*
X119859000Y-84395510D01*
X104150000Y-84355510D02*
X119850000Y-84355510D01*
X104160000Y-84315510D02*
X119840000Y-84315510D01*
X104170000Y-84275510D02*
X119830000Y-84275510D01*
X104180000Y-84235510D02*
X119820000Y-84235510D01*
X104191000Y-84195510D02*
X119809000Y-84195510D01*
X104202000Y-84155510D02*
X119798000Y-84155510D01*
X104213000Y-84115510D02*
X119787000Y-84115510D01*
X104224000Y-84075510D02*
X119776000Y-84075510D01*
X104235000Y-84035510D02*
X119765000Y-84035510D01*
X104247000Y-83995510D02*
X119753000Y-83995510D01*
X104258000Y-83955510D02*
X110560000Y-83955510D01*
X104271000Y-83915510D02*
X110560000Y-83915510D01*
X104283000Y-83875510D02*
X110560000Y-83875510D01*
X104295000Y-83835510D02*
X110560000Y-83835510D01*
X104308000Y-83795510D02*
X110560000Y-83795510D01*
X104321000Y-83755510D02*
X110560000Y-83755510D01*
X104334000Y-83715510D02*
X110560000Y-83715510D01*
X104348000Y-83675510D02*
X110560000Y-83675510D01*
X104361000Y-83635510D02*
X110560000Y-83635510D01*
X104375000Y-83595510D02*
X110560000Y-83595510D01*
X104389000Y-83555510D02*
X110560000Y-83555510D01*
X104403000Y-83515510D02*
X110560000Y-83515510D01*
X104418000Y-83475510D02*
X110560000Y-83475510D01*
X104433000Y-83435510D02*
X110560000Y-83435510D01*
X104448000Y-83395510D02*
X110560000Y-83395510D01*
X104463000Y-83355510D02*
X110560000Y-83355510D01*
X104479000Y-83315510D02*
X110560000Y-83315510D01*
X104495000Y-83275510D02*
X110560000Y-83275510D01*
X104511000Y-83235510D02*
X110560000Y-83235510D01*
X104527000Y-83195510D02*
X110560000Y-83195510D01*
X104543000Y-83155510D02*
X110560000Y-83155510D01*
X104560000Y-83115510D02*
X110560000Y-83115510D01*
X104577000Y-83075510D02*
X110560000Y-83075510D01*
X104594000Y-83035510D02*
X110560000Y-83035510D01*
X104612000Y-82995510D02*
X110560000Y-82995510D01*
X104630000Y-82955510D02*
X110560000Y-82955510D01*
X104648000Y-82915510D02*
X110560000Y-82915510D01*
X104666000Y-82875510D02*
X110560000Y-82875510D01*
X104685000Y-82835510D02*
X110560000Y-82835510D01*
X104704000Y-82795510D02*
X110560000Y-82795510D01*
X104723000Y-82755510D02*
X110560000Y-82755510D01*
X104742000Y-82715510D02*
X110560000Y-82715510D01*
X104762000Y-82675510D02*
X110560000Y-82675510D01*
X104782000Y-82635510D02*
X110560000Y-82635510D01*
X104802000Y-82595510D02*
X110560000Y-82595510D01*
X104822000Y-82555510D02*
X110560000Y-82555510D01*
X104843000Y-82515510D02*
X110560000Y-82515510D01*
X104864000Y-82475510D02*
X110560000Y-82475510D01*
X104885000Y-82435510D02*
X110560000Y-82435510D01*
X104907000Y-82395510D02*
X110560000Y-82395510D01*
X104929000Y-82355510D02*
X110560000Y-82355510D01*
X104951000Y-82315510D02*
X110560000Y-82315510D01*
X104974000Y-82275510D02*
X110560000Y-82275510D01*
X104996000Y-82235510D02*
X110560000Y-82235510D01*
X105019000Y-82195510D02*
X110560000Y-82195510D01*
X105043000Y-82155510D02*
X110560000Y-82155510D01*
X105067000Y-82115510D02*
X110560000Y-82115510D01*
X105091000Y-82075510D02*
X110560000Y-82075510D01*
X105115000Y-82035510D02*
X110560000Y-82035510D01*
X105140000Y-81995510D02*
X110560000Y-81995510D01*
X105165000Y-81955510D02*
X110560000Y-81955510D01*
X105190000Y-81915510D02*
X110560000Y-81915510D01*
X105215000Y-81875510D02*
X110560000Y-81875510D01*
X105241000Y-81835510D02*
X110560000Y-81835510D01*
X105268000Y-81795510D02*
X110560000Y-81795510D01*
X105294000Y-81755510D02*
X110560000Y-81755510D01*
X105321000Y-81715510D02*
X110560000Y-81715510D01*
X105349000Y-81675510D02*
X110560000Y-81675510D01*
X105376000Y-81635510D02*
X110560000Y-81635510D01*
X105404000Y-81595510D02*
X110560000Y-81595510D01*
X105433000Y-81555510D02*
X110560000Y-81555510D01*
X105461000Y-81515510D02*
X110560000Y-81515510D01*
X105491000Y-81475510D02*
X110560000Y-81475510D01*
X105520000Y-81435510D02*
X110560000Y-81435510D01*
X105550000Y-81395510D02*
X110560000Y-81395510D01*
X105580000Y-81355510D02*
X110560000Y-81355510D01*
X105611000Y-81315510D02*
X110560000Y-81315510D01*
X105642000Y-81275510D02*
X110560000Y-81275510D01*
X105673000Y-81235510D02*
X110560000Y-81235510D01*
X105705000Y-81195510D02*
X110560000Y-81195510D01*
X105738000Y-81155510D02*
X110560000Y-81155510D01*
X105770000Y-81115510D02*
X110560000Y-81115510D01*
X105803000Y-81075510D02*
X118197000Y-81075510D01*
X105837000Y-81035510D02*
X118163000Y-81035510D01*
X105871000Y-80995510D02*
X118129000Y-80995510D01*
X105906000Y-80955510D02*
X118094000Y-80955510D01*
X105940000Y-80915510D02*
X118060000Y-80915510D01*
X105976000Y-80875510D02*
X118024000Y-80875510D01*
X106012000Y-80835510D02*
X117988000Y-80835510D01*
X106048000Y-80795510D02*
X117952000Y-80795510D01*
X106085000Y-80755510D02*
X117915000Y-80755510D01*
X106122000Y-80715510D02*
X117878000Y-80715510D01*
X106160000Y-80675510D02*
X117840000Y-80675510D01*
X106198000Y-80635510D02*
X117802000Y-80635510D01*
X106237000Y-80595510D02*
X117763000Y-80595510D01*
X106277000Y-80555510D02*
X117723000Y-80555510D01*
X106317000Y-80515510D02*
X117683000Y-80515510D01*
X106357000Y-80475510D02*
X117643000Y-80475510D01*
X106398000Y-80435510D02*
X117602000Y-80435510D01*
X106440000Y-80395510D02*
X117560000Y-80395510D01*
X106482000Y-80355510D02*
X117518000Y-80355510D01*
X106525000Y-80315510D02*
X117475000Y-80315510D01*
X106569000Y-80275510D02*
X117431000Y-80275510D01*
X106613000Y-80235510D02*
X117387000Y-80235510D01*
X106645000Y-94165001D02*
X108245000Y-94165001D01*
X106658000Y-80195510D02*
X117342000Y-80195510D01*
X106703000Y-80155510D02*
X117297000Y-80155510D01*
X106750000Y-80115510D02*
X117250000Y-80115510D01*
X106796000Y-80075510D02*
X117204000Y-80075510D01*
X106844000Y-80035510D02*
X117156000Y-80035510D01*
X106893000Y-79995510D02*
X117107000Y-79995510D01*
X106942000Y-79955510D02*
X117058000Y-79955510D01*
X106992000Y-79915510D02*
X117008000Y-79915510D01*
X107043000Y-79875510D02*
X116957000Y-79875510D01*
X107094000Y-79835510D02*
X116906000Y-79835510D01*
X107147000Y-79795510D02*
X116853000Y-79795510D01*
X107200000Y-79755510D02*
X116800000Y-79755510D01*
X107255000Y-79715510D02*
X116745000Y-79715510D01*
X107310000Y-79675510D02*
X116690000Y-79675510D01*
X107366000Y-79635510D02*
X116634000Y-79635510D01*
X107424000Y-79595510D02*
X116576000Y-79595510D01*
X107445000Y-94965001D02*
X107445000Y-93365001D01*
X107482000Y-79555510D02*
X116518000Y-79555510D01*
X107541000Y-79515510D02*
X116459000Y-79515510D01*
X107602000Y-79475510D02*
X116398000Y-79475510D01*
X107664000Y-79435510D02*
X116336000Y-79435510D01*
X107727000Y-79395510D02*
X116273000Y-79395510D01*
X107792000Y-79355510D02*
X116208000Y-79355510D01*
X107858000Y-79315510D02*
X116142000Y-79315510D01*
X107925000Y-79275510D02*
X116075000Y-79275510D01*
X107994000Y-79235510D02*
X116006000Y-79235510D01*
X108064000Y-79195510D02*
X115936000Y-79195510D01*
X108136000Y-79155510D02*
X115864000Y-79155510D01*
X108210000Y-79115510D02*
X115790000Y-79115510D01*
X108286000Y-79075510D02*
X115714000Y-79075510D01*
X108363000Y-79035510D02*
X115637000Y-79035510D01*
X108443000Y-78995510D02*
X115557000Y-78995510D01*
X108525000Y-78955510D02*
X115475000Y-78955510D01*
X108610000Y-78915510D02*
X115390000Y-78915510D01*
X108697000Y-78875510D02*
X115303000Y-78875510D01*
X108787000Y-78835510D02*
X115213000Y-78835510D01*
X108880000Y-78795510D02*
X115120000Y-78795510D01*
X108977000Y-78755510D02*
X115023000Y-78755510D01*
X109077000Y-78715510D02*
X114923000Y-78715510D01*
X109181000Y-78675510D02*
X114819000Y-78675510D01*
X109290000Y-78635510D02*
X114710000Y-78635510D01*
X109403000Y-78595510D02*
X114597000Y-78595510D01*
X109523000Y-78555510D02*
X114477000Y-78555510D01*
X109649000Y-78515510D02*
X114351000Y-78515510D01*
X109783000Y-78475510D02*
X114217000Y-78475510D01*
X109926000Y-78435510D02*
X114074000Y-78435510D01*
X110080000Y-78395510D02*
X113920000Y-78395510D01*
X110249000Y-78355510D02*
X113751000Y-78355510D01*
X110436000Y-78315510D02*
X113564000Y-78315510D01*
X110649000Y-78275510D02*
X113351000Y-78275510D01*
X110903000Y-78235510D02*
X113097000Y-78235510D01*
X111235000Y-78195510D02*
X112765000Y-78195510D01*
X113440000Y-81115510D02*
X118230000Y-81115510D01*
X113440000Y-81155510D02*
X118262000Y-81155510D01*
X113440000Y-81195510D02*
X118295000Y-81195510D01*
X113440000Y-81235510D02*
X118327000Y-81235510D01*
X113440000Y-81275510D02*
X118358000Y-81275510D01*
X113440000Y-81315510D02*
X118389000Y-81315510D01*
X113440000Y-81355510D02*
X118420000Y-81355510D01*
X113440000Y-81395510D02*
X118450000Y-81395510D01*
X113440000Y-81435510D02*
X118480000Y-81435510D01*
X113440000Y-81475510D02*
X118509000Y-81475510D01*
X113440000Y-81515510D02*
X118539000Y-81515510D01*
X113440000Y-81555510D02*
X118567000Y-81555510D01*
X113440000Y-81595510D02*
X118596000Y-81595510D01*
X113440000Y-81635510D02*
X118624000Y-81635510D01*
X113440000Y-81675510D02*
X118651000Y-81675510D01*
X113440000Y-81715510D02*
X118679000Y-81715510D01*
X113440000Y-81755510D02*
X118706000Y-81755510D01*
X113440000Y-81795510D02*
X118732000Y-81795510D01*
X113440000Y-81835510D02*
X118759000Y-81835510D01*
X113440000Y-81875510D02*
X118785000Y-81875510D01*
X113440000Y-81915510D02*
X118810000Y-81915510D01*
X113440000Y-81955510D02*
X118835000Y-81955510D01*
X113440000Y-81995510D02*
X118860000Y-81995510D01*
X113440000Y-82035510D02*
X118885000Y-82035510D01*
X113440000Y-82075510D02*
X118909000Y-82075510D01*
X113440000Y-82115510D02*
X118933000Y-82115510D01*
X113440000Y-82155510D02*
X118957000Y-82155510D01*
X113440000Y-82195510D02*
X118981000Y-82195510D01*
X113440000Y-82235510D02*
X119004000Y-82235510D01*
X113440000Y-82275510D02*
X119026000Y-82275510D01*
X113440000Y-82315510D02*
X119049000Y-82315510D01*
X113440000Y-82355510D02*
X119071000Y-82355510D01*
X113440000Y-82395510D02*
X119093000Y-82395510D01*
X113440000Y-82435510D02*
X119115000Y-82435510D01*
X113440000Y-82475510D02*
X119136000Y-82475510D01*
X113440000Y-82515510D02*
X119157000Y-82515510D01*
X113440000Y-82555510D02*
X119178000Y-82555510D01*
X113440000Y-82595510D02*
X119198000Y-82595510D01*
X113440000Y-82635510D02*
X119218000Y-82635510D01*
X113440000Y-82675510D02*
X119238000Y-82675510D01*
X113440000Y-82715510D02*
X119258000Y-82715510D01*
X113440000Y-82755510D02*
X119277000Y-82755510D01*
X113440000Y-82795510D02*
X119296000Y-82795510D01*
X113440000Y-82835510D02*
X119315000Y-82835510D01*
X113440000Y-82875510D02*
X119334000Y-82875510D01*
X113440000Y-82915510D02*
X119352000Y-82915510D01*
X113440000Y-82955510D02*
X119370000Y-82955510D01*
X113440000Y-82995510D02*
X119388000Y-82995510D01*
X113440000Y-83035510D02*
X119406000Y-83035510D01*
X113440000Y-83075510D02*
X119423000Y-83075510D01*
X113440000Y-83115510D02*
X119440000Y-83115510D01*
X113440000Y-83155510D02*
X119457000Y-83155510D01*
X113440000Y-83195510D02*
X119473000Y-83195510D01*
X113440000Y-83235510D02*
X119489000Y-83235510D01*
X113440000Y-83275510D02*
X119505000Y-83275510D01*
X113440000Y-83315510D02*
X119521000Y-83315510D01*
X113440000Y-83355510D02*
X119537000Y-83355510D01*
X113440000Y-83395510D02*
X119552000Y-83395510D01*
X113440000Y-83435510D02*
X119567000Y-83435510D01*
X113440000Y-83475510D02*
X119582000Y-83475510D01*
X113440000Y-83515510D02*
X119597000Y-83515510D01*
X113440000Y-83555510D02*
X119611000Y-83555510D01*
X113440000Y-83595510D02*
X119625000Y-83595510D01*
X113440000Y-83635510D02*
X119639000Y-83635510D01*
X113440000Y-83675510D02*
X119652000Y-83675510D01*
X113440000Y-83715510D02*
X119666000Y-83715510D01*
X113440000Y-83755510D02*
X119679000Y-83755510D01*
X113440000Y-83795510D02*
X119692000Y-83795510D01*
X113440000Y-83835510D02*
X119705000Y-83835510D01*
X113440000Y-83875510D02*
X119717000Y-83875510D01*
X113440000Y-83915510D02*
X119729000Y-83915510D01*
X113440000Y-83955510D02*
X119742000Y-83955510D01*
X120120000Y-86275510D02*
G75*
G02*
X103880000Y-86275510I-8120000J0D01*
G01*
X103880000Y-86275510D02*
G75*
G02*
X120120000Y-86275510I8120000J0D01*
G01*
%TO.C,C5*%
X142430000Y-74220000D02*
X142430000Y-68980000D01*
X142767000Y-74220000D02*
X142430000Y-74220000D01*
X145170000Y-74220000D02*
X144833000Y-74220000D01*
X142430000Y-68980000D02*
X142767000Y-68980000D01*
X144833000Y-68980000D02*
X145170000Y-68980000D01*
X145170000Y-68980000D02*
X145170000Y-74220000D01*
%TO.C,J1*%
X79280000Y-72800000D02*
X85720000Y-72800000D01*
X79280000Y-73390000D02*
X79280000Y-72800000D01*
X79280000Y-75930000D02*
X79280000Y-75450000D01*
X79280000Y-78470000D02*
X79280000Y-77990000D01*
X79280000Y-81120000D02*
X79280000Y-80530000D01*
X79900000Y-72800000D02*
X79900000Y-73390000D01*
X79900000Y-75450000D02*
X79900000Y-75930000D01*
X79900000Y-77990000D02*
X79900000Y-78470000D01*
X79900000Y-80530000D02*
X79900000Y-81120000D01*
X85200000Y-72800000D02*
X85200000Y-81120000D01*
X85720000Y-72800000D02*
X85720000Y-81120000D01*
X85720000Y-81120000D02*
X79280000Y-81120000D01*
X78930000Y-74420000D02*
X78320000Y-74860000D01*
X78320000Y-73980000D01*
X78930000Y-74420000D01*
G36*
X78930000Y-74420000D02*
G01*
X78320000Y-74860000D01*
X78320000Y-73980000D01*
X78930000Y-74420000D01*
G37*
%TO.C,C6*%
X142430000Y-83920000D02*
X142430000Y-78680000D01*
X142767000Y-83920000D02*
X142430000Y-83920000D01*
X145170000Y-83920000D02*
X144833000Y-83920000D01*
X142430000Y-78680000D02*
X142767000Y-78680000D01*
X144833000Y-78680000D02*
X145170000Y-78680000D01*
X145170000Y-78680000D02*
X145170000Y-83920000D01*
%TO.C,C2*%
X124920000Y-86182755D02*
X141080000Y-86182755D01*
X124920000Y-86222755D02*
X141080000Y-86222755D01*
X124920000Y-86262755D02*
X141080000Y-86262755D01*
X124921000Y-86142755D02*
X141079000Y-86142755D01*
X124922000Y-86062755D02*
X141078000Y-86062755D01*
X124922000Y-86102755D02*
X141078000Y-86102755D01*
X124924000Y-86022755D02*
X141076000Y-86022755D01*
X124925000Y-85982755D02*
X141075000Y-85982755D01*
X124926000Y-85942755D02*
X141074000Y-85942755D01*
X124928000Y-85902755D02*
X141072000Y-85902755D01*
X124930000Y-85862755D02*
X141070000Y-85862755D01*
X124932000Y-85822755D02*
X141068000Y-85822755D01*
X124934000Y-85782755D02*
X141066000Y-85782755D01*
X124937000Y-85742755D02*
X141063000Y-85742755D01*
X124939000Y-85702755D02*
X141061000Y-85702755D01*
X124942000Y-85662755D02*
X141058000Y-85662755D01*
X124945000Y-85622755D02*
X141055000Y-85622755D01*
X124949000Y-85582755D02*
X141051000Y-85582755D01*
X124952000Y-85542755D02*
X141048000Y-85542755D01*
X124956000Y-85502755D02*
X141044000Y-85502755D01*
X124960000Y-85462755D02*
X141040000Y-85462755D01*
X124964000Y-85422755D02*
X141036000Y-85422755D01*
X124968000Y-85382755D02*
X141032000Y-85382755D01*
X124972000Y-85342755D02*
X141028000Y-85342755D01*
X124977000Y-85302755D02*
X141023000Y-85302755D01*
X124982000Y-85262755D02*
X141018000Y-85262755D01*
X124987000Y-85222755D02*
X141013000Y-85222755D01*
X124992000Y-85182755D02*
X141008000Y-85182755D01*
X124998000Y-85142755D02*
X141002000Y-85142755D01*
X125003000Y-85102755D02*
X140997000Y-85102755D01*
X125009000Y-85062755D02*
X140991000Y-85062755D01*
X125015000Y-85022755D02*
X140985000Y-85022755D01*
X125022000Y-84982755D02*
X140978000Y-84982755D01*
X125028000Y-84942755D02*
X140972000Y-84942755D01*
X125035000Y-84902755D02*
X140965000Y-84902755D01*
X125042000Y-84862755D02*
X140958000Y-84862755D01*
X125049000Y-84822755D02*
X140951000Y-84822755D01*
X125056000Y-84782755D02*
X140944000Y-84782755D01*
X125064000Y-84742755D02*
X140936000Y-84742755D01*
X125071000Y-84702755D02*
X140929000Y-84702755D01*
X125079000Y-84662755D02*
X140921000Y-84662755D01*
X125087000Y-84622755D02*
X140913000Y-84622755D01*
X125096000Y-84582755D02*
X140904000Y-84582755D01*
X125104000Y-84542755D02*
X140896000Y-84542755D01*
X125113000Y-84502755D02*
X140887000Y-84502755D01*
X125122000Y-84462755D02*
X140878000Y-84462755D01*
X125131000Y-84422755D02*
X140869000Y-84422755D01*
X125141000Y-84382755D02*
X140859000Y-84382755D01*
X125150000Y-84342755D02*
X140850000Y-84342755D01*
X125160000Y-84302755D02*
X140840000Y-84302755D01*
X125170000Y-84262755D02*
X140830000Y-84262755D01*
X125180000Y-84222755D02*
X140820000Y-84222755D01*
X125191000Y-84182755D02*
X140809000Y-84182755D01*
X125202000Y-84142755D02*
X140798000Y-84142755D01*
X125213000Y-84102755D02*
X140787000Y-84102755D01*
X125224000Y-84062755D02*
X140776000Y-84062755D01*
X125235000Y-84022755D02*
X140765000Y-84022755D01*
X125247000Y-83982755D02*
X140753000Y-83982755D01*
X125258000Y-83942755D02*
X131560000Y-83942755D01*
X125271000Y-83902755D02*
X131560000Y-83902755D01*
X125283000Y-83862755D02*
X131560000Y-83862755D01*
X125295000Y-83822755D02*
X131560000Y-83822755D01*
X125308000Y-83782755D02*
X131560000Y-83782755D01*
X125321000Y-83742755D02*
X131560000Y-83742755D01*
X125334000Y-83702755D02*
X131560000Y-83702755D01*
X125348000Y-83662755D02*
X131560000Y-83662755D01*
X125361000Y-83622755D02*
X131560000Y-83622755D01*
X125375000Y-83582755D02*
X131560000Y-83582755D01*
X125389000Y-83542755D02*
X131560000Y-83542755D01*
X125403000Y-83502755D02*
X131560000Y-83502755D01*
X125418000Y-83462755D02*
X131560000Y-83462755D01*
X125433000Y-83422755D02*
X131560000Y-83422755D01*
X125448000Y-83382755D02*
X131560000Y-83382755D01*
X125463000Y-83342755D02*
X131560000Y-83342755D01*
X125479000Y-83302755D02*
X131560000Y-83302755D01*
X125495000Y-83262755D02*
X131560000Y-83262755D01*
X125511000Y-83222755D02*
X131560000Y-83222755D01*
X125527000Y-83182755D02*
X131560000Y-83182755D01*
X125543000Y-83142755D02*
X131560000Y-83142755D01*
X125560000Y-83102755D02*
X131560000Y-83102755D01*
X125577000Y-83062755D02*
X131560000Y-83062755D01*
X125594000Y-83022755D02*
X131560000Y-83022755D01*
X125612000Y-82982755D02*
X131560000Y-82982755D01*
X125630000Y-82942755D02*
X131560000Y-82942755D01*
X125648000Y-82902755D02*
X131560000Y-82902755D01*
X125666000Y-82862755D02*
X131560000Y-82862755D01*
X125685000Y-82822755D02*
X131560000Y-82822755D01*
X125704000Y-82782755D02*
X131560000Y-82782755D01*
X125723000Y-82742755D02*
X131560000Y-82742755D01*
X125742000Y-82702755D02*
X131560000Y-82702755D01*
X125762000Y-82662755D02*
X131560000Y-82662755D01*
X125782000Y-82622755D02*
X131560000Y-82622755D01*
X125802000Y-82582755D02*
X131560000Y-82582755D01*
X125822000Y-82542755D02*
X131560000Y-82542755D01*
X125843000Y-82502755D02*
X131560000Y-82502755D01*
X125864000Y-82462755D02*
X131560000Y-82462755D01*
X125885000Y-82422755D02*
X131560000Y-82422755D01*
X125907000Y-82382755D02*
X131560000Y-82382755D01*
X125929000Y-82342755D02*
X131560000Y-82342755D01*
X125951000Y-82302755D02*
X131560000Y-82302755D01*
X125974000Y-82262755D02*
X131560000Y-82262755D01*
X125996000Y-82222755D02*
X131560000Y-82222755D01*
X126019000Y-82182755D02*
X131560000Y-82182755D01*
X126043000Y-82142755D02*
X131560000Y-82142755D01*
X126067000Y-82102755D02*
X131560000Y-82102755D01*
X126091000Y-82062755D02*
X131560000Y-82062755D01*
X126115000Y-82022755D02*
X131560000Y-82022755D01*
X126140000Y-81982755D02*
X131560000Y-81982755D01*
X126165000Y-81942755D02*
X131560000Y-81942755D01*
X126190000Y-81902755D02*
X131560000Y-81902755D01*
X126215000Y-81862755D02*
X131560000Y-81862755D01*
X126241000Y-81822755D02*
X131560000Y-81822755D01*
X126268000Y-81782755D02*
X131560000Y-81782755D01*
X126294000Y-81742755D02*
X131560000Y-81742755D01*
X126321000Y-81702755D02*
X131560000Y-81702755D01*
X126349000Y-81662755D02*
X131560000Y-81662755D01*
X126376000Y-81622755D02*
X131560000Y-81622755D01*
X126404000Y-81582755D02*
X131560000Y-81582755D01*
X126433000Y-81542755D02*
X131560000Y-81542755D01*
X126461000Y-81502755D02*
X131560000Y-81502755D01*
X126491000Y-81462755D02*
X131560000Y-81462755D01*
X126520000Y-81422755D02*
X131560000Y-81422755D01*
X126550000Y-81382755D02*
X131560000Y-81382755D01*
X126580000Y-81342755D02*
X131560000Y-81342755D01*
X126611000Y-81302755D02*
X131560000Y-81302755D01*
X126642000Y-81262755D02*
X131560000Y-81262755D01*
X126673000Y-81222755D02*
X131560000Y-81222755D01*
X126705000Y-81182755D02*
X131560000Y-81182755D01*
X126738000Y-81142755D02*
X131560000Y-81142755D01*
X126770000Y-81102755D02*
X131560000Y-81102755D01*
X126803000Y-81062755D02*
X139197000Y-81062755D01*
X126837000Y-81022755D02*
X139163000Y-81022755D01*
X126871000Y-80982755D02*
X139129000Y-80982755D01*
X126906000Y-80942755D02*
X139094000Y-80942755D01*
X126940000Y-80902755D02*
X139060000Y-80902755D01*
X126976000Y-80862755D02*
X139024000Y-80862755D01*
X127012000Y-80822755D02*
X138988000Y-80822755D01*
X127048000Y-80782755D02*
X138952000Y-80782755D01*
X127085000Y-80742755D02*
X138915000Y-80742755D01*
X127122000Y-80702755D02*
X138878000Y-80702755D01*
X127160000Y-80662755D02*
X138840000Y-80662755D01*
X127198000Y-80622755D02*
X138802000Y-80622755D01*
X127237000Y-80582755D02*
X138763000Y-80582755D01*
X127277000Y-80542755D02*
X138723000Y-80542755D01*
X127317000Y-80502755D02*
X138683000Y-80502755D01*
X127357000Y-80462755D02*
X138643000Y-80462755D01*
X127398000Y-80422755D02*
X138602000Y-80422755D01*
X127440000Y-80382755D02*
X138560000Y-80382755D01*
X127482000Y-80342755D02*
X138518000Y-80342755D01*
X127525000Y-80302755D02*
X138475000Y-80302755D01*
X127569000Y-80262755D02*
X138431000Y-80262755D01*
X127613000Y-80222755D02*
X138387000Y-80222755D01*
X127645000Y-94152246D02*
X129245000Y-94152246D01*
X127658000Y-80182755D02*
X138342000Y-80182755D01*
X127703000Y-80142755D02*
X138297000Y-80142755D01*
X127750000Y-80102755D02*
X138250000Y-80102755D01*
X127796000Y-80062755D02*
X138204000Y-80062755D01*
X127844000Y-80022755D02*
X138156000Y-80022755D01*
X127893000Y-79982755D02*
X138107000Y-79982755D01*
X127942000Y-79942755D02*
X138058000Y-79942755D01*
X127992000Y-79902755D02*
X138008000Y-79902755D01*
X128043000Y-79862755D02*
X137957000Y-79862755D01*
X128094000Y-79822755D02*
X137906000Y-79822755D01*
X128147000Y-79782755D02*
X137853000Y-79782755D01*
X128200000Y-79742755D02*
X137800000Y-79742755D01*
X128255000Y-79702755D02*
X137745000Y-79702755D01*
X128310000Y-79662755D02*
X137690000Y-79662755D01*
X128366000Y-79622755D02*
X137634000Y-79622755D01*
X128424000Y-79582755D02*
X137576000Y-79582755D01*
X128445000Y-94952246D02*
X128445000Y-93352246D01*
X128482000Y-79542755D02*
X137518000Y-79542755D01*
X128541000Y-79502755D02*
X137459000Y-79502755D01*
X128602000Y-79462755D02*
X137398000Y-79462755D01*
X128664000Y-79422755D02*
X137336000Y-79422755D01*
X128727000Y-79382755D02*
X137273000Y-79382755D01*
X128792000Y-79342755D02*
X137208000Y-79342755D01*
X128858000Y-79302755D02*
X137142000Y-79302755D01*
X128925000Y-79262755D02*
X137075000Y-79262755D01*
X128994000Y-79222755D02*
X137006000Y-79222755D01*
X129064000Y-79182755D02*
X136936000Y-79182755D01*
X129136000Y-79142755D02*
X136864000Y-79142755D01*
X129210000Y-79102755D02*
X136790000Y-79102755D01*
X129286000Y-79062755D02*
X136714000Y-79062755D01*
X129363000Y-79022755D02*
X136637000Y-79022755D01*
X129443000Y-78982755D02*
X136557000Y-78982755D01*
X129525000Y-78942755D02*
X136475000Y-78942755D01*
X129610000Y-78902755D02*
X136390000Y-78902755D01*
X129697000Y-78862755D02*
X136303000Y-78862755D01*
X129787000Y-78822755D02*
X136213000Y-78822755D01*
X129880000Y-78782755D02*
X136120000Y-78782755D01*
X129977000Y-78742755D02*
X136023000Y-78742755D01*
X130077000Y-78702755D02*
X135923000Y-78702755D01*
X130181000Y-78662755D02*
X135819000Y-78662755D01*
X130290000Y-78622755D02*
X135710000Y-78622755D01*
X130403000Y-78582755D02*
X135597000Y-78582755D01*
X130523000Y-78542755D02*
X135477000Y-78542755D01*
X130649000Y-78502755D02*
X135351000Y-78502755D01*
X130783000Y-78462755D02*
X135217000Y-78462755D01*
X130926000Y-78422755D02*
X135074000Y-78422755D01*
X131080000Y-78382755D02*
X134920000Y-78382755D01*
X131249000Y-78342755D02*
X134751000Y-78342755D01*
X131436000Y-78302755D02*
X134564000Y-78302755D01*
X131649000Y-78262755D02*
X134351000Y-78262755D01*
X131903000Y-78222755D02*
X134097000Y-78222755D01*
X132235000Y-78182755D02*
X133765000Y-78182755D01*
X134440000Y-81102755D02*
X139230000Y-81102755D01*
X134440000Y-81142755D02*
X139262000Y-81142755D01*
X134440000Y-81182755D02*
X139295000Y-81182755D01*
X134440000Y-81222755D02*
X139327000Y-81222755D01*
X134440000Y-81262755D02*
X139358000Y-81262755D01*
X134440000Y-81302755D02*
X139389000Y-81302755D01*
X134440000Y-81342755D02*
X139420000Y-81342755D01*
X134440000Y-81382755D02*
X139450000Y-81382755D01*
X134440000Y-81422755D02*
X139480000Y-81422755D01*
X134440000Y-81462755D02*
X139509000Y-81462755D01*
X134440000Y-81502755D02*
X139539000Y-81502755D01*
X134440000Y-81542755D02*
X139567000Y-81542755D01*
X134440000Y-81582755D02*
X139596000Y-81582755D01*
X134440000Y-81622755D02*
X139624000Y-81622755D01*
X134440000Y-81662755D02*
X139651000Y-81662755D01*
X134440000Y-81702755D02*
X139679000Y-81702755D01*
X134440000Y-81742755D02*
X139706000Y-81742755D01*
X134440000Y-81782755D02*
X139732000Y-81782755D01*
X134440000Y-81822755D02*
X139759000Y-81822755D01*
X134440000Y-81862755D02*
X139785000Y-81862755D01*
X134440000Y-81902755D02*
X139810000Y-81902755D01*
X134440000Y-81942755D02*
X139835000Y-81942755D01*
X134440000Y-81982755D02*
X139860000Y-81982755D01*
X134440000Y-82022755D02*
X139885000Y-82022755D01*
X134440000Y-82062755D02*
X139909000Y-82062755D01*
X134440000Y-82102755D02*
X139933000Y-82102755D01*
X134440000Y-82142755D02*
X139957000Y-82142755D01*
X134440000Y-82182755D02*
X139981000Y-82182755D01*
X134440000Y-82222755D02*
X140004000Y-82222755D01*
X134440000Y-82262755D02*
X140026000Y-82262755D01*
X134440000Y-82302755D02*
X140049000Y-82302755D01*
X134440000Y-82342755D02*
X140071000Y-82342755D01*
X134440000Y-82382755D02*
X140093000Y-82382755D01*
X134440000Y-82422755D02*
X140115000Y-82422755D01*
X134440000Y-82462755D02*
X140136000Y-82462755D01*
X134440000Y-82502755D02*
X140157000Y-82502755D01*
X134440000Y-82542755D02*
X140178000Y-82542755D01*
X134440000Y-82582755D02*
X140198000Y-82582755D01*
X134440000Y-82622755D02*
X140218000Y-82622755D01*
X134440000Y-82662755D02*
X140238000Y-82662755D01*
X134440000Y-82702755D02*
X140258000Y-82702755D01*
X134440000Y-82742755D02*
X140277000Y-82742755D01*
X134440000Y-82782755D02*
X140296000Y-82782755D01*
X134440000Y-82822755D02*
X140315000Y-82822755D01*
X134440000Y-82862755D02*
X140334000Y-82862755D01*
X134440000Y-82902755D02*
X140352000Y-82902755D01*
X134440000Y-82942755D02*
X140370000Y-82942755D01*
X134440000Y-82982755D02*
X140388000Y-82982755D01*
X134440000Y-83022755D02*
X140406000Y-83022755D01*
X134440000Y-83062755D02*
X140423000Y-83062755D01*
X134440000Y-83102755D02*
X140440000Y-83102755D01*
X134440000Y-83142755D02*
X140457000Y-83142755D01*
X134440000Y-83182755D02*
X140473000Y-83182755D01*
X134440000Y-83222755D02*
X140489000Y-83222755D01*
X134440000Y-83262755D02*
X140505000Y-83262755D01*
X134440000Y-83302755D02*
X140521000Y-83302755D01*
X134440000Y-83342755D02*
X140537000Y-83342755D01*
X134440000Y-83382755D02*
X140552000Y-83382755D01*
X134440000Y-83422755D02*
X140567000Y-83422755D01*
X134440000Y-83462755D02*
X140582000Y-83462755D01*
X134440000Y-83502755D02*
X140597000Y-83502755D01*
X134440000Y-83542755D02*
X140611000Y-83542755D01*
X134440000Y-83582755D02*
X140625000Y-83582755D01*
X134440000Y-83622755D02*
X140639000Y-83622755D01*
X134440000Y-83662755D02*
X140652000Y-83662755D01*
X134440000Y-83702755D02*
X140666000Y-83702755D01*
X134440000Y-83742755D02*
X140679000Y-83742755D01*
X134440000Y-83782755D02*
X140692000Y-83782755D01*
X134440000Y-83822755D02*
X140705000Y-83822755D01*
X134440000Y-83862755D02*
X140717000Y-83862755D01*
X134440000Y-83902755D02*
X140729000Y-83902755D01*
X134440000Y-83942755D02*
X140742000Y-83942755D01*
X141120000Y-86262755D02*
G75*
G02*
X124880000Y-86262755I-8120000J0D01*
G01*
X124880000Y-86262755D02*
G75*
G02*
X141120000Y-86262755I8120000J0D01*
G01*
%TO.C,D2*%
X98000000Y-82260000D02*
X98000000Y-83280000D01*
X98000000Y-89740000D02*
X98000000Y-88720000D01*
X99470000Y-84060000D02*
X96530000Y-84060000D01*
X99470000Y-84180000D02*
X96530000Y-84180000D01*
X99470000Y-84300000D02*
X96530000Y-84300000D01*
X99470000Y-83280000D02*
X96530000Y-83280000D01*
X96530000Y-88720000D01*
X99470000Y-88720000D01*
X99470000Y-83280000D01*
%TO.C,D1*%
X88000000Y-82180000D02*
X88000000Y-83200000D01*
X88000000Y-89660000D02*
X88000000Y-88640000D01*
X89470000Y-83980000D02*
X86530000Y-83980000D01*
X89470000Y-84100000D02*
X86530000Y-84100000D01*
X89470000Y-84220000D02*
X86530000Y-84220000D01*
X89470000Y-83200000D02*
X86530000Y-83200000D01*
X86530000Y-88640000D01*
X89470000Y-88640000D01*
X89470000Y-83200000D01*
%TD*%
M02*
