M48
; DRILL file {KiCad 9.0.7} date 2026-03-01T16:33:13-0500
; FORMAT={-:-/ absolute / metric / decimal}
; #@! TF.CreationDate,2026-03-01T16:33:13-05:00
; #@! TF.GenerationSoftware,Kicad,Pcbnew,9.0.7
; #@! TF.FileFunction,Plated,1,2,PTH
FMAT,2
METRIC
; #@! TA.AperFunction,Plated,PTH,ComponentDrill
T1C0.600
; #@! TA.AperFunction,Plated,PTH,ComponentDrill
T2C0.700
; #@! TA.AperFunction,Plated,PTH,ComponentDrill
T3C0.750
; #@! TA.AperFunction,Plated,PTH,ComponentDrill
T4C0.800
; #@! TA.AperFunction,Plated,PTH,ComponentDrill
T5C0.900
; #@! TA.AperFunction,Plated,PTH,ComponentDrill
T6C1.000
; #@! TA.AperFunction,Plated,PTH,ComponentDrill
T7C1.100
%
G90
G05
T1
X58.444Y-50.546
X58.444Y-90.043
X59.944Y-50.546
X59.944Y-90.043
X60.476Y-66.929
X60.476Y-72.898
X61.976Y-66.929
X61.976Y-72.898
X76.859Y-51.435
X76.859Y-90.551
X78.359Y-51.435
X78.359Y-90.551
X89.813Y-76.962
X90.082Y-64.77
X91.313Y-76.962
X91.582Y-64.77
T2
X64.262Y-49.403
X64.262Y-52.451
X64.262Y-88.646
X64.262Y-91.567
X71.882Y-49.403
X71.882Y-52.451
X71.882Y-88.646
X71.882Y-91.567
X82.931Y-88.392
X83.312Y-72.517
X90.551Y-88.392
X90.932Y-72.517
T3
X97.282Y-57.69
X97.282Y-59.69
X97.282Y-69.215
X97.282Y-71.215
X97.282Y-79.248
X97.282Y-81.248
X97.282Y-83.248
T4
X65.659Y-63.794
X65.659Y-68.794
X65.786Y-72.176
X65.786Y-77.176
T5
X55.245Y-55.626
X55.245Y-63.246
X55.372Y-76.708
X55.372Y-84.328
T6
X83.856Y-51.416
X83.856Y-53.956
X83.856Y-56.496
T7
X49.657Y-67.437
X49.657Y-69.977
X49.657Y-72.517
X68.707Y-59.817
X68.707Y-62.357
X68.707Y-64.897
X68.707Y-76.2
X68.707Y-78.74
X68.707Y-81.28
X82.804Y-78.359
X82.804Y-80.899
X82.804Y-83.439
M30
