%TF.GenerationSoftware,KiCad,Pcbnew,9.0.7*%
%TF.CreationDate,2026-03-01T16:33:09-05:00*%
%TF.ProjectId,regulator,72656775-6c61-4746-9f72-2e6b69636164,rev?*%
%TF.SameCoordinates,Original*%
%TF.FileFunction,Copper,L2,Bot*%
%TF.FilePolarity,Positive*%
%FSLAX46Y46*%
G04 Gerber Fmt 4.6, Leading zero omitted, Abs format (unit mm)*
G04 Created by KiCad (PCBNEW 9.0.7) date 2026-03-01 16:33:09*
%MOMM*%
%LPD*%
G01*
G04 APERTURE LIST*
G04 Aperture macros list*
%AMRoundRect*
0 Rectangle with rounded corners*
0 $1 Rounding radius*
0 $2 $3 $4 $5 $6 $7 $8 $9 X,Y pos of 4 corners*
0 Add a 4 corners polygon primitive as box body*
4,1,4,$2,$3,$4,$5,$6,$7,$8,$9,$2,$3,0*
0 Add four circle primitives for the rounded corners*
1,1,$1+$1,$2,$3*
1,1,$1+$1,$4,$5*
1,1,$1+$1,$6,$7*
1,1,$1+$1,$8,$9*
0 Add four rect primitives between the rounded corners*
20,1,$1+$1,$2,$3,$4,$5,0*
20,1,$1+$1,$4,$5,$6,$7,0*
20,1,$1+$1,$6,$7,$8,$9,0*
20,1,$1+$1,$8,$9,$2,$3,0*%
G04 Aperture macros list end*
%TA.AperFunction,ComponentPad*%
%ADD10C,1.600000*%
%TD*%
%TA.AperFunction,ComponentPad*%
%ADD11RoundRect,0.250000X-0.625000X0.350000X-0.625000X-0.350000X0.625000X-0.350000X0.625000X0.350000X0*%
%TD*%
%TA.AperFunction,ComponentPad*%
%ADD12O,1.750000X1.200000*%
%TD*%
%TA.AperFunction,ComponentPad*%
%ADD13C,1.400000*%
%TD*%
%TA.AperFunction,ComponentPad*%
%ADD14RoundRect,0.250000X-0.350000X-0.350000X0.350000X-0.350000X0.350000X0.350000X-0.350000X0.350000X0*%
%TD*%
%TA.AperFunction,ComponentPad*%
%ADD15C,1.200000*%
%TD*%
%TA.AperFunction,ComponentPad*%
%ADD16R,2.300000X1.500000*%
%TD*%
%TA.AperFunction,ComponentPad*%
%ADD17O,2.300000X1.500000*%
%TD*%
%TA.AperFunction,ComponentPad*%
%ADD18R,2.000000X1.905000*%
%TD*%
%TA.AperFunction,ComponentPad*%
%ADD19O,2.000000X1.905000*%
%TD*%
%TA.AperFunction,ComponentPad*%
%ADD20C,1.800000*%
%TD*%
%TA.AperFunction,ComponentPad*%
%ADD21RoundRect,0.249999X-0.850001X0.850001X-0.850001X-0.850001X0.850001X-0.850001X0.850001X0.850001X0*%
%TD*%
%TA.AperFunction,ComponentPad*%
%ADD22C,2.200000*%
%TD*%
%TA.AperFunction,Conductor*%
%ADD23C,1.000000*%
%TD*%
G04 APERTURE END LIST*
D10*
%TO.P,C10,2*%
%TO.N,Net-(U4-VI)*%
X65786000Y-77176000D03*
%TO.P,C10,1*%
%TO.N,GND*%
X65786000Y-72176000D03*
%TD*%
%TO.P,C9,2*%
%TO.N,GND*%
X65659000Y-68794000D03*
%TO.P,C9,1*%
%TO.N,Net-(U3-VI)*%
X65659000Y-63794000D03*
%TD*%
D11*
%TO.P,J1,1,Pin_1*%
%TO.N,GND*%
X97282000Y-69215000D03*
D12*
%TO.P,J1,2,Pin_2*%
%TO.N,Net-(J1-Pin_2)*%
X97282000Y-71215000D03*
%TD*%
D13*
%TO.P,R5,1*%
%TO.N,GND*%
X64262000Y-88646000D03*
%TO.P,R5,2*%
%TO.N,Net-(U4-ADJ)*%
X71882000Y-88646000D03*
%TD*%
%TO.P,R6,1*%
%TO.N,Net-(U4-ADJ)*%
X64262000Y-91567000D03*
%TO.P,R6,2*%
%TO.N,-15V*%
X71882000Y-91567000D03*
%TD*%
%TO.P,R2,1*%
%TO.N,Net-(U1-ADJ)*%
X82931000Y-88392000D03*
%TO.P,R2,2*%
%TO.N,GND*%
X90551000Y-88392000D03*
%TD*%
D14*
%TO.P,C4,1*%
%TO.N,GND*%
X58444000Y-90043000D03*
D15*
%TO.P,C4,2*%
%TO.N,Net-(U4-VI)*%
X59944000Y-90043000D03*
%TD*%
D14*
%TO.P,C6,1*%
%TO.N,GND*%
X60476000Y-72898000D03*
D15*
%TO.P,C6,2*%
%TO.N,Net-(J4-Pin_3)*%
X61976000Y-72898000D03*
%TD*%
D16*
%TO.P,U2,1,IN*%
%TO.N,+15V*%
X83856500Y-51416500D03*
D17*
%TO.P,U2,2,GND*%
%TO.N,GND*%
X83856500Y-53956500D03*
%TO.P,U2,3,OUT*%
%TO.N,Net-(J3-Pin_2)*%
X83856500Y-56496500D03*
%TD*%
D14*
%TO.P,C3,1*%
%TO.N,Net-(U3-VI)*%
X58444000Y-50546000D03*
D15*
%TO.P,C3,2*%
%TO.N,GND*%
X59944000Y-50546000D03*
%TD*%
D18*
%TO.P,U3,1,ADJ*%
%TO.N,Net-(U3-ADJ)*%
X68707000Y-59817000D03*
D19*
%TO.P,U3,2,VO*%
%TO.N,+15V*%
X68707000Y-62357000D03*
%TO.P,U3,3,VI*%
%TO.N,Net-(U3-VI)*%
X68707000Y-64897000D03*
%TD*%
D13*
%TO.P,R3,1*%
%TO.N,+15V*%
X71882000Y-49403000D03*
%TO.P,R3,2*%
%TO.N,Net-(U3-ADJ)*%
X64262000Y-49403000D03*
%TD*%
D20*
%TO.P,L1,1,1*%
%TO.N,Net-(J4-Pin_3)*%
X55372000Y-76708000D03*
%TO.P,L1,2,2*%
%TO.N,Net-(U4-VI)*%
X55372000Y-84328000D03*
%TD*%
D11*
%TO.P,J2,1,Pin_1*%
%TO.N,+15V*%
X97282000Y-79248000D03*
D12*
%TO.P,J2,2,Pin_2*%
%TO.N,GND*%
X97282000Y-81248000D03*
%TO.P,J2,3,Pin_3*%
%TO.N,-15V*%
X97282000Y-83248000D03*
%TD*%
D14*
%TO.P,C1,1*%
%TO.N,Net-(J1-Pin_2)*%
X89813000Y-76962000D03*
D15*
%TO.P,C1,2*%
%TO.N,GND*%
X91313000Y-76962000D03*
%TD*%
D14*
%TO.P,C7,1*%
%TO.N,+15V*%
X76859000Y-51435000D03*
D15*
%TO.P,C7,2*%
%TO.N,GND*%
X78359000Y-51435000D03*
%TD*%
D11*
%TO.P,J3,1,Pin_1*%
%TO.N,GND*%
X97282000Y-57690000D03*
D12*
%TO.P,J3,2,Pin_2*%
%TO.N,Net-(J3-Pin_2)*%
X97282000Y-59690000D03*
%TD*%
D14*
%TO.P,C8,1*%
%TO.N,GND*%
X76859000Y-90551000D03*
D15*
%TO.P,C8,2*%
%TO.N,-15V*%
X78359000Y-90551000D03*
%TD*%
D20*
%TO.P,L2,1,1*%
%TO.N,Net-(J4-Pin_1)*%
X55245000Y-63246000D03*
%TO.P,L2,2,2*%
%TO.N,Net-(U3-VI)*%
X55245000Y-55626000D03*
%TD*%
D18*
%TO.P,U1,1,ADJ*%
%TO.N,Net-(U1-ADJ)*%
X82804000Y-78359000D03*
D19*
%TO.P,U1,2,VO*%
%TO.N,Net-(J1-Pin_2)*%
X82804000Y-80899000D03*
%TO.P,U1,3,VI*%
%TO.N,+15V*%
X82804000Y-83439000D03*
%TD*%
D13*
%TO.P,R4,1*%
%TO.N,Net-(U3-ADJ)*%
X71882000Y-52451000D03*
%TO.P,R4,2*%
%TO.N,GND*%
X64262000Y-52451000D03*
%TD*%
D18*
%TO.P,U4,1,ADJ*%
%TO.N,Net-(U4-ADJ)*%
X68707000Y-76200000D03*
D19*
%TO.P,U4,2,VI*%
%TO.N,Net-(U4-VI)*%
X68707000Y-78740000D03*
%TO.P,U4,3,VO*%
%TO.N,-15V*%
X68707000Y-81280000D03*
%TD*%
D13*
%TO.P,R1,1*%
%TO.N,Net-(J1-Pin_2)*%
X90932000Y-72517000D03*
%TO.P,R1,2*%
%TO.N,Net-(U1-ADJ)*%
X83312000Y-72517000D03*
%TD*%
D21*
%TO.P,J4,1,Pin_1*%
%TO.N,Net-(J4-Pin_1)*%
X49657000Y-67437000D03*
D22*
%TO.P,J4,2,Pin_2*%
%TO.N,GND*%
X49657000Y-69977000D03*
%TO.P,J4,3,Pin_3*%
%TO.N,Net-(J4-Pin_3)*%
X49657000Y-72517000D03*
%TD*%
D14*
%TO.P,C2,1*%
%TO.N,Net-(J3-Pin_2)*%
X90082401Y-64770000D03*
D15*
%TO.P,C2,2*%
%TO.N,GND*%
X91582401Y-64770000D03*
%TD*%
D14*
%TO.P,C5,1*%
%TO.N,Net-(J4-Pin_1)*%
X60476000Y-66929000D03*
D15*
%TO.P,C5,2*%
%TO.N,GND*%
X61976000Y-66929000D03*
%TD*%
D23*
%TO.N,Net-(U1-ADJ)*%
X82931000Y-88392000D02*
X81103000Y-86564000D01*
X81103000Y-80060000D02*
X82804000Y-78359000D01*
X81103000Y-86564000D02*
X81103000Y-80060000D01*
%TO.N,Net-(U4-ADJ)*%
X64262000Y-91567000D02*
X68961000Y-91567000D01*
X68961000Y-91567000D02*
X71882000Y-88646000D01*
%TD*%
%TA.AperFunction,Conductor*%
%TO.N,GND*%
G36*
X100407539Y-47256185D02*
G01*
X100453294Y-47308989D01*
X100464500Y-47360500D01*
X100464500Y-93355500D01*
X100444815Y-93422539D01*
X100392011Y-93468294D01*
X100340500Y-93479500D01*
X45074500Y-93479500D01*
X45007461Y-93459815D01*
X44961706Y-93407011D01*
X44950500Y-93355500D01*
X44950500Y-90302711D01*
X46155500Y-90302711D01*
X46155500Y-90545288D01*
X46187161Y-90785785D01*
X46249947Y-91020104D01*
X46326889Y-91205858D01*
X46342776Y-91244212D01*
X46464064Y-91454289D01*
X46464066Y-91454292D01*
X46464067Y-91454293D01*
X46611733Y-91646736D01*
X46611739Y-91646743D01*
X46783256Y-91818260D01*
X46783262Y-91818265D01*
X46975711Y-91965936D01*
X47185788Y-92087224D01*
X47409900Y-92180054D01*
X47644211Y-92242838D01*
X47824586Y-92266584D01*
X47884711Y-92274500D01*
X47884712Y-92274500D01*
X48127289Y-92274500D01*
X48175388Y-92268167D01*
X48367789Y-92242838D01*
X48602100Y-92180054D01*
X48826212Y-92087224D01*
X49036289Y-91965936D01*
X49228738Y-91818265D01*
X49400265Y-91646738D01*
X49533952Y-91472513D01*
X63061500Y-91472513D01*
X63061500Y-91661486D01*
X63091059Y-91848118D01*
X63149454Y-92027836D01*
X63227013Y-92180052D01*
X63235240Y-92196199D01*
X63346310Y-92349073D01*
X63479927Y-92482690D01*
X63632801Y-92593760D01*
X63712347Y-92634290D01*
X63801163Y-92679545D01*
X63801165Y-92679545D01*
X63801168Y-92679547D01*
X63897497Y-92710846D01*
X63980881Y-92737940D01*
X64167514Y-92767500D01*
X64167519Y-92767500D01*
X64356486Y-92767500D01*
X64543118Y-92737940D01*
X64722832Y-92679547D01*
X64891199Y-92593760D01*
X64894746Y-92591183D01*
X64960552Y-92567702D01*
X64967633Y-92567500D01*
X69059542Y-92567500D01*
X69090566Y-92561328D01*
X69156188Y-92548275D01*
X69252836Y-92529051D01*
X69306165Y-92506961D01*
X69434914Y-92453632D01*
X69598782Y-92344139D01*
X69738139Y-92204782D01*
X69738140Y-92204779D01*
X69745206Y-92197714D01*
X69745209Y-92197710D01*
X70469819Y-91473100D01*
X70531142Y-91439615D01*
X70600834Y-91444599D01*
X70656767Y-91486471D01*
X70681184Y-91551935D01*
X70681500Y-91560781D01*
X70681500Y-91661486D01*
X70711059Y-91848118D01*
X70769454Y-92027836D01*
X70847013Y-92180052D01*
X70855240Y-92196199D01*
X70966310Y-92349073D01*
X71099927Y-92482690D01*
X71252801Y-92593760D01*
X71332347Y-92634290D01*
X71421163Y-92679545D01*
X71421165Y-92679545D01*
X71421168Y-92679547D01*
X71517497Y-92710846D01*
X71600881Y-92737940D01*
X71787514Y-92767500D01*
X71787519Y-92767500D01*
X71976486Y-92767500D01*
X72163118Y-92737940D01*
X72342832Y-92679547D01*
X72511199Y-92593760D01*
X72664073Y-92482690D01*
X72797690Y-92349073D01*
X72908760Y-92196199D01*
X72994547Y-92027832D01*
X73052940Y-91848118D01*
X73057669Y-91818260D01*
X73082500Y-91661486D01*
X73082500Y-91472513D01*
X73052940Y-91285881D01*
X72994545Y-91106163D01*
X72933876Y-90987095D01*
X72915478Y-90950986D01*
X75759001Y-90950986D01*
X75769494Y-91053697D01*
X75824641Y-91220119D01*
X75824643Y-91220124D01*
X75916684Y-91369345D01*
X76040654Y-91493315D01*
X76189875Y-91585356D01*
X76189880Y-91585358D01*
X76356302Y-91640505D01*
X76356309Y-91640506D01*
X76459019Y-91650999D01*
X76608999Y-91650999D01*
X76609000Y-91650998D01*
X76609000Y-90801000D01*
X75759001Y-90801000D01*
X75759001Y-90950986D01*
X72915478Y-90950986D01*
X72908760Y-90937801D01*
X72797690Y-90784927D01*
X72664073Y-90651310D01*
X72511199Y-90540240D01*
X72491457Y-90530181D01*
X72454802Y-90511504D01*
X76559000Y-90511504D01*
X76559000Y-90590496D01*
X76579444Y-90666796D01*
X76618940Y-90735205D01*
X76674795Y-90791060D01*
X76743204Y-90830556D01*
X76819504Y-90851000D01*
X76898496Y-90851000D01*
X76974796Y-90830556D01*
X77043205Y-90791060D01*
X77099060Y-90735205D01*
X77109000Y-90717988D01*
X77109000Y-91650999D01*
X77258972Y-91650999D01*
X77258986Y-91650998D01*
X77361697Y-91640505D01*
X77528119Y-91585358D01*
X77528130Y-91585353D01*
X77666441Y-91500042D01*
X77733833Y-91481601D01*
X77787829Y-91495094D01*
X77936555Y-91570873D01*
X78101299Y-91624402D01*
X78272389Y-91651500D01*
X78272390Y-91651500D01*
X78445610Y-91651500D01*
X78445611Y-91651500D01*
X78616701Y-91624402D01*
X78781445Y-91570873D01*
X78935788Y-91492232D01*
X79075928Y-91390414D01*
X79198414Y-91267928D01*
X79300232Y-91127788D01*
X79378873Y-90973445D01*
X79432402Y-90808701D01*
X79459500Y-90637611D01*
X79459500Y-90464389D01*
X79433893Y-90302711D01*
X95558500Y-90302711D01*
X95558500Y-90545288D01*
X95590161Y-90785785D01*
X95652947Y-91020104D01*
X95729889Y-91205858D01*
X95745776Y-91244212D01*
X95867064Y-91454289D01*
X95867066Y-91454292D01*
X95867067Y-91454293D01*
X96014733Y-91646736D01*
X96014739Y-91646743D01*
X96186256Y-91818260D01*
X96186262Y-91818265D01*
X96378711Y-91965936D01*
X96588788Y-92087224D01*
X96812900Y-92180054D01*
X97047211Y-92242838D01*
X97227586Y-92266584D01*
X97287711Y-92274500D01*
X97287712Y-92274500D01*
X97530289Y-92274500D01*
X97578388Y-92268167D01*
X97770789Y-92242838D01*
X98005100Y-92180054D01*
X98229212Y-92087224D01*
X98439289Y-91965936D01*
X98631738Y-91818265D01*
X98803265Y-91646738D01*
X98950936Y-91454289D01*
X99072224Y-91244212D01*
X99165054Y-91020100D01*
X99227838Y-90785789D01*
X99259500Y-90545288D01*
X99259500Y-90302712D01*
X99258221Y-90293000D01*
X99246598Y-90204709D01*
X99227838Y-90062211D01*
X99165054Y-89827900D01*
X99072224Y-89603788D01*
X98950936Y-89393711D01*
X98803265Y-89201262D01*
X98803260Y-89201256D01*
X98631743Y-89029739D01*
X98631736Y-89029733D01*
X98439293Y-88882067D01*
X98439292Y-88882066D01*
X98439289Y-88882064D01*
X98229212Y-88760776D01*
X98183883Y-88742000D01*
X98005104Y-88667947D01*
X97770785Y-88605161D01*
X97530289Y-88573500D01*
X97530288Y-88573500D01*
X97287712Y-88573500D01*
X97287711Y-88573500D01*
X97047214Y-88605161D01*
X96812895Y-88667947D01*
X96588794Y-88760773D01*
X96588785Y-88760777D01*
X96378706Y-88882067D01*
X96186263Y-89029733D01*
X96186256Y-89029739D01*
X96014739Y-89201256D01*
X96014733Y-89201263D01*
X95867067Y-89393706D01*
X95745777Y-89603785D01*
X95745773Y-89603794D01*
X95652947Y-89827895D01*
X95590161Y-90062214D01*
X95558500Y-90302711D01*
X79433893Y-90302711D01*
X79432402Y-90293299D01*
X79378873Y-90128555D01*
X79300232Y-89974212D01*
X79198414Y-89834072D01*
X79075928Y-89711586D01*
X78935788Y-89609768D01*
X78781445Y-89531127D01*
X78616701Y-89477598D01*
X78616699Y-89477597D01*
X78616698Y-89477597D01*
X78485271Y-89456781D01*
X78445611Y-89450500D01*
X78272389Y-89450500D01*
X78232728Y-89456781D01*
X78101302Y-89477597D01*
X77936552Y-89531128D01*
X77787833Y-89606904D01*
X77719163Y-89619800D01*
X77666441Y-89601958D01*
X77528124Y-89516643D01*
X77528119Y-89516641D01*
X77361697Y-89461494D01*
X77361690Y-89461493D01*
X77258986Y-89451000D01*
X77109000Y-89451000D01*
X77109000Y-90384011D01*
X77099060Y-90366795D01*
X77043205Y-90310940D01*
X76974796Y-90271444D01*
X76898496Y-90251000D01*
X76819504Y-90251000D01*
X76743204Y-90271444D01*
X76674795Y-90310940D01*
X76618940Y-90366795D01*
X76579444Y-90435204D01*
X76559000Y-90511504D01*
X72454802Y-90511504D01*
X72342836Y-90454454D01*
X72163118Y-90396059D01*
X71976486Y-90366500D01*
X71976481Y-90366500D01*
X71875781Y-90366500D01*
X71854535Y-90360261D01*
X71832447Y-90358682D01*
X71821663Y-90350609D01*
X71808742Y-90346815D01*
X71794242Y-90330081D01*
X71776514Y-90316810D01*
X71771806Y-90304189D01*
X71762987Y-90294011D01*
X71759835Y-90272093D01*
X71752097Y-90251346D01*
X71754959Y-90238185D01*
X71753043Y-90224853D01*
X71762242Y-90204709D01*
X71766949Y-90183073D01*
X71780217Y-90165347D01*
X71782068Y-90161297D01*
X71788100Y-90154819D01*
X71791906Y-90151013D01*
X75759000Y-90151013D01*
X75759000Y-90301000D01*
X76609000Y-90301000D01*
X76609000Y-89451000D01*
X76459027Y-89451000D01*
X76459012Y-89451001D01*
X76356302Y-89461494D01*
X76189880Y-89516641D01*
X76189875Y-89516643D01*
X76040654Y-89608684D01*
X75916684Y-89732654D01*
X75824643Y-89881875D01*
X75824641Y-89881880D01*
X75769494Y-90048302D01*
X75769493Y-90048309D01*
X75759000Y-90151013D01*
X71791906Y-90151013D01*
X71882736Y-90060183D01*
X71986530Y-89956389D01*
X72090501Y-89852417D01*
X72151822Y-89818934D01*
X72158776Y-89817627D01*
X72163118Y-89816940D01*
X72342832Y-89758547D01*
X72511199Y-89672760D01*
X72664073Y-89561690D01*
X72797690Y-89428073D01*
X72908760Y-89275199D01*
X72994547Y-89106832D01*
X73052940Y-88927118D01*
X73064705Y-88852836D01*
X73082500Y-88740486D01*
X73082500Y-88551513D01*
X73052940Y-88364881D01*
X72994545Y-88185163D01*
X72949290Y-88096347D01*
X72908760Y-88016801D01*
X72797690Y-87863927D01*
X72664073Y-87730310D01*
X72511199Y-87619240D01*
X72492915Y-87609924D01*
X72342836Y-87533454D01*
X72163118Y-87475059D01*
X71976486Y-87445500D01*
X71976481Y-87445500D01*
X71787519Y-87445500D01*
X71787514Y-87445500D01*
X71600881Y-87475059D01*
X71421163Y-87533454D01*
X71252800Y-87619240D01*
X71165579Y-87682610D01*
X71099927Y-87730310D01*
X71099925Y-87730312D01*
X71099924Y-87730312D01*
X70966312Y-87863924D01*
X70966312Y-87863925D01*
X70966310Y-87863927D01*
X70918610Y-87929579D01*
X70855240Y-88016800D01*
X70769454Y-88185165D01*
X70711059Y-88364884D01*
X70710372Y-88369223D01*
X70680437Y-88432356D01*
X70675581Y-88437497D01*
X68582899Y-90530181D01*
X68521576Y-90563666D01*
X68495218Y-90566500D01*
X64967633Y-90566500D01*
X64900594Y-90546815D01*
X64894746Y-90542817D01*
X64891200Y-90540240D01*
X64722836Y-90454454D01*
X64543118Y-90396059D01*
X64356486Y-90366500D01*
X64356481Y-90366500D01*
X64167519Y-90366500D01*
X64167514Y-90366500D01*
X63980881Y-90396059D01*
X63801163Y-90454454D01*
X63632800Y-90540240D01*
X63596657Y-90566500D01*
X63479927Y-90651310D01*
X63479925Y-90651312D01*
X63479924Y-90651312D01*
X63346312Y-90784924D01*
X63346312Y-90784925D01*
X63346310Y-90784927D01*
X63298610Y-90850579D01*
X63235240Y-90937800D01*
X63149454Y-91106163D01*
X63091059Y-91285881D01*
X63061500Y-91472513D01*
X49533952Y-91472513D01*
X49547936Y-91454289D01*
X49669224Y-91244212D01*
X49762054Y-91020100D01*
X49824838Y-90785789D01*
X49856500Y-90545288D01*
X49856500Y-90442986D01*
X57344001Y-90442986D01*
X57354494Y-90545697D01*
X57409641Y-90712119D01*
X57409643Y-90712124D01*
X57501684Y-90861345D01*
X57625654Y-90985315D01*
X57774875Y-91077356D01*
X57774880Y-91077358D01*
X57941302Y-91132505D01*
X57941309Y-91132506D01*
X58044019Y-91142999D01*
X58193999Y-91142999D01*
X58194000Y-91142998D01*
X58194000Y-90293000D01*
X57344001Y-90293000D01*
X57344001Y-90442986D01*
X49856500Y-90442986D01*
X49856500Y-90302712D01*
X49824838Y-90062211D01*
X49809107Y-90003504D01*
X58144000Y-90003504D01*
X58144000Y-90082496D01*
X58164444Y-90158796D01*
X58203940Y-90227205D01*
X58259795Y-90283060D01*
X58328204Y-90322556D01*
X58404504Y-90343000D01*
X58483496Y-90343000D01*
X58559796Y-90322556D01*
X58628205Y-90283060D01*
X58684060Y-90227205D01*
X58694000Y-90209988D01*
X58694000Y-91142999D01*
X58843972Y-91142999D01*
X58843986Y-91142998D01*
X58946697Y-91132505D01*
X59113119Y-91077358D01*
X59113130Y-91077353D01*
X59251441Y-90992042D01*
X59318833Y-90973601D01*
X59372829Y-90987094D01*
X59521555Y-91062873D01*
X59686299Y-91116402D01*
X59857389Y-91143500D01*
X59857390Y-91143500D01*
X60030610Y-91143500D01*
X60030611Y-91143500D01*
X60201701Y-91116402D01*
X60366445Y-91062873D01*
X60520788Y-90984232D01*
X60660928Y-90882414D01*
X60783414Y-90759928D01*
X60885232Y-90619788D01*
X60963873Y-90465445D01*
X61017402Y-90300701D01*
X61044500Y-90129611D01*
X61044500Y-89956389D01*
X61017402Y-89785299D01*
X60974702Y-89653882D01*
X63607669Y-89653882D01*
X63607670Y-89653883D01*
X63633059Y-89672329D01*
X63801362Y-89758085D01*
X63980997Y-89816451D01*
X64167553Y-89846000D01*
X64356447Y-89846000D01*
X64543002Y-89816451D01*
X64722637Y-89758085D01*
X64890937Y-89672331D01*
X64916328Y-89653883D01*
X64916328Y-89653882D01*
X64262001Y-88999554D01*
X64262000Y-88999554D01*
X63607669Y-89653882D01*
X60974702Y-89653882D01*
X60963873Y-89620555D01*
X60885232Y-89466212D01*
X60783414Y-89326072D01*
X60660928Y-89203586D01*
X60520788Y-89101768D01*
X60366445Y-89023127D01*
X60201701Y-88969598D01*
X60201699Y-88969597D01*
X60201698Y-88969597D01*
X60070271Y-88948781D01*
X60030611Y-88942500D01*
X59857389Y-88942500D01*
X59817728Y-88948781D01*
X59686302Y-88969597D01*
X59521552Y-89023128D01*
X59372833Y-89098904D01*
X59304163Y-89111800D01*
X59251441Y-89093958D01*
X59113124Y-89008643D01*
X59113119Y-89008641D01*
X58946697Y-88953494D01*
X58946690Y-88953493D01*
X58843986Y-88943000D01*
X58694000Y-88943000D01*
X58694000Y-89876011D01*
X58684060Y-89858795D01*
X58628205Y-89802940D01*
X58559796Y-89763444D01*
X58483496Y-89743000D01*
X58404504Y-89743000D01*
X58328204Y-89763444D01*
X58259795Y-89802940D01*
X58203940Y-89858795D01*
X58164444Y-89927204D01*
X58144000Y-90003504D01*
X49809107Y-90003504D01*
X49762054Y-89827900D01*
X49733136Y-89758085D01*
X49703823Y-89687317D01*
X49689974Y-89653882D01*
X49685472Y-89643013D01*
X57344000Y-89643013D01*
X57344000Y-89793000D01*
X58194000Y-89793000D01*
X58194000Y-88943000D01*
X58044027Y-88943000D01*
X58044012Y-88943001D01*
X57941302Y-88953494D01*
X57774880Y-89008641D01*
X57774875Y-89008643D01*
X57625654Y-89100684D01*
X57501684Y-89224654D01*
X57409643Y-89373875D01*
X57409641Y-89373880D01*
X57354494Y-89540302D01*
X57354493Y-89540309D01*
X57344000Y-89643013D01*
X49685472Y-89643013D01*
X49669224Y-89603788D01*
X49547936Y-89393711D01*
X49400265Y-89201262D01*
X49400260Y-89201256D01*
X49228743Y-89029739D01*
X49228736Y-89029733D01*
X49036293Y-88882067D01*
X49036292Y-88882066D01*
X49036289Y-88882064D01*
X48826212Y-88760776D01*
X48780883Y-88742000D01*
X48602098Y-88667945D01*
X48602099Y-88667945D01*
X48596562Y-88666461D01*
X48596558Y-88666461D01*
X48367789Y-88605162D01*
X48367788Y-88605161D01*
X48367785Y-88605161D01*
X48127289Y-88573500D01*
X48127288Y-88573500D01*
X47884712Y-88573500D01*
X47884711Y-88573500D01*
X47644214Y-88605161D01*
X47409895Y-88667947D01*
X47185794Y-88760773D01*
X47185785Y-88760777D01*
X46975706Y-88882067D01*
X46783263Y-89029733D01*
X46783256Y-89029739D01*
X46611739Y-89201256D01*
X46611733Y-89201263D01*
X46464067Y-89393706D01*
X46342777Y-89603785D01*
X46342773Y-89603794D01*
X46249947Y-89827895D01*
X46187161Y-90062214D01*
X46155500Y-90302711D01*
X44950500Y-90302711D01*
X44950500Y-88551552D01*
X63062000Y-88551552D01*
X63062000Y-88740447D01*
X63091548Y-88927002D01*
X63149914Y-89106637D01*
X63235666Y-89274933D01*
X63254116Y-89300328D01*
X63908446Y-88646000D01*
X63908446Y-88645999D01*
X63862369Y-88599922D01*
X63912000Y-88599922D01*
X63912000Y-88692078D01*
X63935852Y-88781095D01*
X63981930Y-88860905D01*
X64047095Y-88926070D01*
X64126905Y-88972148D01*
X64215922Y-88996000D01*
X64308078Y-88996000D01*
X64397095Y-88972148D01*
X64476905Y-88926070D01*
X64542070Y-88860905D01*
X64588148Y-88781095D01*
X64612000Y-88692078D01*
X64612000Y-88645999D01*
X64615554Y-88645999D01*
X64615554Y-88646000D01*
X65269882Y-89300328D01*
X65269883Y-89300328D01*
X65288331Y-89274937D01*
X65374085Y-89106637D01*
X65432451Y-88927002D01*
X65462000Y-88740447D01*
X65462000Y-88551552D01*
X65432451Y-88364997D01*
X65374085Y-88185362D01*
X65288329Y-88017059D01*
X65269883Y-87991670D01*
X65269882Y-87991669D01*
X64615554Y-88645999D01*
X64612000Y-88645999D01*
X64612000Y-88599922D01*
X64588148Y-88510905D01*
X64542070Y-88431095D01*
X64476905Y-88365930D01*
X64397095Y-88319852D01*
X64308078Y-88296000D01*
X64215922Y-88296000D01*
X64126905Y-88319852D01*
X64047095Y-88365930D01*
X63981930Y-88431095D01*
X63935852Y-88510905D01*
X63912000Y-88599922D01*
X63862369Y-88599922D01*
X63254116Y-87991669D01*
X63254116Y-87991670D01*
X63235669Y-88017060D01*
X63149914Y-88185362D01*
X63091548Y-88364997D01*
X63062000Y-88551552D01*
X44950500Y-88551552D01*
X44950500Y-87638116D01*
X63607669Y-87638116D01*
X64262000Y-88292446D01*
X64262001Y-88292446D01*
X64916328Y-87638116D01*
X64890933Y-87619666D01*
X64722637Y-87533914D01*
X64543002Y-87475548D01*
X64356447Y-87446000D01*
X64167553Y-87446000D01*
X63980997Y-87475548D01*
X63801362Y-87533914D01*
X63633060Y-87619669D01*
X63607670Y-87638116D01*
X63607669Y-87638116D01*
X44950500Y-87638116D01*
X44950500Y-86662543D01*
X80102499Y-86662543D01*
X80140947Y-86855829D01*
X80140950Y-86855839D01*
X80216364Y-87037907D01*
X80216371Y-87037920D01*
X80325859Y-87201780D01*
X80325860Y-87201781D01*
X80325861Y-87201782D01*
X80465218Y-87341139D01*
X80465219Y-87341139D01*
X80472286Y-87348206D01*
X80472285Y-87348206D01*
X80472289Y-87348209D01*
X81724581Y-88600501D01*
X81758066Y-88661824D01*
X81759372Y-88668779D01*
X81760058Y-88673109D01*
X81760059Y-88673114D01*
X81760060Y-88673118D01*
X81788542Y-88760777D01*
X81818454Y-88852834D01*
X81856244Y-88927002D01*
X81904240Y-89021199D01*
X82015310Y-89174073D01*
X82148927Y-89307690D01*
X82301801Y-89418760D01*
X82365076Y-89451000D01*
X82470163Y-89504545D01*
X82470165Y-89504545D01*
X82470168Y-89504547D01*
X82566497Y-89535846D01*
X82649881Y-89562940D01*
X82836514Y-89592500D01*
X82836519Y-89592500D01*
X83025486Y-89592500D01*
X83212118Y-89562940D01*
X83215974Y-89561687D01*
X83391832Y-89504547D01*
X83560199Y-89418760D01*
X83586182Y-89399882D01*
X89896669Y-89399882D01*
X89896670Y-89399883D01*
X89922059Y-89418329D01*
X90090362Y-89504085D01*
X90269997Y-89562451D01*
X90456553Y-89592000D01*
X90645447Y-89592000D01*
X90832002Y-89562451D01*
X91011637Y-89504085D01*
X91179937Y-89418331D01*
X91205328Y-89399883D01*
X91205328Y-89399882D01*
X90551001Y-88745554D01*
X90551000Y-88745554D01*
X89896669Y-89399882D01*
X83586182Y-89399882D01*
X83713073Y-89307690D01*
X83846690Y-89174073D01*
X83957760Y-89021199D01*
X84043547Y-88852832D01*
X84101940Y-88673118D01*
X84112703Y-88605161D01*
X84131500Y-88486486D01*
X84131500Y-88297552D01*
X89351000Y-88297552D01*
X89351000Y-88486447D01*
X89380548Y-88673002D01*
X89438914Y-88852637D01*
X89524666Y-89020933D01*
X89543116Y-89046328D01*
X90197446Y-88392000D01*
X90197446Y-88391999D01*
X90151369Y-88345922D01*
X90201000Y-88345922D01*
X90201000Y-88438078D01*
X90224852Y-88527095D01*
X90270930Y-88606905D01*
X90336095Y-88672070D01*
X90415905Y-88718148D01*
X90504922Y-88742000D01*
X90597078Y-88742000D01*
X90686095Y-88718148D01*
X90765905Y-88672070D01*
X90831070Y-88606905D01*
X90877148Y-88527095D01*
X90901000Y-88438078D01*
X90901000Y-88391999D01*
X90904554Y-88391999D01*
X90904554Y-88392000D01*
X91558882Y-89046328D01*
X91558883Y-89046328D01*
X91577331Y-89020937D01*
X91663085Y-88852637D01*
X91721451Y-88673002D01*
X91751000Y-88486447D01*
X91751000Y-88297552D01*
X91721451Y-88110997D01*
X91663085Y-87931362D01*
X91577329Y-87763059D01*
X91558883Y-87737670D01*
X91558882Y-87737669D01*
X90904554Y-88391999D01*
X90901000Y-88391999D01*
X90901000Y-88345922D01*
X90877148Y-88256905D01*
X90831070Y-88177095D01*
X90765905Y-88111930D01*
X90686095Y-88065852D01*
X90597078Y-88042000D01*
X90504922Y-88042000D01*
X90415905Y-88065852D01*
X90336095Y-88111930D01*
X90270930Y-88177095D01*
X90224852Y-88256905D01*
X90201000Y-88345922D01*
X90151369Y-88345922D01*
X89543116Y-87737669D01*
X89543116Y-87737670D01*
X89524669Y-87763060D01*
X89438914Y-87931362D01*
X89380548Y-88110997D01*
X89351000Y-88297552D01*
X84131500Y-88297552D01*
X84131500Y-88297513D01*
X84101940Y-88110881D01*
X84043545Y-87931163D01*
X83998290Y-87842347D01*
X83957760Y-87762801D01*
X83846690Y-87609927D01*
X83713073Y-87476310D01*
X83586179Y-87384116D01*
X89896669Y-87384116D01*
X90551000Y-88038446D01*
X90551001Y-88038446D01*
X91205328Y-87384116D01*
X91179933Y-87365666D01*
X91011637Y-87279914D01*
X90832002Y-87221548D01*
X90645447Y-87192000D01*
X90456553Y-87192000D01*
X90269997Y-87221548D01*
X90090362Y-87279914D01*
X89922060Y-87365669D01*
X89896670Y-87384116D01*
X89896669Y-87384116D01*
X83586179Y-87384116D01*
X83560199Y-87365240D01*
X83391832Y-87279453D01*
X83212118Y-87221060D01*
X83212116Y-87221059D01*
X83212114Y-87221059D01*
X83212109Y-87221058D01*
X83207779Y-87220372D01*
X83144645Y-87190440D01*
X83139501Y-87185581D01*
X82139819Y-86185898D01*
X82106334Y-86124575D01*
X82103500Y-86098217D01*
X82103500Y-84925273D01*
X82123185Y-84858234D01*
X82175989Y-84812479D01*
X82245147Y-84802535D01*
X82265812Y-84807340D01*
X82360951Y-84838252D01*
X82416254Y-84856222D01*
X82529200Y-84874111D01*
X82642146Y-84892000D01*
X82642147Y-84892000D01*
X82965853Y-84892000D01*
X82965854Y-84892000D01*
X83191745Y-84856222D01*
X83191748Y-84856221D01*
X83191749Y-84856221D01*
X83409255Y-84785549D01*
X83409255Y-84785548D01*
X83409258Y-84785548D01*
X83613038Y-84681717D01*
X83798066Y-84547286D01*
X83959786Y-84385566D01*
X84094217Y-84200538D01*
X84198048Y-83996758D01*
X84265099Y-83790396D01*
X84268721Y-83779249D01*
X84268721Y-83779248D01*
X84268722Y-83779245D01*
X84304500Y-83553354D01*
X84304500Y-83324646D01*
X84268722Y-83098755D01*
X84268721Y-83098751D01*
X84268721Y-83098750D01*
X84198049Y-82881244D01*
X84169674Y-82825555D01*
X84094217Y-82677462D01*
X83959786Y-82492434D01*
X83798066Y-82330714D01*
X83713559Y-82269316D01*
X83670896Y-82213988D01*
X83664917Y-82144375D01*
X83697523Y-82082580D01*
X83713556Y-82068685D01*
X83798066Y-82007286D01*
X83959786Y-81845566D01*
X84094217Y-81660538D01*
X84198048Y-81456758D01*
X84268722Y-81239245D01*
X84304500Y-81013354D01*
X84304500Y-80784646D01*
X84268722Y-80558755D01*
X84268721Y-80558751D01*
X84268721Y-80558750D01*
X84198049Y-80341244D01*
X84111670Y-80171716D01*
X84094217Y-80137462D01*
X83961472Y-79954755D01*
X83937994Y-79888953D01*
X83953819Y-79820899D01*
X84003925Y-79772204D01*
X84018455Y-79765692D01*
X84046331Y-79755296D01*
X84161546Y-79669046D01*
X84247796Y-79553831D01*
X84298091Y-79418983D01*
X84304500Y-79359373D01*
X84304500Y-78847983D01*
X95906500Y-78847983D01*
X95906500Y-79648001D01*
X95906501Y-79648019D01*
X95917000Y-79750796D01*
X95917001Y-79750799D01*
X95972185Y-79917331D01*
X95972187Y-79917336D01*
X95999402Y-79961459D01*
X96064288Y-80066656D01*
X96188344Y-80190712D01*
X96252981Y-80230580D01*
X96299705Y-80282526D01*
X96310928Y-80351489D01*
X96283085Y-80415571D01*
X96275566Y-80423799D01*
X96167964Y-80531401D01*
X96066195Y-80671475D01*
X95987591Y-80825744D01*
X95934085Y-80990415D01*
X95932884Y-80997999D01*
X95932885Y-80998000D01*
X97001670Y-80998000D01*
X96981925Y-81017745D01*
X96932556Y-81103255D01*
X96907000Y-81198630D01*
X96907000Y-81297370D01*
X96932556Y-81392745D01*
X96981925Y-81478255D01*
X97001670Y-81498000D01*
X95932885Y-81498000D01*
X95934085Y-81505584D01*
X95987591Y-81670255D01*
X96066195Y-81824524D01*
X96167967Y-81964602D01*
X96290401Y-82087036D01*
X96373447Y-82147371D01*
X96416114Y-82202701D01*
X96422093Y-82272314D01*
X96389488Y-82334109D01*
X96373450Y-82348007D01*
X96290072Y-82408585D01*
X96167588Y-82531069D01*
X96167588Y-82531070D01*
X96167586Y-82531072D01*
X96123859Y-82591256D01*
X96065768Y-82671211D01*
X95987128Y-82825552D01*
X95933597Y-82990302D01*
X95916420Y-83098755D01*
X95906500Y-83161389D01*
X95906500Y-83334611D01*
X95933598Y-83505701D01*
X95987127Y-83670445D01*
X96065768Y-83824788D01*
X96167586Y-83964928D01*
X96290072Y-84087414D01*
X96430212Y-84189232D01*
X96584555Y-84267873D01*
X96749299Y-84321402D01*
X96920389Y-84348500D01*
X96920390Y-84348500D01*
X97643610Y-84348500D01*
X97643611Y-84348500D01*
X97814701Y-84321402D01*
X97979445Y-84267873D01*
X98133788Y-84189232D01*
X98273928Y-84087414D01*
X98396414Y-83964928D01*
X98498232Y-83824788D01*
X98576873Y-83670445D01*
X98630402Y-83505701D01*
X98657500Y-83334611D01*
X98657500Y-83161389D01*
X98630402Y-82990299D01*
X98576873Y-82825555D01*
X98498232Y-82671212D01*
X98396414Y-82531072D01*
X98273928Y-82408586D01*
X98190550Y-82348008D01*
X98147885Y-82292677D01*
X98141906Y-82223064D01*
X98174512Y-82161269D01*
X98190552Y-82147371D01*
X98273598Y-82087036D01*
X98396032Y-81964602D01*
X98497804Y-81824524D01*
X98576408Y-81670255D01*
X98629914Y-81505584D01*
X98631115Y-81498000D01*
X97562330Y-81498000D01*
X97582075Y-81478255D01*
X97631444Y-81392745D01*
X97657000Y-81297370D01*
X97657000Y-81198630D01*
X97631444Y-81103255D01*
X97582075Y-81017745D01*
X97562330Y-80998000D01*
X98631115Y-80998000D01*
X98631115Y-80997999D01*
X98629914Y-80990415D01*
X98576408Y-80825744D01*
X98497804Y-80671475D01*
X98396032Y-80531397D01*
X98288434Y-80423799D01*
X98254949Y-80362476D01*
X98259933Y-80292784D01*
X98301805Y-80236851D01*
X98310995Y-80230594D01*
X98375656Y-80190712D01*
X98499712Y-80066656D01*
X98591814Y-79917334D01*
X98646999Y-79750797D01*
X98657500Y-79648009D01*
X98657499Y-78847992D01*
X98657176Y-78844834D01*
X98646999Y-78745203D01*
X98646998Y-78745200D01*
X98591814Y-78578666D01*
X98499712Y-78429344D01*
X98375656Y-78305288D01*
X98226334Y-78213186D01*
X98059797Y-78158001D01*
X98059795Y-78158000D01*
X97957010Y-78147500D01*
X96606998Y-78147500D01*
X96606981Y-78147501D01*
X96504203Y-78158000D01*
X96504200Y-78158001D01*
X96337668Y-78213185D01*
X96337663Y-78213187D01*
X96188342Y-78305289D01*
X96064289Y-78429342D01*
X95972187Y-78578663D01*
X95972186Y-78578666D01*
X95917001Y-78745203D01*
X95917001Y-78745204D01*
X95917000Y-78745204D01*
X95906500Y-78847983D01*
X84304500Y-78847983D01*
X84304499Y-78305289D01*
X84304499Y-77358629D01*
X84304498Y-77358623D01*
X84304497Y-77358616D01*
X84298091Y-77299017D01*
X84290383Y-77278352D01*
X84247797Y-77164171D01*
X84247793Y-77164164D01*
X84161547Y-77048955D01*
X84161544Y-77048952D01*
X84046335Y-76962706D01*
X84046328Y-76962702D01*
X83911482Y-76912408D01*
X83911483Y-76912408D01*
X83851883Y-76906001D01*
X83851881Y-76906000D01*
X83851873Y-76906000D01*
X83851864Y-76906000D01*
X81756129Y-76906000D01*
X81756123Y-76906001D01*
X81696516Y-76912408D01*
X81561671Y-76962702D01*
X81561664Y-76962706D01*
X81446455Y-77048952D01*
X81446452Y-77048955D01*
X81360206Y-77164164D01*
X81360202Y-77164171D01*
X81309908Y-77299017D01*
X81303501Y-77358616D01*
X81303501Y-77358623D01*
X81303500Y-77358635D01*
X81303500Y-78393216D01*
X81283815Y-78460255D01*
X81267180Y-78480897D01*
X80465220Y-79282859D01*
X80465218Y-79282861D01*
X80395538Y-79352540D01*
X80325859Y-79422219D01*
X80216371Y-79586079D01*
X80216364Y-79586092D01*
X80176697Y-79681858D01*
X80176693Y-79681869D01*
X80174748Y-79686566D01*
X80140949Y-79768164D01*
X80129246Y-79827000D01*
X80127863Y-79833952D01*
X80127860Y-79833962D01*
X80102500Y-79961456D01*
X80102500Y-79961459D01*
X80102500Y-86662541D01*
X80102500Y-86662543D01*
X80102499Y-86662543D01*
X44950500Y-86662543D01*
X44950500Y-84217778D01*
X53971500Y-84217778D01*
X53971500Y-84438221D01*
X54005985Y-84655952D01*
X54074103Y-84865603D01*
X54074104Y-84865606D01*
X54174187Y-85062025D01*
X54303752Y-85240358D01*
X54303756Y-85240363D01*
X54459636Y-85396243D01*
X54459641Y-85396247D01*
X54615192Y-85509260D01*
X54637978Y-85525815D01*
X54766375Y-85591237D01*
X54834393Y-85625895D01*
X54834396Y-85625896D01*
X54939221Y-85659955D01*
X55044049Y-85694015D01*
X55261778Y-85728500D01*
X55261779Y-85728500D01*
X55482221Y-85728500D01*
X55482222Y-85728500D01*
X55699951Y-85694015D01*
X55909606Y-85625895D01*
X56106022Y-85525815D01*
X56284365Y-85396242D01*
X56440242Y-85240365D01*
X56569815Y-85062022D01*
X56669895Y-84865606D01*
X56738015Y-84655951D01*
X56772500Y-84438222D01*
X56772500Y-84217778D01*
X56738015Y-84000049D01*
X56669895Y-83790394D01*
X56669895Y-83790393D01*
X56608777Y-83670445D01*
X56569815Y-83593978D01*
X56540299Y-83553353D01*
X56440247Y-83415641D01*
X56440243Y-83415636D01*
X56284363Y-83259756D01*
X56284358Y-83259752D01*
X56106025Y-83130187D01*
X56106024Y-83130186D01*
X56106022Y-83130185D01*
X56043096Y-83098122D01*
X55909606Y-83030104D01*
X55909603Y-83030103D01*
X55699952Y-82961985D01*
X55591086Y-82944742D01*
X55482222Y-82927500D01*
X55261778Y-82927500D01*
X55189201Y-82938995D01*
X55044047Y-82961985D01*
X54834396Y-83030103D01*
X54834393Y-83030104D01*
X54637974Y-83130187D01*
X54459641Y-83259752D01*
X54459636Y-83259756D01*
X54303756Y-83415636D01*
X54303752Y-83415641D01*
X54174187Y-83593974D01*
X54074104Y-83790393D01*
X54074103Y-83790396D01*
X54005985Y-84000047D01*
X53971500Y-84217778D01*
X44950500Y-84217778D01*
X44950500Y-76597778D01*
X53971500Y-76597778D01*
X53971500Y-76818221D01*
X54005985Y-77035952D01*
X54074103Y-77245603D01*
X54074104Y-77245606D01*
X54174187Y-77442025D01*
X54303752Y-77620358D01*
X54303756Y-77620363D01*
X54459636Y-77776243D01*
X54459641Y-77776247D01*
X54571629Y-77857610D01*
X54637978Y-77905815D01*
X54766375Y-77971237D01*
X54834393Y-78005895D01*
X54834396Y-78005896D01*
X54923707Y-78034914D01*
X55044049Y-78074015D01*
X55261778Y-78108500D01*
X55261779Y-78108500D01*
X55482221Y-78108500D01*
X55482222Y-78108500D01*
X55699951Y-78074015D01*
X55909606Y-78005895D01*
X56106022Y-77905815D01*
X56284365Y-77776242D01*
X56440242Y-77620365D01*
X56569815Y-77442022D01*
X56669895Y-77245606D01*
X56725767Y-77073648D01*
X64485500Y-77073648D01*
X64485500Y-77278351D01*
X64517522Y-77480534D01*
X64580781Y-77675223D01*
X64673715Y-77857613D01*
X64794028Y-78023213D01*
X64938786Y-78167971D01*
X65093749Y-78280556D01*
X65104390Y-78288287D01*
X65220607Y-78347503D01*
X65286776Y-78381218D01*
X65286778Y-78381218D01*
X65286781Y-78381220D01*
X65343820Y-78399753D01*
X65481465Y-78444477D01*
X65581083Y-78460255D01*
X65683648Y-78476500D01*
X65683649Y-78476500D01*
X65888351Y-78476500D01*
X65888352Y-78476500D01*
X66090534Y-78444477D01*
X66285219Y-78381220D01*
X66467610Y-78288287D01*
X66570980Y-78213185D01*
X66633213Y-78167971D01*
X66633215Y-78167968D01*
X66633219Y-78167966D01*
X66777966Y-78023219D01*
X66777968Y-78023215D01*
X66777971Y-78023213D01*
X66859498Y-77910999D01*
X66898287Y-77857610D01*
X66991220Y-77675219D01*
X67054477Y-77480534D01*
X67056229Y-77469471D01*
X67086154Y-77406338D01*
X67145464Y-77369404D01*
X67215326Y-77370398D01*
X67273561Y-77409005D01*
X67277968Y-77414554D01*
X67349455Y-77510047D01*
X67464664Y-77596293D01*
X67464669Y-77596296D01*
X67492539Y-77606690D01*
X67548473Y-77648561D01*
X67572891Y-77714024D01*
X67558040Y-77782298D01*
X67549525Y-77795759D01*
X67416783Y-77978461D01*
X67312950Y-78182244D01*
X67242278Y-78399750D01*
X67242278Y-78399753D01*
X67206500Y-78625646D01*
X67206500Y-78854353D01*
X67242278Y-79080246D01*
X67242278Y-79080249D01*
X67312950Y-79297755D01*
X67374719Y-79418983D01*
X67416783Y-79501538D01*
X67551214Y-79686566D01*
X67712934Y-79848286D01*
X67722244Y-79855050D01*
X67797438Y-79909682D01*
X67840103Y-79965013D01*
X67846082Y-80034626D01*
X67813476Y-80096421D01*
X67797438Y-80110318D01*
X67712932Y-80171715D01*
X67551216Y-80333431D01*
X67551216Y-80333432D01*
X67551214Y-80333434D01*
X67530114Y-80362476D01*
X67416783Y-80518461D01*
X67312950Y-80722244D01*
X67242278Y-80939750D01*
X67242278Y-80939753D01*
X67242278Y-80939755D01*
X67206500Y-81165646D01*
X67206500Y-81394354D01*
X67216384Y-81456758D01*
X67242278Y-81620246D01*
X67242278Y-81620249D01*
X67312950Y-81837755D01*
X67316931Y-81845568D01*
X67416783Y-82041538D01*
X67551214Y-82226566D01*
X67712934Y-82388286D01*
X67897962Y-82522717D01*
X68101742Y-82626548D01*
X68101744Y-82626549D01*
X68319251Y-82697221D01*
X68319252Y-82697221D01*
X68319255Y-82697222D01*
X68545146Y-82733000D01*
X68545147Y-82733000D01*
X68868853Y-82733000D01*
X68868854Y-82733000D01*
X69094745Y-82697222D01*
X69094748Y-82697221D01*
X69094749Y-82697221D01*
X69312255Y-82626549D01*
X69312255Y-82626548D01*
X69312258Y-82626548D01*
X69516038Y-82522717D01*
X69701066Y-82388286D01*
X69862786Y-82226566D01*
X69997217Y-82041538D01*
X70101048Y-81837758D01*
X70171722Y-81620245D01*
X70207500Y-81394354D01*
X70207500Y-81165646D01*
X70171722Y-80939755D01*
X70171721Y-80939751D01*
X70171721Y-80939750D01*
X70101049Y-80722244D01*
X70017746Y-80558753D01*
X69997217Y-80518462D01*
X69862786Y-80333434D01*
X69701066Y-80171714D01*
X69616559Y-80110316D01*
X69599382Y-80088040D01*
X69579777Y-80067867D01*
X69578333Y-80060742D01*
X69573896Y-80054988D01*
X69571488Y-80026962D01*
X69565902Y-79999389D01*
X69568538Y-79992616D01*
X69567917Y-79985375D01*
X69581044Y-79960496D01*
X69591251Y-79934280D01*
X69598693Y-79927047D01*
X69600523Y-79923580D01*
X69616562Y-79909682D01*
X69691753Y-79855052D01*
X69691756Y-79855050D01*
X69701066Y-79848286D01*
X69862786Y-79686566D01*
X69997217Y-79501538D01*
X70101048Y-79297758D01*
X70171722Y-79080245D01*
X70207500Y-78854354D01*
X70207500Y-78625646D01*
X70171722Y-78399755D01*
X70171721Y-78399751D01*
X70171721Y-78399750D01*
X70101049Y-78182244D01*
X70088696Y-78158000D01*
X69997217Y-77978462D01*
X69864472Y-77795755D01*
X69840994Y-77729953D01*
X69856819Y-77661899D01*
X69906925Y-77613204D01*
X69921455Y-77606692D01*
X69949331Y-77596296D01*
X70064546Y-77510046D01*
X70150796Y-77394831D01*
X70201091Y-77259983D01*
X70207500Y-77200373D01*
X70207499Y-76561983D01*
X88712500Y-76561983D01*
X88712500Y-77362001D01*
X88712501Y-77362019D01*
X88723000Y-77464796D01*
X88723001Y-77464799D01*
X88778185Y-77631331D01*
X88778187Y-77631336D01*
X88805254Y-77675219D01*
X88870288Y-77780656D01*
X88994344Y-77904712D01*
X89143666Y-77996814D01*
X89310203Y-78051999D01*
X89412991Y-78062500D01*
X90213008Y-78062499D01*
X90213016Y-78062498D01*
X90213019Y-78062498D01*
X90269302Y-78056748D01*
X90315797Y-78051999D01*
X90482334Y-77996814D01*
X90621464Y-77910997D01*
X90688853Y-77892559D01*
X90742854Y-77906054D01*
X90890740Y-77981407D01*
X91055415Y-78034914D01*
X91226429Y-78062000D01*
X91399571Y-78062000D01*
X91570584Y-78034914D01*
X91735257Y-77981408D01*
X91889525Y-77902803D01*
X91895736Y-77898289D01*
X91254301Y-77256854D01*
X91273504Y-77262000D01*
X91352496Y-77262000D01*
X91428796Y-77241556D01*
X91497205Y-77202060D01*
X91553060Y-77146205D01*
X91592556Y-77077796D01*
X91613000Y-77001496D01*
X91613000Y-76961999D01*
X91666553Y-76961999D01*
X91666553Y-76962001D01*
X92249289Y-77544737D01*
X92249289Y-77544736D01*
X92253803Y-77538525D01*
X92332408Y-77384257D01*
X92385914Y-77219584D01*
X92413000Y-77048571D01*
X92413000Y-76875428D01*
X92385914Y-76704415D01*
X92332408Y-76539742D01*
X92253801Y-76385471D01*
X92249290Y-76379262D01*
X92249289Y-76379261D01*
X91666553Y-76961999D01*
X91613000Y-76961999D01*
X91613000Y-76922504D01*
X91592556Y-76846204D01*
X91553060Y-76777795D01*
X91497205Y-76721940D01*
X91428796Y-76682444D01*
X91352496Y-76662000D01*
X91273504Y-76662000D01*
X91254300Y-76667145D01*
X91895737Y-76025709D01*
X91889525Y-76021196D01*
X91735259Y-75942592D01*
X91570584Y-75889085D01*
X91399571Y-75862000D01*
X91226429Y-75862000D01*
X91055415Y-75889085D01*
X90890742Y-75942591D01*
X90742853Y-76017946D01*
X90674184Y-76030842D01*
X90621462Y-76013000D01*
X90482340Y-75927189D01*
X90482335Y-75927187D01*
X90482334Y-75927186D01*
X90315797Y-75872001D01*
X90315795Y-75872000D01*
X90213010Y-75861500D01*
X89412998Y-75861500D01*
X89412980Y-75861501D01*
X89310203Y-75872000D01*
X89310200Y-75872001D01*
X89143668Y-75927185D01*
X89143663Y-75927187D01*
X88994342Y-76019289D01*
X88870289Y-76143342D01*
X88778187Y-76292663D01*
X88778185Y-76292668D01*
X88766217Y-76328786D01*
X88723001Y-76459203D01*
X88723001Y-76459204D01*
X88723000Y-76459204D01*
X88712500Y-76561983D01*
X70207499Y-76561983D01*
X70207499Y-76184034D01*
X70207499Y-75199629D01*
X70207498Y-75199623D01*
X70207497Y-75199616D01*
X70201091Y-75140017D01*
X70150796Y-75005169D01*
X70150795Y-75005168D01*
X70150793Y-75005164D01*
X70064547Y-74889955D01*
X70064544Y-74889952D01*
X69949335Y-74803706D01*
X69949328Y-74803702D01*
X69814482Y-74753408D01*
X69814483Y-74753408D01*
X69754883Y-74747001D01*
X69754881Y-74747000D01*
X69754873Y-74747000D01*
X69754864Y-74747000D01*
X67659129Y-74747000D01*
X67659123Y-74747001D01*
X67599516Y-74753408D01*
X67464671Y-74803702D01*
X67464664Y-74803706D01*
X67349455Y-74889952D01*
X67349452Y-74889955D01*
X67263206Y-75005164D01*
X67263202Y-75005171D01*
X67212908Y-75140017D01*
X67206501Y-75199616D01*
X67206501Y-75199623D01*
X67206500Y-75199635D01*
X67206500Y-76582795D01*
X67186815Y-76649834D01*
X67134011Y-76695589D01*
X67064853Y-76705533D01*
X67001297Y-76676508D01*
X66972015Y-76639090D01*
X66898287Y-76494390D01*
X66898285Y-76494387D01*
X66898284Y-76494385D01*
X66777971Y-76328786D01*
X66633213Y-76184028D01*
X66467613Y-76063715D01*
X66467612Y-76063714D01*
X66467610Y-76063713D01*
X66384166Y-76021196D01*
X66285223Y-75970781D01*
X66090534Y-75907522D01*
X65915995Y-75879878D01*
X65888352Y-75875500D01*
X65683648Y-75875500D01*
X65659329Y-75879351D01*
X65481465Y-75907522D01*
X65286776Y-75970781D01*
X65104386Y-76063715D01*
X64938786Y-76184028D01*
X64794028Y-76328786D01*
X64673715Y-76494386D01*
X64580781Y-76676776D01*
X64517522Y-76871465D01*
X64485500Y-77073648D01*
X56725767Y-77073648D01*
X56738015Y-77035951D01*
X56772500Y-76818222D01*
X56772500Y-76597778D01*
X56738015Y-76380049D01*
X56669895Y-76170394D01*
X56669895Y-76170393D01*
X56635237Y-76102375D01*
X56569815Y-75973978D01*
X56488459Y-75862000D01*
X56440247Y-75795641D01*
X56440243Y-75795636D01*
X56284363Y-75639756D01*
X56284358Y-75639752D01*
X56106025Y-75510187D01*
X56106024Y-75510186D01*
X56106022Y-75510185D01*
X56043096Y-75478122D01*
X55909606Y-75410104D01*
X55909603Y-75410103D01*
X55699952Y-75341985D01*
X55591086Y-75324742D01*
X55482222Y-75307500D01*
X55261778Y-75307500D01*
X55189201Y-75318995D01*
X55044047Y-75341985D01*
X54834396Y-75410103D01*
X54834393Y-75410104D01*
X54637974Y-75510187D01*
X54459641Y-75639752D01*
X54459636Y-75639756D01*
X54303756Y-75795636D01*
X54303752Y-75795641D01*
X54174187Y-75973974D01*
X54074104Y-76170393D01*
X54074103Y-76170396D01*
X54005985Y-76380047D01*
X53971500Y-76597778D01*
X44950500Y-76597778D01*
X44950500Y-67358153D01*
X46316500Y-67358153D01*
X46316500Y-67515846D01*
X46347261Y-67670489D01*
X46347264Y-67670501D01*
X46407602Y-67816172D01*
X46407609Y-67816185D01*
X46495210Y-67947288D01*
X46495213Y-67947292D01*
X46606707Y-68058786D01*
X46606711Y-68058789D01*
X46737814Y-68146390D01*
X46737827Y-68146397D01*
X46883498Y-68206735D01*
X46883503Y-68206737D01*
X47038153Y-68237499D01*
X47038156Y-68237500D01*
X47038158Y-68237500D01*
X47195844Y-68237500D01*
X47195845Y-68237499D01*
X47350497Y-68206737D01*
X47496179Y-68146394D01*
X47627289Y-68058789D01*
X47738789Y-67947289D01*
X47826394Y-67816179D01*
X47829398Y-67811684D01*
X47883010Y-67766879D01*
X47952335Y-67758172D01*
X48015363Y-67788326D01*
X48052082Y-67847770D01*
X48056500Y-67880575D01*
X48056500Y-68337017D01*
X48067000Y-68439796D01*
X48102153Y-68545880D01*
X48122186Y-68606335D01*
X48205457Y-68741339D01*
X48214289Y-68755657D01*
X48343451Y-68884819D01*
X48341117Y-68887152D01*
X48373065Y-68932195D01*
X48376257Y-69001992D01*
X48356126Y-69045415D01*
X48288559Y-69138413D01*
X48174219Y-69362815D01*
X48096397Y-69602329D01*
X48091008Y-69636353D01*
X48061077Y-69699487D01*
X48001765Y-69736417D01*
X47931902Y-69735418D01*
X47873671Y-69696807D01*
X47853974Y-69664405D01*
X47826397Y-69597827D01*
X47826390Y-69597814D01*
X47738789Y-69466711D01*
X47738786Y-69466707D01*
X47627292Y-69355213D01*
X47627288Y-69355210D01*
X47496185Y-69267609D01*
X47496172Y-69267602D01*
X47350501Y-69207264D01*
X47350489Y-69207261D01*
X47195845Y-69176500D01*
X47195842Y-69176500D01*
X47038158Y-69176500D01*
X47038155Y-69176500D01*
X46883510Y-69207261D01*
X46883498Y-69207264D01*
X46737827Y-69267602D01*
X46737814Y-69267609D01*
X46606711Y-69355210D01*
X46606707Y-69355213D01*
X46495213Y-69466707D01*
X46495210Y-69466711D01*
X46407609Y-69597814D01*
X46407602Y-69597827D01*
X46347264Y-69743498D01*
X46347261Y-69743510D01*
X46316500Y-69898153D01*
X46316500Y-70055846D01*
X46347261Y-70210489D01*
X46347264Y-70210501D01*
X46407602Y-70356172D01*
X46407609Y-70356185D01*
X46495210Y-70487288D01*
X46495213Y-70487292D01*
X46606707Y-70598786D01*
X46606711Y-70598789D01*
X46737814Y-70686390D01*
X46737827Y-70686397D01*
X46883498Y-70746735D01*
X46883503Y-70746737D01*
X47038153Y-70777499D01*
X47038156Y-70777500D01*
X47038158Y-70777500D01*
X47195844Y-70777500D01*
X47195845Y-70777499D01*
X47350497Y-70746737D01*
X47496179Y-70686394D01*
X47627289Y-70598789D01*
X47738789Y-70487289D01*
X47826394Y-70356179D01*
X47853974Y-70289592D01*
X47897814Y-70235191D01*
X47964108Y-70213125D01*
X48031807Y-70230403D01*
X48079418Y-70281540D01*
X48091008Y-70317646D01*
X48096397Y-70351670D01*
X48174219Y-70591184D01*
X48288557Y-70815583D01*
X48362748Y-70917697D01*
X48362748Y-70917698D01*
X49133212Y-70147233D01*
X49144482Y-70189292D01*
X49216890Y-70314708D01*
X49319292Y-70417110D01*
X49444708Y-70489518D01*
X49486765Y-70500787D01*
X48875404Y-71112147D01*
X48844023Y-71134948D01*
X48818152Y-71148131D01*
X48614350Y-71296201D01*
X48614345Y-71296205D01*
X48436205Y-71474345D01*
X48436201Y-71474350D01*
X48288132Y-71678151D01*
X48173760Y-71902616D01*
X48095910Y-72142211D01*
X48090642Y-72175472D01*
X48060711Y-72238606D01*
X48001398Y-72275536D01*
X47931536Y-72274536D01*
X47873304Y-72235925D01*
X47853610Y-72203527D01*
X47826394Y-72137821D01*
X47826390Y-72137814D01*
X47738789Y-72006711D01*
X47738786Y-72006707D01*
X47627292Y-71895213D01*
X47627288Y-71895210D01*
X47496185Y-71807609D01*
X47496172Y-71807602D01*
X47350501Y-71747264D01*
X47350489Y-71747261D01*
X47195845Y-71716500D01*
X47195842Y-71716500D01*
X47038158Y-71716500D01*
X47038155Y-71716500D01*
X46883510Y-71747261D01*
X46883498Y-71747264D01*
X46737827Y-71807602D01*
X46737814Y-71807609D01*
X46606711Y-71895210D01*
X46606707Y-71895213D01*
X46495213Y-72006707D01*
X46495210Y-72006711D01*
X46407609Y-72137814D01*
X46407602Y-72137827D01*
X46347264Y-72283498D01*
X46347261Y-72283510D01*
X46316500Y-72438153D01*
X46316500Y-72595846D01*
X46347261Y-72750489D01*
X46347264Y-72750501D01*
X46407602Y-72896172D01*
X46407609Y-72896185D01*
X46495210Y-73027288D01*
X46495213Y-73027292D01*
X46606707Y-73138786D01*
X46606711Y-73138789D01*
X46737814Y-73226390D01*
X46737827Y-73226397D01*
X46883498Y-73286735D01*
X46883503Y-73286737D01*
X47038153Y-73317499D01*
X47038156Y-73317500D01*
X47038158Y-73317500D01*
X47195844Y-73317500D01*
X47195845Y-73317499D01*
X47350497Y-73286737D01*
X47496179Y-73226394D01*
X47627289Y-73138789D01*
X47738789Y-73027289D01*
X47826394Y-72896179D01*
X47853609Y-72830475D01*
X47897447Y-72776073D01*
X47963741Y-72754007D01*
X48031440Y-72771285D01*
X48079052Y-72822421D01*
X48090642Y-72858528D01*
X48095910Y-72891787D01*
X48173760Y-73131383D01*
X48288132Y-73355848D01*
X48436201Y-73559649D01*
X48436205Y-73559654D01*
X48614345Y-73737794D01*
X48614350Y-73737798D01*
X48739331Y-73828601D01*
X48818155Y-73885870D01*
X48961184Y-73958747D01*
X49042616Y-74000239D01*
X49042618Y-74000239D01*
X49042621Y-74000241D01*
X49282215Y-74078090D01*
X49531038Y-74117500D01*
X49531039Y-74117500D01*
X49782961Y-74117500D01*
X49782962Y-74117500D01*
X50031785Y-74078090D01*
X50271379Y-74000241D01*
X50495845Y-73885870D01*
X50699656Y-73737793D01*
X50877793Y-73559656D01*
X51025870Y-73355845D01*
X51055351Y-73297986D01*
X59376001Y-73297986D01*
X59386494Y-73400697D01*
X59441641Y-73567119D01*
X59441643Y-73567124D01*
X59533684Y-73716345D01*
X59657654Y-73840315D01*
X59806875Y-73932356D01*
X59806880Y-73932358D01*
X59973302Y-73987505D01*
X59973309Y-73987506D01*
X60076019Y-73997999D01*
X60225999Y-73997999D01*
X60226000Y-73997998D01*
X60226000Y-73148000D01*
X59376001Y-73148000D01*
X59376001Y-73297986D01*
X51055351Y-73297986D01*
X51140241Y-73131379D01*
X51218090Y-72891785D01*
X51223361Y-72858504D01*
X60176000Y-72858504D01*
X60176000Y-72937496D01*
X60196444Y-73013796D01*
X60235940Y-73082205D01*
X60291795Y-73138060D01*
X60360204Y-73177556D01*
X60436504Y-73198000D01*
X60515496Y-73198000D01*
X60591796Y-73177556D01*
X60660205Y-73138060D01*
X60716060Y-73082205D01*
X60726000Y-73064988D01*
X60726000Y-73997999D01*
X60875972Y-73997999D01*
X60875986Y-73997998D01*
X60978697Y-73987505D01*
X61145119Y-73932358D01*
X61145130Y-73932353D01*
X61283441Y-73847042D01*
X61350833Y-73828601D01*
X61404829Y-73842094D01*
X61553555Y-73917873D01*
X61718299Y-73971402D01*
X61889389Y-73998500D01*
X61889390Y-73998500D01*
X62062610Y-73998500D01*
X62062611Y-73998500D01*
X62233701Y-73971402D01*
X62398445Y-73917873D01*
X62552788Y-73839232D01*
X62692928Y-73737414D01*
X62815414Y-73614928D01*
X62917232Y-73474788D01*
X62995873Y-73320445D01*
X63049402Y-73155701D01*
X63076500Y-72984611D01*
X63076500Y-72811389D01*
X63049402Y-72640299D01*
X62995873Y-72475555D01*
X62917232Y-72321212D01*
X62815414Y-72181072D01*
X62708024Y-72073682D01*
X64486000Y-72073682D01*
X64486000Y-72278317D01*
X64518009Y-72480417D01*
X64581244Y-72675031D01*
X64674141Y-72857350D01*
X64674147Y-72857359D01*
X64706523Y-72901921D01*
X64706524Y-72901922D01*
X65386000Y-72222446D01*
X65386000Y-72228661D01*
X65413259Y-72330394D01*
X65465920Y-72421606D01*
X65540394Y-72496080D01*
X65631606Y-72548741D01*
X65733339Y-72576000D01*
X65739553Y-72576000D01*
X65060076Y-73255474D01*
X65104650Y-73287859D01*
X65286968Y-73380755D01*
X65481582Y-73443990D01*
X65683683Y-73476000D01*
X65888317Y-73476000D01*
X66090417Y-73443990D01*
X66285031Y-73380755D01*
X66467349Y-73287859D01*
X66511921Y-73255474D01*
X65832447Y-72576000D01*
X65838661Y-72576000D01*
X65940394Y-72548741D01*
X66031606Y-72496080D01*
X66106080Y-72421606D01*
X66158741Y-72330394D01*
X66186000Y-72228661D01*
X66186000Y-72222447D01*
X66865474Y-72901921D01*
X66897859Y-72857349D01*
X66990755Y-72675031D01*
X67053990Y-72480417D01*
X67053990Y-72480416D01*
X67063161Y-72422513D01*
X82111500Y-72422513D01*
X82111500Y-72611486D01*
X82141059Y-72798118D01*
X82199454Y-72977836D01*
X82277689Y-73131379D01*
X82285240Y-73146199D01*
X82396310Y-73299073D01*
X82529927Y-73432690D01*
X82682801Y-73543760D01*
X82713995Y-73559654D01*
X82851163Y-73629545D01*
X82851165Y-73629545D01*
X82851168Y-73629547D01*
X82947497Y-73660846D01*
X83030881Y-73687940D01*
X83217514Y-73717500D01*
X83217519Y-73717500D01*
X83406486Y-73717500D01*
X83593118Y-73687940D01*
X83772832Y-73629547D01*
X83941199Y-73543760D01*
X84094073Y-73432690D01*
X84227690Y-73299073D01*
X84338760Y-73146199D01*
X84424547Y-72977832D01*
X84482940Y-72798118D01*
X84512500Y-72611486D01*
X84512500Y-72422513D01*
X89731500Y-72422513D01*
X89731500Y-72611486D01*
X89761059Y-72798118D01*
X89819454Y-72977836D01*
X89897689Y-73131379D01*
X89905240Y-73146199D01*
X90016310Y-73299073D01*
X90149927Y-73432690D01*
X90302801Y-73543760D01*
X90333995Y-73559654D01*
X90471163Y-73629545D01*
X90471165Y-73629545D01*
X90471168Y-73629547D01*
X90567497Y-73660846D01*
X90650881Y-73687940D01*
X90837514Y-73717500D01*
X90837519Y-73717500D01*
X91026486Y-73717500D01*
X91213118Y-73687940D01*
X91392832Y-73629547D01*
X91561199Y-73543760D01*
X91714073Y-73432690D01*
X91847690Y-73299073D01*
X91958760Y-73146199D01*
X92044547Y-72977832D01*
X92102940Y-72798118D01*
X92132500Y-72611486D01*
X92132500Y-72422513D01*
X92102940Y-72235881D01*
X92052178Y-72079654D01*
X92044547Y-72056168D01*
X92044545Y-72056165D01*
X92044545Y-72056163D01*
X91966311Y-71902621D01*
X91958760Y-71887801D01*
X91847690Y-71734927D01*
X91714073Y-71601310D01*
X91561199Y-71490240D01*
X91530013Y-71474350D01*
X91392836Y-71404454D01*
X91213118Y-71346059D01*
X91026486Y-71316500D01*
X91026481Y-71316500D01*
X90837519Y-71316500D01*
X90837514Y-71316500D01*
X90650881Y-71346059D01*
X90471163Y-71404454D01*
X90302800Y-71490240D01*
X90215579Y-71553610D01*
X90149927Y-71601310D01*
X90149925Y-71601312D01*
X90149924Y-71601312D01*
X90016312Y-71734924D01*
X90016312Y-71734925D01*
X90016310Y-71734927D01*
X90007347Y-71747264D01*
X89905240Y-71887800D01*
X89819454Y-72056163D01*
X89761059Y-72235881D01*
X89731500Y-72422513D01*
X84512500Y-72422513D01*
X84482940Y-72235881D01*
X84432178Y-72079654D01*
X84424547Y-72056168D01*
X84424545Y-72056165D01*
X84424545Y-72056163D01*
X84346311Y-71902621D01*
X84338760Y-71887801D01*
X84227690Y-71734927D01*
X84094073Y-71601310D01*
X83941199Y-71490240D01*
X83910013Y-71474350D01*
X83772836Y-71404454D01*
X83593118Y-71346059D01*
X83406486Y-71316500D01*
X83406481Y-71316500D01*
X83217519Y-71316500D01*
X83217514Y-71316500D01*
X83030881Y-71346059D01*
X82851163Y-71404454D01*
X82682800Y-71490240D01*
X82595579Y-71553610D01*
X82529927Y-71601310D01*
X82529925Y-71601312D01*
X82529924Y-71601312D01*
X82396312Y-71734924D01*
X82396312Y-71734925D01*
X82396310Y-71734927D01*
X82387347Y-71747264D01*
X82285240Y-71887800D01*
X82199454Y-72056163D01*
X82141059Y-72235881D01*
X82111500Y-72422513D01*
X67063161Y-72422513D01*
X67067004Y-72398250D01*
X67067004Y-72398248D01*
X67086000Y-72278316D01*
X67086000Y-72073682D01*
X67053990Y-71871582D01*
X66990755Y-71676968D01*
X66897859Y-71494650D01*
X66865474Y-71450077D01*
X66865474Y-71450076D01*
X66186000Y-72129551D01*
X66186000Y-72123339D01*
X66158741Y-72021606D01*
X66106080Y-71930394D01*
X66031606Y-71855920D01*
X65940394Y-71803259D01*
X65838661Y-71776000D01*
X65832446Y-71776000D01*
X66480057Y-71128389D01*
X95906500Y-71128389D01*
X95906500Y-71301610D01*
X95930014Y-71450077D01*
X95933598Y-71472701D01*
X95987127Y-71637445D01*
X96065768Y-71791788D01*
X96167586Y-71931928D01*
X96290072Y-72054414D01*
X96430212Y-72156232D01*
X96584555Y-72234873D01*
X96749299Y-72288402D01*
X96920389Y-72315500D01*
X96920390Y-72315500D01*
X97643610Y-72315500D01*
X97643611Y-72315500D01*
X97814701Y-72288402D01*
X97979445Y-72234873D01*
X98133788Y-72156232D01*
X98273928Y-72054414D01*
X98396414Y-71931928D01*
X98498232Y-71791788D01*
X98576873Y-71637445D01*
X98630402Y-71472701D01*
X98657500Y-71301611D01*
X98657500Y-71128389D01*
X98630402Y-70957299D01*
X98576873Y-70792555D01*
X98498232Y-70638212D01*
X98396414Y-70498072D01*
X98288508Y-70390166D01*
X98255023Y-70328843D01*
X98260007Y-70259151D01*
X98301879Y-70203218D01*
X98311094Y-70196945D01*
X98375345Y-70157315D01*
X98499315Y-70033345D01*
X98591356Y-69884124D01*
X98591358Y-69884119D01*
X98646505Y-69717697D01*
X98646506Y-69717690D01*
X98656999Y-69614986D01*
X98657000Y-69614973D01*
X98657000Y-69465000D01*
X97562330Y-69465000D01*
X97582075Y-69445255D01*
X97631444Y-69359745D01*
X97657000Y-69264370D01*
X97657000Y-69165630D01*
X97631444Y-69070255D01*
X97582075Y-68984745D01*
X97562330Y-68965000D01*
X98656999Y-68965000D01*
X98656999Y-68815028D01*
X98656998Y-68815013D01*
X98646505Y-68712302D01*
X98591358Y-68545880D01*
X98591356Y-68545875D01*
X98499315Y-68396654D01*
X98375345Y-68272684D01*
X98226124Y-68180643D01*
X98226119Y-68180641D01*
X98059697Y-68125494D01*
X98059690Y-68125493D01*
X97956986Y-68115000D01*
X97532000Y-68115000D01*
X97532000Y-68934670D01*
X97512255Y-68914925D01*
X97426745Y-68865556D01*
X97331370Y-68840000D01*
X97232630Y-68840000D01*
X97137255Y-68865556D01*
X97051745Y-68914925D01*
X97032000Y-68934670D01*
X97032000Y-68115000D01*
X96607028Y-68115000D01*
X96607012Y-68115001D01*
X96504302Y-68125494D01*
X96337880Y-68180641D01*
X96337875Y-68180643D01*
X96188654Y-68272684D01*
X96064684Y-68396654D01*
X95972643Y-68545875D01*
X95972641Y-68545880D01*
X95917494Y-68712302D01*
X95917493Y-68712309D01*
X95907000Y-68815013D01*
X95907000Y-68965000D01*
X97001670Y-68965000D01*
X96981925Y-68984745D01*
X96932556Y-69070255D01*
X96907000Y-69165630D01*
X96907000Y-69264370D01*
X96932556Y-69359745D01*
X96981925Y-69445255D01*
X97001670Y-69465000D01*
X95907001Y-69465000D01*
X95907001Y-69614986D01*
X95917494Y-69717697D01*
X95972641Y-69884119D01*
X95972643Y-69884124D01*
X96064684Y-70033345D01*
X96188656Y-70157317D01*
X96252906Y-70196946D01*
X96299631Y-70248893D01*
X96310854Y-70317856D01*
X96283011Y-70381938D01*
X96275492Y-70390166D01*
X96167585Y-70498073D01*
X96065768Y-70638211D01*
X95987128Y-70792552D01*
X95933597Y-70957302D01*
X95906500Y-71128389D01*
X66480057Y-71128389D01*
X66511922Y-71096524D01*
X66511921Y-71096523D01*
X66467359Y-71064147D01*
X66467350Y-71064141D01*
X66285031Y-70971244D01*
X66090417Y-70908009D01*
X65888317Y-70876000D01*
X65683683Y-70876000D01*
X65481582Y-70908009D01*
X65286968Y-70971244D01*
X65104644Y-71064143D01*
X65060077Y-71096523D01*
X65060077Y-71096524D01*
X65739554Y-71776000D01*
X65733339Y-71776000D01*
X65631606Y-71803259D01*
X65540394Y-71855920D01*
X65465920Y-71930394D01*
X65413259Y-72021606D01*
X65386000Y-72123339D01*
X65386000Y-72129553D01*
X64706524Y-71450077D01*
X64706523Y-71450077D01*
X64674143Y-71494644D01*
X64581244Y-71676968D01*
X64518009Y-71871582D01*
X64486000Y-72073682D01*
X62708024Y-72073682D01*
X62692928Y-72058586D01*
X62552788Y-71956768D01*
X62417431Y-71887801D01*
X62398447Y-71878128D01*
X62398446Y-71878127D01*
X62398445Y-71878127D01*
X62233701Y-71824598D01*
X62233699Y-71824597D01*
X62233698Y-71824597D01*
X62098972Y-71803259D01*
X62062611Y-71797500D01*
X61889389Y-71797500D01*
X61853028Y-71803259D01*
X61718302Y-71824597D01*
X61553552Y-71878128D01*
X61404833Y-71953904D01*
X61336163Y-71966800D01*
X61283441Y-71948958D01*
X61145124Y-71863643D01*
X61145119Y-71863641D01*
X60978697Y-71808494D01*
X60978690Y-71808493D01*
X60875986Y-71798000D01*
X60726000Y-71798000D01*
X60726000Y-72731011D01*
X60716060Y-72713795D01*
X60660205Y-72657940D01*
X60591796Y-72618444D01*
X60515496Y-72598000D01*
X60436504Y-72598000D01*
X60360204Y-72618444D01*
X60291795Y-72657940D01*
X60235940Y-72713795D01*
X60196444Y-72782204D01*
X60176000Y-72858504D01*
X51223361Y-72858504D01*
X51257500Y-72642962D01*
X51257500Y-72498013D01*
X59376000Y-72498013D01*
X59376000Y-72648000D01*
X60226000Y-72648000D01*
X60226000Y-71798000D01*
X60076027Y-71798000D01*
X60076012Y-71798001D01*
X59973302Y-71808494D01*
X59806880Y-71863641D01*
X59806875Y-71863643D01*
X59657654Y-71955684D01*
X59533684Y-72079654D01*
X59441643Y-72228875D01*
X59441641Y-72228880D01*
X59386494Y-72395302D01*
X59386493Y-72395309D01*
X59376000Y-72498013D01*
X51257500Y-72498013D01*
X51257500Y-72391038D01*
X51218090Y-72142215D01*
X51140241Y-71902621D01*
X51140239Y-71902618D01*
X51140239Y-71902616D01*
X51091826Y-71807602D01*
X51025870Y-71678155D01*
X50996293Y-71637445D01*
X50877798Y-71474350D01*
X50877794Y-71474345D01*
X50699654Y-71296205D01*
X50699649Y-71296201D01*
X50629393Y-71245157D01*
X50629368Y-71245140D01*
X50495845Y-71148130D01*
X50462879Y-71131333D01*
X50456299Y-71126835D01*
X50452621Y-71122338D01*
X50438594Y-71112147D01*
X49827234Y-70500787D01*
X49869292Y-70489518D01*
X49994708Y-70417110D01*
X50097110Y-70314708D01*
X50169518Y-70189292D01*
X50180787Y-70147234D01*
X50951250Y-70917698D01*
X50951250Y-70917697D01*
X51025442Y-70815581D01*
X51025446Y-70815575D01*
X51139780Y-70591184D01*
X51217602Y-70351669D01*
X51257000Y-70102928D01*
X51257000Y-69851077D01*
X51256135Y-69845618D01*
X51256135Y-69845613D01*
X51217602Y-69602330D01*
X51139780Y-69362815D01*
X51025442Y-69138416D01*
X50957873Y-69045416D01*
X50934393Y-68979610D01*
X50950218Y-68911556D01*
X50972082Y-68886352D01*
X50970549Y-68884819D01*
X51015368Y-68840000D01*
X51099712Y-68755656D01*
X51139172Y-68691682D01*
X64359000Y-68691682D01*
X64359000Y-68896317D01*
X64391009Y-69098417D01*
X64454244Y-69293031D01*
X64547141Y-69475350D01*
X64547147Y-69475359D01*
X64579523Y-69519921D01*
X64579524Y-69519922D01*
X65259000Y-68840446D01*
X65259000Y-68846661D01*
X65286259Y-68948394D01*
X65338920Y-69039606D01*
X65413394Y-69114080D01*
X65504606Y-69166741D01*
X65606339Y-69194000D01*
X65612553Y-69194000D01*
X64933076Y-69873474D01*
X64977650Y-69905859D01*
X65159968Y-69998755D01*
X65354582Y-70061990D01*
X65556683Y-70094000D01*
X65761317Y-70094000D01*
X65963417Y-70061990D01*
X66158031Y-69998755D01*
X66340349Y-69905859D01*
X66384921Y-69873474D01*
X65705447Y-69194000D01*
X65711661Y-69194000D01*
X65813394Y-69166741D01*
X65904606Y-69114080D01*
X65979080Y-69039606D01*
X66031741Y-68948394D01*
X66059000Y-68846661D01*
X66059000Y-68840447D01*
X66738474Y-69519921D01*
X66770859Y-69475349D01*
X66863755Y-69293031D01*
X66926990Y-69098417D01*
X66959000Y-68896317D01*
X66959000Y-68691682D01*
X66926990Y-68489582D01*
X66863755Y-68294968D01*
X66770859Y-68112650D01*
X66738474Y-68068077D01*
X66738474Y-68068076D01*
X66059000Y-68747551D01*
X66059000Y-68741339D01*
X66031741Y-68639606D01*
X65979080Y-68548394D01*
X65904606Y-68473920D01*
X65813394Y-68421259D01*
X65711661Y-68394000D01*
X65705446Y-68394000D01*
X66384922Y-67714524D01*
X66384921Y-67714523D01*
X66340359Y-67682147D01*
X66340350Y-67682141D01*
X66158031Y-67589244D01*
X65963417Y-67526009D01*
X65761317Y-67494000D01*
X65556683Y-67494000D01*
X65354582Y-67526009D01*
X65159968Y-67589244D01*
X64977644Y-67682143D01*
X64933077Y-67714523D01*
X64933077Y-67714524D01*
X65612554Y-68394000D01*
X65606339Y-68394000D01*
X65504606Y-68421259D01*
X65413394Y-68473920D01*
X65338920Y-68548394D01*
X65286259Y-68639606D01*
X65259000Y-68741339D01*
X65259000Y-68747553D01*
X64579524Y-68068077D01*
X64579523Y-68068077D01*
X64547143Y-68112644D01*
X64454244Y-68294968D01*
X64391009Y-68489582D01*
X64359000Y-68691682D01*
X51139172Y-68691682D01*
X51191814Y-68606335D01*
X51246999Y-68439798D01*
X51257500Y-68337010D01*
X51257500Y-66536990D01*
X51256682Y-66528983D01*
X59375500Y-66528983D01*
X59375500Y-67329001D01*
X59375501Y-67329019D01*
X59386000Y-67431796D01*
X59386001Y-67431799D01*
X59413852Y-67515846D01*
X59441186Y-67598334D01*
X59533288Y-67747656D01*
X59657344Y-67871712D01*
X59806666Y-67963814D01*
X59973203Y-68018999D01*
X60075991Y-68029500D01*
X60876008Y-68029499D01*
X60876016Y-68029498D01*
X60876019Y-68029498D01*
X60932302Y-68023748D01*
X60978797Y-68018999D01*
X61145334Y-67963814D01*
X61284464Y-67877997D01*
X61351853Y-67859559D01*
X61405854Y-67873054D01*
X61553740Y-67948407D01*
X61718415Y-68001914D01*
X61889429Y-68029000D01*
X62062571Y-68029000D01*
X62233584Y-68001914D01*
X62398257Y-67948408D01*
X62552525Y-67869803D01*
X62558736Y-67865289D01*
X62558737Y-67865289D01*
X62542912Y-67849464D01*
X61917302Y-67223854D01*
X61936504Y-67229000D01*
X62015496Y-67229000D01*
X62091796Y-67208556D01*
X62160205Y-67169060D01*
X62216060Y-67113205D01*
X62255556Y-67044796D01*
X62276000Y-66968496D01*
X62276000Y-66928999D01*
X62329553Y-66928999D01*
X62329553Y-66929001D01*
X62912289Y-67511737D01*
X62912289Y-67511736D01*
X62916803Y-67505525D01*
X62995408Y-67351257D01*
X63048914Y-67186584D01*
X63076000Y-67015571D01*
X63076000Y-66842428D01*
X63048914Y-66671415D01*
X62995408Y-66506742D01*
X62916801Y-66352471D01*
X62912290Y-66346262D01*
X62912289Y-66346261D01*
X62329553Y-66928999D01*
X62276000Y-66928999D01*
X62276000Y-66889504D01*
X62255556Y-66813204D01*
X62216060Y-66744795D01*
X62160205Y-66688940D01*
X62091796Y-66649444D01*
X62015496Y-66629000D01*
X61936504Y-66629000D01*
X61917300Y-66634145D01*
X62558737Y-65992709D01*
X62552525Y-65988196D01*
X62398259Y-65909592D01*
X62233584Y-65856085D01*
X62062571Y-65829000D01*
X61889429Y-65829000D01*
X61718415Y-65856085D01*
X61553742Y-65909591D01*
X61405853Y-65984946D01*
X61337184Y-65997842D01*
X61284462Y-65980000D01*
X61145340Y-65894189D01*
X61145335Y-65894187D01*
X61145334Y-65894186D01*
X60978797Y-65839001D01*
X60978795Y-65839000D01*
X60876010Y-65828500D01*
X60075998Y-65828500D01*
X60075980Y-65828501D01*
X59973203Y-65839000D01*
X59973200Y-65839001D01*
X59806668Y-65894185D01*
X59806663Y-65894187D01*
X59657342Y-65986289D01*
X59533289Y-66110342D01*
X59441187Y-66259663D01*
X59441185Y-66259668D01*
X59423108Y-66314221D01*
X59386001Y-66426203D01*
X59386001Y-66426204D01*
X59386000Y-66426204D01*
X59375500Y-66528983D01*
X51256682Y-66528983D01*
X51246999Y-66434202D01*
X51191814Y-66267665D01*
X51099712Y-66118344D01*
X50975656Y-65994288D01*
X50838342Y-65909592D01*
X50826337Y-65902187D01*
X50826332Y-65902185D01*
X50824863Y-65901698D01*
X50659798Y-65847001D01*
X50659796Y-65847000D01*
X50557017Y-65836500D01*
X50557010Y-65836500D01*
X48756990Y-65836500D01*
X48756982Y-65836500D01*
X48654203Y-65847000D01*
X48654202Y-65847001D01*
X48614980Y-65859998D01*
X48487667Y-65902185D01*
X48487662Y-65902187D01*
X48338342Y-65994289D01*
X48214289Y-66118342D01*
X48122187Y-66267662D01*
X48122185Y-66267667D01*
X48096142Y-66346261D01*
X48067001Y-66434202D01*
X48067001Y-66434203D01*
X48067000Y-66434203D01*
X48056500Y-66536982D01*
X48056500Y-66993424D01*
X48036815Y-67060463D01*
X47984011Y-67106218D01*
X47914853Y-67116162D01*
X47851297Y-67087137D01*
X47829398Y-67062315D01*
X47738789Y-66926711D01*
X47738786Y-66926707D01*
X47627292Y-66815213D01*
X47627288Y-66815210D01*
X47496185Y-66727609D01*
X47496172Y-66727602D01*
X47350501Y-66667264D01*
X47350489Y-66667261D01*
X47195845Y-66636500D01*
X47195842Y-66636500D01*
X47038158Y-66636500D01*
X47038155Y-66636500D01*
X46883510Y-66667261D01*
X46883498Y-66667264D01*
X46737827Y-66727602D01*
X46737814Y-66727609D01*
X46606711Y-66815210D01*
X46606707Y-66815213D01*
X46495213Y-66926707D01*
X46495210Y-66926711D01*
X46407609Y-67057814D01*
X46407602Y-67057827D01*
X46347264Y-67203498D01*
X46347261Y-67203510D01*
X46316500Y-67358153D01*
X44950500Y-67358153D01*
X44950500Y-63135778D01*
X53844500Y-63135778D01*
X53844500Y-63356221D01*
X53878985Y-63573952D01*
X53947103Y-63783603D01*
X53947104Y-63783606D01*
X54015122Y-63917096D01*
X54032107Y-63950431D01*
X54047187Y-63980025D01*
X54176752Y-64158358D01*
X54176756Y-64158363D01*
X54332636Y-64314243D01*
X54332641Y-64314247D01*
X54488192Y-64427260D01*
X54510978Y-64443815D01*
X54602492Y-64490444D01*
X54707393Y-64543895D01*
X54707396Y-64543896D01*
X54812221Y-64577955D01*
X54917049Y-64612015D01*
X55134778Y-64646500D01*
X55134779Y-64646500D01*
X55355221Y-64646500D01*
X55355222Y-64646500D01*
X55572951Y-64612015D01*
X55782606Y-64543895D01*
X55979022Y-64443815D01*
X56157365Y-64314242D01*
X56313242Y-64158365D01*
X56442815Y-63980022D01*
X56542895Y-63783606D01*
X56553622Y-63750591D01*
X56572774Y-63691648D01*
X64358500Y-63691648D01*
X64358500Y-63896351D01*
X64390522Y-64098534D01*
X64453781Y-64293223D01*
X64546715Y-64475613D01*
X64667028Y-64641213D01*
X64811786Y-64785971D01*
X64949186Y-64885796D01*
X64977390Y-64906287D01*
X65093607Y-64965503D01*
X65159776Y-64999218D01*
X65159778Y-64999218D01*
X65159781Y-64999220D01*
X65264137Y-65033127D01*
X65354465Y-65062477D01*
X65455557Y-65078488D01*
X65556648Y-65094500D01*
X65556649Y-65094500D01*
X65761351Y-65094500D01*
X65761352Y-65094500D01*
X65963534Y-65062477D01*
X66158219Y-64999220D01*
X66340610Y-64906287D01*
X66433590Y-64838732D01*
X66506213Y-64785971D01*
X66506215Y-64785968D01*
X66506219Y-64785966D01*
X66650966Y-64641219D01*
X66650968Y-64641215D01*
X66650971Y-64641213D01*
X66712336Y-64556750D01*
X66771287Y-64475610D01*
X66864220Y-64293219D01*
X66927477Y-64098534D01*
X66959500Y-63896352D01*
X66959500Y-63691648D01*
X66940859Y-63573954D01*
X66927477Y-63489465D01*
X66867075Y-63303568D01*
X66864220Y-63294781D01*
X66864218Y-63294778D01*
X66864218Y-63294776D01*
X66830503Y-63228607D01*
X66771287Y-63112390D01*
X66763556Y-63101749D01*
X66650971Y-62946786D01*
X66506213Y-62802028D01*
X66340613Y-62681715D01*
X66340612Y-62681714D01*
X66340610Y-62681713D01*
X66283653Y-62652691D01*
X66158223Y-62588781D01*
X65963534Y-62525522D01*
X65788995Y-62497878D01*
X65761352Y-62493500D01*
X65556648Y-62493500D01*
X65532329Y-62497351D01*
X65354465Y-62525522D01*
X65159776Y-62588781D01*
X64977386Y-62681715D01*
X64811786Y-62802028D01*
X64667028Y-62946786D01*
X64546715Y-63112386D01*
X64453781Y-63294776D01*
X64390522Y-63489465D01*
X64358500Y-63691648D01*
X56572774Y-63691648D01*
X56586807Y-63648458D01*
X56586807Y-63648457D01*
X56611014Y-63573954D01*
X56611013Y-63573954D01*
X56611015Y-63573951D01*
X56645500Y-63356222D01*
X56645500Y-63135778D01*
X56611015Y-62918049D01*
X56542895Y-62708394D01*
X56542895Y-62708393D01*
X56481948Y-62588780D01*
X56442815Y-62511978D01*
X56413299Y-62471353D01*
X56313247Y-62333641D01*
X56313243Y-62333636D01*
X56157363Y-62177756D01*
X56157358Y-62177752D01*
X55979025Y-62048187D01*
X55979024Y-62048186D01*
X55979022Y-62048185D01*
X55916096Y-62016122D01*
X55782606Y-61948104D01*
X55782603Y-61948103D01*
X55572952Y-61879985D01*
X55464086Y-61862742D01*
X55355222Y-61845500D01*
X55134778Y-61845500D01*
X55062201Y-61856995D01*
X54917047Y-61879985D01*
X54707396Y-61948103D01*
X54707393Y-61948104D01*
X54510974Y-62048187D01*
X54332641Y-62177752D01*
X54332636Y-62177756D01*
X54176756Y-62333636D01*
X54176752Y-62333641D01*
X54047187Y-62511974D01*
X53947104Y-62708393D01*
X53947103Y-62708396D01*
X53878985Y-62918047D01*
X53844500Y-63135778D01*
X44950500Y-63135778D01*
X44950500Y-58816635D01*
X67206500Y-58816635D01*
X67206500Y-60817370D01*
X67206501Y-60817376D01*
X67212908Y-60876983D01*
X67263202Y-61011828D01*
X67263206Y-61011835D01*
X67349452Y-61127044D01*
X67349455Y-61127047D01*
X67464664Y-61213293D01*
X67464669Y-61213296D01*
X67492539Y-61223690D01*
X67548473Y-61265561D01*
X67572891Y-61331024D01*
X67558040Y-61399298D01*
X67549525Y-61412759D01*
X67416783Y-61595461D01*
X67312950Y-61799244D01*
X67242278Y-62016750D01*
X67242278Y-62016753D01*
X67216778Y-62177752D01*
X67206500Y-62242646D01*
X67206500Y-62471354D01*
X67215080Y-62525523D01*
X67242278Y-62697246D01*
X67242278Y-62697249D01*
X67312950Y-62914755D01*
X67329271Y-62946786D01*
X67416783Y-63118538D01*
X67551214Y-63303566D01*
X67712934Y-63465286D01*
X67746215Y-63489466D01*
X67797438Y-63526682D01*
X67840103Y-63582013D01*
X67846082Y-63651626D01*
X67813476Y-63713421D01*
X67797438Y-63727318D01*
X67712932Y-63788715D01*
X67551216Y-63950431D01*
X67551216Y-63950432D01*
X67551214Y-63950434D01*
X67550553Y-63951344D01*
X67416783Y-64135461D01*
X67312950Y-64339244D01*
X67242278Y-64556750D01*
X67242278Y-64556753D01*
X67206500Y-64782646D01*
X67206500Y-65011353D01*
X67242278Y-65237246D01*
X67242278Y-65237249D01*
X67312950Y-65454755D01*
X67312952Y-65454758D01*
X67416783Y-65658538D01*
X67551214Y-65843566D01*
X67712934Y-66005286D01*
X67897962Y-66139717D01*
X68101742Y-66243548D01*
X68101744Y-66243549D01*
X68319251Y-66314221D01*
X68319252Y-66314221D01*
X68319255Y-66314222D01*
X68545146Y-66350000D01*
X68545147Y-66350000D01*
X68868853Y-66350000D01*
X68868854Y-66350000D01*
X69094745Y-66314222D01*
X69094748Y-66314221D01*
X69094749Y-66314221D01*
X69312255Y-66243549D01*
X69312255Y-66243548D01*
X69312258Y-66243548D01*
X69516038Y-66139717D01*
X69701066Y-66005286D01*
X69862786Y-65843566D01*
X69997217Y-65658538D01*
X70101048Y-65454758D01*
X70160170Y-65272799D01*
X70171721Y-65237249D01*
X70171721Y-65237248D01*
X70171722Y-65237245D01*
X70207500Y-65011354D01*
X70207500Y-64782646D01*
X70171722Y-64556755D01*
X70171721Y-64556751D01*
X70171721Y-64556750D01*
X70122464Y-64405152D01*
X70111037Y-64369983D01*
X88981901Y-64369983D01*
X88981901Y-65170001D01*
X88981902Y-65170019D01*
X88992401Y-65272796D01*
X88992402Y-65272799D01*
X89047586Y-65439331D01*
X89047588Y-65439336D01*
X89082470Y-65495888D01*
X89139689Y-65588656D01*
X89263745Y-65712712D01*
X89413067Y-65804814D01*
X89579604Y-65859999D01*
X89682392Y-65870500D01*
X90482409Y-65870499D01*
X90482417Y-65870498D01*
X90482420Y-65870498D01*
X90538703Y-65864748D01*
X90585198Y-65859999D01*
X90751735Y-65804814D01*
X90890865Y-65718997D01*
X90958254Y-65700559D01*
X91012255Y-65714054D01*
X91160141Y-65789407D01*
X91324816Y-65842914D01*
X91495830Y-65870000D01*
X91668972Y-65870000D01*
X91839985Y-65842914D01*
X92004658Y-65789408D01*
X92158926Y-65710803D01*
X92165137Y-65706289D01*
X91523702Y-65064854D01*
X91542905Y-65070000D01*
X91621897Y-65070000D01*
X91698197Y-65049556D01*
X91766606Y-65010060D01*
X91822461Y-64954205D01*
X91861957Y-64885796D01*
X91882401Y-64809496D01*
X91882401Y-64769999D01*
X91935954Y-64769999D01*
X91935954Y-64770001D01*
X92518690Y-65352737D01*
X92518690Y-65352736D01*
X92523204Y-65346525D01*
X92601809Y-65192257D01*
X92655315Y-65027584D01*
X92682401Y-64856571D01*
X92682401Y-64683428D01*
X92655315Y-64512415D01*
X92601809Y-64347742D01*
X92523202Y-64193471D01*
X92518691Y-64187262D01*
X92518690Y-64187261D01*
X91935954Y-64769999D01*
X91882401Y-64769999D01*
X91882401Y-64730504D01*
X91861957Y-64654204D01*
X91822461Y-64585795D01*
X91766606Y-64529940D01*
X91698197Y-64490444D01*
X91621897Y-64470000D01*
X91542905Y-64470000D01*
X91523701Y-64475145D01*
X92165138Y-63833709D01*
X92158926Y-63829196D01*
X92004660Y-63750592D01*
X91839985Y-63697085D01*
X91668972Y-63670000D01*
X91495830Y-63670000D01*
X91324816Y-63697085D01*
X91160143Y-63750591D01*
X91012254Y-63825946D01*
X90943585Y-63838842D01*
X90890863Y-63821000D01*
X90751741Y-63735189D01*
X90751736Y-63735187D01*
X90751735Y-63735186D01*
X90585198Y-63680001D01*
X90585196Y-63680000D01*
X90482411Y-63669500D01*
X89682399Y-63669500D01*
X89682381Y-63669501D01*
X89579604Y-63680000D01*
X89579601Y-63680001D01*
X89413069Y-63735185D01*
X89413064Y-63735187D01*
X89263743Y-63827289D01*
X89139690Y-63951342D01*
X89047588Y-64100663D01*
X89047587Y-64100666D01*
X88992402Y-64267203D01*
X88992402Y-64267204D01*
X88992401Y-64267204D01*
X88981901Y-64369983D01*
X70111037Y-64369983D01*
X70101049Y-64339244D01*
X70023610Y-64187261D01*
X69997217Y-64135462D01*
X69862786Y-63950434D01*
X69701066Y-63788714D01*
X69616559Y-63727316D01*
X69573896Y-63671988D01*
X69567917Y-63602375D01*
X69600523Y-63540580D01*
X69616556Y-63526685D01*
X69701066Y-63465286D01*
X69862786Y-63303566D01*
X69997217Y-63118538D01*
X70101048Y-62914758D01*
X70168099Y-62708396D01*
X70171721Y-62697249D01*
X70171721Y-62697248D01*
X70171722Y-62697245D01*
X70207500Y-62471354D01*
X70207500Y-62242646D01*
X70171722Y-62016755D01*
X70171721Y-62016751D01*
X70171721Y-62016750D01*
X70101049Y-61799244D01*
X69997216Y-61595461D01*
X69864472Y-61412755D01*
X69840994Y-61346953D01*
X69856819Y-61278899D01*
X69906925Y-61230204D01*
X69921455Y-61223692D01*
X69949331Y-61213296D01*
X70064546Y-61127046D01*
X70150796Y-61011831D01*
X70201091Y-60876983D01*
X70207500Y-60817373D01*
X70207499Y-59603389D01*
X95906500Y-59603389D01*
X95906500Y-59776611D01*
X95933598Y-59947701D01*
X95987127Y-60112445D01*
X96065768Y-60266788D01*
X96167586Y-60406928D01*
X96290072Y-60529414D01*
X96430212Y-60631232D01*
X96584555Y-60709873D01*
X96749299Y-60763402D01*
X96920389Y-60790500D01*
X96920390Y-60790500D01*
X97643610Y-60790500D01*
X97643611Y-60790500D01*
X97814701Y-60763402D01*
X97979445Y-60709873D01*
X98133788Y-60631232D01*
X98273928Y-60529414D01*
X98396414Y-60406928D01*
X98498232Y-60266788D01*
X98576873Y-60112445D01*
X98630402Y-59947701D01*
X98657500Y-59776611D01*
X98657500Y-59603389D01*
X98630402Y-59432299D01*
X98576873Y-59267555D01*
X98498232Y-59113212D01*
X98396414Y-58973072D01*
X98288508Y-58865166D01*
X98255023Y-58803843D01*
X98260007Y-58734151D01*
X98301879Y-58678218D01*
X98311094Y-58671945D01*
X98375345Y-58632315D01*
X98499315Y-58508345D01*
X98591356Y-58359124D01*
X98591358Y-58359119D01*
X98646505Y-58192697D01*
X98646506Y-58192690D01*
X98656999Y-58089986D01*
X98657000Y-58089973D01*
X98657000Y-57940000D01*
X97562330Y-57940000D01*
X97582075Y-57920255D01*
X97631444Y-57834745D01*
X97657000Y-57739370D01*
X97657000Y-57640630D01*
X97631444Y-57545255D01*
X97582075Y-57459745D01*
X97562330Y-57440000D01*
X98656999Y-57440000D01*
X98656999Y-57290028D01*
X98656998Y-57290013D01*
X98646505Y-57187302D01*
X98591358Y-57020880D01*
X98591356Y-57020875D01*
X98499315Y-56871654D01*
X98375345Y-56747684D01*
X98226124Y-56655643D01*
X98226119Y-56655641D01*
X98059697Y-56600494D01*
X98059690Y-56600493D01*
X97956986Y-56590000D01*
X97532000Y-56590000D01*
X97532000Y-57409670D01*
X97512255Y-57389925D01*
X97426745Y-57340556D01*
X97331370Y-57315000D01*
X97232630Y-57315000D01*
X97137255Y-57340556D01*
X97051745Y-57389925D01*
X97032000Y-57409670D01*
X97032000Y-56590000D01*
X96607028Y-56590000D01*
X96607012Y-56590001D01*
X96504302Y-56600494D01*
X96337880Y-56655641D01*
X96337875Y-56655643D01*
X96188654Y-56747684D01*
X96064684Y-56871654D01*
X95972643Y-57020875D01*
X95972641Y-57020880D01*
X95917494Y-57187302D01*
X95917493Y-57187309D01*
X95907000Y-57290013D01*
X95907000Y-57440000D01*
X97001670Y-57440000D01*
X96981925Y-57459745D01*
X96932556Y-57545255D01*
X96907000Y-57640630D01*
X96907000Y-57739370D01*
X96932556Y-57834745D01*
X96981925Y-57920255D01*
X97001670Y-57940000D01*
X95907001Y-57940000D01*
X95907001Y-58089986D01*
X95917494Y-58192697D01*
X95972641Y-58359119D01*
X95972643Y-58359124D01*
X96064684Y-58508345D01*
X96188656Y-58632317D01*
X96252906Y-58671946D01*
X96299631Y-58723893D01*
X96310854Y-58792856D01*
X96283011Y-58856938D01*
X96275492Y-58865166D01*
X96167585Y-58973073D01*
X96065768Y-59113211D01*
X95987128Y-59267552D01*
X95933597Y-59432302D01*
X95906500Y-59603389D01*
X70207499Y-59603389D01*
X70207499Y-58816628D01*
X70201091Y-58757017D01*
X70198014Y-58748768D01*
X70150797Y-58622171D01*
X70150793Y-58622164D01*
X70064547Y-58506955D01*
X70064544Y-58506952D01*
X69949335Y-58420706D01*
X69949328Y-58420702D01*
X69814482Y-58370408D01*
X69814483Y-58370408D01*
X69754883Y-58364001D01*
X69754881Y-58364000D01*
X69754873Y-58364000D01*
X69754864Y-58364000D01*
X67659129Y-58364000D01*
X67659123Y-58364001D01*
X67599516Y-58370408D01*
X67464671Y-58420702D01*
X67464664Y-58420706D01*
X67349455Y-58506952D01*
X67349452Y-58506955D01*
X67263206Y-58622164D01*
X67263202Y-58622171D01*
X67212908Y-58757017D01*
X67207874Y-58803843D01*
X67206501Y-58816623D01*
X67206500Y-58816635D01*
X44950500Y-58816635D01*
X44950500Y-55515778D01*
X53844500Y-55515778D01*
X53844500Y-55736221D01*
X53878985Y-55953952D01*
X53947103Y-56163603D01*
X53947104Y-56163606D01*
X54015122Y-56297096D01*
X54035410Y-56336913D01*
X54047187Y-56360025D01*
X54176752Y-56538358D01*
X54176756Y-56538363D01*
X54332636Y-56694243D01*
X54332641Y-56694247D01*
X54406192Y-56747684D01*
X54510978Y-56823815D01*
X54639375Y-56889237D01*
X54707393Y-56923895D01*
X54707396Y-56923896D01*
X54812221Y-56957955D01*
X54917049Y-56992015D01*
X55134778Y-57026500D01*
X55134779Y-57026500D01*
X55355221Y-57026500D01*
X55355222Y-57026500D01*
X55572951Y-56992015D01*
X55782606Y-56923895D01*
X55979022Y-56823815D01*
X56157365Y-56694242D01*
X56313242Y-56538365D01*
X56442815Y-56360022D01*
X56542895Y-56163606D01*
X56611015Y-55953951D01*
X56645500Y-55736222D01*
X56645500Y-55515778D01*
X56611015Y-55298049D01*
X56542895Y-55088394D01*
X56542895Y-55088393D01*
X56508237Y-55020375D01*
X56442815Y-54891978D01*
X56354790Y-54770821D01*
X56313247Y-54713641D01*
X56313243Y-54713636D01*
X56157363Y-54557756D01*
X56157358Y-54557752D01*
X55979025Y-54428187D01*
X55979024Y-54428186D01*
X55979022Y-54428185D01*
X55916096Y-54396122D01*
X55782606Y-54328104D01*
X55782603Y-54328103D01*
X55572952Y-54259985D01*
X55464086Y-54242742D01*
X55355222Y-54225500D01*
X55134778Y-54225500D01*
X55062201Y-54236995D01*
X54917047Y-54259985D01*
X54707396Y-54328103D01*
X54707393Y-54328104D01*
X54510974Y-54428187D01*
X54332641Y-54557752D01*
X54332636Y-54557756D01*
X54176756Y-54713636D01*
X54176752Y-54713641D01*
X54047187Y-54891974D01*
X53947104Y-55088393D01*
X53947103Y-55088396D01*
X53878985Y-55298047D01*
X53844500Y-55515778D01*
X44950500Y-55515778D01*
X44950500Y-53458882D01*
X63607669Y-53458882D01*
X63607670Y-53458883D01*
X63633059Y-53477329D01*
X63801362Y-53563085D01*
X63980997Y-53621451D01*
X64167553Y-53651000D01*
X64356447Y-53651000D01*
X64543002Y-53621451D01*
X64722637Y-53563085D01*
X64890937Y-53477331D01*
X64916328Y-53458883D01*
X64916328Y-53458882D01*
X64262001Y-52804554D01*
X64262000Y-52804554D01*
X63607669Y-53458882D01*
X44950500Y-53458882D01*
X44950500Y-52356552D01*
X63062000Y-52356552D01*
X63062000Y-52545447D01*
X63091548Y-52732002D01*
X63149914Y-52911637D01*
X63235666Y-53079933D01*
X63254116Y-53105328D01*
X63908446Y-52451000D01*
X63908446Y-52450999D01*
X63862369Y-52404922D01*
X63912000Y-52404922D01*
X63912000Y-52497078D01*
X63935852Y-52586095D01*
X63981930Y-52665905D01*
X64047095Y-52731070D01*
X64126905Y-52777148D01*
X64215922Y-52801000D01*
X64308078Y-52801000D01*
X64397095Y-52777148D01*
X64476905Y-52731070D01*
X64542070Y-52665905D01*
X64588148Y-52586095D01*
X64612000Y-52497078D01*
X64612000Y-52450999D01*
X64615554Y-52450999D01*
X64615554Y-52451000D01*
X65269882Y-53105328D01*
X65269883Y-53105328D01*
X65288331Y-53079937D01*
X65374085Y-52911637D01*
X65432451Y-52732002D01*
X65462000Y-52545447D01*
X65462000Y-52356552D01*
X65461994Y-52356513D01*
X70681500Y-52356513D01*
X70681500Y-52545486D01*
X70711059Y-52732118D01*
X70769454Y-52911836D01*
X70855104Y-53079933D01*
X70855240Y-53080199D01*
X70966310Y-53233073D01*
X71099927Y-53366690D01*
X71252801Y-53477760D01*
X71332347Y-53518290D01*
X71421163Y-53563545D01*
X71421165Y-53563545D01*
X71421168Y-53563547D01*
X71517497Y-53594846D01*
X71600881Y-53621940D01*
X71787514Y-53651500D01*
X71787519Y-53651500D01*
X71976486Y-53651500D01*
X72163118Y-53621940D01*
X72164623Y-53621451D01*
X72342832Y-53563547D01*
X72511199Y-53477760D01*
X72664073Y-53366690D01*
X72797690Y-53233073D01*
X72908760Y-53080199D01*
X72994547Y-52911832D01*
X73052940Y-52732118D01*
X73060136Y-52686683D01*
X73082500Y-52545486D01*
X73082500Y-52356513D01*
X73052940Y-52169881D01*
X72994545Y-51990163D01*
X72949290Y-51901347D01*
X72908760Y-51821801D01*
X72797690Y-51668927D01*
X72664073Y-51535310D01*
X72511199Y-51424240D01*
X72342836Y-51338454D01*
X72163118Y-51280059D01*
X71976486Y-51250500D01*
X71976481Y-51250500D01*
X71787519Y-51250500D01*
X71787514Y-51250500D01*
X71600881Y-51280059D01*
X71421163Y-51338454D01*
X71252800Y-51424240D01*
X71183630Y-51474496D01*
X71099927Y-51535310D01*
X71099925Y-51535312D01*
X71099924Y-51535312D01*
X70966312Y-51668924D01*
X70966312Y-51668925D01*
X70966310Y-51668927D01*
X70918610Y-51734579D01*
X70855240Y-51821800D01*
X70769454Y-51990163D01*
X70711059Y-52169881D01*
X70681500Y-52356513D01*
X65461994Y-52356513D01*
X65432451Y-52169997D01*
X65374085Y-51990362D01*
X65288329Y-51822059D01*
X65269883Y-51796670D01*
X65269882Y-51796669D01*
X64615554Y-52450999D01*
X64612000Y-52450999D01*
X64612000Y-52404922D01*
X64588148Y-52315905D01*
X64542070Y-52236095D01*
X64476905Y-52170930D01*
X64397095Y-52124852D01*
X64308078Y-52101000D01*
X64215922Y-52101000D01*
X64126905Y-52124852D01*
X64047095Y-52170930D01*
X63981930Y-52236095D01*
X63935852Y-52315905D01*
X63912000Y-52404922D01*
X63862369Y-52404922D01*
X63254116Y-51796669D01*
X63254116Y-51796670D01*
X63235669Y-51822060D01*
X63149914Y-51990362D01*
X63091548Y-52169997D01*
X63062000Y-52356552D01*
X44950500Y-52356552D01*
X44950500Y-50170711D01*
X46155500Y-50170711D01*
X46155500Y-50413288D01*
X46184700Y-50635094D01*
X46187162Y-50653789D01*
X46194036Y-50679443D01*
X46249947Y-50888104D01*
X46342773Y-51112205D01*
X46342776Y-51112212D01*
X46464064Y-51322289D01*
X46464066Y-51322292D01*
X46464067Y-51322293D01*
X46611733Y-51514736D01*
X46611739Y-51514743D01*
X46783256Y-51686260D01*
X46783263Y-51686266D01*
X46846775Y-51735000D01*
X46975711Y-51833936D01*
X47185788Y-51955224D01*
X47409900Y-52048054D01*
X47644211Y-52110838D01*
X47824586Y-52134584D01*
X47884711Y-52142500D01*
X47884712Y-52142500D01*
X48127289Y-52142500D01*
X48175388Y-52136167D01*
X48367789Y-52110838D01*
X48602100Y-52048054D01*
X48826212Y-51955224D01*
X49036289Y-51833936D01*
X49228738Y-51686265D01*
X49400265Y-51514738D01*
X49547936Y-51322289D01*
X49669224Y-51112212D01*
X49762054Y-50888100D01*
X49824838Y-50653789D01*
X49856500Y-50413288D01*
X49856500Y-50170712D01*
X49856500Y-50170711D01*
X49856500Y-50170708D01*
X49854961Y-50159017D01*
X49853245Y-50145983D01*
X57343500Y-50145983D01*
X57343500Y-50946001D01*
X57343501Y-50946019D01*
X57354000Y-51048796D01*
X57354001Y-51048799D01*
X57375015Y-51112214D01*
X57409186Y-51215334D01*
X57501288Y-51364656D01*
X57625344Y-51488712D01*
X57774666Y-51580814D01*
X57941203Y-51635999D01*
X58043991Y-51646500D01*
X58844008Y-51646499D01*
X58844016Y-51646498D01*
X58844019Y-51646498D01*
X58900302Y-51640748D01*
X58946797Y-51635999D01*
X59113334Y-51580814D01*
X59252464Y-51494997D01*
X59319853Y-51476559D01*
X59373854Y-51490054D01*
X59521740Y-51565407D01*
X59686415Y-51618914D01*
X59857429Y-51646000D01*
X60030571Y-51646000D01*
X60201584Y-51618914D01*
X60366257Y-51565408D01*
X60520525Y-51486803D01*
X60526736Y-51482289D01*
X60526737Y-51482289D01*
X60487564Y-51443116D01*
X63607669Y-51443116D01*
X64262000Y-52097446D01*
X64262001Y-52097446D01*
X64916328Y-51443116D01*
X64890933Y-51424666D01*
X64722637Y-51338914D01*
X64543002Y-51280548D01*
X64356447Y-51251000D01*
X64167553Y-51251000D01*
X63980997Y-51280548D01*
X63801362Y-51338914D01*
X63633060Y-51424669D01*
X63607670Y-51443116D01*
X63607669Y-51443116D01*
X60487564Y-51443116D01*
X59885302Y-50840854D01*
X59904504Y-50846000D01*
X59983496Y-50846000D01*
X60059796Y-50825556D01*
X60128205Y-50786060D01*
X60184060Y-50730205D01*
X60223556Y-50661796D01*
X60244000Y-50585496D01*
X60244000Y-50545999D01*
X60297553Y-50545999D01*
X60297553Y-50546000D01*
X60880289Y-51128736D01*
X60884803Y-51122525D01*
X60929409Y-51034983D01*
X75758500Y-51034983D01*
X75758500Y-51835001D01*
X75758501Y-51835019D01*
X75769000Y-51937796D01*
X75769001Y-51937799D01*
X75824185Y-52104331D01*
X75824187Y-52104336D01*
X75847727Y-52142500D01*
X75916288Y-52253656D01*
X76040344Y-52377712D01*
X76189666Y-52469814D01*
X76356203Y-52524999D01*
X76458991Y-52535500D01*
X77259008Y-52535499D01*
X77259016Y-52535498D01*
X77259019Y-52535498D01*
X77315302Y-52529748D01*
X77361797Y-52524999D01*
X77528334Y-52469814D01*
X77667464Y-52383997D01*
X77734853Y-52365559D01*
X77788854Y-52379054D01*
X77936740Y-52454407D01*
X78101415Y-52507914D01*
X78272429Y-52535000D01*
X78445571Y-52535000D01*
X78616584Y-52507914D01*
X78781257Y-52454408D01*
X78935525Y-52375803D01*
X78941736Y-52371289D01*
X78300301Y-51729854D01*
X78319504Y-51735000D01*
X78398496Y-51735000D01*
X78474796Y-51714556D01*
X78543205Y-51675060D01*
X78599060Y-51619205D01*
X78638556Y-51550796D01*
X78659000Y-51474496D01*
X78659000Y-51434999D01*
X78712553Y-51434999D01*
X78712553Y-51435001D01*
X79295289Y-52017737D01*
X79295289Y-52017736D01*
X79299803Y-52011525D01*
X79378408Y-51857257D01*
X79431914Y-51692584D01*
X79459000Y-51521571D01*
X79459000Y-51348428D01*
X79431914Y-51177415D01*
X79378408Y-51012742D01*
X79299801Y-50858471D01*
X79295290Y-50852262D01*
X79295289Y-50852261D01*
X78712553Y-51434999D01*
X78659000Y-51434999D01*
X78659000Y-51395504D01*
X78638556Y-51319204D01*
X78599060Y-51250795D01*
X78543205Y-51194940D01*
X78474796Y-51155444D01*
X78398496Y-51135000D01*
X78319504Y-51135000D01*
X78300300Y-51140145D01*
X78821812Y-50618635D01*
X82206000Y-50618635D01*
X82206000Y-52214370D01*
X82206001Y-52214376D01*
X82212408Y-52273983D01*
X82262702Y-52408828D01*
X82262706Y-52408835D01*
X82348952Y-52524044D01*
X82348955Y-52524047D01*
X82464164Y-52610293D01*
X82464171Y-52610297D01*
X82599017Y-52660591D01*
X82599016Y-52660591D01*
X82605944Y-52661335D01*
X82658627Y-52667000D01*
X82723085Y-52666999D01*
X82790122Y-52686683D01*
X82835878Y-52739486D01*
X82845822Y-52808644D01*
X82816798Y-52872200D01*
X82795971Y-52891316D01*
X82642180Y-53003053D01*
X82503055Y-53142178D01*
X82387404Y-53301356D01*
X82298081Y-53476662D01*
X82237281Y-53663783D01*
X82230516Y-53706500D01*
X83423488Y-53706500D01*
X83390575Y-53763507D01*
X83356500Y-53890674D01*
X83356500Y-54022326D01*
X83390575Y-54149493D01*
X83423488Y-54206500D01*
X82230516Y-54206500D01*
X82237281Y-54249216D01*
X82298081Y-54436337D01*
X82387404Y-54611643D01*
X82503055Y-54770821D01*
X82642178Y-54909944D01*
X82801356Y-55025595D01*
X82978264Y-55115734D01*
X83029060Y-55163708D01*
X83045855Y-55231529D01*
X83023318Y-55297664D01*
X82978264Y-55336704D01*
X82801094Y-55426976D01*
X82710241Y-55492985D01*
X82641854Y-55542672D01*
X82641852Y-55542674D01*
X82641851Y-55542674D01*
X82502674Y-55681851D01*
X82502674Y-55681852D01*
X82502672Y-55681854D01*
X82463172Y-55736221D01*
X82386976Y-55841094D01*
X82297617Y-56016470D01*
X82236790Y-56203673D01*
X82206000Y-56398077D01*
X82206000Y-56594922D01*
X82236790Y-56789326D01*
X82297617Y-56976529D01*
X82323079Y-57026500D01*
X82386976Y-57151905D01*
X82502672Y-57311146D01*
X82641854Y-57450328D01*
X82801095Y-57566024D01*
X82883955Y-57608243D01*
X82976470Y-57655382D01*
X82976472Y-57655382D01*
X82976475Y-57655384D01*
X83076817Y-57687987D01*
X83163673Y-57716209D01*
X83358078Y-57747000D01*
X83358083Y-57747000D01*
X84354922Y-57747000D01*
X84549326Y-57716209D01*
X84736525Y-57655384D01*
X84911905Y-57566024D01*
X85071146Y-57450328D01*
X85210328Y-57311146D01*
X85326024Y-57151905D01*
X85415384Y-56976525D01*
X85476209Y-56789326D01*
X85507000Y-56594922D01*
X85507000Y-56398077D01*
X85476209Y-56203673D01*
X85415382Y-56016470D01*
X85326023Y-55841094D01*
X85210328Y-55681854D01*
X85071146Y-55542672D01*
X84911905Y-55426976D01*
X84736525Y-55337616D01*
X84736524Y-55337615D01*
X84734735Y-55336704D01*
X84683939Y-55288730D01*
X84667144Y-55220909D01*
X84689681Y-55154774D01*
X84734736Y-55115734D01*
X84911641Y-55025597D01*
X85070821Y-54909944D01*
X85209944Y-54770821D01*
X85325595Y-54611643D01*
X85414918Y-54436337D01*
X85475718Y-54249216D01*
X85482484Y-54206500D01*
X84289512Y-54206500D01*
X84322425Y-54149493D01*
X84356500Y-54022326D01*
X84356500Y-53890674D01*
X84322425Y-53763507D01*
X84289512Y-53706500D01*
X85482484Y-53706500D01*
X85475718Y-53663783D01*
X85414918Y-53476662D01*
X85325595Y-53301356D01*
X85209944Y-53142178D01*
X85070822Y-53003056D01*
X84917028Y-52891317D01*
X84874363Y-52835987D01*
X84868384Y-52766373D01*
X84900990Y-52704578D01*
X84961829Y-52670221D01*
X84989913Y-52666999D01*
X85054372Y-52666999D01*
X85113983Y-52660591D01*
X85248831Y-52610296D01*
X85364046Y-52524046D01*
X85450296Y-52408831D01*
X85500591Y-52273983D01*
X85507000Y-52214373D01*
X85506999Y-50618628D01*
X85500591Y-50559017D01*
X85476414Y-50494196D01*
X85450297Y-50424171D01*
X85450293Y-50424164D01*
X85364047Y-50308955D01*
X85306559Y-50265919D01*
X85279950Y-50246000D01*
X85248831Y-50222704D01*
X85248829Y-50222703D01*
X85248828Y-50222702D01*
X85113982Y-50172408D01*
X85113983Y-50172408D01*
X85098197Y-50170711D01*
X95558500Y-50170711D01*
X95558500Y-50413288D01*
X95587700Y-50635094D01*
X95590162Y-50653789D01*
X95597036Y-50679443D01*
X95652947Y-50888104D01*
X95745773Y-51112205D01*
X95745776Y-51112212D01*
X95867064Y-51322289D01*
X95867066Y-51322292D01*
X95867067Y-51322293D01*
X96014733Y-51514736D01*
X96014739Y-51514743D01*
X96186256Y-51686260D01*
X96186263Y-51686266D01*
X96249775Y-51735000D01*
X96378711Y-51833936D01*
X96588788Y-51955224D01*
X96812900Y-52048054D01*
X97047211Y-52110838D01*
X97227586Y-52134584D01*
X97287711Y-52142500D01*
X97287712Y-52142500D01*
X97530289Y-52142500D01*
X97578388Y-52136167D01*
X97770789Y-52110838D01*
X98005100Y-52048054D01*
X98229212Y-51955224D01*
X98439289Y-51833936D01*
X98631738Y-51686265D01*
X98803265Y-51514738D01*
X98950936Y-51322289D01*
X99072224Y-51112212D01*
X99165054Y-50888100D01*
X99227838Y-50653789D01*
X99259500Y-50413288D01*
X99259500Y-50170712D01*
X99259499Y-50170708D01*
X99251584Y-50110586D01*
X99227838Y-49930211D01*
X99165054Y-49695900D01*
X99072224Y-49471788D01*
X98950936Y-49261711D01*
X98803265Y-49069262D01*
X98803260Y-49069256D01*
X98631743Y-48897739D01*
X98631736Y-48897733D01*
X98439293Y-48750067D01*
X98439292Y-48750066D01*
X98439289Y-48750064D01*
X98229212Y-48628776D01*
X98210256Y-48620924D01*
X98005104Y-48535947D01*
X97823597Y-48487312D01*
X97770789Y-48473162D01*
X97770788Y-48473161D01*
X97770785Y-48473161D01*
X97530289Y-48441500D01*
X97530288Y-48441500D01*
X97287712Y-48441500D01*
X97287711Y-48441500D01*
X97047214Y-48473161D01*
X96812895Y-48535947D01*
X96588794Y-48628773D01*
X96588785Y-48628777D01*
X96378706Y-48750067D01*
X96186263Y-48897733D01*
X96186256Y-48897739D01*
X96014739Y-49069256D01*
X96014733Y-49069263D01*
X95867067Y-49261706D01*
X95745777Y-49471785D01*
X95745773Y-49471794D01*
X95652947Y-49695895D01*
X95590161Y-49930214D01*
X95558500Y-50170711D01*
X85098197Y-50170711D01*
X85054383Y-50166001D01*
X85054381Y-50166000D01*
X85054373Y-50166000D01*
X85054364Y-50166000D01*
X82658629Y-50166000D01*
X82658623Y-50166001D01*
X82599016Y-50172408D01*
X82464171Y-50222702D01*
X82464164Y-50222706D01*
X82348955Y-50308952D01*
X82348952Y-50308955D01*
X82262706Y-50424164D01*
X82262702Y-50424171D01*
X82212408Y-50559017D01*
X82206245Y-50616344D01*
X82206001Y-50618623D01*
X82206000Y-50618635D01*
X78821812Y-50618635D01*
X78912822Y-50527625D01*
X78941737Y-50498709D01*
X78935525Y-50494196D01*
X78781259Y-50415592D01*
X78616584Y-50362085D01*
X78445571Y-50335000D01*
X78272429Y-50335000D01*
X78101415Y-50362085D01*
X77936742Y-50415591D01*
X77788853Y-50490946D01*
X77720184Y-50503842D01*
X77667462Y-50486000D01*
X77528340Y-50400189D01*
X77528335Y-50400187D01*
X77528334Y-50400186D01*
X77361797Y-50345001D01*
X77361795Y-50345000D01*
X77259010Y-50334500D01*
X76458998Y-50334500D01*
X76458980Y-50334501D01*
X76356203Y-50345000D01*
X76356200Y-50345001D01*
X76189668Y-50400185D01*
X76189663Y-50400187D01*
X76040342Y-50492289D01*
X75916289Y-50616342D01*
X75824187Y-50765663D01*
X75824186Y-50765666D01*
X75769001Y-50932203D01*
X75769001Y-50932204D01*
X75769000Y-50932204D01*
X75758500Y-51034983D01*
X60929409Y-51034983D01*
X60959698Y-50975539D01*
X60959698Y-50975538D01*
X60963407Y-50968257D01*
X61016914Y-50803584D01*
X61044000Y-50632571D01*
X61044000Y-50459428D01*
X61016914Y-50288415D01*
X60963408Y-50123742D01*
X60884801Y-49969471D01*
X60880290Y-49963262D01*
X60880289Y-49963261D01*
X60297553Y-50545999D01*
X60244000Y-50545999D01*
X60244000Y-50506504D01*
X60223556Y-50430204D01*
X60184060Y-50361795D01*
X60128205Y-50305940D01*
X60059796Y-50266444D01*
X59983496Y-50246000D01*
X59904504Y-50246000D01*
X59885300Y-50251145D01*
X60526737Y-49609709D01*
X60520525Y-49605196D01*
X60366259Y-49526592D01*
X60201584Y-49473085D01*
X60030571Y-49446000D01*
X59857429Y-49446000D01*
X59686415Y-49473085D01*
X59521742Y-49526591D01*
X59373853Y-49601946D01*
X59305184Y-49614842D01*
X59252462Y-49597000D01*
X59113340Y-49511189D01*
X59113335Y-49511187D01*
X59113334Y-49511186D01*
X58946797Y-49456001D01*
X58946795Y-49456000D01*
X58844010Y-49445500D01*
X58043998Y-49445500D01*
X58043980Y-49445501D01*
X57941203Y-49456000D01*
X57941200Y-49456001D01*
X57774668Y-49511185D01*
X57774663Y-49511187D01*
X57625342Y-49603289D01*
X57501289Y-49727342D01*
X57409187Y-49876663D01*
X57409186Y-49876666D01*
X57354001Y-50043203D01*
X57354001Y-50043204D01*
X57354000Y-50043204D01*
X57343500Y-50145983D01*
X49853245Y-50145983D01*
X49836235Y-50016787D01*
X49824838Y-49930211D01*
X49762054Y-49695900D01*
X49669224Y-49471788D01*
X49574957Y-49308513D01*
X63061500Y-49308513D01*
X63061500Y-49497486D01*
X63091059Y-49684118D01*
X63149454Y-49863836D01*
X63235240Y-50032199D01*
X63346310Y-50185073D01*
X63479927Y-50318690D01*
X63632801Y-50429760D01*
X63691028Y-50459428D01*
X63801163Y-50515545D01*
X63801165Y-50515545D01*
X63801168Y-50515547D01*
X63894889Y-50545999D01*
X63980881Y-50573940D01*
X64167514Y-50603500D01*
X64167519Y-50603500D01*
X64356486Y-50603500D01*
X64543118Y-50573940D01*
X64722832Y-50515547D01*
X64891199Y-50429760D01*
X65044073Y-50318690D01*
X65177690Y-50185073D01*
X65288760Y-50032199D01*
X65374547Y-49863832D01*
X65432940Y-49684118D01*
X65446738Y-49597000D01*
X65462500Y-49497486D01*
X65462500Y-49308513D01*
X70681500Y-49308513D01*
X70681500Y-49497486D01*
X70711059Y-49684118D01*
X70769454Y-49863836D01*
X70855240Y-50032199D01*
X70966310Y-50185073D01*
X71099927Y-50318690D01*
X71252801Y-50429760D01*
X71311028Y-50459428D01*
X71421163Y-50515545D01*
X71421165Y-50515545D01*
X71421168Y-50515547D01*
X71514889Y-50545999D01*
X71600881Y-50573940D01*
X71787514Y-50603500D01*
X71787519Y-50603500D01*
X71976486Y-50603500D01*
X72163118Y-50573940D01*
X72342832Y-50515547D01*
X72511199Y-50429760D01*
X72664073Y-50318690D01*
X72797690Y-50185073D01*
X72908760Y-50032199D01*
X72994547Y-49863832D01*
X73052940Y-49684118D01*
X73066738Y-49597000D01*
X73082500Y-49497486D01*
X73082500Y-49308513D01*
X73052940Y-49121881D01*
X72994545Y-48942163D01*
X72908759Y-48773800D01*
X72891514Y-48750064D01*
X72797690Y-48620927D01*
X72664073Y-48487310D01*
X72511199Y-48376240D01*
X72342836Y-48290454D01*
X72163118Y-48232059D01*
X71976486Y-48202500D01*
X71976481Y-48202500D01*
X71787519Y-48202500D01*
X71787514Y-48202500D01*
X71600881Y-48232059D01*
X71421163Y-48290454D01*
X71252800Y-48376240D01*
X71165579Y-48439610D01*
X71099927Y-48487310D01*
X71099925Y-48487312D01*
X71099924Y-48487312D01*
X70966312Y-48620924D01*
X70966312Y-48620925D01*
X70966310Y-48620927D01*
X70960607Y-48628777D01*
X70855240Y-48773800D01*
X70769454Y-48942163D01*
X70711059Y-49121881D01*
X70681500Y-49308513D01*
X65462500Y-49308513D01*
X65432940Y-49121881D01*
X65374545Y-48942163D01*
X65288759Y-48773800D01*
X65271514Y-48750064D01*
X65177690Y-48620927D01*
X65044073Y-48487310D01*
X64891199Y-48376240D01*
X64722836Y-48290454D01*
X64543118Y-48232059D01*
X64356486Y-48202500D01*
X64356481Y-48202500D01*
X64167519Y-48202500D01*
X64167514Y-48202500D01*
X63980881Y-48232059D01*
X63801163Y-48290454D01*
X63632800Y-48376240D01*
X63545579Y-48439610D01*
X63479927Y-48487310D01*
X63479925Y-48487312D01*
X63479924Y-48487312D01*
X63346312Y-48620924D01*
X63346312Y-48620925D01*
X63346310Y-48620927D01*
X63340607Y-48628777D01*
X63235240Y-48773800D01*
X63149454Y-48942163D01*
X63091059Y-49121881D01*
X63061500Y-49308513D01*
X49574957Y-49308513D01*
X49547936Y-49261711D01*
X49400265Y-49069262D01*
X49400260Y-49069256D01*
X49228743Y-48897739D01*
X49228736Y-48897733D01*
X49036293Y-48750067D01*
X49036292Y-48750066D01*
X49036289Y-48750064D01*
X48826212Y-48628776D01*
X48807256Y-48620924D01*
X48602104Y-48535947D01*
X48420597Y-48487312D01*
X48367789Y-48473162D01*
X48367788Y-48473161D01*
X48367785Y-48473161D01*
X48127289Y-48441500D01*
X48127288Y-48441500D01*
X47884712Y-48441500D01*
X47884711Y-48441500D01*
X47644214Y-48473161D01*
X47409895Y-48535947D01*
X47185794Y-48628773D01*
X47185785Y-48628777D01*
X46975706Y-48750067D01*
X46783263Y-48897733D01*
X46783256Y-48897739D01*
X46611739Y-49069256D01*
X46611733Y-49069263D01*
X46464067Y-49261706D01*
X46342777Y-49471785D01*
X46342773Y-49471794D01*
X46249947Y-49695895D01*
X46187161Y-49930214D01*
X46155500Y-50170711D01*
X44950500Y-50170711D01*
X44950500Y-47360500D01*
X44970185Y-47293461D01*
X45022989Y-47247706D01*
X45074500Y-47236500D01*
X100340500Y-47236500D01*
X100407539Y-47256185D01*
G37*
%TD.AperFunction*%
%TD*%
M02*
