%TF.GenerationSoftware,KiCad,Pcbnew,9.0.7*%
%TF.CreationDate,2026-01-19T21:17:24-05:00*%
%TF.ProjectId,dac,6461632e-6b69-4636-9164-5f7063625858,rev?*%
%TF.SameCoordinates,Original*%
%TF.FileFunction,Legend,Top*%
%TF.FilePolarity,Positive*%
%FSLAX46Y46*%
G04 Gerber Fmt 4.6, Leading zero omitted, Abs format (unit mm)*
G04 Created by KiCad (PCBNEW 9.0.7) date 2026-01-19 21:17:24*
%MOMM*%
%LPD*%
G01*
G04 APERTURE LIST*
%ADD10C,0.100000*%
%ADD11C,0.150000*%
%ADD12C,0.254000*%
%ADD13C,0.120000*%
%ADD14C,0.250000*%
%ADD15C,0.127000*%
%ADD16C,0.200000*%
G04 APERTURE END LIST*
D10*
X123000000Y-92227500D02*
X123500000Y-90750000D01*
X123500000Y-90750000D02*
X123000000Y-91000000D01*
X136250000Y-75500000D02*
X145500000Y-75500000D01*
X145500000Y-83250000D01*
X136250000Y-83250000D01*
X136250000Y-75500000D01*
X123500000Y-90750000D02*
X123750000Y-91250000D01*
X103553884Y-85241466D02*
X104315789Y-85241466D01*
X103934836Y-85622419D02*
X103934836Y-84860514D01*
X105268169Y-84622419D02*
X104791979Y-84622419D01*
X104791979Y-84622419D02*
X104744360Y-85098609D01*
X104744360Y-85098609D02*
X104791979Y-85050990D01*
X104791979Y-85050990D02*
X104887217Y-85003371D01*
X104887217Y-85003371D02*
X105125312Y-85003371D01*
X105125312Y-85003371D02*
X105220550Y-85050990D01*
X105220550Y-85050990D02*
X105268169Y-85098609D01*
X105268169Y-85098609D02*
X105315788Y-85193847D01*
X105315788Y-85193847D02*
X105315788Y-85431942D01*
X105315788Y-85431942D02*
X105268169Y-85527180D01*
X105268169Y-85527180D02*
X105220550Y-85574800D01*
X105220550Y-85574800D02*
X105125312Y-85622419D01*
X105125312Y-85622419D02*
X104887217Y-85622419D01*
X104887217Y-85622419D02*
X104791979Y-85574800D01*
X104791979Y-85574800D02*
X104744360Y-85527180D01*
X105601503Y-84622419D02*
X105934836Y-85622419D01*
X105934836Y-85622419D02*
X106268169Y-84622419D01*
X151327693Y-102920038D02*
X151232455Y-102872419D01*
X151232455Y-102872419D02*
X151089598Y-102872419D01*
X151089598Y-102872419D02*
X150946741Y-102920038D01*
X150946741Y-102920038D02*
X150851503Y-103015276D01*
X150851503Y-103015276D02*
X150803884Y-103110514D01*
X150803884Y-103110514D02*
X150756265Y-103300990D01*
X150756265Y-103300990D02*
X150756265Y-103443847D01*
X150756265Y-103443847D02*
X150803884Y-103634323D01*
X150803884Y-103634323D02*
X150851503Y-103729561D01*
X150851503Y-103729561D02*
X150946741Y-103824800D01*
X150946741Y-103824800D02*
X151089598Y-103872419D01*
X151089598Y-103872419D02*
X151184836Y-103872419D01*
X151184836Y-103872419D02*
X151327693Y-103824800D01*
X151327693Y-103824800D02*
X151375312Y-103777180D01*
X151375312Y-103777180D02*
X151375312Y-103443847D01*
X151375312Y-103443847D02*
X151184836Y-103443847D01*
X151803884Y-103872419D02*
X151803884Y-102872419D01*
X151803884Y-102872419D02*
X152375312Y-103872419D01*
X152375312Y-103872419D02*
X152375312Y-102872419D01*
X152851503Y-103872419D02*
X152851503Y-102872419D01*
X152851503Y-102872419D02*
X153089598Y-102872419D01*
X153089598Y-102872419D02*
X153232455Y-102920038D01*
X153232455Y-102920038D02*
X153327693Y-103015276D01*
X153327693Y-103015276D02*
X153375312Y-103110514D01*
X153375312Y-103110514D02*
X153422931Y-103300990D01*
X153422931Y-103300990D02*
X153422931Y-103443847D01*
X153422931Y-103443847D02*
X153375312Y-103634323D01*
X153375312Y-103634323D02*
X153327693Y-103729561D01*
X153327693Y-103729561D02*
X153232455Y-103824800D01*
X153232455Y-103824800D02*
X153089598Y-103872419D01*
X153089598Y-103872419D02*
X152851503Y-103872419D01*
X145077693Y-78372419D02*
X144506265Y-78372419D01*
X144791979Y-78372419D02*
X144791979Y-77372419D01*
X144791979Y-77372419D02*
X144696741Y-77515276D01*
X144696741Y-77515276D02*
X144601503Y-77610514D01*
X144601503Y-77610514D02*
X144506265Y-77658133D01*
X147122419Y-87196115D02*
X146122419Y-87196115D01*
X146217657Y-86767544D02*
X146170038Y-86719925D01*
X146170038Y-86719925D02*
X146122419Y-86624687D01*
X146122419Y-86624687D02*
X146122419Y-86386592D01*
X146122419Y-86386592D02*
X146170038Y-86291354D01*
X146170038Y-86291354D02*
X146217657Y-86243735D01*
X146217657Y-86243735D02*
X146312895Y-86196116D01*
X146312895Y-86196116D02*
X146408133Y-86196116D01*
X146408133Y-86196116D02*
X146550990Y-86243735D01*
X146550990Y-86243735D02*
X147122419Y-86815163D01*
X147122419Y-86815163D02*
X147122419Y-86196116D01*
X147027180Y-85196116D02*
X147074800Y-85243735D01*
X147074800Y-85243735D02*
X147122419Y-85386592D01*
X147122419Y-85386592D02*
X147122419Y-85481830D01*
X147122419Y-85481830D02*
X147074800Y-85624687D01*
X147074800Y-85624687D02*
X146979561Y-85719925D01*
X146979561Y-85719925D02*
X146884323Y-85767544D01*
X146884323Y-85767544D02*
X146693847Y-85815163D01*
X146693847Y-85815163D02*
X146550990Y-85815163D01*
X146550990Y-85815163D02*
X146360514Y-85767544D01*
X146360514Y-85767544D02*
X146265276Y-85719925D01*
X146265276Y-85719925D02*
X146170038Y-85624687D01*
X146170038Y-85624687D02*
X146122419Y-85481830D01*
X146122419Y-85481830D02*
X146122419Y-85386592D01*
X146122419Y-85386592D02*
X146170038Y-85243735D01*
X146170038Y-85243735D02*
X146217657Y-85196116D01*
X146053884Y-76512475D02*
X146053884Y-75512475D01*
X146482455Y-75607713D02*
X146530074Y-75560094D01*
X146530074Y-75560094D02*
X146625312Y-75512475D01*
X146625312Y-75512475D02*
X146863407Y-75512475D01*
X146863407Y-75512475D02*
X146958645Y-75560094D01*
X146958645Y-75560094D02*
X147006264Y-75607713D01*
X147006264Y-75607713D02*
X147053883Y-75702951D01*
X147053883Y-75702951D02*
X147053883Y-75798189D01*
X147053883Y-75798189D02*
X147006264Y-75941046D01*
X147006264Y-75941046D02*
X146434836Y-76512475D01*
X146434836Y-76512475D02*
X147053883Y-76512475D01*
X148053883Y-76417236D02*
X148006264Y-76464856D01*
X148006264Y-76464856D02*
X147863407Y-76512475D01*
X147863407Y-76512475D02*
X147768169Y-76512475D01*
X147768169Y-76512475D02*
X147625312Y-76464856D01*
X147625312Y-76464856D02*
X147530074Y-76369617D01*
X147530074Y-76369617D02*
X147482455Y-76274379D01*
X147482455Y-76274379D02*
X147434836Y-76083903D01*
X147434836Y-76083903D02*
X147434836Y-75941046D01*
X147434836Y-75941046D02*
X147482455Y-75750570D01*
X147482455Y-75750570D02*
X147530074Y-75655332D01*
X147530074Y-75655332D02*
X147625312Y-75560094D01*
X147625312Y-75560094D02*
X147768169Y-75512475D01*
X147768169Y-75512475D02*
X147863407Y-75512475D01*
X147863407Y-75512475D02*
X148006264Y-75560094D01*
X148006264Y-75560094D02*
X148053883Y-75607713D01*
X146006265Y-77836704D02*
X146482455Y-77836704D01*
X145911027Y-78122419D02*
X146244360Y-77122419D01*
X146244360Y-77122419D02*
X146577693Y-78122419D01*
X146911027Y-78122419D02*
X146911027Y-77122419D01*
X146911027Y-77122419D02*
X147149122Y-77122419D01*
X147149122Y-77122419D02*
X147291979Y-77170038D01*
X147291979Y-77170038D02*
X147387217Y-77265276D01*
X147387217Y-77265276D02*
X147434836Y-77360514D01*
X147434836Y-77360514D02*
X147482455Y-77550990D01*
X147482455Y-77550990D02*
X147482455Y-77693847D01*
X147482455Y-77693847D02*
X147434836Y-77884323D01*
X147434836Y-77884323D02*
X147387217Y-77979561D01*
X147387217Y-77979561D02*
X147291979Y-78074800D01*
X147291979Y-78074800D02*
X147149122Y-78122419D01*
X147149122Y-78122419D02*
X146911027Y-78122419D01*
X147911027Y-78122419D02*
X147911027Y-77122419D01*
X147911027Y-77122419D02*
X148149122Y-77122419D01*
X148149122Y-77122419D02*
X148291979Y-77170038D01*
X148291979Y-77170038D02*
X148387217Y-77265276D01*
X148387217Y-77265276D02*
X148434836Y-77360514D01*
X148434836Y-77360514D02*
X148482455Y-77550990D01*
X148482455Y-77550990D02*
X148482455Y-77693847D01*
X148482455Y-77693847D02*
X148434836Y-77884323D01*
X148434836Y-77884323D02*
X148387217Y-77979561D01*
X148387217Y-77979561D02*
X148291979Y-78074800D01*
X148291979Y-78074800D02*
X148149122Y-78122419D01*
X148149122Y-78122419D02*
X147911027Y-78122419D01*
X149482455Y-78122419D02*
X149149122Y-77646228D01*
X148911027Y-78122419D02*
X148911027Y-77122419D01*
X148911027Y-77122419D02*
X149291979Y-77122419D01*
X149291979Y-77122419D02*
X149387217Y-77170038D01*
X149387217Y-77170038D02*
X149434836Y-77217657D01*
X149434836Y-77217657D02*
X149482455Y-77312895D01*
X149482455Y-77312895D02*
X149482455Y-77455752D01*
X149482455Y-77455752D02*
X149434836Y-77550990D01*
X149434836Y-77550990D02*
X149387217Y-77598609D01*
X149387217Y-77598609D02*
X149291979Y-77646228D01*
X149291979Y-77646228D02*
X148911027Y-77646228D01*
X104327693Y-95670038D02*
X104232455Y-95622419D01*
X104232455Y-95622419D02*
X104089598Y-95622419D01*
X104089598Y-95622419D02*
X103946741Y-95670038D01*
X103946741Y-95670038D02*
X103851503Y-95765276D01*
X103851503Y-95765276D02*
X103803884Y-95860514D01*
X103803884Y-95860514D02*
X103756265Y-96050990D01*
X103756265Y-96050990D02*
X103756265Y-96193847D01*
X103756265Y-96193847D02*
X103803884Y-96384323D01*
X103803884Y-96384323D02*
X103851503Y-96479561D01*
X103851503Y-96479561D02*
X103946741Y-96574800D01*
X103946741Y-96574800D02*
X104089598Y-96622419D01*
X104089598Y-96622419D02*
X104184836Y-96622419D01*
X104184836Y-96622419D02*
X104327693Y-96574800D01*
X104327693Y-96574800D02*
X104375312Y-96527180D01*
X104375312Y-96527180D02*
X104375312Y-96193847D01*
X104375312Y-96193847D02*
X104184836Y-96193847D01*
X104803884Y-96622419D02*
X104803884Y-95622419D01*
X104803884Y-95622419D02*
X105375312Y-96622419D01*
X105375312Y-96622419D02*
X105375312Y-95622419D01*
X105851503Y-96622419D02*
X105851503Y-95622419D01*
X105851503Y-95622419D02*
X106089598Y-95622419D01*
X106089598Y-95622419D02*
X106232455Y-95670038D01*
X106232455Y-95670038D02*
X106327693Y-95765276D01*
X106327693Y-95765276D02*
X106375312Y-95860514D01*
X106375312Y-95860514D02*
X106422931Y-96050990D01*
X106422931Y-96050990D02*
X106422931Y-96193847D01*
X106422931Y-96193847D02*
X106375312Y-96384323D01*
X106375312Y-96384323D02*
X106327693Y-96479561D01*
X106327693Y-96479561D02*
X106232455Y-96574800D01*
X106232455Y-96574800D02*
X106089598Y-96622419D01*
X106089598Y-96622419D02*
X105851503Y-96622419D01*
X153827693Y-83170038D02*
X153732455Y-83122419D01*
X153732455Y-83122419D02*
X153589598Y-83122419D01*
X153589598Y-83122419D02*
X153446741Y-83170038D01*
X153446741Y-83170038D02*
X153351503Y-83265276D01*
X153351503Y-83265276D02*
X153303884Y-83360514D01*
X153303884Y-83360514D02*
X153256265Y-83550990D01*
X153256265Y-83550990D02*
X153256265Y-83693847D01*
X153256265Y-83693847D02*
X153303884Y-83884323D01*
X153303884Y-83884323D02*
X153351503Y-83979561D01*
X153351503Y-83979561D02*
X153446741Y-84074800D01*
X153446741Y-84074800D02*
X153589598Y-84122419D01*
X153589598Y-84122419D02*
X153684836Y-84122419D01*
X153684836Y-84122419D02*
X153827693Y-84074800D01*
X153827693Y-84074800D02*
X153875312Y-84027180D01*
X153875312Y-84027180D02*
X153875312Y-83693847D01*
X153875312Y-83693847D02*
X153684836Y-83693847D01*
X154303884Y-84122419D02*
X154303884Y-83122419D01*
X154303884Y-83122419D02*
X154875312Y-84122419D01*
X154875312Y-84122419D02*
X154875312Y-83122419D01*
X155351503Y-84122419D02*
X155351503Y-83122419D01*
X155351503Y-83122419D02*
X155589598Y-83122419D01*
X155589598Y-83122419D02*
X155732455Y-83170038D01*
X155732455Y-83170038D02*
X155827693Y-83265276D01*
X155827693Y-83265276D02*
X155875312Y-83360514D01*
X155875312Y-83360514D02*
X155922931Y-83550990D01*
X155922931Y-83550990D02*
X155922931Y-83693847D01*
X155922931Y-83693847D02*
X155875312Y-83884323D01*
X155875312Y-83884323D02*
X155827693Y-83979561D01*
X155827693Y-83979561D02*
X155732455Y-84074800D01*
X155732455Y-84074800D02*
X155589598Y-84122419D01*
X155589598Y-84122419D02*
X155351503Y-84122419D01*
X153256265Y-89324800D02*
X153399122Y-89372419D01*
X153399122Y-89372419D02*
X153637217Y-89372419D01*
X153637217Y-89372419D02*
X153732455Y-89324800D01*
X153732455Y-89324800D02*
X153780074Y-89277180D01*
X153780074Y-89277180D02*
X153827693Y-89181942D01*
X153827693Y-89181942D02*
X153827693Y-89086704D01*
X153827693Y-89086704D02*
X153780074Y-88991466D01*
X153780074Y-88991466D02*
X153732455Y-88943847D01*
X153732455Y-88943847D02*
X153637217Y-88896228D01*
X153637217Y-88896228D02*
X153446741Y-88848609D01*
X153446741Y-88848609D02*
X153351503Y-88800990D01*
X153351503Y-88800990D02*
X153303884Y-88753371D01*
X153303884Y-88753371D02*
X153256265Y-88658133D01*
X153256265Y-88658133D02*
X153256265Y-88562895D01*
X153256265Y-88562895D02*
X153303884Y-88467657D01*
X153303884Y-88467657D02*
X153351503Y-88420038D01*
X153351503Y-88420038D02*
X153446741Y-88372419D01*
X153446741Y-88372419D02*
X153684836Y-88372419D01*
X153684836Y-88372419D02*
X153827693Y-88420038D01*
X154827693Y-89277180D02*
X154780074Y-89324800D01*
X154780074Y-89324800D02*
X154637217Y-89372419D01*
X154637217Y-89372419D02*
X154541979Y-89372419D01*
X154541979Y-89372419D02*
X154399122Y-89324800D01*
X154399122Y-89324800D02*
X154303884Y-89229561D01*
X154303884Y-89229561D02*
X154256265Y-89134323D01*
X154256265Y-89134323D02*
X154208646Y-88943847D01*
X154208646Y-88943847D02*
X154208646Y-88800990D01*
X154208646Y-88800990D02*
X154256265Y-88610514D01*
X154256265Y-88610514D02*
X154303884Y-88515276D01*
X154303884Y-88515276D02*
X154399122Y-88420038D01*
X154399122Y-88420038D02*
X154541979Y-88372419D01*
X154541979Y-88372419D02*
X154637217Y-88372419D01*
X154637217Y-88372419D02*
X154780074Y-88420038D01*
X154780074Y-88420038D02*
X154827693Y-88467657D01*
X155732455Y-89372419D02*
X155256265Y-89372419D01*
X155256265Y-89372419D02*
X155256265Y-88372419D01*
D11*
X105738095Y-122236065D02*
X105880952Y-122283684D01*
X105880952Y-122283684D02*
X105928571Y-122331303D01*
X105928571Y-122331303D02*
X105976190Y-122426541D01*
X105976190Y-122426541D02*
X105976190Y-122569398D01*
X105976190Y-122569398D02*
X105928571Y-122664636D01*
X105928571Y-122664636D02*
X105880952Y-122712256D01*
X105880952Y-122712256D02*
X105785714Y-122759875D01*
X105785714Y-122759875D02*
X105404762Y-122759875D01*
X105404762Y-122759875D02*
X105404762Y-121759875D01*
X105404762Y-121759875D02*
X105738095Y-121759875D01*
X105738095Y-121759875D02*
X105833333Y-121807494D01*
X105833333Y-121807494D02*
X105880952Y-121855113D01*
X105880952Y-121855113D02*
X105928571Y-121950351D01*
X105928571Y-121950351D02*
X105928571Y-122045589D01*
X105928571Y-122045589D02*
X105880952Y-122140827D01*
X105880952Y-122140827D02*
X105833333Y-122188446D01*
X105833333Y-122188446D02*
X105738095Y-122236065D01*
X105738095Y-122236065D02*
X105404762Y-122236065D01*
X106547619Y-122759875D02*
X106452381Y-122712256D01*
X106452381Y-122712256D02*
X106404762Y-122664636D01*
X106404762Y-122664636D02*
X106357143Y-122569398D01*
X106357143Y-122569398D02*
X106357143Y-122283684D01*
X106357143Y-122283684D02*
X106404762Y-122188446D01*
X106404762Y-122188446D02*
X106452381Y-122140827D01*
X106452381Y-122140827D02*
X106547619Y-122093208D01*
X106547619Y-122093208D02*
X106690476Y-122093208D01*
X106690476Y-122093208D02*
X106785714Y-122140827D01*
X106785714Y-122140827D02*
X106833333Y-122188446D01*
X106833333Y-122188446D02*
X106880952Y-122283684D01*
X106880952Y-122283684D02*
X106880952Y-122569398D01*
X106880952Y-122569398D02*
X106833333Y-122664636D01*
X106833333Y-122664636D02*
X106785714Y-122712256D01*
X106785714Y-122712256D02*
X106690476Y-122759875D01*
X106690476Y-122759875D02*
X106547619Y-122759875D01*
X107738095Y-122093208D02*
X107738095Y-122902732D01*
X107738095Y-122902732D02*
X107690476Y-122997970D01*
X107690476Y-122997970D02*
X107642857Y-123045589D01*
X107642857Y-123045589D02*
X107547619Y-123093208D01*
X107547619Y-123093208D02*
X107404762Y-123093208D01*
X107404762Y-123093208D02*
X107309524Y-123045589D01*
X107738095Y-122712256D02*
X107642857Y-122759875D01*
X107642857Y-122759875D02*
X107452381Y-122759875D01*
X107452381Y-122759875D02*
X107357143Y-122712256D01*
X107357143Y-122712256D02*
X107309524Y-122664636D01*
X107309524Y-122664636D02*
X107261905Y-122569398D01*
X107261905Y-122569398D02*
X107261905Y-122283684D01*
X107261905Y-122283684D02*
X107309524Y-122188446D01*
X107309524Y-122188446D02*
X107357143Y-122140827D01*
X107357143Y-122140827D02*
X107452381Y-122093208D01*
X107452381Y-122093208D02*
X107642857Y-122093208D01*
X107642857Y-122093208D02*
X107738095Y-122140827D01*
X108214286Y-122759875D02*
X108214286Y-121759875D01*
X108214286Y-121759875D02*
X108452381Y-121759875D01*
X108452381Y-121759875D02*
X108595238Y-121807494D01*
X108595238Y-121807494D02*
X108690476Y-121902732D01*
X108690476Y-121902732D02*
X108738095Y-121997970D01*
X108738095Y-121997970D02*
X108785714Y-122188446D01*
X108785714Y-122188446D02*
X108785714Y-122331303D01*
X108785714Y-122331303D02*
X108738095Y-122521779D01*
X108738095Y-122521779D02*
X108690476Y-122617017D01*
X108690476Y-122617017D02*
X108595238Y-122712256D01*
X108595238Y-122712256D02*
X108452381Y-122759875D01*
X108452381Y-122759875D02*
X108214286Y-122759875D01*
X109166667Y-122474160D02*
X109642857Y-122474160D01*
X109071429Y-122759875D02*
X109404762Y-121759875D01*
X109404762Y-121759875D02*
X109738095Y-122759875D01*
X110642857Y-122664636D02*
X110595238Y-122712256D01*
X110595238Y-122712256D02*
X110452381Y-122759875D01*
X110452381Y-122759875D02*
X110357143Y-122759875D01*
X110357143Y-122759875D02*
X110214286Y-122712256D01*
X110214286Y-122712256D02*
X110119048Y-122617017D01*
X110119048Y-122617017D02*
X110071429Y-122521779D01*
X110071429Y-122521779D02*
X110023810Y-122331303D01*
X110023810Y-122331303D02*
X110023810Y-122188446D01*
X110023810Y-122188446D02*
X110071429Y-121997970D01*
X110071429Y-121997970D02*
X110119048Y-121902732D01*
X110119048Y-121902732D02*
X110214286Y-121807494D01*
X110214286Y-121807494D02*
X110357143Y-121759875D01*
X110357143Y-121759875D02*
X110452381Y-121759875D01*
X110452381Y-121759875D02*
X110595238Y-121807494D01*
X110595238Y-121807494D02*
X110642857Y-121855113D01*
X106571429Y-123703152D02*
X106809524Y-124369819D01*
X106809524Y-124369819D02*
X107047619Y-123703152D01*
X107619048Y-123369819D02*
X107714286Y-123369819D01*
X107714286Y-123369819D02*
X107809524Y-123417438D01*
X107809524Y-123417438D02*
X107857143Y-123465057D01*
X107857143Y-123465057D02*
X107904762Y-123560295D01*
X107904762Y-123560295D02*
X107952381Y-123750771D01*
X107952381Y-123750771D02*
X107952381Y-123988866D01*
X107952381Y-123988866D02*
X107904762Y-124179342D01*
X107904762Y-124179342D02*
X107857143Y-124274580D01*
X107857143Y-124274580D02*
X107809524Y-124322200D01*
X107809524Y-124322200D02*
X107714286Y-124369819D01*
X107714286Y-124369819D02*
X107619048Y-124369819D01*
X107619048Y-124369819D02*
X107523810Y-124322200D01*
X107523810Y-124322200D02*
X107476191Y-124274580D01*
X107476191Y-124274580D02*
X107428572Y-124179342D01*
X107428572Y-124179342D02*
X107380953Y-123988866D01*
X107380953Y-123988866D02*
X107380953Y-123750771D01*
X107380953Y-123750771D02*
X107428572Y-123560295D01*
X107428572Y-123560295D02*
X107476191Y-123465057D01*
X107476191Y-123465057D02*
X107523810Y-123417438D01*
X107523810Y-123417438D02*
X107619048Y-123369819D01*
X108380953Y-124274580D02*
X108428572Y-124322200D01*
X108428572Y-124322200D02*
X108380953Y-124369819D01*
X108380953Y-124369819D02*
X108333334Y-124322200D01*
X108333334Y-124322200D02*
X108380953Y-124274580D01*
X108380953Y-124274580D02*
X108380953Y-124369819D01*
X109380952Y-124369819D02*
X108809524Y-124369819D01*
X109095238Y-124369819D02*
X109095238Y-123369819D01*
X109095238Y-123369819D02*
X109000000Y-123512676D01*
X109000000Y-123512676D02*
X108904762Y-123607914D01*
X108904762Y-123607914D02*
X108809524Y-123655533D01*
D10*
X104077693Y-87170038D02*
X103982455Y-87122419D01*
X103982455Y-87122419D02*
X103839598Y-87122419D01*
X103839598Y-87122419D02*
X103696741Y-87170038D01*
X103696741Y-87170038D02*
X103601503Y-87265276D01*
X103601503Y-87265276D02*
X103553884Y-87360514D01*
X103553884Y-87360514D02*
X103506265Y-87550990D01*
X103506265Y-87550990D02*
X103506265Y-87693847D01*
X103506265Y-87693847D02*
X103553884Y-87884323D01*
X103553884Y-87884323D02*
X103601503Y-87979561D01*
X103601503Y-87979561D02*
X103696741Y-88074800D01*
X103696741Y-88074800D02*
X103839598Y-88122419D01*
X103839598Y-88122419D02*
X103934836Y-88122419D01*
X103934836Y-88122419D02*
X104077693Y-88074800D01*
X104077693Y-88074800D02*
X104125312Y-88027180D01*
X104125312Y-88027180D02*
X104125312Y-87693847D01*
X104125312Y-87693847D02*
X103934836Y-87693847D01*
X104553884Y-88122419D02*
X104553884Y-87122419D01*
X104553884Y-87122419D02*
X105125312Y-88122419D01*
X105125312Y-88122419D02*
X105125312Y-87122419D01*
X105601503Y-88122419D02*
X105601503Y-87122419D01*
X105601503Y-87122419D02*
X105839598Y-87122419D01*
X105839598Y-87122419D02*
X105982455Y-87170038D01*
X105982455Y-87170038D02*
X106077693Y-87265276D01*
X106077693Y-87265276D02*
X106125312Y-87360514D01*
X106125312Y-87360514D02*
X106172931Y-87550990D01*
X106172931Y-87550990D02*
X106172931Y-87693847D01*
X106172931Y-87693847D02*
X106125312Y-87884323D01*
X106125312Y-87884323D02*
X106077693Y-87979561D01*
X106077693Y-87979561D02*
X105982455Y-88074800D01*
X105982455Y-88074800D02*
X105839598Y-88122419D01*
X105839598Y-88122419D02*
X105601503Y-88122419D01*
X153256265Y-86574800D02*
X153399122Y-86622419D01*
X153399122Y-86622419D02*
X153637217Y-86622419D01*
X153637217Y-86622419D02*
X153732455Y-86574800D01*
X153732455Y-86574800D02*
X153780074Y-86527180D01*
X153780074Y-86527180D02*
X153827693Y-86431942D01*
X153827693Y-86431942D02*
X153827693Y-86336704D01*
X153827693Y-86336704D02*
X153780074Y-86241466D01*
X153780074Y-86241466D02*
X153732455Y-86193847D01*
X153732455Y-86193847D02*
X153637217Y-86146228D01*
X153637217Y-86146228D02*
X153446741Y-86098609D01*
X153446741Y-86098609D02*
X153351503Y-86050990D01*
X153351503Y-86050990D02*
X153303884Y-86003371D01*
X153303884Y-86003371D02*
X153256265Y-85908133D01*
X153256265Y-85908133D02*
X153256265Y-85812895D01*
X153256265Y-85812895D02*
X153303884Y-85717657D01*
X153303884Y-85717657D02*
X153351503Y-85670038D01*
X153351503Y-85670038D02*
X153446741Y-85622419D01*
X153446741Y-85622419D02*
X153684836Y-85622419D01*
X153684836Y-85622419D02*
X153827693Y-85670038D01*
X154827693Y-86527180D02*
X154780074Y-86574800D01*
X154780074Y-86574800D02*
X154637217Y-86622419D01*
X154637217Y-86622419D02*
X154541979Y-86622419D01*
X154541979Y-86622419D02*
X154399122Y-86574800D01*
X154399122Y-86574800D02*
X154303884Y-86479561D01*
X154303884Y-86479561D02*
X154256265Y-86384323D01*
X154256265Y-86384323D02*
X154208646Y-86193847D01*
X154208646Y-86193847D02*
X154208646Y-86050990D01*
X154208646Y-86050990D02*
X154256265Y-85860514D01*
X154256265Y-85860514D02*
X154303884Y-85765276D01*
X154303884Y-85765276D02*
X154399122Y-85670038D01*
X154399122Y-85670038D02*
X154541979Y-85622419D01*
X154541979Y-85622419D02*
X154637217Y-85622419D01*
X154637217Y-85622419D02*
X154780074Y-85670038D01*
X154780074Y-85670038D02*
X154827693Y-85717657D01*
X155208646Y-86336704D02*
X155684836Y-86336704D01*
X155113408Y-86622419D02*
X155446741Y-85622419D01*
X155446741Y-85622419D02*
X155780074Y-86622419D01*
X102803884Y-98741466D02*
X103565789Y-98741466D01*
X104565788Y-99122419D02*
X103994360Y-99122419D01*
X104280074Y-99122419D02*
X104280074Y-98122419D01*
X104280074Y-98122419D02*
X104184836Y-98265276D01*
X104184836Y-98265276D02*
X104089598Y-98360514D01*
X104089598Y-98360514D02*
X103994360Y-98408133D01*
X105470550Y-98122419D02*
X104994360Y-98122419D01*
X104994360Y-98122419D02*
X104946741Y-98598609D01*
X104946741Y-98598609D02*
X104994360Y-98550990D01*
X104994360Y-98550990D02*
X105089598Y-98503371D01*
X105089598Y-98503371D02*
X105327693Y-98503371D01*
X105327693Y-98503371D02*
X105422931Y-98550990D01*
X105422931Y-98550990D02*
X105470550Y-98598609D01*
X105470550Y-98598609D02*
X105518169Y-98693847D01*
X105518169Y-98693847D02*
X105518169Y-98931942D01*
X105518169Y-98931942D02*
X105470550Y-99027180D01*
X105470550Y-99027180D02*
X105422931Y-99074800D01*
X105422931Y-99074800D02*
X105327693Y-99122419D01*
X105327693Y-99122419D02*
X105089598Y-99122419D01*
X105089598Y-99122419D02*
X104994360Y-99074800D01*
X104994360Y-99074800D02*
X104946741Y-99027180D01*
X105803884Y-98122419D02*
X106137217Y-99122419D01*
X106137217Y-99122419D02*
X106470550Y-98122419D01*
X102803884Y-94241466D02*
X103565789Y-94241466D01*
X103184836Y-94622419D02*
X103184836Y-93860514D01*
X104565788Y-94622419D02*
X103994360Y-94622419D01*
X104280074Y-94622419D02*
X104280074Y-93622419D01*
X104280074Y-93622419D02*
X104184836Y-93765276D01*
X104184836Y-93765276D02*
X104089598Y-93860514D01*
X104089598Y-93860514D02*
X103994360Y-93908133D01*
X105470550Y-93622419D02*
X104994360Y-93622419D01*
X104994360Y-93622419D02*
X104946741Y-94098609D01*
X104946741Y-94098609D02*
X104994360Y-94050990D01*
X104994360Y-94050990D02*
X105089598Y-94003371D01*
X105089598Y-94003371D02*
X105327693Y-94003371D01*
X105327693Y-94003371D02*
X105422931Y-94050990D01*
X105422931Y-94050990D02*
X105470550Y-94098609D01*
X105470550Y-94098609D02*
X105518169Y-94193847D01*
X105518169Y-94193847D02*
X105518169Y-94431942D01*
X105518169Y-94431942D02*
X105470550Y-94527180D01*
X105470550Y-94527180D02*
X105422931Y-94574800D01*
X105422931Y-94574800D02*
X105327693Y-94622419D01*
X105327693Y-94622419D02*
X105089598Y-94622419D01*
X105089598Y-94622419D02*
X104994360Y-94574800D01*
X104994360Y-94574800D02*
X104946741Y-94527180D01*
X105803884Y-93622419D02*
X106137217Y-94622419D01*
X106137217Y-94622419D02*
X106470550Y-93622419D01*
X142006265Y-82836704D02*
X142482455Y-82836704D01*
X141911027Y-83122419D02*
X142244360Y-82122419D01*
X142244360Y-82122419D02*
X142577693Y-83122419D01*
X143434836Y-83122419D02*
X142863408Y-83122419D01*
X143149122Y-83122419D02*
X143149122Y-82122419D01*
X143149122Y-82122419D02*
X143053884Y-82265276D01*
X143053884Y-82265276D02*
X142958646Y-82360514D01*
X142958646Y-82360514D02*
X142863408Y-82408133D01*
X153387217Y-99848609D02*
X153530074Y-99896228D01*
X153530074Y-99896228D02*
X153577693Y-99943847D01*
X153577693Y-99943847D02*
X153625312Y-100039085D01*
X153625312Y-100039085D02*
X153625312Y-100181942D01*
X153625312Y-100181942D02*
X153577693Y-100277180D01*
X153577693Y-100277180D02*
X153530074Y-100324800D01*
X153530074Y-100324800D02*
X153434836Y-100372419D01*
X153434836Y-100372419D02*
X153053884Y-100372419D01*
X153053884Y-100372419D02*
X153053884Y-99372419D01*
X153053884Y-99372419D02*
X153387217Y-99372419D01*
X153387217Y-99372419D02*
X153482455Y-99420038D01*
X153482455Y-99420038D02*
X153530074Y-99467657D01*
X153530074Y-99467657D02*
X153577693Y-99562895D01*
X153577693Y-99562895D02*
X153577693Y-99658133D01*
X153577693Y-99658133D02*
X153530074Y-99753371D01*
X153530074Y-99753371D02*
X153482455Y-99800990D01*
X153482455Y-99800990D02*
X153387217Y-99848609D01*
X153387217Y-99848609D02*
X153053884Y-99848609D01*
X154625312Y-100277180D02*
X154577693Y-100324800D01*
X154577693Y-100324800D02*
X154434836Y-100372419D01*
X154434836Y-100372419D02*
X154339598Y-100372419D01*
X154339598Y-100372419D02*
X154196741Y-100324800D01*
X154196741Y-100324800D02*
X154101503Y-100229561D01*
X154101503Y-100229561D02*
X154053884Y-100134323D01*
X154053884Y-100134323D02*
X154006265Y-99943847D01*
X154006265Y-99943847D02*
X154006265Y-99800990D01*
X154006265Y-99800990D02*
X154053884Y-99610514D01*
X154053884Y-99610514D02*
X154101503Y-99515276D01*
X154101503Y-99515276D02*
X154196741Y-99420038D01*
X154196741Y-99420038D02*
X154339598Y-99372419D01*
X154339598Y-99372419D02*
X154434836Y-99372419D01*
X154434836Y-99372419D02*
X154577693Y-99420038D01*
X154577693Y-99420038D02*
X154625312Y-99467657D01*
X155530074Y-100372419D02*
X155053884Y-100372419D01*
X155053884Y-100372419D02*
X155053884Y-99372419D01*
X155863408Y-100372419D02*
X155863408Y-99372419D01*
X156434836Y-100372419D02*
X156006265Y-99800990D01*
X156434836Y-99372419D02*
X155863408Y-99943847D01*
X153053884Y-96122419D02*
X153053884Y-95122419D01*
X153053884Y-95122419D02*
X153291979Y-95122419D01*
X153291979Y-95122419D02*
X153434836Y-95170038D01*
X153434836Y-95170038D02*
X153530074Y-95265276D01*
X153530074Y-95265276D02*
X153577693Y-95360514D01*
X153577693Y-95360514D02*
X153625312Y-95550990D01*
X153625312Y-95550990D02*
X153625312Y-95693847D01*
X153625312Y-95693847D02*
X153577693Y-95884323D01*
X153577693Y-95884323D02*
X153530074Y-95979561D01*
X153530074Y-95979561D02*
X153434836Y-96074800D01*
X153434836Y-96074800D02*
X153291979Y-96122419D01*
X153291979Y-96122419D02*
X153053884Y-96122419D01*
X154006265Y-95836704D02*
X154482455Y-95836704D01*
X153911027Y-96122419D02*
X154244360Y-95122419D01*
X154244360Y-95122419D02*
X154577693Y-96122419D01*
X154768170Y-95122419D02*
X155339598Y-95122419D01*
X155053884Y-96122419D02*
X155053884Y-95122419D01*
X155625313Y-95836704D02*
X156101503Y-95836704D01*
X155530075Y-96122419D02*
X155863408Y-95122419D01*
X155863408Y-95122419D02*
X156196741Y-96122419D01*
X153577693Y-93170038D02*
X153482455Y-93122419D01*
X153482455Y-93122419D02*
X153339598Y-93122419D01*
X153339598Y-93122419D02*
X153196741Y-93170038D01*
X153196741Y-93170038D02*
X153101503Y-93265276D01*
X153101503Y-93265276D02*
X153053884Y-93360514D01*
X153053884Y-93360514D02*
X153006265Y-93550990D01*
X153006265Y-93550990D02*
X153006265Y-93693847D01*
X153006265Y-93693847D02*
X153053884Y-93884323D01*
X153053884Y-93884323D02*
X153101503Y-93979561D01*
X153101503Y-93979561D02*
X153196741Y-94074800D01*
X153196741Y-94074800D02*
X153339598Y-94122419D01*
X153339598Y-94122419D02*
X153434836Y-94122419D01*
X153434836Y-94122419D02*
X153577693Y-94074800D01*
X153577693Y-94074800D02*
X153625312Y-94027180D01*
X153625312Y-94027180D02*
X153625312Y-93693847D01*
X153625312Y-93693847D02*
X153434836Y-93693847D01*
X154053884Y-94122419D02*
X154053884Y-93122419D01*
X154053884Y-93122419D02*
X154625312Y-94122419D01*
X154625312Y-94122419D02*
X154625312Y-93122419D01*
X155101503Y-94122419D02*
X155101503Y-93122419D01*
X155101503Y-93122419D02*
X155339598Y-93122419D01*
X155339598Y-93122419D02*
X155482455Y-93170038D01*
X155482455Y-93170038D02*
X155577693Y-93265276D01*
X155577693Y-93265276D02*
X155625312Y-93360514D01*
X155625312Y-93360514D02*
X155672931Y-93550990D01*
X155672931Y-93550990D02*
X155672931Y-93693847D01*
X155672931Y-93693847D02*
X155625312Y-93884323D01*
X155625312Y-93884323D02*
X155577693Y-93979561D01*
X155577693Y-93979561D02*
X155482455Y-94074800D01*
X155482455Y-94074800D02*
X155339598Y-94122419D01*
X155339598Y-94122419D02*
X155101503Y-94122419D01*
X147372419Y-97446115D02*
X146372419Y-97446115D01*
X146467657Y-97017544D02*
X146420038Y-96969925D01*
X146420038Y-96969925D02*
X146372419Y-96874687D01*
X146372419Y-96874687D02*
X146372419Y-96636592D01*
X146372419Y-96636592D02*
X146420038Y-96541354D01*
X146420038Y-96541354D02*
X146467657Y-96493735D01*
X146467657Y-96493735D02*
X146562895Y-96446116D01*
X146562895Y-96446116D02*
X146658133Y-96446116D01*
X146658133Y-96446116D02*
X146800990Y-96493735D01*
X146800990Y-96493735D02*
X147372419Y-97065163D01*
X147372419Y-97065163D02*
X147372419Y-96446116D01*
X147324800Y-96065163D02*
X147372419Y-95922306D01*
X147372419Y-95922306D02*
X147372419Y-95684211D01*
X147372419Y-95684211D02*
X147324800Y-95588973D01*
X147324800Y-95588973D02*
X147277180Y-95541354D01*
X147277180Y-95541354D02*
X147181942Y-95493735D01*
X147181942Y-95493735D02*
X147086704Y-95493735D01*
X147086704Y-95493735D02*
X146991466Y-95541354D01*
X146991466Y-95541354D02*
X146943847Y-95588973D01*
X146943847Y-95588973D02*
X146896228Y-95684211D01*
X146896228Y-95684211D02*
X146848609Y-95874687D01*
X146848609Y-95874687D02*
X146800990Y-95969925D01*
X146800990Y-95969925D02*
X146753371Y-96017544D01*
X146753371Y-96017544D02*
X146658133Y-96065163D01*
X146658133Y-96065163D02*
X146562895Y-96065163D01*
X146562895Y-96065163D02*
X146467657Y-96017544D01*
X146467657Y-96017544D02*
X146420038Y-95969925D01*
X146420038Y-95969925D02*
X146372419Y-95874687D01*
X146372419Y-95874687D02*
X146372419Y-95636592D01*
X146372419Y-95636592D02*
X146420038Y-95493735D01*
X138256265Y-82836704D02*
X138732455Y-82836704D01*
X138161027Y-83122419D02*
X138494360Y-82122419D01*
X138494360Y-82122419D02*
X138827693Y-83122419D01*
X139351503Y-82122419D02*
X139446741Y-82122419D01*
X139446741Y-82122419D02*
X139541979Y-82170038D01*
X139541979Y-82170038D02*
X139589598Y-82217657D01*
X139589598Y-82217657D02*
X139637217Y-82312895D01*
X139637217Y-82312895D02*
X139684836Y-82503371D01*
X139684836Y-82503371D02*
X139684836Y-82741466D01*
X139684836Y-82741466D02*
X139637217Y-82931942D01*
X139637217Y-82931942D02*
X139589598Y-83027180D01*
X139589598Y-83027180D02*
X139541979Y-83074800D01*
X139541979Y-83074800D02*
X139446741Y-83122419D01*
X139446741Y-83122419D02*
X139351503Y-83122419D01*
X139351503Y-83122419D02*
X139256265Y-83074800D01*
X139256265Y-83074800D02*
X139208646Y-83027180D01*
X139208646Y-83027180D02*
X139161027Y-82931942D01*
X139161027Y-82931942D02*
X139113408Y-82741466D01*
X139113408Y-82741466D02*
X139113408Y-82503371D01*
X139113408Y-82503371D02*
X139161027Y-82312895D01*
X139161027Y-82312895D02*
X139208646Y-82217657D01*
X139208646Y-82217657D02*
X139256265Y-82170038D01*
X139256265Y-82170038D02*
X139351503Y-82122419D01*
X152958646Y-97372419D02*
X153196741Y-98372419D01*
X153196741Y-98372419D02*
X153387217Y-97658133D01*
X153387217Y-97658133D02*
X153577693Y-98372419D01*
X153577693Y-98372419D02*
X153815789Y-97372419D01*
X154768169Y-98277180D02*
X154720550Y-98324800D01*
X154720550Y-98324800D02*
X154577693Y-98372419D01*
X154577693Y-98372419D02*
X154482455Y-98372419D01*
X154482455Y-98372419D02*
X154339598Y-98324800D01*
X154339598Y-98324800D02*
X154244360Y-98229561D01*
X154244360Y-98229561D02*
X154196741Y-98134323D01*
X154196741Y-98134323D02*
X154149122Y-97943847D01*
X154149122Y-97943847D02*
X154149122Y-97800990D01*
X154149122Y-97800990D02*
X154196741Y-97610514D01*
X154196741Y-97610514D02*
X154244360Y-97515276D01*
X154244360Y-97515276D02*
X154339598Y-97420038D01*
X154339598Y-97420038D02*
X154482455Y-97372419D01*
X154482455Y-97372419D02*
X154577693Y-97372419D01*
X154577693Y-97372419D02*
X154720550Y-97420038D01*
X154720550Y-97420038D02*
X154768169Y-97467657D01*
X155672931Y-98372419D02*
X155196741Y-98372419D01*
X155196741Y-98372419D02*
X155196741Y-97372419D01*
X156006265Y-98372419D02*
X156006265Y-97372419D01*
X156577693Y-98372419D02*
X156149122Y-97800990D01*
X156577693Y-97372419D02*
X156006265Y-97943847D01*
X144744360Y-80622419D02*
X144839598Y-80622419D01*
X144839598Y-80622419D02*
X144934836Y-80670038D01*
X144934836Y-80670038D02*
X144982455Y-80717657D01*
X144982455Y-80717657D02*
X145030074Y-80812895D01*
X145030074Y-80812895D02*
X145077693Y-81003371D01*
X145077693Y-81003371D02*
X145077693Y-81241466D01*
X145077693Y-81241466D02*
X145030074Y-81431942D01*
X145030074Y-81431942D02*
X144982455Y-81527180D01*
X144982455Y-81527180D02*
X144934836Y-81574800D01*
X144934836Y-81574800D02*
X144839598Y-81622419D01*
X144839598Y-81622419D02*
X144744360Y-81622419D01*
X144744360Y-81622419D02*
X144649122Y-81574800D01*
X144649122Y-81574800D02*
X144601503Y-81527180D01*
X144601503Y-81527180D02*
X144553884Y-81431942D01*
X144553884Y-81431942D02*
X144506265Y-81241466D01*
X144506265Y-81241466D02*
X144506265Y-81003371D01*
X144506265Y-81003371D02*
X144553884Y-80812895D01*
X144553884Y-80812895D02*
X144601503Y-80717657D01*
X144601503Y-80717657D02*
X144649122Y-80670038D01*
X144649122Y-80670038D02*
X144744360Y-80622419D01*
D11*
X127738095Y-83454819D02*
X127738095Y-84264342D01*
X127738095Y-84264342D02*
X127785714Y-84359580D01*
X127785714Y-84359580D02*
X127833333Y-84407200D01*
X127833333Y-84407200D02*
X127928571Y-84454819D01*
X127928571Y-84454819D02*
X128119047Y-84454819D01*
X128119047Y-84454819D02*
X128214285Y-84407200D01*
X128214285Y-84407200D02*
X128261904Y-84359580D01*
X128261904Y-84359580D02*
X128309523Y-84264342D01*
X128309523Y-84264342D02*
X128309523Y-83454819D01*
X129309523Y-84454819D02*
X128738095Y-84454819D01*
X129023809Y-84454819D02*
X129023809Y-83454819D01*
X129023809Y-83454819D02*
X128928571Y-83597676D01*
X128928571Y-83597676D02*
X128833333Y-83692914D01*
X128833333Y-83692914D02*
X128738095Y-83740533D01*
X112357142Y-114359580D02*
X112309523Y-114407200D01*
X112309523Y-114407200D02*
X112166666Y-114454819D01*
X112166666Y-114454819D02*
X112071428Y-114454819D01*
X112071428Y-114454819D02*
X111928571Y-114407200D01*
X111928571Y-114407200D02*
X111833333Y-114311961D01*
X111833333Y-114311961D02*
X111785714Y-114216723D01*
X111785714Y-114216723D02*
X111738095Y-114026247D01*
X111738095Y-114026247D02*
X111738095Y-113883390D01*
X111738095Y-113883390D02*
X111785714Y-113692914D01*
X111785714Y-113692914D02*
X111833333Y-113597676D01*
X111833333Y-113597676D02*
X111928571Y-113502438D01*
X111928571Y-113502438D02*
X112071428Y-113454819D01*
X112071428Y-113454819D02*
X112166666Y-113454819D01*
X112166666Y-113454819D02*
X112309523Y-113502438D01*
X112309523Y-113502438D02*
X112357142Y-113550057D01*
X112738095Y-113550057D02*
X112785714Y-113502438D01*
X112785714Y-113502438D02*
X112880952Y-113454819D01*
X112880952Y-113454819D02*
X113119047Y-113454819D01*
X113119047Y-113454819D02*
X113214285Y-113502438D01*
X113214285Y-113502438D02*
X113261904Y-113550057D01*
X113261904Y-113550057D02*
X113309523Y-113645295D01*
X113309523Y-113645295D02*
X113309523Y-113740533D01*
X113309523Y-113740533D02*
X113261904Y-113883390D01*
X113261904Y-113883390D02*
X112690476Y-114454819D01*
X112690476Y-114454819D02*
X113309523Y-114454819D01*
X113880952Y-113883390D02*
X113785714Y-113835771D01*
X113785714Y-113835771D02*
X113738095Y-113788152D01*
X113738095Y-113788152D02*
X113690476Y-113692914D01*
X113690476Y-113692914D02*
X113690476Y-113645295D01*
X113690476Y-113645295D02*
X113738095Y-113550057D01*
X113738095Y-113550057D02*
X113785714Y-113502438D01*
X113785714Y-113502438D02*
X113880952Y-113454819D01*
X113880952Y-113454819D02*
X114071428Y-113454819D01*
X114071428Y-113454819D02*
X114166666Y-113502438D01*
X114166666Y-113502438D02*
X114214285Y-113550057D01*
X114214285Y-113550057D02*
X114261904Y-113645295D01*
X114261904Y-113645295D02*
X114261904Y-113692914D01*
X114261904Y-113692914D02*
X114214285Y-113788152D01*
X114214285Y-113788152D02*
X114166666Y-113835771D01*
X114166666Y-113835771D02*
X114071428Y-113883390D01*
X114071428Y-113883390D02*
X113880952Y-113883390D01*
X113880952Y-113883390D02*
X113785714Y-113931009D01*
X113785714Y-113931009D02*
X113738095Y-113978628D01*
X113738095Y-113978628D02*
X113690476Y-114073866D01*
X113690476Y-114073866D02*
X113690476Y-114264342D01*
X113690476Y-114264342D02*
X113738095Y-114359580D01*
X113738095Y-114359580D02*
X113785714Y-114407200D01*
X113785714Y-114407200D02*
X113880952Y-114454819D01*
X113880952Y-114454819D02*
X114071428Y-114454819D01*
X114071428Y-114454819D02*
X114166666Y-114407200D01*
X114166666Y-114407200D02*
X114214285Y-114359580D01*
X114214285Y-114359580D02*
X114261904Y-114264342D01*
X114261904Y-114264342D02*
X114261904Y-114073866D01*
X114261904Y-114073866D02*
X114214285Y-113978628D01*
X114214285Y-113978628D02*
X114166666Y-113931009D01*
X114166666Y-113931009D02*
X114071428Y-113883390D01*
X126607142Y-121342319D02*
X126273809Y-120866128D01*
X126035714Y-121342319D02*
X126035714Y-120342319D01*
X126035714Y-120342319D02*
X126416666Y-120342319D01*
X126416666Y-120342319D02*
X126511904Y-120389938D01*
X126511904Y-120389938D02*
X126559523Y-120437557D01*
X126559523Y-120437557D02*
X126607142Y-120532795D01*
X126607142Y-120532795D02*
X126607142Y-120675652D01*
X126607142Y-120675652D02*
X126559523Y-120770890D01*
X126559523Y-120770890D02*
X126511904Y-120818509D01*
X126511904Y-120818509D02*
X126416666Y-120866128D01*
X126416666Y-120866128D02*
X126035714Y-120866128D01*
X127559523Y-121342319D02*
X126988095Y-121342319D01*
X127273809Y-121342319D02*
X127273809Y-120342319D01*
X127273809Y-120342319D02*
X127178571Y-120485176D01*
X127178571Y-120485176D02*
X127083333Y-120580414D01*
X127083333Y-120580414D02*
X126988095Y-120628033D01*
X128130952Y-120770890D02*
X128035714Y-120723271D01*
X128035714Y-120723271D02*
X127988095Y-120675652D01*
X127988095Y-120675652D02*
X127940476Y-120580414D01*
X127940476Y-120580414D02*
X127940476Y-120532795D01*
X127940476Y-120532795D02*
X127988095Y-120437557D01*
X127988095Y-120437557D02*
X128035714Y-120389938D01*
X128035714Y-120389938D02*
X128130952Y-120342319D01*
X128130952Y-120342319D02*
X128321428Y-120342319D01*
X128321428Y-120342319D02*
X128416666Y-120389938D01*
X128416666Y-120389938D02*
X128464285Y-120437557D01*
X128464285Y-120437557D02*
X128511904Y-120532795D01*
X128511904Y-120532795D02*
X128511904Y-120580414D01*
X128511904Y-120580414D02*
X128464285Y-120675652D01*
X128464285Y-120675652D02*
X128416666Y-120723271D01*
X128416666Y-120723271D02*
X128321428Y-120770890D01*
X128321428Y-120770890D02*
X128130952Y-120770890D01*
X128130952Y-120770890D02*
X128035714Y-120818509D01*
X128035714Y-120818509D02*
X127988095Y-120866128D01*
X127988095Y-120866128D02*
X127940476Y-120961366D01*
X127940476Y-120961366D02*
X127940476Y-121151842D01*
X127940476Y-121151842D02*
X127988095Y-121247080D01*
X127988095Y-121247080D02*
X128035714Y-121294700D01*
X128035714Y-121294700D02*
X128130952Y-121342319D01*
X128130952Y-121342319D02*
X128321428Y-121342319D01*
X128321428Y-121342319D02*
X128416666Y-121294700D01*
X128416666Y-121294700D02*
X128464285Y-121247080D01*
X128464285Y-121247080D02*
X128511904Y-121151842D01*
X128511904Y-121151842D02*
X128511904Y-120961366D01*
X128511904Y-120961366D02*
X128464285Y-120866128D01*
X128464285Y-120866128D02*
X128416666Y-120818509D01*
X128416666Y-120818509D02*
X128321428Y-120770890D01*
X120107142Y-96859580D02*
X120059523Y-96907200D01*
X120059523Y-96907200D02*
X119916666Y-96954819D01*
X119916666Y-96954819D02*
X119821428Y-96954819D01*
X119821428Y-96954819D02*
X119678571Y-96907200D01*
X119678571Y-96907200D02*
X119583333Y-96811961D01*
X119583333Y-96811961D02*
X119535714Y-96716723D01*
X119535714Y-96716723D02*
X119488095Y-96526247D01*
X119488095Y-96526247D02*
X119488095Y-96383390D01*
X119488095Y-96383390D02*
X119535714Y-96192914D01*
X119535714Y-96192914D02*
X119583333Y-96097676D01*
X119583333Y-96097676D02*
X119678571Y-96002438D01*
X119678571Y-96002438D02*
X119821428Y-95954819D01*
X119821428Y-95954819D02*
X119916666Y-95954819D01*
X119916666Y-95954819D02*
X120059523Y-96002438D01*
X120059523Y-96002438D02*
X120107142Y-96050057D01*
X120488095Y-96050057D02*
X120535714Y-96002438D01*
X120535714Y-96002438D02*
X120630952Y-95954819D01*
X120630952Y-95954819D02*
X120869047Y-95954819D01*
X120869047Y-95954819D02*
X120964285Y-96002438D01*
X120964285Y-96002438D02*
X121011904Y-96050057D01*
X121011904Y-96050057D02*
X121059523Y-96145295D01*
X121059523Y-96145295D02*
X121059523Y-96240533D01*
X121059523Y-96240533D02*
X121011904Y-96383390D01*
X121011904Y-96383390D02*
X120440476Y-96954819D01*
X120440476Y-96954819D02*
X121059523Y-96954819D01*
X121392857Y-95954819D02*
X122059523Y-95954819D01*
X122059523Y-95954819D02*
X121630952Y-96954819D01*
X124857142Y-116592319D02*
X124523809Y-116116128D01*
X124285714Y-116592319D02*
X124285714Y-115592319D01*
X124285714Y-115592319D02*
X124666666Y-115592319D01*
X124666666Y-115592319D02*
X124761904Y-115639938D01*
X124761904Y-115639938D02*
X124809523Y-115687557D01*
X124809523Y-115687557D02*
X124857142Y-115782795D01*
X124857142Y-115782795D02*
X124857142Y-115925652D01*
X124857142Y-115925652D02*
X124809523Y-116020890D01*
X124809523Y-116020890D02*
X124761904Y-116068509D01*
X124761904Y-116068509D02*
X124666666Y-116116128D01*
X124666666Y-116116128D02*
X124285714Y-116116128D01*
X125809523Y-116592319D02*
X125238095Y-116592319D01*
X125523809Y-116592319D02*
X125523809Y-115592319D01*
X125523809Y-115592319D02*
X125428571Y-115735176D01*
X125428571Y-115735176D02*
X125333333Y-115830414D01*
X125333333Y-115830414D02*
X125238095Y-115878033D01*
X126666666Y-115925652D02*
X126666666Y-116592319D01*
X126428571Y-115544700D02*
X126190476Y-116258985D01*
X126190476Y-116258985D02*
X126809523Y-116258985D01*
X104107142Y-102609580D02*
X104059523Y-102657200D01*
X104059523Y-102657200D02*
X103916666Y-102704819D01*
X103916666Y-102704819D02*
X103821428Y-102704819D01*
X103821428Y-102704819D02*
X103678571Y-102657200D01*
X103678571Y-102657200D02*
X103583333Y-102561961D01*
X103583333Y-102561961D02*
X103535714Y-102466723D01*
X103535714Y-102466723D02*
X103488095Y-102276247D01*
X103488095Y-102276247D02*
X103488095Y-102133390D01*
X103488095Y-102133390D02*
X103535714Y-101942914D01*
X103535714Y-101942914D02*
X103583333Y-101847676D01*
X103583333Y-101847676D02*
X103678571Y-101752438D01*
X103678571Y-101752438D02*
X103821428Y-101704819D01*
X103821428Y-101704819D02*
X103916666Y-101704819D01*
X103916666Y-101704819D02*
X104059523Y-101752438D01*
X104059523Y-101752438D02*
X104107142Y-101800057D01*
X104440476Y-101704819D02*
X105059523Y-101704819D01*
X105059523Y-101704819D02*
X104726190Y-102085771D01*
X104726190Y-102085771D02*
X104869047Y-102085771D01*
X104869047Y-102085771D02*
X104964285Y-102133390D01*
X104964285Y-102133390D02*
X105011904Y-102181009D01*
X105011904Y-102181009D02*
X105059523Y-102276247D01*
X105059523Y-102276247D02*
X105059523Y-102514342D01*
X105059523Y-102514342D02*
X105011904Y-102609580D01*
X105011904Y-102609580D02*
X104964285Y-102657200D01*
X104964285Y-102657200D02*
X104869047Y-102704819D01*
X104869047Y-102704819D02*
X104583333Y-102704819D01*
X104583333Y-102704819D02*
X104488095Y-102657200D01*
X104488095Y-102657200D02*
X104440476Y-102609580D01*
X106011904Y-102704819D02*
X105440476Y-102704819D01*
X105726190Y-102704819D02*
X105726190Y-101704819D01*
X105726190Y-101704819D02*
X105630952Y-101847676D01*
X105630952Y-101847676D02*
X105535714Y-101942914D01*
X105535714Y-101942914D02*
X105440476Y-101990533D01*
X125107142Y-102817319D02*
X124773809Y-102341128D01*
X124535714Y-102817319D02*
X124535714Y-101817319D01*
X124535714Y-101817319D02*
X124916666Y-101817319D01*
X124916666Y-101817319D02*
X125011904Y-101864938D01*
X125011904Y-101864938D02*
X125059523Y-101912557D01*
X125059523Y-101912557D02*
X125107142Y-102007795D01*
X125107142Y-102007795D02*
X125107142Y-102150652D01*
X125107142Y-102150652D02*
X125059523Y-102245890D01*
X125059523Y-102245890D02*
X125011904Y-102293509D01*
X125011904Y-102293509D02*
X124916666Y-102341128D01*
X124916666Y-102341128D02*
X124535714Y-102341128D01*
X126059523Y-102817319D02*
X125488095Y-102817319D01*
X125773809Y-102817319D02*
X125773809Y-101817319D01*
X125773809Y-101817319D02*
X125678571Y-101960176D01*
X125678571Y-101960176D02*
X125583333Y-102055414D01*
X125583333Y-102055414D02*
X125488095Y-102103033D01*
X126440476Y-101912557D02*
X126488095Y-101864938D01*
X126488095Y-101864938D02*
X126583333Y-101817319D01*
X126583333Y-101817319D02*
X126821428Y-101817319D01*
X126821428Y-101817319D02*
X126916666Y-101864938D01*
X126916666Y-101864938D02*
X126964285Y-101912557D01*
X126964285Y-101912557D02*
X127011904Y-102007795D01*
X127011904Y-102007795D02*
X127011904Y-102103033D01*
X127011904Y-102103033D02*
X126964285Y-102245890D01*
X126964285Y-102245890D02*
X126392857Y-102817319D01*
X126392857Y-102817319D02*
X127011904Y-102817319D01*
X117107142Y-122747080D02*
X117059523Y-122794700D01*
X117059523Y-122794700D02*
X116916666Y-122842319D01*
X116916666Y-122842319D02*
X116821428Y-122842319D01*
X116821428Y-122842319D02*
X116678571Y-122794700D01*
X116678571Y-122794700D02*
X116583333Y-122699461D01*
X116583333Y-122699461D02*
X116535714Y-122604223D01*
X116535714Y-122604223D02*
X116488095Y-122413747D01*
X116488095Y-122413747D02*
X116488095Y-122270890D01*
X116488095Y-122270890D02*
X116535714Y-122080414D01*
X116535714Y-122080414D02*
X116583333Y-121985176D01*
X116583333Y-121985176D02*
X116678571Y-121889938D01*
X116678571Y-121889938D02*
X116821428Y-121842319D01*
X116821428Y-121842319D02*
X116916666Y-121842319D01*
X116916666Y-121842319D02*
X117059523Y-121889938D01*
X117059523Y-121889938D02*
X117107142Y-121937557D01*
X118059523Y-122842319D02*
X117488095Y-122842319D01*
X117773809Y-122842319D02*
X117773809Y-121842319D01*
X117773809Y-121842319D02*
X117678571Y-121985176D01*
X117678571Y-121985176D02*
X117583333Y-122080414D01*
X117583333Y-122080414D02*
X117488095Y-122128033D01*
X118916666Y-122175652D02*
X118916666Y-122842319D01*
X118678571Y-121794700D02*
X118440476Y-122508985D01*
X118440476Y-122508985D02*
X119059523Y-122508985D01*
X139704819Y-85666666D02*
X139228628Y-85999999D01*
X139704819Y-86238094D02*
X138704819Y-86238094D01*
X138704819Y-86238094D02*
X138704819Y-85857142D01*
X138704819Y-85857142D02*
X138752438Y-85761904D01*
X138752438Y-85761904D02*
X138800057Y-85714285D01*
X138800057Y-85714285D02*
X138895295Y-85666666D01*
X138895295Y-85666666D02*
X139038152Y-85666666D01*
X139038152Y-85666666D02*
X139133390Y-85714285D01*
X139133390Y-85714285D02*
X139181009Y-85761904D01*
X139181009Y-85761904D02*
X139228628Y-85857142D01*
X139228628Y-85857142D02*
X139228628Y-86238094D01*
X139704819Y-85190475D02*
X139704819Y-84999999D01*
X139704819Y-84999999D02*
X139657200Y-84904761D01*
X139657200Y-84904761D02*
X139609580Y-84857142D01*
X139609580Y-84857142D02*
X139466723Y-84761904D01*
X139466723Y-84761904D02*
X139276247Y-84714285D01*
X139276247Y-84714285D02*
X138895295Y-84714285D01*
X138895295Y-84714285D02*
X138800057Y-84761904D01*
X138800057Y-84761904D02*
X138752438Y-84809523D01*
X138752438Y-84809523D02*
X138704819Y-84904761D01*
X138704819Y-84904761D02*
X138704819Y-85095237D01*
X138704819Y-85095237D02*
X138752438Y-85190475D01*
X138752438Y-85190475D02*
X138800057Y-85238094D01*
X138800057Y-85238094D02*
X138895295Y-85285713D01*
X138895295Y-85285713D02*
X139133390Y-85285713D01*
X139133390Y-85285713D02*
X139228628Y-85238094D01*
X139228628Y-85238094D02*
X139276247Y-85190475D01*
X139276247Y-85190475D02*
X139323866Y-85095237D01*
X139323866Y-85095237D02*
X139323866Y-84904761D01*
X139323866Y-84904761D02*
X139276247Y-84809523D01*
X139276247Y-84809523D02*
X139228628Y-84761904D01*
X139228628Y-84761904D02*
X139133390Y-84714285D01*
X140607142Y-99859580D02*
X140559523Y-99907200D01*
X140559523Y-99907200D02*
X140416666Y-99954819D01*
X140416666Y-99954819D02*
X140321428Y-99954819D01*
X140321428Y-99954819D02*
X140178571Y-99907200D01*
X140178571Y-99907200D02*
X140083333Y-99811961D01*
X140083333Y-99811961D02*
X140035714Y-99716723D01*
X140035714Y-99716723D02*
X139988095Y-99526247D01*
X139988095Y-99526247D02*
X139988095Y-99383390D01*
X139988095Y-99383390D02*
X140035714Y-99192914D01*
X140035714Y-99192914D02*
X140083333Y-99097676D01*
X140083333Y-99097676D02*
X140178571Y-99002438D01*
X140178571Y-99002438D02*
X140321428Y-98954819D01*
X140321428Y-98954819D02*
X140416666Y-98954819D01*
X140416666Y-98954819D02*
X140559523Y-99002438D01*
X140559523Y-99002438D02*
X140607142Y-99050057D01*
X141559523Y-99954819D02*
X140988095Y-99954819D01*
X141273809Y-99954819D02*
X141273809Y-98954819D01*
X141273809Y-98954819D02*
X141178571Y-99097676D01*
X141178571Y-99097676D02*
X141083333Y-99192914D01*
X141083333Y-99192914D02*
X140988095Y-99240533D01*
X142035714Y-99954819D02*
X142226190Y-99954819D01*
X142226190Y-99954819D02*
X142321428Y-99907200D01*
X142321428Y-99907200D02*
X142369047Y-99859580D01*
X142369047Y-99859580D02*
X142464285Y-99716723D01*
X142464285Y-99716723D02*
X142511904Y-99526247D01*
X142511904Y-99526247D02*
X142511904Y-99145295D01*
X142511904Y-99145295D02*
X142464285Y-99050057D01*
X142464285Y-99050057D02*
X142416666Y-99002438D01*
X142416666Y-99002438D02*
X142321428Y-98954819D01*
X142321428Y-98954819D02*
X142130952Y-98954819D01*
X142130952Y-98954819D02*
X142035714Y-99002438D01*
X142035714Y-99002438D02*
X141988095Y-99050057D01*
X141988095Y-99050057D02*
X141940476Y-99145295D01*
X141940476Y-99145295D02*
X141940476Y-99383390D01*
X141940476Y-99383390D02*
X141988095Y-99478628D01*
X141988095Y-99478628D02*
X142035714Y-99526247D01*
X142035714Y-99526247D02*
X142130952Y-99573866D01*
X142130952Y-99573866D02*
X142321428Y-99573866D01*
X142321428Y-99573866D02*
X142416666Y-99526247D01*
X142416666Y-99526247D02*
X142464285Y-99478628D01*
X142464285Y-99478628D02*
X142511904Y-99383390D01*
X140582142Y-102954819D02*
X140248809Y-102478628D01*
X140010714Y-102954819D02*
X140010714Y-101954819D01*
X140010714Y-101954819D02*
X140391666Y-101954819D01*
X140391666Y-101954819D02*
X140486904Y-102002438D01*
X140486904Y-102002438D02*
X140534523Y-102050057D01*
X140534523Y-102050057D02*
X140582142Y-102145295D01*
X140582142Y-102145295D02*
X140582142Y-102288152D01*
X140582142Y-102288152D02*
X140534523Y-102383390D01*
X140534523Y-102383390D02*
X140486904Y-102431009D01*
X140486904Y-102431009D02*
X140391666Y-102478628D01*
X140391666Y-102478628D02*
X140010714Y-102478628D01*
X140963095Y-102050057D02*
X141010714Y-102002438D01*
X141010714Y-102002438D02*
X141105952Y-101954819D01*
X141105952Y-101954819D02*
X141344047Y-101954819D01*
X141344047Y-101954819D02*
X141439285Y-102002438D01*
X141439285Y-102002438D02*
X141486904Y-102050057D01*
X141486904Y-102050057D02*
X141534523Y-102145295D01*
X141534523Y-102145295D02*
X141534523Y-102240533D01*
X141534523Y-102240533D02*
X141486904Y-102383390D01*
X141486904Y-102383390D02*
X140915476Y-102954819D01*
X140915476Y-102954819D02*
X141534523Y-102954819D01*
X142153571Y-101954819D02*
X142248809Y-101954819D01*
X142248809Y-101954819D02*
X142344047Y-102002438D01*
X142344047Y-102002438D02*
X142391666Y-102050057D01*
X142391666Y-102050057D02*
X142439285Y-102145295D01*
X142439285Y-102145295D02*
X142486904Y-102335771D01*
X142486904Y-102335771D02*
X142486904Y-102573866D01*
X142486904Y-102573866D02*
X142439285Y-102764342D01*
X142439285Y-102764342D02*
X142391666Y-102859580D01*
X142391666Y-102859580D02*
X142344047Y-102907200D01*
X142344047Y-102907200D02*
X142248809Y-102954819D01*
X142248809Y-102954819D02*
X142153571Y-102954819D01*
X142153571Y-102954819D02*
X142058333Y-102907200D01*
X142058333Y-102907200D02*
X142010714Y-102859580D01*
X142010714Y-102859580D02*
X141963095Y-102764342D01*
X141963095Y-102764342D02*
X141915476Y-102573866D01*
X141915476Y-102573866D02*
X141915476Y-102335771D01*
X141915476Y-102335771D02*
X141963095Y-102145295D01*
X141963095Y-102145295D02*
X142010714Y-102050057D01*
X142010714Y-102050057D02*
X142058333Y-102002438D01*
X142058333Y-102002438D02*
X142153571Y-101954819D01*
X125107142Y-99722080D02*
X125059523Y-99769700D01*
X125059523Y-99769700D02*
X124916666Y-99817319D01*
X124916666Y-99817319D02*
X124821428Y-99817319D01*
X124821428Y-99817319D02*
X124678571Y-99769700D01*
X124678571Y-99769700D02*
X124583333Y-99674461D01*
X124583333Y-99674461D02*
X124535714Y-99579223D01*
X124535714Y-99579223D02*
X124488095Y-99388747D01*
X124488095Y-99388747D02*
X124488095Y-99245890D01*
X124488095Y-99245890D02*
X124535714Y-99055414D01*
X124535714Y-99055414D02*
X124583333Y-98960176D01*
X124583333Y-98960176D02*
X124678571Y-98864938D01*
X124678571Y-98864938D02*
X124821428Y-98817319D01*
X124821428Y-98817319D02*
X124916666Y-98817319D01*
X124916666Y-98817319D02*
X125059523Y-98864938D01*
X125059523Y-98864938D02*
X125107142Y-98912557D01*
X126059523Y-99817319D02*
X125488095Y-99817319D01*
X125773809Y-99817319D02*
X125773809Y-98817319D01*
X125773809Y-98817319D02*
X125678571Y-98960176D01*
X125678571Y-98960176D02*
X125583333Y-99055414D01*
X125583333Y-99055414D02*
X125488095Y-99103033D01*
X127011904Y-99817319D02*
X126440476Y-99817319D01*
X126726190Y-99817319D02*
X126726190Y-98817319D01*
X126726190Y-98817319D02*
X126630952Y-98960176D01*
X126630952Y-98960176D02*
X126535714Y-99055414D01*
X126535714Y-99055414D02*
X126440476Y-99103033D01*
X132357142Y-118342319D02*
X132023809Y-117866128D01*
X131785714Y-118342319D02*
X131785714Y-117342319D01*
X131785714Y-117342319D02*
X132166666Y-117342319D01*
X132166666Y-117342319D02*
X132261904Y-117389938D01*
X132261904Y-117389938D02*
X132309523Y-117437557D01*
X132309523Y-117437557D02*
X132357142Y-117532795D01*
X132357142Y-117532795D02*
X132357142Y-117675652D01*
X132357142Y-117675652D02*
X132309523Y-117770890D01*
X132309523Y-117770890D02*
X132261904Y-117818509D01*
X132261904Y-117818509D02*
X132166666Y-117866128D01*
X132166666Y-117866128D02*
X131785714Y-117866128D01*
X132738095Y-117437557D02*
X132785714Y-117389938D01*
X132785714Y-117389938D02*
X132880952Y-117342319D01*
X132880952Y-117342319D02*
X133119047Y-117342319D01*
X133119047Y-117342319D02*
X133214285Y-117389938D01*
X133214285Y-117389938D02*
X133261904Y-117437557D01*
X133261904Y-117437557D02*
X133309523Y-117532795D01*
X133309523Y-117532795D02*
X133309523Y-117628033D01*
X133309523Y-117628033D02*
X133261904Y-117770890D01*
X133261904Y-117770890D02*
X132690476Y-118342319D01*
X132690476Y-118342319D02*
X133309523Y-118342319D01*
X133690476Y-117437557D02*
X133738095Y-117389938D01*
X133738095Y-117389938D02*
X133833333Y-117342319D01*
X133833333Y-117342319D02*
X134071428Y-117342319D01*
X134071428Y-117342319D02*
X134166666Y-117389938D01*
X134166666Y-117389938D02*
X134214285Y-117437557D01*
X134214285Y-117437557D02*
X134261904Y-117532795D01*
X134261904Y-117532795D02*
X134261904Y-117628033D01*
X134261904Y-117628033D02*
X134214285Y-117770890D01*
X134214285Y-117770890D02*
X133642857Y-118342319D01*
X133642857Y-118342319D02*
X134261904Y-118342319D01*
X121357142Y-93359580D02*
X121309523Y-93407200D01*
X121309523Y-93407200D02*
X121166666Y-93454819D01*
X121166666Y-93454819D02*
X121071428Y-93454819D01*
X121071428Y-93454819D02*
X120928571Y-93407200D01*
X120928571Y-93407200D02*
X120833333Y-93311961D01*
X120833333Y-93311961D02*
X120785714Y-93216723D01*
X120785714Y-93216723D02*
X120738095Y-93026247D01*
X120738095Y-93026247D02*
X120738095Y-92883390D01*
X120738095Y-92883390D02*
X120785714Y-92692914D01*
X120785714Y-92692914D02*
X120833333Y-92597676D01*
X120833333Y-92597676D02*
X120928571Y-92502438D01*
X120928571Y-92502438D02*
X121071428Y-92454819D01*
X121071428Y-92454819D02*
X121166666Y-92454819D01*
X121166666Y-92454819D02*
X121309523Y-92502438D01*
X121309523Y-92502438D02*
X121357142Y-92550057D01*
X121690476Y-92454819D02*
X122309523Y-92454819D01*
X122309523Y-92454819D02*
X121976190Y-92835771D01*
X121976190Y-92835771D02*
X122119047Y-92835771D01*
X122119047Y-92835771D02*
X122214285Y-92883390D01*
X122214285Y-92883390D02*
X122261904Y-92931009D01*
X122261904Y-92931009D02*
X122309523Y-93026247D01*
X122309523Y-93026247D02*
X122309523Y-93264342D01*
X122309523Y-93264342D02*
X122261904Y-93359580D01*
X122261904Y-93359580D02*
X122214285Y-93407200D01*
X122214285Y-93407200D02*
X122119047Y-93454819D01*
X122119047Y-93454819D02*
X121833333Y-93454819D01*
X121833333Y-93454819D02*
X121738095Y-93407200D01*
X121738095Y-93407200D02*
X121690476Y-93359580D01*
X122690476Y-92550057D02*
X122738095Y-92502438D01*
X122738095Y-92502438D02*
X122833333Y-92454819D01*
X122833333Y-92454819D02*
X123071428Y-92454819D01*
X123071428Y-92454819D02*
X123166666Y-92502438D01*
X123166666Y-92502438D02*
X123214285Y-92550057D01*
X123214285Y-92550057D02*
X123261904Y-92645295D01*
X123261904Y-92645295D02*
X123261904Y-92740533D01*
X123261904Y-92740533D02*
X123214285Y-92883390D01*
X123214285Y-92883390D02*
X122642857Y-93454819D01*
X122642857Y-93454819D02*
X123261904Y-93454819D01*
X118609580Y-111142857D02*
X118657200Y-111190476D01*
X118657200Y-111190476D02*
X118704819Y-111333333D01*
X118704819Y-111333333D02*
X118704819Y-111428571D01*
X118704819Y-111428571D02*
X118657200Y-111571428D01*
X118657200Y-111571428D02*
X118561961Y-111666666D01*
X118561961Y-111666666D02*
X118466723Y-111714285D01*
X118466723Y-111714285D02*
X118276247Y-111761904D01*
X118276247Y-111761904D02*
X118133390Y-111761904D01*
X118133390Y-111761904D02*
X117942914Y-111714285D01*
X117942914Y-111714285D02*
X117847676Y-111666666D01*
X117847676Y-111666666D02*
X117752438Y-111571428D01*
X117752438Y-111571428D02*
X117704819Y-111428571D01*
X117704819Y-111428571D02*
X117704819Y-111333333D01*
X117704819Y-111333333D02*
X117752438Y-111190476D01*
X117752438Y-111190476D02*
X117800057Y-111142857D01*
X117800057Y-110761904D02*
X117752438Y-110714285D01*
X117752438Y-110714285D02*
X117704819Y-110619047D01*
X117704819Y-110619047D02*
X117704819Y-110380952D01*
X117704819Y-110380952D02*
X117752438Y-110285714D01*
X117752438Y-110285714D02*
X117800057Y-110238095D01*
X117800057Y-110238095D02*
X117895295Y-110190476D01*
X117895295Y-110190476D02*
X117990533Y-110190476D01*
X117990533Y-110190476D02*
X118133390Y-110238095D01*
X118133390Y-110238095D02*
X118704819Y-110809523D01*
X118704819Y-110809523D02*
X118704819Y-110190476D01*
X117704819Y-109857142D02*
X117704819Y-109238095D01*
X117704819Y-109238095D02*
X118085771Y-109571428D01*
X118085771Y-109571428D02*
X118085771Y-109428571D01*
X118085771Y-109428571D02*
X118133390Y-109333333D01*
X118133390Y-109333333D02*
X118181009Y-109285714D01*
X118181009Y-109285714D02*
X118276247Y-109238095D01*
X118276247Y-109238095D02*
X118514342Y-109238095D01*
X118514342Y-109238095D02*
X118609580Y-109285714D01*
X118609580Y-109285714D02*
X118657200Y-109333333D01*
X118657200Y-109333333D02*
X118704819Y-109428571D01*
X118704819Y-109428571D02*
X118704819Y-109714285D01*
X118704819Y-109714285D02*
X118657200Y-109809523D01*
X118657200Y-109809523D02*
X118609580Y-109857142D01*
X124857142Y-113497080D02*
X124809523Y-113544700D01*
X124809523Y-113544700D02*
X124666666Y-113592319D01*
X124666666Y-113592319D02*
X124571428Y-113592319D01*
X124571428Y-113592319D02*
X124428571Y-113544700D01*
X124428571Y-113544700D02*
X124333333Y-113449461D01*
X124333333Y-113449461D02*
X124285714Y-113354223D01*
X124285714Y-113354223D02*
X124238095Y-113163747D01*
X124238095Y-113163747D02*
X124238095Y-113020890D01*
X124238095Y-113020890D02*
X124285714Y-112830414D01*
X124285714Y-112830414D02*
X124333333Y-112735176D01*
X124333333Y-112735176D02*
X124428571Y-112639938D01*
X124428571Y-112639938D02*
X124571428Y-112592319D01*
X124571428Y-112592319D02*
X124666666Y-112592319D01*
X124666666Y-112592319D02*
X124809523Y-112639938D01*
X124809523Y-112639938D02*
X124857142Y-112687557D01*
X125809523Y-113592319D02*
X125238095Y-113592319D01*
X125523809Y-113592319D02*
X125523809Y-112592319D01*
X125523809Y-112592319D02*
X125428571Y-112735176D01*
X125428571Y-112735176D02*
X125333333Y-112830414D01*
X125333333Y-112830414D02*
X125238095Y-112878033D01*
X126428571Y-112592319D02*
X126523809Y-112592319D01*
X126523809Y-112592319D02*
X126619047Y-112639938D01*
X126619047Y-112639938D02*
X126666666Y-112687557D01*
X126666666Y-112687557D02*
X126714285Y-112782795D01*
X126714285Y-112782795D02*
X126761904Y-112973271D01*
X126761904Y-112973271D02*
X126761904Y-113211366D01*
X126761904Y-113211366D02*
X126714285Y-113401842D01*
X126714285Y-113401842D02*
X126666666Y-113497080D01*
X126666666Y-113497080D02*
X126619047Y-113544700D01*
X126619047Y-113544700D02*
X126523809Y-113592319D01*
X126523809Y-113592319D02*
X126428571Y-113592319D01*
X126428571Y-113592319D02*
X126333333Y-113544700D01*
X126333333Y-113544700D02*
X126285714Y-113497080D01*
X126285714Y-113497080D02*
X126238095Y-113401842D01*
X126238095Y-113401842D02*
X126190476Y-113211366D01*
X126190476Y-113211366D02*
X126190476Y-112973271D01*
X126190476Y-112973271D02*
X126238095Y-112782795D01*
X126238095Y-112782795D02*
X126285714Y-112687557D01*
X126285714Y-112687557D02*
X126333333Y-112639938D01*
X126333333Y-112639938D02*
X126428571Y-112592319D01*
X139333333Y-90704819D02*
X139000000Y-90228628D01*
X138761905Y-90704819D02*
X138761905Y-89704819D01*
X138761905Y-89704819D02*
X139142857Y-89704819D01*
X139142857Y-89704819D02*
X139238095Y-89752438D01*
X139238095Y-89752438D02*
X139285714Y-89800057D01*
X139285714Y-89800057D02*
X139333333Y-89895295D01*
X139333333Y-89895295D02*
X139333333Y-90038152D01*
X139333333Y-90038152D02*
X139285714Y-90133390D01*
X139285714Y-90133390D02*
X139238095Y-90181009D01*
X139238095Y-90181009D02*
X139142857Y-90228628D01*
X139142857Y-90228628D02*
X138761905Y-90228628D01*
X140190476Y-89704819D02*
X140000000Y-89704819D01*
X140000000Y-89704819D02*
X139904762Y-89752438D01*
X139904762Y-89752438D02*
X139857143Y-89800057D01*
X139857143Y-89800057D02*
X139761905Y-89942914D01*
X139761905Y-89942914D02*
X139714286Y-90133390D01*
X139714286Y-90133390D02*
X139714286Y-90514342D01*
X139714286Y-90514342D02*
X139761905Y-90609580D01*
X139761905Y-90609580D02*
X139809524Y-90657200D01*
X139809524Y-90657200D02*
X139904762Y-90704819D01*
X139904762Y-90704819D02*
X140095238Y-90704819D01*
X140095238Y-90704819D02*
X140190476Y-90657200D01*
X140190476Y-90657200D02*
X140238095Y-90609580D01*
X140238095Y-90609580D02*
X140285714Y-90514342D01*
X140285714Y-90514342D02*
X140285714Y-90276247D01*
X140285714Y-90276247D02*
X140238095Y-90181009D01*
X140238095Y-90181009D02*
X140190476Y-90133390D01*
X140190476Y-90133390D02*
X140095238Y-90085771D01*
X140095238Y-90085771D02*
X139904762Y-90085771D01*
X139904762Y-90085771D02*
X139809524Y-90133390D01*
X139809524Y-90133390D02*
X139761905Y-90181009D01*
X139761905Y-90181009D02*
X139714286Y-90276247D01*
X138107142Y-80274819D02*
X137773809Y-79798628D01*
X137535714Y-80274819D02*
X137535714Y-79274819D01*
X137535714Y-79274819D02*
X137916666Y-79274819D01*
X137916666Y-79274819D02*
X138011904Y-79322438D01*
X138011904Y-79322438D02*
X138059523Y-79370057D01*
X138059523Y-79370057D02*
X138107142Y-79465295D01*
X138107142Y-79465295D02*
X138107142Y-79608152D01*
X138107142Y-79608152D02*
X138059523Y-79703390D01*
X138059523Y-79703390D02*
X138011904Y-79751009D01*
X138011904Y-79751009D02*
X137916666Y-79798628D01*
X137916666Y-79798628D02*
X137535714Y-79798628D01*
X138440476Y-79274819D02*
X139059523Y-79274819D01*
X139059523Y-79274819D02*
X138726190Y-79655771D01*
X138726190Y-79655771D02*
X138869047Y-79655771D01*
X138869047Y-79655771D02*
X138964285Y-79703390D01*
X138964285Y-79703390D02*
X139011904Y-79751009D01*
X139011904Y-79751009D02*
X139059523Y-79846247D01*
X139059523Y-79846247D02*
X139059523Y-80084342D01*
X139059523Y-80084342D02*
X139011904Y-80179580D01*
X139011904Y-80179580D02*
X138964285Y-80227200D01*
X138964285Y-80227200D02*
X138869047Y-80274819D01*
X138869047Y-80274819D02*
X138583333Y-80274819D01*
X138583333Y-80274819D02*
X138488095Y-80227200D01*
X138488095Y-80227200D02*
X138440476Y-80179580D01*
X139678571Y-79274819D02*
X139773809Y-79274819D01*
X139773809Y-79274819D02*
X139869047Y-79322438D01*
X139869047Y-79322438D02*
X139916666Y-79370057D01*
X139916666Y-79370057D02*
X139964285Y-79465295D01*
X139964285Y-79465295D02*
X140011904Y-79655771D01*
X140011904Y-79655771D02*
X140011904Y-79893866D01*
X140011904Y-79893866D02*
X139964285Y-80084342D01*
X139964285Y-80084342D02*
X139916666Y-80179580D01*
X139916666Y-80179580D02*
X139869047Y-80227200D01*
X139869047Y-80227200D02*
X139773809Y-80274819D01*
X139773809Y-80274819D02*
X139678571Y-80274819D01*
X139678571Y-80274819D02*
X139583333Y-80227200D01*
X139583333Y-80227200D02*
X139535714Y-80179580D01*
X139535714Y-80179580D02*
X139488095Y-80084342D01*
X139488095Y-80084342D02*
X139440476Y-79893866D01*
X139440476Y-79893866D02*
X139440476Y-79655771D01*
X139440476Y-79655771D02*
X139488095Y-79465295D01*
X139488095Y-79465295D02*
X139535714Y-79370057D01*
X139535714Y-79370057D02*
X139583333Y-79322438D01*
X139583333Y-79322438D02*
X139678571Y-79274819D01*
X130083333Y-94359580D02*
X130035714Y-94407200D01*
X130035714Y-94407200D02*
X129892857Y-94454819D01*
X129892857Y-94454819D02*
X129797619Y-94454819D01*
X129797619Y-94454819D02*
X129654762Y-94407200D01*
X129654762Y-94407200D02*
X129559524Y-94311961D01*
X129559524Y-94311961D02*
X129511905Y-94216723D01*
X129511905Y-94216723D02*
X129464286Y-94026247D01*
X129464286Y-94026247D02*
X129464286Y-93883390D01*
X129464286Y-93883390D02*
X129511905Y-93692914D01*
X129511905Y-93692914D02*
X129559524Y-93597676D01*
X129559524Y-93597676D02*
X129654762Y-93502438D01*
X129654762Y-93502438D02*
X129797619Y-93454819D01*
X129797619Y-93454819D02*
X129892857Y-93454819D01*
X129892857Y-93454819D02*
X130035714Y-93502438D01*
X130035714Y-93502438D02*
X130083333Y-93550057D01*
X130416667Y-93454819D02*
X131083333Y-93454819D01*
X131083333Y-93454819D02*
X130654762Y-94454819D01*
X125083333Y-101222080D02*
X125035714Y-101269700D01*
X125035714Y-101269700D02*
X124892857Y-101317319D01*
X124892857Y-101317319D02*
X124797619Y-101317319D01*
X124797619Y-101317319D02*
X124654762Y-101269700D01*
X124654762Y-101269700D02*
X124559524Y-101174461D01*
X124559524Y-101174461D02*
X124511905Y-101079223D01*
X124511905Y-101079223D02*
X124464286Y-100888747D01*
X124464286Y-100888747D02*
X124464286Y-100745890D01*
X124464286Y-100745890D02*
X124511905Y-100555414D01*
X124511905Y-100555414D02*
X124559524Y-100460176D01*
X124559524Y-100460176D02*
X124654762Y-100364938D01*
X124654762Y-100364938D02*
X124797619Y-100317319D01*
X124797619Y-100317319D02*
X124892857Y-100317319D01*
X124892857Y-100317319D02*
X125035714Y-100364938D01*
X125035714Y-100364938D02*
X125083333Y-100412557D01*
X125559524Y-101317319D02*
X125750000Y-101317319D01*
X125750000Y-101317319D02*
X125845238Y-101269700D01*
X125845238Y-101269700D02*
X125892857Y-101222080D01*
X125892857Y-101222080D02*
X125988095Y-101079223D01*
X125988095Y-101079223D02*
X126035714Y-100888747D01*
X126035714Y-100888747D02*
X126035714Y-100507795D01*
X126035714Y-100507795D02*
X125988095Y-100412557D01*
X125988095Y-100412557D02*
X125940476Y-100364938D01*
X125940476Y-100364938D02*
X125845238Y-100317319D01*
X125845238Y-100317319D02*
X125654762Y-100317319D01*
X125654762Y-100317319D02*
X125559524Y-100364938D01*
X125559524Y-100364938D02*
X125511905Y-100412557D01*
X125511905Y-100412557D02*
X125464286Y-100507795D01*
X125464286Y-100507795D02*
X125464286Y-100745890D01*
X125464286Y-100745890D02*
X125511905Y-100841128D01*
X125511905Y-100841128D02*
X125559524Y-100888747D01*
X125559524Y-100888747D02*
X125654762Y-100936366D01*
X125654762Y-100936366D02*
X125845238Y-100936366D01*
X125845238Y-100936366D02*
X125940476Y-100888747D01*
X125940476Y-100888747D02*
X125988095Y-100841128D01*
X125988095Y-100841128D02*
X126035714Y-100745890D01*
X117107142Y-119747080D02*
X117059523Y-119794700D01*
X117059523Y-119794700D02*
X116916666Y-119842319D01*
X116916666Y-119842319D02*
X116821428Y-119842319D01*
X116821428Y-119842319D02*
X116678571Y-119794700D01*
X116678571Y-119794700D02*
X116583333Y-119699461D01*
X116583333Y-119699461D02*
X116535714Y-119604223D01*
X116535714Y-119604223D02*
X116488095Y-119413747D01*
X116488095Y-119413747D02*
X116488095Y-119270890D01*
X116488095Y-119270890D02*
X116535714Y-119080414D01*
X116535714Y-119080414D02*
X116583333Y-118985176D01*
X116583333Y-118985176D02*
X116678571Y-118889938D01*
X116678571Y-118889938D02*
X116821428Y-118842319D01*
X116821428Y-118842319D02*
X116916666Y-118842319D01*
X116916666Y-118842319D02*
X117059523Y-118889938D01*
X117059523Y-118889938D02*
X117107142Y-118937557D01*
X118059523Y-119842319D02*
X117488095Y-119842319D01*
X117773809Y-119842319D02*
X117773809Y-118842319D01*
X117773809Y-118842319D02*
X117678571Y-118985176D01*
X117678571Y-118985176D02*
X117583333Y-119080414D01*
X117583333Y-119080414D02*
X117488095Y-119128033D01*
X118440476Y-118937557D02*
X118488095Y-118889938D01*
X118488095Y-118889938D02*
X118583333Y-118842319D01*
X118583333Y-118842319D02*
X118821428Y-118842319D01*
X118821428Y-118842319D02*
X118916666Y-118889938D01*
X118916666Y-118889938D02*
X118964285Y-118937557D01*
X118964285Y-118937557D02*
X119011904Y-119032795D01*
X119011904Y-119032795D02*
X119011904Y-119128033D01*
X119011904Y-119128033D02*
X118964285Y-119270890D01*
X118964285Y-119270890D02*
X118392857Y-119842319D01*
X118392857Y-119842319D02*
X119011904Y-119842319D01*
X115333333Y-79109580D02*
X115285714Y-79157200D01*
X115285714Y-79157200D02*
X115142857Y-79204819D01*
X115142857Y-79204819D02*
X115047619Y-79204819D01*
X115047619Y-79204819D02*
X114904762Y-79157200D01*
X114904762Y-79157200D02*
X114809524Y-79061961D01*
X114809524Y-79061961D02*
X114761905Y-78966723D01*
X114761905Y-78966723D02*
X114714286Y-78776247D01*
X114714286Y-78776247D02*
X114714286Y-78633390D01*
X114714286Y-78633390D02*
X114761905Y-78442914D01*
X114761905Y-78442914D02*
X114809524Y-78347676D01*
X114809524Y-78347676D02*
X114904762Y-78252438D01*
X114904762Y-78252438D02*
X115047619Y-78204819D01*
X115047619Y-78204819D02*
X115142857Y-78204819D01*
X115142857Y-78204819D02*
X115285714Y-78252438D01*
X115285714Y-78252438D02*
X115333333Y-78300057D01*
X116238095Y-78204819D02*
X115761905Y-78204819D01*
X115761905Y-78204819D02*
X115714286Y-78681009D01*
X115714286Y-78681009D02*
X115761905Y-78633390D01*
X115761905Y-78633390D02*
X115857143Y-78585771D01*
X115857143Y-78585771D02*
X116095238Y-78585771D01*
X116095238Y-78585771D02*
X116190476Y-78633390D01*
X116190476Y-78633390D02*
X116238095Y-78681009D01*
X116238095Y-78681009D02*
X116285714Y-78776247D01*
X116285714Y-78776247D02*
X116285714Y-79014342D01*
X116285714Y-79014342D02*
X116238095Y-79109580D01*
X116238095Y-79109580D02*
X116190476Y-79157200D01*
X116190476Y-79157200D02*
X116095238Y-79204819D01*
X116095238Y-79204819D02*
X115857143Y-79204819D01*
X115857143Y-79204819D02*
X115761905Y-79157200D01*
X115761905Y-79157200D02*
X115714286Y-79109580D01*
X112357142Y-110694819D02*
X112023809Y-110218628D01*
X111785714Y-110694819D02*
X111785714Y-109694819D01*
X111785714Y-109694819D02*
X112166666Y-109694819D01*
X112166666Y-109694819D02*
X112261904Y-109742438D01*
X112261904Y-109742438D02*
X112309523Y-109790057D01*
X112309523Y-109790057D02*
X112357142Y-109885295D01*
X112357142Y-109885295D02*
X112357142Y-110028152D01*
X112357142Y-110028152D02*
X112309523Y-110123390D01*
X112309523Y-110123390D02*
X112261904Y-110171009D01*
X112261904Y-110171009D02*
X112166666Y-110218628D01*
X112166666Y-110218628D02*
X111785714Y-110218628D01*
X112738095Y-109790057D02*
X112785714Y-109742438D01*
X112785714Y-109742438D02*
X112880952Y-109694819D01*
X112880952Y-109694819D02*
X113119047Y-109694819D01*
X113119047Y-109694819D02*
X113214285Y-109742438D01*
X113214285Y-109742438D02*
X113261904Y-109790057D01*
X113261904Y-109790057D02*
X113309523Y-109885295D01*
X113309523Y-109885295D02*
X113309523Y-109980533D01*
X113309523Y-109980533D02*
X113261904Y-110123390D01*
X113261904Y-110123390D02*
X112690476Y-110694819D01*
X112690476Y-110694819D02*
X113309523Y-110694819D01*
X113642857Y-109694819D02*
X114309523Y-109694819D01*
X114309523Y-109694819D02*
X113880952Y-110694819D01*
X127833333Y-93204819D02*
X127500000Y-92728628D01*
X127261905Y-93204819D02*
X127261905Y-92204819D01*
X127261905Y-92204819D02*
X127642857Y-92204819D01*
X127642857Y-92204819D02*
X127738095Y-92252438D01*
X127738095Y-92252438D02*
X127785714Y-92300057D01*
X127785714Y-92300057D02*
X127833333Y-92395295D01*
X127833333Y-92395295D02*
X127833333Y-92538152D01*
X127833333Y-92538152D02*
X127785714Y-92633390D01*
X127785714Y-92633390D02*
X127738095Y-92681009D01*
X127738095Y-92681009D02*
X127642857Y-92728628D01*
X127642857Y-92728628D02*
X127261905Y-92728628D01*
X128214286Y-92300057D02*
X128261905Y-92252438D01*
X128261905Y-92252438D02*
X128357143Y-92204819D01*
X128357143Y-92204819D02*
X128595238Y-92204819D01*
X128595238Y-92204819D02*
X128690476Y-92252438D01*
X128690476Y-92252438D02*
X128738095Y-92300057D01*
X128738095Y-92300057D02*
X128785714Y-92395295D01*
X128785714Y-92395295D02*
X128785714Y-92490533D01*
X128785714Y-92490533D02*
X128738095Y-92633390D01*
X128738095Y-92633390D02*
X128166667Y-93204819D01*
X128166667Y-93204819D02*
X128785714Y-93204819D01*
D12*
X116282380Y-90054318D02*
X116282380Y-91082413D01*
X116282380Y-91082413D02*
X116342857Y-91203365D01*
X116342857Y-91203365D02*
X116403333Y-91263842D01*
X116403333Y-91263842D02*
X116524285Y-91324318D01*
X116524285Y-91324318D02*
X116766190Y-91324318D01*
X116766190Y-91324318D02*
X116887142Y-91263842D01*
X116887142Y-91263842D02*
X116947619Y-91203365D01*
X116947619Y-91203365D02*
X117008095Y-91082413D01*
X117008095Y-91082413D02*
X117008095Y-90054318D01*
X118157142Y-90477651D02*
X118157142Y-91324318D01*
X117854761Y-89993842D02*
X117552380Y-90900984D01*
X117552380Y-90900984D02*
X118338571Y-90900984D01*
D11*
X126607142Y-80274819D02*
X126273809Y-79798628D01*
X126035714Y-80274819D02*
X126035714Y-79274819D01*
X126035714Y-79274819D02*
X126416666Y-79274819D01*
X126416666Y-79274819D02*
X126511904Y-79322438D01*
X126511904Y-79322438D02*
X126559523Y-79370057D01*
X126559523Y-79370057D02*
X126607142Y-79465295D01*
X126607142Y-79465295D02*
X126607142Y-79608152D01*
X126607142Y-79608152D02*
X126559523Y-79703390D01*
X126559523Y-79703390D02*
X126511904Y-79751009D01*
X126511904Y-79751009D02*
X126416666Y-79798628D01*
X126416666Y-79798628D02*
X126035714Y-79798628D01*
X127559523Y-80274819D02*
X126988095Y-80274819D01*
X127273809Y-80274819D02*
X127273809Y-79274819D01*
X127273809Y-79274819D02*
X127178571Y-79417676D01*
X127178571Y-79417676D02*
X127083333Y-79512914D01*
X127083333Y-79512914D02*
X126988095Y-79560533D01*
X128178571Y-79274819D02*
X128273809Y-79274819D01*
X128273809Y-79274819D02*
X128369047Y-79322438D01*
X128369047Y-79322438D02*
X128416666Y-79370057D01*
X128416666Y-79370057D02*
X128464285Y-79465295D01*
X128464285Y-79465295D02*
X128511904Y-79655771D01*
X128511904Y-79655771D02*
X128511904Y-79893866D01*
X128511904Y-79893866D02*
X128464285Y-80084342D01*
X128464285Y-80084342D02*
X128416666Y-80179580D01*
X128416666Y-80179580D02*
X128369047Y-80227200D01*
X128369047Y-80227200D02*
X128273809Y-80274819D01*
X128273809Y-80274819D02*
X128178571Y-80274819D01*
X128178571Y-80274819D02*
X128083333Y-80227200D01*
X128083333Y-80227200D02*
X128035714Y-80179580D01*
X128035714Y-80179580D02*
X127988095Y-80084342D01*
X127988095Y-80084342D02*
X127940476Y-79893866D01*
X127940476Y-79893866D02*
X127940476Y-79655771D01*
X127940476Y-79655771D02*
X127988095Y-79465295D01*
X127988095Y-79465295D02*
X128035714Y-79370057D01*
X128035714Y-79370057D02*
X128083333Y-79322438D01*
X128083333Y-79322438D02*
X128178571Y-79274819D01*
X120773809Y-79753628D02*
X120773809Y-80229819D01*
X120440476Y-79229819D02*
X120773809Y-79753628D01*
X120773809Y-79753628D02*
X121107142Y-79229819D01*
X121964285Y-80229819D02*
X121392857Y-80229819D01*
X121678571Y-80229819D02*
X121678571Y-79229819D01*
X121678571Y-79229819D02*
X121583333Y-79372676D01*
X121583333Y-79372676D02*
X121488095Y-79467914D01*
X121488095Y-79467914D02*
X121392857Y-79515533D01*
X140582142Y-101359580D02*
X140534523Y-101407200D01*
X140534523Y-101407200D02*
X140391666Y-101454819D01*
X140391666Y-101454819D02*
X140296428Y-101454819D01*
X140296428Y-101454819D02*
X140153571Y-101407200D01*
X140153571Y-101407200D02*
X140058333Y-101311961D01*
X140058333Y-101311961D02*
X140010714Y-101216723D01*
X140010714Y-101216723D02*
X139963095Y-101026247D01*
X139963095Y-101026247D02*
X139963095Y-100883390D01*
X139963095Y-100883390D02*
X140010714Y-100692914D01*
X140010714Y-100692914D02*
X140058333Y-100597676D01*
X140058333Y-100597676D02*
X140153571Y-100502438D01*
X140153571Y-100502438D02*
X140296428Y-100454819D01*
X140296428Y-100454819D02*
X140391666Y-100454819D01*
X140391666Y-100454819D02*
X140534523Y-100502438D01*
X140534523Y-100502438D02*
X140582142Y-100550057D01*
X141534523Y-101454819D02*
X140963095Y-101454819D01*
X141248809Y-101454819D02*
X141248809Y-100454819D01*
X141248809Y-100454819D02*
X141153571Y-100597676D01*
X141153571Y-100597676D02*
X141058333Y-100692914D01*
X141058333Y-100692914D02*
X140963095Y-100740533D01*
X142391666Y-100454819D02*
X142201190Y-100454819D01*
X142201190Y-100454819D02*
X142105952Y-100502438D01*
X142105952Y-100502438D02*
X142058333Y-100550057D01*
X142058333Y-100550057D02*
X141963095Y-100692914D01*
X141963095Y-100692914D02*
X141915476Y-100883390D01*
X141915476Y-100883390D02*
X141915476Y-101264342D01*
X141915476Y-101264342D02*
X141963095Y-101359580D01*
X141963095Y-101359580D02*
X142010714Y-101407200D01*
X142010714Y-101407200D02*
X142105952Y-101454819D01*
X142105952Y-101454819D02*
X142296428Y-101454819D01*
X142296428Y-101454819D02*
X142391666Y-101407200D01*
X142391666Y-101407200D02*
X142439285Y-101359580D01*
X142439285Y-101359580D02*
X142486904Y-101264342D01*
X142486904Y-101264342D02*
X142486904Y-101026247D01*
X142486904Y-101026247D02*
X142439285Y-100931009D01*
X142439285Y-100931009D02*
X142391666Y-100883390D01*
X142391666Y-100883390D02*
X142296428Y-100835771D01*
X142296428Y-100835771D02*
X142105952Y-100835771D01*
X142105952Y-100835771D02*
X142010714Y-100883390D01*
X142010714Y-100883390D02*
X141963095Y-100931009D01*
X141963095Y-100931009D02*
X141915476Y-101026247D01*
X105263095Y-105394819D02*
X105263095Y-106204342D01*
X105263095Y-106204342D02*
X105310714Y-106299580D01*
X105310714Y-106299580D02*
X105358333Y-106347200D01*
X105358333Y-106347200D02*
X105453571Y-106394819D01*
X105453571Y-106394819D02*
X105644047Y-106394819D01*
X105644047Y-106394819D02*
X105739285Y-106347200D01*
X105739285Y-106347200D02*
X105786904Y-106299580D01*
X105786904Y-106299580D02*
X105834523Y-106204342D01*
X105834523Y-106204342D02*
X105834523Y-105394819D01*
X106786904Y-105394819D02*
X106310714Y-105394819D01*
X106310714Y-105394819D02*
X106263095Y-105871009D01*
X106263095Y-105871009D02*
X106310714Y-105823390D01*
X106310714Y-105823390D02*
X106405952Y-105775771D01*
X106405952Y-105775771D02*
X106644047Y-105775771D01*
X106644047Y-105775771D02*
X106739285Y-105823390D01*
X106739285Y-105823390D02*
X106786904Y-105871009D01*
X106786904Y-105871009D02*
X106834523Y-105966247D01*
X106834523Y-105966247D02*
X106834523Y-106204342D01*
X106834523Y-106204342D02*
X106786904Y-106299580D01*
X106786904Y-106299580D02*
X106739285Y-106347200D01*
X106739285Y-106347200D02*
X106644047Y-106394819D01*
X106644047Y-106394819D02*
X106405952Y-106394819D01*
X106405952Y-106394819D02*
X106310714Y-106347200D01*
X106310714Y-106347200D02*
X106263095Y-106299580D01*
X140582142Y-104454819D02*
X140248809Y-103978628D01*
X140010714Y-104454819D02*
X140010714Y-103454819D01*
X140010714Y-103454819D02*
X140391666Y-103454819D01*
X140391666Y-103454819D02*
X140486904Y-103502438D01*
X140486904Y-103502438D02*
X140534523Y-103550057D01*
X140534523Y-103550057D02*
X140582142Y-103645295D01*
X140582142Y-103645295D02*
X140582142Y-103788152D01*
X140582142Y-103788152D02*
X140534523Y-103883390D01*
X140534523Y-103883390D02*
X140486904Y-103931009D01*
X140486904Y-103931009D02*
X140391666Y-103978628D01*
X140391666Y-103978628D02*
X140010714Y-103978628D01*
X141534523Y-104454819D02*
X140963095Y-104454819D01*
X141248809Y-104454819D02*
X141248809Y-103454819D01*
X141248809Y-103454819D02*
X141153571Y-103597676D01*
X141153571Y-103597676D02*
X141058333Y-103692914D01*
X141058333Y-103692914D02*
X140963095Y-103740533D01*
X142010714Y-104454819D02*
X142201190Y-104454819D01*
X142201190Y-104454819D02*
X142296428Y-104407200D01*
X142296428Y-104407200D02*
X142344047Y-104359580D01*
X142344047Y-104359580D02*
X142439285Y-104216723D01*
X142439285Y-104216723D02*
X142486904Y-104026247D01*
X142486904Y-104026247D02*
X142486904Y-103645295D01*
X142486904Y-103645295D02*
X142439285Y-103550057D01*
X142439285Y-103550057D02*
X142391666Y-103502438D01*
X142391666Y-103502438D02*
X142296428Y-103454819D01*
X142296428Y-103454819D02*
X142105952Y-103454819D01*
X142105952Y-103454819D02*
X142010714Y-103502438D01*
X142010714Y-103502438D02*
X141963095Y-103550057D01*
X141963095Y-103550057D02*
X141915476Y-103645295D01*
X141915476Y-103645295D02*
X141915476Y-103883390D01*
X141915476Y-103883390D02*
X141963095Y-103978628D01*
X141963095Y-103978628D02*
X142010714Y-104026247D01*
X142010714Y-104026247D02*
X142105952Y-104073866D01*
X142105952Y-104073866D02*
X142296428Y-104073866D01*
X142296428Y-104073866D02*
X142391666Y-104026247D01*
X142391666Y-104026247D02*
X142439285Y-103978628D01*
X142439285Y-103978628D02*
X142486904Y-103883390D01*
X126607142Y-122859580D02*
X126559523Y-122907200D01*
X126559523Y-122907200D02*
X126416666Y-122954819D01*
X126416666Y-122954819D02*
X126321428Y-122954819D01*
X126321428Y-122954819D02*
X126178571Y-122907200D01*
X126178571Y-122907200D02*
X126083333Y-122811961D01*
X126083333Y-122811961D02*
X126035714Y-122716723D01*
X126035714Y-122716723D02*
X125988095Y-122526247D01*
X125988095Y-122526247D02*
X125988095Y-122383390D01*
X125988095Y-122383390D02*
X126035714Y-122192914D01*
X126035714Y-122192914D02*
X126083333Y-122097676D01*
X126083333Y-122097676D02*
X126178571Y-122002438D01*
X126178571Y-122002438D02*
X126321428Y-121954819D01*
X126321428Y-121954819D02*
X126416666Y-121954819D01*
X126416666Y-121954819D02*
X126559523Y-122002438D01*
X126559523Y-122002438D02*
X126607142Y-122050057D01*
X127559523Y-122954819D02*
X126988095Y-122954819D01*
X127273809Y-122954819D02*
X127273809Y-121954819D01*
X127273809Y-121954819D02*
X127178571Y-122097676D01*
X127178571Y-122097676D02*
X127083333Y-122192914D01*
X127083333Y-122192914D02*
X126988095Y-122240533D01*
X128464285Y-121954819D02*
X127988095Y-121954819D01*
X127988095Y-121954819D02*
X127940476Y-122431009D01*
X127940476Y-122431009D02*
X127988095Y-122383390D01*
X127988095Y-122383390D02*
X128083333Y-122335771D01*
X128083333Y-122335771D02*
X128321428Y-122335771D01*
X128321428Y-122335771D02*
X128416666Y-122383390D01*
X128416666Y-122383390D02*
X128464285Y-122431009D01*
X128464285Y-122431009D02*
X128511904Y-122526247D01*
X128511904Y-122526247D02*
X128511904Y-122764342D01*
X128511904Y-122764342D02*
X128464285Y-122859580D01*
X128464285Y-122859580D02*
X128416666Y-122907200D01*
X128416666Y-122907200D02*
X128321428Y-122954819D01*
X128321428Y-122954819D02*
X128083333Y-122954819D01*
X128083333Y-122954819D02*
X127988095Y-122907200D01*
X127988095Y-122907200D02*
X127940476Y-122859580D01*
X115357142Y-101609580D02*
X115309523Y-101657200D01*
X115309523Y-101657200D02*
X115166666Y-101704819D01*
X115166666Y-101704819D02*
X115071428Y-101704819D01*
X115071428Y-101704819D02*
X114928571Y-101657200D01*
X114928571Y-101657200D02*
X114833333Y-101561961D01*
X114833333Y-101561961D02*
X114785714Y-101466723D01*
X114785714Y-101466723D02*
X114738095Y-101276247D01*
X114738095Y-101276247D02*
X114738095Y-101133390D01*
X114738095Y-101133390D02*
X114785714Y-100942914D01*
X114785714Y-100942914D02*
X114833333Y-100847676D01*
X114833333Y-100847676D02*
X114928571Y-100752438D01*
X114928571Y-100752438D02*
X115071428Y-100704819D01*
X115071428Y-100704819D02*
X115166666Y-100704819D01*
X115166666Y-100704819D02*
X115309523Y-100752438D01*
X115309523Y-100752438D02*
X115357142Y-100800057D01*
X115738095Y-100800057D02*
X115785714Y-100752438D01*
X115785714Y-100752438D02*
X115880952Y-100704819D01*
X115880952Y-100704819D02*
X116119047Y-100704819D01*
X116119047Y-100704819D02*
X116214285Y-100752438D01*
X116214285Y-100752438D02*
X116261904Y-100800057D01*
X116261904Y-100800057D02*
X116309523Y-100895295D01*
X116309523Y-100895295D02*
X116309523Y-100990533D01*
X116309523Y-100990533D02*
X116261904Y-101133390D01*
X116261904Y-101133390D02*
X115690476Y-101704819D01*
X115690476Y-101704819D02*
X116309523Y-101704819D01*
X116785714Y-101704819D02*
X116976190Y-101704819D01*
X116976190Y-101704819D02*
X117071428Y-101657200D01*
X117071428Y-101657200D02*
X117119047Y-101609580D01*
X117119047Y-101609580D02*
X117214285Y-101466723D01*
X117214285Y-101466723D02*
X117261904Y-101276247D01*
X117261904Y-101276247D02*
X117261904Y-100895295D01*
X117261904Y-100895295D02*
X117214285Y-100800057D01*
X117214285Y-100800057D02*
X117166666Y-100752438D01*
X117166666Y-100752438D02*
X117071428Y-100704819D01*
X117071428Y-100704819D02*
X116880952Y-100704819D01*
X116880952Y-100704819D02*
X116785714Y-100752438D01*
X116785714Y-100752438D02*
X116738095Y-100800057D01*
X116738095Y-100800057D02*
X116690476Y-100895295D01*
X116690476Y-100895295D02*
X116690476Y-101133390D01*
X116690476Y-101133390D02*
X116738095Y-101228628D01*
X116738095Y-101228628D02*
X116785714Y-101276247D01*
X116785714Y-101276247D02*
X116880952Y-101323866D01*
X116880952Y-101323866D02*
X117071428Y-101323866D01*
X117071428Y-101323866D02*
X117166666Y-101276247D01*
X117166666Y-101276247D02*
X117214285Y-101228628D01*
X117214285Y-101228628D02*
X117261904Y-101133390D01*
X134954819Y-85666666D02*
X134478628Y-85999999D01*
X134954819Y-86238094D02*
X133954819Y-86238094D01*
X133954819Y-86238094D02*
X133954819Y-85857142D01*
X133954819Y-85857142D02*
X134002438Y-85761904D01*
X134002438Y-85761904D02*
X134050057Y-85714285D01*
X134050057Y-85714285D02*
X134145295Y-85666666D01*
X134145295Y-85666666D02*
X134288152Y-85666666D01*
X134288152Y-85666666D02*
X134383390Y-85714285D01*
X134383390Y-85714285D02*
X134431009Y-85761904D01*
X134431009Y-85761904D02*
X134478628Y-85857142D01*
X134478628Y-85857142D02*
X134478628Y-86238094D01*
X134383390Y-85095237D02*
X134335771Y-85190475D01*
X134335771Y-85190475D02*
X134288152Y-85238094D01*
X134288152Y-85238094D02*
X134192914Y-85285713D01*
X134192914Y-85285713D02*
X134145295Y-85285713D01*
X134145295Y-85285713D02*
X134050057Y-85238094D01*
X134050057Y-85238094D02*
X134002438Y-85190475D01*
X134002438Y-85190475D02*
X133954819Y-85095237D01*
X133954819Y-85095237D02*
X133954819Y-84904761D01*
X133954819Y-84904761D02*
X134002438Y-84809523D01*
X134002438Y-84809523D02*
X134050057Y-84761904D01*
X134050057Y-84761904D02*
X134145295Y-84714285D01*
X134145295Y-84714285D02*
X134192914Y-84714285D01*
X134192914Y-84714285D02*
X134288152Y-84761904D01*
X134288152Y-84761904D02*
X134335771Y-84809523D01*
X134335771Y-84809523D02*
X134383390Y-84904761D01*
X134383390Y-84904761D02*
X134383390Y-85095237D01*
X134383390Y-85095237D02*
X134431009Y-85190475D01*
X134431009Y-85190475D02*
X134478628Y-85238094D01*
X134478628Y-85238094D02*
X134573866Y-85285713D01*
X134573866Y-85285713D02*
X134764342Y-85285713D01*
X134764342Y-85285713D02*
X134859580Y-85238094D01*
X134859580Y-85238094D02*
X134907200Y-85190475D01*
X134907200Y-85190475D02*
X134954819Y-85095237D01*
X134954819Y-85095237D02*
X134954819Y-84904761D01*
X134954819Y-84904761D02*
X134907200Y-84809523D01*
X134907200Y-84809523D02*
X134859580Y-84761904D01*
X134859580Y-84761904D02*
X134764342Y-84714285D01*
X134764342Y-84714285D02*
X134573866Y-84714285D01*
X134573866Y-84714285D02*
X134478628Y-84761904D01*
X134478628Y-84761904D02*
X134431009Y-84809523D01*
X134431009Y-84809523D02*
X134383390Y-84904761D01*
X132357142Y-121342319D02*
X132023809Y-120866128D01*
X131785714Y-121342319D02*
X131785714Y-120342319D01*
X131785714Y-120342319D02*
X132166666Y-120342319D01*
X132166666Y-120342319D02*
X132261904Y-120389938D01*
X132261904Y-120389938D02*
X132309523Y-120437557D01*
X132309523Y-120437557D02*
X132357142Y-120532795D01*
X132357142Y-120532795D02*
X132357142Y-120675652D01*
X132357142Y-120675652D02*
X132309523Y-120770890D01*
X132309523Y-120770890D02*
X132261904Y-120818509D01*
X132261904Y-120818509D02*
X132166666Y-120866128D01*
X132166666Y-120866128D02*
X131785714Y-120866128D01*
X132738095Y-120437557D02*
X132785714Y-120389938D01*
X132785714Y-120389938D02*
X132880952Y-120342319D01*
X132880952Y-120342319D02*
X133119047Y-120342319D01*
X133119047Y-120342319D02*
X133214285Y-120389938D01*
X133214285Y-120389938D02*
X133261904Y-120437557D01*
X133261904Y-120437557D02*
X133309523Y-120532795D01*
X133309523Y-120532795D02*
X133309523Y-120628033D01*
X133309523Y-120628033D02*
X133261904Y-120770890D01*
X133261904Y-120770890D02*
X132690476Y-121342319D01*
X132690476Y-121342319D02*
X133309523Y-121342319D01*
X134261904Y-121342319D02*
X133690476Y-121342319D01*
X133976190Y-121342319D02*
X133976190Y-120342319D01*
X133976190Y-120342319D02*
X133880952Y-120485176D01*
X133880952Y-120485176D02*
X133785714Y-120580414D01*
X133785714Y-120580414D02*
X133690476Y-120628033D01*
X115333333Y-82179580D02*
X115285714Y-82227200D01*
X115285714Y-82227200D02*
X115142857Y-82274819D01*
X115142857Y-82274819D02*
X115047619Y-82274819D01*
X115047619Y-82274819D02*
X114904762Y-82227200D01*
X114904762Y-82227200D02*
X114809524Y-82131961D01*
X114809524Y-82131961D02*
X114761905Y-82036723D01*
X114761905Y-82036723D02*
X114714286Y-81846247D01*
X114714286Y-81846247D02*
X114714286Y-81703390D01*
X114714286Y-81703390D02*
X114761905Y-81512914D01*
X114761905Y-81512914D02*
X114809524Y-81417676D01*
X114809524Y-81417676D02*
X114904762Y-81322438D01*
X114904762Y-81322438D02*
X115047619Y-81274819D01*
X115047619Y-81274819D02*
X115142857Y-81274819D01*
X115142857Y-81274819D02*
X115285714Y-81322438D01*
X115285714Y-81322438D02*
X115333333Y-81370057D01*
X116285714Y-82274819D02*
X115714286Y-82274819D01*
X116000000Y-82274819D02*
X116000000Y-81274819D01*
X116000000Y-81274819D02*
X115904762Y-81417676D01*
X115904762Y-81417676D02*
X115809524Y-81512914D01*
X115809524Y-81512914D02*
X115714286Y-81560533D01*
X132357142Y-122859580D02*
X132309523Y-122907200D01*
X132309523Y-122907200D02*
X132166666Y-122954819D01*
X132166666Y-122954819D02*
X132071428Y-122954819D01*
X132071428Y-122954819D02*
X131928571Y-122907200D01*
X131928571Y-122907200D02*
X131833333Y-122811961D01*
X131833333Y-122811961D02*
X131785714Y-122716723D01*
X131785714Y-122716723D02*
X131738095Y-122526247D01*
X131738095Y-122526247D02*
X131738095Y-122383390D01*
X131738095Y-122383390D02*
X131785714Y-122192914D01*
X131785714Y-122192914D02*
X131833333Y-122097676D01*
X131833333Y-122097676D02*
X131928571Y-122002438D01*
X131928571Y-122002438D02*
X132071428Y-121954819D01*
X132071428Y-121954819D02*
X132166666Y-121954819D01*
X132166666Y-121954819D02*
X132309523Y-122002438D01*
X132309523Y-122002438D02*
X132357142Y-122050057D01*
X133309523Y-122954819D02*
X132738095Y-122954819D01*
X133023809Y-122954819D02*
X133023809Y-121954819D01*
X133023809Y-121954819D02*
X132928571Y-122097676D01*
X132928571Y-122097676D02*
X132833333Y-122192914D01*
X132833333Y-122192914D02*
X132738095Y-122240533D01*
X133642857Y-121954819D02*
X134309523Y-121954819D01*
X134309523Y-121954819D02*
X133880952Y-122954819D01*
X142082142Y-118342319D02*
X141748809Y-117866128D01*
X141510714Y-118342319D02*
X141510714Y-117342319D01*
X141510714Y-117342319D02*
X141891666Y-117342319D01*
X141891666Y-117342319D02*
X141986904Y-117389938D01*
X141986904Y-117389938D02*
X142034523Y-117437557D01*
X142034523Y-117437557D02*
X142082142Y-117532795D01*
X142082142Y-117532795D02*
X142082142Y-117675652D01*
X142082142Y-117675652D02*
X142034523Y-117770890D01*
X142034523Y-117770890D02*
X141986904Y-117818509D01*
X141986904Y-117818509D02*
X141891666Y-117866128D01*
X141891666Y-117866128D02*
X141510714Y-117866128D01*
X142463095Y-117437557D02*
X142510714Y-117389938D01*
X142510714Y-117389938D02*
X142605952Y-117342319D01*
X142605952Y-117342319D02*
X142844047Y-117342319D01*
X142844047Y-117342319D02*
X142939285Y-117389938D01*
X142939285Y-117389938D02*
X142986904Y-117437557D01*
X142986904Y-117437557D02*
X143034523Y-117532795D01*
X143034523Y-117532795D02*
X143034523Y-117628033D01*
X143034523Y-117628033D02*
X142986904Y-117770890D01*
X142986904Y-117770890D02*
X142415476Y-118342319D01*
X142415476Y-118342319D02*
X143034523Y-118342319D01*
X143367857Y-117342319D02*
X143986904Y-117342319D01*
X143986904Y-117342319D02*
X143653571Y-117723271D01*
X143653571Y-117723271D02*
X143796428Y-117723271D01*
X143796428Y-117723271D02*
X143891666Y-117770890D01*
X143891666Y-117770890D02*
X143939285Y-117818509D01*
X143939285Y-117818509D02*
X143986904Y-117913747D01*
X143986904Y-117913747D02*
X143986904Y-118151842D01*
X143986904Y-118151842D02*
X143939285Y-118247080D01*
X143939285Y-118247080D02*
X143891666Y-118294700D01*
X143891666Y-118294700D02*
X143796428Y-118342319D01*
X143796428Y-118342319D02*
X143510714Y-118342319D01*
X143510714Y-118342319D02*
X143415476Y-118294700D01*
X143415476Y-118294700D02*
X143367857Y-118247080D01*
X142082142Y-119747080D02*
X142034523Y-119794700D01*
X142034523Y-119794700D02*
X141891666Y-119842319D01*
X141891666Y-119842319D02*
X141796428Y-119842319D01*
X141796428Y-119842319D02*
X141653571Y-119794700D01*
X141653571Y-119794700D02*
X141558333Y-119699461D01*
X141558333Y-119699461D02*
X141510714Y-119604223D01*
X141510714Y-119604223D02*
X141463095Y-119413747D01*
X141463095Y-119413747D02*
X141463095Y-119270890D01*
X141463095Y-119270890D02*
X141510714Y-119080414D01*
X141510714Y-119080414D02*
X141558333Y-118985176D01*
X141558333Y-118985176D02*
X141653571Y-118889938D01*
X141653571Y-118889938D02*
X141796428Y-118842319D01*
X141796428Y-118842319D02*
X141891666Y-118842319D01*
X141891666Y-118842319D02*
X142034523Y-118889938D01*
X142034523Y-118889938D02*
X142082142Y-118937557D01*
X142463095Y-118937557D02*
X142510714Y-118889938D01*
X142510714Y-118889938D02*
X142605952Y-118842319D01*
X142605952Y-118842319D02*
X142844047Y-118842319D01*
X142844047Y-118842319D02*
X142939285Y-118889938D01*
X142939285Y-118889938D02*
X142986904Y-118937557D01*
X142986904Y-118937557D02*
X143034523Y-119032795D01*
X143034523Y-119032795D02*
X143034523Y-119128033D01*
X143034523Y-119128033D02*
X142986904Y-119270890D01*
X142986904Y-119270890D02*
X142415476Y-119842319D01*
X142415476Y-119842319D02*
X143034523Y-119842319D01*
X143653571Y-118842319D02*
X143748809Y-118842319D01*
X143748809Y-118842319D02*
X143844047Y-118889938D01*
X143844047Y-118889938D02*
X143891666Y-118937557D01*
X143891666Y-118937557D02*
X143939285Y-119032795D01*
X143939285Y-119032795D02*
X143986904Y-119223271D01*
X143986904Y-119223271D02*
X143986904Y-119461366D01*
X143986904Y-119461366D02*
X143939285Y-119651842D01*
X143939285Y-119651842D02*
X143891666Y-119747080D01*
X143891666Y-119747080D02*
X143844047Y-119794700D01*
X143844047Y-119794700D02*
X143748809Y-119842319D01*
X143748809Y-119842319D02*
X143653571Y-119842319D01*
X143653571Y-119842319D02*
X143558333Y-119794700D01*
X143558333Y-119794700D02*
X143510714Y-119747080D01*
X143510714Y-119747080D02*
X143463095Y-119651842D01*
X143463095Y-119651842D02*
X143415476Y-119461366D01*
X143415476Y-119461366D02*
X143415476Y-119223271D01*
X143415476Y-119223271D02*
X143463095Y-119032795D01*
X143463095Y-119032795D02*
X143510714Y-118937557D01*
X143510714Y-118937557D02*
X143558333Y-118889938D01*
X143558333Y-118889938D02*
X143653571Y-118842319D01*
X112333333Y-105944819D02*
X112000000Y-105468628D01*
X111761905Y-105944819D02*
X111761905Y-104944819D01*
X111761905Y-104944819D02*
X112142857Y-104944819D01*
X112142857Y-104944819D02*
X112238095Y-104992438D01*
X112238095Y-104992438D02*
X112285714Y-105040057D01*
X112285714Y-105040057D02*
X112333333Y-105135295D01*
X112333333Y-105135295D02*
X112333333Y-105278152D01*
X112333333Y-105278152D02*
X112285714Y-105373390D01*
X112285714Y-105373390D02*
X112238095Y-105421009D01*
X112238095Y-105421009D02*
X112142857Y-105468628D01*
X112142857Y-105468628D02*
X111761905Y-105468628D01*
X113285714Y-105944819D02*
X112714286Y-105944819D01*
X113000000Y-105944819D02*
X113000000Y-104944819D01*
X113000000Y-104944819D02*
X112904762Y-105087676D01*
X112904762Y-105087676D02*
X112809524Y-105182914D01*
X112809524Y-105182914D02*
X112714286Y-105230533D01*
X132583333Y-94289580D02*
X132535714Y-94337200D01*
X132535714Y-94337200D02*
X132392857Y-94384819D01*
X132392857Y-94384819D02*
X132297619Y-94384819D01*
X132297619Y-94384819D02*
X132154762Y-94337200D01*
X132154762Y-94337200D02*
X132059524Y-94241961D01*
X132059524Y-94241961D02*
X132011905Y-94146723D01*
X132011905Y-94146723D02*
X131964286Y-93956247D01*
X131964286Y-93956247D02*
X131964286Y-93813390D01*
X131964286Y-93813390D02*
X132011905Y-93622914D01*
X132011905Y-93622914D02*
X132059524Y-93527676D01*
X132059524Y-93527676D02*
X132154762Y-93432438D01*
X132154762Y-93432438D02*
X132297619Y-93384819D01*
X132297619Y-93384819D02*
X132392857Y-93384819D01*
X132392857Y-93384819D02*
X132535714Y-93432438D01*
X132535714Y-93432438D02*
X132583333Y-93480057D01*
X133440476Y-93384819D02*
X133250000Y-93384819D01*
X133250000Y-93384819D02*
X133154762Y-93432438D01*
X133154762Y-93432438D02*
X133107143Y-93480057D01*
X133107143Y-93480057D02*
X133011905Y-93622914D01*
X133011905Y-93622914D02*
X132964286Y-93813390D01*
X132964286Y-93813390D02*
X132964286Y-94194342D01*
X132964286Y-94194342D02*
X133011905Y-94289580D01*
X133011905Y-94289580D02*
X133059524Y-94337200D01*
X133059524Y-94337200D02*
X133154762Y-94384819D01*
X133154762Y-94384819D02*
X133345238Y-94384819D01*
X133345238Y-94384819D02*
X133440476Y-94337200D01*
X133440476Y-94337200D02*
X133488095Y-94289580D01*
X133488095Y-94289580D02*
X133535714Y-94194342D01*
X133535714Y-94194342D02*
X133535714Y-93956247D01*
X133535714Y-93956247D02*
X133488095Y-93861009D01*
X133488095Y-93861009D02*
X133440476Y-93813390D01*
X133440476Y-93813390D02*
X133345238Y-93765771D01*
X133345238Y-93765771D02*
X133154762Y-93765771D01*
X133154762Y-93765771D02*
X133059524Y-93813390D01*
X133059524Y-93813390D02*
X133011905Y-93861009D01*
X133011905Y-93861009D02*
X132964286Y-93956247D01*
X117107142Y-121342319D02*
X116773809Y-120866128D01*
X116535714Y-121342319D02*
X116535714Y-120342319D01*
X116535714Y-120342319D02*
X116916666Y-120342319D01*
X116916666Y-120342319D02*
X117011904Y-120389938D01*
X117011904Y-120389938D02*
X117059523Y-120437557D01*
X117059523Y-120437557D02*
X117107142Y-120532795D01*
X117107142Y-120532795D02*
X117107142Y-120675652D01*
X117107142Y-120675652D02*
X117059523Y-120770890D01*
X117059523Y-120770890D02*
X117011904Y-120818509D01*
X117011904Y-120818509D02*
X116916666Y-120866128D01*
X116916666Y-120866128D02*
X116535714Y-120866128D01*
X118059523Y-121342319D02*
X117488095Y-121342319D01*
X117773809Y-121342319D02*
X117773809Y-120342319D01*
X117773809Y-120342319D02*
X117678571Y-120485176D01*
X117678571Y-120485176D02*
X117583333Y-120580414D01*
X117583333Y-120580414D02*
X117488095Y-120628033D01*
X118392857Y-120342319D02*
X119059523Y-120342319D01*
X119059523Y-120342319D02*
X118630952Y-121342319D01*
X139333333Y-88704819D02*
X139000000Y-88228628D01*
X138761905Y-88704819D02*
X138761905Y-87704819D01*
X138761905Y-87704819D02*
X139142857Y-87704819D01*
X139142857Y-87704819D02*
X139238095Y-87752438D01*
X139238095Y-87752438D02*
X139285714Y-87800057D01*
X139285714Y-87800057D02*
X139333333Y-87895295D01*
X139333333Y-87895295D02*
X139333333Y-88038152D01*
X139333333Y-88038152D02*
X139285714Y-88133390D01*
X139285714Y-88133390D02*
X139238095Y-88181009D01*
X139238095Y-88181009D02*
X139142857Y-88228628D01*
X139142857Y-88228628D02*
X138761905Y-88228628D01*
X139666667Y-87704819D02*
X140333333Y-87704819D01*
X140333333Y-87704819D02*
X139904762Y-88704819D01*
X112358333Y-107704819D02*
X112025000Y-107228628D01*
X111786905Y-107704819D02*
X111786905Y-106704819D01*
X111786905Y-106704819D02*
X112167857Y-106704819D01*
X112167857Y-106704819D02*
X112263095Y-106752438D01*
X112263095Y-106752438D02*
X112310714Y-106800057D01*
X112310714Y-106800057D02*
X112358333Y-106895295D01*
X112358333Y-106895295D02*
X112358333Y-107038152D01*
X112358333Y-107038152D02*
X112310714Y-107133390D01*
X112310714Y-107133390D02*
X112263095Y-107181009D01*
X112263095Y-107181009D02*
X112167857Y-107228628D01*
X112167857Y-107228628D02*
X111786905Y-107228628D01*
X112691667Y-106704819D02*
X113310714Y-106704819D01*
X113310714Y-106704819D02*
X112977381Y-107085771D01*
X112977381Y-107085771D02*
X113120238Y-107085771D01*
X113120238Y-107085771D02*
X113215476Y-107133390D01*
X113215476Y-107133390D02*
X113263095Y-107181009D01*
X113263095Y-107181009D02*
X113310714Y-107276247D01*
X113310714Y-107276247D02*
X113310714Y-107514342D01*
X113310714Y-107514342D02*
X113263095Y-107609580D01*
X113263095Y-107609580D02*
X113215476Y-107657200D01*
X113215476Y-107657200D02*
X113120238Y-107704819D01*
X113120238Y-107704819D02*
X112834524Y-107704819D01*
X112834524Y-107704819D02*
X112739286Y-107657200D01*
X112739286Y-107657200D02*
X112691667Y-107609580D01*
X125033333Y-96859580D02*
X124985714Y-96907200D01*
X124985714Y-96907200D02*
X124842857Y-96954819D01*
X124842857Y-96954819D02*
X124747619Y-96954819D01*
X124747619Y-96954819D02*
X124604762Y-96907200D01*
X124604762Y-96907200D02*
X124509524Y-96811961D01*
X124509524Y-96811961D02*
X124461905Y-96716723D01*
X124461905Y-96716723D02*
X124414286Y-96526247D01*
X124414286Y-96526247D02*
X124414286Y-96383390D01*
X124414286Y-96383390D02*
X124461905Y-96192914D01*
X124461905Y-96192914D02*
X124509524Y-96097676D01*
X124509524Y-96097676D02*
X124604762Y-96002438D01*
X124604762Y-96002438D02*
X124747619Y-95954819D01*
X124747619Y-95954819D02*
X124842857Y-95954819D01*
X124842857Y-95954819D02*
X124985714Y-96002438D01*
X124985714Y-96002438D02*
X125033333Y-96050057D01*
X125414286Y-96050057D02*
X125461905Y-96002438D01*
X125461905Y-96002438D02*
X125557143Y-95954819D01*
X125557143Y-95954819D02*
X125795238Y-95954819D01*
X125795238Y-95954819D02*
X125890476Y-96002438D01*
X125890476Y-96002438D02*
X125938095Y-96050057D01*
X125938095Y-96050057D02*
X125985714Y-96145295D01*
X125985714Y-96145295D02*
X125985714Y-96240533D01*
X125985714Y-96240533D02*
X125938095Y-96383390D01*
X125938095Y-96383390D02*
X125366667Y-96954819D01*
X125366667Y-96954819D02*
X125985714Y-96954819D01*
X124857142Y-115082319D02*
X124523809Y-114606128D01*
X124285714Y-115082319D02*
X124285714Y-114082319D01*
X124285714Y-114082319D02*
X124666666Y-114082319D01*
X124666666Y-114082319D02*
X124761904Y-114129938D01*
X124761904Y-114129938D02*
X124809523Y-114177557D01*
X124809523Y-114177557D02*
X124857142Y-114272795D01*
X124857142Y-114272795D02*
X124857142Y-114415652D01*
X124857142Y-114415652D02*
X124809523Y-114510890D01*
X124809523Y-114510890D02*
X124761904Y-114558509D01*
X124761904Y-114558509D02*
X124666666Y-114606128D01*
X124666666Y-114606128D02*
X124285714Y-114606128D01*
X125809523Y-115082319D02*
X125238095Y-115082319D01*
X125523809Y-115082319D02*
X125523809Y-114082319D01*
X125523809Y-114082319D02*
X125428571Y-114225176D01*
X125428571Y-114225176D02*
X125333333Y-114320414D01*
X125333333Y-114320414D02*
X125238095Y-114368033D01*
X126142857Y-114082319D02*
X126761904Y-114082319D01*
X126761904Y-114082319D02*
X126428571Y-114463271D01*
X126428571Y-114463271D02*
X126571428Y-114463271D01*
X126571428Y-114463271D02*
X126666666Y-114510890D01*
X126666666Y-114510890D02*
X126714285Y-114558509D01*
X126714285Y-114558509D02*
X126761904Y-114653747D01*
X126761904Y-114653747D02*
X126761904Y-114891842D01*
X126761904Y-114891842D02*
X126714285Y-114987080D01*
X126714285Y-114987080D02*
X126666666Y-115034700D01*
X126666666Y-115034700D02*
X126571428Y-115082319D01*
X126571428Y-115082319D02*
X126285714Y-115082319D01*
X126285714Y-115082319D02*
X126190476Y-115034700D01*
X126190476Y-115034700D02*
X126142857Y-114987080D01*
X129357142Y-111859580D02*
X129309523Y-111907200D01*
X129309523Y-111907200D02*
X129166666Y-111954819D01*
X129166666Y-111954819D02*
X129071428Y-111954819D01*
X129071428Y-111954819D02*
X128928571Y-111907200D01*
X128928571Y-111907200D02*
X128833333Y-111811961D01*
X128833333Y-111811961D02*
X128785714Y-111716723D01*
X128785714Y-111716723D02*
X128738095Y-111526247D01*
X128738095Y-111526247D02*
X128738095Y-111383390D01*
X128738095Y-111383390D02*
X128785714Y-111192914D01*
X128785714Y-111192914D02*
X128833333Y-111097676D01*
X128833333Y-111097676D02*
X128928571Y-111002438D01*
X128928571Y-111002438D02*
X129071428Y-110954819D01*
X129071428Y-110954819D02*
X129166666Y-110954819D01*
X129166666Y-110954819D02*
X129309523Y-111002438D01*
X129309523Y-111002438D02*
X129357142Y-111050057D01*
X129738095Y-111050057D02*
X129785714Y-111002438D01*
X129785714Y-111002438D02*
X129880952Y-110954819D01*
X129880952Y-110954819D02*
X130119047Y-110954819D01*
X130119047Y-110954819D02*
X130214285Y-111002438D01*
X130214285Y-111002438D02*
X130261904Y-111050057D01*
X130261904Y-111050057D02*
X130309523Y-111145295D01*
X130309523Y-111145295D02*
X130309523Y-111240533D01*
X130309523Y-111240533D02*
X130261904Y-111383390D01*
X130261904Y-111383390D02*
X129690476Y-111954819D01*
X129690476Y-111954819D02*
X130309523Y-111954819D01*
X131166666Y-111288152D02*
X131166666Y-111954819D01*
X130928571Y-110907200D02*
X130690476Y-111621485D01*
X130690476Y-111621485D02*
X131309523Y-111621485D01*
X133834580Y-111392857D02*
X133882200Y-111440476D01*
X133882200Y-111440476D02*
X133929819Y-111583333D01*
X133929819Y-111583333D02*
X133929819Y-111678571D01*
X133929819Y-111678571D02*
X133882200Y-111821428D01*
X133882200Y-111821428D02*
X133786961Y-111916666D01*
X133786961Y-111916666D02*
X133691723Y-111964285D01*
X133691723Y-111964285D02*
X133501247Y-112011904D01*
X133501247Y-112011904D02*
X133358390Y-112011904D01*
X133358390Y-112011904D02*
X133167914Y-111964285D01*
X133167914Y-111964285D02*
X133072676Y-111916666D01*
X133072676Y-111916666D02*
X132977438Y-111821428D01*
X132977438Y-111821428D02*
X132929819Y-111678571D01*
X132929819Y-111678571D02*
X132929819Y-111583333D01*
X132929819Y-111583333D02*
X132977438Y-111440476D01*
X132977438Y-111440476D02*
X133025057Y-111392857D01*
X133025057Y-111011904D02*
X132977438Y-110964285D01*
X132977438Y-110964285D02*
X132929819Y-110869047D01*
X132929819Y-110869047D02*
X132929819Y-110630952D01*
X132929819Y-110630952D02*
X132977438Y-110535714D01*
X132977438Y-110535714D02*
X133025057Y-110488095D01*
X133025057Y-110488095D02*
X133120295Y-110440476D01*
X133120295Y-110440476D02*
X133215533Y-110440476D01*
X133215533Y-110440476D02*
X133358390Y-110488095D01*
X133358390Y-110488095D02*
X133929819Y-111059523D01*
X133929819Y-111059523D02*
X133929819Y-110440476D01*
X132929819Y-109535714D02*
X132929819Y-110011904D01*
X132929819Y-110011904D02*
X133406009Y-110059523D01*
X133406009Y-110059523D02*
X133358390Y-110011904D01*
X133358390Y-110011904D02*
X133310771Y-109916666D01*
X133310771Y-109916666D02*
X133310771Y-109678571D01*
X133310771Y-109678571D02*
X133358390Y-109583333D01*
X133358390Y-109583333D02*
X133406009Y-109535714D01*
X133406009Y-109535714D02*
X133501247Y-109488095D01*
X133501247Y-109488095D02*
X133739342Y-109488095D01*
X133739342Y-109488095D02*
X133834580Y-109535714D01*
X133834580Y-109535714D02*
X133882200Y-109583333D01*
X133882200Y-109583333D02*
X133929819Y-109678571D01*
X133929819Y-109678571D02*
X133929819Y-109916666D01*
X133929819Y-109916666D02*
X133882200Y-110011904D01*
X133882200Y-110011904D02*
X133834580Y-110059523D01*
X131883333Y-79929580D02*
X131835714Y-79977200D01*
X131835714Y-79977200D02*
X131692857Y-80024819D01*
X131692857Y-80024819D02*
X131597619Y-80024819D01*
X131597619Y-80024819D02*
X131454762Y-79977200D01*
X131454762Y-79977200D02*
X131359524Y-79881961D01*
X131359524Y-79881961D02*
X131311905Y-79786723D01*
X131311905Y-79786723D02*
X131264286Y-79596247D01*
X131264286Y-79596247D02*
X131264286Y-79453390D01*
X131264286Y-79453390D02*
X131311905Y-79262914D01*
X131311905Y-79262914D02*
X131359524Y-79167676D01*
X131359524Y-79167676D02*
X131454762Y-79072438D01*
X131454762Y-79072438D02*
X131597619Y-79024819D01*
X131597619Y-79024819D02*
X131692857Y-79024819D01*
X131692857Y-79024819D02*
X131835714Y-79072438D01*
X131835714Y-79072438D02*
X131883333Y-79120057D01*
X132454762Y-79453390D02*
X132359524Y-79405771D01*
X132359524Y-79405771D02*
X132311905Y-79358152D01*
X132311905Y-79358152D02*
X132264286Y-79262914D01*
X132264286Y-79262914D02*
X132264286Y-79215295D01*
X132264286Y-79215295D02*
X132311905Y-79120057D01*
X132311905Y-79120057D02*
X132359524Y-79072438D01*
X132359524Y-79072438D02*
X132454762Y-79024819D01*
X132454762Y-79024819D02*
X132645238Y-79024819D01*
X132645238Y-79024819D02*
X132740476Y-79072438D01*
X132740476Y-79072438D02*
X132788095Y-79120057D01*
X132788095Y-79120057D02*
X132835714Y-79215295D01*
X132835714Y-79215295D02*
X132835714Y-79262914D01*
X132835714Y-79262914D02*
X132788095Y-79358152D01*
X132788095Y-79358152D02*
X132740476Y-79405771D01*
X132740476Y-79405771D02*
X132645238Y-79453390D01*
X132645238Y-79453390D02*
X132454762Y-79453390D01*
X132454762Y-79453390D02*
X132359524Y-79501009D01*
X132359524Y-79501009D02*
X132311905Y-79548628D01*
X132311905Y-79548628D02*
X132264286Y-79643866D01*
X132264286Y-79643866D02*
X132264286Y-79834342D01*
X132264286Y-79834342D02*
X132311905Y-79929580D01*
X132311905Y-79929580D02*
X132359524Y-79977200D01*
X132359524Y-79977200D02*
X132454762Y-80024819D01*
X132454762Y-80024819D02*
X132645238Y-80024819D01*
X132645238Y-80024819D02*
X132740476Y-79977200D01*
X132740476Y-79977200D02*
X132788095Y-79929580D01*
X132788095Y-79929580D02*
X132835714Y-79834342D01*
X132835714Y-79834342D02*
X132835714Y-79643866D01*
X132835714Y-79643866D02*
X132788095Y-79548628D01*
X132788095Y-79548628D02*
X132740476Y-79501009D01*
X132740476Y-79501009D02*
X132645238Y-79453390D01*
X117107142Y-118342319D02*
X116773809Y-117866128D01*
X116535714Y-118342319D02*
X116535714Y-117342319D01*
X116535714Y-117342319D02*
X116916666Y-117342319D01*
X116916666Y-117342319D02*
X117011904Y-117389938D01*
X117011904Y-117389938D02*
X117059523Y-117437557D01*
X117059523Y-117437557D02*
X117107142Y-117532795D01*
X117107142Y-117532795D02*
X117107142Y-117675652D01*
X117107142Y-117675652D02*
X117059523Y-117770890D01*
X117059523Y-117770890D02*
X117011904Y-117818509D01*
X117011904Y-117818509D02*
X116916666Y-117866128D01*
X116916666Y-117866128D02*
X116535714Y-117866128D01*
X118059523Y-118342319D02*
X117488095Y-118342319D01*
X117773809Y-118342319D02*
X117773809Y-117342319D01*
X117773809Y-117342319D02*
X117678571Y-117485176D01*
X117678571Y-117485176D02*
X117583333Y-117580414D01*
X117583333Y-117580414D02*
X117488095Y-117628033D01*
X118964285Y-117342319D02*
X118488095Y-117342319D01*
X118488095Y-117342319D02*
X118440476Y-117818509D01*
X118440476Y-117818509D02*
X118488095Y-117770890D01*
X118488095Y-117770890D02*
X118583333Y-117723271D01*
X118583333Y-117723271D02*
X118821428Y-117723271D01*
X118821428Y-117723271D02*
X118916666Y-117770890D01*
X118916666Y-117770890D02*
X118964285Y-117818509D01*
X118964285Y-117818509D02*
X119011904Y-117913747D01*
X119011904Y-117913747D02*
X119011904Y-118151842D01*
X119011904Y-118151842D02*
X118964285Y-118247080D01*
X118964285Y-118247080D02*
X118916666Y-118294700D01*
X118916666Y-118294700D02*
X118821428Y-118342319D01*
X118821428Y-118342319D02*
X118583333Y-118342319D01*
X118583333Y-118342319D02*
X118488095Y-118294700D01*
X118488095Y-118294700D02*
X118440476Y-118247080D01*
X140582142Y-115204819D02*
X140248809Y-114728628D01*
X140010714Y-115204819D02*
X140010714Y-114204819D01*
X140010714Y-114204819D02*
X140391666Y-114204819D01*
X140391666Y-114204819D02*
X140486904Y-114252438D01*
X140486904Y-114252438D02*
X140534523Y-114300057D01*
X140534523Y-114300057D02*
X140582142Y-114395295D01*
X140582142Y-114395295D02*
X140582142Y-114538152D01*
X140582142Y-114538152D02*
X140534523Y-114633390D01*
X140534523Y-114633390D02*
X140486904Y-114681009D01*
X140486904Y-114681009D02*
X140391666Y-114728628D01*
X140391666Y-114728628D02*
X140010714Y-114728628D01*
X140963095Y-114300057D02*
X141010714Y-114252438D01*
X141010714Y-114252438D02*
X141105952Y-114204819D01*
X141105952Y-114204819D02*
X141344047Y-114204819D01*
X141344047Y-114204819D02*
X141439285Y-114252438D01*
X141439285Y-114252438D02*
X141486904Y-114300057D01*
X141486904Y-114300057D02*
X141534523Y-114395295D01*
X141534523Y-114395295D02*
X141534523Y-114490533D01*
X141534523Y-114490533D02*
X141486904Y-114633390D01*
X141486904Y-114633390D02*
X140915476Y-115204819D01*
X140915476Y-115204819D02*
X141534523Y-115204819D01*
X142439285Y-114204819D02*
X141963095Y-114204819D01*
X141963095Y-114204819D02*
X141915476Y-114681009D01*
X141915476Y-114681009D02*
X141963095Y-114633390D01*
X141963095Y-114633390D02*
X142058333Y-114585771D01*
X142058333Y-114585771D02*
X142296428Y-114585771D01*
X142296428Y-114585771D02*
X142391666Y-114633390D01*
X142391666Y-114633390D02*
X142439285Y-114681009D01*
X142439285Y-114681009D02*
X142486904Y-114776247D01*
X142486904Y-114776247D02*
X142486904Y-115014342D01*
X142486904Y-115014342D02*
X142439285Y-115109580D01*
X142439285Y-115109580D02*
X142391666Y-115157200D01*
X142391666Y-115157200D02*
X142296428Y-115204819D01*
X142296428Y-115204819D02*
X142058333Y-115204819D01*
X142058333Y-115204819D02*
X141963095Y-115157200D01*
X141963095Y-115157200D02*
X141915476Y-115109580D01*
X112333333Y-104109580D02*
X112285714Y-104157200D01*
X112285714Y-104157200D02*
X112142857Y-104204819D01*
X112142857Y-104204819D02*
X112047619Y-104204819D01*
X112047619Y-104204819D02*
X111904762Y-104157200D01*
X111904762Y-104157200D02*
X111809524Y-104061961D01*
X111809524Y-104061961D02*
X111761905Y-103966723D01*
X111761905Y-103966723D02*
X111714286Y-103776247D01*
X111714286Y-103776247D02*
X111714286Y-103633390D01*
X111714286Y-103633390D02*
X111761905Y-103442914D01*
X111761905Y-103442914D02*
X111809524Y-103347676D01*
X111809524Y-103347676D02*
X111904762Y-103252438D01*
X111904762Y-103252438D02*
X112047619Y-103204819D01*
X112047619Y-103204819D02*
X112142857Y-103204819D01*
X112142857Y-103204819D02*
X112285714Y-103252438D01*
X112285714Y-103252438D02*
X112333333Y-103300057D01*
X113190476Y-103538152D02*
X113190476Y-104204819D01*
X112952381Y-103157200D02*
X112714286Y-103871485D01*
X112714286Y-103871485D02*
X113333333Y-103871485D01*
X113704819Y-93142857D02*
X113228628Y-93476190D01*
X113704819Y-93714285D02*
X112704819Y-93714285D01*
X112704819Y-93714285D02*
X112704819Y-93333333D01*
X112704819Y-93333333D02*
X112752438Y-93238095D01*
X112752438Y-93238095D02*
X112800057Y-93190476D01*
X112800057Y-93190476D02*
X112895295Y-93142857D01*
X112895295Y-93142857D02*
X113038152Y-93142857D01*
X113038152Y-93142857D02*
X113133390Y-93190476D01*
X113133390Y-93190476D02*
X113181009Y-93238095D01*
X113181009Y-93238095D02*
X113228628Y-93333333D01*
X113228628Y-93333333D02*
X113228628Y-93714285D01*
X112800057Y-92761904D02*
X112752438Y-92714285D01*
X112752438Y-92714285D02*
X112704819Y-92619047D01*
X112704819Y-92619047D02*
X112704819Y-92380952D01*
X112704819Y-92380952D02*
X112752438Y-92285714D01*
X112752438Y-92285714D02*
X112800057Y-92238095D01*
X112800057Y-92238095D02*
X112895295Y-92190476D01*
X112895295Y-92190476D02*
X112990533Y-92190476D01*
X112990533Y-92190476D02*
X113133390Y-92238095D01*
X113133390Y-92238095D02*
X113704819Y-92809523D01*
X113704819Y-92809523D02*
X113704819Y-92190476D01*
X113704819Y-91714285D02*
X113704819Y-91523809D01*
X113704819Y-91523809D02*
X113657200Y-91428571D01*
X113657200Y-91428571D02*
X113609580Y-91380952D01*
X113609580Y-91380952D02*
X113466723Y-91285714D01*
X113466723Y-91285714D02*
X113276247Y-91238095D01*
X113276247Y-91238095D02*
X112895295Y-91238095D01*
X112895295Y-91238095D02*
X112800057Y-91285714D01*
X112800057Y-91285714D02*
X112752438Y-91333333D01*
X112752438Y-91333333D02*
X112704819Y-91428571D01*
X112704819Y-91428571D02*
X112704819Y-91619047D01*
X112704819Y-91619047D02*
X112752438Y-91714285D01*
X112752438Y-91714285D02*
X112800057Y-91761904D01*
X112800057Y-91761904D02*
X112895295Y-91809523D01*
X112895295Y-91809523D02*
X113133390Y-91809523D01*
X113133390Y-91809523D02*
X113228628Y-91761904D01*
X113228628Y-91761904D02*
X113276247Y-91714285D01*
X113276247Y-91714285D02*
X113323866Y-91619047D01*
X113323866Y-91619047D02*
X113323866Y-91428571D01*
X113323866Y-91428571D02*
X113276247Y-91333333D01*
X113276247Y-91333333D02*
X113228628Y-91285714D01*
X113228628Y-91285714D02*
X113133390Y-91238095D01*
X125454819Y-109399404D02*
X126264342Y-109399404D01*
X126264342Y-109399404D02*
X126359580Y-109351785D01*
X126359580Y-109351785D02*
X126407200Y-109304166D01*
X126407200Y-109304166D02*
X126454819Y-109208928D01*
X126454819Y-109208928D02*
X126454819Y-109018452D01*
X126454819Y-109018452D02*
X126407200Y-108923214D01*
X126407200Y-108923214D02*
X126359580Y-108875595D01*
X126359580Y-108875595D02*
X126264342Y-108827976D01*
X126264342Y-108827976D02*
X125454819Y-108827976D01*
X125550057Y-108399404D02*
X125502438Y-108351785D01*
X125502438Y-108351785D02*
X125454819Y-108256547D01*
X125454819Y-108256547D02*
X125454819Y-108018452D01*
X125454819Y-108018452D02*
X125502438Y-107923214D01*
X125502438Y-107923214D02*
X125550057Y-107875595D01*
X125550057Y-107875595D02*
X125645295Y-107827976D01*
X125645295Y-107827976D02*
X125740533Y-107827976D01*
X125740533Y-107827976D02*
X125883390Y-107875595D01*
X125883390Y-107875595D02*
X126454819Y-108447023D01*
X126454819Y-108447023D02*
X126454819Y-107827976D01*
X126607142Y-119747080D02*
X126559523Y-119794700D01*
X126559523Y-119794700D02*
X126416666Y-119842319D01*
X126416666Y-119842319D02*
X126321428Y-119842319D01*
X126321428Y-119842319D02*
X126178571Y-119794700D01*
X126178571Y-119794700D02*
X126083333Y-119699461D01*
X126083333Y-119699461D02*
X126035714Y-119604223D01*
X126035714Y-119604223D02*
X125988095Y-119413747D01*
X125988095Y-119413747D02*
X125988095Y-119270890D01*
X125988095Y-119270890D02*
X126035714Y-119080414D01*
X126035714Y-119080414D02*
X126083333Y-118985176D01*
X126083333Y-118985176D02*
X126178571Y-118889938D01*
X126178571Y-118889938D02*
X126321428Y-118842319D01*
X126321428Y-118842319D02*
X126416666Y-118842319D01*
X126416666Y-118842319D02*
X126559523Y-118889938D01*
X126559523Y-118889938D02*
X126607142Y-118937557D01*
X127559523Y-119842319D02*
X126988095Y-119842319D01*
X127273809Y-119842319D02*
X127273809Y-118842319D01*
X127273809Y-118842319D02*
X127178571Y-118985176D01*
X127178571Y-118985176D02*
X127083333Y-119080414D01*
X127083333Y-119080414D02*
X126988095Y-119128033D01*
X127892857Y-118842319D02*
X128511904Y-118842319D01*
X128511904Y-118842319D02*
X128178571Y-119223271D01*
X128178571Y-119223271D02*
X128321428Y-119223271D01*
X128321428Y-119223271D02*
X128416666Y-119270890D01*
X128416666Y-119270890D02*
X128464285Y-119318509D01*
X128464285Y-119318509D02*
X128511904Y-119413747D01*
X128511904Y-119413747D02*
X128511904Y-119651842D01*
X128511904Y-119651842D02*
X128464285Y-119747080D01*
X128464285Y-119747080D02*
X128416666Y-119794700D01*
X128416666Y-119794700D02*
X128321428Y-119842319D01*
X128321428Y-119842319D02*
X128035714Y-119842319D01*
X128035714Y-119842319D02*
X127940476Y-119794700D01*
X127940476Y-119794700D02*
X127892857Y-119747080D01*
X141857142Y-77024819D02*
X141523809Y-76548628D01*
X141285714Y-77024819D02*
X141285714Y-76024819D01*
X141285714Y-76024819D02*
X141666666Y-76024819D01*
X141666666Y-76024819D02*
X141761904Y-76072438D01*
X141761904Y-76072438D02*
X141809523Y-76120057D01*
X141809523Y-76120057D02*
X141857142Y-76215295D01*
X141857142Y-76215295D02*
X141857142Y-76358152D01*
X141857142Y-76358152D02*
X141809523Y-76453390D01*
X141809523Y-76453390D02*
X141761904Y-76501009D01*
X141761904Y-76501009D02*
X141666666Y-76548628D01*
X141666666Y-76548628D02*
X141285714Y-76548628D01*
X142190476Y-76024819D02*
X142809523Y-76024819D01*
X142809523Y-76024819D02*
X142476190Y-76405771D01*
X142476190Y-76405771D02*
X142619047Y-76405771D01*
X142619047Y-76405771D02*
X142714285Y-76453390D01*
X142714285Y-76453390D02*
X142761904Y-76501009D01*
X142761904Y-76501009D02*
X142809523Y-76596247D01*
X142809523Y-76596247D02*
X142809523Y-76834342D01*
X142809523Y-76834342D02*
X142761904Y-76929580D01*
X142761904Y-76929580D02*
X142714285Y-76977200D01*
X142714285Y-76977200D02*
X142619047Y-77024819D01*
X142619047Y-77024819D02*
X142333333Y-77024819D01*
X142333333Y-77024819D02*
X142238095Y-76977200D01*
X142238095Y-76977200D02*
X142190476Y-76929580D01*
X143190476Y-76120057D02*
X143238095Y-76072438D01*
X143238095Y-76072438D02*
X143333333Y-76024819D01*
X143333333Y-76024819D02*
X143571428Y-76024819D01*
X143571428Y-76024819D02*
X143666666Y-76072438D01*
X143666666Y-76072438D02*
X143714285Y-76120057D01*
X143714285Y-76120057D02*
X143761904Y-76215295D01*
X143761904Y-76215295D02*
X143761904Y-76310533D01*
X143761904Y-76310533D02*
X143714285Y-76453390D01*
X143714285Y-76453390D02*
X143142857Y-77024819D01*
X143142857Y-77024819D02*
X143761904Y-77024819D01*
X139333333Y-92704819D02*
X139000000Y-92228628D01*
X138761905Y-92704819D02*
X138761905Y-91704819D01*
X138761905Y-91704819D02*
X139142857Y-91704819D01*
X139142857Y-91704819D02*
X139238095Y-91752438D01*
X139238095Y-91752438D02*
X139285714Y-91800057D01*
X139285714Y-91800057D02*
X139333333Y-91895295D01*
X139333333Y-91895295D02*
X139333333Y-92038152D01*
X139333333Y-92038152D02*
X139285714Y-92133390D01*
X139285714Y-92133390D02*
X139238095Y-92181009D01*
X139238095Y-92181009D02*
X139142857Y-92228628D01*
X139142857Y-92228628D02*
X138761905Y-92228628D01*
X140238095Y-91704819D02*
X139761905Y-91704819D01*
X139761905Y-91704819D02*
X139714286Y-92181009D01*
X139714286Y-92181009D02*
X139761905Y-92133390D01*
X139761905Y-92133390D02*
X139857143Y-92085771D01*
X139857143Y-92085771D02*
X140095238Y-92085771D01*
X140095238Y-92085771D02*
X140190476Y-92133390D01*
X140190476Y-92133390D02*
X140238095Y-92181009D01*
X140238095Y-92181009D02*
X140285714Y-92276247D01*
X140285714Y-92276247D02*
X140285714Y-92514342D01*
X140285714Y-92514342D02*
X140238095Y-92609580D01*
X140238095Y-92609580D02*
X140190476Y-92657200D01*
X140190476Y-92657200D02*
X140095238Y-92704819D01*
X140095238Y-92704819D02*
X139857143Y-92704819D01*
X139857143Y-92704819D02*
X139761905Y-92657200D01*
X139761905Y-92657200D02*
X139714286Y-92609580D01*
X140582142Y-113609580D02*
X140534523Y-113657200D01*
X140534523Y-113657200D02*
X140391666Y-113704819D01*
X140391666Y-113704819D02*
X140296428Y-113704819D01*
X140296428Y-113704819D02*
X140153571Y-113657200D01*
X140153571Y-113657200D02*
X140058333Y-113561961D01*
X140058333Y-113561961D02*
X140010714Y-113466723D01*
X140010714Y-113466723D02*
X139963095Y-113276247D01*
X139963095Y-113276247D02*
X139963095Y-113133390D01*
X139963095Y-113133390D02*
X140010714Y-112942914D01*
X140010714Y-112942914D02*
X140058333Y-112847676D01*
X140058333Y-112847676D02*
X140153571Y-112752438D01*
X140153571Y-112752438D02*
X140296428Y-112704819D01*
X140296428Y-112704819D02*
X140391666Y-112704819D01*
X140391666Y-112704819D02*
X140534523Y-112752438D01*
X140534523Y-112752438D02*
X140582142Y-112800057D01*
X140963095Y-112800057D02*
X141010714Y-112752438D01*
X141010714Y-112752438D02*
X141105952Y-112704819D01*
X141105952Y-112704819D02*
X141344047Y-112704819D01*
X141344047Y-112704819D02*
X141439285Y-112752438D01*
X141439285Y-112752438D02*
X141486904Y-112800057D01*
X141486904Y-112800057D02*
X141534523Y-112895295D01*
X141534523Y-112895295D02*
X141534523Y-112990533D01*
X141534523Y-112990533D02*
X141486904Y-113133390D01*
X141486904Y-113133390D02*
X140915476Y-113704819D01*
X140915476Y-113704819D02*
X141534523Y-113704819D01*
X141915476Y-112800057D02*
X141963095Y-112752438D01*
X141963095Y-112752438D02*
X142058333Y-112704819D01*
X142058333Y-112704819D02*
X142296428Y-112704819D01*
X142296428Y-112704819D02*
X142391666Y-112752438D01*
X142391666Y-112752438D02*
X142439285Y-112800057D01*
X142439285Y-112800057D02*
X142486904Y-112895295D01*
X142486904Y-112895295D02*
X142486904Y-112990533D01*
X142486904Y-112990533D02*
X142439285Y-113133390D01*
X142439285Y-113133390D02*
X141867857Y-113704819D01*
X141867857Y-113704819D02*
X142486904Y-113704819D01*
X140582142Y-116592319D02*
X140248809Y-116116128D01*
X140010714Y-116592319D02*
X140010714Y-115592319D01*
X140010714Y-115592319D02*
X140391666Y-115592319D01*
X140391666Y-115592319D02*
X140486904Y-115639938D01*
X140486904Y-115639938D02*
X140534523Y-115687557D01*
X140534523Y-115687557D02*
X140582142Y-115782795D01*
X140582142Y-115782795D02*
X140582142Y-115925652D01*
X140582142Y-115925652D02*
X140534523Y-116020890D01*
X140534523Y-116020890D02*
X140486904Y-116068509D01*
X140486904Y-116068509D02*
X140391666Y-116116128D01*
X140391666Y-116116128D02*
X140010714Y-116116128D01*
X140963095Y-115687557D02*
X141010714Y-115639938D01*
X141010714Y-115639938D02*
X141105952Y-115592319D01*
X141105952Y-115592319D02*
X141344047Y-115592319D01*
X141344047Y-115592319D02*
X141439285Y-115639938D01*
X141439285Y-115639938D02*
X141486904Y-115687557D01*
X141486904Y-115687557D02*
X141534523Y-115782795D01*
X141534523Y-115782795D02*
X141534523Y-115878033D01*
X141534523Y-115878033D02*
X141486904Y-116020890D01*
X141486904Y-116020890D02*
X140915476Y-116592319D01*
X140915476Y-116592319D02*
X141534523Y-116592319D01*
X142391666Y-115592319D02*
X142201190Y-115592319D01*
X142201190Y-115592319D02*
X142105952Y-115639938D01*
X142105952Y-115639938D02*
X142058333Y-115687557D01*
X142058333Y-115687557D02*
X141963095Y-115830414D01*
X141963095Y-115830414D02*
X141915476Y-116020890D01*
X141915476Y-116020890D02*
X141915476Y-116401842D01*
X141915476Y-116401842D02*
X141963095Y-116497080D01*
X141963095Y-116497080D02*
X142010714Y-116544700D01*
X142010714Y-116544700D02*
X142105952Y-116592319D01*
X142105952Y-116592319D02*
X142296428Y-116592319D01*
X142296428Y-116592319D02*
X142391666Y-116544700D01*
X142391666Y-116544700D02*
X142439285Y-116497080D01*
X142439285Y-116497080D02*
X142486904Y-116401842D01*
X142486904Y-116401842D02*
X142486904Y-116163747D01*
X142486904Y-116163747D02*
X142439285Y-116068509D01*
X142439285Y-116068509D02*
X142391666Y-116020890D01*
X142391666Y-116020890D02*
X142296428Y-115973271D01*
X142296428Y-115973271D02*
X142105952Y-115973271D01*
X142105952Y-115973271D02*
X142010714Y-116020890D01*
X142010714Y-116020890D02*
X141963095Y-116068509D01*
X141963095Y-116068509D02*
X141915476Y-116163747D01*
X144582142Y-111859580D02*
X144534523Y-111907200D01*
X144534523Y-111907200D02*
X144391666Y-111954819D01*
X144391666Y-111954819D02*
X144296428Y-111954819D01*
X144296428Y-111954819D02*
X144153571Y-111907200D01*
X144153571Y-111907200D02*
X144058333Y-111811961D01*
X144058333Y-111811961D02*
X144010714Y-111716723D01*
X144010714Y-111716723D02*
X143963095Y-111526247D01*
X143963095Y-111526247D02*
X143963095Y-111383390D01*
X143963095Y-111383390D02*
X144010714Y-111192914D01*
X144010714Y-111192914D02*
X144058333Y-111097676D01*
X144058333Y-111097676D02*
X144153571Y-111002438D01*
X144153571Y-111002438D02*
X144296428Y-110954819D01*
X144296428Y-110954819D02*
X144391666Y-110954819D01*
X144391666Y-110954819D02*
X144534523Y-111002438D01*
X144534523Y-111002438D02*
X144582142Y-111050057D01*
X144963095Y-111050057D02*
X145010714Y-111002438D01*
X145010714Y-111002438D02*
X145105952Y-110954819D01*
X145105952Y-110954819D02*
X145344047Y-110954819D01*
X145344047Y-110954819D02*
X145439285Y-111002438D01*
X145439285Y-111002438D02*
X145486904Y-111050057D01*
X145486904Y-111050057D02*
X145534523Y-111145295D01*
X145534523Y-111145295D02*
X145534523Y-111240533D01*
X145534523Y-111240533D02*
X145486904Y-111383390D01*
X145486904Y-111383390D02*
X144915476Y-111954819D01*
X144915476Y-111954819D02*
X145534523Y-111954819D01*
X146391666Y-110954819D02*
X146201190Y-110954819D01*
X146201190Y-110954819D02*
X146105952Y-111002438D01*
X146105952Y-111002438D02*
X146058333Y-111050057D01*
X146058333Y-111050057D02*
X145963095Y-111192914D01*
X145963095Y-111192914D02*
X145915476Y-111383390D01*
X145915476Y-111383390D02*
X145915476Y-111764342D01*
X145915476Y-111764342D02*
X145963095Y-111859580D01*
X145963095Y-111859580D02*
X146010714Y-111907200D01*
X146010714Y-111907200D02*
X146105952Y-111954819D01*
X146105952Y-111954819D02*
X146296428Y-111954819D01*
X146296428Y-111954819D02*
X146391666Y-111907200D01*
X146391666Y-111907200D02*
X146439285Y-111859580D01*
X146439285Y-111859580D02*
X146486904Y-111764342D01*
X146486904Y-111764342D02*
X146486904Y-111526247D01*
X146486904Y-111526247D02*
X146439285Y-111431009D01*
X146439285Y-111431009D02*
X146391666Y-111383390D01*
X146391666Y-111383390D02*
X146296428Y-111335771D01*
X146296428Y-111335771D02*
X146105952Y-111335771D01*
X146105952Y-111335771D02*
X146010714Y-111383390D01*
X146010714Y-111383390D02*
X145963095Y-111431009D01*
X145963095Y-111431009D02*
X145915476Y-111526247D01*
X134859580Y-89916666D02*
X134907200Y-89964285D01*
X134907200Y-89964285D02*
X134954819Y-90107142D01*
X134954819Y-90107142D02*
X134954819Y-90202380D01*
X134954819Y-90202380D02*
X134907200Y-90345237D01*
X134907200Y-90345237D02*
X134811961Y-90440475D01*
X134811961Y-90440475D02*
X134716723Y-90488094D01*
X134716723Y-90488094D02*
X134526247Y-90535713D01*
X134526247Y-90535713D02*
X134383390Y-90535713D01*
X134383390Y-90535713D02*
X134192914Y-90488094D01*
X134192914Y-90488094D02*
X134097676Y-90440475D01*
X134097676Y-90440475D02*
X134002438Y-90345237D01*
X134002438Y-90345237D02*
X133954819Y-90202380D01*
X133954819Y-90202380D02*
X133954819Y-90107142D01*
X133954819Y-90107142D02*
X134002438Y-89964285D01*
X134002438Y-89964285D02*
X134050057Y-89916666D01*
X133954819Y-89583332D02*
X133954819Y-88964285D01*
X133954819Y-88964285D02*
X134335771Y-89297618D01*
X134335771Y-89297618D02*
X134335771Y-89154761D01*
X134335771Y-89154761D02*
X134383390Y-89059523D01*
X134383390Y-89059523D02*
X134431009Y-89011904D01*
X134431009Y-89011904D02*
X134526247Y-88964285D01*
X134526247Y-88964285D02*
X134764342Y-88964285D01*
X134764342Y-88964285D02*
X134859580Y-89011904D01*
X134859580Y-89011904D02*
X134907200Y-89059523D01*
X134907200Y-89059523D02*
X134954819Y-89154761D01*
X134954819Y-89154761D02*
X134954819Y-89440475D01*
X134954819Y-89440475D02*
X134907200Y-89535713D01*
X134907200Y-89535713D02*
X134859580Y-89583332D01*
X142082142Y-122747080D02*
X142034523Y-122794700D01*
X142034523Y-122794700D02*
X141891666Y-122842319D01*
X141891666Y-122842319D02*
X141796428Y-122842319D01*
X141796428Y-122842319D02*
X141653571Y-122794700D01*
X141653571Y-122794700D02*
X141558333Y-122699461D01*
X141558333Y-122699461D02*
X141510714Y-122604223D01*
X141510714Y-122604223D02*
X141463095Y-122413747D01*
X141463095Y-122413747D02*
X141463095Y-122270890D01*
X141463095Y-122270890D02*
X141510714Y-122080414D01*
X141510714Y-122080414D02*
X141558333Y-121985176D01*
X141558333Y-121985176D02*
X141653571Y-121889938D01*
X141653571Y-121889938D02*
X141796428Y-121842319D01*
X141796428Y-121842319D02*
X141891666Y-121842319D01*
X141891666Y-121842319D02*
X142034523Y-121889938D01*
X142034523Y-121889938D02*
X142082142Y-121937557D01*
X142463095Y-121937557D02*
X142510714Y-121889938D01*
X142510714Y-121889938D02*
X142605952Y-121842319D01*
X142605952Y-121842319D02*
X142844047Y-121842319D01*
X142844047Y-121842319D02*
X142939285Y-121889938D01*
X142939285Y-121889938D02*
X142986904Y-121937557D01*
X142986904Y-121937557D02*
X143034523Y-122032795D01*
X143034523Y-122032795D02*
X143034523Y-122128033D01*
X143034523Y-122128033D02*
X142986904Y-122270890D01*
X142986904Y-122270890D02*
X142415476Y-122842319D01*
X142415476Y-122842319D02*
X143034523Y-122842319D01*
X143986904Y-122842319D02*
X143415476Y-122842319D01*
X143701190Y-122842319D02*
X143701190Y-121842319D01*
X143701190Y-121842319D02*
X143605952Y-121985176D01*
X143605952Y-121985176D02*
X143510714Y-122080414D01*
X143510714Y-122080414D02*
X143415476Y-122128033D01*
X125107142Y-104317319D02*
X124773809Y-103841128D01*
X124535714Y-104317319D02*
X124535714Y-103317319D01*
X124535714Y-103317319D02*
X124916666Y-103317319D01*
X124916666Y-103317319D02*
X125011904Y-103364938D01*
X125011904Y-103364938D02*
X125059523Y-103412557D01*
X125059523Y-103412557D02*
X125107142Y-103507795D01*
X125107142Y-103507795D02*
X125107142Y-103650652D01*
X125107142Y-103650652D02*
X125059523Y-103745890D01*
X125059523Y-103745890D02*
X125011904Y-103793509D01*
X125011904Y-103793509D02*
X124916666Y-103841128D01*
X124916666Y-103841128D02*
X124535714Y-103841128D01*
X126059523Y-104317319D02*
X125488095Y-104317319D01*
X125773809Y-104317319D02*
X125773809Y-103317319D01*
X125773809Y-103317319D02*
X125678571Y-103460176D01*
X125678571Y-103460176D02*
X125583333Y-103555414D01*
X125583333Y-103555414D02*
X125488095Y-103603033D01*
X127011904Y-104317319D02*
X126440476Y-104317319D01*
X126726190Y-104317319D02*
X126726190Y-103317319D01*
X126726190Y-103317319D02*
X126630952Y-103460176D01*
X126630952Y-103460176D02*
X126535714Y-103555414D01*
X126535714Y-103555414D02*
X126440476Y-103603033D01*
X140584819Y-109399404D02*
X141394342Y-109399404D01*
X141394342Y-109399404D02*
X141489580Y-109351785D01*
X141489580Y-109351785D02*
X141537200Y-109304166D01*
X141537200Y-109304166D02*
X141584819Y-109208928D01*
X141584819Y-109208928D02*
X141584819Y-109018452D01*
X141584819Y-109018452D02*
X141537200Y-108923214D01*
X141537200Y-108923214D02*
X141489580Y-108875595D01*
X141489580Y-108875595D02*
X141394342Y-108827976D01*
X141394342Y-108827976D02*
X140584819Y-108827976D01*
X140584819Y-108447023D02*
X140584819Y-107827976D01*
X140584819Y-107827976D02*
X140965771Y-108161309D01*
X140965771Y-108161309D02*
X140965771Y-108018452D01*
X140965771Y-108018452D02*
X141013390Y-107923214D01*
X141013390Y-107923214D02*
X141061009Y-107875595D01*
X141061009Y-107875595D02*
X141156247Y-107827976D01*
X141156247Y-107827976D02*
X141394342Y-107827976D01*
X141394342Y-107827976D02*
X141489580Y-107875595D01*
X141489580Y-107875595D02*
X141537200Y-107923214D01*
X141537200Y-107923214D02*
X141584819Y-108018452D01*
X141584819Y-108018452D02*
X141584819Y-108304166D01*
X141584819Y-108304166D02*
X141537200Y-108399404D01*
X141537200Y-108399404D02*
X141489580Y-108447023D01*
X132357142Y-119747080D02*
X132309523Y-119794700D01*
X132309523Y-119794700D02*
X132166666Y-119842319D01*
X132166666Y-119842319D02*
X132071428Y-119842319D01*
X132071428Y-119842319D02*
X131928571Y-119794700D01*
X131928571Y-119794700D02*
X131833333Y-119699461D01*
X131833333Y-119699461D02*
X131785714Y-119604223D01*
X131785714Y-119604223D02*
X131738095Y-119413747D01*
X131738095Y-119413747D02*
X131738095Y-119270890D01*
X131738095Y-119270890D02*
X131785714Y-119080414D01*
X131785714Y-119080414D02*
X131833333Y-118985176D01*
X131833333Y-118985176D02*
X131928571Y-118889938D01*
X131928571Y-118889938D02*
X132071428Y-118842319D01*
X132071428Y-118842319D02*
X132166666Y-118842319D01*
X132166666Y-118842319D02*
X132309523Y-118889938D01*
X132309523Y-118889938D02*
X132357142Y-118937557D01*
X133309523Y-119842319D02*
X132738095Y-119842319D01*
X133023809Y-119842319D02*
X133023809Y-118842319D01*
X133023809Y-118842319D02*
X132928571Y-118985176D01*
X132928571Y-118985176D02*
X132833333Y-119080414D01*
X132833333Y-119080414D02*
X132738095Y-119128033D01*
X133880952Y-119270890D02*
X133785714Y-119223271D01*
X133785714Y-119223271D02*
X133738095Y-119175652D01*
X133738095Y-119175652D02*
X133690476Y-119080414D01*
X133690476Y-119080414D02*
X133690476Y-119032795D01*
X133690476Y-119032795D02*
X133738095Y-118937557D01*
X133738095Y-118937557D02*
X133785714Y-118889938D01*
X133785714Y-118889938D02*
X133880952Y-118842319D01*
X133880952Y-118842319D02*
X134071428Y-118842319D01*
X134071428Y-118842319D02*
X134166666Y-118889938D01*
X134166666Y-118889938D02*
X134214285Y-118937557D01*
X134214285Y-118937557D02*
X134261904Y-119032795D01*
X134261904Y-119032795D02*
X134261904Y-119080414D01*
X134261904Y-119080414D02*
X134214285Y-119175652D01*
X134214285Y-119175652D02*
X134166666Y-119223271D01*
X134166666Y-119223271D02*
X134071428Y-119270890D01*
X134071428Y-119270890D02*
X133880952Y-119270890D01*
X133880952Y-119270890D02*
X133785714Y-119318509D01*
X133785714Y-119318509D02*
X133738095Y-119366128D01*
X133738095Y-119366128D02*
X133690476Y-119461366D01*
X133690476Y-119461366D02*
X133690476Y-119651842D01*
X133690476Y-119651842D02*
X133738095Y-119747080D01*
X133738095Y-119747080D02*
X133785714Y-119794700D01*
X133785714Y-119794700D02*
X133880952Y-119842319D01*
X133880952Y-119842319D02*
X134071428Y-119842319D01*
X134071428Y-119842319D02*
X134166666Y-119794700D01*
X134166666Y-119794700D02*
X134214285Y-119747080D01*
X134214285Y-119747080D02*
X134261904Y-119651842D01*
X134261904Y-119651842D02*
X134261904Y-119461366D01*
X134261904Y-119461366D02*
X134214285Y-119366128D01*
X134214285Y-119366128D02*
X134166666Y-119318509D01*
X134166666Y-119318509D02*
X134071428Y-119270890D01*
X126607142Y-118342319D02*
X126273809Y-117866128D01*
X126035714Y-118342319D02*
X126035714Y-117342319D01*
X126035714Y-117342319D02*
X126416666Y-117342319D01*
X126416666Y-117342319D02*
X126511904Y-117389938D01*
X126511904Y-117389938D02*
X126559523Y-117437557D01*
X126559523Y-117437557D02*
X126607142Y-117532795D01*
X126607142Y-117532795D02*
X126607142Y-117675652D01*
X126607142Y-117675652D02*
X126559523Y-117770890D01*
X126559523Y-117770890D02*
X126511904Y-117818509D01*
X126511904Y-117818509D02*
X126416666Y-117866128D01*
X126416666Y-117866128D02*
X126035714Y-117866128D01*
X127559523Y-118342319D02*
X126988095Y-118342319D01*
X127273809Y-118342319D02*
X127273809Y-117342319D01*
X127273809Y-117342319D02*
X127178571Y-117485176D01*
X127178571Y-117485176D02*
X127083333Y-117580414D01*
X127083333Y-117580414D02*
X126988095Y-117628033D01*
X128416666Y-117342319D02*
X128226190Y-117342319D01*
X128226190Y-117342319D02*
X128130952Y-117389938D01*
X128130952Y-117389938D02*
X128083333Y-117437557D01*
X128083333Y-117437557D02*
X127988095Y-117580414D01*
X127988095Y-117580414D02*
X127940476Y-117770890D01*
X127940476Y-117770890D02*
X127940476Y-118151842D01*
X127940476Y-118151842D02*
X127988095Y-118247080D01*
X127988095Y-118247080D02*
X128035714Y-118294700D01*
X128035714Y-118294700D02*
X128130952Y-118342319D01*
X128130952Y-118342319D02*
X128321428Y-118342319D01*
X128321428Y-118342319D02*
X128416666Y-118294700D01*
X128416666Y-118294700D02*
X128464285Y-118247080D01*
X128464285Y-118247080D02*
X128511904Y-118151842D01*
X128511904Y-118151842D02*
X128511904Y-117913747D01*
X128511904Y-117913747D02*
X128464285Y-117818509D01*
X128464285Y-117818509D02*
X128416666Y-117770890D01*
X128416666Y-117770890D02*
X128321428Y-117723271D01*
X128321428Y-117723271D02*
X128130952Y-117723271D01*
X128130952Y-117723271D02*
X128035714Y-117770890D01*
X128035714Y-117770890D02*
X127988095Y-117818509D01*
X127988095Y-117818509D02*
X127940476Y-117913747D01*
X142082142Y-121342319D02*
X141748809Y-120866128D01*
X141510714Y-121342319D02*
X141510714Y-120342319D01*
X141510714Y-120342319D02*
X141891666Y-120342319D01*
X141891666Y-120342319D02*
X141986904Y-120389938D01*
X141986904Y-120389938D02*
X142034523Y-120437557D01*
X142034523Y-120437557D02*
X142082142Y-120532795D01*
X142082142Y-120532795D02*
X142082142Y-120675652D01*
X142082142Y-120675652D02*
X142034523Y-120770890D01*
X142034523Y-120770890D02*
X141986904Y-120818509D01*
X141986904Y-120818509D02*
X141891666Y-120866128D01*
X141891666Y-120866128D02*
X141510714Y-120866128D01*
X142463095Y-120437557D02*
X142510714Y-120389938D01*
X142510714Y-120389938D02*
X142605952Y-120342319D01*
X142605952Y-120342319D02*
X142844047Y-120342319D01*
X142844047Y-120342319D02*
X142939285Y-120389938D01*
X142939285Y-120389938D02*
X142986904Y-120437557D01*
X142986904Y-120437557D02*
X143034523Y-120532795D01*
X143034523Y-120532795D02*
X143034523Y-120628033D01*
X143034523Y-120628033D02*
X142986904Y-120770890D01*
X142986904Y-120770890D02*
X142415476Y-121342319D01*
X142415476Y-121342319D02*
X143034523Y-121342319D01*
X143891666Y-120675652D02*
X143891666Y-121342319D01*
X143653571Y-120294700D02*
X143415476Y-121008985D01*
X143415476Y-121008985D02*
X144034523Y-121008985D01*
X138019642Y-77024819D02*
X137686309Y-76548628D01*
X137448214Y-77024819D02*
X137448214Y-76024819D01*
X137448214Y-76024819D02*
X137829166Y-76024819D01*
X137829166Y-76024819D02*
X137924404Y-76072438D01*
X137924404Y-76072438D02*
X137972023Y-76120057D01*
X137972023Y-76120057D02*
X138019642Y-76215295D01*
X138019642Y-76215295D02*
X138019642Y-76358152D01*
X138019642Y-76358152D02*
X137972023Y-76453390D01*
X137972023Y-76453390D02*
X137924404Y-76501009D01*
X137924404Y-76501009D02*
X137829166Y-76548628D01*
X137829166Y-76548628D02*
X137448214Y-76548628D01*
X138400595Y-76120057D02*
X138448214Y-76072438D01*
X138448214Y-76072438D02*
X138543452Y-76024819D01*
X138543452Y-76024819D02*
X138781547Y-76024819D01*
X138781547Y-76024819D02*
X138876785Y-76072438D01*
X138876785Y-76072438D02*
X138924404Y-76120057D01*
X138924404Y-76120057D02*
X138972023Y-76215295D01*
X138972023Y-76215295D02*
X138972023Y-76310533D01*
X138972023Y-76310533D02*
X138924404Y-76453390D01*
X138924404Y-76453390D02*
X138352976Y-77024819D01*
X138352976Y-77024819D02*
X138972023Y-77024819D01*
X139543452Y-76453390D02*
X139448214Y-76405771D01*
X139448214Y-76405771D02*
X139400595Y-76358152D01*
X139400595Y-76358152D02*
X139352976Y-76262914D01*
X139352976Y-76262914D02*
X139352976Y-76215295D01*
X139352976Y-76215295D02*
X139400595Y-76120057D01*
X139400595Y-76120057D02*
X139448214Y-76072438D01*
X139448214Y-76072438D02*
X139543452Y-76024819D01*
X139543452Y-76024819D02*
X139733928Y-76024819D01*
X139733928Y-76024819D02*
X139829166Y-76072438D01*
X139829166Y-76072438D02*
X139876785Y-76120057D01*
X139876785Y-76120057D02*
X139924404Y-76215295D01*
X139924404Y-76215295D02*
X139924404Y-76262914D01*
X139924404Y-76262914D02*
X139876785Y-76358152D01*
X139876785Y-76358152D02*
X139829166Y-76405771D01*
X139829166Y-76405771D02*
X139733928Y-76453390D01*
X139733928Y-76453390D02*
X139543452Y-76453390D01*
X139543452Y-76453390D02*
X139448214Y-76501009D01*
X139448214Y-76501009D02*
X139400595Y-76548628D01*
X139400595Y-76548628D02*
X139352976Y-76643866D01*
X139352976Y-76643866D02*
X139352976Y-76834342D01*
X139352976Y-76834342D02*
X139400595Y-76929580D01*
X139400595Y-76929580D02*
X139448214Y-76977200D01*
X139448214Y-76977200D02*
X139543452Y-77024819D01*
X139543452Y-77024819D02*
X139733928Y-77024819D01*
X139733928Y-77024819D02*
X139829166Y-76977200D01*
X139829166Y-76977200D02*
X139876785Y-76929580D01*
X139876785Y-76929580D02*
X139924404Y-76834342D01*
X139924404Y-76834342D02*
X139924404Y-76643866D01*
X139924404Y-76643866D02*
X139876785Y-76548628D01*
X139876785Y-76548628D02*
X139829166Y-76501009D01*
X139829166Y-76501009D02*
X139733928Y-76453390D01*
X141857142Y-80274819D02*
X141523809Y-79798628D01*
X141285714Y-80274819D02*
X141285714Y-79274819D01*
X141285714Y-79274819D02*
X141666666Y-79274819D01*
X141666666Y-79274819D02*
X141761904Y-79322438D01*
X141761904Y-79322438D02*
X141809523Y-79370057D01*
X141809523Y-79370057D02*
X141857142Y-79465295D01*
X141857142Y-79465295D02*
X141857142Y-79608152D01*
X141857142Y-79608152D02*
X141809523Y-79703390D01*
X141809523Y-79703390D02*
X141761904Y-79751009D01*
X141761904Y-79751009D02*
X141666666Y-79798628D01*
X141666666Y-79798628D02*
X141285714Y-79798628D01*
X142190476Y-79274819D02*
X142809523Y-79274819D01*
X142809523Y-79274819D02*
X142476190Y-79655771D01*
X142476190Y-79655771D02*
X142619047Y-79655771D01*
X142619047Y-79655771D02*
X142714285Y-79703390D01*
X142714285Y-79703390D02*
X142761904Y-79751009D01*
X142761904Y-79751009D02*
X142809523Y-79846247D01*
X142809523Y-79846247D02*
X142809523Y-80084342D01*
X142809523Y-80084342D02*
X142761904Y-80179580D01*
X142761904Y-80179580D02*
X142714285Y-80227200D01*
X142714285Y-80227200D02*
X142619047Y-80274819D01*
X142619047Y-80274819D02*
X142333333Y-80274819D01*
X142333333Y-80274819D02*
X142238095Y-80227200D01*
X142238095Y-80227200D02*
X142190476Y-80179580D01*
X143761904Y-80274819D02*
X143190476Y-80274819D01*
X143476190Y-80274819D02*
X143476190Y-79274819D01*
X143476190Y-79274819D02*
X143380952Y-79417676D01*
X143380952Y-79417676D02*
X143285714Y-79512914D01*
X143285714Y-79512914D02*
X143190476Y-79560533D01*
X112333333Y-112454819D02*
X112000000Y-111978628D01*
X111761905Y-112454819D02*
X111761905Y-111454819D01*
X111761905Y-111454819D02*
X112142857Y-111454819D01*
X112142857Y-111454819D02*
X112238095Y-111502438D01*
X112238095Y-111502438D02*
X112285714Y-111550057D01*
X112285714Y-111550057D02*
X112333333Y-111645295D01*
X112333333Y-111645295D02*
X112333333Y-111788152D01*
X112333333Y-111788152D02*
X112285714Y-111883390D01*
X112285714Y-111883390D02*
X112238095Y-111931009D01*
X112238095Y-111931009D02*
X112142857Y-111978628D01*
X112142857Y-111978628D02*
X111761905Y-111978628D01*
X113190476Y-111788152D02*
X113190476Y-112454819D01*
X112952381Y-111407200D02*
X112714286Y-112121485D01*
X112714286Y-112121485D02*
X113333333Y-112121485D01*
X115607142Y-114359580D02*
X115559523Y-114407200D01*
X115559523Y-114407200D02*
X115416666Y-114454819D01*
X115416666Y-114454819D02*
X115321428Y-114454819D01*
X115321428Y-114454819D02*
X115178571Y-114407200D01*
X115178571Y-114407200D02*
X115083333Y-114311961D01*
X115083333Y-114311961D02*
X115035714Y-114216723D01*
X115035714Y-114216723D02*
X114988095Y-114026247D01*
X114988095Y-114026247D02*
X114988095Y-113883390D01*
X114988095Y-113883390D02*
X115035714Y-113692914D01*
X115035714Y-113692914D02*
X115083333Y-113597676D01*
X115083333Y-113597676D02*
X115178571Y-113502438D01*
X115178571Y-113502438D02*
X115321428Y-113454819D01*
X115321428Y-113454819D02*
X115416666Y-113454819D01*
X115416666Y-113454819D02*
X115559523Y-113502438D01*
X115559523Y-113502438D02*
X115607142Y-113550057D01*
X115940476Y-113454819D02*
X116559523Y-113454819D01*
X116559523Y-113454819D02*
X116226190Y-113835771D01*
X116226190Y-113835771D02*
X116369047Y-113835771D01*
X116369047Y-113835771D02*
X116464285Y-113883390D01*
X116464285Y-113883390D02*
X116511904Y-113931009D01*
X116511904Y-113931009D02*
X116559523Y-114026247D01*
X116559523Y-114026247D02*
X116559523Y-114264342D01*
X116559523Y-114264342D02*
X116511904Y-114359580D01*
X116511904Y-114359580D02*
X116464285Y-114407200D01*
X116464285Y-114407200D02*
X116369047Y-114454819D01*
X116369047Y-114454819D02*
X116083333Y-114454819D01*
X116083333Y-114454819D02*
X115988095Y-114407200D01*
X115988095Y-114407200D02*
X115940476Y-114359580D01*
X117178571Y-113454819D02*
X117273809Y-113454819D01*
X117273809Y-113454819D02*
X117369047Y-113502438D01*
X117369047Y-113502438D02*
X117416666Y-113550057D01*
X117416666Y-113550057D02*
X117464285Y-113645295D01*
X117464285Y-113645295D02*
X117511904Y-113835771D01*
X117511904Y-113835771D02*
X117511904Y-114073866D01*
X117511904Y-114073866D02*
X117464285Y-114264342D01*
X117464285Y-114264342D02*
X117416666Y-114359580D01*
X117416666Y-114359580D02*
X117369047Y-114407200D01*
X117369047Y-114407200D02*
X117273809Y-114454819D01*
X117273809Y-114454819D02*
X117178571Y-114454819D01*
X117178571Y-114454819D02*
X117083333Y-114407200D01*
X117083333Y-114407200D02*
X117035714Y-114359580D01*
X117035714Y-114359580D02*
X116988095Y-114264342D01*
X116988095Y-114264342D02*
X116940476Y-114073866D01*
X116940476Y-114073866D02*
X116940476Y-113835771D01*
X116940476Y-113835771D02*
X116988095Y-113645295D01*
X116988095Y-113645295D02*
X117035714Y-113550057D01*
X117035714Y-113550057D02*
X117083333Y-113502438D01*
X117083333Y-113502438D02*
X117178571Y-113454819D01*
D13*
%TO.C,U1*%
X125890000Y-85390000D02*
X126365000Y-85390000D01*
X125890000Y-85865000D02*
X125890000Y-85390000D01*
X125890000Y-90610000D02*
X125890000Y-90135000D01*
X126365000Y-90610000D02*
X125890000Y-90610000D01*
X130635000Y-85390000D02*
X131110000Y-85390000D01*
X131110000Y-85390000D02*
X131110000Y-85865000D01*
X131110000Y-90135000D02*
X131110000Y-90610000D01*
X131110000Y-90610000D02*
X130635000Y-90610000D01*
X126990000Y-91470000D02*
X126510000Y-91470000D01*
X126750000Y-91140000D01*
X126990000Y-91470000D01*
G36*
X126990000Y-91470000D02*
G01*
X126510000Y-91470000D01*
X126750000Y-91140000D01*
X126990000Y-91470000D01*
G37*
%TO.C,J4*%
X106590000Y-88610000D02*
X106590000Y-89860000D01*
X106590000Y-89860000D02*
X107840000Y-89860000D01*
X106690000Y-87800000D02*
X106690000Y-88100000D01*
X106690000Y-88100000D02*
X106890000Y-88100000D01*
X106790000Y-87800000D02*
X106790000Y-88100000D01*
X106890000Y-87000000D02*
X107500000Y-87000000D01*
X106890000Y-87800000D02*
X106690000Y-87800000D01*
X107500000Y-84050000D02*
X107500000Y-86000000D01*
X107500000Y-86000000D02*
X106890000Y-86000000D01*
X107500000Y-87000000D02*
X107500000Y-88950000D01*
X107500000Y-88950000D02*
X111000000Y-88950000D01*
X108200000Y-83440000D02*
X108200000Y-84050000D01*
X108200000Y-89560000D02*
X108200000Y-88950000D01*
X109500000Y-83440000D02*
X109500000Y-84050000D01*
X109500000Y-89560000D02*
X109500000Y-88950000D01*
X110500000Y-86400000D02*
X111000000Y-86400000D01*
X110500000Y-86600000D02*
X110500000Y-86400000D01*
X111000000Y-84050000D02*
X107500000Y-84050000D01*
X111000000Y-86500000D02*
X110500000Y-86500000D01*
X111000000Y-86600000D02*
X110500000Y-86600000D01*
X111000000Y-88950000D02*
X111000000Y-84050000D01*
X106890000Y-89560000D02*
X111610000Y-89560000D01*
X111610000Y-83440000D01*
X106890000Y-83440000D01*
X106890000Y-89560000D01*
%TO.C,C28*%
X109859420Y-113240000D02*
X110140580Y-113240000D01*
X109859420Y-114260000D02*
X110140580Y-114260000D01*
%TO.C,R18*%
X124417224Y-120365000D02*
X123907776Y-120365000D01*
X124417224Y-121410000D02*
X123907776Y-121410000D01*
%TO.C,C27*%
X119150000Y-95705000D02*
X123245000Y-95705000D01*
X123245000Y-93795000D02*
X119150000Y-93795000D01*
X123245000Y-95705000D02*
X123245000Y-93795000D01*
%TO.C,R14*%
X122754724Y-115615000D02*
X122245276Y-115615000D01*
X122754724Y-116660000D02*
X122245276Y-116660000D01*
%TO.C,C31*%
X104609420Y-103240000D02*
X104890580Y-103240000D01*
X104609420Y-104260000D02*
X104890580Y-104260000D01*
%TO.C,R12*%
X122754724Y-101840000D02*
X122245276Y-101840000D01*
X122754724Y-102885000D02*
X122245276Y-102885000D01*
%TO.C,C14*%
X120609420Y-121877500D02*
X120890580Y-121877500D01*
X120609420Y-122897500D02*
X120890580Y-122897500D01*
%TO.C,R9*%
X137227500Y-85245276D02*
X137227500Y-85754724D01*
X138272500Y-85245276D02*
X138272500Y-85754724D01*
%TO.C,C19*%
X137859420Y-98990000D02*
X138140580Y-98990000D01*
X137859420Y-100010000D02*
X138140580Y-100010000D01*
%TO.C,R20*%
X138229724Y-101977500D02*
X137720276Y-101977500D01*
X138229724Y-103022500D02*
X137720276Y-103022500D01*
%TO.C,C11*%
X122359420Y-98852500D02*
X122640580Y-98852500D01*
X122359420Y-99872500D02*
X122640580Y-99872500D01*
%TO.C,R22*%
X136479724Y-117365000D02*
X135970276Y-117365000D01*
X136479724Y-118410000D02*
X135970276Y-118410000D01*
%TO.C,C32*%
X123640000Y-89837836D02*
X123640000Y-89622164D01*
X124360000Y-89837836D02*
X124360000Y-89622164D01*
%TO.C,C23*%
X117740000Y-107640580D02*
X117740000Y-107359420D01*
X118760000Y-107640580D02*
X118760000Y-107359420D01*
%TO.C,C10*%
X122640580Y-112627500D02*
X122359420Y-112627500D01*
X122640580Y-113647500D02*
X122359420Y-113647500D01*
%TO.C,R6*%
X136495276Y-89727500D02*
X137004724Y-89727500D01*
X136495276Y-90772500D02*
X137004724Y-90772500D01*
%TO.C,R30*%
X138495276Y-80727500D02*
X139004724Y-80727500D01*
X138495276Y-81772500D02*
X139004724Y-81772500D01*
%TO.C,C7*%
X129890000Y-92142164D02*
X129890000Y-92357836D01*
X130610000Y-92142164D02*
X130610000Y-92357836D01*
%TO.C,C9*%
X122640580Y-100352500D02*
X122359420Y-100352500D01*
X122640580Y-101372500D02*
X122359420Y-101372500D01*
%TO.C,J2*%
X147640000Y-100860000D02*
X147640000Y-102110000D01*
X147640000Y-102110000D02*
X148890000Y-102110000D01*
X147740000Y-100050000D02*
X147740000Y-100350000D01*
X147740000Y-100350000D02*
X147940000Y-100350000D01*
X147840000Y-100050000D02*
X147840000Y-100350000D01*
X147940000Y-99250000D02*
X148550000Y-99250000D01*
X147940000Y-100050000D02*
X147740000Y-100050000D01*
X148550000Y-92300000D02*
X148550000Y-94250000D01*
X148550000Y-94250000D02*
X147940000Y-94250000D01*
X148550000Y-99250000D02*
X148550000Y-101200000D01*
X148550000Y-101200000D02*
X152050000Y-101200000D01*
X149250000Y-91690000D02*
X149250000Y-92300000D01*
X149250000Y-101810000D02*
X149250000Y-101200000D01*
X150550000Y-91690000D02*
X150550000Y-92300000D01*
X150550000Y-101810000D02*
X150550000Y-101200000D01*
X151550000Y-94650000D02*
X152050000Y-94650000D01*
X151550000Y-94850000D02*
X151550000Y-94650000D01*
X151550000Y-96650000D02*
X152050000Y-96650000D01*
X151550000Y-96850000D02*
X151550000Y-96650000D01*
X151550000Y-98650000D02*
X152050000Y-98650000D01*
X151550000Y-98850000D02*
X151550000Y-98650000D01*
X152050000Y-92300000D02*
X148550000Y-92300000D01*
X152050000Y-94750000D02*
X151550000Y-94750000D01*
X152050000Y-94850000D02*
X151550000Y-94850000D01*
X152050000Y-96750000D02*
X151550000Y-96750000D01*
X152050000Y-96850000D02*
X151550000Y-96850000D01*
X152050000Y-98750000D02*
X151550000Y-98750000D01*
X152050000Y-98850000D02*
X151550000Y-98850000D01*
X152050000Y-101200000D02*
X152050000Y-92300000D01*
X147940000Y-101810000D02*
X152660000Y-101810000D01*
X152660000Y-91690000D01*
X147940000Y-91690000D01*
X147940000Y-101810000D01*
%TO.C,J1*%
X147590000Y-89360000D02*
X147590000Y-90610000D01*
X147590000Y-90610000D02*
X148840000Y-90610000D01*
X147690000Y-88550000D02*
X147690000Y-88850000D01*
X147690000Y-88850000D02*
X147890000Y-88850000D01*
X147790000Y-88550000D02*
X147790000Y-88850000D01*
X147890000Y-87750000D02*
X148500000Y-87750000D01*
X147890000Y-88550000D02*
X147690000Y-88550000D01*
X148500000Y-82800000D02*
X148500000Y-84750000D01*
X148500000Y-84750000D02*
X147890000Y-84750000D01*
X148500000Y-87750000D02*
X148500000Y-89700000D01*
X148500000Y-89700000D02*
X152000000Y-89700000D01*
X149200000Y-82190000D02*
X149200000Y-82800000D01*
X149200000Y-90310000D02*
X149200000Y-89700000D01*
X150500000Y-82190000D02*
X150500000Y-82800000D01*
X150500000Y-90310000D02*
X150500000Y-89700000D01*
X151500000Y-85150000D02*
X152000000Y-85150000D01*
X151500000Y-85350000D02*
X151500000Y-85150000D01*
X151500000Y-87150000D02*
X152000000Y-87150000D01*
X151500000Y-87350000D02*
X151500000Y-87150000D01*
X152000000Y-82800000D02*
X148500000Y-82800000D01*
X152000000Y-85250000D02*
X151500000Y-85250000D01*
X152000000Y-85350000D02*
X151500000Y-85350000D01*
X152000000Y-87250000D02*
X151500000Y-87250000D01*
X152000000Y-87350000D02*
X151500000Y-87350000D01*
X152000000Y-89700000D02*
X152000000Y-82800000D01*
X147890000Y-90310000D02*
X152610000Y-90310000D01*
X152610000Y-82190000D01*
X147890000Y-82190000D01*
X147890000Y-90310000D01*
%TO.C,C12*%
X120865580Y-118877500D02*
X120584420Y-118877500D01*
X120865580Y-119897500D02*
X120584420Y-119897500D01*
%TO.C,C5*%
X115640580Y-79740000D02*
X115359420Y-79740000D01*
X115640580Y-80760000D02*
X115359420Y-80760000D01*
%TO.C,R27*%
X109745276Y-109717500D02*
X110254724Y-109717500D01*
X109745276Y-110762500D02*
X110254724Y-110762500D01*
%TO.C,R2*%
X124995276Y-92227500D02*
X125504724Y-92227500D01*
X124995276Y-93272500D02*
X125504724Y-93272500D01*
D14*
%TO.C,U4*%
X118975000Y-88875000D02*
G75*
G02*
X118725000Y-88875000I-125000J0D01*
G01*
X118725000Y-88875000D02*
G75*
G02*
X118975000Y-88875000I125000J0D01*
G01*
D13*
%TO.C,R10*%
X126995276Y-80727500D02*
X127504724Y-80727500D01*
X126995276Y-81772500D02*
X127504724Y-81772500D01*
%TO.C,Y1*%
X118050000Y-80860000D02*
X123750000Y-80860000D01*
X118610000Y-83060000D02*
X118050000Y-83060000D01*
X118610000Y-83060000D02*
X118610000Y-85940000D01*
X118750000Y-88140000D02*
X123750000Y-88140000D01*
X123890000Y-83060000D02*
X123890000Y-85940000D01*
%TO.C,C16*%
X138115580Y-100490000D02*
X137834420Y-100490000D01*
X138115580Y-101510000D02*
X137834420Y-101510000D01*
%TO.C,U5*%
X104400000Y-110365000D02*
X104400000Y-110140000D01*
X104400000Y-110365000D02*
X105375000Y-110365000D01*
X104705000Y-107115000D02*
X105375000Y-107115000D01*
X106675000Y-107115000D02*
X107650000Y-107115000D01*
X106675000Y-110365000D02*
X107650000Y-110365000D01*
X107650000Y-107340000D02*
X107650000Y-107115000D01*
X107650000Y-110140000D02*
X107650000Y-110365000D01*
X104185000Y-107320000D02*
X103945000Y-106990000D01*
X104425000Y-106990000D01*
X104185000Y-107320000D01*
G36*
X104185000Y-107320000D02*
G01*
X103945000Y-106990000D01*
X104425000Y-106990000D01*
X104185000Y-107320000D01*
G37*
%TO.C,J3*%
X106590000Y-99360000D02*
X106590000Y-100610000D01*
X106590000Y-100610000D02*
X107840000Y-100610000D01*
X106690000Y-98550000D02*
X106690000Y-98850000D01*
X106690000Y-98850000D02*
X106890000Y-98850000D01*
X106790000Y-98550000D02*
X106790000Y-98850000D01*
X106890000Y-97750000D02*
X107500000Y-97750000D01*
X106890000Y-98550000D02*
X106690000Y-98550000D01*
X107500000Y-92800000D02*
X107500000Y-94750000D01*
X107500000Y-94750000D02*
X106890000Y-94750000D01*
X107500000Y-97750000D02*
X107500000Y-99700000D01*
X107500000Y-99700000D02*
X111000000Y-99700000D01*
X108200000Y-92190000D02*
X108200000Y-92800000D01*
X108200000Y-100310000D02*
X108200000Y-99700000D01*
X109500000Y-92190000D02*
X109500000Y-92800000D01*
X109500000Y-100310000D02*
X109500000Y-99700000D01*
X110500000Y-95150000D02*
X111000000Y-95150000D01*
X110500000Y-95350000D02*
X110500000Y-95150000D01*
X110500000Y-97150000D02*
X111000000Y-97150000D01*
X110500000Y-97350000D02*
X110500000Y-97150000D01*
X111000000Y-92800000D02*
X107500000Y-92800000D01*
X111000000Y-95250000D02*
X110500000Y-95250000D01*
X111000000Y-95350000D02*
X110500000Y-95350000D01*
X111000000Y-97250000D02*
X110500000Y-97250000D01*
X111000000Y-97350000D02*
X110500000Y-97350000D01*
X111000000Y-99700000D02*
X111000000Y-92800000D01*
X106890000Y-100310000D02*
X111610000Y-100310000D01*
X111610000Y-92190000D01*
X106890000Y-92190000D01*
X106890000Y-100310000D01*
%TO.C,R19*%
X138229724Y-103477500D02*
X137720276Y-103477500D01*
X138229724Y-104522500D02*
X137720276Y-104522500D01*
%TO.C,C15*%
X124390580Y-121877500D02*
X124109420Y-121877500D01*
X124390580Y-122897500D02*
X124109420Y-122897500D01*
%TO.C,C29*%
X114545000Y-102255000D02*
X114545000Y-106350000D01*
X116455000Y-102255000D02*
X114545000Y-102255000D01*
X116455000Y-106350000D02*
X116455000Y-102255000D01*
%TO.C,R8*%
X135227500Y-85245276D02*
X135227500Y-85754724D01*
X136272500Y-85245276D02*
X136272500Y-85754724D01*
%TO.C,R21*%
X135970276Y-120365000D02*
X136479724Y-120365000D01*
X135970276Y-121410000D02*
X136479724Y-121410000D01*
%TO.C,C1*%
X115238748Y-82765000D02*
X115761252Y-82765000D01*
X115238748Y-84235000D02*
X115761252Y-84235000D01*
%TO.C,C17*%
X136084420Y-121877500D02*
X136365580Y-121877500D01*
X136084420Y-122897500D02*
X136365580Y-122897500D01*
%TO.C,R23*%
X139979724Y-117365000D02*
X139470276Y-117365000D01*
X139979724Y-118410000D02*
X139470276Y-118410000D01*
%TO.C,C20*%
X139865580Y-118877500D02*
X139584420Y-118877500D01*
X139865580Y-119897500D02*
X139584420Y-119897500D01*
%TO.C,R1*%
X109770276Y-104967500D02*
X110279724Y-104967500D01*
X109770276Y-106012500D02*
X110279724Y-106012500D01*
%TO.C,C6*%
X133011252Y-91515000D02*
X132488748Y-91515000D01*
X133011252Y-92985000D02*
X132488748Y-92985000D01*
%TO.C,R17*%
X120495276Y-120365000D02*
X121004724Y-120365000D01*
X120495276Y-121410000D02*
X121004724Y-121410000D01*
%TO.C,R7*%
X136582776Y-87727500D02*
X137092224Y-87727500D01*
X136582776Y-88772500D02*
X137092224Y-88772500D01*
%TO.C,R3*%
X109770276Y-106727500D02*
X110279724Y-106727500D01*
X109770276Y-107772500D02*
X110279724Y-107772500D01*
%TO.C,C2*%
X124988748Y-94015000D02*
X125511252Y-94015000D01*
X124988748Y-95485000D02*
X125511252Y-95485000D01*
%TO.C,R13*%
X122754724Y-114115000D02*
X122245276Y-114115000D01*
X122754724Y-115160000D02*
X122245276Y-115160000D01*
D15*
%TO.C,J5*%
X117250000Y-130250000D02*
X117250000Y-136000000D01*
X117250000Y-136000000D02*
X118100000Y-136000000D01*
X118100000Y-136000000D02*
X118100000Y-138000000D01*
X124950000Y-126000000D02*
X119500000Y-126000000D01*
X126400000Y-136000000D02*
X126400000Y-138000000D01*
X126400000Y-136000000D02*
X133100000Y-136000000D01*
X132400000Y-126000000D02*
X127050000Y-126000000D01*
X133100000Y-138000000D02*
X133100000Y-136000000D01*
X139850000Y-126000000D02*
X134550000Y-126000000D01*
X141400000Y-136000000D02*
X142250000Y-136000000D01*
X141400000Y-138000000D02*
X141400000Y-136000000D01*
X142250000Y-136000000D02*
X142250000Y-130250000D01*
D16*
X116650000Y-133000000D02*
G75*
G02*
X116450000Y-133000000I-100000J0D01*
G01*
X116450000Y-133000000D02*
G75*
G02*
X116650000Y-133000000I100000J0D01*
G01*
D13*
%TO.C,C24*%
X126609420Y-110990000D02*
X126890580Y-110990000D01*
X126609420Y-112010000D02*
X126890580Y-112010000D01*
%TO.C,C25*%
X132965000Y-107640580D02*
X132965000Y-107359420D01*
X133985000Y-107640580D02*
X133985000Y-107359420D01*
%TO.C,C8*%
X131788748Y-80515000D02*
X132311252Y-80515000D01*
X131788748Y-81985000D02*
X132311252Y-81985000D01*
%TO.C,R15*%
X121004724Y-117365000D02*
X120495276Y-117365000D01*
X121004724Y-118410000D02*
X120495276Y-118410000D01*
%TO.C,R25*%
X138229724Y-114115000D02*
X137720276Y-114115000D01*
X138229724Y-115160000D02*
X137720276Y-115160000D01*
%TO.C,C4*%
X109859420Y-103230000D02*
X110140580Y-103230000D01*
X109859420Y-104250000D02*
X110140580Y-104250000D01*
%TO.C,R29*%
X112727500Y-95754724D02*
X112727500Y-95245276D01*
X113772500Y-95754724D02*
X113772500Y-95245276D01*
%TO.C,U2*%
X119940000Y-106577500D02*
X120035000Y-106577500D01*
X119940000Y-110697500D02*
X119940000Y-106577500D01*
X120035000Y-110697500D02*
X119940000Y-110697500D01*
X124965000Y-106577500D02*
X125060000Y-106577500D01*
X125060000Y-106577500D02*
X125060000Y-110697500D01*
X125060000Y-110697500D02*
X124965000Y-110697500D01*
X120030000Y-111237500D02*
X119700000Y-111477500D01*
X119700000Y-110997500D01*
X120030000Y-111237500D01*
G36*
X120030000Y-111237500D02*
G01*
X119700000Y-111477500D01*
X119700000Y-110997500D01*
X120030000Y-111237500D01*
G37*
%TO.C,C13*%
X124365580Y-118877500D02*
X124084420Y-118877500D01*
X124365580Y-119897500D02*
X124084420Y-119897500D01*
%TO.C,R32*%
X142245276Y-77477500D02*
X142754724Y-77477500D01*
X142245276Y-78522500D02*
X142754724Y-78522500D01*
%TO.C,R5*%
X136495276Y-91727500D02*
X137004724Y-91727500D01*
X136495276Y-92772500D02*
X137004724Y-92772500D01*
%TO.C,C22*%
X138115580Y-112627500D02*
X137834420Y-112627500D01*
X138115580Y-113647500D02*
X137834420Y-113647500D01*
%TO.C,R26*%
X138229724Y-115615000D02*
X137720276Y-115615000D01*
X138229724Y-116660000D02*
X137720276Y-116660000D01*
%TO.C,C26*%
X141834420Y-110990000D02*
X142115580Y-110990000D01*
X141834420Y-112010000D02*
X142115580Y-112010000D01*
%TO.C,C3*%
X132640000Y-89642164D02*
X132640000Y-89857836D01*
X133360000Y-89642164D02*
X133360000Y-89857836D01*
%TO.C,C21*%
X139865580Y-121877500D02*
X139584420Y-121877500D01*
X139865580Y-122897500D02*
X139584420Y-122897500D01*
%TO.C,R11*%
X122754724Y-103340000D02*
X122245276Y-103340000D01*
X122754724Y-104385000D02*
X122245276Y-104385000D01*
%TO.C,U3*%
X135165000Y-106577500D02*
X135260000Y-106577500D01*
X135165000Y-110697500D02*
X135165000Y-106577500D01*
X135260000Y-110697500D02*
X135165000Y-110697500D01*
X140190000Y-106577500D02*
X140285000Y-106577500D01*
X140285000Y-106577500D02*
X140285000Y-110697500D01*
X140285000Y-110697500D02*
X140190000Y-110697500D01*
X135255000Y-111237500D02*
X134925000Y-111477500D01*
X134925000Y-110997500D01*
X135255000Y-111237500D01*
G36*
X135255000Y-111237500D02*
G01*
X134925000Y-111477500D01*
X134925000Y-110997500D01*
X135255000Y-111237500D01*
G37*
%TO.C,C18*%
X136365580Y-118877500D02*
X136084420Y-118877500D01*
X136365580Y-119897500D02*
X136084420Y-119897500D01*
%TO.C,R16*%
X124504724Y-117365000D02*
X123995276Y-117365000D01*
X124504724Y-118410000D02*
X123995276Y-118410000D01*
%TO.C,R24*%
X139979724Y-120365000D02*
X139470276Y-120365000D01*
X139979724Y-121410000D02*
X139470276Y-121410000D01*
%TO.C,R28*%
X138407776Y-77477500D02*
X138917224Y-77477500D01*
X138407776Y-78522500D02*
X138917224Y-78522500D01*
%TO.C,R31*%
X142245276Y-80727500D02*
X142754724Y-80727500D01*
X142245276Y-81772500D02*
X142754724Y-81772500D01*
%TO.C,R4*%
X109745276Y-111467500D02*
X110254724Y-111467500D01*
X109745276Y-112512500D02*
X110254724Y-112512500D01*
%TO.C,C30*%
X114545000Y-108005000D02*
X114545000Y-112100000D01*
X116455000Y-108005000D02*
X114545000Y-108005000D01*
X116455000Y-112100000D02*
X116455000Y-108005000D01*
%TD*%
M02*
