%TF.GenerationSoftware,KiCad,Pcbnew,9.0.7*%
%TF.CreationDate,2026-01-19T21:17:24-05:00*%
%TF.ProjectId,dac,6461632e-6b69-4636-9164-5f7063625858,rev?*%
%TF.SameCoordinates,Original*%
%TF.FileFunction,Copper,L2,Inr*%
%TF.FilePolarity,Positive*%
%FSLAX46Y46*%
G04 Gerber Fmt 4.6, Leading zero omitted, Abs format (unit mm)*
G04 Created by KiCad (PCBNEW 9.0.7) date 2026-01-19 21:17:24*
%MOMM*%
%LPD*%
G01*
G04 APERTURE LIST*
G04 Aperture macros list*
%AMRoundRect*
0 Rectangle with rounded corners*
0 $1 Rounding radius*
0 $2 $3 $4 $5 $6 $7 $8 $9 X,Y pos of 4 corners*
0 Add a 4 corners polygon primitive as box body*
4,1,4,$2,$3,$4,$5,$6,$7,$8,$9,$2,$3,0*
0 Add four circle primitives for the rounded corners*
1,1,$1+$1,$2,$3*
1,1,$1+$1,$4,$5*
1,1,$1+$1,$6,$7*
1,1,$1+$1,$8,$9*
0 Add four rect primitives between the rounded corners*
20,1,$1+$1,$2,$3,$4,$5,0*
20,1,$1+$1,$4,$5,$6,$7,0*
20,1,$1+$1,$6,$7,$8,$9,0*
20,1,$1+$1,$8,$9,$2,$3,0*%
G04 Aperture macros list end*
%TA.AperFunction,ComponentPad*%
%ADD10RoundRect,0.250000X0.625000X-0.350000X0.625000X0.350000X-0.625000X0.350000X-0.625000X-0.350000X0*%
%TD*%
%TA.AperFunction,ComponentPad*%
%ADD11O,1.750000X1.200000*%
%TD*%
%TA.AperFunction,ComponentPad*%
%ADD12C,0.600000*%
%TD*%
%TA.AperFunction,ComponentPad*%
%ADD13O,4.200000X2.100000*%
%TD*%
%TA.AperFunction,ComponentPad*%
%ADD14O,2.000000X4.000000*%
%TD*%
%TA.AperFunction,ViaPad*%
%ADD15C,0.600000*%
%TD*%
G04 APERTURE END LIST*
D10*
%TO.N,GND*%
%TO.C,J4*%
X108700000Y-87500000D03*
D11*
%TO.N,+5V*%
X108700000Y-85500000D03*
%TD*%
D10*
%TO.N,/BCLK*%
%TO.C,J2*%
X149750000Y-99750000D03*
D11*
%TO.N,/WCLK*%
X149750000Y-97750000D03*
%TO.N,/DATA*%
X149750000Y-95750000D03*
%TO.N,GND*%
X149750000Y-93750000D03*
%TD*%
D10*
%TO.N,/SCL*%
%TO.C,J1*%
X149700000Y-88250000D03*
D11*
%TO.N,/SCA*%
X149700000Y-86250000D03*
%TO.N,GND*%
X149700000Y-84250000D03*
%TD*%
D12*
%TO.N,GND*%
%TO.C,U5*%
X105525000Y-107990000D03*
X105525000Y-109490000D03*
X106025000Y-108740000D03*
X106525000Y-107990000D03*
X106525000Y-109490000D03*
%TD*%
D10*
%TO.N,/+15V*%
%TO.C,J3*%
X108700000Y-98250000D03*
D11*
%TO.N,GND*%
X108700000Y-96250000D03*
%TO.N,/-15V*%
X108700000Y-94250000D03*
%TD*%
D13*
%TO.N,GND*%
%TO.C,J5*%
X122250000Y-132000000D03*
X137250000Y-132000000D03*
D14*
%TO.N,Net-(C15-Pad2)*%
X118500000Y-128300000D03*
%TO.N,Net-(C21-Pad2)*%
X133500000Y-128300000D03*
%TO.N,Net-(C15-Pad2)*%
X126000000Y-128300000D03*
%TO.N,Net-(C21-Pad2)*%
X141000000Y-128300000D03*
%TD*%
D15*
%TO.N,GND*%
X131250000Y-127750000D03*
X126750000Y-101500000D03*
X110250000Y-80250000D03*
X113000000Y-88750000D03*
X144000000Y-82000000D03*
X111250000Y-127595455D03*
X104750000Y-86409091D03*
X150250000Y-118840910D03*
X150250000Y-133331818D03*
X136750000Y-95250000D03*
X153500000Y-86409091D03*
X126700000Y-113152273D03*
X123750000Y-97000000D03*
X108000000Y-118840910D03*
X131250000Y-116090910D03*
X120250000Y-91500000D03*
X131250000Y-121927273D03*
X147000000Y-89327273D03*
X147000000Y-118840910D03*
X126700000Y-116070455D03*
X120250000Y-85250000D03*
X141250000Y-91250000D03*
X111250000Y-130500000D03*
X153500000Y-104250000D03*
X133750000Y-101500000D03*
X143750000Y-113004546D03*
X104750000Y-92245455D03*
X117000000Y-94500000D03*
X104750000Y-98081819D03*
X122250000Y-83750000D03*
X110250000Y-78000000D03*
X143750000Y-107168182D03*
X106500000Y-112500000D03*
X143750000Y-95163637D03*
X131250000Y-113172728D03*
X114500000Y-118840910D03*
X131250000Y-133500000D03*
X104750000Y-121759091D03*
X112857143Y-78000000D03*
X123500000Y-80000000D03*
X153500000Y-89327273D03*
X147000000Y-130500000D03*
X129589285Y-78000000D03*
X134250000Y-95250000D03*
X120749998Y-90625000D03*
X133750000Y-104418182D03*
X143750000Y-130500000D03*
X115500000Y-87250000D03*
X131250000Y-119009091D03*
X153500000Y-83490909D03*
X108000000Y-115922728D03*
X118750000Y-80000000D03*
X141250000Y-89250000D03*
X148750000Y-78000000D03*
X153500000Y-107168182D03*
X147000000Y-98081819D03*
X131250000Y-98250000D03*
X104750000Y-124677273D03*
X143750000Y-115922728D03*
X104750000Y-101000000D03*
X143750000Y-101000000D03*
X146589285Y-78000000D03*
X153500000Y-124677273D03*
X112250000Y-98081818D03*
X131250000Y-101500000D03*
X127250000Y-87000000D03*
X108000000Y-127595455D03*
X147000000Y-113004546D03*
X108000000Y-121759091D03*
X141250000Y-95250000D03*
X150250000Y-127595455D03*
X133750000Y-90250000D03*
X133750000Y-118988636D03*
X153500000Y-118840910D03*
X106750000Y-106000000D03*
X150250000Y-107168182D03*
X143750000Y-124677273D03*
X153500000Y-101000000D03*
X115500000Y-101000000D03*
X134704605Y-85376156D03*
X120250000Y-83750000D03*
X126700000Y-124825000D03*
X150250000Y-115922728D03*
X111250000Y-118840910D03*
X143750000Y-127595455D03*
X104750000Y-112500000D03*
X129000000Y-124845455D03*
X147000000Y-101000000D03*
X147000000Y-133331818D03*
X129000000Y-113172728D03*
X129000000Y-98250000D03*
X143750000Y-133331818D03*
X153500000Y-115922728D03*
X104750000Y-105250000D03*
X134785714Y-78000000D03*
X114500000Y-121759091D03*
X117750000Y-124750000D03*
X153500000Y-113004546D03*
X114500000Y-115922728D03*
X115000000Y-78000000D03*
X129000000Y-107336364D03*
X129000000Y-130581818D03*
X129750000Y-87000000D03*
X115500000Y-85750000D03*
X143750000Y-110086364D03*
X121250000Y-89750000D03*
X117785714Y-78000000D03*
X129000000Y-133500000D03*
X120232143Y-78000000D03*
X115500000Y-88750000D03*
X122375000Y-78000000D03*
X143750000Y-104250000D03*
X121250000Y-87000000D03*
X129000000Y-121927273D03*
X108000000Y-124677273D03*
X150250000Y-113004546D03*
X126700000Y-118988636D03*
X153500000Y-98081819D03*
X104750000Y-127595455D03*
X104750000Y-118840910D03*
X153500000Y-121759091D03*
X153500000Y-95163637D03*
X129000000Y-119009091D03*
X121250000Y-97000000D03*
X147000000Y-107168182D03*
X114500000Y-130500000D03*
X117750000Y-121831818D03*
X147000000Y-110086364D03*
X111250000Y-124677273D03*
X134785714Y-80000000D03*
X122750000Y-109500000D03*
X147000000Y-124677273D03*
X112750000Y-80250000D03*
X120250000Y-89750000D03*
X127250000Y-84000000D03*
X147000000Y-121759091D03*
X133750000Y-113152273D03*
X113000000Y-85750000D03*
X129000000Y-116090910D03*
X122250000Y-85250000D03*
X143750000Y-98081819D03*
X121250000Y-80000000D03*
X111250000Y-133331818D03*
X111250000Y-121759091D03*
X104750000Y-89327273D03*
X138000000Y-109000000D03*
X112250000Y-101000000D03*
X115500000Y-98081818D03*
X143750000Y-121759091D03*
X131250000Y-124845455D03*
X104750000Y-83490909D03*
X141250000Y-98081819D03*
X114500000Y-127595455D03*
X125900000Y-91500000D03*
X114500000Y-124677273D03*
X153500000Y-92245455D03*
X143750000Y-118840910D03*
X130723990Y-85575000D03*
X143000000Y-85500000D03*
X146589285Y-80000000D03*
X150250000Y-104250000D03*
X150250000Y-124677273D03*
X117750000Y-118913637D03*
X147000000Y-127595455D03*
X114500000Y-133331818D03*
X130250000Y-93500000D03*
X129000000Y-127750000D03*
X153500000Y-110086364D03*
X153500000Y-127595455D03*
X126700000Y-121906818D03*
X133750000Y-121906818D03*
X131250000Y-107336364D03*
X147000000Y-115922728D03*
X131250000Y-104418182D03*
X133750000Y-116070455D03*
X139000000Y-95250000D03*
X150250000Y-130500000D03*
X127250000Y-89250000D03*
X131250000Y-130581818D03*
X124839285Y-78000000D03*
X126750000Y-104418182D03*
X113000000Y-87250000D03*
X110000000Y-106500000D03*
X129000000Y-104418182D03*
X129000000Y-101500000D03*
X147000000Y-104250000D03*
X150250000Y-110086364D03*
X148750000Y-80000000D03*
X129000000Y-95331818D03*
X111250000Y-115922728D03*
X133750000Y-124825000D03*
X134785714Y-82000000D03*
X104750000Y-115922728D03*
X126750000Y-98250000D03*
X112000000Y-92500000D03*
X123250000Y-89250000D03*
X150250000Y-121759091D03*
X121250000Y-91500000D03*
X146500000Y-82000000D03*
X129750000Y-89250000D03*
X127000000Y-78000000D03*
%TO.N,DAC2B*%
X137890000Y-105444283D03*
X137783862Y-100007997D03*
%TO.N,+3.3V*%
X132250000Y-89250000D03*
X125091263Y-88545895D03*
X126750000Y-91250000D03*
X124717491Y-90302438D03*
X131392322Y-91023694D03*
%TO.N,DAC1B*%
X122499999Y-100134651D03*
X122515288Y-104565472D03*
%TO.N,+12V*%
X134250000Y-105887502D03*
X119000000Y-106500000D03*
%TO.N,-12V*%
X141250000Y-110250000D03*
X126000000Y-110250000D03*
X117000000Y-112000000D03*
%TO.N,Net-(U1-ADDR0)*%
X128699000Y-84756223D03*
X137250000Y-82000000D03*
%TO.N,Net-(U1-ADDR1)*%
X141000000Y-80500000D03*
X129250000Y-84000000D03*
%TD*%
%TA.AperFunction,Conductor*%
%TO.N,GND*%
G36*
X154003736Y-75250726D02*
G01*
X154293796Y-75268271D01*
X154308659Y-75270076D01*
X154590798Y-75321780D01*
X154605335Y-75325363D01*
X154879172Y-75410695D01*
X154893163Y-75416000D01*
X155154743Y-75533727D01*
X155167989Y-75540680D01*
X155413465Y-75689075D01*
X155425776Y-75697573D01*
X155651573Y-75874473D01*
X155662781Y-75884403D01*
X155865596Y-76087218D01*
X155875526Y-76098426D01*
X155995481Y-76251538D01*
X156052422Y-76324217D01*
X156060926Y-76336537D01*
X156118128Y-76431161D01*
X156209316Y-76582004D01*
X156216275Y-76595263D01*
X156333997Y-76856831D01*
X156339306Y-76870832D01*
X156424635Y-77144663D01*
X156428219Y-77159201D01*
X156479923Y-77441340D01*
X156481728Y-77456205D01*
X156499274Y-77746263D01*
X156499500Y-77753750D01*
X156499500Y-132996249D01*
X156499274Y-133003736D01*
X156481728Y-133293794D01*
X156479923Y-133308659D01*
X156428219Y-133590798D01*
X156424635Y-133605336D01*
X156339306Y-133879167D01*
X156333997Y-133893168D01*
X156216275Y-134154736D01*
X156209316Y-134167995D01*
X156060928Y-134413459D01*
X156052422Y-134425782D01*
X155875526Y-134651573D01*
X155865596Y-134662781D01*
X155662781Y-134865596D01*
X155651573Y-134875526D01*
X155425782Y-135052422D01*
X155413459Y-135060928D01*
X155167995Y-135209316D01*
X155154736Y-135216275D01*
X154893168Y-135333997D01*
X154879167Y-135339306D01*
X154605336Y-135424635D01*
X154590798Y-135428219D01*
X154308659Y-135479923D01*
X154293794Y-135481728D01*
X154003736Y-135499274D01*
X153996249Y-135499500D01*
X105503751Y-135499500D01*
X105496264Y-135499274D01*
X105206205Y-135481728D01*
X105191340Y-135479923D01*
X104909201Y-135428219D01*
X104894663Y-135424635D01*
X104620832Y-135339306D01*
X104606831Y-135333997D01*
X104345263Y-135216275D01*
X104332004Y-135209316D01*
X104086540Y-135060928D01*
X104074217Y-135052422D01*
X103848426Y-134875526D01*
X103837218Y-134865596D01*
X103634403Y-134662781D01*
X103624473Y-134651573D01*
X103447573Y-134425776D01*
X103439075Y-134413465D01*
X103290680Y-134167989D01*
X103283727Y-134154743D01*
X103166000Y-133893163D01*
X103160693Y-133879167D01*
X103111949Y-133722743D01*
X103075363Y-133605335D01*
X103071780Y-133590798D01*
X103020075Y-133308657D01*
X103018271Y-133293794D01*
X103000726Y-133003736D01*
X103000500Y-132996249D01*
X103000500Y-132378711D01*
X104149500Y-132378711D01*
X104149500Y-132621288D01*
X104181161Y-132861785D01*
X104243947Y-133096104D01*
X104336773Y-133320205D01*
X104336776Y-133320212D01*
X104458064Y-133530289D01*
X104458066Y-133530292D01*
X104458067Y-133530293D01*
X104605733Y-133722736D01*
X104605739Y-133722743D01*
X104777256Y-133894260D01*
X104777262Y-133894265D01*
X104969711Y-134041936D01*
X105179788Y-134163224D01*
X105403900Y-134256054D01*
X105638211Y-134318838D01*
X105818586Y-134342584D01*
X105878711Y-134350500D01*
X105878712Y-134350500D01*
X106121289Y-134350500D01*
X106169388Y-134344167D01*
X106361789Y-134318838D01*
X106596100Y-134256054D01*
X106820212Y-134163224D01*
X107030289Y-134041936D01*
X107222738Y-133894265D01*
X107394265Y-133722738D01*
X107541936Y-133530289D01*
X107663224Y-133320212D01*
X107756054Y-133096100D01*
X107818838Y-132861789D01*
X107850500Y-132621288D01*
X107850500Y-132378712D01*
X107818838Y-132138211D01*
X107756054Y-131903900D01*
X107756051Y-131903892D01*
X107727315Y-131834515D01*
X107692307Y-131750000D01*
X119670275Y-131750000D01*
X121049999Y-131750000D01*
X121024979Y-131810402D01*
X121000000Y-131935981D01*
X121000000Y-132064019D01*
X121024979Y-132189598D01*
X121049999Y-132250000D01*
X119670275Y-132250000D01*
X119688165Y-132362959D01*
X119763560Y-132594998D01*
X119874321Y-132812377D01*
X120017728Y-133009759D01*
X120190240Y-133182271D01*
X120387622Y-133325678D01*
X120605001Y-133436439D01*
X120837040Y-133511834D01*
X121078007Y-133550000D01*
X122000000Y-133550000D01*
X122000000Y-132650000D01*
X122500000Y-132650000D01*
X122500000Y-133550000D01*
X123421993Y-133550000D01*
X123662959Y-133511834D01*
X123894998Y-133436439D01*
X124112377Y-133325678D01*
X124309759Y-133182271D01*
X124482271Y-133009759D01*
X124625678Y-132812377D01*
X124736439Y-132594998D01*
X124811834Y-132362959D01*
X124829725Y-132250000D01*
X123450001Y-132250000D01*
X123475021Y-132189598D01*
X123500000Y-132064019D01*
X123500000Y-131935981D01*
X123475021Y-131810402D01*
X123450001Y-131750000D01*
X124829725Y-131750000D01*
X134670275Y-131750000D01*
X136049999Y-131750000D01*
X136024979Y-131810402D01*
X136000000Y-131935981D01*
X136000000Y-132064019D01*
X136024979Y-132189598D01*
X136049999Y-132250000D01*
X134670275Y-132250000D01*
X134688165Y-132362959D01*
X134763560Y-132594998D01*
X134874321Y-132812377D01*
X135017728Y-133009759D01*
X135190240Y-133182271D01*
X135387622Y-133325678D01*
X135605001Y-133436439D01*
X135837040Y-133511834D01*
X136078007Y-133550000D01*
X137000000Y-133550000D01*
X137000000Y-132650000D01*
X137500000Y-132650000D01*
X137500000Y-133550000D01*
X138421993Y-133550000D01*
X138662959Y-133511834D01*
X138894998Y-133436439D01*
X139112377Y-133325678D01*
X139309759Y-133182271D01*
X139482271Y-133009759D01*
X139625678Y-132812377D01*
X139736439Y-132594998D01*
X139806715Y-132378711D01*
X151649500Y-132378711D01*
X151649500Y-132621288D01*
X151681161Y-132861785D01*
X151743947Y-133096104D01*
X151836773Y-133320205D01*
X151836776Y-133320212D01*
X151958064Y-133530289D01*
X151958066Y-133530292D01*
X151958067Y-133530293D01*
X152105733Y-133722736D01*
X152105739Y-133722743D01*
X152277256Y-133894260D01*
X152277262Y-133894265D01*
X152469711Y-134041936D01*
X152679788Y-134163224D01*
X152903900Y-134256054D01*
X153138211Y-134318838D01*
X153318586Y-134342584D01*
X153378711Y-134350500D01*
X153378712Y-134350500D01*
X153621289Y-134350500D01*
X153669388Y-134344167D01*
X153861789Y-134318838D01*
X154096100Y-134256054D01*
X154320212Y-134163224D01*
X154530289Y-134041936D01*
X154722738Y-133894265D01*
X154894265Y-133722738D01*
X155041936Y-133530289D01*
X155163224Y-133320212D01*
X155256054Y-133096100D01*
X155318838Y-132861789D01*
X155350500Y-132621288D01*
X155350500Y-132378712D01*
X155318838Y-132138211D01*
X155256054Y-131903900D01*
X155163224Y-131679788D01*
X155041936Y-131469711D01*
X154894265Y-131277262D01*
X154894260Y-131277256D01*
X154722743Y-131105739D01*
X154722736Y-131105733D01*
X154530293Y-130958067D01*
X154530292Y-130958066D01*
X154530289Y-130958064D01*
X154320212Y-130836776D01*
X154274226Y-130817728D01*
X154096104Y-130743947D01*
X153861785Y-130681161D01*
X153621289Y-130649500D01*
X153621288Y-130649500D01*
X153378712Y-130649500D01*
X153378711Y-130649500D01*
X153138214Y-130681161D01*
X152903895Y-130743947D01*
X152679794Y-130836773D01*
X152679785Y-130836777D01*
X152469706Y-130958067D01*
X152277263Y-131105733D01*
X152277256Y-131105739D01*
X152105739Y-131277256D01*
X152105733Y-131277263D01*
X151958067Y-131469706D01*
X151836777Y-131679785D01*
X151836773Y-131679794D01*
X151743947Y-131903895D01*
X151681161Y-132138214D01*
X151649500Y-132378711D01*
X139806715Y-132378711D01*
X139811832Y-132362963D01*
X139813053Y-132355258D01*
X139813054Y-132355255D01*
X139829725Y-132250000D01*
X138450001Y-132250000D01*
X138475021Y-132189598D01*
X138500000Y-132064019D01*
X138500000Y-131935981D01*
X138475021Y-131810402D01*
X138450001Y-131750000D01*
X139829725Y-131750000D01*
X139811834Y-131637040D01*
X139736439Y-131405001D01*
X139625678Y-131187622D01*
X139482271Y-130990240D01*
X139309759Y-130817728D01*
X139112377Y-130674321D01*
X138894998Y-130563560D01*
X138662959Y-130488165D01*
X138421993Y-130450000D01*
X137500000Y-130450000D01*
X137500000Y-131350000D01*
X137000000Y-131350000D01*
X137000000Y-130450000D01*
X136078007Y-130450000D01*
X135837040Y-130488165D01*
X135605001Y-130563560D01*
X135387622Y-130674321D01*
X135190240Y-130817728D01*
X135017728Y-130990240D01*
X134874321Y-131187622D01*
X134763560Y-131405001D01*
X134688165Y-131637040D01*
X134670275Y-131750000D01*
X124829725Y-131750000D01*
X124811834Y-131637040D01*
X124736439Y-131405001D01*
X124625678Y-131187622D01*
X124482271Y-130990240D01*
X124309759Y-130817728D01*
X124112377Y-130674321D01*
X123894998Y-130563560D01*
X123662959Y-130488165D01*
X123421993Y-130450000D01*
X122500000Y-130450000D01*
X122500000Y-131350000D01*
X122000000Y-131350000D01*
X122000000Y-130450000D01*
X121078007Y-130450000D01*
X120837040Y-130488165D01*
X120605001Y-130563560D01*
X120387622Y-130674321D01*
X120190240Y-130817728D01*
X120017728Y-130990240D01*
X119874321Y-131187622D01*
X119763560Y-131405001D01*
X119688165Y-131637040D01*
X119670275Y-131750000D01*
X107692307Y-131750000D01*
X107663227Y-131679794D01*
X107663222Y-131679785D01*
X107638543Y-131637040D01*
X107541936Y-131469711D01*
X107394265Y-131277262D01*
X107394260Y-131277256D01*
X107222743Y-131105739D01*
X107222736Y-131105733D01*
X107030293Y-130958067D01*
X107030292Y-130958066D01*
X107030289Y-130958064D01*
X106820212Y-130836776D01*
X106774226Y-130817728D01*
X106596104Y-130743947D01*
X106361785Y-130681161D01*
X106121289Y-130649500D01*
X106121288Y-130649500D01*
X105878712Y-130649500D01*
X105878711Y-130649500D01*
X105638214Y-130681161D01*
X105403895Y-130743947D01*
X105179794Y-130836773D01*
X105179785Y-130836777D01*
X104969706Y-130958067D01*
X104777263Y-131105733D01*
X104777256Y-131105739D01*
X104605739Y-131277256D01*
X104605733Y-131277263D01*
X104458067Y-131469706D01*
X104336777Y-131679785D01*
X104336773Y-131679794D01*
X104243947Y-131903895D01*
X104181161Y-132138214D01*
X104149500Y-132378711D01*
X103000500Y-132378711D01*
X103000500Y-127181902D01*
X116999500Y-127181902D01*
X116999500Y-129418097D01*
X117036446Y-129651368D01*
X117109433Y-129875996D01*
X117216657Y-130086433D01*
X117355483Y-130277510D01*
X117522490Y-130444517D01*
X117713567Y-130583343D01*
X117812991Y-130634002D01*
X117924003Y-130690566D01*
X117924005Y-130690566D01*
X117924008Y-130690568D01*
X118044412Y-130729689D01*
X118148631Y-130763553D01*
X118381903Y-130800500D01*
X118381908Y-130800500D01*
X118618097Y-130800500D01*
X118851368Y-130763553D01*
X119075992Y-130690568D01*
X119286433Y-130583343D01*
X119477510Y-130444517D01*
X119644517Y-130277510D01*
X119783343Y-130086433D01*
X119890568Y-129875992D01*
X119963553Y-129651368D01*
X120000500Y-129418097D01*
X120000500Y-127181902D01*
X124499500Y-127181902D01*
X124499500Y-129418097D01*
X124536446Y-129651368D01*
X124609433Y-129875996D01*
X124716657Y-130086433D01*
X124855483Y-130277510D01*
X125022490Y-130444517D01*
X125213567Y-130583343D01*
X125312991Y-130634002D01*
X125424003Y-130690566D01*
X125424005Y-130690566D01*
X125424008Y-130690568D01*
X125544412Y-130729689D01*
X125648631Y-130763553D01*
X125881903Y-130800500D01*
X125881908Y-130800500D01*
X126118097Y-130800500D01*
X126351368Y-130763553D01*
X126575992Y-130690568D01*
X126786433Y-130583343D01*
X126977510Y-130444517D01*
X127144517Y-130277510D01*
X127283343Y-130086433D01*
X127390568Y-129875992D01*
X127463553Y-129651368D01*
X127500500Y-129418097D01*
X127500500Y-127181902D01*
X131999500Y-127181902D01*
X131999500Y-129418097D01*
X132036446Y-129651368D01*
X132109433Y-129875996D01*
X132216657Y-130086433D01*
X132355483Y-130277510D01*
X132522490Y-130444517D01*
X132713567Y-130583343D01*
X132812991Y-130634002D01*
X132924003Y-130690566D01*
X132924005Y-130690566D01*
X132924008Y-130690568D01*
X133044412Y-130729689D01*
X133148631Y-130763553D01*
X133381903Y-130800500D01*
X133381908Y-130800500D01*
X133618097Y-130800500D01*
X133851368Y-130763553D01*
X134075992Y-130690568D01*
X134286433Y-130583343D01*
X134477510Y-130444517D01*
X134644517Y-130277510D01*
X134783343Y-130086433D01*
X134890568Y-129875992D01*
X134963553Y-129651368D01*
X135000500Y-129418097D01*
X135000500Y-127181902D01*
X139499500Y-127181902D01*
X139499500Y-129418097D01*
X139536446Y-129651368D01*
X139609433Y-129875996D01*
X139716657Y-130086433D01*
X139855483Y-130277510D01*
X140022490Y-130444517D01*
X140213567Y-130583343D01*
X140312991Y-130634002D01*
X140424003Y-130690566D01*
X140424005Y-130690566D01*
X140424008Y-130690568D01*
X140544412Y-130729689D01*
X140648631Y-130763553D01*
X140881903Y-130800500D01*
X140881908Y-130800500D01*
X141118097Y-130800500D01*
X141351368Y-130763553D01*
X141575992Y-130690568D01*
X141786433Y-130583343D01*
X141977510Y-130444517D01*
X142144517Y-130277510D01*
X142283343Y-130086433D01*
X142390568Y-129875992D01*
X142463553Y-129651368D01*
X142500500Y-129418097D01*
X142500500Y-127181902D01*
X142463553Y-126948631D01*
X142390566Y-126724003D01*
X142283342Y-126513566D01*
X142144517Y-126322490D01*
X141977510Y-126155483D01*
X141786433Y-126016657D01*
X141575996Y-125909433D01*
X141351368Y-125836446D01*
X141118097Y-125799500D01*
X141118092Y-125799500D01*
X140881908Y-125799500D01*
X140881903Y-125799500D01*
X140648631Y-125836446D01*
X140424003Y-125909433D01*
X140213566Y-126016657D01*
X140104550Y-126095862D01*
X140022490Y-126155483D01*
X140022488Y-126155485D01*
X140022487Y-126155485D01*
X139855485Y-126322487D01*
X139855485Y-126322488D01*
X139855483Y-126322490D01*
X139795862Y-126404550D01*
X139716657Y-126513566D01*
X139609433Y-126724003D01*
X139536446Y-126948631D01*
X139499500Y-127181902D01*
X135000500Y-127181902D01*
X134963553Y-126948631D01*
X134890566Y-126724003D01*
X134783342Y-126513566D01*
X134644517Y-126322490D01*
X134477510Y-126155483D01*
X134286433Y-126016657D01*
X134075996Y-125909433D01*
X133851368Y-125836446D01*
X133618097Y-125799500D01*
X133618092Y-125799500D01*
X133381908Y-125799500D01*
X133381903Y-125799500D01*
X133148631Y-125836446D01*
X132924003Y-125909433D01*
X132713566Y-126016657D01*
X132604550Y-126095862D01*
X132522490Y-126155483D01*
X132522488Y-126155485D01*
X132522487Y-126155485D01*
X132355485Y-126322487D01*
X132355485Y-126322488D01*
X132355483Y-126322490D01*
X132295862Y-126404550D01*
X132216657Y-126513566D01*
X132109433Y-126724003D01*
X132036446Y-126948631D01*
X131999500Y-127181902D01*
X127500500Y-127181902D01*
X127463553Y-126948631D01*
X127390566Y-126724003D01*
X127283342Y-126513566D01*
X127144517Y-126322490D01*
X126977510Y-126155483D01*
X126786433Y-126016657D01*
X126575996Y-125909433D01*
X126351368Y-125836446D01*
X126118097Y-125799500D01*
X126118092Y-125799500D01*
X125881908Y-125799500D01*
X125881903Y-125799500D01*
X125648631Y-125836446D01*
X125424003Y-125909433D01*
X125213566Y-126016657D01*
X125104550Y-126095862D01*
X125022490Y-126155483D01*
X125022488Y-126155485D01*
X125022487Y-126155485D01*
X124855485Y-126322487D01*
X124855485Y-126322488D01*
X124855483Y-126322490D01*
X124795862Y-126404550D01*
X124716657Y-126513566D01*
X124609433Y-126724003D01*
X124536446Y-126948631D01*
X124499500Y-127181902D01*
X120000500Y-127181902D01*
X119963553Y-126948631D01*
X119890566Y-126724003D01*
X119783342Y-126513566D01*
X119644517Y-126322490D01*
X119477510Y-126155483D01*
X119286433Y-126016657D01*
X119075996Y-125909433D01*
X118851368Y-125836446D01*
X118618097Y-125799500D01*
X118618092Y-125799500D01*
X118381908Y-125799500D01*
X118381903Y-125799500D01*
X118148631Y-125836446D01*
X117924003Y-125909433D01*
X117713566Y-126016657D01*
X117604550Y-126095862D01*
X117522490Y-126155483D01*
X117522488Y-126155485D01*
X117522487Y-126155485D01*
X117355485Y-126322487D01*
X117355485Y-126322488D01*
X117355483Y-126322490D01*
X117295862Y-126404550D01*
X117216657Y-126513566D01*
X117109433Y-126724003D01*
X117036446Y-126948631D01*
X116999500Y-127181902D01*
X103000500Y-127181902D01*
X103000500Y-111921153D01*
X116199500Y-111921153D01*
X116199500Y-112078846D01*
X116230261Y-112233489D01*
X116230264Y-112233501D01*
X116290602Y-112379172D01*
X116290609Y-112379185D01*
X116378210Y-112510288D01*
X116378213Y-112510292D01*
X116489707Y-112621786D01*
X116489711Y-112621789D01*
X116620814Y-112709390D01*
X116620827Y-112709397D01*
X116766498Y-112769735D01*
X116766503Y-112769737D01*
X116921153Y-112800499D01*
X116921156Y-112800500D01*
X116921158Y-112800500D01*
X117078844Y-112800500D01*
X117078845Y-112800499D01*
X117233497Y-112769737D01*
X117379179Y-112709394D01*
X117510289Y-112621789D01*
X117621789Y-112510289D01*
X117709394Y-112379179D01*
X117769737Y-112233497D01*
X117800500Y-112078842D01*
X117800500Y-111921158D01*
X117800500Y-111921155D01*
X117800499Y-111921153D01*
X117769738Y-111766510D01*
X117769737Y-111766503D01*
X117769735Y-111766498D01*
X117709397Y-111620827D01*
X117709390Y-111620814D01*
X117621789Y-111489711D01*
X117621786Y-111489707D01*
X117510292Y-111378213D01*
X117510288Y-111378210D01*
X117379185Y-111290609D01*
X117379172Y-111290602D01*
X117233501Y-111230264D01*
X117233489Y-111230261D01*
X117078845Y-111199500D01*
X117078842Y-111199500D01*
X116921158Y-111199500D01*
X116921155Y-111199500D01*
X116766510Y-111230261D01*
X116766498Y-111230264D01*
X116620827Y-111290602D01*
X116620814Y-111290609D01*
X116489711Y-111378210D01*
X116489707Y-111378213D01*
X116378213Y-111489707D01*
X116378210Y-111489711D01*
X116290609Y-111620814D01*
X116290602Y-111620827D01*
X116230264Y-111766498D01*
X116230261Y-111766510D01*
X116199500Y-111921153D01*
X103000500Y-111921153D01*
X103000500Y-110205845D01*
X105162706Y-110205845D01*
X105291652Y-110259257D01*
X105291656Y-110259258D01*
X105446202Y-110289999D01*
X105446206Y-110290000D01*
X105603794Y-110290000D01*
X105603797Y-110289999D01*
X105758343Y-110259258D01*
X105758347Y-110259257D01*
X105887293Y-110205845D01*
X106162706Y-110205845D01*
X106291652Y-110259257D01*
X106291656Y-110259258D01*
X106446202Y-110289999D01*
X106446206Y-110290000D01*
X106603794Y-110290000D01*
X106603797Y-110289999D01*
X106758343Y-110259258D01*
X106758347Y-110259257D01*
X106887293Y-110205845D01*
X106852601Y-110171153D01*
X125199500Y-110171153D01*
X125199500Y-110328846D01*
X125230261Y-110483489D01*
X125230264Y-110483501D01*
X125290602Y-110629172D01*
X125290609Y-110629185D01*
X125378210Y-110760288D01*
X125378213Y-110760292D01*
X125489707Y-110871786D01*
X125489711Y-110871789D01*
X125620814Y-110959390D01*
X125620827Y-110959397D01*
X125766498Y-111019735D01*
X125766503Y-111019737D01*
X125921153Y-111050499D01*
X125921156Y-111050500D01*
X125921158Y-111050500D01*
X126078844Y-111050500D01*
X126078845Y-111050499D01*
X126233497Y-111019737D01*
X126379179Y-110959394D01*
X126510289Y-110871789D01*
X126621789Y-110760289D01*
X126709394Y-110629179D01*
X126769737Y-110483497D01*
X126800500Y-110328842D01*
X126800500Y-110171158D01*
X126800500Y-110171155D01*
X126800499Y-110171153D01*
X140449500Y-110171153D01*
X140449500Y-110328846D01*
X140480261Y-110483489D01*
X140480264Y-110483501D01*
X140540602Y-110629172D01*
X140540609Y-110629185D01*
X140628210Y-110760288D01*
X140628213Y-110760292D01*
X140739707Y-110871786D01*
X140739711Y-110871789D01*
X140870814Y-110959390D01*
X140870827Y-110959397D01*
X141016498Y-111019735D01*
X141016503Y-111019737D01*
X141171153Y-111050499D01*
X141171156Y-111050500D01*
X141171158Y-111050500D01*
X141328844Y-111050500D01*
X141328845Y-111050499D01*
X141483497Y-111019737D01*
X141629179Y-110959394D01*
X141760289Y-110871789D01*
X141871789Y-110760289D01*
X141959394Y-110629179D01*
X142019737Y-110483497D01*
X142050500Y-110328842D01*
X142050500Y-110171158D01*
X142050500Y-110171155D01*
X142050499Y-110171153D01*
X142019738Y-110016510D01*
X142019737Y-110016503D01*
X142019735Y-110016498D01*
X141959397Y-109870827D01*
X141959390Y-109870814D01*
X141871789Y-109739711D01*
X141871786Y-109739707D01*
X141760292Y-109628213D01*
X141760288Y-109628210D01*
X141629185Y-109540609D01*
X141629172Y-109540602D01*
X141483501Y-109480264D01*
X141483489Y-109480261D01*
X141328845Y-109449500D01*
X141328842Y-109449500D01*
X141171158Y-109449500D01*
X141171155Y-109449500D01*
X141016510Y-109480261D01*
X141016498Y-109480264D01*
X140870827Y-109540602D01*
X140870814Y-109540609D01*
X140739711Y-109628210D01*
X140739707Y-109628213D01*
X140628213Y-109739707D01*
X140628210Y-109739711D01*
X140540609Y-109870814D01*
X140540602Y-109870827D01*
X140480264Y-110016498D01*
X140480261Y-110016510D01*
X140449500Y-110171153D01*
X126800499Y-110171153D01*
X126769738Y-110016510D01*
X126769737Y-110016503D01*
X126769735Y-110016498D01*
X126709397Y-109870827D01*
X126709390Y-109870814D01*
X126621789Y-109739711D01*
X126621786Y-109739707D01*
X126510292Y-109628213D01*
X126510288Y-109628210D01*
X126379185Y-109540609D01*
X126379172Y-109540602D01*
X126233501Y-109480264D01*
X126233489Y-109480261D01*
X126078845Y-109449500D01*
X126078842Y-109449500D01*
X125921158Y-109449500D01*
X125921155Y-109449500D01*
X125766510Y-109480261D01*
X125766498Y-109480264D01*
X125620827Y-109540602D01*
X125620814Y-109540609D01*
X125489711Y-109628210D01*
X125489707Y-109628213D01*
X125378213Y-109739707D01*
X125378210Y-109739711D01*
X125290609Y-109870814D01*
X125290602Y-109870827D01*
X125230264Y-110016498D01*
X125230261Y-110016510D01*
X125199500Y-110171153D01*
X106852601Y-110171153D01*
X106525001Y-109843553D01*
X106525000Y-109843553D01*
X106162706Y-110205845D01*
X105887293Y-110205845D01*
X105525001Y-109843553D01*
X105525000Y-109843553D01*
X105162706Y-110205845D01*
X103000500Y-110205845D01*
X103000500Y-109411202D01*
X104725000Y-109411202D01*
X104725000Y-109568797D01*
X104755741Y-109723343D01*
X104755743Y-109723351D01*
X104809153Y-109852293D01*
X105171446Y-109490001D01*
X105171446Y-109489999D01*
X105141610Y-109460163D01*
X105375000Y-109460163D01*
X105375000Y-109519837D01*
X105397836Y-109574968D01*
X105440032Y-109617164D01*
X105495163Y-109640000D01*
X105554837Y-109640000D01*
X105609968Y-109617164D01*
X105652164Y-109574968D01*
X105675000Y-109519837D01*
X105675000Y-109489999D01*
X105878553Y-109489999D01*
X106025000Y-109636446D01*
X106171446Y-109490001D01*
X106171446Y-109490000D01*
X106141609Y-109460163D01*
X106375000Y-109460163D01*
X106375000Y-109519837D01*
X106397836Y-109574968D01*
X106440032Y-109617164D01*
X106495163Y-109640000D01*
X106554837Y-109640000D01*
X106609968Y-109617164D01*
X106652164Y-109574968D01*
X106675000Y-109519837D01*
X106675000Y-109489999D01*
X106878553Y-109489999D01*
X106878553Y-109490001D01*
X107240845Y-109852293D01*
X107294257Y-109723347D01*
X107294258Y-109723343D01*
X107324999Y-109568797D01*
X107325000Y-109568794D01*
X107325000Y-109411206D01*
X107324999Y-109411202D01*
X107294258Y-109256656D01*
X107294257Y-109256652D01*
X107240845Y-109127706D01*
X106878553Y-109489999D01*
X106675000Y-109489999D01*
X106675000Y-109460163D01*
X106652164Y-109405032D01*
X106609968Y-109362836D01*
X106554837Y-109340000D01*
X106495163Y-109340000D01*
X106440032Y-109362836D01*
X106397836Y-109405032D01*
X106375000Y-109460163D01*
X106141609Y-109460163D01*
X106025000Y-109343553D01*
X105878553Y-109489999D01*
X105675000Y-109489999D01*
X105675000Y-109460163D01*
X105652164Y-109405032D01*
X105609968Y-109362836D01*
X105554837Y-109340000D01*
X105495163Y-109340000D01*
X105440032Y-109362836D01*
X105397836Y-109405032D01*
X105375000Y-109460163D01*
X105141610Y-109460163D01*
X104809153Y-109127705D01*
X104755743Y-109256648D01*
X104755741Y-109256656D01*
X104725000Y-109411202D01*
X103000500Y-109411202D01*
X103000500Y-108705845D01*
X105162705Y-108705845D01*
X105164687Y-108715808D01*
X105164687Y-108764190D01*
X105162705Y-108774153D01*
X105525000Y-109136446D01*
X105525001Y-109136446D01*
X105879864Y-108781580D01*
X105897836Y-108824968D01*
X105940032Y-108867164D01*
X105995163Y-108890000D01*
X106054837Y-108890000D01*
X106109968Y-108867164D01*
X106152164Y-108824968D01*
X106170135Y-108781581D01*
X106525000Y-109136446D01*
X106525001Y-109136446D01*
X106887292Y-108774154D01*
X106885311Y-108764191D01*
X106885311Y-108715806D01*
X106887292Y-108705844D01*
X106525000Y-108343553D01*
X106170134Y-108698416D01*
X106152164Y-108655032D01*
X106109968Y-108612836D01*
X106054837Y-108590000D01*
X105995163Y-108590000D01*
X105940032Y-108612836D01*
X105897836Y-108655032D01*
X105879864Y-108698417D01*
X105525001Y-108343553D01*
X105525000Y-108343553D01*
X105162705Y-108705845D01*
X103000500Y-108705845D01*
X103000500Y-107911202D01*
X104725000Y-107911202D01*
X104725000Y-108068797D01*
X104755741Y-108223343D01*
X104755743Y-108223351D01*
X104809153Y-108352293D01*
X105171446Y-107990001D01*
X105171446Y-107989999D01*
X105141610Y-107960163D01*
X105375000Y-107960163D01*
X105375000Y-108019837D01*
X105397836Y-108074968D01*
X105440032Y-108117164D01*
X105495163Y-108140000D01*
X105554837Y-108140000D01*
X105609968Y-108117164D01*
X105652164Y-108074968D01*
X105675000Y-108019837D01*
X105675000Y-107989999D01*
X105878553Y-107989999D01*
X106025000Y-108136446D01*
X106171446Y-107990001D01*
X106171446Y-107990000D01*
X106141609Y-107960163D01*
X106375000Y-107960163D01*
X106375000Y-108019837D01*
X106397836Y-108074968D01*
X106440032Y-108117164D01*
X106495163Y-108140000D01*
X106554837Y-108140000D01*
X106609968Y-108117164D01*
X106652164Y-108074968D01*
X106675000Y-108019837D01*
X106675000Y-107989999D01*
X106878553Y-107989999D01*
X106878553Y-107990001D01*
X107240845Y-108352293D01*
X107294257Y-108223347D01*
X107294258Y-108223343D01*
X107324999Y-108068797D01*
X107325000Y-108068794D01*
X107325000Y-107911206D01*
X107324999Y-107911202D01*
X107294258Y-107756656D01*
X107294257Y-107756652D01*
X107240845Y-107627706D01*
X106878553Y-107989999D01*
X106675000Y-107989999D01*
X106675000Y-107960163D01*
X106652164Y-107905032D01*
X106609968Y-107862836D01*
X106554837Y-107840000D01*
X106495163Y-107840000D01*
X106440032Y-107862836D01*
X106397836Y-107905032D01*
X106375000Y-107960163D01*
X106141609Y-107960163D01*
X106025000Y-107843553D01*
X105878553Y-107989999D01*
X105675000Y-107989999D01*
X105675000Y-107960163D01*
X105652164Y-107905032D01*
X105609968Y-107862836D01*
X105554837Y-107840000D01*
X105495163Y-107840000D01*
X105440032Y-107862836D01*
X105397836Y-107905032D01*
X105375000Y-107960163D01*
X105141610Y-107960163D01*
X104809153Y-107627705D01*
X104755743Y-107756648D01*
X104755741Y-107756656D01*
X104725000Y-107911202D01*
X103000500Y-107911202D01*
X103000500Y-107274153D01*
X105162705Y-107274153D01*
X105525000Y-107636446D01*
X105525001Y-107636446D01*
X105887293Y-107274153D01*
X106162705Y-107274153D01*
X106525000Y-107636446D01*
X106525001Y-107636446D01*
X106887293Y-107274153D01*
X106758351Y-107220743D01*
X106758343Y-107220741D01*
X106603797Y-107190000D01*
X106446202Y-107190000D01*
X106291656Y-107220741D01*
X106291648Y-107220743D01*
X106162705Y-107274153D01*
X105887293Y-107274153D01*
X105758351Y-107220743D01*
X105758343Y-107220741D01*
X105603797Y-107190000D01*
X105446202Y-107190000D01*
X105291656Y-107220741D01*
X105291648Y-107220743D01*
X105162705Y-107274153D01*
X103000500Y-107274153D01*
X103000500Y-106421153D01*
X118199500Y-106421153D01*
X118199500Y-106578846D01*
X118230261Y-106733489D01*
X118230264Y-106733501D01*
X118290602Y-106879172D01*
X118290609Y-106879185D01*
X118378210Y-107010288D01*
X118378213Y-107010292D01*
X118489707Y-107121786D01*
X118489711Y-107121789D01*
X118620814Y-107209390D01*
X118620827Y-107209397D01*
X118766498Y-107269735D01*
X118766503Y-107269737D01*
X118921153Y-107300499D01*
X118921156Y-107300500D01*
X118921158Y-107300500D01*
X119078844Y-107300500D01*
X119078845Y-107300499D01*
X119233497Y-107269737D01*
X119379179Y-107209394D01*
X119510289Y-107121789D01*
X119621789Y-107010289D01*
X119709394Y-106879179D01*
X119769737Y-106733497D01*
X119800500Y-106578842D01*
X119800500Y-106421158D01*
X119800500Y-106421155D01*
X119800499Y-106421153D01*
X119795852Y-106397790D01*
X119769737Y-106266503D01*
X119760740Y-106244782D01*
X119709397Y-106120827D01*
X119709390Y-106120814D01*
X119621789Y-105989711D01*
X119621786Y-105989707D01*
X119510292Y-105878213D01*
X119510288Y-105878210D01*
X119406193Y-105808655D01*
X133449500Y-105808655D01*
X133449500Y-105966348D01*
X133480261Y-106120991D01*
X133480264Y-106121003D01*
X133540602Y-106266674D01*
X133540609Y-106266687D01*
X133628210Y-106397790D01*
X133628213Y-106397794D01*
X133739707Y-106509288D01*
X133739711Y-106509291D01*
X133870814Y-106596892D01*
X133870827Y-106596899D01*
X134016498Y-106657237D01*
X134016503Y-106657239D01*
X134171153Y-106688001D01*
X134171156Y-106688002D01*
X134171158Y-106688002D01*
X134328844Y-106688002D01*
X134328845Y-106688001D01*
X134483497Y-106657239D01*
X134629179Y-106596896D01*
X134760289Y-106509291D01*
X134871789Y-106397791D01*
X134959394Y-106266681D01*
X135019737Y-106120999D01*
X135050500Y-105966344D01*
X135050500Y-105808660D01*
X135050500Y-105808657D01*
X135050499Y-105808655D01*
X135034905Y-105730261D01*
X135019737Y-105654005D01*
X134965526Y-105523127D01*
X134959397Y-105508329D01*
X134959390Y-105508316D01*
X134905885Y-105428240D01*
X134871789Y-105377213D01*
X134871786Y-105377209D01*
X134860013Y-105365436D01*
X137089500Y-105365436D01*
X137089500Y-105523129D01*
X137120261Y-105677772D01*
X137120264Y-105677784D01*
X137180602Y-105823455D01*
X137180609Y-105823468D01*
X137268210Y-105954571D01*
X137268213Y-105954575D01*
X137379707Y-106066069D01*
X137379711Y-106066072D01*
X137510814Y-106153673D01*
X137510827Y-106153680D01*
X137656498Y-106214018D01*
X137656503Y-106214020D01*
X137811153Y-106244782D01*
X137811156Y-106244783D01*
X137811158Y-106244783D01*
X137968844Y-106244783D01*
X137968845Y-106244782D01*
X138123497Y-106214020D01*
X138269179Y-106153677D01*
X138400289Y-106066072D01*
X138511789Y-105954572D01*
X138599394Y-105823462D01*
X138659737Y-105677780D01*
X138690500Y-105523125D01*
X138690500Y-105365441D01*
X138690500Y-105365438D01*
X138690499Y-105365436D01*
X138672483Y-105274866D01*
X138659737Y-105210786D01*
X138649993Y-105187261D01*
X138599397Y-105065110D01*
X138599390Y-105065097D01*
X138511789Y-104933994D01*
X138511786Y-104933990D01*
X138400292Y-104822496D01*
X138400288Y-104822493D01*
X138269185Y-104734892D01*
X138269172Y-104734885D01*
X138123501Y-104674547D01*
X138123489Y-104674544D01*
X137968845Y-104643783D01*
X137968842Y-104643783D01*
X137811158Y-104643783D01*
X137811155Y-104643783D01*
X137656510Y-104674544D01*
X137656498Y-104674547D01*
X137510827Y-104734885D01*
X137510814Y-104734892D01*
X137379711Y-104822493D01*
X137379707Y-104822496D01*
X137268213Y-104933990D01*
X137268210Y-104933994D01*
X137180609Y-105065097D01*
X137180602Y-105065110D01*
X137120264Y-105210781D01*
X137120261Y-105210793D01*
X137089500Y-105365436D01*
X134860013Y-105365436D01*
X134760292Y-105265715D01*
X134760288Y-105265712D01*
X134629185Y-105178111D01*
X134629172Y-105178104D01*
X134483501Y-105117766D01*
X134483489Y-105117763D01*
X134328845Y-105087002D01*
X134328842Y-105087002D01*
X134171158Y-105087002D01*
X134171155Y-105087002D01*
X134016510Y-105117763D01*
X134016498Y-105117766D01*
X133870827Y-105178104D01*
X133870814Y-105178111D01*
X133739711Y-105265712D01*
X133739707Y-105265715D01*
X133628213Y-105377209D01*
X133628210Y-105377213D01*
X133540609Y-105508316D01*
X133540602Y-105508329D01*
X133480264Y-105654000D01*
X133480261Y-105654012D01*
X133449500Y-105808655D01*
X119406193Y-105808655D01*
X119379185Y-105790609D01*
X119379172Y-105790602D01*
X119233501Y-105730264D01*
X119233489Y-105730261D01*
X119078845Y-105699500D01*
X119078842Y-105699500D01*
X118921158Y-105699500D01*
X118921155Y-105699500D01*
X118766510Y-105730261D01*
X118766498Y-105730264D01*
X118620827Y-105790602D01*
X118620814Y-105790609D01*
X118489711Y-105878210D01*
X118489707Y-105878213D01*
X118378213Y-105989707D01*
X118378210Y-105989711D01*
X118290609Y-106120814D01*
X118290602Y-106120827D01*
X118230264Y-106266498D01*
X118230261Y-106266510D01*
X118199500Y-106421153D01*
X103000500Y-106421153D01*
X103000500Y-104486625D01*
X121714788Y-104486625D01*
X121714788Y-104644318D01*
X121745549Y-104798961D01*
X121745552Y-104798973D01*
X121805890Y-104944644D01*
X121805897Y-104944657D01*
X121893498Y-105075760D01*
X121893501Y-105075764D01*
X122004995Y-105187258D01*
X122004999Y-105187261D01*
X122136102Y-105274862D01*
X122136115Y-105274869D01*
X122281786Y-105335207D01*
X122281791Y-105335209D01*
X122433751Y-105365436D01*
X122436441Y-105365971D01*
X122436444Y-105365972D01*
X122436446Y-105365972D01*
X122594132Y-105365972D01*
X122594133Y-105365971D01*
X122748785Y-105335209D01*
X122894467Y-105274866D01*
X123025577Y-105187261D01*
X123137077Y-105075761D01*
X123224682Y-104944651D01*
X123285025Y-104798969D01*
X123315788Y-104644314D01*
X123315788Y-104486630D01*
X123315788Y-104486627D01*
X123315787Y-104486625D01*
X123285026Y-104331982D01*
X123285025Y-104331975D01*
X123285023Y-104331970D01*
X123224685Y-104186299D01*
X123224678Y-104186286D01*
X123137077Y-104055183D01*
X123137074Y-104055179D01*
X123025580Y-103943685D01*
X123025576Y-103943682D01*
X122894473Y-103856081D01*
X122894460Y-103856074D01*
X122748789Y-103795736D01*
X122748777Y-103795733D01*
X122594133Y-103764972D01*
X122594130Y-103764972D01*
X122436446Y-103764972D01*
X122436443Y-103764972D01*
X122281798Y-103795733D01*
X122281786Y-103795736D01*
X122136115Y-103856074D01*
X122136102Y-103856081D01*
X122004999Y-103943682D01*
X122004995Y-103943685D01*
X121893501Y-104055179D01*
X121893498Y-104055183D01*
X121805897Y-104186286D01*
X121805890Y-104186299D01*
X121745552Y-104331970D01*
X121745549Y-104331982D01*
X121714788Y-104486625D01*
X103000500Y-104486625D01*
X103000500Y-100055804D01*
X121699499Y-100055804D01*
X121699499Y-100213497D01*
X121730260Y-100368140D01*
X121730263Y-100368152D01*
X121790601Y-100513823D01*
X121790608Y-100513836D01*
X121878209Y-100644939D01*
X121878212Y-100644943D01*
X121989706Y-100756437D01*
X121989710Y-100756440D01*
X122120813Y-100844041D01*
X122120826Y-100844048D01*
X122266497Y-100904386D01*
X122266502Y-100904388D01*
X122421152Y-100935150D01*
X122421155Y-100935151D01*
X122421157Y-100935151D01*
X122578843Y-100935151D01*
X122578844Y-100935150D01*
X122733496Y-100904388D01*
X122879178Y-100844045D01*
X123010288Y-100756440D01*
X123121788Y-100644940D01*
X123209393Y-100513830D01*
X123269736Y-100368148D01*
X123300499Y-100213493D01*
X123300499Y-100055809D01*
X123300499Y-100055806D01*
X123278906Y-99947255D01*
X123275305Y-99929150D01*
X136983362Y-99929150D01*
X136983362Y-100086843D01*
X137014123Y-100241486D01*
X137014126Y-100241498D01*
X137074464Y-100387169D01*
X137074471Y-100387182D01*
X137162072Y-100518285D01*
X137162075Y-100518289D01*
X137273569Y-100629783D01*
X137273573Y-100629786D01*
X137404676Y-100717387D01*
X137404689Y-100717394D01*
X137498949Y-100756437D01*
X137550365Y-100777734D01*
X137705015Y-100808496D01*
X137705018Y-100808497D01*
X137705020Y-100808497D01*
X137862706Y-100808497D01*
X137862707Y-100808496D01*
X138017359Y-100777734D01*
X138163041Y-100717391D01*
X138294151Y-100629786D01*
X138405651Y-100518286D01*
X138493256Y-100387176D01*
X138553599Y-100241494D01*
X138584362Y-100086839D01*
X138584362Y-99929155D01*
X138584362Y-99929152D01*
X138584361Y-99929150D01*
X138553600Y-99774507D01*
X138553599Y-99774500D01*
X138545720Y-99755478D01*
X138493259Y-99628824D01*
X138493252Y-99628811D01*
X138405651Y-99497708D01*
X138405648Y-99497704D01*
X138294154Y-99386210D01*
X138294150Y-99386207D01*
X138163047Y-99298606D01*
X138163034Y-99298599D01*
X138017363Y-99238261D01*
X138017351Y-99238258D01*
X137862707Y-99207497D01*
X137862704Y-99207497D01*
X137705020Y-99207497D01*
X137705017Y-99207497D01*
X137550372Y-99238258D01*
X137550360Y-99238261D01*
X137404689Y-99298599D01*
X137404676Y-99298606D01*
X137273573Y-99386207D01*
X137273569Y-99386210D01*
X137162075Y-99497704D01*
X137162072Y-99497708D01*
X137074471Y-99628811D01*
X137074464Y-99628824D01*
X137014126Y-99774495D01*
X137014123Y-99774507D01*
X136983362Y-99929150D01*
X123275305Y-99929150D01*
X123269736Y-99901154D01*
X123269734Y-99901149D01*
X123209396Y-99755478D01*
X123209389Y-99755465D01*
X123121788Y-99624362D01*
X123121785Y-99624358D01*
X123010291Y-99512864D01*
X123010287Y-99512861D01*
X122879184Y-99425260D01*
X122879171Y-99425253D01*
X122733500Y-99364915D01*
X122733488Y-99364912D01*
X122578844Y-99334151D01*
X122578841Y-99334151D01*
X122421157Y-99334151D01*
X122421154Y-99334151D01*
X122266509Y-99364912D01*
X122266497Y-99364915D01*
X122120826Y-99425253D01*
X122120813Y-99425260D01*
X121989710Y-99512861D01*
X121989706Y-99512864D01*
X121878212Y-99624358D01*
X121878209Y-99624362D01*
X121790608Y-99755465D01*
X121790601Y-99755478D01*
X121730263Y-99901149D01*
X121730260Y-99901161D01*
X121699499Y-100055804D01*
X103000500Y-100055804D01*
X103000500Y-94163389D01*
X107324500Y-94163389D01*
X107324500Y-94336610D01*
X107345088Y-94466602D01*
X107351598Y-94507701D01*
X107405127Y-94672445D01*
X107483768Y-94826788D01*
X107585586Y-94966928D01*
X107708072Y-95089414D01*
X107791449Y-95149991D01*
X107834114Y-95205322D01*
X107840093Y-95274935D01*
X107807487Y-95336730D01*
X107791448Y-95350627D01*
X107708404Y-95410961D01*
X107708399Y-95410965D01*
X107585967Y-95533397D01*
X107484195Y-95673475D01*
X107405591Y-95827744D01*
X107352085Y-95992415D01*
X107350884Y-95999999D01*
X107350885Y-96000000D01*
X108419670Y-96000000D01*
X108399925Y-96019745D01*
X108350556Y-96105255D01*
X108325000Y-96200630D01*
X108325000Y-96299370D01*
X108350556Y-96394745D01*
X108399925Y-96480255D01*
X108419670Y-96500000D01*
X107350885Y-96500000D01*
X107352085Y-96507584D01*
X107405591Y-96672255D01*
X107484195Y-96826524D01*
X107585967Y-96966602D01*
X107693565Y-97074200D01*
X107727050Y-97135523D01*
X107722066Y-97205215D01*
X107680194Y-97261148D01*
X107670981Y-97267420D01*
X107606342Y-97307289D01*
X107482289Y-97431342D01*
X107390187Y-97580663D01*
X107390186Y-97580666D01*
X107335001Y-97747203D01*
X107335001Y-97747204D01*
X107335000Y-97747204D01*
X107324500Y-97849983D01*
X107324500Y-98650001D01*
X107324501Y-98650019D01*
X107335000Y-98752796D01*
X107335001Y-98752799D01*
X107390185Y-98919331D01*
X107390187Y-98919336D01*
X107397594Y-98931344D01*
X107482288Y-99068656D01*
X107606344Y-99192712D01*
X107755666Y-99284814D01*
X107922203Y-99339999D01*
X108024991Y-99350500D01*
X109375008Y-99350499D01*
X109477797Y-99339999D01*
X109644334Y-99284814D01*
X109793656Y-99192712D01*
X109917712Y-99068656D01*
X110009814Y-98919334D01*
X110064999Y-98752797D01*
X110075500Y-98650009D01*
X110075499Y-97849992D01*
X110064999Y-97747203D01*
X110009814Y-97580666D01*
X109917712Y-97431344D01*
X109793656Y-97307288D01*
X109793655Y-97307287D01*
X109729019Y-97267420D01*
X109682294Y-97215472D01*
X109671071Y-97146510D01*
X109698914Y-97082428D01*
X109706434Y-97074199D01*
X109814035Y-96966598D01*
X109915804Y-96826524D01*
X109994408Y-96672255D01*
X110047914Y-96507584D01*
X110049115Y-96500000D01*
X108980330Y-96500000D01*
X109000075Y-96480255D01*
X109049444Y-96394745D01*
X109075000Y-96299370D01*
X109075000Y-96200630D01*
X109049444Y-96105255D01*
X109000075Y-96019745D01*
X108980330Y-96000000D01*
X110049115Y-96000000D01*
X110049115Y-95999999D01*
X110047914Y-95992415D01*
X109994407Y-95827740D01*
X109994406Y-95827738D01*
X109936868Y-95714814D01*
X109936866Y-95714812D01*
X109915804Y-95673475D01*
X109908476Y-95663389D01*
X148374500Y-95663389D01*
X148374500Y-95836611D01*
X148401598Y-96007701D01*
X148455127Y-96172445D01*
X148533768Y-96326788D01*
X148635586Y-96466928D01*
X148758072Y-96589414D01*
X148758078Y-96589418D01*
X148841023Y-96649683D01*
X148883689Y-96705013D01*
X148889667Y-96774626D01*
X148857061Y-96836421D01*
X148841023Y-96850317D01*
X148758078Y-96910581D01*
X148758069Y-96910588D01*
X148635588Y-97033069D01*
X148635588Y-97033070D01*
X148635586Y-97033072D01*
X148605705Y-97074200D01*
X148533768Y-97173211D01*
X148455128Y-97327552D01*
X148401597Y-97492302D01*
X148374500Y-97663389D01*
X148374500Y-97836611D01*
X148401598Y-98007701D01*
X148455127Y-98172445D01*
X148533768Y-98326788D01*
X148635586Y-98466928D01*
X148635588Y-98466930D01*
X148743127Y-98574469D01*
X148776612Y-98635792D01*
X148771628Y-98705484D01*
X148729756Y-98761417D01*
X148720544Y-98767688D01*
X148656344Y-98807287D01*
X148532289Y-98931342D01*
X148440187Y-99080663D01*
X148440186Y-99080666D01*
X148385001Y-99247203D01*
X148385001Y-99247204D01*
X148385000Y-99247204D01*
X148374500Y-99349983D01*
X148374500Y-100150001D01*
X148374501Y-100150019D01*
X148385000Y-100252796D01*
X148385001Y-100252799D01*
X148429530Y-100387176D01*
X148440186Y-100419334D01*
X148532288Y-100568656D01*
X148656344Y-100692712D01*
X148805666Y-100784814D01*
X148972203Y-100839999D01*
X149074991Y-100850500D01*
X150425008Y-100850499D01*
X150527797Y-100839999D01*
X150694334Y-100784814D01*
X150843656Y-100692712D01*
X150967712Y-100568656D01*
X151059814Y-100419334D01*
X151114999Y-100252797D01*
X151125500Y-100150009D01*
X151125499Y-99349992D01*
X151114999Y-99247203D01*
X151059814Y-99080666D01*
X150967712Y-98931344D01*
X150843656Y-98807288D01*
X150843652Y-98807285D01*
X150779456Y-98767688D01*
X150732731Y-98715740D01*
X150721510Y-98646777D01*
X150749353Y-98582695D01*
X150756850Y-98574491D01*
X150864414Y-98466928D01*
X150966232Y-98326788D01*
X151044873Y-98172445D01*
X151098402Y-98007701D01*
X151125500Y-97836611D01*
X151125500Y-97663389D01*
X151098402Y-97492299D01*
X151044873Y-97327555D01*
X150966232Y-97173212D01*
X150864414Y-97033072D01*
X150741928Y-96910586D01*
X150658975Y-96850317D01*
X150616311Y-96794988D01*
X150610332Y-96725374D01*
X150642938Y-96663579D01*
X150658976Y-96649682D01*
X150741928Y-96589414D01*
X150864414Y-96466928D01*
X150966232Y-96326788D01*
X151044873Y-96172445D01*
X151098402Y-96007701D01*
X151125500Y-95836611D01*
X151125500Y-95663389D01*
X151098402Y-95492299D01*
X151044873Y-95327555D01*
X150966232Y-95173212D01*
X150864414Y-95033072D01*
X150741928Y-94910586D01*
X150658550Y-94850008D01*
X150615885Y-94794677D01*
X150609906Y-94725064D01*
X150642512Y-94663269D01*
X150658552Y-94649371D01*
X150741598Y-94589036D01*
X150864032Y-94466602D01*
X150965804Y-94326524D01*
X151044408Y-94172255D01*
X151097914Y-94007584D01*
X151099115Y-94000000D01*
X150030330Y-94000000D01*
X150050075Y-93980255D01*
X150099444Y-93894745D01*
X150125000Y-93799370D01*
X150125000Y-93700630D01*
X150099444Y-93605255D01*
X150050075Y-93519745D01*
X150030330Y-93500000D01*
X151099115Y-93500000D01*
X151099115Y-93499999D01*
X151097914Y-93492415D01*
X151044408Y-93327744D01*
X150965804Y-93173475D01*
X150864032Y-93033397D01*
X150741602Y-92910967D01*
X150601524Y-92809195D01*
X150447257Y-92730591D01*
X150282584Y-92677085D01*
X150111571Y-92650000D01*
X150000000Y-92650000D01*
X150000000Y-93469670D01*
X149980255Y-93449925D01*
X149894745Y-93400556D01*
X149799370Y-93375000D01*
X149700630Y-93375000D01*
X149605255Y-93400556D01*
X149519745Y-93449925D01*
X149500000Y-93469670D01*
X149500000Y-92650000D01*
X149388429Y-92650000D01*
X149217415Y-92677085D01*
X149052742Y-92730591D01*
X148898475Y-92809195D01*
X148758397Y-92910967D01*
X148635967Y-93033397D01*
X148534195Y-93173475D01*
X148455591Y-93327744D01*
X148402085Y-93492415D01*
X148400884Y-93499999D01*
X148400885Y-93500000D01*
X149469670Y-93500000D01*
X149449925Y-93519745D01*
X149400556Y-93605255D01*
X149375000Y-93700630D01*
X149375000Y-93799370D01*
X149400556Y-93894745D01*
X149449925Y-93980255D01*
X149469670Y-94000000D01*
X148400885Y-94000000D01*
X148402085Y-94007584D01*
X148455591Y-94172255D01*
X148534195Y-94326524D01*
X148635967Y-94466602D01*
X148758401Y-94589036D01*
X148841447Y-94649371D01*
X148884114Y-94704701D01*
X148890093Y-94774314D01*
X148857488Y-94836109D01*
X148841450Y-94850007D01*
X148758072Y-94910585D01*
X148635588Y-95033069D01*
X148635588Y-95033070D01*
X148635586Y-95033072D01*
X148594653Y-95089411D01*
X148533768Y-95173211D01*
X148455128Y-95327552D01*
X148401597Y-95492302D01*
X148374500Y-95663389D01*
X109908476Y-95663389D01*
X109814032Y-95533397D01*
X109691602Y-95410967D01*
X109608551Y-95350628D01*
X109565885Y-95295298D01*
X109559906Y-95225685D01*
X109592511Y-95163889D01*
X109608551Y-95149991D01*
X109691928Y-95089414D01*
X109814414Y-94966928D01*
X109916232Y-94826788D01*
X109994873Y-94672445D01*
X110048402Y-94507701D01*
X110075500Y-94336611D01*
X110075500Y-94163389D01*
X110048402Y-93992299D01*
X109994873Y-93827555D01*
X109916232Y-93673212D01*
X109814414Y-93533072D01*
X109691928Y-93410586D01*
X109551788Y-93308768D01*
X109397445Y-93230127D01*
X109232701Y-93176598D01*
X109232699Y-93176597D01*
X109232698Y-93176597D01*
X109101271Y-93155781D01*
X109061611Y-93149500D01*
X108338389Y-93149500D01*
X108298728Y-93155781D01*
X108167302Y-93176597D01*
X108002552Y-93230128D01*
X107848211Y-93308768D01*
X107768256Y-93366859D01*
X107708072Y-93410586D01*
X107708070Y-93410588D01*
X107708069Y-93410588D01*
X107585588Y-93533069D01*
X107585588Y-93533070D01*
X107585586Y-93533072D01*
X107541859Y-93593256D01*
X107483768Y-93673211D01*
X107405128Y-93827552D01*
X107351597Y-93992302D01*
X107324500Y-94163389D01*
X103000500Y-94163389D01*
X103000500Y-91171153D01*
X125949500Y-91171153D01*
X125949500Y-91328846D01*
X125980261Y-91483489D01*
X125980264Y-91483501D01*
X126040602Y-91629172D01*
X126040609Y-91629185D01*
X126128210Y-91760288D01*
X126128213Y-91760292D01*
X126239707Y-91871786D01*
X126239711Y-91871789D01*
X126370814Y-91959390D01*
X126370827Y-91959397D01*
X126516498Y-92019735D01*
X126516503Y-92019737D01*
X126671153Y-92050499D01*
X126671156Y-92050500D01*
X126671158Y-92050500D01*
X126828844Y-92050500D01*
X126828845Y-92050499D01*
X126983497Y-92019737D01*
X127129179Y-91959394D01*
X127260289Y-91871789D01*
X127371789Y-91760289D01*
X127459394Y-91629179D01*
X127519737Y-91483497D01*
X127550500Y-91328842D01*
X127550500Y-91171158D01*
X127550500Y-91171155D01*
X127550499Y-91171153D01*
X127536851Y-91102540D01*
X127519737Y-91016503D01*
X127490056Y-90944847D01*
X130591822Y-90944847D01*
X130591822Y-91102540D01*
X130622583Y-91257183D01*
X130622586Y-91257195D01*
X130682924Y-91402866D01*
X130682931Y-91402879D01*
X130770532Y-91533982D01*
X130770535Y-91533986D01*
X130882029Y-91645480D01*
X130882033Y-91645483D01*
X131013136Y-91733084D01*
X131013149Y-91733091D01*
X131158820Y-91793429D01*
X131158825Y-91793431D01*
X131313475Y-91824193D01*
X131313478Y-91824194D01*
X131313480Y-91824194D01*
X131471166Y-91824194D01*
X131471167Y-91824193D01*
X131625819Y-91793431D01*
X131771501Y-91733088D01*
X131902611Y-91645483D01*
X132014111Y-91533983D01*
X132101716Y-91402873D01*
X132162059Y-91257191D01*
X132192822Y-91102536D01*
X132192822Y-90944852D01*
X132192822Y-90944849D01*
X132192821Y-90944847D01*
X132166541Y-90812730D01*
X132162059Y-90790197D01*
X132117084Y-90681617D01*
X132101719Y-90644521D01*
X132101712Y-90644508D01*
X132014111Y-90513405D01*
X132014108Y-90513401D01*
X131902614Y-90401907D01*
X131902610Y-90401904D01*
X131771507Y-90314303D01*
X131771494Y-90314296D01*
X131625823Y-90253958D01*
X131625811Y-90253955D01*
X131471167Y-90223194D01*
X131471164Y-90223194D01*
X131313480Y-90223194D01*
X131313477Y-90223194D01*
X131158832Y-90253955D01*
X131158820Y-90253958D01*
X131013149Y-90314296D01*
X131013136Y-90314303D01*
X130882033Y-90401904D01*
X130882029Y-90401907D01*
X130770535Y-90513401D01*
X130770532Y-90513405D01*
X130682931Y-90644508D01*
X130682924Y-90644521D01*
X130622586Y-90790192D01*
X130622583Y-90790204D01*
X130591822Y-90944847D01*
X127490056Y-90944847D01*
X127481514Y-90924224D01*
X127459397Y-90870826D01*
X127459390Y-90870814D01*
X127371789Y-90739711D01*
X127371786Y-90739707D01*
X127260292Y-90628213D01*
X127260288Y-90628210D01*
X127129185Y-90540609D01*
X127129172Y-90540602D01*
X126983501Y-90480264D01*
X126983489Y-90480261D01*
X126828845Y-90449500D01*
X126828842Y-90449500D01*
X126671158Y-90449500D01*
X126671155Y-90449500D01*
X126516510Y-90480261D01*
X126516498Y-90480264D01*
X126370827Y-90540602D01*
X126370814Y-90540609D01*
X126239711Y-90628210D01*
X126239707Y-90628213D01*
X126128213Y-90739707D01*
X126128210Y-90739711D01*
X126040609Y-90870814D01*
X126040602Y-90870827D01*
X125980264Y-91016498D01*
X125980261Y-91016510D01*
X125949500Y-91171153D01*
X103000500Y-91171153D01*
X103000500Y-90223591D01*
X123916991Y-90223591D01*
X123916991Y-90381284D01*
X123947752Y-90535927D01*
X123947755Y-90535939D01*
X124008093Y-90681610D01*
X124008100Y-90681623D01*
X124095701Y-90812726D01*
X124095704Y-90812730D01*
X124207198Y-90924224D01*
X124207202Y-90924227D01*
X124338305Y-91011828D01*
X124338318Y-91011835D01*
X124483989Y-91072173D01*
X124483994Y-91072175D01*
X124636628Y-91102536D01*
X124638644Y-91102937D01*
X124638647Y-91102938D01*
X124638649Y-91102938D01*
X124796335Y-91102938D01*
X124796336Y-91102937D01*
X124950988Y-91072175D01*
X124981478Y-91059545D01*
X125003305Y-91050505D01*
X125096663Y-91011835D01*
X125096663Y-91011834D01*
X125096670Y-91011832D01*
X125227780Y-90924227D01*
X125339280Y-90812727D01*
X125426885Y-90681617D01*
X125487228Y-90535935D01*
X125517991Y-90381280D01*
X125517991Y-90223596D01*
X125517991Y-90223593D01*
X125517990Y-90223591D01*
X125487229Y-90068948D01*
X125487228Y-90068941D01*
X125466847Y-90019737D01*
X125426888Y-89923265D01*
X125426881Y-89923252D01*
X125339280Y-89792149D01*
X125339277Y-89792145D01*
X125227783Y-89680651D01*
X125227779Y-89680648D01*
X125096676Y-89593047D01*
X125096663Y-89593040D01*
X125077145Y-89584956D01*
X125022741Y-89541115D01*
X125000676Y-89474821D01*
X125017955Y-89407122D01*
X125069092Y-89359511D01*
X125124597Y-89346395D01*
X125170107Y-89346395D01*
X125170108Y-89346394D01*
X125324760Y-89315632D01*
X125470442Y-89255289D01*
X125596360Y-89171153D01*
X131449500Y-89171153D01*
X131449500Y-89328846D01*
X131480261Y-89483489D01*
X131480264Y-89483501D01*
X131540602Y-89629172D01*
X131540609Y-89629185D01*
X131628210Y-89760288D01*
X131628213Y-89760292D01*
X131739707Y-89871786D01*
X131739711Y-89871789D01*
X131870814Y-89959390D01*
X131870827Y-89959397D01*
X132016498Y-90019735D01*
X132016503Y-90019737D01*
X132171153Y-90050499D01*
X132171156Y-90050500D01*
X132171158Y-90050500D01*
X132328844Y-90050500D01*
X132328845Y-90050499D01*
X132483497Y-90019737D01*
X132629179Y-89959394D01*
X132760289Y-89871789D01*
X132871789Y-89760289D01*
X132959394Y-89629179D01*
X133019737Y-89483497D01*
X133050500Y-89328842D01*
X133050500Y-89171158D01*
X133050500Y-89171155D01*
X133050499Y-89171153D01*
X133030111Y-89068656D01*
X133019737Y-89016503D01*
X132981869Y-88925080D01*
X132959397Y-88870827D01*
X132959390Y-88870814D01*
X132871789Y-88739711D01*
X132871786Y-88739707D01*
X132760292Y-88628213D01*
X132760288Y-88628210D01*
X132629185Y-88540609D01*
X132629172Y-88540602D01*
X132483501Y-88480264D01*
X132483489Y-88480261D01*
X132328845Y-88449500D01*
X132328842Y-88449500D01*
X132171158Y-88449500D01*
X132171155Y-88449500D01*
X132016510Y-88480261D01*
X132016498Y-88480264D01*
X131870827Y-88540602D01*
X131870814Y-88540609D01*
X131739711Y-88628210D01*
X131739707Y-88628213D01*
X131628213Y-88739707D01*
X131628210Y-88739711D01*
X131540609Y-88870814D01*
X131540602Y-88870827D01*
X131480264Y-89016498D01*
X131480261Y-89016510D01*
X131449500Y-89171153D01*
X125596360Y-89171153D01*
X125601552Y-89167684D01*
X125601555Y-89167681D01*
X125691852Y-89077385D01*
X125713049Y-89056187D01*
X125713052Y-89056184D01*
X125800657Y-88925074D01*
X125861000Y-88779392D01*
X125891763Y-88624737D01*
X125891763Y-88467053D01*
X125891763Y-88467050D01*
X125891762Y-88467048D01*
X125861001Y-88312405D01*
X125861000Y-88312398D01*
X125860998Y-88312393D01*
X125800660Y-88166722D01*
X125800653Y-88166709D01*
X125713052Y-88035606D01*
X125713049Y-88035602D01*
X125601555Y-87924108D01*
X125601551Y-87924105D01*
X125470448Y-87836504D01*
X125470435Y-87836497D01*
X125324764Y-87776159D01*
X125324752Y-87776156D01*
X125170108Y-87745395D01*
X125170105Y-87745395D01*
X125012421Y-87745395D01*
X125012418Y-87745395D01*
X124857773Y-87776156D01*
X124857761Y-87776159D01*
X124712090Y-87836497D01*
X124712077Y-87836504D01*
X124580974Y-87924105D01*
X124580970Y-87924108D01*
X124469476Y-88035602D01*
X124469473Y-88035606D01*
X124381872Y-88166709D01*
X124381865Y-88166722D01*
X124321527Y-88312393D01*
X124321524Y-88312405D01*
X124290763Y-88467048D01*
X124290763Y-88624741D01*
X124321524Y-88779384D01*
X124321527Y-88779396D01*
X124381865Y-88925067D01*
X124381872Y-88925080D01*
X124469473Y-89056183D01*
X124469476Y-89056187D01*
X124580970Y-89167681D01*
X124580974Y-89167684D01*
X124712077Y-89255285D01*
X124712090Y-89255292D01*
X124731609Y-89263377D01*
X124786013Y-89307218D01*
X124808078Y-89373512D01*
X124790799Y-89441211D01*
X124739662Y-89488822D01*
X124684157Y-89501938D01*
X124638646Y-89501938D01*
X124484001Y-89532699D01*
X124483989Y-89532702D01*
X124338318Y-89593040D01*
X124338305Y-89593047D01*
X124207202Y-89680648D01*
X124207198Y-89680651D01*
X124095704Y-89792145D01*
X124095701Y-89792149D01*
X124008100Y-89923252D01*
X124008093Y-89923265D01*
X123947755Y-90068936D01*
X123947752Y-90068948D01*
X123916991Y-90223591D01*
X103000500Y-90223591D01*
X103000500Y-85413389D01*
X107324500Y-85413389D01*
X107324500Y-85586611D01*
X107351598Y-85757701D01*
X107405127Y-85922445D01*
X107483768Y-86076788D01*
X107585586Y-86216928D01*
X107585588Y-86216930D01*
X107693491Y-86324833D01*
X107726976Y-86386156D01*
X107721992Y-86455848D01*
X107680120Y-86511781D01*
X107670907Y-86518053D01*
X107606654Y-86557684D01*
X107482684Y-86681654D01*
X107390643Y-86830875D01*
X107390641Y-86830880D01*
X107335494Y-86997302D01*
X107335493Y-86997309D01*
X107325000Y-87100013D01*
X107325000Y-87250000D01*
X108419670Y-87250000D01*
X108399925Y-87269745D01*
X108350556Y-87355255D01*
X108325000Y-87450630D01*
X108325000Y-87549370D01*
X108350556Y-87644745D01*
X108399925Y-87730255D01*
X108419670Y-87750000D01*
X107325001Y-87750000D01*
X107325001Y-87899986D01*
X107335494Y-88002697D01*
X107390641Y-88169119D01*
X107390643Y-88169124D01*
X107482684Y-88318345D01*
X107606654Y-88442315D01*
X107755875Y-88534356D01*
X107755880Y-88534358D01*
X107922302Y-88589505D01*
X107922309Y-88589506D01*
X108025019Y-88599999D01*
X108449999Y-88599999D01*
X108450000Y-88599998D01*
X108450000Y-87780330D01*
X108469745Y-87800075D01*
X108555255Y-87849444D01*
X108650630Y-87875000D01*
X108749370Y-87875000D01*
X108844745Y-87849444D01*
X108930255Y-87800075D01*
X108950000Y-87780330D01*
X108950000Y-88599999D01*
X109374972Y-88599999D01*
X109374986Y-88599998D01*
X109477697Y-88589505D01*
X109644119Y-88534358D01*
X109644124Y-88534356D01*
X109793345Y-88442315D01*
X109917315Y-88318345D01*
X110009356Y-88169124D01*
X110009358Y-88169119D01*
X110064505Y-88002697D01*
X110064506Y-88002690D01*
X110074999Y-87899986D01*
X110075000Y-87899973D01*
X110075000Y-87750000D01*
X108980330Y-87750000D01*
X109000075Y-87730255D01*
X109049444Y-87644745D01*
X109075000Y-87549370D01*
X109075000Y-87450630D01*
X109049444Y-87355255D01*
X109000075Y-87269745D01*
X108980330Y-87250000D01*
X110074999Y-87250000D01*
X110074999Y-87100028D01*
X110074998Y-87100013D01*
X110064505Y-86997302D01*
X110009358Y-86830880D01*
X110009356Y-86830875D01*
X109917315Y-86681654D01*
X109793343Y-86557682D01*
X109729093Y-86518053D01*
X109682368Y-86466105D01*
X109671145Y-86397143D01*
X109698988Y-86333061D01*
X109706486Y-86324855D01*
X109814414Y-86216928D01*
X109853312Y-86163389D01*
X148324500Y-86163389D01*
X148324500Y-86336611D01*
X148351598Y-86507701D01*
X148405127Y-86672445D01*
X148483768Y-86826788D01*
X148585586Y-86966928D01*
X148585588Y-86966930D01*
X148693127Y-87074469D01*
X148726612Y-87135792D01*
X148721628Y-87205484D01*
X148679756Y-87261417D01*
X148670544Y-87267688D01*
X148606344Y-87307287D01*
X148482289Y-87431342D01*
X148390187Y-87580663D01*
X148390186Y-87580666D01*
X148335001Y-87747203D01*
X148335001Y-87747204D01*
X148335000Y-87747204D01*
X148324500Y-87849983D01*
X148324500Y-88650001D01*
X148324501Y-88650019D01*
X148335000Y-88752796D01*
X148335001Y-88752799D01*
X148374108Y-88870814D01*
X148390186Y-88919334D01*
X148482288Y-89068656D01*
X148606344Y-89192712D01*
X148755666Y-89284814D01*
X148922203Y-89339999D01*
X149024991Y-89350500D01*
X150375008Y-89350499D01*
X150477797Y-89339999D01*
X150644334Y-89284814D01*
X150793656Y-89192712D01*
X150917712Y-89068656D01*
X151009814Y-88919334D01*
X151064999Y-88752797D01*
X151075500Y-88650009D01*
X151075499Y-87849992D01*
X151074120Y-87836497D01*
X151064999Y-87747203D01*
X151064998Y-87747200D01*
X151059383Y-87730255D01*
X151009814Y-87580666D01*
X150917712Y-87431344D01*
X150793656Y-87307288D01*
X150793652Y-87307285D01*
X150729456Y-87267688D01*
X150682731Y-87215740D01*
X150671510Y-87146777D01*
X150699353Y-87082695D01*
X150706850Y-87074491D01*
X150814414Y-86966928D01*
X150916232Y-86826788D01*
X150994873Y-86672445D01*
X151048402Y-86507701D01*
X151075500Y-86336611D01*
X151075500Y-86163389D01*
X151048402Y-85992299D01*
X150994873Y-85827555D01*
X150916232Y-85673212D01*
X150814414Y-85533072D01*
X150691928Y-85410586D01*
X150608550Y-85350008D01*
X150565885Y-85294677D01*
X150559906Y-85225064D01*
X150592512Y-85163269D01*
X150608552Y-85149371D01*
X150691598Y-85089036D01*
X150814032Y-84966602D01*
X150915804Y-84826524D01*
X150994408Y-84672255D01*
X151047914Y-84507584D01*
X151049115Y-84500000D01*
X149980330Y-84500000D01*
X150000075Y-84480255D01*
X150049444Y-84394745D01*
X150075000Y-84299370D01*
X150075000Y-84200630D01*
X150049444Y-84105255D01*
X150000075Y-84019745D01*
X149980330Y-84000000D01*
X151049115Y-84000000D01*
X151049115Y-83999999D01*
X151047914Y-83992415D01*
X150994408Y-83827744D01*
X150915804Y-83673475D01*
X150814032Y-83533397D01*
X150691602Y-83410967D01*
X150551524Y-83309195D01*
X150397257Y-83230591D01*
X150232584Y-83177085D01*
X150061571Y-83150000D01*
X149950000Y-83150000D01*
X149950000Y-83969670D01*
X149930255Y-83949925D01*
X149844745Y-83900556D01*
X149749370Y-83875000D01*
X149650630Y-83875000D01*
X149555255Y-83900556D01*
X149469745Y-83949925D01*
X149450000Y-83969670D01*
X149450000Y-83150000D01*
X149338429Y-83150000D01*
X149167415Y-83177085D01*
X149002742Y-83230591D01*
X148848475Y-83309195D01*
X148708397Y-83410967D01*
X148585967Y-83533397D01*
X148484195Y-83673475D01*
X148405591Y-83827744D01*
X148352085Y-83992415D01*
X148350884Y-83999999D01*
X148350885Y-84000000D01*
X149419670Y-84000000D01*
X149399925Y-84019745D01*
X149350556Y-84105255D01*
X149325000Y-84200630D01*
X149325000Y-84299370D01*
X149350556Y-84394745D01*
X149399925Y-84480255D01*
X149419670Y-84500000D01*
X148350885Y-84500000D01*
X148352085Y-84507584D01*
X148405591Y-84672255D01*
X148484195Y-84826524D01*
X148585967Y-84966602D01*
X148708401Y-85089036D01*
X148791447Y-85149371D01*
X148834114Y-85204701D01*
X148840093Y-85274314D01*
X148807488Y-85336109D01*
X148791450Y-85350007D01*
X148708072Y-85410585D01*
X148585588Y-85533069D01*
X148585588Y-85533070D01*
X148585586Y-85533072D01*
X148546688Y-85586610D01*
X148483768Y-85673211D01*
X148405128Y-85827552D01*
X148351597Y-85992302D01*
X148324500Y-86163389D01*
X109853312Y-86163389D01*
X109916232Y-86076788D01*
X109994873Y-85922445D01*
X110048402Y-85757701D01*
X110075500Y-85586611D01*
X110075500Y-85413389D01*
X110048402Y-85242299D01*
X109994873Y-85077555D01*
X109916232Y-84923212D01*
X109814414Y-84783072D01*
X109708718Y-84677376D01*
X127898500Y-84677376D01*
X127898500Y-84835069D01*
X127929261Y-84989712D01*
X127929264Y-84989724D01*
X127989602Y-85135395D01*
X127989609Y-85135408D01*
X128077210Y-85266511D01*
X128077213Y-85266515D01*
X128188707Y-85378009D01*
X128188711Y-85378012D01*
X128319814Y-85465613D01*
X128319827Y-85465620D01*
X128465498Y-85525958D01*
X128465503Y-85525960D01*
X128620153Y-85556722D01*
X128620156Y-85556723D01*
X128620158Y-85556723D01*
X128777844Y-85556723D01*
X128777845Y-85556722D01*
X128932497Y-85525960D01*
X129078179Y-85465617D01*
X129209289Y-85378012D01*
X129320789Y-85266512D01*
X129408394Y-85135402D01*
X129468737Y-84989720D01*
X129499500Y-84835065D01*
X129499500Y-84835061D01*
X129499602Y-84834027D01*
X129499809Y-84833513D01*
X129500689Y-84829091D01*
X129501527Y-84829257D01*
X129525755Y-84769236D01*
X129575552Y-84731606D01*
X129629179Y-84709394D01*
X129760289Y-84621789D01*
X129871789Y-84510289D01*
X129959394Y-84379179D01*
X130019737Y-84233497D01*
X130050500Y-84078842D01*
X130050500Y-83921158D01*
X130050500Y-83921155D01*
X130050499Y-83921153D01*
X130046402Y-83900556D01*
X130019737Y-83766503D01*
X129981204Y-83673475D01*
X129959397Y-83620827D01*
X129959390Y-83620814D01*
X129871789Y-83489711D01*
X129871786Y-83489707D01*
X129760292Y-83378213D01*
X129760288Y-83378210D01*
X129629185Y-83290609D01*
X129629172Y-83290602D01*
X129483501Y-83230264D01*
X129483489Y-83230261D01*
X129328845Y-83199500D01*
X129328842Y-83199500D01*
X129171158Y-83199500D01*
X129171155Y-83199500D01*
X129016510Y-83230261D01*
X129016498Y-83230264D01*
X128870827Y-83290602D01*
X128870814Y-83290609D01*
X128739711Y-83378210D01*
X128739707Y-83378213D01*
X128628213Y-83489707D01*
X128628210Y-83489711D01*
X128540609Y-83620814D01*
X128540602Y-83620827D01*
X128480264Y-83766498D01*
X128480261Y-83766510D01*
X128449498Y-83921159D01*
X128449395Y-83922215D01*
X128449186Y-83922731D01*
X128448311Y-83927132D01*
X128447476Y-83926965D01*
X128423232Y-83987001D01*
X128373447Y-84024616D01*
X128319821Y-84046829D01*
X128319814Y-84046832D01*
X128188711Y-84134433D01*
X128188707Y-84134436D01*
X128077213Y-84245930D01*
X128077210Y-84245934D01*
X127989609Y-84377037D01*
X127989602Y-84377050D01*
X127929264Y-84522721D01*
X127929261Y-84522733D01*
X127898500Y-84677376D01*
X109708718Y-84677376D01*
X109691928Y-84660586D01*
X109551788Y-84558768D01*
X109397445Y-84480127D01*
X109232701Y-84426598D01*
X109232699Y-84426597D01*
X109232698Y-84426597D01*
X109101271Y-84405781D01*
X109061611Y-84399500D01*
X108338389Y-84399500D01*
X108298728Y-84405781D01*
X108167302Y-84426597D01*
X108002552Y-84480128D01*
X107848211Y-84558768D01*
X107792226Y-84599444D01*
X107708072Y-84660586D01*
X107708070Y-84660588D01*
X107708069Y-84660588D01*
X107585588Y-84783069D01*
X107585588Y-84783070D01*
X107585586Y-84783072D01*
X107554016Y-84826524D01*
X107483768Y-84923211D01*
X107405128Y-85077552D01*
X107405127Y-85077554D01*
X107405127Y-85077555D01*
X107386331Y-85135402D01*
X107351597Y-85242302D01*
X107330104Y-85378009D01*
X107324500Y-85413389D01*
X103000500Y-85413389D01*
X103000500Y-81921153D01*
X136449500Y-81921153D01*
X136449500Y-82078846D01*
X136480261Y-82233489D01*
X136480264Y-82233501D01*
X136540602Y-82379172D01*
X136540609Y-82379185D01*
X136628210Y-82510288D01*
X136628213Y-82510292D01*
X136739707Y-82621786D01*
X136739711Y-82621789D01*
X136870814Y-82709390D01*
X136870827Y-82709397D01*
X137016498Y-82769735D01*
X137016503Y-82769737D01*
X137171153Y-82800499D01*
X137171156Y-82800500D01*
X137171158Y-82800500D01*
X137328844Y-82800500D01*
X137328845Y-82800499D01*
X137483497Y-82769737D01*
X137629179Y-82709394D01*
X137760289Y-82621789D01*
X137871789Y-82510289D01*
X137959394Y-82379179D01*
X138019737Y-82233497D01*
X138050500Y-82078842D01*
X138050500Y-81921158D01*
X138050500Y-81921155D01*
X138050499Y-81921153D01*
X138019738Y-81766510D01*
X138019737Y-81766503D01*
X138019735Y-81766498D01*
X137959397Y-81620827D01*
X137959390Y-81620814D01*
X137871789Y-81489711D01*
X137871786Y-81489707D01*
X137760292Y-81378213D01*
X137760288Y-81378210D01*
X137629185Y-81290609D01*
X137629172Y-81290602D01*
X137483501Y-81230264D01*
X137483489Y-81230261D01*
X137328845Y-81199500D01*
X137328842Y-81199500D01*
X137171158Y-81199500D01*
X137171155Y-81199500D01*
X137016510Y-81230261D01*
X137016498Y-81230264D01*
X136870827Y-81290602D01*
X136870814Y-81290609D01*
X136739711Y-81378210D01*
X136739707Y-81378213D01*
X136628213Y-81489707D01*
X136628210Y-81489711D01*
X136540609Y-81620814D01*
X136540602Y-81620827D01*
X136480264Y-81766498D01*
X136480261Y-81766510D01*
X136449500Y-81921153D01*
X103000500Y-81921153D01*
X103000500Y-80421153D01*
X140199500Y-80421153D01*
X140199500Y-80578846D01*
X140230261Y-80733489D01*
X140230264Y-80733501D01*
X140290602Y-80879172D01*
X140290609Y-80879185D01*
X140378210Y-81010288D01*
X140378213Y-81010292D01*
X140489707Y-81121786D01*
X140489711Y-81121789D01*
X140620814Y-81209390D01*
X140620827Y-81209397D01*
X140766498Y-81269735D01*
X140766503Y-81269737D01*
X140921153Y-81300499D01*
X140921156Y-81300500D01*
X140921158Y-81300500D01*
X141078844Y-81300500D01*
X141078845Y-81300499D01*
X141233497Y-81269737D01*
X141379179Y-81209394D01*
X141510289Y-81121789D01*
X141621789Y-81010289D01*
X141709394Y-80879179D01*
X141769737Y-80733497D01*
X141800500Y-80578842D01*
X141800500Y-80421158D01*
X141800500Y-80421155D01*
X141800499Y-80421153D01*
X141769738Y-80266510D01*
X141769737Y-80266503D01*
X141769735Y-80266498D01*
X141709397Y-80120827D01*
X141709390Y-80120814D01*
X141621789Y-79989711D01*
X141621786Y-79989707D01*
X141510292Y-79878213D01*
X141510288Y-79878210D01*
X141379185Y-79790609D01*
X141379172Y-79790602D01*
X141233501Y-79730264D01*
X141233489Y-79730261D01*
X141078845Y-79699500D01*
X141078842Y-79699500D01*
X140921158Y-79699500D01*
X140921155Y-79699500D01*
X140766510Y-79730261D01*
X140766498Y-79730264D01*
X140620827Y-79790602D01*
X140620814Y-79790609D01*
X140489711Y-79878210D01*
X140489707Y-79878213D01*
X140378213Y-79989707D01*
X140378210Y-79989711D01*
X140290609Y-80120814D01*
X140290602Y-80120827D01*
X140230264Y-80266498D01*
X140230261Y-80266510D01*
X140199500Y-80421153D01*
X103000500Y-80421153D01*
X103000500Y-78128711D01*
X104149500Y-78128711D01*
X104149500Y-78371288D01*
X104181161Y-78611785D01*
X104243947Y-78846104D01*
X104336773Y-79070205D01*
X104336776Y-79070212D01*
X104458064Y-79280289D01*
X104458066Y-79280292D01*
X104458067Y-79280293D01*
X104605733Y-79472736D01*
X104605739Y-79472743D01*
X104777256Y-79644260D01*
X104777262Y-79644265D01*
X104969711Y-79791936D01*
X105179788Y-79913224D01*
X105403900Y-80006054D01*
X105638211Y-80068838D01*
X105818586Y-80092584D01*
X105878711Y-80100500D01*
X105878712Y-80100500D01*
X106121289Y-80100500D01*
X106169388Y-80094167D01*
X106361789Y-80068838D01*
X106596100Y-80006054D01*
X106820212Y-79913224D01*
X107030289Y-79791936D01*
X107222738Y-79644265D01*
X107394265Y-79472738D01*
X107541936Y-79280289D01*
X107663224Y-79070212D01*
X107756054Y-78846100D01*
X107818838Y-78611789D01*
X107850500Y-78371288D01*
X107850500Y-78128712D01*
X107850500Y-78128711D01*
X151649500Y-78128711D01*
X151649500Y-78371288D01*
X151681161Y-78611785D01*
X151743947Y-78846104D01*
X151836773Y-79070205D01*
X151836776Y-79070212D01*
X151958064Y-79280289D01*
X151958066Y-79280292D01*
X151958067Y-79280293D01*
X152105733Y-79472736D01*
X152105739Y-79472743D01*
X152277256Y-79644260D01*
X152277262Y-79644265D01*
X152469711Y-79791936D01*
X152679788Y-79913224D01*
X152903900Y-80006054D01*
X153138211Y-80068838D01*
X153318586Y-80092584D01*
X153378711Y-80100500D01*
X153378712Y-80100500D01*
X153621289Y-80100500D01*
X153669388Y-80094167D01*
X153861789Y-80068838D01*
X154096100Y-80006054D01*
X154320212Y-79913224D01*
X154530289Y-79791936D01*
X154722738Y-79644265D01*
X154894265Y-79472738D01*
X155041936Y-79280289D01*
X155163224Y-79070212D01*
X155256054Y-78846100D01*
X155318838Y-78611789D01*
X155350500Y-78371288D01*
X155350500Y-78128712D01*
X155318838Y-77888211D01*
X155256054Y-77653900D01*
X155163224Y-77429788D01*
X155041936Y-77219711D01*
X154894265Y-77027262D01*
X154894260Y-77027256D01*
X154722743Y-76855739D01*
X154722736Y-76855733D01*
X154530293Y-76708067D01*
X154530292Y-76708066D01*
X154530289Y-76708064D01*
X154334912Y-76595263D01*
X154320214Y-76586777D01*
X154320205Y-76586773D01*
X154096104Y-76493947D01*
X153861785Y-76431161D01*
X153621289Y-76399500D01*
X153621288Y-76399500D01*
X153378712Y-76399500D01*
X153378711Y-76399500D01*
X153138214Y-76431161D01*
X152903895Y-76493947D01*
X152679794Y-76586773D01*
X152679785Y-76586777D01*
X152469706Y-76708067D01*
X152277263Y-76855733D01*
X152277256Y-76855739D01*
X152105739Y-77027256D01*
X152105733Y-77027263D01*
X151958067Y-77219706D01*
X151836777Y-77429785D01*
X151836773Y-77429794D01*
X151743947Y-77653895D01*
X151681161Y-77888214D01*
X151649500Y-78128711D01*
X107850500Y-78128711D01*
X107818838Y-77888211D01*
X107756054Y-77653900D01*
X107663224Y-77429788D01*
X107541936Y-77219711D01*
X107394265Y-77027262D01*
X107394260Y-77027256D01*
X107222743Y-76855739D01*
X107222736Y-76855733D01*
X107030293Y-76708067D01*
X107030292Y-76708066D01*
X107030289Y-76708064D01*
X106834912Y-76595263D01*
X106820214Y-76586777D01*
X106820205Y-76586773D01*
X106596104Y-76493947D01*
X106361785Y-76431161D01*
X106121289Y-76399500D01*
X106121288Y-76399500D01*
X105878712Y-76399500D01*
X105878711Y-76399500D01*
X105638214Y-76431161D01*
X105403895Y-76493947D01*
X105179794Y-76586773D01*
X105179785Y-76586777D01*
X104969706Y-76708067D01*
X104777263Y-76855733D01*
X104777256Y-76855739D01*
X104605739Y-77027256D01*
X104605733Y-77027263D01*
X104458067Y-77219706D01*
X104336777Y-77429785D01*
X104336773Y-77429794D01*
X104243947Y-77653895D01*
X104181161Y-77888214D01*
X104149500Y-78128711D01*
X103000500Y-78128711D01*
X103000500Y-77753750D01*
X103000726Y-77746263D01*
X103018271Y-77456205D01*
X103020076Y-77441340D01*
X103071780Y-77159201D01*
X103075364Y-77144663D01*
X103160696Y-76870822D01*
X103165998Y-76856841D01*
X103283731Y-76595249D01*
X103290676Y-76582016D01*
X103439080Y-76336526D01*
X103447567Y-76324230D01*
X103624480Y-76098417D01*
X103634395Y-76087226D01*
X103837226Y-75884395D01*
X103848417Y-75874480D01*
X104074230Y-75697567D01*
X104086526Y-75689080D01*
X104332016Y-75540676D01*
X104345249Y-75533731D01*
X104606841Y-75415998D01*
X104620822Y-75410696D01*
X104894668Y-75325362D01*
X104909197Y-75321780D01*
X105191344Y-75270075D01*
X105206201Y-75268271D01*
X105496264Y-75250726D01*
X105503751Y-75250500D01*
X105565892Y-75250500D01*
X153934108Y-75250500D01*
X153996249Y-75250500D01*
X154003736Y-75250726D01*
G37*
%TD.AperFunction*%
%TD*%
M02*
