M48
; DRILL file {KiCad 9.0.7} date 2026-01-19T21:17:32-0500
; FORMAT={-:-/ absolute / metric / decimal}
; #@! TF.CreationDate,2026-01-19T21:17:32-05:00
; #@! TF.GenerationSoftware,Kicad,Pcbnew,9.0.7
; #@! TF.FileFunction,Plated,1,4,PTH
FMAT,2
METRIC
; #@! TA.AperFunction,Plated,PTH,ViaDrill
T1C0.300
; #@! TA.AperFunction,Plated,PTH,ComponentDrill
T2C0.300
; #@! TA.AperFunction,Plated,PTH,ComponentDrill
T3C0.750
; #@! TA.AperFunction,Plated,PTH,ComponentDrill
T4C1.000
; #@! TA.AperFunction,Plated,PTH,ComponentDrill
T5C1.300
%
G90
G05
T1
X104.75Y-83.491
X104.75Y-86.409
X104.75Y-89.327
X104.75Y-92.245
X104.75Y-98.082
X104.75Y-101.0
X104.75Y-105.25
X104.75Y-112.5
X104.75Y-115.923
X104.75Y-118.841
X104.75Y-121.759
X104.75Y-124.677
X104.75Y-127.595
X106.5Y-112.5
X106.75Y-106.0
X108.0Y-115.923
X108.0Y-118.841
X108.0Y-121.759
X108.0Y-124.677
X108.0Y-127.595
X110.0Y-106.5
X110.25Y-78.0
X110.25Y-80.25
X111.25Y-115.923
X111.25Y-118.841
X111.25Y-121.759
X111.25Y-124.677
X111.25Y-127.595
X111.25Y-130.5
X111.25Y-133.332
X112.0Y-92.5
X112.25Y-98.082
X112.25Y-101.0
X112.75Y-80.25
X112.857Y-78.0
X113.0Y-85.75
X113.0Y-87.25
X113.0Y-88.75
X114.5Y-115.923
X114.5Y-118.841
X114.5Y-121.759
X114.5Y-124.677
X114.5Y-127.595
X114.5Y-130.5
X114.5Y-133.332
X115.0Y-78.0
X115.5Y-85.75
X115.5Y-87.25
X115.5Y-88.75
X115.5Y-98.082
X115.5Y-101.0
X117.0Y-94.5
X117.0Y-112.0
X117.75Y-118.914
X117.75Y-121.832
X117.75Y-124.75
X117.786Y-78.0
X118.75Y-80.0
X119.0Y-106.5
X120.232Y-78.0
X120.25Y-83.75
X120.25Y-85.25
X120.25Y-89.75
X120.25Y-91.5
X120.75Y-90.625
X121.25Y-80.0
X121.25Y-87.0
X121.25Y-89.75
X121.25Y-91.5
X121.25Y-97.0
X122.25Y-83.75
X122.25Y-85.25
X122.375Y-78.0
X122.5Y-100.135
X122.515Y-104.565
X122.75Y-109.5
X123.25Y-89.25
X123.5Y-80.0
X123.75Y-97.0
X124.717Y-90.302
X124.839Y-78.0
X125.091Y-88.546
X125.9Y-91.5
X126.0Y-110.25
X126.7Y-113.152
X126.7Y-116.07
X126.7Y-118.989
X126.7Y-121.907
X126.7Y-124.825
X126.75Y-91.25
X126.75Y-98.25
X126.75Y-101.5
X126.75Y-104.418
X127.0Y-78.0
X127.25Y-84.0
X127.25Y-87.0
X127.25Y-89.25
X128.699Y-84.756
X129.0Y-95.332
X129.0Y-98.25
X129.0Y-101.5
X129.0Y-104.418
X129.0Y-107.336
X129.0Y-113.173
X129.0Y-116.091
X129.0Y-119.009
X129.0Y-121.927
X129.0Y-124.845
X129.0Y-127.75
X129.0Y-130.582
X129.0Y-133.5
X129.25Y-84.0
X129.589Y-78.0
X129.75Y-87.0
X129.75Y-89.25
X130.25Y-93.5
X130.724Y-85.575
X131.25Y-98.25
X131.25Y-101.5
X131.25Y-104.418
X131.25Y-107.336
X131.25Y-113.173
X131.25Y-116.091
X131.25Y-119.009
X131.25Y-121.927
X131.25Y-124.845
X131.25Y-127.75
X131.25Y-130.582
X131.25Y-133.5
X131.392Y-91.024
X132.25Y-89.25
X133.75Y-90.25
X133.75Y-101.5
X133.75Y-104.418
X133.75Y-113.152
X133.75Y-116.07
X133.75Y-118.989
X133.75Y-121.907
X133.75Y-124.825
X134.25Y-95.25
X134.25Y-105.888
X134.705Y-85.376
X134.786Y-78.0
X134.786Y-80.0
X134.786Y-82.0
X136.75Y-95.25
X137.25Y-82.0
X137.784Y-100.008
X137.89Y-105.444
X138.0Y-109.0
X139.0Y-95.25
X141.0Y-80.5
X141.25Y-89.25
X141.25Y-91.25
X141.25Y-95.25
X141.25Y-98.082
X141.25Y-110.25
X143.0Y-85.5
X143.75Y-95.164
X143.75Y-98.082
X143.75Y-101.0
X143.75Y-104.25
X143.75Y-107.168
X143.75Y-110.086
X143.75Y-113.005
X143.75Y-115.923
X143.75Y-118.841
X143.75Y-121.759
X143.75Y-124.677
X143.75Y-127.595
X143.75Y-130.5
X143.75Y-133.332
X144.0Y-82.0
X146.5Y-82.0
X146.589Y-78.0
X146.589Y-80.0
X147.0Y-89.327
X147.0Y-98.082
X147.0Y-101.0
X147.0Y-104.25
X147.0Y-107.168
X147.0Y-110.086
X147.0Y-113.005
X147.0Y-115.923
X147.0Y-118.841
X147.0Y-121.759
X147.0Y-124.677
X147.0Y-127.595
X147.0Y-130.5
X147.0Y-133.332
X148.75Y-78.0
X148.75Y-80.0
X150.25Y-104.25
X150.25Y-107.168
X150.25Y-110.086
X150.25Y-113.005
X150.25Y-115.923
X150.25Y-118.841
X150.25Y-121.759
X150.25Y-124.677
X150.25Y-127.595
X150.25Y-130.5
X150.25Y-133.332
X153.5Y-83.491
X153.5Y-86.409
X153.5Y-89.327
X153.5Y-92.245
X153.5Y-95.164
X153.5Y-98.082
X153.5Y-101.0
X153.5Y-104.25
X153.5Y-107.168
X153.5Y-110.086
X153.5Y-113.005
X153.5Y-115.923
X153.5Y-118.841
X153.5Y-121.759
X153.5Y-124.677
X153.5Y-127.595
T2
X105.525Y-107.99
X105.525Y-109.49
X106.025Y-108.74
X106.525Y-107.99
X106.525Y-109.49
T3
X108.7Y-85.5
X108.7Y-87.5
X108.7Y-94.25
X108.7Y-96.25
X108.7Y-98.25
X149.7Y-84.25
X149.7Y-86.25
X149.7Y-88.25
X149.75Y-93.75
X149.75Y-95.75
X149.75Y-97.75
X149.75Y-99.75
T4
G00X118.5Y-127.55
M15
G01X118.5Y-129.05
M16
G05
G00X126.0Y-127.55
M15
G01X126.0Y-129.05
M16
G05
G00X133.5Y-127.55
M15
G01X133.5Y-129.05
M16
G05
G00X141.0Y-127.55
M15
G01X141.0Y-129.05
M16
G05
T5
G00X121.65Y-132.0
M15
G01X122.85Y-132.0
M16
G05
G00X136.65Y-132.0
M15
G01X137.85Y-132.0
M16
G05
M30
