%TF.GenerationSoftware,KiCad,Pcbnew,9.0.7*%
%TF.CreationDate,2026-01-19T21:28:55-05:00*%
%TF.ProjectId,param-eq,70617261-6d2d-4657-912e-6b696361645f,rev?*%
%TF.SameCoordinates,Original*%
%TF.FileFunction,Copper,L1,Top*%
%TF.FilePolarity,Positive*%
%FSLAX46Y46*%
G04 Gerber Fmt 4.6, Leading zero omitted, Abs format (unit mm)*
G04 Created by KiCad (PCBNEW 9.0.7) date 2026-01-19 21:28:55*
%MOMM*%
%LPD*%
G01*
G04 APERTURE LIST*
G04 Aperture macros list*
%AMRoundRect*
0 Rectangle with rounded corners*
0 $1 Rounding radius*
0 $2 $3 $4 $5 $6 $7 $8 $9 X,Y pos of 4 corners*
0 Add a 4 corners polygon primitive as box body*
4,1,4,$2,$3,$4,$5,$6,$7,$8,$9,$2,$3,0*
0 Add four circle primitives for the rounded corners*
1,1,$1+$1,$2,$3*
1,1,$1+$1,$4,$5*
1,1,$1+$1,$6,$7*
1,1,$1+$1,$8,$9*
0 Add four rect primitives between the rounded corners*
20,1,$1+$1,$2,$3,$4,$5,0*
20,1,$1+$1,$4,$5,$6,$7,0*
20,1,$1+$1,$6,$7,$8,$9,0*
20,1,$1+$1,$8,$9,$2,$3,0*%
G04 Aperture macros list end*
%TA.AperFunction,ComponentPad*%
%ADD10C,1.400000*%
%TD*%
%TA.AperFunction,ComponentPad*%
%ADD11RoundRect,0.250001X-0.949999X-0.949999X0.949999X-0.949999X0.949999X0.949999X-0.949999X0.949999X0*%
%TD*%
%TA.AperFunction,ComponentPad*%
%ADD12C,2.400000*%
%TD*%
%TA.AperFunction,ComponentPad*%
%ADD13RoundRect,0.250000X-0.625000X0.350000X-0.625000X-0.350000X0.625000X-0.350000X0.625000X0.350000X0*%
%TD*%
%TA.AperFunction,ComponentPad*%
%ADD14O,1.750000X1.200000*%
%TD*%
%TA.AperFunction,ComponentPad*%
%ADD15C,2.000000*%
%TD*%
%TA.AperFunction,ComponentPad*%
%ADD16RoundRect,0.250000X0.625000X-0.350000X0.625000X0.350000X-0.625000X0.350000X-0.625000X-0.350000X0*%
%TD*%
%TA.AperFunction,ComponentPad*%
%ADD17RoundRect,0.250000X0.350000X0.625000X-0.350000X0.625000X-0.350000X-0.625000X0.350000X-0.625000X0*%
%TD*%
%TA.AperFunction,ComponentPad*%
%ADD18O,1.200000X1.750000*%
%TD*%
%TA.AperFunction,ComponentPad*%
%ADD19RoundRect,0.249999X-0.850001X-0.850001X0.850001X-0.850001X0.850001X0.850001X-0.850001X0.850001X0*%
%TD*%
%TA.AperFunction,ComponentPad*%
%ADD20C,2.200000*%
%TD*%
%TA.AperFunction,ComponentPad*%
%ADD21RoundRect,0.250000X-0.550000X0.550000X-0.550000X-0.550000X0.550000X-0.550000X0.550000X0.550000X0*%
%TD*%
%TA.AperFunction,ComponentPad*%
%ADD22C,1.600000*%
%TD*%
%TA.AperFunction,ComponentPad*%
%ADD23R,1.600000X1.600000*%
%TD*%
%TA.AperFunction,ComponentPad*%
%ADD24R,1.300000X1.300000*%
%TD*%
%TA.AperFunction,ComponentPad*%
%ADD25C,1.300000*%
%TD*%
%TA.AperFunction,ComponentPad*%
%ADD26R,1.700000X1.700000*%
%TD*%
%TA.AperFunction,ComponentPad*%
%ADD27C,1.700000*%
%TD*%
%TA.AperFunction,ViaPad*%
%ADD28C,0.600000*%
%TD*%
%TA.AperFunction,Conductor*%
%ADD29C,0.500000*%
%TD*%
%TA.AperFunction,Conductor*%
%ADD30C,0.200000*%
%TD*%
G04 APERTURE END LIST*
D10*
%TO.P,R2,1*%
%TO.N,Net-(U1-20_A6_TX5_LRCLK1)*%
X169500000Y-58720000D03*
%TO.P,R2,2*%
%TO.N,/LRCLK_I*%
X169500000Y-56180000D03*
%TD*%
D11*
%TO.P,J1,1,Pin_1*%
%TO.N,/+5V*%
X115250000Y-54500000D03*
D12*
%TO.P,J1,2,Pin_2*%
%TO.N,GND*%
X118750000Y-54500000D03*
%TD*%
D13*
%TO.P,J8,1,Pin_1*%
%TO.N,GND*%
X101000000Y-102690000D03*
D14*
%TO.P,J8,2,Pin_2*%
%TO.N,/SPBTN*%
X101000000Y-104690000D03*
%TO.P,J8,3,Pin_3*%
%TO.N,/SP_A*%
X101000000Y-106690000D03*
%TO.P,J8,4,Pin_4*%
%TO.N,/SP_B*%
X101000000Y-108690000D03*
%TD*%
D15*
%TO.P,R19,1*%
%TO.N,/QBTN*%
X147500000Y-75500000D03*
%TO.P,R19,2*%
%TO.N,+3.3V*%
X147500000Y-83120000D03*
%TD*%
D16*
%TO.P,J9,1,Pin_1*%
%TO.N,GND*%
X173000000Y-66000000D03*
D14*
%TO.P,J9,2,Pin_2*%
%TO.N,/CLIP*%
X173000000Y-64000000D03*
%TD*%
D17*
%TO.P,J2,1,Pin_1*%
%TO.N,/DATA_I*%
X173000000Y-51500000D03*
D18*
%TO.P,J2,2,Pin_2*%
%TO.N,/BCLK_I*%
X171000000Y-51500000D03*
%TO.P,J2,3,Pin_3*%
%TO.N,/LRCLK_I*%
X169000000Y-51500000D03*
%TO.P,J2,4,Pin_4*%
%TO.N,GND*%
X167000000Y-51500000D03*
%TD*%
D15*
%TO.P,R17,1*%
%TO.N,/FG_A*%
X154000000Y-101430000D03*
%TO.P,R17,2*%
%TO.N,+3.3V*%
X154000000Y-93810000D03*
%TD*%
%TO.P,R18,1*%
%TO.N,/Q_B*%
X160000000Y-80310000D03*
%TO.P,R18,2*%
%TO.N,+3.3V*%
X160000000Y-87930000D03*
%TD*%
D19*
%TO.P,D2,1,K*%
%TO.N,Net-(D1-K)*%
X108920000Y-67000000D03*
D20*
%TO.P,D2,2,A*%
%TO.N,GND*%
X119080000Y-67000000D03*
%TD*%
D21*
%TO.P,C2,1*%
%TO.N,Net-(D1-K)*%
X114500000Y-71097349D03*
D22*
%TO.P,C2,2*%
%TO.N,GND*%
X114500000Y-76097349D03*
%TD*%
D15*
%TO.P,R20,1*%
%TO.N,/FC_A*%
X153500000Y-109190000D03*
%TO.P,R20,2*%
%TO.N,+3.3V*%
X153500000Y-116810000D03*
%TD*%
D16*
%TO.P,J13,1,Pin_1*%
%TO.N,/FC_B*%
X173000000Y-111000000D03*
D14*
%TO.P,J13,2,Pin_2*%
%TO.N,/FC_A*%
X173000000Y-109000000D03*
%TO.P,J13,3,Pin_3*%
%TO.N,/FCBTN*%
X173000000Y-107000000D03*
%TO.P,J13,4,Pin_4*%
%TO.N,GND*%
X173000000Y-105000000D03*
%TD*%
D23*
%TO.P,U1,1,GND*%
%TO.N,GND*%
X123620000Y-53240000D03*
D22*
%TO.P,U1,2,0_RX1_CRX2_CS1*%
%TO.N,unconnected-(U1-0_RX1_CRX2_CS1-Pad2)*%
X123620000Y-55780000D03*
%TO.P,U1,3,1_TX1_CTX2_MISO1*%
%TO.N,/MGBTN*%
X123620000Y-58320000D03*
%TO.P,U1,4,2_OUT2*%
%TO.N,/MG_A*%
X123620000Y-60860000D03*
%TO.P,U1,5,3_LRCLK2*%
%TO.N,/MG_B*%
X123620000Y-63400000D03*
%TO.P,U1,6,4_BCLK2*%
%TO.N,unconnected-(U1-4_BCLK2-Pad6)*%
X123620000Y-65940000D03*
%TO.P,U1,7,5_IN2*%
%TO.N,Net-(U1-5_IN2)*%
X123620000Y-68480000D03*
%TO.P,U1,8,6_OUT1D*%
%TO.N,Net-(U1-6_OUT1D)*%
X123620000Y-71020000D03*
%TO.P,U1,9,7_RX2_OUT1A*%
%TO.N,unconnected-(U1-7_RX2_OUT1A-Pad9)*%
X123620000Y-73560000D03*
%TO.P,U1,10,8_TX2_IN1*%
%TO.N,unconnected-(U1-8_TX2_IN1-Pad10)*%
X123620000Y-76100000D03*
%TO.P,U1,11,9_OUT1C*%
%TO.N,unconnected-(U1-9_OUT1C-Pad11)*%
X123620000Y-78640000D03*
%TO.P,U1,12,10_CS_MQSR*%
%TO.N,/SPBTN*%
X123620000Y-81180000D03*
%TO.P,U1,13,11_MOSI_CTX1*%
%TO.N,/SP_A*%
X123620000Y-83720000D03*
%TO.P,U1,14,12_MISO_MQSL*%
%TO.N,/SP_B*%
X123620000Y-86260000D03*
%TO.P,U1,15,3V3*%
%TO.N,+3.3V*%
X123620000Y-88800000D03*
%TO.P,U1,16,24_A10_TX6_SCL2*%
%TO.N,unconnected-(U1-24_A10_TX6_SCL2-Pad16)*%
X123620000Y-91340000D03*
%TO.P,U1,17,25_A11_RX6_SDA2*%
%TO.N,/GPIO1*%
X123620000Y-93880000D03*
%TO.P,U1,18,26_A12_MOSI1*%
%TO.N,/GPIO2*%
X123620000Y-96420000D03*
%TO.P,U1,19,27_A13_SCK1*%
%TO.N,/GPIO3*%
X123620000Y-98960000D03*
%TO.P,U1,20,28_RX7*%
%TO.N,/GPIO4*%
X123620000Y-101500000D03*
%TO.P,U1,21,29_TX7*%
%TO.N,/GPIO5*%
X123620000Y-104040000D03*
%TO.P,U1,22,30_CRX3*%
%TO.N,/GPIO6*%
X123620000Y-106580000D03*
%TO.P,U1,23,31_CTX3*%
%TO.N,/GPIO7*%
X123620000Y-109120000D03*
%TO.P,U1,24,32_OUT1B*%
%TO.N,/GPIO8*%
X123620000Y-111660000D03*
%TO.P,U1,25,33_MCLK2*%
%TO.N,/FC_B*%
X138860000Y-111660000D03*
%TO.P,U1,26,34_RX8*%
%TO.N,/FC_A*%
X138860000Y-109120000D03*
%TO.P,U1,27,35_TX8*%
%TO.N,/FCBTN*%
X138860000Y-106580000D03*
%TO.P,U1,28,36_CS*%
%TO.N,/FG*%
X138860000Y-104040000D03*
%TO.P,U1,29,37_CS*%
%TO.N,/FG_A*%
X138860000Y-101500000D03*
%TO.P,U1,30,38_CS1_IN1*%
%TO.N,/FGBTN*%
X138860000Y-98960000D03*
%TO.P,U1,31,39_MISO1_OUT1A*%
%TO.N,/Q_B*%
X138860000Y-96420000D03*
%TO.P,U1,32,40_A16*%
%TO.N,/Q_A*%
X138860000Y-93880000D03*
%TO.P,U1,33,41_A17*%
%TO.N,/QBTN*%
X138860000Y-91340000D03*
%TO.P,U1,34,GND*%
%TO.N,GND*%
X138860000Y-88800000D03*
%TO.P,U1,35,13_SCK_LED*%
%TO.N,Net-(U1-13_SCK_LED)*%
X138860000Y-86260000D03*
%TO.P,U1,36,14_A0_TX3_SPDIF_OUT*%
%TO.N,unconnected-(U1-14_A0_TX3_SPDIF_OUT-Pad36)*%
X138860000Y-83720000D03*
%TO.P,U1,37,15_A1_RX3_SPDIF_IN*%
%TO.N,Net-(J7-In)*%
X138860000Y-81180000D03*
%TO.P,U1,38,16_A2_RX4_SCL1*%
%TO.N,unconnected-(U1-16_A2_RX4_SCL1-Pad38)*%
X138860000Y-78640000D03*
%TO.P,U1,39,17_A3_TX4_SDA1*%
%TO.N,unconnected-(U1-17_A3_TX4_SDA1-Pad39)*%
X138860000Y-76100000D03*
%TO.P,U1,40,18_A4_SDA*%
%TO.N,/SDA*%
X138860000Y-73560000D03*
%TO.P,U1,41,19_A5_SCL*%
%TO.N,/SCL*%
X138860000Y-71020000D03*
%TO.P,U1,42,20_A6_TX5_LRCLK1*%
%TO.N,Net-(U1-20_A6_TX5_LRCLK1)*%
X138860000Y-68480000D03*
%TO.P,U1,43,21_A7_RX5_BCLK1*%
%TO.N,Net-(U1-21_A7_RX5_BCLK1)*%
X138860000Y-65940000D03*
%TO.P,U1,44,22_A8_CTX1*%
%TO.N,unconnected-(U1-22_A8_CTX1-Pad44)*%
X138860000Y-63400000D03*
%TO.P,U1,45,23_A9_CRX1_MCLK1*%
%TO.N,unconnected-(U1-23_A9_CRX1_MCLK1-Pad45)*%
X138860000Y-60860000D03*
%TO.P,U1,46,3V3*%
%TO.N,unconnected-(U1-3V3-Pad46)*%
X138860000Y-58320000D03*
%TO.P,U1,47,GND*%
%TO.N,GND*%
X138860000Y-55780000D03*
%TO.P,U1,48,VIN*%
%TO.N,Net-(D1-K)*%
X138860000Y-53240000D03*
%TO.P,U1,49,VUSB*%
%TO.N,unconnected-(U1-VUSB-Pad49)*%
X136320000Y-55780000D03*
%TO.P,U1,50,VBAT*%
%TO.N,unconnected-(U1-VBAT-Pad50)*%
X126160000Y-98960000D03*
%TO.P,U1,51,3V3*%
%TO.N,unconnected-(U1-3V3-Pad51)*%
X128700000Y-98960000D03*
%TO.P,U1,52,GND*%
%TO.N,unconnected-(U1-GND-Pad52)*%
X131240000Y-98960000D03*
%TO.P,U1,53,PROGRAM*%
%TO.N,unconnected-(U1-PROGRAM-Pad53)*%
X133780000Y-98960000D03*
%TO.P,U1,54,ON_OFF*%
%TO.N,unconnected-(U1-ON_OFF-Pad54)*%
X136320000Y-98960000D03*
D23*
%TO.P,U1,55,5V*%
%TO.N,unconnected-(U1-5V-Pad55)*%
X126670800Y-59539200D03*
D22*
%TO.P,U1,56,D-*%
%TO.N,unconnected-(U1-D--Pad56)*%
X126670800Y-62079200D03*
%TO.P,U1,57,D+*%
%TO.N,unconnected-(U1-D+-Pad57)*%
X126670800Y-64619200D03*
%TO.P,U1,58,GND*%
%TO.N,unconnected-(U1-GND-Pad58)*%
X126670800Y-67159200D03*
%TO.P,U1,59,GND*%
%TO.N,unconnected-(U1-GND-Pad59)*%
X126670800Y-69699200D03*
D24*
%TO.P,U1,60,R+*%
%TO.N,unconnected-(U1-R+-Pad60)*%
X136421600Y-66210000D03*
D25*
%TO.P,U1,61,LED*%
%TO.N,unconnected-(U1-LED-Pad61)*%
X134421600Y-66210000D03*
%TO.P,U1,62,T-*%
%TO.N,unconnected-(U1-T--Pad62)*%
X132421600Y-66210000D03*
%TO.P,U1,63,T+*%
%TO.N,unconnected-(U1-T+-Pad63)*%
X132421600Y-68210000D03*
%TO.P,U1,64,GND*%
%TO.N,unconnected-(U1-GND-Pad64)*%
X134421600Y-68210000D03*
%TO.P,U1,65,R-*%
%TO.N,unconnected-(U1-R--Pad65)*%
X136421600Y-68210000D03*
%TO.P,U1,66,D-*%
%TO.N,unconnected-(U1-D--Pad66)*%
X132510000Y-53970000D03*
%TO.P,U1,67,D+*%
%TO.N,unconnected-(U1-D+-Pad67)*%
X129970000Y-53970000D03*
%TD*%
D15*
%TO.P,R10,1*%
%TO.N,Net-(J7-In)*%
X105190000Y-109500000D03*
%TO.P,R10,2*%
%TO.N,GND*%
X112810000Y-109500000D03*
%TD*%
%TO.P,R13,1*%
%TO.N,+3.3V*%
X100190000Y-86000000D03*
%TO.P,R13,2*%
%TO.N,/SPBTN*%
X107810000Y-86000000D03*
%TD*%
D10*
%TO.P,R3,1*%
%TO.N,Net-(U1-6_OUT1D)*%
X175000000Y-58720000D03*
%TO.P,R3,2*%
%TO.N,/DATA_I*%
X175000000Y-56180000D03*
%TD*%
D15*
%TO.P,R14,1*%
%TO.N,Net-(U1-13_SCK_LED)*%
X166500000Y-69810000D03*
%TO.P,R14,2*%
%TO.N,/CLIP*%
X166500000Y-62190000D03*
%TD*%
D16*
%TO.P,J10,1,Pin_1*%
%TO.N,/Q_B*%
X173000000Y-81500000D03*
D14*
%TO.P,J10,2,Pin_2*%
%TO.N,/Q_A*%
X173000000Y-79500000D03*
%TO.P,J10,3,Pin_3*%
%TO.N,/QBTN*%
X173000000Y-77500000D03*
%TO.P,J10,4,Pin_4*%
%TO.N,GND*%
X173000000Y-75500000D03*
%TD*%
D10*
%TO.P,J7,1,In*%
%TO.N,Net-(J7-In)*%
X109250000Y-103000000D03*
%TO.P,J7,2,Ext*%
%TO.N,GND*%
X111790000Y-103000000D03*
%TD*%
D15*
%TO.P,R11,1*%
%TO.N,+3.3V*%
X100190000Y-95500000D03*
%TO.P,R11,2*%
%TO.N,/SP_B*%
X107810000Y-95500000D03*
%TD*%
%TO.P,R15,1*%
%TO.N,/FC_B*%
X158690000Y-114500000D03*
%TO.P,R15,2*%
%TO.N,+3.3V*%
X166310000Y-114500000D03*
%TD*%
D13*
%TO.P,J3,1,Pin_1*%
%TO.N,GND*%
X101000000Y-54690000D03*
D14*
%TO.P,J3,2,Pin_2*%
%TO.N,/MGBTN*%
X101000000Y-56690000D03*
%TO.P,J3,3,Pin_3*%
%TO.N,/MG_A*%
X101000000Y-58690000D03*
%TO.P,J3,4,Pin_4*%
%TO.N,/MG_B*%
X101000000Y-60690000D03*
%TD*%
D22*
%TO.P,C1,1*%
%TO.N,Net-(D1-K)*%
X109000000Y-57500000D03*
%TO.P,C1,2*%
%TO.N,GND*%
X109000000Y-52500000D03*
%TD*%
D10*
%TO.P,R4,1*%
%TO.N,Net-(U1-21_A7_RX5_BCLK1)*%
X143500000Y-58720000D03*
%TO.P,R4,2*%
%TO.N,/BCLK_O*%
X143500000Y-56180000D03*
%TD*%
D15*
%TO.P,R12,1*%
%TO.N,+3.3V*%
X100190000Y-90638000D03*
%TO.P,R12,2*%
%TO.N,/SP_A*%
X107810000Y-90638000D03*
%TD*%
D16*
%TO.P,J6,1,Pin_1*%
%TO.N,GND*%
X157200000Y-69500000D03*
D14*
%TO.P,J6,2,Pin_2*%
%TO.N,/SCL*%
X157200000Y-67500000D03*
%TO.P,J6,3,Pin_3*%
%TO.N,/SDA*%
X157200000Y-65500000D03*
%TD*%
D15*
%TO.P,R6,1*%
%TO.N,/MGBTN*%
X107810000Y-71190000D03*
%TO.P,R6,2*%
%TO.N,+3.3V*%
X100190000Y-71190000D03*
%TD*%
D16*
%TO.P,J12,1,Pin_1*%
%TO.N,/FG*%
X173000000Y-96500000D03*
D14*
%TO.P,J12,2,Pin_2*%
%TO.N,/FG_A*%
X173000000Y-94500000D03*
%TO.P,J12,3,Pin_3*%
%TO.N,/FGBTN*%
X173000000Y-92500000D03*
%TO.P,J12,4,Pin_4*%
%TO.N,GND*%
X173000000Y-90500000D03*
%TD*%
D19*
%TO.P,D1,1,K*%
%TO.N,Net-(D1-K)*%
X108920000Y-62000000D03*
D20*
%TO.P,D1,2,A*%
%TO.N,/+5V*%
X119080000Y-62000000D03*
%TD*%
D15*
%TO.P,R16,1*%
%TO.N,/FCBTN*%
X148000000Y-106690000D03*
%TO.P,R16,2*%
%TO.N,+3.3V*%
X148000000Y-114310000D03*
%TD*%
%TO.P,R8,1*%
%TO.N,/MG_B*%
X107810000Y-80914000D03*
%TO.P,R8,2*%
%TO.N,+3.3V*%
X100190000Y-80914000D03*
%TD*%
D10*
%TO.P,R5,1*%
%TO.N,Net-(U1-20_A6_TX5_LRCLK1)*%
X149500000Y-58720000D03*
%TO.P,R5,2*%
%TO.N,/LRCLK_O*%
X149500000Y-56180000D03*
%TD*%
D26*
%TO.P,J11,1,Pin_1*%
%TO.N,GND*%
X117500000Y-91340000D03*
D27*
%TO.P,J11,2,Pin_2*%
%TO.N,/GPIO1*%
X117500000Y-93880000D03*
%TO.P,J11,3,Pin_3*%
%TO.N,/GPIO2*%
X117500000Y-96420000D03*
%TO.P,J11,4,Pin_4*%
%TO.N,/GPIO3*%
X117500000Y-98960000D03*
%TO.P,J11,5,Pin_5*%
%TO.N,/GPIO4*%
X117500000Y-101500000D03*
%TO.P,J11,6,Pin_6*%
%TO.N,/GPIO5*%
X117500000Y-104040000D03*
%TO.P,J11,7,Pin_7*%
%TO.N,/GPIO6*%
X117500000Y-106580000D03*
%TO.P,J11,8,Pin_8*%
%TO.N,/GPIO7*%
X117500000Y-109120000D03*
%TO.P,J11,9,Pin_9*%
%TO.N,/GPIO8*%
X117500000Y-111660000D03*
%TD*%
D17*
%TO.P,J4,1,Pin_1*%
%TO.N,/DATA_O*%
X153000000Y-51500000D03*
D18*
%TO.P,J4,2,Pin_2*%
%TO.N,/BCLK_O*%
X151000000Y-51500000D03*
%TO.P,J4,3,Pin_3*%
%TO.N,/LRCLK_O*%
X149000000Y-51500000D03*
%TO.P,J4,4,Pin_4*%
%TO.N,GND*%
X147000000Y-51500000D03*
%TD*%
D15*
%TO.P,R22,1*%
%TO.N,/FGBTN*%
X147500000Y-99310000D03*
%TO.P,R22,2*%
%TO.N,+3.3V*%
X147500000Y-91690000D03*
%TD*%
D10*
%TO.P,R9,1*%
%TO.N,Net-(U1-5_IN2)*%
X155000000Y-58720000D03*
%TO.P,R9,2*%
%TO.N,/DATA_O*%
X155000000Y-56180000D03*
%TD*%
%TO.P,R1,1*%
%TO.N,Net-(U1-21_A7_RX5_BCLK1)*%
X163500000Y-58720000D03*
%TO.P,R1,2*%
%TO.N,/BCLK_I*%
X163500000Y-56180000D03*
%TD*%
D16*
%TO.P,J5,1,Pin_1*%
%TO.N,GND*%
X146200000Y-69500000D03*
D14*
%TO.P,J5,2,Pin_2*%
%TO.N,/SCL*%
X146200000Y-67500000D03*
%TO.P,J5,3,Pin_3*%
%TO.N,/SDA*%
X146200000Y-65500000D03*
%TD*%
D15*
%TO.P,R23,1*%
%TO.N,/Q_A*%
X154000000Y-77810000D03*
%TO.P,R23,2*%
%TO.N,+3.3V*%
X154000000Y-85430000D03*
%TD*%
%TO.P,R7,1*%
%TO.N,/MG_A*%
X107810000Y-76052000D03*
%TO.P,R7,2*%
%TO.N,+3.3V*%
X100190000Y-76052000D03*
%TD*%
%TO.P,R21,1*%
%TO.N,/FG*%
X160000000Y-104310000D03*
%TO.P,R21,2*%
%TO.N,+3.3V*%
X160000000Y-96690000D03*
%TD*%
D28*
%TO.N,Net-(U1-20_A6_TX5_LRCLK1)*%
X154500000Y-60500000D03*
%TD*%
D29*
%TO.N,/+5V*%
X119080000Y-58330000D02*
X115250000Y-54500000D01*
X119080000Y-62000000D02*
X119080000Y-58330000D01*
%TO.N,Net-(D1-K)*%
X114511000Y-51989000D02*
X137609000Y-51989000D01*
X137609000Y-51989000D02*
X138860000Y-53240000D01*
X108920000Y-57580000D02*
X109000000Y-57500000D01*
X108920000Y-62000000D02*
X108920000Y-57580000D01*
X109000000Y-57500000D02*
X114511000Y-51989000D01*
X113017349Y-71097349D02*
X108920000Y-67000000D01*
X108920000Y-67000000D02*
X108920000Y-62000000D01*
X114500000Y-71097349D02*
X113017349Y-71097349D01*
D30*
%TO.N,+3.3V*%
X153500000Y-116810000D02*
X153690000Y-117000000D01*
X132679000Y-107036050D02*
X139952950Y-114310000D01*
X96500000Y-99190000D02*
X96500000Y-109000000D01*
X157120000Y-93810000D02*
X154000000Y-93810000D01*
X154000000Y-85430000D02*
X156500000Y-87930000D01*
X163810000Y-117000000D02*
X166310000Y-114500000D01*
X132679000Y-98000000D02*
X132679000Y-107036050D01*
X154000000Y-85430000D02*
X154000000Y-93810000D01*
X148000000Y-114310000D02*
X151000000Y-114310000D01*
X151000000Y-114310000D02*
X153500000Y-116810000D01*
X132679000Y-97859000D02*
X132679000Y-98000000D01*
X100190000Y-95500000D02*
X96500000Y-99190000D01*
X139952950Y-114310000D02*
X148000000Y-114310000D01*
X149810000Y-85430000D02*
X147500000Y-83120000D01*
X154000000Y-85430000D02*
X149810000Y-85430000D01*
X133158000Y-97521000D02*
X132679000Y-98000000D01*
X156500000Y-87930000D02*
X160000000Y-87930000D01*
X101810000Y-114310000D02*
X139952950Y-114310000D01*
X141669000Y-97521000D02*
X133158000Y-97521000D01*
X123620000Y-88800000D02*
X132679000Y-97859000D01*
X160000000Y-96690000D02*
X157120000Y-93810000D01*
X100190000Y-71190000D02*
X100190000Y-95500000D01*
X153690000Y-117000000D02*
X163810000Y-117000000D01*
X149620000Y-93810000D02*
X154000000Y-93810000D01*
X147500000Y-91690000D02*
X149620000Y-93810000D01*
X96500000Y-109000000D02*
X101810000Y-114310000D01*
X147500000Y-91690000D02*
X141669000Y-97521000D01*
%TO.N,/SP_B*%
X101000000Y-108690000D02*
X107810000Y-101880000D01*
X117050000Y-86260000D02*
X123620000Y-86260000D01*
X107810000Y-95500000D02*
X117050000Y-86260000D01*
X107810000Y-101880000D02*
X107810000Y-95500000D01*
%TO.N,/SP_A*%
X107810000Y-90638000D02*
X114728000Y-83720000D01*
X114728000Y-83720000D02*
X123620000Y-83720000D01*
X106509000Y-101181000D02*
X106509000Y-91939000D01*
X106509000Y-91939000D02*
X107810000Y-90638000D01*
X101000000Y-106690000D02*
X106509000Y-101181000D01*
%TO.N,/SPBTN*%
X123300000Y-81500000D02*
X123620000Y-81180000D01*
X106108000Y-100082000D02*
X106108000Y-87702000D01*
X101000000Y-105190000D02*
X106108000Y-100082000D01*
X112310000Y-81500000D02*
X123300000Y-81500000D01*
X106108000Y-87702000D02*
X107810000Y-86000000D01*
X107810000Y-86000000D02*
X112310000Y-81500000D01*
%TO.N,/Q_B*%
X140763000Y-88017108D02*
X140763000Y-94517000D01*
X140763000Y-94517000D02*
X138860000Y-96420000D01*
X161190000Y-81500000D02*
X173000000Y-81500000D01*
X158810000Y-81500000D02*
X147280108Y-81500000D01*
X147280108Y-81500000D02*
X140763000Y-88017108D01*
X160000000Y-80310000D02*
X161190000Y-81500000D01*
X160000000Y-80310000D02*
X158810000Y-81500000D01*
%TO.N,Net-(U1-13_SCK_LED)*%
X138403950Y-82619000D02*
X138978050Y-82619000D01*
X138860000Y-86260000D02*
X137759000Y-85159000D01*
X137759000Y-83263950D02*
X138403950Y-82619000D01*
X148660108Y-72500000D02*
X163810000Y-72500000D01*
X139961000Y-81199108D02*
X148660108Y-72500000D01*
X137759000Y-85159000D02*
X137759000Y-83263950D01*
X163810000Y-72500000D02*
X166500000Y-69810000D01*
X138978050Y-82619000D02*
X139961000Y-81636050D01*
X139961000Y-81636050D02*
X139961000Y-81199108D01*
%TO.N,/CLIP*%
X172500000Y-64000000D02*
X168310000Y-64000000D01*
X168310000Y-64000000D02*
X166500000Y-62190000D01*
%TO.N,/FC_B*%
X158690000Y-111970000D02*
X159000000Y-111660000D01*
X138860000Y-111660000D02*
X159000000Y-111660000D01*
X159000000Y-111660000D02*
X172340000Y-111660000D01*
X172340000Y-111660000D02*
X173000000Y-111000000D01*
X158690000Y-114500000D02*
X158690000Y-111970000D01*
%TO.N,/FC_A*%
X172500000Y-109500000D02*
X173000000Y-109000000D01*
X139240000Y-109500000D02*
X172500000Y-109500000D01*
X138860000Y-109120000D02*
X139240000Y-109500000D01*
%TO.N,/FCBTN*%
X172080000Y-106580000D02*
X173000000Y-107500000D01*
X138860000Y-106580000D02*
X172080000Y-106580000D01*
%TO.N,/FG*%
X138860000Y-104040000D02*
X159730000Y-104040000D01*
X160000000Y-104310000D02*
X167810000Y-96500000D01*
X159730000Y-104040000D02*
X160000000Y-104310000D01*
X167810000Y-96500000D02*
X173000000Y-96500000D01*
%TO.N,/FG_A*%
X138860000Y-101500000D02*
X153930000Y-101500000D01*
X167000000Y-94500000D02*
X172500000Y-94500000D01*
X154000000Y-101430000D02*
X160070000Y-101430000D01*
X160070000Y-101430000D02*
X167000000Y-94500000D01*
X172500000Y-94500000D02*
X173000000Y-94000000D01*
X153930000Y-101500000D02*
X154000000Y-101430000D01*
%TO.N,/FGBTN*%
X166029892Y-92500000D02*
X173000000Y-92500000D01*
X147500000Y-99310000D02*
X159219892Y-99310000D01*
X159219892Y-99310000D02*
X166029892Y-92500000D01*
X138860000Y-98960000D02*
X147150000Y-98960000D01*
X147150000Y-98960000D02*
X147500000Y-99310000D01*
%TO.N,/Q_A*%
X140362000Y-87138000D02*
X140362000Y-92378000D01*
X149690000Y-77810000D02*
X140362000Y-87138000D01*
X140362000Y-92378000D02*
X138860000Y-93880000D01*
X172500000Y-78500000D02*
X173000000Y-79000000D01*
X154690000Y-78500000D02*
X172500000Y-78500000D01*
X154000000Y-77810000D02*
X149690000Y-77810000D01*
X154000000Y-77810000D02*
X154690000Y-78500000D01*
%TO.N,/QBTN*%
X147500000Y-75500000D02*
X148500000Y-76500000D01*
X172000000Y-76500000D02*
X173000000Y-77500000D01*
X148500000Y-76500000D02*
X172000000Y-76500000D01*
X147500000Y-75500000D02*
X139961000Y-83039000D01*
X139961000Y-83039000D02*
X139961000Y-90239000D01*
X139961000Y-90239000D02*
X138860000Y-91340000D01*
%TO.N,/MGBTN*%
X107810000Y-71190000D02*
X103000000Y-66380000D01*
X119094214Y-68400000D02*
X119659899Y-68400000D01*
X122119000Y-65940899D02*
X122119000Y-59821000D01*
X101690000Y-57190000D02*
X101000000Y-57190000D01*
X122119000Y-59821000D02*
X123620000Y-58320000D01*
X110117107Y-73497107D02*
X113997107Y-73497107D01*
X119659899Y-68400000D02*
X122119000Y-65940899D01*
X107810000Y-71190000D02*
X110117107Y-73497107D01*
X103000000Y-66380000D02*
X103000000Y-58500000D01*
X113997107Y-73497107D02*
X119094214Y-68400000D01*
X103000000Y-58500000D02*
X101690000Y-57190000D01*
%TO.N,/MG_A*%
X122519000Y-66106584D02*
X122519000Y-61961000D01*
X119264686Y-68801000D02*
X119824584Y-68801000D01*
X122519000Y-61961000D02*
X123620000Y-60860000D01*
X112013686Y-76052000D02*
X119264686Y-68801000D01*
X107810000Y-76052000D02*
X102276000Y-70518000D01*
X107810000Y-76052000D02*
X112013686Y-76052000D01*
X102276000Y-70518000D02*
X102276000Y-59776000D01*
X101190000Y-58690000D02*
X101000000Y-58690000D01*
X119824584Y-68801000D02*
X122519000Y-66106584D01*
X102276000Y-59776000D02*
X101190000Y-58690000D01*
%TO.N,/MG_B*%
X121003950Y-69201000D02*
X123163950Y-67041000D01*
X101491000Y-62681000D02*
X101000000Y-62190000D01*
X119523000Y-69201000D02*
X121003950Y-69201000D01*
X101000000Y-62190000D02*
X101000000Y-60690000D01*
X107810000Y-80914000D02*
X119523000Y-69201000D01*
X123163950Y-67041000D02*
X124076050Y-67041000D01*
X107810000Y-80914000D02*
X101491000Y-74595000D01*
X124721000Y-64501000D02*
X123620000Y-63400000D01*
X124076050Y-67041000D02*
X124721000Y-66396050D01*
X101491000Y-74595000D02*
X101491000Y-62681000D01*
X124721000Y-66396050D02*
X124721000Y-64501000D01*
%TO.N,Net-(U1-20_A6_TX5_LRCLK1)*%
X169500000Y-58720000D02*
X168499000Y-59721000D01*
X168499000Y-59721000D02*
X155279000Y-59721000D01*
X139740000Y-68480000D02*
X138860000Y-68480000D01*
X149500000Y-58720000D02*
X139740000Y-68480000D01*
X155279000Y-59721000D02*
X154500000Y-60500000D01*
%TO.N,/LRCLK_O*%
X149500000Y-52000000D02*
X149000000Y-51500000D01*
X149500000Y-56180000D02*
X149500000Y-52000000D01*
%TO.N,/BCLK_O*%
X149824000Y-50324000D02*
X151000000Y-51500000D01*
X148099000Y-50851794D02*
X148626794Y-50324000D01*
X146320000Y-56180000D02*
X148099000Y-54401000D01*
X148099000Y-54401000D02*
X148099000Y-50851794D01*
X148626794Y-50324000D02*
X149824000Y-50324000D01*
X143500000Y-56180000D02*
X146320000Y-56180000D01*
%TO.N,/BCLK_I*%
X169824000Y-50324000D02*
X171000000Y-51500000D01*
X163500000Y-56180000D02*
X163500000Y-53450794D01*
X163500000Y-53450794D02*
X166626794Y-50324000D01*
X166626794Y-50324000D02*
X169824000Y-50324000D01*
%TO.N,Net-(U1-5_IN2)*%
X145598240Y-63349000D02*
X139028240Y-69919000D01*
X127126850Y-70800200D02*
X125940200Y-70800200D01*
X150371000Y-63349000D02*
X145598240Y-63349000D01*
X125940200Y-70800200D02*
X123620000Y-68480000D01*
X128008050Y-69919000D02*
X127126850Y-70800200D01*
X139028240Y-69919000D02*
X128008050Y-69919000D01*
X155000000Y-58720000D02*
X150371000Y-63349000D01*
%TO.N,/DATA_O*%
X155000000Y-53500000D02*
X153000000Y-51500000D01*
X155000000Y-56180000D02*
X155000000Y-53500000D01*
%TO.N,Net-(U1-6_OUT1D)*%
X123620000Y-71020000D02*
X129801000Y-77201000D01*
X129801000Y-77201000D02*
X139316050Y-77201000D01*
X144418050Y-72099000D02*
X156712160Y-72099000D01*
X160311160Y-68500000D02*
X172261160Y-68500000D01*
X175000000Y-65761160D02*
X175000000Y-58720000D01*
X139316050Y-77201000D02*
X144418050Y-72099000D01*
X156712160Y-72099000D02*
X160311160Y-68500000D01*
X172261160Y-68500000D02*
X175000000Y-65761160D01*
%TO.N,/DATA_I*%
X173000000Y-54180000D02*
X175000000Y-56180000D01*
X173000000Y-51500000D02*
X173000000Y-54180000D01*
%TO.N,/LRCLK_I*%
X169500000Y-56180000D02*
X169500000Y-52000000D01*
X169500000Y-52000000D02*
X169000000Y-51500000D01*
%TO.N,/GPIO4*%
X123620000Y-101500000D02*
X117500000Y-101500000D01*
%TO.N,/GPIO6*%
X123620000Y-106580000D02*
X117500000Y-106580000D01*
%TO.N,/GPIO8*%
X123620000Y-111660000D02*
X117500000Y-111660000D01*
%TO.N,/GPIO2*%
X123620000Y-96420000D02*
X117500000Y-96420000D01*
%TO.N,/GPIO1*%
X117500000Y-93880000D02*
X123620000Y-93880000D01*
%TO.N,/SDA*%
X139961000Y-72459000D02*
X139961000Y-70739000D01*
X138860000Y-73560000D02*
X139961000Y-72459000D01*
X139961000Y-70739000D02*
X145200000Y-65500000D01*
X145200000Y-65500000D02*
X157200000Y-65500000D01*
%TO.N,/SCL*%
X139961000Y-73239000D02*
X145700000Y-67500000D01*
X138860000Y-71020000D02*
X137759000Y-72121000D01*
X137759000Y-72121000D02*
X137759000Y-74016050D01*
X139316050Y-74661000D02*
X139961000Y-74016050D01*
X138403950Y-74661000D02*
X139316050Y-74661000D01*
X137759000Y-74016050D02*
X138403950Y-74661000D01*
X156700000Y-67500000D02*
X157200000Y-67000000D01*
X139961000Y-74016050D02*
X139961000Y-73239000D01*
X145700000Y-67500000D02*
X156700000Y-67500000D01*
%TO.N,/GPIO7*%
X117500000Y-109120000D02*
X123620000Y-109120000D01*
%TO.N,/GPIO3*%
X117500000Y-98960000D02*
X123620000Y-98960000D01*
%TO.N,/GPIO5*%
X117500000Y-104040000D02*
X123620000Y-104040000D01*
%TO.N,Net-(U1-21_A7_RX5_BCLK1)*%
X144880000Y-57340000D02*
X143500000Y-58720000D01*
X163500000Y-58040000D02*
X162800000Y-57340000D01*
X162800000Y-57340000D02*
X144880000Y-57340000D01*
X143500000Y-58720000D02*
X143500000Y-61300000D01*
X143500000Y-61300000D02*
X138860000Y-65940000D01*
%TO.N,Net-(J7-In)*%
X108190000Y-106500000D02*
X108190000Y-104060000D01*
X118839000Y-87699000D02*
X132341000Y-87699000D01*
X108190000Y-104060000D02*
X109250000Y-103000000D01*
X109250000Y-97288000D02*
X118839000Y-87699000D01*
X105190000Y-109500000D02*
X108190000Y-106500000D01*
X109250000Y-103000000D02*
X109250000Y-97288000D01*
X132341000Y-87699000D02*
X138860000Y-81180000D01*
%TD*%
M02*
