%TF.GenerationSoftware,KiCad,Pcbnew,9.0.7*%
%TF.CreationDate,2026-01-19T21:28:55-05:00*%
%TF.ProjectId,param-eq,70617261-6d2d-4657-912e-6b696361645f,rev?*%
%TF.SameCoordinates,Original*%
%TF.FileFunction,Legend,Top*%
%TF.FilePolarity,Positive*%
%FSLAX46Y46*%
G04 Gerber Fmt 4.6, Leading zero omitted, Abs format (unit mm)*
G04 Created by KiCad (PCBNEW 9.0.7) date 2026-01-19 21:28:55*
%MOMM*%
%LPD*%
G01*
G04 APERTURE LIST*
%ADD10C,0.100000*%
%ADD11C,0.150000*%
%ADD12C,0.120000*%
G04 APERTURE END LIST*
D10*
X179277180Y-65624687D02*
X179324800Y-65672306D01*
X179324800Y-65672306D02*
X179372419Y-65815163D01*
X179372419Y-65815163D02*
X179372419Y-65910401D01*
X179372419Y-65910401D02*
X179324800Y-66053258D01*
X179324800Y-66053258D02*
X179229561Y-66148496D01*
X179229561Y-66148496D02*
X179134323Y-66196115D01*
X179134323Y-66196115D02*
X178943847Y-66243734D01*
X178943847Y-66243734D02*
X178800990Y-66243734D01*
X178800990Y-66243734D02*
X178610514Y-66196115D01*
X178610514Y-66196115D02*
X178515276Y-66148496D01*
X178515276Y-66148496D02*
X178420038Y-66053258D01*
X178420038Y-66053258D02*
X178372419Y-65910401D01*
X178372419Y-65910401D02*
X178372419Y-65815163D01*
X178372419Y-65815163D02*
X178420038Y-65672306D01*
X178420038Y-65672306D02*
X178467657Y-65624687D01*
X179372419Y-64719925D02*
X179372419Y-65196115D01*
X179372419Y-65196115D02*
X178372419Y-65196115D01*
X179372419Y-64386591D02*
X178372419Y-64386591D01*
X179372419Y-63910401D02*
X178372419Y-63910401D01*
X178372419Y-63910401D02*
X178372419Y-63529449D01*
X178372419Y-63529449D02*
X178420038Y-63434211D01*
X178420038Y-63434211D02*
X178467657Y-63386592D01*
X178467657Y-63386592D02*
X178562895Y-63338973D01*
X178562895Y-63338973D02*
X178705752Y-63338973D01*
X178705752Y-63338973D02*
X178800990Y-63386592D01*
X178800990Y-63386592D02*
X178848609Y-63434211D01*
X178848609Y-63434211D02*
X178896228Y-63529449D01*
X178896228Y-63529449D02*
X178896228Y-63910401D01*
X97372419Y-62196115D02*
X96372419Y-62196115D01*
X96372419Y-62196115D02*
X97086704Y-61862782D01*
X97086704Y-61862782D02*
X96372419Y-61529449D01*
X96372419Y-61529449D02*
X97372419Y-61529449D01*
X97086704Y-61100877D02*
X97086704Y-60624687D01*
X97372419Y-61196115D02*
X96372419Y-60862782D01*
X96372419Y-60862782D02*
X97372419Y-60529449D01*
X97324800Y-60243734D02*
X97372419Y-60100877D01*
X97372419Y-60100877D02*
X97372419Y-59862782D01*
X97372419Y-59862782D02*
X97324800Y-59767544D01*
X97324800Y-59767544D02*
X97277180Y-59719925D01*
X97277180Y-59719925D02*
X97181942Y-59672306D01*
X97181942Y-59672306D02*
X97086704Y-59672306D01*
X97086704Y-59672306D02*
X96991466Y-59719925D01*
X96991466Y-59719925D02*
X96943847Y-59767544D01*
X96943847Y-59767544D02*
X96896228Y-59862782D01*
X96896228Y-59862782D02*
X96848609Y-60053258D01*
X96848609Y-60053258D02*
X96800990Y-60148496D01*
X96800990Y-60148496D02*
X96753371Y-60196115D01*
X96753371Y-60196115D02*
X96658133Y-60243734D01*
X96658133Y-60243734D02*
X96562895Y-60243734D01*
X96562895Y-60243734D02*
X96467657Y-60196115D01*
X96467657Y-60196115D02*
X96420038Y-60148496D01*
X96420038Y-60148496D02*
X96372419Y-60053258D01*
X96372419Y-60053258D02*
X96372419Y-59815163D01*
X96372419Y-59815163D02*
X96420038Y-59672306D01*
X96372419Y-59386591D02*
X96372419Y-58815163D01*
X97372419Y-59100877D02*
X96372419Y-59100877D01*
X96848609Y-58481829D02*
X96848609Y-58148496D01*
X97372419Y-58005639D02*
X97372419Y-58481829D01*
X97372419Y-58481829D02*
X96372419Y-58481829D01*
X96372419Y-58481829D02*
X96372419Y-58005639D01*
X97372419Y-57005639D02*
X96896228Y-57338972D01*
X97372419Y-57577067D02*
X96372419Y-57577067D01*
X96372419Y-57577067D02*
X96372419Y-57196115D01*
X96372419Y-57196115D02*
X96420038Y-57100877D01*
X96420038Y-57100877D02*
X96467657Y-57053258D01*
X96467657Y-57053258D02*
X96562895Y-57005639D01*
X96562895Y-57005639D02*
X96705752Y-57005639D01*
X96705752Y-57005639D02*
X96800990Y-57053258D01*
X96800990Y-57053258D02*
X96848609Y-57100877D01*
X96848609Y-57100877D02*
X96896228Y-57196115D01*
X96896228Y-57196115D02*
X96896228Y-57577067D01*
X96420038Y-55291353D02*
X96372419Y-55386591D01*
X96372419Y-55386591D02*
X96372419Y-55529448D01*
X96372419Y-55529448D02*
X96420038Y-55672305D01*
X96420038Y-55672305D02*
X96515276Y-55767543D01*
X96515276Y-55767543D02*
X96610514Y-55815162D01*
X96610514Y-55815162D02*
X96800990Y-55862781D01*
X96800990Y-55862781D02*
X96943847Y-55862781D01*
X96943847Y-55862781D02*
X97134323Y-55815162D01*
X97134323Y-55815162D02*
X97229561Y-55767543D01*
X97229561Y-55767543D02*
X97324800Y-55672305D01*
X97324800Y-55672305D02*
X97372419Y-55529448D01*
X97372419Y-55529448D02*
X97372419Y-55434210D01*
X97372419Y-55434210D02*
X97324800Y-55291353D01*
X97324800Y-55291353D02*
X97277180Y-55243734D01*
X97277180Y-55243734D02*
X96943847Y-55243734D01*
X96943847Y-55243734D02*
X96943847Y-55434210D01*
X97086704Y-54862781D02*
X97086704Y-54386591D01*
X97372419Y-54958019D02*
X96372419Y-54624686D01*
X96372419Y-54624686D02*
X97372419Y-54291353D01*
X97372419Y-53958019D02*
X96372419Y-53958019D01*
X97372419Y-53481829D02*
X96372419Y-53481829D01*
X96372419Y-53481829D02*
X97372419Y-52910401D01*
X97372419Y-52910401D02*
X96372419Y-52910401D01*
X169280074Y-47872419D02*
X168803884Y-47872419D01*
X168803884Y-47872419D02*
X168803884Y-46872419D01*
X149280074Y-47872419D02*
X148803884Y-47872419D01*
X148803884Y-47872419D02*
X148803884Y-46872419D01*
X120327693Y-48920038D02*
X120232455Y-48872419D01*
X120232455Y-48872419D02*
X120089598Y-48872419D01*
X120089598Y-48872419D02*
X119946741Y-48920038D01*
X119946741Y-48920038D02*
X119851503Y-49015276D01*
X119851503Y-49015276D02*
X119803884Y-49110514D01*
X119803884Y-49110514D02*
X119756265Y-49300990D01*
X119756265Y-49300990D02*
X119756265Y-49443847D01*
X119756265Y-49443847D02*
X119803884Y-49634323D01*
X119803884Y-49634323D02*
X119851503Y-49729561D01*
X119851503Y-49729561D02*
X119946741Y-49824800D01*
X119946741Y-49824800D02*
X120089598Y-49872419D01*
X120089598Y-49872419D02*
X120184836Y-49872419D01*
X120184836Y-49872419D02*
X120327693Y-49824800D01*
X120327693Y-49824800D02*
X120375312Y-49777180D01*
X120375312Y-49777180D02*
X120375312Y-49443847D01*
X120375312Y-49443847D02*
X120184836Y-49443847D01*
X120803884Y-49872419D02*
X120803884Y-48872419D01*
X120803884Y-48872419D02*
X121375312Y-49872419D01*
X121375312Y-49872419D02*
X121375312Y-48872419D01*
X121851503Y-49872419D02*
X121851503Y-48872419D01*
X121851503Y-48872419D02*
X122089598Y-48872419D01*
X122089598Y-48872419D02*
X122232455Y-48920038D01*
X122232455Y-48920038D02*
X122327693Y-49015276D01*
X122327693Y-49015276D02*
X122375312Y-49110514D01*
X122375312Y-49110514D02*
X122422931Y-49300990D01*
X122422931Y-49300990D02*
X122422931Y-49443847D01*
X122422931Y-49443847D02*
X122375312Y-49634323D01*
X122375312Y-49634323D02*
X122327693Y-49729561D01*
X122327693Y-49729561D02*
X122232455Y-49824800D01*
X122232455Y-49824800D02*
X122089598Y-49872419D01*
X122089598Y-49872419D02*
X121851503Y-49872419D01*
X151137217Y-47348609D02*
X151280074Y-47396228D01*
X151280074Y-47396228D02*
X151327693Y-47443847D01*
X151327693Y-47443847D02*
X151375312Y-47539085D01*
X151375312Y-47539085D02*
X151375312Y-47681942D01*
X151375312Y-47681942D02*
X151327693Y-47777180D01*
X151327693Y-47777180D02*
X151280074Y-47824800D01*
X151280074Y-47824800D02*
X151184836Y-47872419D01*
X151184836Y-47872419D02*
X150803884Y-47872419D01*
X150803884Y-47872419D02*
X150803884Y-46872419D01*
X150803884Y-46872419D02*
X151137217Y-46872419D01*
X151137217Y-46872419D02*
X151232455Y-46920038D01*
X151232455Y-46920038D02*
X151280074Y-46967657D01*
X151280074Y-46967657D02*
X151327693Y-47062895D01*
X151327693Y-47062895D02*
X151327693Y-47158133D01*
X151327693Y-47158133D02*
X151280074Y-47253371D01*
X151280074Y-47253371D02*
X151232455Y-47300990D01*
X151232455Y-47300990D02*
X151137217Y-47348609D01*
X151137217Y-47348609D02*
X150803884Y-47348609D01*
X171137217Y-47348609D02*
X171280074Y-47396228D01*
X171280074Y-47396228D02*
X171327693Y-47443847D01*
X171327693Y-47443847D02*
X171375312Y-47539085D01*
X171375312Y-47539085D02*
X171375312Y-47681942D01*
X171375312Y-47681942D02*
X171327693Y-47777180D01*
X171327693Y-47777180D02*
X171280074Y-47824800D01*
X171280074Y-47824800D02*
X171184836Y-47872419D01*
X171184836Y-47872419D02*
X170803884Y-47872419D01*
X170803884Y-47872419D02*
X170803884Y-46872419D01*
X170803884Y-46872419D02*
X171137217Y-46872419D01*
X171137217Y-46872419D02*
X171232455Y-46920038D01*
X171232455Y-46920038D02*
X171280074Y-46967657D01*
X171280074Y-46967657D02*
X171327693Y-47062895D01*
X171327693Y-47062895D02*
X171327693Y-47158133D01*
X171327693Y-47158133D02*
X171280074Y-47253371D01*
X171280074Y-47253371D02*
X171232455Y-47300990D01*
X171232455Y-47300990D02*
X171137217Y-47348609D01*
X171137217Y-47348609D02*
X170803884Y-47348609D01*
X176803884Y-66491466D02*
X177565789Y-66491466D01*
X172803884Y-47872419D02*
X172803884Y-46872419D01*
X172803884Y-46872419D02*
X173041979Y-46872419D01*
X173041979Y-46872419D02*
X173184836Y-46920038D01*
X173184836Y-46920038D02*
X173280074Y-47015276D01*
X173280074Y-47015276D02*
X173327693Y-47110514D01*
X173327693Y-47110514D02*
X173375312Y-47300990D01*
X173375312Y-47300990D02*
X173375312Y-47443847D01*
X173375312Y-47443847D02*
X173327693Y-47634323D01*
X173327693Y-47634323D02*
X173280074Y-47729561D01*
X173280074Y-47729561D02*
X173184836Y-47824800D01*
X173184836Y-47824800D02*
X173041979Y-47872419D01*
X173041979Y-47872419D02*
X172803884Y-47872419D01*
X106303884Y-117372419D02*
X106303884Y-116372419D01*
X106732455Y-117372419D02*
X106732455Y-116848609D01*
X106732455Y-116848609D02*
X106684836Y-116753371D01*
X106684836Y-116753371D02*
X106589598Y-116705752D01*
X106589598Y-116705752D02*
X106446741Y-116705752D01*
X106446741Y-116705752D02*
X106351503Y-116753371D01*
X106351503Y-116753371D02*
X106303884Y-116800990D01*
X107065789Y-116705752D02*
X107446741Y-116705752D01*
X107208646Y-116372419D02*
X107208646Y-117229561D01*
X107208646Y-117229561D02*
X107256265Y-117324800D01*
X107256265Y-117324800D02*
X107351503Y-117372419D01*
X107351503Y-117372419D02*
X107446741Y-117372419D01*
X107637218Y-116705752D02*
X108018170Y-116705752D01*
X107780075Y-116372419D02*
X107780075Y-117229561D01*
X107780075Y-117229561D02*
X107827694Y-117324800D01*
X107827694Y-117324800D02*
X107922932Y-117372419D01*
X107922932Y-117372419D02*
X108018170Y-117372419D01*
X108351504Y-116705752D02*
X108351504Y-117705752D01*
X108351504Y-116753371D02*
X108446742Y-116705752D01*
X108446742Y-116705752D02*
X108637218Y-116705752D01*
X108637218Y-116705752D02*
X108732456Y-116753371D01*
X108732456Y-116753371D02*
X108780075Y-116800990D01*
X108780075Y-116800990D02*
X108827694Y-116896228D01*
X108827694Y-116896228D02*
X108827694Y-117181942D01*
X108827694Y-117181942D02*
X108780075Y-117277180D01*
X108780075Y-117277180D02*
X108732456Y-117324800D01*
X108732456Y-117324800D02*
X108637218Y-117372419D01*
X108637218Y-117372419D02*
X108446742Y-117372419D01*
X108446742Y-117372419D02*
X108351504Y-117324800D01*
X109208647Y-117324800D02*
X109303885Y-117372419D01*
X109303885Y-117372419D02*
X109494361Y-117372419D01*
X109494361Y-117372419D02*
X109589599Y-117324800D01*
X109589599Y-117324800D02*
X109637218Y-117229561D01*
X109637218Y-117229561D02*
X109637218Y-117181942D01*
X109637218Y-117181942D02*
X109589599Y-117086704D01*
X109589599Y-117086704D02*
X109494361Y-117039085D01*
X109494361Y-117039085D02*
X109351504Y-117039085D01*
X109351504Y-117039085D02*
X109256266Y-116991466D01*
X109256266Y-116991466D02*
X109208647Y-116896228D01*
X109208647Y-116896228D02*
X109208647Y-116848609D01*
X109208647Y-116848609D02*
X109256266Y-116753371D01*
X109256266Y-116753371D02*
X109351504Y-116705752D01*
X109351504Y-116705752D02*
X109494361Y-116705752D01*
X109494361Y-116705752D02*
X109589599Y-116753371D01*
X110065790Y-117277180D02*
X110113409Y-117324800D01*
X110113409Y-117324800D02*
X110065790Y-117372419D01*
X110065790Y-117372419D02*
X110018171Y-117324800D01*
X110018171Y-117324800D02*
X110065790Y-117277180D01*
X110065790Y-117277180D02*
X110065790Y-117372419D01*
X110065790Y-116753371D02*
X110113409Y-116800990D01*
X110113409Y-116800990D02*
X110065790Y-116848609D01*
X110065790Y-116848609D02*
X110018171Y-116800990D01*
X110018171Y-116800990D02*
X110065790Y-116753371D01*
X110065790Y-116753371D02*
X110065790Y-116848609D01*
X111256265Y-116324800D02*
X110399123Y-117610514D01*
X112303884Y-116324800D02*
X111446742Y-117610514D01*
X113065789Y-116705752D02*
X113065789Y-117515276D01*
X113065789Y-117515276D02*
X113018170Y-117610514D01*
X113018170Y-117610514D02*
X112970551Y-117658133D01*
X112970551Y-117658133D02*
X112875313Y-117705752D01*
X112875313Y-117705752D02*
X112732456Y-117705752D01*
X112732456Y-117705752D02*
X112637218Y-117658133D01*
X113065789Y-117324800D02*
X112970551Y-117372419D01*
X112970551Y-117372419D02*
X112780075Y-117372419D01*
X112780075Y-117372419D02*
X112684837Y-117324800D01*
X112684837Y-117324800D02*
X112637218Y-117277180D01*
X112637218Y-117277180D02*
X112589599Y-117181942D01*
X112589599Y-117181942D02*
X112589599Y-116896228D01*
X112589599Y-116896228D02*
X112637218Y-116800990D01*
X112637218Y-116800990D02*
X112684837Y-116753371D01*
X112684837Y-116753371D02*
X112780075Y-116705752D01*
X112780075Y-116705752D02*
X112970551Y-116705752D01*
X112970551Y-116705752D02*
X113065789Y-116753371D01*
X113541980Y-117372419D02*
X113541980Y-116705752D01*
X113541980Y-116372419D02*
X113494361Y-116420038D01*
X113494361Y-116420038D02*
X113541980Y-116467657D01*
X113541980Y-116467657D02*
X113589599Y-116420038D01*
X113589599Y-116420038D02*
X113541980Y-116372419D01*
X113541980Y-116372419D02*
X113541980Y-116467657D01*
X113875313Y-116705752D02*
X114256265Y-116705752D01*
X114018170Y-116372419D02*
X114018170Y-117229561D01*
X114018170Y-117229561D02*
X114065789Y-117324800D01*
X114065789Y-117324800D02*
X114161027Y-117372419D01*
X114161027Y-117372419D02*
X114256265Y-117372419D01*
X114589599Y-117372419D02*
X114589599Y-116372419D01*
X115018170Y-117372419D02*
X115018170Y-116848609D01*
X115018170Y-116848609D02*
X114970551Y-116753371D01*
X114970551Y-116753371D02*
X114875313Y-116705752D01*
X114875313Y-116705752D02*
X114732456Y-116705752D01*
X114732456Y-116705752D02*
X114637218Y-116753371D01*
X114637218Y-116753371D02*
X114589599Y-116800990D01*
X115922932Y-116705752D02*
X115922932Y-117372419D01*
X115494361Y-116705752D02*
X115494361Y-117229561D01*
X115494361Y-117229561D02*
X115541980Y-117324800D01*
X115541980Y-117324800D02*
X115637218Y-117372419D01*
X115637218Y-117372419D02*
X115780075Y-117372419D01*
X115780075Y-117372419D02*
X115875313Y-117324800D01*
X115875313Y-117324800D02*
X115922932Y-117277180D01*
X116399123Y-117372419D02*
X116399123Y-116372419D01*
X116399123Y-116753371D02*
X116494361Y-116705752D01*
X116494361Y-116705752D02*
X116684837Y-116705752D01*
X116684837Y-116705752D02*
X116780075Y-116753371D01*
X116780075Y-116753371D02*
X116827694Y-116800990D01*
X116827694Y-116800990D02*
X116875313Y-116896228D01*
X116875313Y-116896228D02*
X116875313Y-117181942D01*
X116875313Y-117181942D02*
X116827694Y-117277180D01*
X116827694Y-117277180D02*
X116780075Y-117324800D01*
X116780075Y-117324800D02*
X116684837Y-117372419D01*
X116684837Y-117372419D02*
X116494361Y-117372419D01*
X116494361Y-117372419D02*
X116399123Y-117324800D01*
X117303885Y-117277180D02*
X117351504Y-117324800D01*
X117351504Y-117324800D02*
X117303885Y-117372419D01*
X117303885Y-117372419D02*
X117256266Y-117324800D01*
X117256266Y-117324800D02*
X117303885Y-117277180D01*
X117303885Y-117277180D02*
X117303885Y-117372419D01*
X118208646Y-117324800D02*
X118113408Y-117372419D01*
X118113408Y-117372419D02*
X117922932Y-117372419D01*
X117922932Y-117372419D02*
X117827694Y-117324800D01*
X117827694Y-117324800D02*
X117780075Y-117277180D01*
X117780075Y-117277180D02*
X117732456Y-117181942D01*
X117732456Y-117181942D02*
X117732456Y-116896228D01*
X117732456Y-116896228D02*
X117780075Y-116800990D01*
X117780075Y-116800990D02*
X117827694Y-116753371D01*
X117827694Y-116753371D02*
X117922932Y-116705752D01*
X117922932Y-116705752D02*
X118113408Y-116705752D01*
X118113408Y-116705752D02*
X118208646Y-116753371D01*
X118780075Y-117372419D02*
X118684837Y-117324800D01*
X118684837Y-117324800D02*
X118637218Y-117277180D01*
X118637218Y-117277180D02*
X118589599Y-117181942D01*
X118589599Y-117181942D02*
X118589599Y-116896228D01*
X118589599Y-116896228D02*
X118637218Y-116800990D01*
X118637218Y-116800990D02*
X118684837Y-116753371D01*
X118684837Y-116753371D02*
X118780075Y-116705752D01*
X118780075Y-116705752D02*
X118922932Y-116705752D01*
X118922932Y-116705752D02*
X119018170Y-116753371D01*
X119018170Y-116753371D02*
X119065789Y-116800990D01*
X119065789Y-116800990D02*
X119113408Y-116896228D01*
X119113408Y-116896228D02*
X119113408Y-117181942D01*
X119113408Y-117181942D02*
X119065789Y-117277180D01*
X119065789Y-117277180D02*
X119018170Y-117324800D01*
X119018170Y-117324800D02*
X118922932Y-117372419D01*
X118922932Y-117372419D02*
X118780075Y-117372419D01*
X119541980Y-117372419D02*
X119541980Y-116705752D01*
X119541980Y-116800990D02*
X119589599Y-116753371D01*
X119589599Y-116753371D02*
X119684837Y-116705752D01*
X119684837Y-116705752D02*
X119827694Y-116705752D01*
X119827694Y-116705752D02*
X119922932Y-116753371D01*
X119922932Y-116753371D02*
X119970551Y-116848609D01*
X119970551Y-116848609D02*
X119970551Y-117372419D01*
X119970551Y-116848609D02*
X120018170Y-116753371D01*
X120018170Y-116753371D02*
X120113408Y-116705752D01*
X120113408Y-116705752D02*
X120256265Y-116705752D01*
X120256265Y-116705752D02*
X120351504Y-116753371D01*
X120351504Y-116753371D02*
X120399123Y-116848609D01*
X120399123Y-116848609D02*
X120399123Y-117372419D01*
X121589598Y-116324800D02*
X120732456Y-117610514D01*
X121922932Y-116705752D02*
X121922932Y-117705752D01*
X121922932Y-116753371D02*
X122018170Y-116705752D01*
X122018170Y-116705752D02*
X122208646Y-116705752D01*
X122208646Y-116705752D02*
X122303884Y-116753371D01*
X122303884Y-116753371D02*
X122351503Y-116800990D01*
X122351503Y-116800990D02*
X122399122Y-116896228D01*
X122399122Y-116896228D02*
X122399122Y-117181942D01*
X122399122Y-117181942D02*
X122351503Y-117277180D01*
X122351503Y-117277180D02*
X122303884Y-117324800D01*
X122303884Y-117324800D02*
X122208646Y-117372419D01*
X122208646Y-117372419D02*
X122018170Y-117372419D01*
X122018170Y-117372419D02*
X121922932Y-117324800D01*
X122827694Y-117372419D02*
X122827694Y-116705752D01*
X122827694Y-116896228D02*
X122875313Y-116800990D01*
X122875313Y-116800990D02*
X122922932Y-116753371D01*
X122922932Y-116753371D02*
X123018170Y-116705752D01*
X123018170Y-116705752D02*
X123113408Y-116705752D01*
X123351504Y-116705752D02*
X123589599Y-117372419D01*
X123827694Y-116705752D02*
X123589599Y-117372419D01*
X123589599Y-117372419D02*
X123494361Y-117610514D01*
X123494361Y-117610514D02*
X123446742Y-117658133D01*
X123446742Y-117658133D02*
X123351504Y-117705752D01*
X124637218Y-117372419D02*
X124637218Y-116372419D01*
X124637218Y-117324800D02*
X124541980Y-117372419D01*
X124541980Y-117372419D02*
X124351504Y-117372419D01*
X124351504Y-117372419D02*
X124256266Y-117324800D01*
X124256266Y-117324800D02*
X124208647Y-117277180D01*
X124208647Y-117277180D02*
X124161028Y-117181942D01*
X124161028Y-117181942D02*
X124161028Y-116896228D01*
X124161028Y-116896228D02*
X124208647Y-116800990D01*
X124208647Y-116800990D02*
X124256266Y-116753371D01*
X124256266Y-116753371D02*
X124351504Y-116705752D01*
X124351504Y-116705752D02*
X124541980Y-116705752D01*
X124541980Y-116705752D02*
X124637218Y-116753371D01*
X125113409Y-117372419D02*
X125113409Y-116705752D01*
X125113409Y-116372419D02*
X125065790Y-116420038D01*
X125065790Y-116420038D02*
X125113409Y-116467657D01*
X125113409Y-116467657D02*
X125161028Y-116420038D01*
X125161028Y-116420038D02*
X125113409Y-116372419D01*
X125113409Y-116372419D02*
X125113409Y-116467657D01*
X125589599Y-116705752D02*
X125589599Y-117372419D01*
X125589599Y-116800990D02*
X125637218Y-116753371D01*
X125637218Y-116753371D02*
X125732456Y-116705752D01*
X125732456Y-116705752D02*
X125875313Y-116705752D01*
X125875313Y-116705752D02*
X125970551Y-116753371D01*
X125970551Y-116753371D02*
X126018170Y-116848609D01*
X126018170Y-116848609D02*
X126018170Y-117372419D01*
X127208646Y-116324800D02*
X126351504Y-117610514D01*
X127541980Y-116705752D02*
X127541980Y-117705752D01*
X127541980Y-116753371D02*
X127637218Y-116705752D01*
X127637218Y-116705752D02*
X127827694Y-116705752D01*
X127827694Y-116705752D02*
X127922932Y-116753371D01*
X127922932Y-116753371D02*
X127970551Y-116800990D01*
X127970551Y-116800990D02*
X128018170Y-116896228D01*
X128018170Y-116896228D02*
X128018170Y-117181942D01*
X128018170Y-117181942D02*
X127970551Y-117277180D01*
X127970551Y-117277180D02*
X127922932Y-117324800D01*
X127922932Y-117324800D02*
X127827694Y-117372419D01*
X127827694Y-117372419D02*
X127637218Y-117372419D01*
X127637218Y-117372419D02*
X127541980Y-117324800D01*
X128875313Y-117372419D02*
X128875313Y-116848609D01*
X128875313Y-116848609D02*
X128827694Y-116753371D01*
X128827694Y-116753371D02*
X128732456Y-116705752D01*
X128732456Y-116705752D02*
X128541980Y-116705752D01*
X128541980Y-116705752D02*
X128446742Y-116753371D01*
X128875313Y-117324800D02*
X128780075Y-117372419D01*
X128780075Y-117372419D02*
X128541980Y-117372419D01*
X128541980Y-117372419D02*
X128446742Y-117324800D01*
X128446742Y-117324800D02*
X128399123Y-117229561D01*
X128399123Y-117229561D02*
X128399123Y-117134323D01*
X128399123Y-117134323D02*
X128446742Y-117039085D01*
X128446742Y-117039085D02*
X128541980Y-116991466D01*
X128541980Y-116991466D02*
X128780075Y-116991466D01*
X128780075Y-116991466D02*
X128875313Y-116943847D01*
X129351504Y-117372419D02*
X129351504Y-116705752D01*
X129351504Y-116896228D02*
X129399123Y-116800990D01*
X129399123Y-116800990D02*
X129446742Y-116753371D01*
X129446742Y-116753371D02*
X129541980Y-116705752D01*
X129541980Y-116705752D02*
X129637218Y-116705752D01*
X130399123Y-117372419D02*
X130399123Y-116848609D01*
X130399123Y-116848609D02*
X130351504Y-116753371D01*
X130351504Y-116753371D02*
X130256266Y-116705752D01*
X130256266Y-116705752D02*
X130065790Y-116705752D01*
X130065790Y-116705752D02*
X129970552Y-116753371D01*
X130399123Y-117324800D02*
X130303885Y-117372419D01*
X130303885Y-117372419D02*
X130065790Y-117372419D01*
X130065790Y-117372419D02*
X129970552Y-117324800D01*
X129970552Y-117324800D02*
X129922933Y-117229561D01*
X129922933Y-117229561D02*
X129922933Y-117134323D01*
X129922933Y-117134323D02*
X129970552Y-117039085D01*
X129970552Y-117039085D02*
X130065790Y-116991466D01*
X130065790Y-116991466D02*
X130303885Y-116991466D01*
X130303885Y-116991466D02*
X130399123Y-116943847D01*
X130875314Y-117372419D02*
X130875314Y-116705752D01*
X130875314Y-116800990D02*
X130922933Y-116753371D01*
X130922933Y-116753371D02*
X131018171Y-116705752D01*
X131018171Y-116705752D02*
X131161028Y-116705752D01*
X131161028Y-116705752D02*
X131256266Y-116753371D01*
X131256266Y-116753371D02*
X131303885Y-116848609D01*
X131303885Y-116848609D02*
X131303885Y-117372419D01*
X131303885Y-116848609D02*
X131351504Y-116753371D01*
X131351504Y-116753371D02*
X131446742Y-116705752D01*
X131446742Y-116705752D02*
X131589599Y-116705752D01*
X131589599Y-116705752D02*
X131684838Y-116753371D01*
X131684838Y-116753371D02*
X131732457Y-116848609D01*
X131732457Y-116848609D02*
X131732457Y-117372419D01*
X132208647Y-116991466D02*
X132970552Y-116991466D01*
X133827694Y-117324800D02*
X133732456Y-117372419D01*
X133732456Y-117372419D02*
X133541980Y-117372419D01*
X133541980Y-117372419D02*
X133446742Y-117324800D01*
X133446742Y-117324800D02*
X133399123Y-117229561D01*
X133399123Y-117229561D02*
X133399123Y-116848609D01*
X133399123Y-116848609D02*
X133446742Y-116753371D01*
X133446742Y-116753371D02*
X133541980Y-116705752D01*
X133541980Y-116705752D02*
X133732456Y-116705752D01*
X133732456Y-116705752D02*
X133827694Y-116753371D01*
X133827694Y-116753371D02*
X133875313Y-116848609D01*
X133875313Y-116848609D02*
X133875313Y-116943847D01*
X133875313Y-116943847D02*
X133399123Y-117039085D01*
X134732456Y-116705752D02*
X134732456Y-117705752D01*
X134732456Y-117324800D02*
X134637218Y-117372419D01*
X134637218Y-117372419D02*
X134446742Y-117372419D01*
X134446742Y-117372419D02*
X134351504Y-117324800D01*
X134351504Y-117324800D02*
X134303885Y-117277180D01*
X134303885Y-117277180D02*
X134256266Y-117181942D01*
X134256266Y-117181942D02*
X134256266Y-116896228D01*
X134256266Y-116896228D02*
X134303885Y-116800990D01*
X134303885Y-116800990D02*
X134351504Y-116753371D01*
X134351504Y-116753371D02*
X134446742Y-116705752D01*
X134446742Y-116705752D02*
X134637218Y-116705752D01*
X134637218Y-116705752D02*
X134732456Y-116753371D01*
X167803884Y-46372419D02*
X167803884Y-45372419D01*
X168232455Y-45467657D02*
X168280074Y-45420038D01*
X168280074Y-45420038D02*
X168375312Y-45372419D01*
X168375312Y-45372419D02*
X168613407Y-45372419D01*
X168613407Y-45372419D02*
X168708645Y-45420038D01*
X168708645Y-45420038D02*
X168756264Y-45467657D01*
X168756264Y-45467657D02*
X168803883Y-45562895D01*
X168803883Y-45562895D02*
X168803883Y-45658133D01*
X168803883Y-45658133D02*
X168756264Y-45800990D01*
X168756264Y-45800990D02*
X168184836Y-46372419D01*
X168184836Y-46372419D02*
X168803883Y-46372419D01*
X169184836Y-46324800D02*
X169327693Y-46372419D01*
X169327693Y-46372419D02*
X169565788Y-46372419D01*
X169565788Y-46372419D02*
X169661026Y-46324800D01*
X169661026Y-46324800D02*
X169708645Y-46277180D01*
X169708645Y-46277180D02*
X169756264Y-46181942D01*
X169756264Y-46181942D02*
X169756264Y-46086704D01*
X169756264Y-46086704D02*
X169708645Y-45991466D01*
X169708645Y-45991466D02*
X169661026Y-45943847D01*
X169661026Y-45943847D02*
X169565788Y-45896228D01*
X169565788Y-45896228D02*
X169375312Y-45848609D01*
X169375312Y-45848609D02*
X169280074Y-45800990D01*
X169280074Y-45800990D02*
X169232455Y-45753371D01*
X169232455Y-45753371D02*
X169184836Y-45658133D01*
X169184836Y-45658133D02*
X169184836Y-45562895D01*
X169184836Y-45562895D02*
X169232455Y-45467657D01*
X169232455Y-45467657D02*
X169280074Y-45420038D01*
X169280074Y-45420038D02*
X169375312Y-45372419D01*
X169375312Y-45372419D02*
X169613407Y-45372419D01*
X169613407Y-45372419D02*
X169756264Y-45420038D01*
X170946741Y-46372419D02*
X170946741Y-45372419D01*
X171422931Y-46372419D02*
X171422931Y-45372419D01*
X171422931Y-45372419D02*
X171994359Y-46372419D01*
X171994359Y-46372419D02*
X171994359Y-45372419D01*
X176848609Y-97362782D02*
X176848609Y-97696115D01*
X177372419Y-97696115D02*
X176372419Y-97696115D01*
X176372419Y-97696115D02*
X176372419Y-97219925D01*
X177372419Y-96838972D02*
X176372419Y-96838972D01*
X177372419Y-95886592D02*
X177372419Y-96362782D01*
X177372419Y-96362782D02*
X176372419Y-96362782D01*
X176372419Y-95696115D02*
X176372419Y-95124687D01*
X177372419Y-95410401D02*
X176372419Y-95410401D01*
X176848609Y-94791353D02*
X176848609Y-94458020D01*
X177372419Y-94315163D02*
X177372419Y-94791353D01*
X177372419Y-94791353D02*
X176372419Y-94791353D01*
X176372419Y-94791353D02*
X176372419Y-94315163D01*
X177372419Y-93315163D02*
X176896228Y-93648496D01*
X177372419Y-93886591D02*
X176372419Y-93886591D01*
X176372419Y-93886591D02*
X176372419Y-93505639D01*
X176372419Y-93505639D02*
X176420038Y-93410401D01*
X176420038Y-93410401D02*
X176467657Y-93362782D01*
X176467657Y-93362782D02*
X176562895Y-93315163D01*
X176562895Y-93315163D02*
X176705752Y-93315163D01*
X176705752Y-93315163D02*
X176800990Y-93362782D01*
X176800990Y-93362782D02*
X176848609Y-93410401D01*
X176848609Y-93410401D02*
X176896228Y-93505639D01*
X176896228Y-93505639D02*
X176896228Y-93886591D01*
X176420038Y-91600877D02*
X176372419Y-91696115D01*
X176372419Y-91696115D02*
X176372419Y-91838972D01*
X176372419Y-91838972D02*
X176420038Y-91981829D01*
X176420038Y-91981829D02*
X176515276Y-92077067D01*
X176515276Y-92077067D02*
X176610514Y-92124686D01*
X176610514Y-92124686D02*
X176800990Y-92172305D01*
X176800990Y-92172305D02*
X176943847Y-92172305D01*
X176943847Y-92172305D02*
X177134323Y-92124686D01*
X177134323Y-92124686D02*
X177229561Y-92077067D01*
X177229561Y-92077067D02*
X177324800Y-91981829D01*
X177324800Y-91981829D02*
X177372419Y-91838972D01*
X177372419Y-91838972D02*
X177372419Y-91743734D01*
X177372419Y-91743734D02*
X177324800Y-91600877D01*
X177324800Y-91600877D02*
X177277180Y-91553258D01*
X177277180Y-91553258D02*
X176943847Y-91553258D01*
X176943847Y-91553258D02*
X176943847Y-91743734D01*
X177086704Y-91172305D02*
X177086704Y-90696115D01*
X177372419Y-91267543D02*
X176372419Y-90934210D01*
X176372419Y-90934210D02*
X177372419Y-90600877D01*
X177372419Y-90267543D02*
X176372419Y-90267543D01*
X177372419Y-89791353D02*
X176372419Y-89791353D01*
X176372419Y-89791353D02*
X177372419Y-89219925D01*
X177372419Y-89219925D02*
X176372419Y-89219925D01*
X176803884Y-63491466D02*
X177565789Y-63491466D01*
X177184836Y-63872419D02*
X177184836Y-63110514D01*
X106756265Y-105324800D02*
X106899122Y-105372419D01*
X106899122Y-105372419D02*
X107137217Y-105372419D01*
X107137217Y-105372419D02*
X107232455Y-105324800D01*
X107232455Y-105324800D02*
X107280074Y-105277180D01*
X107280074Y-105277180D02*
X107327693Y-105181942D01*
X107327693Y-105181942D02*
X107327693Y-105086704D01*
X107327693Y-105086704D02*
X107280074Y-104991466D01*
X107280074Y-104991466D02*
X107232455Y-104943847D01*
X107232455Y-104943847D02*
X107137217Y-104896228D01*
X107137217Y-104896228D02*
X106946741Y-104848609D01*
X106946741Y-104848609D02*
X106851503Y-104800990D01*
X106851503Y-104800990D02*
X106803884Y-104753371D01*
X106803884Y-104753371D02*
X106756265Y-104658133D01*
X106756265Y-104658133D02*
X106756265Y-104562895D01*
X106756265Y-104562895D02*
X106803884Y-104467657D01*
X106803884Y-104467657D02*
X106851503Y-104420038D01*
X106851503Y-104420038D02*
X106946741Y-104372419D01*
X106946741Y-104372419D02*
X107184836Y-104372419D01*
X107184836Y-104372419D02*
X107327693Y-104420038D01*
X108470550Y-104324800D02*
X107613408Y-105610514D01*
X108803884Y-105372419D02*
X108803884Y-104372419D01*
X108803884Y-104372419D02*
X109184836Y-104372419D01*
X109184836Y-104372419D02*
X109280074Y-104420038D01*
X109280074Y-104420038D02*
X109327693Y-104467657D01*
X109327693Y-104467657D02*
X109375312Y-104562895D01*
X109375312Y-104562895D02*
X109375312Y-104705752D01*
X109375312Y-104705752D02*
X109327693Y-104800990D01*
X109327693Y-104800990D02*
X109280074Y-104848609D01*
X109280074Y-104848609D02*
X109184836Y-104896228D01*
X109184836Y-104896228D02*
X108803884Y-104896228D01*
X109803884Y-105372419D02*
X109803884Y-104372419D01*
X110280074Y-105372419D02*
X110280074Y-104372419D01*
X110280074Y-104372419D02*
X110518169Y-104372419D01*
X110518169Y-104372419D02*
X110661026Y-104420038D01*
X110661026Y-104420038D02*
X110756264Y-104515276D01*
X110756264Y-104515276D02*
X110803883Y-104610514D01*
X110803883Y-104610514D02*
X110851502Y-104800990D01*
X110851502Y-104800990D02*
X110851502Y-104943847D01*
X110851502Y-104943847D02*
X110803883Y-105134323D01*
X110803883Y-105134323D02*
X110756264Y-105229561D01*
X110756264Y-105229561D02*
X110661026Y-105324800D01*
X110661026Y-105324800D02*
X110518169Y-105372419D01*
X110518169Y-105372419D02*
X110280074Y-105372419D01*
X111280074Y-105372419D02*
X111280074Y-104372419D01*
X112089597Y-104848609D02*
X111756264Y-104848609D01*
X111756264Y-105372419D02*
X111756264Y-104372419D01*
X111756264Y-104372419D02*
X112232454Y-104372419D01*
X113375312Y-105372419D02*
X113375312Y-104372419D01*
X113851502Y-105372419D02*
X113851502Y-104372419D01*
X113851502Y-104372419D02*
X114422930Y-105372419D01*
X114422930Y-105372419D02*
X114422930Y-104372419D01*
X162372419Y-72696115D02*
X161372419Y-72696115D01*
X161372419Y-72696115D02*
X161372419Y-72458020D01*
X161372419Y-72458020D02*
X161420038Y-72315163D01*
X161420038Y-72315163D02*
X161515276Y-72219925D01*
X161515276Y-72219925D02*
X161610514Y-72172306D01*
X161610514Y-72172306D02*
X161800990Y-72124687D01*
X161800990Y-72124687D02*
X161943847Y-72124687D01*
X161943847Y-72124687D02*
X162134323Y-72172306D01*
X162134323Y-72172306D02*
X162229561Y-72219925D01*
X162229561Y-72219925D02*
X162324800Y-72315163D01*
X162324800Y-72315163D02*
X162372419Y-72458020D01*
X162372419Y-72458020D02*
X162372419Y-72696115D01*
X162086704Y-71743734D02*
X162086704Y-71267544D01*
X162372419Y-71838972D02*
X161372419Y-71505639D01*
X161372419Y-71505639D02*
X162372419Y-71172306D01*
X162277180Y-70267544D02*
X162324800Y-70315163D01*
X162324800Y-70315163D02*
X162372419Y-70458020D01*
X162372419Y-70458020D02*
X162372419Y-70553258D01*
X162372419Y-70553258D02*
X162324800Y-70696115D01*
X162324800Y-70696115D02*
X162229561Y-70791353D01*
X162229561Y-70791353D02*
X162134323Y-70838972D01*
X162134323Y-70838972D02*
X161943847Y-70886591D01*
X161943847Y-70886591D02*
X161800990Y-70886591D01*
X161800990Y-70886591D02*
X161610514Y-70838972D01*
X161610514Y-70838972D02*
X161515276Y-70791353D01*
X161515276Y-70791353D02*
X161420038Y-70696115D01*
X161420038Y-70696115D02*
X161372419Y-70553258D01*
X161372419Y-70553258D02*
X161372419Y-70458020D01*
X161372419Y-70458020D02*
X161420038Y-70315163D01*
X161420038Y-70315163D02*
X161467657Y-70267544D01*
X162277180Y-68505639D02*
X162324800Y-68553258D01*
X162324800Y-68553258D02*
X162372419Y-68696115D01*
X162372419Y-68696115D02*
X162372419Y-68791353D01*
X162372419Y-68791353D02*
X162324800Y-68934210D01*
X162324800Y-68934210D02*
X162229561Y-69029448D01*
X162229561Y-69029448D02*
X162134323Y-69077067D01*
X162134323Y-69077067D02*
X161943847Y-69124686D01*
X161943847Y-69124686D02*
X161800990Y-69124686D01*
X161800990Y-69124686D02*
X161610514Y-69077067D01*
X161610514Y-69077067D02*
X161515276Y-69029448D01*
X161515276Y-69029448D02*
X161420038Y-68934210D01*
X161420038Y-68934210D02*
X161372419Y-68791353D01*
X161372419Y-68791353D02*
X161372419Y-68696115D01*
X161372419Y-68696115D02*
X161420038Y-68553258D01*
X161420038Y-68553258D02*
X161467657Y-68505639D01*
X161372419Y-67886591D02*
X161372419Y-67696115D01*
X161372419Y-67696115D02*
X161420038Y-67600877D01*
X161420038Y-67600877D02*
X161515276Y-67505639D01*
X161515276Y-67505639D02*
X161705752Y-67458020D01*
X161705752Y-67458020D02*
X162039085Y-67458020D01*
X162039085Y-67458020D02*
X162229561Y-67505639D01*
X162229561Y-67505639D02*
X162324800Y-67600877D01*
X162324800Y-67600877D02*
X162372419Y-67696115D01*
X162372419Y-67696115D02*
X162372419Y-67886591D01*
X162372419Y-67886591D02*
X162324800Y-67981829D01*
X162324800Y-67981829D02*
X162229561Y-68077067D01*
X162229561Y-68077067D02*
X162039085Y-68124686D01*
X162039085Y-68124686D02*
X161705752Y-68124686D01*
X161705752Y-68124686D02*
X161515276Y-68077067D01*
X161515276Y-68077067D02*
X161420038Y-67981829D01*
X161420038Y-67981829D02*
X161372419Y-67886591D01*
X162372419Y-67029448D02*
X161372419Y-67029448D01*
X161372419Y-67029448D02*
X162372419Y-66458020D01*
X162372419Y-66458020D02*
X161372419Y-66458020D01*
X161372419Y-66124686D02*
X161372419Y-65553258D01*
X162372419Y-65838972D02*
X161372419Y-65838972D01*
X162372419Y-64648496D02*
X161896228Y-64981829D01*
X162372419Y-65219924D02*
X161372419Y-65219924D01*
X161372419Y-65219924D02*
X161372419Y-64838972D01*
X161372419Y-64838972D02*
X161420038Y-64743734D01*
X161420038Y-64743734D02*
X161467657Y-64696115D01*
X161467657Y-64696115D02*
X161562895Y-64648496D01*
X161562895Y-64648496D02*
X161705752Y-64648496D01*
X161705752Y-64648496D02*
X161800990Y-64696115D01*
X161800990Y-64696115D02*
X161848609Y-64743734D01*
X161848609Y-64743734D02*
X161896228Y-64838972D01*
X161896228Y-64838972D02*
X161896228Y-65219924D01*
X161372419Y-64029448D02*
X161372419Y-63838972D01*
X161372419Y-63838972D02*
X161420038Y-63743734D01*
X161420038Y-63743734D02*
X161515276Y-63648496D01*
X161515276Y-63648496D02*
X161705752Y-63600877D01*
X161705752Y-63600877D02*
X162039085Y-63600877D01*
X162039085Y-63600877D02*
X162229561Y-63648496D01*
X162229561Y-63648496D02*
X162324800Y-63743734D01*
X162324800Y-63743734D02*
X162372419Y-63838972D01*
X162372419Y-63838972D02*
X162372419Y-64029448D01*
X162372419Y-64029448D02*
X162324800Y-64124686D01*
X162324800Y-64124686D02*
X162229561Y-64219924D01*
X162229561Y-64219924D02*
X162039085Y-64267543D01*
X162039085Y-64267543D02*
X161705752Y-64267543D01*
X161705752Y-64267543D02*
X161515276Y-64219924D01*
X161515276Y-64219924D02*
X161420038Y-64124686D01*
X161420038Y-64124686D02*
X161372419Y-64029448D01*
X162372419Y-62696115D02*
X162372419Y-63172305D01*
X162372419Y-63172305D02*
X161372419Y-63172305D01*
X176848609Y-108862782D02*
X176848609Y-109196115D01*
X177372419Y-109196115D02*
X176372419Y-109196115D01*
X176372419Y-109196115D02*
X176372419Y-108719925D01*
X177277180Y-107767544D02*
X177324800Y-107815163D01*
X177324800Y-107815163D02*
X177372419Y-107958020D01*
X177372419Y-107958020D02*
X177372419Y-108053258D01*
X177372419Y-108053258D02*
X177324800Y-108196115D01*
X177324800Y-108196115D02*
X177229561Y-108291353D01*
X177229561Y-108291353D02*
X177134323Y-108338972D01*
X177134323Y-108338972D02*
X176943847Y-108386591D01*
X176943847Y-108386591D02*
X176800990Y-108386591D01*
X176800990Y-108386591D02*
X176610514Y-108338972D01*
X176610514Y-108338972D02*
X176515276Y-108291353D01*
X176515276Y-108291353D02*
X176420038Y-108196115D01*
X176420038Y-108196115D02*
X176372419Y-108053258D01*
X176372419Y-108053258D02*
X176372419Y-107958020D01*
X176372419Y-107958020D02*
X176420038Y-107815163D01*
X176420038Y-107815163D02*
X176467657Y-107767544D01*
X114420038Y-101997306D02*
X114372419Y-102092544D01*
X114372419Y-102092544D02*
X114372419Y-102235401D01*
X114372419Y-102235401D02*
X114420038Y-102378258D01*
X114420038Y-102378258D02*
X114515276Y-102473496D01*
X114515276Y-102473496D02*
X114610514Y-102521115D01*
X114610514Y-102521115D02*
X114800990Y-102568734D01*
X114800990Y-102568734D02*
X114943847Y-102568734D01*
X114943847Y-102568734D02*
X115134323Y-102521115D01*
X115134323Y-102521115D02*
X115229561Y-102473496D01*
X115229561Y-102473496D02*
X115324800Y-102378258D01*
X115324800Y-102378258D02*
X115372419Y-102235401D01*
X115372419Y-102235401D02*
X115372419Y-102140163D01*
X115372419Y-102140163D02*
X115324800Y-101997306D01*
X115324800Y-101997306D02*
X115277180Y-101949687D01*
X115277180Y-101949687D02*
X114943847Y-101949687D01*
X114943847Y-101949687D02*
X114943847Y-102140163D01*
X115372419Y-101521115D02*
X114372419Y-101521115D01*
X114372419Y-101521115D02*
X114372419Y-101140163D01*
X114372419Y-101140163D02*
X114420038Y-101044925D01*
X114420038Y-101044925D02*
X114467657Y-100997306D01*
X114467657Y-100997306D02*
X114562895Y-100949687D01*
X114562895Y-100949687D02*
X114705752Y-100949687D01*
X114705752Y-100949687D02*
X114800990Y-100997306D01*
X114800990Y-100997306D02*
X114848609Y-101044925D01*
X114848609Y-101044925D02*
X114896228Y-101140163D01*
X114896228Y-101140163D02*
X114896228Y-101521115D01*
X115372419Y-100521115D02*
X114372419Y-100521115D01*
X114372419Y-99854449D02*
X114372419Y-99663973D01*
X114372419Y-99663973D02*
X114420038Y-99568735D01*
X114420038Y-99568735D02*
X114515276Y-99473497D01*
X114515276Y-99473497D02*
X114705752Y-99425878D01*
X114705752Y-99425878D02*
X115039085Y-99425878D01*
X115039085Y-99425878D02*
X115229561Y-99473497D01*
X115229561Y-99473497D02*
X115324800Y-99568735D01*
X115324800Y-99568735D02*
X115372419Y-99663973D01*
X115372419Y-99663973D02*
X115372419Y-99854449D01*
X115372419Y-99854449D02*
X115324800Y-99949687D01*
X115324800Y-99949687D02*
X115229561Y-100044925D01*
X115229561Y-100044925D02*
X115039085Y-100092544D01*
X115039085Y-100092544D02*
X114705752Y-100092544D01*
X114705752Y-100092544D02*
X114515276Y-100044925D01*
X114515276Y-100044925D02*
X114420038Y-99949687D01*
X114420038Y-99949687D02*
X114372419Y-99854449D01*
X97586704Y-106743734D02*
X97586704Y-106267544D01*
X97872419Y-106838972D02*
X96872419Y-106505639D01*
X96872419Y-106505639D02*
X97872419Y-106172306D01*
X96872419Y-105838972D02*
X97681942Y-105838972D01*
X97681942Y-105838972D02*
X97777180Y-105791353D01*
X97777180Y-105791353D02*
X97824800Y-105743734D01*
X97824800Y-105743734D02*
X97872419Y-105648496D01*
X97872419Y-105648496D02*
X97872419Y-105458020D01*
X97872419Y-105458020D02*
X97824800Y-105362782D01*
X97824800Y-105362782D02*
X97777180Y-105315163D01*
X97777180Y-105315163D02*
X97681942Y-105267544D01*
X97681942Y-105267544D02*
X96872419Y-105267544D01*
X96872419Y-104886591D02*
X97872419Y-104219925D01*
X96872419Y-104219925D02*
X97872419Y-104886591D01*
X150872419Y-70196115D02*
X149872419Y-70196115D01*
X149872419Y-70196115D02*
X149872419Y-69958020D01*
X149872419Y-69958020D02*
X149920038Y-69815163D01*
X149920038Y-69815163D02*
X150015276Y-69719925D01*
X150015276Y-69719925D02*
X150110514Y-69672306D01*
X150110514Y-69672306D02*
X150300990Y-69624687D01*
X150300990Y-69624687D02*
X150443847Y-69624687D01*
X150443847Y-69624687D02*
X150634323Y-69672306D01*
X150634323Y-69672306D02*
X150729561Y-69719925D01*
X150729561Y-69719925D02*
X150824800Y-69815163D01*
X150824800Y-69815163D02*
X150872419Y-69958020D01*
X150872419Y-69958020D02*
X150872419Y-70196115D01*
X150872419Y-69196115D02*
X149872419Y-69196115D01*
X150824800Y-68767544D02*
X150872419Y-68624687D01*
X150872419Y-68624687D02*
X150872419Y-68386592D01*
X150872419Y-68386592D02*
X150824800Y-68291354D01*
X150824800Y-68291354D02*
X150777180Y-68243735D01*
X150777180Y-68243735D02*
X150681942Y-68196116D01*
X150681942Y-68196116D02*
X150586704Y-68196116D01*
X150586704Y-68196116D02*
X150491466Y-68243735D01*
X150491466Y-68243735D02*
X150443847Y-68291354D01*
X150443847Y-68291354D02*
X150396228Y-68386592D01*
X150396228Y-68386592D02*
X150348609Y-68577068D01*
X150348609Y-68577068D02*
X150300990Y-68672306D01*
X150300990Y-68672306D02*
X150253371Y-68719925D01*
X150253371Y-68719925D02*
X150158133Y-68767544D01*
X150158133Y-68767544D02*
X150062895Y-68767544D01*
X150062895Y-68767544D02*
X149967657Y-68719925D01*
X149967657Y-68719925D02*
X149920038Y-68672306D01*
X149920038Y-68672306D02*
X149872419Y-68577068D01*
X149872419Y-68577068D02*
X149872419Y-68338973D01*
X149872419Y-68338973D02*
X149920038Y-68196116D01*
X150872419Y-67767544D02*
X149872419Y-67767544D01*
X149872419Y-67767544D02*
X149872419Y-67386592D01*
X149872419Y-67386592D02*
X149920038Y-67291354D01*
X149920038Y-67291354D02*
X149967657Y-67243735D01*
X149967657Y-67243735D02*
X150062895Y-67196116D01*
X150062895Y-67196116D02*
X150205752Y-67196116D01*
X150205752Y-67196116D02*
X150300990Y-67243735D01*
X150300990Y-67243735D02*
X150348609Y-67291354D01*
X150348609Y-67291354D02*
X150396228Y-67386592D01*
X150396228Y-67386592D02*
X150396228Y-67767544D01*
X150872419Y-66291354D02*
X150872419Y-66767544D01*
X150872419Y-66767544D02*
X149872419Y-66767544D01*
X150586704Y-66005639D02*
X150586704Y-65529449D01*
X150872419Y-66100877D02*
X149872419Y-65767544D01*
X149872419Y-65767544D02*
X150872419Y-65434211D01*
X150396228Y-64910401D02*
X150872419Y-64910401D01*
X149872419Y-65243734D02*
X150396228Y-64910401D01*
X150396228Y-64910401D02*
X149872419Y-64577068D01*
X147327693Y-46920038D02*
X147232455Y-46872419D01*
X147232455Y-46872419D02*
X147089598Y-46872419D01*
X147089598Y-46872419D02*
X146946741Y-46920038D01*
X146946741Y-46920038D02*
X146851503Y-47015276D01*
X146851503Y-47015276D02*
X146803884Y-47110514D01*
X146803884Y-47110514D02*
X146756265Y-47300990D01*
X146756265Y-47300990D02*
X146756265Y-47443847D01*
X146756265Y-47443847D02*
X146803884Y-47634323D01*
X146803884Y-47634323D02*
X146851503Y-47729561D01*
X146851503Y-47729561D02*
X146946741Y-47824800D01*
X146946741Y-47824800D02*
X147089598Y-47872419D01*
X147089598Y-47872419D02*
X147184836Y-47872419D01*
X147184836Y-47872419D02*
X147327693Y-47824800D01*
X147327693Y-47824800D02*
X147375312Y-47777180D01*
X147375312Y-47777180D02*
X147375312Y-47443847D01*
X147375312Y-47443847D02*
X147184836Y-47443847D01*
X177467657Y-78529449D02*
X177420038Y-78624687D01*
X177420038Y-78624687D02*
X177324800Y-78719925D01*
X177324800Y-78719925D02*
X177181942Y-78862782D01*
X177181942Y-78862782D02*
X177134323Y-78958020D01*
X177134323Y-78958020D02*
X177134323Y-79053258D01*
X177372419Y-79005639D02*
X177324800Y-79100877D01*
X177324800Y-79100877D02*
X177229561Y-79196115D01*
X177229561Y-79196115D02*
X177039085Y-79243734D01*
X177039085Y-79243734D02*
X176705752Y-79243734D01*
X176705752Y-79243734D02*
X176515276Y-79196115D01*
X176515276Y-79196115D02*
X176420038Y-79100877D01*
X176420038Y-79100877D02*
X176372419Y-79005639D01*
X176372419Y-79005639D02*
X176372419Y-78815163D01*
X176372419Y-78815163D02*
X176420038Y-78719925D01*
X176420038Y-78719925D02*
X176515276Y-78624687D01*
X176515276Y-78624687D02*
X176705752Y-78577068D01*
X176705752Y-78577068D02*
X177039085Y-78577068D01*
X177039085Y-78577068D02*
X177229561Y-78624687D01*
X177229561Y-78624687D02*
X177324800Y-78719925D01*
X177324800Y-78719925D02*
X177372419Y-78815163D01*
X177372419Y-78815163D02*
X177372419Y-79005639D01*
X147303884Y-46372419D02*
X147303884Y-45372419D01*
X147732455Y-45467657D02*
X147780074Y-45420038D01*
X147780074Y-45420038D02*
X147875312Y-45372419D01*
X147875312Y-45372419D02*
X148113407Y-45372419D01*
X148113407Y-45372419D02*
X148208645Y-45420038D01*
X148208645Y-45420038D02*
X148256264Y-45467657D01*
X148256264Y-45467657D02*
X148303883Y-45562895D01*
X148303883Y-45562895D02*
X148303883Y-45658133D01*
X148303883Y-45658133D02*
X148256264Y-45800990D01*
X148256264Y-45800990D02*
X147684836Y-46372419D01*
X147684836Y-46372419D02*
X148303883Y-46372419D01*
X148684836Y-46324800D02*
X148827693Y-46372419D01*
X148827693Y-46372419D02*
X149065788Y-46372419D01*
X149065788Y-46372419D02*
X149161026Y-46324800D01*
X149161026Y-46324800D02*
X149208645Y-46277180D01*
X149208645Y-46277180D02*
X149256264Y-46181942D01*
X149256264Y-46181942D02*
X149256264Y-46086704D01*
X149256264Y-46086704D02*
X149208645Y-45991466D01*
X149208645Y-45991466D02*
X149161026Y-45943847D01*
X149161026Y-45943847D02*
X149065788Y-45896228D01*
X149065788Y-45896228D02*
X148875312Y-45848609D01*
X148875312Y-45848609D02*
X148780074Y-45800990D01*
X148780074Y-45800990D02*
X148732455Y-45753371D01*
X148732455Y-45753371D02*
X148684836Y-45658133D01*
X148684836Y-45658133D02*
X148684836Y-45562895D01*
X148684836Y-45562895D02*
X148732455Y-45467657D01*
X148732455Y-45467657D02*
X148780074Y-45420038D01*
X148780074Y-45420038D02*
X148875312Y-45372419D01*
X148875312Y-45372419D02*
X149113407Y-45372419D01*
X149113407Y-45372419D02*
X149256264Y-45420038D01*
X150637217Y-45372419D02*
X150827693Y-45372419D01*
X150827693Y-45372419D02*
X150922931Y-45420038D01*
X150922931Y-45420038D02*
X151018169Y-45515276D01*
X151018169Y-45515276D02*
X151065788Y-45705752D01*
X151065788Y-45705752D02*
X151065788Y-46039085D01*
X151065788Y-46039085D02*
X151018169Y-46229561D01*
X151018169Y-46229561D02*
X150922931Y-46324800D01*
X150922931Y-46324800D02*
X150827693Y-46372419D01*
X150827693Y-46372419D02*
X150637217Y-46372419D01*
X150637217Y-46372419D02*
X150541979Y-46324800D01*
X150541979Y-46324800D02*
X150446741Y-46229561D01*
X150446741Y-46229561D02*
X150399122Y-46039085D01*
X150399122Y-46039085D02*
X150399122Y-45705752D01*
X150399122Y-45705752D02*
X150446741Y-45515276D01*
X150446741Y-45515276D02*
X150541979Y-45420038D01*
X150541979Y-45420038D02*
X150637217Y-45372419D01*
X151494360Y-45372419D02*
X151494360Y-46181942D01*
X151494360Y-46181942D02*
X151541979Y-46277180D01*
X151541979Y-46277180D02*
X151589598Y-46324800D01*
X151589598Y-46324800D02*
X151684836Y-46372419D01*
X151684836Y-46372419D02*
X151875312Y-46372419D01*
X151875312Y-46372419D02*
X151970550Y-46324800D01*
X151970550Y-46324800D02*
X152018169Y-46277180D01*
X152018169Y-46277180D02*
X152065788Y-46181942D01*
X152065788Y-46181942D02*
X152065788Y-45372419D01*
X152399122Y-45372419D02*
X152970550Y-45372419D01*
X152684836Y-46372419D02*
X152684836Y-45372419D01*
X167327693Y-46920038D02*
X167232455Y-46872419D01*
X167232455Y-46872419D02*
X167089598Y-46872419D01*
X167089598Y-46872419D02*
X166946741Y-46920038D01*
X166946741Y-46920038D02*
X166851503Y-47015276D01*
X166851503Y-47015276D02*
X166803884Y-47110514D01*
X166803884Y-47110514D02*
X166756265Y-47300990D01*
X166756265Y-47300990D02*
X166756265Y-47443847D01*
X166756265Y-47443847D02*
X166803884Y-47634323D01*
X166803884Y-47634323D02*
X166851503Y-47729561D01*
X166851503Y-47729561D02*
X166946741Y-47824800D01*
X166946741Y-47824800D02*
X167089598Y-47872419D01*
X167089598Y-47872419D02*
X167184836Y-47872419D01*
X167184836Y-47872419D02*
X167327693Y-47824800D01*
X167327693Y-47824800D02*
X167375312Y-47777180D01*
X167375312Y-47777180D02*
X167375312Y-47443847D01*
X167375312Y-47443847D02*
X167184836Y-47443847D01*
X112303884Y-49491466D02*
X113065789Y-49491466D01*
X112684836Y-49872419D02*
X112684836Y-49110514D01*
X114018169Y-48872419D02*
X113541979Y-48872419D01*
X113541979Y-48872419D02*
X113494360Y-49348609D01*
X113494360Y-49348609D02*
X113541979Y-49300990D01*
X113541979Y-49300990D02*
X113637217Y-49253371D01*
X113637217Y-49253371D02*
X113875312Y-49253371D01*
X113875312Y-49253371D02*
X113970550Y-49300990D01*
X113970550Y-49300990D02*
X114018169Y-49348609D01*
X114018169Y-49348609D02*
X114065788Y-49443847D01*
X114065788Y-49443847D02*
X114065788Y-49681942D01*
X114065788Y-49681942D02*
X114018169Y-49777180D01*
X114018169Y-49777180D02*
X113970550Y-49824800D01*
X113970550Y-49824800D02*
X113875312Y-49872419D01*
X113875312Y-49872419D02*
X113637217Y-49872419D01*
X113637217Y-49872419D02*
X113541979Y-49824800D01*
X113541979Y-49824800D02*
X113494360Y-49777180D01*
X114351503Y-48872419D02*
X114684836Y-49872419D01*
X114684836Y-49872419D02*
X115018169Y-48872419D01*
X152803884Y-47872419D02*
X152803884Y-46872419D01*
X152803884Y-46872419D02*
X153041979Y-46872419D01*
X153041979Y-46872419D02*
X153184836Y-46920038D01*
X153184836Y-46920038D02*
X153280074Y-47015276D01*
X153280074Y-47015276D02*
X153327693Y-47110514D01*
X153327693Y-47110514D02*
X153375312Y-47300990D01*
X153375312Y-47300990D02*
X153375312Y-47443847D01*
X153375312Y-47443847D02*
X153327693Y-47634323D01*
X153327693Y-47634323D02*
X153280074Y-47729561D01*
X153280074Y-47729561D02*
X153184836Y-47824800D01*
X153184836Y-47824800D02*
X153041979Y-47872419D01*
X153041979Y-47872419D02*
X152803884Y-47872419D01*
D11*
X168034819Y-57616666D02*
X167558628Y-57949999D01*
X168034819Y-58188094D02*
X167034819Y-58188094D01*
X167034819Y-58188094D02*
X167034819Y-57807142D01*
X167034819Y-57807142D02*
X167082438Y-57711904D01*
X167082438Y-57711904D02*
X167130057Y-57664285D01*
X167130057Y-57664285D02*
X167225295Y-57616666D01*
X167225295Y-57616666D02*
X167368152Y-57616666D01*
X167368152Y-57616666D02*
X167463390Y-57664285D01*
X167463390Y-57664285D02*
X167511009Y-57711904D01*
X167511009Y-57711904D02*
X167558628Y-57807142D01*
X167558628Y-57807142D02*
X167558628Y-58188094D01*
X167130057Y-57235713D02*
X167082438Y-57188094D01*
X167082438Y-57188094D02*
X167034819Y-57092856D01*
X167034819Y-57092856D02*
X167034819Y-56854761D01*
X167034819Y-56854761D02*
X167082438Y-56759523D01*
X167082438Y-56759523D02*
X167130057Y-56711904D01*
X167130057Y-56711904D02*
X167225295Y-56664285D01*
X167225295Y-56664285D02*
X167320533Y-56664285D01*
X167320533Y-56664285D02*
X167463390Y-56711904D01*
X167463390Y-56711904D02*
X168034819Y-57283332D01*
X168034819Y-57283332D02*
X168034819Y-56664285D01*
X116666666Y-49434819D02*
X116666666Y-50149104D01*
X116666666Y-50149104D02*
X116619047Y-50291961D01*
X116619047Y-50291961D02*
X116523809Y-50387200D01*
X116523809Y-50387200D02*
X116380952Y-50434819D01*
X116380952Y-50434819D02*
X116285714Y-50434819D01*
X117666666Y-50434819D02*
X117095238Y-50434819D01*
X117380952Y-50434819D02*
X117380952Y-49434819D01*
X117380952Y-49434819D02*
X117285714Y-49577676D01*
X117285714Y-49577676D02*
X117190476Y-49672914D01*
X117190476Y-49672914D02*
X117095238Y-49720533D01*
X103354819Y-106023333D02*
X104069104Y-106023333D01*
X104069104Y-106023333D02*
X104211961Y-106070952D01*
X104211961Y-106070952D02*
X104307200Y-106166190D01*
X104307200Y-106166190D02*
X104354819Y-106309047D01*
X104354819Y-106309047D02*
X104354819Y-106404285D01*
X103783390Y-105404285D02*
X103735771Y-105499523D01*
X103735771Y-105499523D02*
X103688152Y-105547142D01*
X103688152Y-105547142D02*
X103592914Y-105594761D01*
X103592914Y-105594761D02*
X103545295Y-105594761D01*
X103545295Y-105594761D02*
X103450057Y-105547142D01*
X103450057Y-105547142D02*
X103402438Y-105499523D01*
X103402438Y-105499523D02*
X103354819Y-105404285D01*
X103354819Y-105404285D02*
X103354819Y-105213809D01*
X103354819Y-105213809D02*
X103402438Y-105118571D01*
X103402438Y-105118571D02*
X103450057Y-105070952D01*
X103450057Y-105070952D02*
X103545295Y-105023333D01*
X103545295Y-105023333D02*
X103592914Y-105023333D01*
X103592914Y-105023333D02*
X103688152Y-105070952D01*
X103688152Y-105070952D02*
X103735771Y-105118571D01*
X103735771Y-105118571D02*
X103783390Y-105213809D01*
X103783390Y-105213809D02*
X103783390Y-105404285D01*
X103783390Y-105404285D02*
X103831009Y-105499523D01*
X103831009Y-105499523D02*
X103878628Y-105547142D01*
X103878628Y-105547142D02*
X103973866Y-105594761D01*
X103973866Y-105594761D02*
X104164342Y-105594761D01*
X104164342Y-105594761D02*
X104259580Y-105547142D01*
X104259580Y-105547142D02*
X104307200Y-105499523D01*
X104307200Y-105499523D02*
X104354819Y-105404285D01*
X104354819Y-105404285D02*
X104354819Y-105213809D01*
X104354819Y-105213809D02*
X104307200Y-105118571D01*
X104307200Y-105118571D02*
X104259580Y-105070952D01*
X104259580Y-105070952D02*
X104164342Y-105023333D01*
X104164342Y-105023333D02*
X103973866Y-105023333D01*
X103973866Y-105023333D02*
X103878628Y-105070952D01*
X103878628Y-105070952D02*
X103831009Y-105118571D01*
X103831009Y-105118571D02*
X103783390Y-105213809D01*
X145954819Y-80142857D02*
X145478628Y-80476190D01*
X145954819Y-80714285D02*
X144954819Y-80714285D01*
X144954819Y-80714285D02*
X144954819Y-80333333D01*
X144954819Y-80333333D02*
X145002438Y-80238095D01*
X145002438Y-80238095D02*
X145050057Y-80190476D01*
X145050057Y-80190476D02*
X145145295Y-80142857D01*
X145145295Y-80142857D02*
X145288152Y-80142857D01*
X145288152Y-80142857D02*
X145383390Y-80190476D01*
X145383390Y-80190476D02*
X145431009Y-80238095D01*
X145431009Y-80238095D02*
X145478628Y-80333333D01*
X145478628Y-80333333D02*
X145478628Y-80714285D01*
X145954819Y-79190476D02*
X145954819Y-79761904D01*
X145954819Y-79476190D02*
X144954819Y-79476190D01*
X144954819Y-79476190D02*
X145097676Y-79571428D01*
X145097676Y-79571428D02*
X145192914Y-79666666D01*
X145192914Y-79666666D02*
X145240533Y-79761904D01*
X145954819Y-78714285D02*
X145954819Y-78523809D01*
X145954819Y-78523809D02*
X145907200Y-78428571D01*
X145907200Y-78428571D02*
X145859580Y-78380952D01*
X145859580Y-78380952D02*
X145716723Y-78285714D01*
X145716723Y-78285714D02*
X145526247Y-78238095D01*
X145526247Y-78238095D02*
X145145295Y-78238095D01*
X145145295Y-78238095D02*
X145050057Y-78285714D01*
X145050057Y-78285714D02*
X145002438Y-78333333D01*
X145002438Y-78333333D02*
X144954819Y-78428571D01*
X144954819Y-78428571D02*
X144954819Y-78619047D01*
X144954819Y-78619047D02*
X145002438Y-78714285D01*
X145002438Y-78714285D02*
X145050057Y-78761904D01*
X145050057Y-78761904D02*
X145145295Y-78809523D01*
X145145295Y-78809523D02*
X145383390Y-78809523D01*
X145383390Y-78809523D02*
X145478628Y-78761904D01*
X145478628Y-78761904D02*
X145526247Y-78714285D01*
X145526247Y-78714285D02*
X145573866Y-78619047D01*
X145573866Y-78619047D02*
X145573866Y-78428571D01*
X145573866Y-78428571D02*
X145526247Y-78333333D01*
X145526247Y-78333333D02*
X145478628Y-78285714D01*
X145478628Y-78285714D02*
X145383390Y-78238095D01*
X169554819Y-65333333D02*
X170269104Y-65333333D01*
X170269104Y-65333333D02*
X170411961Y-65380952D01*
X170411961Y-65380952D02*
X170507200Y-65476190D01*
X170507200Y-65476190D02*
X170554819Y-65619047D01*
X170554819Y-65619047D02*
X170554819Y-65714285D01*
X170554819Y-64809523D02*
X170554819Y-64619047D01*
X170554819Y-64619047D02*
X170507200Y-64523809D01*
X170507200Y-64523809D02*
X170459580Y-64476190D01*
X170459580Y-64476190D02*
X170316723Y-64380952D01*
X170316723Y-64380952D02*
X170126247Y-64333333D01*
X170126247Y-64333333D02*
X169745295Y-64333333D01*
X169745295Y-64333333D02*
X169650057Y-64380952D01*
X169650057Y-64380952D02*
X169602438Y-64428571D01*
X169602438Y-64428571D02*
X169554819Y-64523809D01*
X169554819Y-64523809D02*
X169554819Y-64714285D01*
X169554819Y-64714285D02*
X169602438Y-64809523D01*
X169602438Y-64809523D02*
X169650057Y-64857142D01*
X169650057Y-64857142D02*
X169745295Y-64904761D01*
X169745295Y-64904761D02*
X169983390Y-64904761D01*
X169983390Y-64904761D02*
X170078628Y-64857142D01*
X170078628Y-64857142D02*
X170126247Y-64809523D01*
X170126247Y-64809523D02*
X170173866Y-64714285D01*
X170173866Y-64714285D02*
X170173866Y-64523809D01*
X170173866Y-64523809D02*
X170126247Y-64428571D01*
X170126247Y-64428571D02*
X170078628Y-64380952D01*
X170078628Y-64380952D02*
X169983390Y-64333333D01*
X169666666Y-53854819D02*
X169666666Y-54569104D01*
X169666666Y-54569104D02*
X169619047Y-54711961D01*
X169619047Y-54711961D02*
X169523809Y-54807200D01*
X169523809Y-54807200D02*
X169380952Y-54854819D01*
X169380952Y-54854819D02*
X169285714Y-54854819D01*
X170095238Y-53950057D02*
X170142857Y-53902438D01*
X170142857Y-53902438D02*
X170238095Y-53854819D01*
X170238095Y-53854819D02*
X170476190Y-53854819D01*
X170476190Y-53854819D02*
X170571428Y-53902438D01*
X170571428Y-53902438D02*
X170619047Y-53950057D01*
X170619047Y-53950057D02*
X170666666Y-54045295D01*
X170666666Y-54045295D02*
X170666666Y-54140533D01*
X170666666Y-54140533D02*
X170619047Y-54283390D01*
X170619047Y-54283390D02*
X170047619Y-54854819D01*
X170047619Y-54854819D02*
X170666666Y-54854819D01*
X152534819Y-98262857D02*
X152058628Y-98596190D01*
X152534819Y-98834285D02*
X151534819Y-98834285D01*
X151534819Y-98834285D02*
X151534819Y-98453333D01*
X151534819Y-98453333D02*
X151582438Y-98358095D01*
X151582438Y-98358095D02*
X151630057Y-98310476D01*
X151630057Y-98310476D02*
X151725295Y-98262857D01*
X151725295Y-98262857D02*
X151868152Y-98262857D01*
X151868152Y-98262857D02*
X151963390Y-98310476D01*
X151963390Y-98310476D02*
X152011009Y-98358095D01*
X152011009Y-98358095D02*
X152058628Y-98453333D01*
X152058628Y-98453333D02*
X152058628Y-98834285D01*
X152534819Y-97310476D02*
X152534819Y-97881904D01*
X152534819Y-97596190D02*
X151534819Y-97596190D01*
X151534819Y-97596190D02*
X151677676Y-97691428D01*
X151677676Y-97691428D02*
X151772914Y-97786666D01*
X151772914Y-97786666D02*
X151820533Y-97881904D01*
X151534819Y-96977142D02*
X151534819Y-96310476D01*
X151534819Y-96310476D02*
X152534819Y-96739047D01*
X158454819Y-84642857D02*
X157978628Y-84976190D01*
X158454819Y-85214285D02*
X157454819Y-85214285D01*
X157454819Y-85214285D02*
X157454819Y-84833333D01*
X157454819Y-84833333D02*
X157502438Y-84738095D01*
X157502438Y-84738095D02*
X157550057Y-84690476D01*
X157550057Y-84690476D02*
X157645295Y-84642857D01*
X157645295Y-84642857D02*
X157788152Y-84642857D01*
X157788152Y-84642857D02*
X157883390Y-84690476D01*
X157883390Y-84690476D02*
X157931009Y-84738095D01*
X157931009Y-84738095D02*
X157978628Y-84833333D01*
X157978628Y-84833333D02*
X157978628Y-85214285D01*
X158454819Y-83690476D02*
X158454819Y-84261904D01*
X158454819Y-83976190D02*
X157454819Y-83976190D01*
X157454819Y-83976190D02*
X157597676Y-84071428D01*
X157597676Y-84071428D02*
X157692914Y-84166666D01*
X157692914Y-84166666D02*
X157740533Y-84261904D01*
X157883390Y-83119047D02*
X157835771Y-83214285D01*
X157835771Y-83214285D02*
X157788152Y-83261904D01*
X157788152Y-83261904D02*
X157692914Y-83309523D01*
X157692914Y-83309523D02*
X157645295Y-83309523D01*
X157645295Y-83309523D02*
X157550057Y-83261904D01*
X157550057Y-83261904D02*
X157502438Y-83214285D01*
X157502438Y-83214285D02*
X157454819Y-83119047D01*
X157454819Y-83119047D02*
X157454819Y-82928571D01*
X157454819Y-82928571D02*
X157502438Y-82833333D01*
X157502438Y-82833333D02*
X157550057Y-82785714D01*
X157550057Y-82785714D02*
X157645295Y-82738095D01*
X157645295Y-82738095D02*
X157692914Y-82738095D01*
X157692914Y-82738095D02*
X157788152Y-82785714D01*
X157788152Y-82785714D02*
X157835771Y-82833333D01*
X157835771Y-82833333D02*
X157883390Y-82928571D01*
X157883390Y-82928571D02*
X157883390Y-83119047D01*
X157883390Y-83119047D02*
X157931009Y-83214285D01*
X157931009Y-83214285D02*
X157978628Y-83261904D01*
X157978628Y-83261904D02*
X158073866Y-83309523D01*
X158073866Y-83309523D02*
X158264342Y-83309523D01*
X158264342Y-83309523D02*
X158359580Y-83261904D01*
X158359580Y-83261904D02*
X158407200Y-83214285D01*
X158407200Y-83214285D02*
X158454819Y-83119047D01*
X158454819Y-83119047D02*
X158454819Y-82928571D01*
X158454819Y-82928571D02*
X158407200Y-82833333D01*
X158407200Y-82833333D02*
X158359580Y-82785714D01*
X158359580Y-82785714D02*
X158264342Y-82738095D01*
X158264342Y-82738095D02*
X158073866Y-82738095D01*
X158073866Y-82738095D02*
X157978628Y-82785714D01*
X157978628Y-82785714D02*
X157931009Y-82833333D01*
X157931009Y-82833333D02*
X157883390Y-82928571D01*
X113261905Y-64984819D02*
X113261905Y-63984819D01*
X113261905Y-63984819D02*
X113500000Y-63984819D01*
X113500000Y-63984819D02*
X113642857Y-64032438D01*
X113642857Y-64032438D02*
X113738095Y-64127676D01*
X113738095Y-64127676D02*
X113785714Y-64222914D01*
X113785714Y-64222914D02*
X113833333Y-64413390D01*
X113833333Y-64413390D02*
X113833333Y-64556247D01*
X113833333Y-64556247D02*
X113785714Y-64746723D01*
X113785714Y-64746723D02*
X113738095Y-64841961D01*
X113738095Y-64841961D02*
X113642857Y-64937200D01*
X113642857Y-64937200D02*
X113500000Y-64984819D01*
X113500000Y-64984819D02*
X113261905Y-64984819D01*
X114214286Y-64080057D02*
X114261905Y-64032438D01*
X114261905Y-64032438D02*
X114357143Y-63984819D01*
X114357143Y-63984819D02*
X114595238Y-63984819D01*
X114595238Y-63984819D02*
X114690476Y-64032438D01*
X114690476Y-64032438D02*
X114738095Y-64080057D01*
X114738095Y-64080057D02*
X114785714Y-64175295D01*
X114785714Y-64175295D02*
X114785714Y-64270533D01*
X114785714Y-64270533D02*
X114738095Y-64413390D01*
X114738095Y-64413390D02*
X114166667Y-64984819D01*
X114166667Y-64984819D02*
X114785714Y-64984819D01*
X108658095Y-65354819D02*
X108658095Y-64354819D01*
X109229523Y-65354819D02*
X108800952Y-64783390D01*
X109229523Y-64354819D02*
X108658095Y-64926247D01*
X120109580Y-73764015D02*
X120157200Y-73811634D01*
X120157200Y-73811634D02*
X120204819Y-73954491D01*
X120204819Y-73954491D02*
X120204819Y-74049729D01*
X120204819Y-74049729D02*
X120157200Y-74192586D01*
X120157200Y-74192586D02*
X120061961Y-74287824D01*
X120061961Y-74287824D02*
X119966723Y-74335443D01*
X119966723Y-74335443D02*
X119776247Y-74383062D01*
X119776247Y-74383062D02*
X119633390Y-74383062D01*
X119633390Y-74383062D02*
X119442914Y-74335443D01*
X119442914Y-74335443D02*
X119347676Y-74287824D01*
X119347676Y-74287824D02*
X119252438Y-74192586D01*
X119252438Y-74192586D02*
X119204819Y-74049729D01*
X119204819Y-74049729D02*
X119204819Y-73954491D01*
X119204819Y-73954491D02*
X119252438Y-73811634D01*
X119252438Y-73811634D02*
X119300057Y-73764015D01*
X119300057Y-73383062D02*
X119252438Y-73335443D01*
X119252438Y-73335443D02*
X119204819Y-73240205D01*
X119204819Y-73240205D02*
X119204819Y-73002110D01*
X119204819Y-73002110D02*
X119252438Y-72906872D01*
X119252438Y-72906872D02*
X119300057Y-72859253D01*
X119300057Y-72859253D02*
X119395295Y-72811634D01*
X119395295Y-72811634D02*
X119490533Y-72811634D01*
X119490533Y-72811634D02*
X119633390Y-72859253D01*
X119633390Y-72859253D02*
X120204819Y-73430681D01*
X120204819Y-73430681D02*
X120204819Y-72811634D01*
X151954819Y-113642857D02*
X151478628Y-113976190D01*
X151954819Y-114214285D02*
X150954819Y-114214285D01*
X150954819Y-114214285D02*
X150954819Y-113833333D01*
X150954819Y-113833333D02*
X151002438Y-113738095D01*
X151002438Y-113738095D02*
X151050057Y-113690476D01*
X151050057Y-113690476D02*
X151145295Y-113642857D01*
X151145295Y-113642857D02*
X151288152Y-113642857D01*
X151288152Y-113642857D02*
X151383390Y-113690476D01*
X151383390Y-113690476D02*
X151431009Y-113738095D01*
X151431009Y-113738095D02*
X151478628Y-113833333D01*
X151478628Y-113833333D02*
X151478628Y-114214285D01*
X151050057Y-113261904D02*
X151002438Y-113214285D01*
X151002438Y-113214285D02*
X150954819Y-113119047D01*
X150954819Y-113119047D02*
X150954819Y-112880952D01*
X150954819Y-112880952D02*
X151002438Y-112785714D01*
X151002438Y-112785714D02*
X151050057Y-112738095D01*
X151050057Y-112738095D02*
X151145295Y-112690476D01*
X151145295Y-112690476D02*
X151240533Y-112690476D01*
X151240533Y-112690476D02*
X151383390Y-112738095D01*
X151383390Y-112738095D02*
X151954819Y-113309523D01*
X151954819Y-113309523D02*
X151954819Y-112690476D01*
X150954819Y-112071428D02*
X150954819Y-111976190D01*
X150954819Y-111976190D02*
X151002438Y-111880952D01*
X151002438Y-111880952D02*
X151050057Y-111833333D01*
X151050057Y-111833333D02*
X151145295Y-111785714D01*
X151145295Y-111785714D02*
X151335771Y-111738095D01*
X151335771Y-111738095D02*
X151573866Y-111738095D01*
X151573866Y-111738095D02*
X151764342Y-111785714D01*
X151764342Y-111785714D02*
X151859580Y-111833333D01*
X151859580Y-111833333D02*
X151907200Y-111880952D01*
X151907200Y-111880952D02*
X151954819Y-111976190D01*
X151954819Y-111976190D02*
X151954819Y-112071428D01*
X151954819Y-112071428D02*
X151907200Y-112166666D01*
X151907200Y-112166666D02*
X151859580Y-112214285D01*
X151859580Y-112214285D02*
X151764342Y-112261904D01*
X151764342Y-112261904D02*
X151573866Y-112309523D01*
X151573866Y-112309523D02*
X151335771Y-112309523D01*
X151335771Y-112309523D02*
X151145295Y-112261904D01*
X151145295Y-112261904D02*
X151050057Y-112214285D01*
X151050057Y-112214285D02*
X151002438Y-112166666D01*
X151002438Y-112166666D02*
X150954819Y-112071428D01*
X169554819Y-108809523D02*
X170269104Y-108809523D01*
X170269104Y-108809523D02*
X170411961Y-108857142D01*
X170411961Y-108857142D02*
X170507200Y-108952380D01*
X170507200Y-108952380D02*
X170554819Y-109095237D01*
X170554819Y-109095237D02*
X170554819Y-109190475D01*
X170554819Y-107809523D02*
X170554819Y-108380951D01*
X170554819Y-108095237D02*
X169554819Y-108095237D01*
X169554819Y-108095237D02*
X169697676Y-108190475D01*
X169697676Y-108190475D02*
X169792914Y-108285713D01*
X169792914Y-108285713D02*
X169840533Y-108380951D01*
X169554819Y-107476189D02*
X169554819Y-106857142D01*
X169554819Y-106857142D02*
X169935771Y-107190475D01*
X169935771Y-107190475D02*
X169935771Y-107047618D01*
X169935771Y-107047618D02*
X169983390Y-106952380D01*
X169983390Y-106952380D02*
X170031009Y-106904761D01*
X170031009Y-106904761D02*
X170126247Y-106857142D01*
X170126247Y-106857142D02*
X170364342Y-106857142D01*
X170364342Y-106857142D02*
X170459580Y-106904761D01*
X170459580Y-106904761D02*
X170507200Y-106952380D01*
X170507200Y-106952380D02*
X170554819Y-107047618D01*
X170554819Y-107047618D02*
X170554819Y-107333332D01*
X170554819Y-107333332D02*
X170507200Y-107428570D01*
X170507200Y-107428570D02*
X170459580Y-107476189D01*
X140854819Y-83211904D02*
X141664342Y-83211904D01*
X141664342Y-83211904D02*
X141759580Y-83164285D01*
X141759580Y-83164285D02*
X141807200Y-83116666D01*
X141807200Y-83116666D02*
X141854819Y-83021428D01*
X141854819Y-83021428D02*
X141854819Y-82830952D01*
X141854819Y-82830952D02*
X141807200Y-82735714D01*
X141807200Y-82735714D02*
X141759580Y-82688095D01*
X141759580Y-82688095D02*
X141664342Y-82640476D01*
X141664342Y-82640476D02*
X140854819Y-82640476D01*
X141854819Y-81640476D02*
X141854819Y-82211904D01*
X141854819Y-81926190D02*
X140854819Y-81926190D01*
X140854819Y-81926190D02*
X140997676Y-82021428D01*
X140997676Y-82021428D02*
X141092914Y-82116666D01*
X141092914Y-82116666D02*
X141140533Y-82211904D01*
X128156666Y-81496033D02*
X128156666Y-80796033D01*
X128156666Y-80796033D02*
X128390000Y-81296033D01*
X128390000Y-81296033D02*
X128623333Y-80796033D01*
X128623333Y-80796033D02*
X128623333Y-81496033D01*
X128956666Y-81496033D02*
X128956666Y-80796033D01*
X129289999Y-81496033D02*
X129289999Y-80796033D01*
X129289999Y-80796033D02*
X129523333Y-81296033D01*
X129523333Y-81296033D02*
X129756666Y-80796033D01*
X129756666Y-80796033D02*
X129756666Y-81496033D01*
X130023333Y-80796033D02*
X130489999Y-81496033D01*
X130489999Y-80796033D02*
X130023333Y-81496033D01*
X131156666Y-81496033D02*
X130923333Y-81162700D01*
X130756666Y-81496033D02*
X130756666Y-80796033D01*
X130756666Y-80796033D02*
X131023333Y-80796033D01*
X131023333Y-80796033D02*
X131090000Y-80829366D01*
X131090000Y-80829366D02*
X131123333Y-80862700D01*
X131123333Y-80862700D02*
X131156666Y-80929366D01*
X131156666Y-80929366D02*
X131156666Y-81029366D01*
X131156666Y-81029366D02*
X131123333Y-81096033D01*
X131123333Y-81096033D02*
X131090000Y-81129366D01*
X131090000Y-81129366D02*
X131023333Y-81162700D01*
X131023333Y-81162700D02*
X130756666Y-81162700D01*
X131356666Y-80796033D02*
X131756666Y-80796033D01*
X131556666Y-81496033D02*
X131556666Y-80796033D01*
X132356666Y-81496033D02*
X131956666Y-81496033D01*
X132156666Y-81496033D02*
X132156666Y-80796033D01*
X132156666Y-80796033D02*
X132089999Y-80896033D01*
X132089999Y-80896033D02*
X132023333Y-80962700D01*
X132023333Y-80962700D02*
X131956666Y-80996033D01*
X132790000Y-80796033D02*
X132856666Y-80796033D01*
X132856666Y-80796033D02*
X132923333Y-80829366D01*
X132923333Y-80829366D02*
X132956666Y-80862700D01*
X132956666Y-80862700D02*
X132990000Y-80929366D01*
X132990000Y-80929366D02*
X133023333Y-81062700D01*
X133023333Y-81062700D02*
X133023333Y-81229366D01*
X133023333Y-81229366D02*
X132990000Y-81362700D01*
X132990000Y-81362700D02*
X132956666Y-81429366D01*
X132956666Y-81429366D02*
X132923333Y-81462700D01*
X132923333Y-81462700D02*
X132856666Y-81496033D01*
X132856666Y-81496033D02*
X132790000Y-81496033D01*
X132790000Y-81496033D02*
X132723333Y-81462700D01*
X132723333Y-81462700D02*
X132690000Y-81429366D01*
X132690000Y-81429366D02*
X132656666Y-81362700D01*
X132656666Y-81362700D02*
X132623333Y-81229366D01*
X132623333Y-81229366D02*
X132623333Y-81062700D01*
X132623333Y-81062700D02*
X132656666Y-80929366D01*
X132656666Y-80929366D02*
X132690000Y-80862700D01*
X132690000Y-80862700D02*
X132723333Y-80829366D01*
X132723333Y-80829366D02*
X132790000Y-80796033D01*
X133623333Y-80796033D02*
X133490000Y-80796033D01*
X133490000Y-80796033D02*
X133423333Y-80829366D01*
X133423333Y-80829366D02*
X133390000Y-80862700D01*
X133390000Y-80862700D02*
X133323333Y-80962700D01*
X133323333Y-80962700D02*
X133290000Y-81096033D01*
X133290000Y-81096033D02*
X133290000Y-81362700D01*
X133290000Y-81362700D02*
X133323333Y-81429366D01*
X133323333Y-81429366D02*
X133356667Y-81462700D01*
X133356667Y-81462700D02*
X133423333Y-81496033D01*
X133423333Y-81496033D02*
X133556667Y-81496033D01*
X133556667Y-81496033D02*
X133623333Y-81462700D01*
X133623333Y-81462700D02*
X133656667Y-81429366D01*
X133656667Y-81429366D02*
X133690000Y-81362700D01*
X133690000Y-81362700D02*
X133690000Y-81196033D01*
X133690000Y-81196033D02*
X133656667Y-81129366D01*
X133656667Y-81129366D02*
X133623333Y-81096033D01*
X133623333Y-81096033D02*
X133556667Y-81062700D01*
X133556667Y-81062700D02*
X133423333Y-81062700D01*
X133423333Y-81062700D02*
X133356667Y-81096033D01*
X133356667Y-81096033D02*
X133323333Y-81129366D01*
X133323333Y-81129366D02*
X133290000Y-81196033D01*
X133956667Y-80862700D02*
X133990000Y-80829366D01*
X133990000Y-80829366D02*
X134056667Y-80796033D01*
X134056667Y-80796033D02*
X134223334Y-80796033D01*
X134223334Y-80796033D02*
X134290000Y-80829366D01*
X134290000Y-80829366D02*
X134323334Y-80862700D01*
X134323334Y-80862700D02*
X134356667Y-80929366D01*
X134356667Y-80929366D02*
X134356667Y-80996033D01*
X134356667Y-80996033D02*
X134323334Y-81096033D01*
X134323334Y-81096033D02*
X133923334Y-81496033D01*
X133923334Y-81496033D02*
X134356667Y-81496033D01*
X129978095Y-55234819D02*
X129978095Y-56044342D01*
X129978095Y-56044342D02*
X130025714Y-56139580D01*
X130025714Y-56139580D02*
X130073333Y-56187200D01*
X130073333Y-56187200D02*
X130168571Y-56234819D01*
X130168571Y-56234819D02*
X130359047Y-56234819D01*
X130359047Y-56234819D02*
X130454285Y-56187200D01*
X130454285Y-56187200D02*
X130501904Y-56139580D01*
X130501904Y-56139580D02*
X130549523Y-56044342D01*
X130549523Y-56044342D02*
X130549523Y-55234819D01*
X130978095Y-56187200D02*
X131120952Y-56234819D01*
X131120952Y-56234819D02*
X131359047Y-56234819D01*
X131359047Y-56234819D02*
X131454285Y-56187200D01*
X131454285Y-56187200D02*
X131501904Y-56139580D01*
X131501904Y-56139580D02*
X131549523Y-56044342D01*
X131549523Y-56044342D02*
X131549523Y-55949104D01*
X131549523Y-55949104D02*
X131501904Y-55853866D01*
X131501904Y-55853866D02*
X131454285Y-55806247D01*
X131454285Y-55806247D02*
X131359047Y-55758628D01*
X131359047Y-55758628D02*
X131168571Y-55711009D01*
X131168571Y-55711009D02*
X131073333Y-55663390D01*
X131073333Y-55663390D02*
X131025714Y-55615771D01*
X131025714Y-55615771D02*
X130978095Y-55520533D01*
X130978095Y-55520533D02*
X130978095Y-55425295D01*
X130978095Y-55425295D02*
X131025714Y-55330057D01*
X131025714Y-55330057D02*
X131073333Y-55282438D01*
X131073333Y-55282438D02*
X131168571Y-55234819D01*
X131168571Y-55234819D02*
X131406666Y-55234819D01*
X131406666Y-55234819D02*
X131549523Y-55282438D01*
X132311428Y-55711009D02*
X132454285Y-55758628D01*
X132454285Y-55758628D02*
X132501904Y-55806247D01*
X132501904Y-55806247D02*
X132549523Y-55901485D01*
X132549523Y-55901485D02*
X132549523Y-56044342D01*
X132549523Y-56044342D02*
X132501904Y-56139580D01*
X132501904Y-56139580D02*
X132454285Y-56187200D01*
X132454285Y-56187200D02*
X132359047Y-56234819D01*
X132359047Y-56234819D02*
X131978095Y-56234819D01*
X131978095Y-56234819D02*
X131978095Y-55234819D01*
X131978095Y-55234819D02*
X132311428Y-55234819D01*
X132311428Y-55234819D02*
X132406666Y-55282438D01*
X132406666Y-55282438D02*
X132454285Y-55330057D01*
X132454285Y-55330057D02*
X132501904Y-55425295D01*
X132501904Y-55425295D02*
X132501904Y-55520533D01*
X132501904Y-55520533D02*
X132454285Y-55615771D01*
X132454285Y-55615771D02*
X132406666Y-55663390D01*
X132406666Y-55663390D02*
X132311428Y-55711009D01*
X132311428Y-55711009D02*
X131978095Y-55711009D01*
X130036666Y-80226033D02*
X130036666Y-79526033D01*
X130036666Y-79526033D02*
X130203333Y-79526033D01*
X130203333Y-79526033D02*
X130303333Y-79559366D01*
X130303333Y-79559366D02*
X130370000Y-79626033D01*
X130370000Y-79626033D02*
X130403333Y-79692700D01*
X130403333Y-79692700D02*
X130436666Y-79826033D01*
X130436666Y-79826033D02*
X130436666Y-79926033D01*
X130436666Y-79926033D02*
X130403333Y-80059366D01*
X130403333Y-80059366D02*
X130370000Y-80126033D01*
X130370000Y-80126033D02*
X130303333Y-80192700D01*
X130303333Y-80192700D02*
X130203333Y-80226033D01*
X130203333Y-80226033D02*
X130036666Y-80226033D01*
X130636666Y-79526033D02*
X130870000Y-80226033D01*
X130870000Y-80226033D02*
X131103333Y-79526033D01*
X131536666Y-79526033D02*
X131536666Y-80026033D01*
X131536666Y-80026033D02*
X131503333Y-80126033D01*
X131503333Y-80126033D02*
X131436666Y-80192700D01*
X131436666Y-80192700D02*
X131336666Y-80226033D01*
X131336666Y-80226033D02*
X131270000Y-80226033D01*
X132169999Y-79526033D02*
X132036666Y-79526033D01*
X132036666Y-79526033D02*
X131969999Y-79559366D01*
X131969999Y-79559366D02*
X131936666Y-79592700D01*
X131936666Y-79592700D02*
X131869999Y-79692700D01*
X131869999Y-79692700D02*
X131836666Y-79826033D01*
X131836666Y-79826033D02*
X131836666Y-80092700D01*
X131836666Y-80092700D02*
X131869999Y-80159366D01*
X131869999Y-80159366D02*
X131903333Y-80192700D01*
X131903333Y-80192700D02*
X131969999Y-80226033D01*
X131969999Y-80226033D02*
X132103333Y-80226033D01*
X132103333Y-80226033D02*
X132169999Y-80192700D01*
X132169999Y-80192700D02*
X132203333Y-80159366D01*
X132203333Y-80159366D02*
X132236666Y-80092700D01*
X132236666Y-80092700D02*
X132236666Y-79926033D01*
X132236666Y-79926033D02*
X132203333Y-79859366D01*
X132203333Y-79859366D02*
X132169999Y-79826033D01*
X132169999Y-79826033D02*
X132103333Y-79792700D01*
X132103333Y-79792700D02*
X131969999Y-79792700D01*
X131969999Y-79792700D02*
X131903333Y-79826033D01*
X131903333Y-79826033D02*
X131869999Y-79859366D01*
X131869999Y-79859366D02*
X131836666Y-79926033D01*
X132503333Y-80026033D02*
X132836666Y-80026033D01*
X132436666Y-80226033D02*
X132670000Y-79526033D01*
X132670000Y-79526033D02*
X132903333Y-80226033D01*
X131659456Y-70316009D02*
X131992789Y-70316009D01*
X132135646Y-70839819D02*
X131659456Y-70839819D01*
X131659456Y-70839819D02*
X131659456Y-69839819D01*
X131659456Y-69839819D02*
X132135646Y-69839819D01*
X132421361Y-70173152D02*
X132802313Y-70173152D01*
X132564218Y-69839819D02*
X132564218Y-70696961D01*
X132564218Y-70696961D02*
X132611837Y-70792200D01*
X132611837Y-70792200D02*
X132707075Y-70839819D01*
X132707075Y-70839819D02*
X132802313Y-70839819D01*
X133135647Y-70839819D02*
X133135647Y-69839819D01*
X133564218Y-70839819D02*
X133564218Y-70316009D01*
X133564218Y-70316009D02*
X133516599Y-70220771D01*
X133516599Y-70220771D02*
X133421361Y-70173152D01*
X133421361Y-70173152D02*
X133278504Y-70173152D01*
X133278504Y-70173152D02*
X133183266Y-70220771D01*
X133183266Y-70220771D02*
X133135647Y-70268390D01*
X134421361Y-70792200D02*
X134326123Y-70839819D01*
X134326123Y-70839819D02*
X134135647Y-70839819D01*
X134135647Y-70839819D02*
X134040409Y-70792200D01*
X134040409Y-70792200D02*
X133992790Y-70696961D01*
X133992790Y-70696961D02*
X133992790Y-70316009D01*
X133992790Y-70316009D02*
X134040409Y-70220771D01*
X134040409Y-70220771D02*
X134135647Y-70173152D01*
X134135647Y-70173152D02*
X134326123Y-70173152D01*
X134326123Y-70173152D02*
X134421361Y-70220771D01*
X134421361Y-70220771D02*
X134468980Y-70316009D01*
X134468980Y-70316009D02*
X134468980Y-70411247D01*
X134468980Y-70411247D02*
X133992790Y-70506485D01*
X134897552Y-70839819D02*
X134897552Y-70173152D01*
X134897552Y-70363628D02*
X134945171Y-70268390D01*
X134945171Y-70268390D02*
X134992790Y-70220771D01*
X134992790Y-70220771D02*
X135088028Y-70173152D01*
X135088028Y-70173152D02*
X135183266Y-70173152D01*
X135516600Y-70173152D02*
X135516600Y-70839819D01*
X135516600Y-70268390D02*
X135564219Y-70220771D01*
X135564219Y-70220771D02*
X135659457Y-70173152D01*
X135659457Y-70173152D02*
X135802314Y-70173152D01*
X135802314Y-70173152D02*
X135897552Y-70220771D01*
X135897552Y-70220771D02*
X135945171Y-70316009D01*
X135945171Y-70316009D02*
X135945171Y-70839819D01*
X136802314Y-70792200D02*
X136707076Y-70839819D01*
X136707076Y-70839819D02*
X136516600Y-70839819D01*
X136516600Y-70839819D02*
X136421362Y-70792200D01*
X136421362Y-70792200D02*
X136373743Y-70696961D01*
X136373743Y-70696961D02*
X136373743Y-70316009D01*
X136373743Y-70316009D02*
X136421362Y-70220771D01*
X136421362Y-70220771D02*
X136516600Y-70173152D01*
X136516600Y-70173152D02*
X136707076Y-70173152D01*
X136707076Y-70173152D02*
X136802314Y-70220771D01*
X136802314Y-70220771D02*
X136849933Y-70316009D01*
X136849933Y-70316009D02*
X136849933Y-70411247D01*
X136849933Y-70411247D02*
X136373743Y-70506485D01*
X137135648Y-70173152D02*
X137516600Y-70173152D01*
X137278505Y-69839819D02*
X137278505Y-70696961D01*
X137278505Y-70696961D02*
X137326124Y-70792200D01*
X137326124Y-70792200D02*
X137421362Y-70839819D01*
X137421362Y-70839819D02*
X137516600Y-70839819D01*
X128205619Y-67293723D02*
X129015142Y-67293723D01*
X129015142Y-67293723D02*
X129110380Y-67246104D01*
X129110380Y-67246104D02*
X129158000Y-67198485D01*
X129158000Y-67198485D02*
X129205619Y-67103247D01*
X129205619Y-67103247D02*
X129205619Y-66912771D01*
X129205619Y-66912771D02*
X129158000Y-66817533D01*
X129158000Y-66817533D02*
X129110380Y-66769914D01*
X129110380Y-66769914D02*
X129015142Y-66722295D01*
X129015142Y-66722295D02*
X128205619Y-66722295D01*
X129158000Y-66293723D02*
X129205619Y-66150866D01*
X129205619Y-66150866D02*
X129205619Y-65912771D01*
X129205619Y-65912771D02*
X129158000Y-65817533D01*
X129158000Y-65817533D02*
X129110380Y-65769914D01*
X129110380Y-65769914D02*
X129015142Y-65722295D01*
X129015142Y-65722295D02*
X128919904Y-65722295D01*
X128919904Y-65722295D02*
X128824666Y-65769914D01*
X128824666Y-65769914D02*
X128777047Y-65817533D01*
X128777047Y-65817533D02*
X128729428Y-65912771D01*
X128729428Y-65912771D02*
X128681809Y-66103247D01*
X128681809Y-66103247D02*
X128634190Y-66198485D01*
X128634190Y-66198485D02*
X128586571Y-66246104D01*
X128586571Y-66246104D02*
X128491333Y-66293723D01*
X128491333Y-66293723D02*
X128396095Y-66293723D01*
X128396095Y-66293723D02*
X128300857Y-66246104D01*
X128300857Y-66246104D02*
X128253238Y-66198485D01*
X128253238Y-66198485D02*
X128205619Y-66103247D01*
X128205619Y-66103247D02*
X128205619Y-65865152D01*
X128205619Y-65865152D02*
X128253238Y-65722295D01*
X128681809Y-64960390D02*
X128729428Y-64817533D01*
X128729428Y-64817533D02*
X128777047Y-64769914D01*
X128777047Y-64769914D02*
X128872285Y-64722295D01*
X128872285Y-64722295D02*
X129015142Y-64722295D01*
X129015142Y-64722295D02*
X129110380Y-64769914D01*
X129110380Y-64769914D02*
X129158000Y-64817533D01*
X129158000Y-64817533D02*
X129205619Y-64912771D01*
X129205619Y-64912771D02*
X129205619Y-65293723D01*
X129205619Y-65293723D02*
X128205619Y-65293723D01*
X128205619Y-65293723D02*
X128205619Y-64960390D01*
X128205619Y-64960390D02*
X128253238Y-64865152D01*
X128253238Y-64865152D02*
X128300857Y-64817533D01*
X128300857Y-64817533D02*
X128396095Y-64769914D01*
X128396095Y-64769914D02*
X128491333Y-64769914D01*
X128491333Y-64769914D02*
X128586571Y-64817533D01*
X128586571Y-64817533D02*
X128634190Y-64865152D01*
X128634190Y-64865152D02*
X128681809Y-64960390D01*
X128681809Y-64960390D02*
X128681809Y-65293723D01*
X129205619Y-63531818D02*
X128205619Y-63531818D01*
X128681809Y-63531818D02*
X128681809Y-62960390D01*
X129205619Y-62960390D02*
X128205619Y-62960390D01*
X129205619Y-62341342D02*
X129158000Y-62436580D01*
X129158000Y-62436580D02*
X129110380Y-62484199D01*
X129110380Y-62484199D02*
X129015142Y-62531818D01*
X129015142Y-62531818D02*
X128729428Y-62531818D01*
X128729428Y-62531818D02*
X128634190Y-62484199D01*
X128634190Y-62484199D02*
X128586571Y-62436580D01*
X128586571Y-62436580D02*
X128538952Y-62341342D01*
X128538952Y-62341342D02*
X128538952Y-62198485D01*
X128538952Y-62198485D02*
X128586571Y-62103247D01*
X128586571Y-62103247D02*
X128634190Y-62055628D01*
X128634190Y-62055628D02*
X128729428Y-62008009D01*
X128729428Y-62008009D02*
X129015142Y-62008009D01*
X129015142Y-62008009D02*
X129110380Y-62055628D01*
X129110380Y-62055628D02*
X129158000Y-62103247D01*
X129158000Y-62103247D02*
X129205619Y-62198485D01*
X129205619Y-62198485D02*
X129205619Y-62341342D01*
X129158000Y-61627056D02*
X129205619Y-61531818D01*
X129205619Y-61531818D02*
X129205619Y-61341342D01*
X129205619Y-61341342D02*
X129158000Y-61246104D01*
X129158000Y-61246104D02*
X129062761Y-61198485D01*
X129062761Y-61198485D02*
X129015142Y-61198485D01*
X129015142Y-61198485D02*
X128919904Y-61246104D01*
X128919904Y-61246104D02*
X128872285Y-61341342D01*
X128872285Y-61341342D02*
X128872285Y-61484199D01*
X128872285Y-61484199D02*
X128824666Y-61579437D01*
X128824666Y-61579437D02*
X128729428Y-61627056D01*
X128729428Y-61627056D02*
X128681809Y-61627056D01*
X128681809Y-61627056D02*
X128586571Y-61579437D01*
X128586571Y-61579437D02*
X128538952Y-61484199D01*
X128538952Y-61484199D02*
X128538952Y-61341342D01*
X128538952Y-61341342D02*
X128586571Y-61246104D01*
X128538952Y-60912770D02*
X128538952Y-60531818D01*
X128205619Y-60769913D02*
X129062761Y-60769913D01*
X129062761Y-60769913D02*
X129158000Y-60722294D01*
X129158000Y-60722294D02*
X129205619Y-60627056D01*
X129205619Y-60627056D02*
X129205619Y-60531818D01*
X131694819Y-109699047D02*
X130694819Y-109699047D01*
X130694819Y-109699047D02*
X131409104Y-109365714D01*
X131409104Y-109365714D02*
X130694819Y-109032381D01*
X130694819Y-109032381D02*
X131694819Y-109032381D01*
X131694819Y-108556190D02*
X131028152Y-108556190D01*
X130694819Y-108556190D02*
X130742438Y-108603809D01*
X130742438Y-108603809D02*
X130790057Y-108556190D01*
X130790057Y-108556190D02*
X130742438Y-108508571D01*
X130742438Y-108508571D02*
X130694819Y-108556190D01*
X130694819Y-108556190D02*
X130790057Y-108556190D01*
X131647200Y-107651429D02*
X131694819Y-107746667D01*
X131694819Y-107746667D02*
X131694819Y-107937143D01*
X131694819Y-107937143D02*
X131647200Y-108032381D01*
X131647200Y-108032381D02*
X131599580Y-108080000D01*
X131599580Y-108080000D02*
X131504342Y-108127619D01*
X131504342Y-108127619D02*
X131218628Y-108127619D01*
X131218628Y-108127619D02*
X131123390Y-108080000D01*
X131123390Y-108080000D02*
X131075771Y-108032381D01*
X131075771Y-108032381D02*
X131028152Y-107937143D01*
X131028152Y-107937143D02*
X131028152Y-107746667D01*
X131028152Y-107746667D02*
X131075771Y-107651429D01*
X131694819Y-107222857D02*
X131028152Y-107222857D01*
X131218628Y-107222857D02*
X131123390Y-107175238D01*
X131123390Y-107175238D02*
X131075771Y-107127619D01*
X131075771Y-107127619D02*
X131028152Y-107032381D01*
X131028152Y-107032381D02*
X131028152Y-106937143D01*
X131694819Y-106460952D02*
X131647200Y-106556190D01*
X131647200Y-106556190D02*
X131599580Y-106603809D01*
X131599580Y-106603809D02*
X131504342Y-106651428D01*
X131504342Y-106651428D02*
X131218628Y-106651428D01*
X131218628Y-106651428D02*
X131123390Y-106603809D01*
X131123390Y-106603809D02*
X131075771Y-106556190D01*
X131075771Y-106556190D02*
X131028152Y-106460952D01*
X131028152Y-106460952D02*
X131028152Y-106318095D01*
X131028152Y-106318095D02*
X131075771Y-106222857D01*
X131075771Y-106222857D02*
X131123390Y-106175238D01*
X131123390Y-106175238D02*
X131218628Y-106127619D01*
X131218628Y-106127619D02*
X131504342Y-106127619D01*
X131504342Y-106127619D02*
X131599580Y-106175238D01*
X131599580Y-106175238D02*
X131647200Y-106222857D01*
X131647200Y-106222857D02*
X131694819Y-106318095D01*
X131694819Y-106318095D02*
X131694819Y-106460952D01*
X131647200Y-104984761D02*
X131694819Y-104841904D01*
X131694819Y-104841904D02*
X131694819Y-104603809D01*
X131694819Y-104603809D02*
X131647200Y-104508571D01*
X131647200Y-104508571D02*
X131599580Y-104460952D01*
X131599580Y-104460952D02*
X131504342Y-104413333D01*
X131504342Y-104413333D02*
X131409104Y-104413333D01*
X131409104Y-104413333D02*
X131313866Y-104460952D01*
X131313866Y-104460952D02*
X131266247Y-104508571D01*
X131266247Y-104508571D02*
X131218628Y-104603809D01*
X131218628Y-104603809D02*
X131171009Y-104794285D01*
X131171009Y-104794285D02*
X131123390Y-104889523D01*
X131123390Y-104889523D02*
X131075771Y-104937142D01*
X131075771Y-104937142D02*
X130980533Y-104984761D01*
X130980533Y-104984761D02*
X130885295Y-104984761D01*
X130885295Y-104984761D02*
X130790057Y-104937142D01*
X130790057Y-104937142D02*
X130742438Y-104889523D01*
X130742438Y-104889523D02*
X130694819Y-104794285D01*
X130694819Y-104794285D02*
X130694819Y-104556190D01*
X130694819Y-104556190D02*
X130742438Y-104413333D01*
X131694819Y-103984761D02*
X130694819Y-103984761D01*
X130694819Y-103984761D02*
X130694819Y-103746666D01*
X130694819Y-103746666D02*
X130742438Y-103603809D01*
X130742438Y-103603809D02*
X130837676Y-103508571D01*
X130837676Y-103508571D02*
X130932914Y-103460952D01*
X130932914Y-103460952D02*
X131123390Y-103413333D01*
X131123390Y-103413333D02*
X131266247Y-103413333D01*
X131266247Y-103413333D02*
X131456723Y-103460952D01*
X131456723Y-103460952D02*
X131551961Y-103508571D01*
X131551961Y-103508571D02*
X131647200Y-103603809D01*
X131647200Y-103603809D02*
X131694819Y-103746666D01*
X131694819Y-103746666D02*
X131694819Y-103984761D01*
X108357142Y-108034819D02*
X108023809Y-107558628D01*
X107785714Y-108034819D02*
X107785714Y-107034819D01*
X107785714Y-107034819D02*
X108166666Y-107034819D01*
X108166666Y-107034819D02*
X108261904Y-107082438D01*
X108261904Y-107082438D02*
X108309523Y-107130057D01*
X108309523Y-107130057D02*
X108357142Y-107225295D01*
X108357142Y-107225295D02*
X108357142Y-107368152D01*
X108357142Y-107368152D02*
X108309523Y-107463390D01*
X108309523Y-107463390D02*
X108261904Y-107511009D01*
X108261904Y-107511009D02*
X108166666Y-107558628D01*
X108166666Y-107558628D02*
X107785714Y-107558628D01*
X109309523Y-108034819D02*
X108738095Y-108034819D01*
X109023809Y-108034819D02*
X109023809Y-107034819D01*
X109023809Y-107034819D02*
X108928571Y-107177676D01*
X108928571Y-107177676D02*
X108833333Y-107272914D01*
X108833333Y-107272914D02*
X108738095Y-107320533D01*
X109928571Y-107034819D02*
X110023809Y-107034819D01*
X110023809Y-107034819D02*
X110119047Y-107082438D01*
X110119047Y-107082438D02*
X110166666Y-107130057D01*
X110166666Y-107130057D02*
X110214285Y-107225295D01*
X110214285Y-107225295D02*
X110261904Y-107415771D01*
X110261904Y-107415771D02*
X110261904Y-107653866D01*
X110261904Y-107653866D02*
X110214285Y-107844342D01*
X110214285Y-107844342D02*
X110166666Y-107939580D01*
X110166666Y-107939580D02*
X110119047Y-107987200D01*
X110119047Y-107987200D02*
X110023809Y-108034819D01*
X110023809Y-108034819D02*
X109928571Y-108034819D01*
X109928571Y-108034819D02*
X109833333Y-107987200D01*
X109833333Y-107987200D02*
X109785714Y-107939580D01*
X109785714Y-107939580D02*
X109738095Y-107844342D01*
X109738095Y-107844342D02*
X109690476Y-107653866D01*
X109690476Y-107653866D02*
X109690476Y-107415771D01*
X109690476Y-107415771D02*
X109738095Y-107225295D01*
X109738095Y-107225295D02*
X109785714Y-107130057D01*
X109785714Y-107130057D02*
X109833333Y-107082438D01*
X109833333Y-107082438D02*
X109928571Y-107034819D01*
X103357142Y-84534819D02*
X103023809Y-84058628D01*
X102785714Y-84534819D02*
X102785714Y-83534819D01*
X102785714Y-83534819D02*
X103166666Y-83534819D01*
X103166666Y-83534819D02*
X103261904Y-83582438D01*
X103261904Y-83582438D02*
X103309523Y-83630057D01*
X103309523Y-83630057D02*
X103357142Y-83725295D01*
X103357142Y-83725295D02*
X103357142Y-83868152D01*
X103357142Y-83868152D02*
X103309523Y-83963390D01*
X103309523Y-83963390D02*
X103261904Y-84011009D01*
X103261904Y-84011009D02*
X103166666Y-84058628D01*
X103166666Y-84058628D02*
X102785714Y-84058628D01*
X104309523Y-84534819D02*
X103738095Y-84534819D01*
X104023809Y-84534819D02*
X104023809Y-83534819D01*
X104023809Y-83534819D02*
X103928571Y-83677676D01*
X103928571Y-83677676D02*
X103833333Y-83772914D01*
X103833333Y-83772914D02*
X103738095Y-83820533D01*
X104642857Y-83534819D02*
X105261904Y-83534819D01*
X105261904Y-83534819D02*
X104928571Y-83915771D01*
X104928571Y-83915771D02*
X105071428Y-83915771D01*
X105071428Y-83915771D02*
X105166666Y-83963390D01*
X105166666Y-83963390D02*
X105214285Y-84011009D01*
X105214285Y-84011009D02*
X105261904Y-84106247D01*
X105261904Y-84106247D02*
X105261904Y-84344342D01*
X105261904Y-84344342D02*
X105214285Y-84439580D01*
X105214285Y-84439580D02*
X105166666Y-84487200D01*
X105166666Y-84487200D02*
X105071428Y-84534819D01*
X105071428Y-84534819D02*
X104785714Y-84534819D01*
X104785714Y-84534819D02*
X104690476Y-84487200D01*
X104690476Y-84487200D02*
X104642857Y-84439580D01*
X173534819Y-57616666D02*
X173058628Y-57949999D01*
X173534819Y-58188094D02*
X172534819Y-58188094D01*
X172534819Y-58188094D02*
X172534819Y-57807142D01*
X172534819Y-57807142D02*
X172582438Y-57711904D01*
X172582438Y-57711904D02*
X172630057Y-57664285D01*
X172630057Y-57664285D02*
X172725295Y-57616666D01*
X172725295Y-57616666D02*
X172868152Y-57616666D01*
X172868152Y-57616666D02*
X172963390Y-57664285D01*
X172963390Y-57664285D02*
X173011009Y-57711904D01*
X173011009Y-57711904D02*
X173058628Y-57807142D01*
X173058628Y-57807142D02*
X173058628Y-58188094D01*
X172534819Y-57283332D02*
X172534819Y-56664285D01*
X172534819Y-56664285D02*
X172915771Y-56997618D01*
X172915771Y-56997618D02*
X172915771Y-56854761D01*
X172915771Y-56854761D02*
X172963390Y-56759523D01*
X172963390Y-56759523D02*
X173011009Y-56711904D01*
X173011009Y-56711904D02*
X173106247Y-56664285D01*
X173106247Y-56664285D02*
X173344342Y-56664285D01*
X173344342Y-56664285D02*
X173439580Y-56711904D01*
X173439580Y-56711904D02*
X173487200Y-56759523D01*
X173487200Y-56759523D02*
X173534819Y-56854761D01*
X173534819Y-56854761D02*
X173534819Y-57140475D01*
X173534819Y-57140475D02*
X173487200Y-57235713D01*
X173487200Y-57235713D02*
X173439580Y-57283332D01*
X165034819Y-66642857D02*
X164558628Y-66976190D01*
X165034819Y-67214285D02*
X164034819Y-67214285D01*
X164034819Y-67214285D02*
X164034819Y-66833333D01*
X164034819Y-66833333D02*
X164082438Y-66738095D01*
X164082438Y-66738095D02*
X164130057Y-66690476D01*
X164130057Y-66690476D02*
X164225295Y-66642857D01*
X164225295Y-66642857D02*
X164368152Y-66642857D01*
X164368152Y-66642857D02*
X164463390Y-66690476D01*
X164463390Y-66690476D02*
X164511009Y-66738095D01*
X164511009Y-66738095D02*
X164558628Y-66833333D01*
X164558628Y-66833333D02*
X164558628Y-67214285D01*
X165034819Y-65690476D02*
X165034819Y-66261904D01*
X165034819Y-65976190D02*
X164034819Y-65976190D01*
X164034819Y-65976190D02*
X164177676Y-66071428D01*
X164177676Y-66071428D02*
X164272914Y-66166666D01*
X164272914Y-66166666D02*
X164320533Y-66261904D01*
X164368152Y-64833333D02*
X165034819Y-64833333D01*
X163987200Y-65071428D02*
X164701485Y-65309523D01*
X164701485Y-65309523D02*
X164701485Y-64690476D01*
X169554819Y-79309523D02*
X170269104Y-79309523D01*
X170269104Y-79309523D02*
X170411961Y-79357142D01*
X170411961Y-79357142D02*
X170507200Y-79452380D01*
X170507200Y-79452380D02*
X170554819Y-79595237D01*
X170554819Y-79595237D02*
X170554819Y-79690475D01*
X170554819Y-78309523D02*
X170554819Y-78880951D01*
X170554819Y-78595237D02*
X169554819Y-78595237D01*
X169554819Y-78595237D02*
X169697676Y-78690475D01*
X169697676Y-78690475D02*
X169792914Y-78785713D01*
X169792914Y-78785713D02*
X169840533Y-78880951D01*
X169554819Y-77690475D02*
X169554819Y-77595237D01*
X169554819Y-77595237D02*
X169602438Y-77499999D01*
X169602438Y-77499999D02*
X169650057Y-77452380D01*
X169650057Y-77452380D02*
X169745295Y-77404761D01*
X169745295Y-77404761D02*
X169935771Y-77357142D01*
X169935771Y-77357142D02*
X170173866Y-77357142D01*
X170173866Y-77357142D02*
X170364342Y-77404761D01*
X170364342Y-77404761D02*
X170459580Y-77452380D01*
X170459580Y-77452380D02*
X170507200Y-77499999D01*
X170507200Y-77499999D02*
X170554819Y-77595237D01*
X170554819Y-77595237D02*
X170554819Y-77690475D01*
X170554819Y-77690475D02*
X170507200Y-77785713D01*
X170507200Y-77785713D02*
X170459580Y-77833332D01*
X170459580Y-77833332D02*
X170364342Y-77880951D01*
X170364342Y-77880951D02*
X170173866Y-77928570D01*
X170173866Y-77928570D02*
X169935771Y-77928570D01*
X169935771Y-77928570D02*
X169745295Y-77880951D01*
X169745295Y-77880951D02*
X169650057Y-77833332D01*
X169650057Y-77833332D02*
X169602438Y-77785713D01*
X169602438Y-77785713D02*
X169554819Y-77690475D01*
X110216666Y-100454819D02*
X110216666Y-101169104D01*
X110216666Y-101169104D02*
X110169047Y-101311961D01*
X110169047Y-101311961D02*
X110073809Y-101407200D01*
X110073809Y-101407200D02*
X109930952Y-101454819D01*
X109930952Y-101454819D02*
X109835714Y-101454819D01*
X110597619Y-100454819D02*
X111264285Y-100454819D01*
X111264285Y-100454819D02*
X110835714Y-101454819D01*
X103357142Y-94034819D02*
X103023809Y-93558628D01*
X102785714Y-94034819D02*
X102785714Y-93034819D01*
X102785714Y-93034819D02*
X103166666Y-93034819D01*
X103166666Y-93034819D02*
X103261904Y-93082438D01*
X103261904Y-93082438D02*
X103309523Y-93130057D01*
X103309523Y-93130057D02*
X103357142Y-93225295D01*
X103357142Y-93225295D02*
X103357142Y-93368152D01*
X103357142Y-93368152D02*
X103309523Y-93463390D01*
X103309523Y-93463390D02*
X103261904Y-93511009D01*
X103261904Y-93511009D02*
X103166666Y-93558628D01*
X103166666Y-93558628D02*
X102785714Y-93558628D01*
X104309523Y-94034819D02*
X103738095Y-94034819D01*
X104023809Y-94034819D02*
X104023809Y-93034819D01*
X104023809Y-93034819D02*
X103928571Y-93177676D01*
X103928571Y-93177676D02*
X103833333Y-93272914D01*
X103833333Y-93272914D02*
X103738095Y-93320533D01*
X105261904Y-94034819D02*
X104690476Y-94034819D01*
X104976190Y-94034819D02*
X104976190Y-93034819D01*
X104976190Y-93034819D02*
X104880952Y-93177676D01*
X104880952Y-93177676D02*
X104785714Y-93272914D01*
X104785714Y-93272914D02*
X104690476Y-93320533D01*
X161857142Y-113034819D02*
X161523809Y-112558628D01*
X161285714Y-113034819D02*
X161285714Y-112034819D01*
X161285714Y-112034819D02*
X161666666Y-112034819D01*
X161666666Y-112034819D02*
X161761904Y-112082438D01*
X161761904Y-112082438D02*
X161809523Y-112130057D01*
X161809523Y-112130057D02*
X161857142Y-112225295D01*
X161857142Y-112225295D02*
X161857142Y-112368152D01*
X161857142Y-112368152D02*
X161809523Y-112463390D01*
X161809523Y-112463390D02*
X161761904Y-112511009D01*
X161761904Y-112511009D02*
X161666666Y-112558628D01*
X161666666Y-112558628D02*
X161285714Y-112558628D01*
X162809523Y-113034819D02*
X162238095Y-113034819D01*
X162523809Y-113034819D02*
X162523809Y-112034819D01*
X162523809Y-112034819D02*
X162428571Y-112177676D01*
X162428571Y-112177676D02*
X162333333Y-112272914D01*
X162333333Y-112272914D02*
X162238095Y-112320533D01*
X163714285Y-112034819D02*
X163238095Y-112034819D01*
X163238095Y-112034819D02*
X163190476Y-112511009D01*
X163190476Y-112511009D02*
X163238095Y-112463390D01*
X163238095Y-112463390D02*
X163333333Y-112415771D01*
X163333333Y-112415771D02*
X163571428Y-112415771D01*
X163571428Y-112415771D02*
X163666666Y-112463390D01*
X163666666Y-112463390D02*
X163714285Y-112511009D01*
X163714285Y-112511009D02*
X163761904Y-112606247D01*
X163761904Y-112606247D02*
X163761904Y-112844342D01*
X163761904Y-112844342D02*
X163714285Y-112939580D01*
X163714285Y-112939580D02*
X163666666Y-112987200D01*
X163666666Y-112987200D02*
X163571428Y-113034819D01*
X163571428Y-113034819D02*
X163333333Y-113034819D01*
X163333333Y-113034819D02*
X163238095Y-112987200D01*
X163238095Y-112987200D02*
X163190476Y-112939580D01*
X103354819Y-58023333D02*
X104069104Y-58023333D01*
X104069104Y-58023333D02*
X104211961Y-58070952D01*
X104211961Y-58070952D02*
X104307200Y-58166190D01*
X104307200Y-58166190D02*
X104354819Y-58309047D01*
X104354819Y-58309047D02*
X104354819Y-58404285D01*
X103354819Y-57642380D02*
X103354819Y-57023333D01*
X103354819Y-57023333D02*
X103735771Y-57356666D01*
X103735771Y-57356666D02*
X103735771Y-57213809D01*
X103735771Y-57213809D02*
X103783390Y-57118571D01*
X103783390Y-57118571D02*
X103831009Y-57070952D01*
X103831009Y-57070952D02*
X103926247Y-57023333D01*
X103926247Y-57023333D02*
X104164342Y-57023333D01*
X104164342Y-57023333D02*
X104259580Y-57070952D01*
X104259580Y-57070952D02*
X104307200Y-57118571D01*
X104307200Y-57118571D02*
X104354819Y-57213809D01*
X104354819Y-57213809D02*
X104354819Y-57499523D01*
X104354819Y-57499523D02*
X104307200Y-57594761D01*
X104307200Y-57594761D02*
X104259580Y-57642380D01*
X106609580Y-55166666D02*
X106657200Y-55214285D01*
X106657200Y-55214285D02*
X106704819Y-55357142D01*
X106704819Y-55357142D02*
X106704819Y-55452380D01*
X106704819Y-55452380D02*
X106657200Y-55595237D01*
X106657200Y-55595237D02*
X106561961Y-55690475D01*
X106561961Y-55690475D02*
X106466723Y-55738094D01*
X106466723Y-55738094D02*
X106276247Y-55785713D01*
X106276247Y-55785713D02*
X106133390Y-55785713D01*
X106133390Y-55785713D02*
X105942914Y-55738094D01*
X105942914Y-55738094D02*
X105847676Y-55690475D01*
X105847676Y-55690475D02*
X105752438Y-55595237D01*
X105752438Y-55595237D02*
X105704819Y-55452380D01*
X105704819Y-55452380D02*
X105704819Y-55357142D01*
X105704819Y-55357142D02*
X105752438Y-55214285D01*
X105752438Y-55214285D02*
X105800057Y-55166666D01*
X106704819Y-54214285D02*
X106704819Y-54785713D01*
X106704819Y-54499999D02*
X105704819Y-54499999D01*
X105704819Y-54499999D02*
X105847676Y-54595237D01*
X105847676Y-54595237D02*
X105942914Y-54690475D01*
X105942914Y-54690475D02*
X105990533Y-54785713D01*
X142034819Y-57616666D02*
X141558628Y-57949999D01*
X142034819Y-58188094D02*
X141034819Y-58188094D01*
X141034819Y-58188094D02*
X141034819Y-57807142D01*
X141034819Y-57807142D02*
X141082438Y-57711904D01*
X141082438Y-57711904D02*
X141130057Y-57664285D01*
X141130057Y-57664285D02*
X141225295Y-57616666D01*
X141225295Y-57616666D02*
X141368152Y-57616666D01*
X141368152Y-57616666D02*
X141463390Y-57664285D01*
X141463390Y-57664285D02*
X141511009Y-57711904D01*
X141511009Y-57711904D02*
X141558628Y-57807142D01*
X141558628Y-57807142D02*
X141558628Y-58188094D01*
X141368152Y-56759523D02*
X142034819Y-56759523D01*
X140987200Y-56997618D02*
X141701485Y-57235713D01*
X141701485Y-57235713D02*
X141701485Y-56616666D01*
X103357142Y-89172819D02*
X103023809Y-88696628D01*
X102785714Y-89172819D02*
X102785714Y-88172819D01*
X102785714Y-88172819D02*
X103166666Y-88172819D01*
X103166666Y-88172819D02*
X103261904Y-88220438D01*
X103261904Y-88220438D02*
X103309523Y-88268057D01*
X103309523Y-88268057D02*
X103357142Y-88363295D01*
X103357142Y-88363295D02*
X103357142Y-88506152D01*
X103357142Y-88506152D02*
X103309523Y-88601390D01*
X103309523Y-88601390D02*
X103261904Y-88649009D01*
X103261904Y-88649009D02*
X103166666Y-88696628D01*
X103166666Y-88696628D02*
X102785714Y-88696628D01*
X104309523Y-89172819D02*
X103738095Y-89172819D01*
X104023809Y-89172819D02*
X104023809Y-88172819D01*
X104023809Y-88172819D02*
X103928571Y-88315676D01*
X103928571Y-88315676D02*
X103833333Y-88410914D01*
X103833333Y-88410914D02*
X103738095Y-88458533D01*
X104690476Y-88268057D02*
X104738095Y-88220438D01*
X104738095Y-88220438D02*
X104833333Y-88172819D01*
X104833333Y-88172819D02*
X105071428Y-88172819D01*
X105071428Y-88172819D02*
X105166666Y-88220438D01*
X105166666Y-88220438D02*
X105214285Y-88268057D01*
X105214285Y-88268057D02*
X105261904Y-88363295D01*
X105261904Y-88363295D02*
X105261904Y-88458533D01*
X105261904Y-88458533D02*
X105214285Y-88601390D01*
X105214285Y-88601390D02*
X104642857Y-89172819D01*
X104642857Y-89172819D02*
X105261904Y-89172819D01*
X153754819Y-67833333D02*
X154469104Y-67833333D01*
X154469104Y-67833333D02*
X154611961Y-67880952D01*
X154611961Y-67880952D02*
X154707200Y-67976190D01*
X154707200Y-67976190D02*
X154754819Y-68119047D01*
X154754819Y-68119047D02*
X154754819Y-68214285D01*
X153754819Y-66928571D02*
X153754819Y-67119047D01*
X153754819Y-67119047D02*
X153802438Y-67214285D01*
X153802438Y-67214285D02*
X153850057Y-67261904D01*
X153850057Y-67261904D02*
X153992914Y-67357142D01*
X153992914Y-67357142D02*
X154183390Y-67404761D01*
X154183390Y-67404761D02*
X154564342Y-67404761D01*
X154564342Y-67404761D02*
X154659580Y-67357142D01*
X154659580Y-67357142D02*
X154707200Y-67309523D01*
X154707200Y-67309523D02*
X154754819Y-67214285D01*
X154754819Y-67214285D02*
X154754819Y-67023809D01*
X154754819Y-67023809D02*
X154707200Y-66928571D01*
X154707200Y-66928571D02*
X154659580Y-66880952D01*
X154659580Y-66880952D02*
X154564342Y-66833333D01*
X154564342Y-66833333D02*
X154326247Y-66833333D01*
X154326247Y-66833333D02*
X154231009Y-66880952D01*
X154231009Y-66880952D02*
X154183390Y-66928571D01*
X154183390Y-66928571D02*
X154135771Y-67023809D01*
X154135771Y-67023809D02*
X154135771Y-67214285D01*
X154135771Y-67214285D02*
X154183390Y-67309523D01*
X154183390Y-67309523D02*
X154231009Y-67357142D01*
X154231009Y-67357142D02*
X154326247Y-67404761D01*
X103833333Y-69954819D02*
X103500000Y-69478628D01*
X103261905Y-69954819D02*
X103261905Y-68954819D01*
X103261905Y-68954819D02*
X103642857Y-68954819D01*
X103642857Y-68954819D02*
X103738095Y-69002438D01*
X103738095Y-69002438D02*
X103785714Y-69050057D01*
X103785714Y-69050057D02*
X103833333Y-69145295D01*
X103833333Y-69145295D02*
X103833333Y-69288152D01*
X103833333Y-69288152D02*
X103785714Y-69383390D01*
X103785714Y-69383390D02*
X103738095Y-69431009D01*
X103738095Y-69431009D02*
X103642857Y-69478628D01*
X103642857Y-69478628D02*
X103261905Y-69478628D01*
X104690476Y-68954819D02*
X104500000Y-68954819D01*
X104500000Y-68954819D02*
X104404762Y-69002438D01*
X104404762Y-69002438D02*
X104357143Y-69050057D01*
X104357143Y-69050057D02*
X104261905Y-69192914D01*
X104261905Y-69192914D02*
X104214286Y-69383390D01*
X104214286Y-69383390D02*
X104214286Y-69764342D01*
X104214286Y-69764342D02*
X104261905Y-69859580D01*
X104261905Y-69859580D02*
X104309524Y-69907200D01*
X104309524Y-69907200D02*
X104404762Y-69954819D01*
X104404762Y-69954819D02*
X104595238Y-69954819D01*
X104595238Y-69954819D02*
X104690476Y-69907200D01*
X104690476Y-69907200D02*
X104738095Y-69859580D01*
X104738095Y-69859580D02*
X104785714Y-69764342D01*
X104785714Y-69764342D02*
X104785714Y-69526247D01*
X104785714Y-69526247D02*
X104738095Y-69431009D01*
X104738095Y-69431009D02*
X104690476Y-69383390D01*
X104690476Y-69383390D02*
X104595238Y-69335771D01*
X104595238Y-69335771D02*
X104404762Y-69335771D01*
X104404762Y-69335771D02*
X104309524Y-69383390D01*
X104309524Y-69383390D02*
X104261905Y-69431009D01*
X104261905Y-69431009D02*
X104214286Y-69526247D01*
X169554819Y-94309523D02*
X170269104Y-94309523D01*
X170269104Y-94309523D02*
X170411961Y-94357142D01*
X170411961Y-94357142D02*
X170507200Y-94452380D01*
X170507200Y-94452380D02*
X170554819Y-94595237D01*
X170554819Y-94595237D02*
X170554819Y-94690475D01*
X170554819Y-93309523D02*
X170554819Y-93880951D01*
X170554819Y-93595237D02*
X169554819Y-93595237D01*
X169554819Y-93595237D02*
X169697676Y-93690475D01*
X169697676Y-93690475D02*
X169792914Y-93785713D01*
X169792914Y-93785713D02*
X169840533Y-93880951D01*
X169650057Y-92928570D02*
X169602438Y-92880951D01*
X169602438Y-92880951D02*
X169554819Y-92785713D01*
X169554819Y-92785713D02*
X169554819Y-92547618D01*
X169554819Y-92547618D02*
X169602438Y-92452380D01*
X169602438Y-92452380D02*
X169650057Y-92404761D01*
X169650057Y-92404761D02*
X169745295Y-92357142D01*
X169745295Y-92357142D02*
X169840533Y-92357142D01*
X169840533Y-92357142D02*
X169983390Y-92404761D01*
X169983390Y-92404761D02*
X170554819Y-92976189D01*
X170554819Y-92976189D02*
X170554819Y-92357142D01*
X113261905Y-59984819D02*
X113261905Y-58984819D01*
X113261905Y-58984819D02*
X113500000Y-58984819D01*
X113500000Y-58984819D02*
X113642857Y-59032438D01*
X113642857Y-59032438D02*
X113738095Y-59127676D01*
X113738095Y-59127676D02*
X113785714Y-59222914D01*
X113785714Y-59222914D02*
X113833333Y-59413390D01*
X113833333Y-59413390D02*
X113833333Y-59556247D01*
X113833333Y-59556247D02*
X113785714Y-59746723D01*
X113785714Y-59746723D02*
X113738095Y-59841961D01*
X113738095Y-59841961D02*
X113642857Y-59937200D01*
X113642857Y-59937200D02*
X113500000Y-59984819D01*
X113500000Y-59984819D02*
X113261905Y-59984819D01*
X114785714Y-59984819D02*
X114214286Y-59984819D01*
X114500000Y-59984819D02*
X114500000Y-58984819D01*
X114500000Y-58984819D02*
X114404762Y-59127676D01*
X114404762Y-59127676D02*
X114309524Y-59222914D01*
X114309524Y-59222914D02*
X114214286Y-59270533D01*
X108658095Y-60354819D02*
X108658095Y-59354819D01*
X109229523Y-60354819D02*
X108800952Y-59783390D01*
X109229523Y-59354819D02*
X108658095Y-59926247D01*
X146454819Y-110642857D02*
X145978628Y-110976190D01*
X146454819Y-111214285D02*
X145454819Y-111214285D01*
X145454819Y-111214285D02*
X145454819Y-110833333D01*
X145454819Y-110833333D02*
X145502438Y-110738095D01*
X145502438Y-110738095D02*
X145550057Y-110690476D01*
X145550057Y-110690476D02*
X145645295Y-110642857D01*
X145645295Y-110642857D02*
X145788152Y-110642857D01*
X145788152Y-110642857D02*
X145883390Y-110690476D01*
X145883390Y-110690476D02*
X145931009Y-110738095D01*
X145931009Y-110738095D02*
X145978628Y-110833333D01*
X145978628Y-110833333D02*
X145978628Y-111214285D01*
X146454819Y-109690476D02*
X146454819Y-110261904D01*
X146454819Y-109976190D02*
X145454819Y-109976190D01*
X145454819Y-109976190D02*
X145597676Y-110071428D01*
X145597676Y-110071428D02*
X145692914Y-110166666D01*
X145692914Y-110166666D02*
X145740533Y-110261904D01*
X145454819Y-108833333D02*
X145454819Y-109023809D01*
X145454819Y-109023809D02*
X145502438Y-109119047D01*
X145502438Y-109119047D02*
X145550057Y-109166666D01*
X145550057Y-109166666D02*
X145692914Y-109261904D01*
X145692914Y-109261904D02*
X145883390Y-109309523D01*
X145883390Y-109309523D02*
X146264342Y-109309523D01*
X146264342Y-109309523D02*
X146359580Y-109261904D01*
X146359580Y-109261904D02*
X146407200Y-109214285D01*
X146407200Y-109214285D02*
X146454819Y-109119047D01*
X146454819Y-109119047D02*
X146454819Y-108928571D01*
X146454819Y-108928571D02*
X146407200Y-108833333D01*
X146407200Y-108833333D02*
X146359580Y-108785714D01*
X146359580Y-108785714D02*
X146264342Y-108738095D01*
X146264342Y-108738095D02*
X146026247Y-108738095D01*
X146026247Y-108738095D02*
X145931009Y-108785714D01*
X145931009Y-108785714D02*
X145883390Y-108833333D01*
X145883390Y-108833333D02*
X145835771Y-108928571D01*
X145835771Y-108928571D02*
X145835771Y-109119047D01*
X145835771Y-109119047D02*
X145883390Y-109214285D01*
X145883390Y-109214285D02*
X145931009Y-109261904D01*
X145931009Y-109261904D02*
X146026247Y-109309523D01*
X103833333Y-79454819D02*
X103500000Y-78978628D01*
X103261905Y-79454819D02*
X103261905Y-78454819D01*
X103261905Y-78454819D02*
X103642857Y-78454819D01*
X103642857Y-78454819D02*
X103738095Y-78502438D01*
X103738095Y-78502438D02*
X103785714Y-78550057D01*
X103785714Y-78550057D02*
X103833333Y-78645295D01*
X103833333Y-78645295D02*
X103833333Y-78788152D01*
X103833333Y-78788152D02*
X103785714Y-78883390D01*
X103785714Y-78883390D02*
X103738095Y-78931009D01*
X103738095Y-78931009D02*
X103642857Y-78978628D01*
X103642857Y-78978628D02*
X103261905Y-78978628D01*
X104404762Y-78883390D02*
X104309524Y-78835771D01*
X104309524Y-78835771D02*
X104261905Y-78788152D01*
X104261905Y-78788152D02*
X104214286Y-78692914D01*
X104214286Y-78692914D02*
X104214286Y-78645295D01*
X104214286Y-78645295D02*
X104261905Y-78550057D01*
X104261905Y-78550057D02*
X104309524Y-78502438D01*
X104309524Y-78502438D02*
X104404762Y-78454819D01*
X104404762Y-78454819D02*
X104595238Y-78454819D01*
X104595238Y-78454819D02*
X104690476Y-78502438D01*
X104690476Y-78502438D02*
X104738095Y-78550057D01*
X104738095Y-78550057D02*
X104785714Y-78645295D01*
X104785714Y-78645295D02*
X104785714Y-78692914D01*
X104785714Y-78692914D02*
X104738095Y-78788152D01*
X104738095Y-78788152D02*
X104690476Y-78835771D01*
X104690476Y-78835771D02*
X104595238Y-78883390D01*
X104595238Y-78883390D02*
X104404762Y-78883390D01*
X104404762Y-78883390D02*
X104309524Y-78931009D01*
X104309524Y-78931009D02*
X104261905Y-78978628D01*
X104261905Y-78978628D02*
X104214286Y-79073866D01*
X104214286Y-79073866D02*
X104214286Y-79264342D01*
X104214286Y-79264342D02*
X104261905Y-79359580D01*
X104261905Y-79359580D02*
X104309524Y-79407200D01*
X104309524Y-79407200D02*
X104404762Y-79454819D01*
X104404762Y-79454819D02*
X104595238Y-79454819D01*
X104595238Y-79454819D02*
X104690476Y-79407200D01*
X104690476Y-79407200D02*
X104738095Y-79359580D01*
X104738095Y-79359580D02*
X104785714Y-79264342D01*
X104785714Y-79264342D02*
X104785714Y-79073866D01*
X104785714Y-79073866D02*
X104738095Y-78978628D01*
X104738095Y-78978628D02*
X104690476Y-78931009D01*
X104690476Y-78931009D02*
X104595238Y-78883390D01*
X148034819Y-57616666D02*
X147558628Y-57949999D01*
X148034819Y-58188094D02*
X147034819Y-58188094D01*
X147034819Y-58188094D02*
X147034819Y-57807142D01*
X147034819Y-57807142D02*
X147082438Y-57711904D01*
X147082438Y-57711904D02*
X147130057Y-57664285D01*
X147130057Y-57664285D02*
X147225295Y-57616666D01*
X147225295Y-57616666D02*
X147368152Y-57616666D01*
X147368152Y-57616666D02*
X147463390Y-57664285D01*
X147463390Y-57664285D02*
X147511009Y-57711904D01*
X147511009Y-57711904D02*
X147558628Y-57807142D01*
X147558628Y-57807142D02*
X147558628Y-58188094D01*
X147034819Y-56711904D02*
X147034819Y-57188094D01*
X147034819Y-57188094D02*
X147511009Y-57235713D01*
X147511009Y-57235713D02*
X147463390Y-57188094D01*
X147463390Y-57188094D02*
X147415771Y-57092856D01*
X147415771Y-57092856D02*
X147415771Y-56854761D01*
X147415771Y-56854761D02*
X147463390Y-56759523D01*
X147463390Y-56759523D02*
X147511009Y-56711904D01*
X147511009Y-56711904D02*
X147606247Y-56664285D01*
X147606247Y-56664285D02*
X147844342Y-56664285D01*
X147844342Y-56664285D02*
X147939580Y-56711904D01*
X147939580Y-56711904D02*
X147987200Y-56759523D01*
X147987200Y-56759523D02*
X148034819Y-56854761D01*
X148034819Y-56854761D02*
X148034819Y-57092856D01*
X148034819Y-57092856D02*
X147987200Y-57188094D01*
X147987200Y-57188094D02*
X147939580Y-57235713D01*
X116690476Y-88414819D02*
X116690476Y-89129104D01*
X116690476Y-89129104D02*
X116642857Y-89271961D01*
X116642857Y-89271961D02*
X116547619Y-89367200D01*
X116547619Y-89367200D02*
X116404762Y-89414819D01*
X116404762Y-89414819D02*
X116309524Y-89414819D01*
X117690476Y-89414819D02*
X117119048Y-89414819D01*
X117404762Y-89414819D02*
X117404762Y-88414819D01*
X117404762Y-88414819D02*
X117309524Y-88557676D01*
X117309524Y-88557676D02*
X117214286Y-88652914D01*
X117214286Y-88652914D02*
X117119048Y-88700533D01*
X118642857Y-89414819D02*
X118071429Y-89414819D01*
X118357143Y-89414819D02*
X118357143Y-88414819D01*
X118357143Y-88414819D02*
X118261905Y-88557676D01*
X118261905Y-88557676D02*
X118166667Y-88652914D01*
X118166667Y-88652914D02*
X118071429Y-88700533D01*
X149666666Y-53854819D02*
X149666666Y-54569104D01*
X149666666Y-54569104D02*
X149619047Y-54711961D01*
X149619047Y-54711961D02*
X149523809Y-54807200D01*
X149523809Y-54807200D02*
X149380952Y-54854819D01*
X149380952Y-54854819D02*
X149285714Y-54854819D01*
X150571428Y-54188152D02*
X150571428Y-54854819D01*
X150333333Y-53807200D02*
X150095238Y-54521485D01*
X150095238Y-54521485D02*
X150714285Y-54521485D01*
X146034819Y-96142857D02*
X145558628Y-96476190D01*
X146034819Y-96714285D02*
X145034819Y-96714285D01*
X145034819Y-96714285D02*
X145034819Y-96333333D01*
X145034819Y-96333333D02*
X145082438Y-96238095D01*
X145082438Y-96238095D02*
X145130057Y-96190476D01*
X145130057Y-96190476D02*
X145225295Y-96142857D01*
X145225295Y-96142857D02*
X145368152Y-96142857D01*
X145368152Y-96142857D02*
X145463390Y-96190476D01*
X145463390Y-96190476D02*
X145511009Y-96238095D01*
X145511009Y-96238095D02*
X145558628Y-96333333D01*
X145558628Y-96333333D02*
X145558628Y-96714285D01*
X145130057Y-95761904D02*
X145082438Y-95714285D01*
X145082438Y-95714285D02*
X145034819Y-95619047D01*
X145034819Y-95619047D02*
X145034819Y-95380952D01*
X145034819Y-95380952D02*
X145082438Y-95285714D01*
X145082438Y-95285714D02*
X145130057Y-95238095D01*
X145130057Y-95238095D02*
X145225295Y-95190476D01*
X145225295Y-95190476D02*
X145320533Y-95190476D01*
X145320533Y-95190476D02*
X145463390Y-95238095D01*
X145463390Y-95238095D02*
X146034819Y-95809523D01*
X146034819Y-95809523D02*
X146034819Y-95190476D01*
X145130057Y-94809523D02*
X145082438Y-94761904D01*
X145082438Y-94761904D02*
X145034819Y-94666666D01*
X145034819Y-94666666D02*
X145034819Y-94428571D01*
X145034819Y-94428571D02*
X145082438Y-94333333D01*
X145082438Y-94333333D02*
X145130057Y-94285714D01*
X145130057Y-94285714D02*
X145225295Y-94238095D01*
X145225295Y-94238095D02*
X145320533Y-94238095D01*
X145320533Y-94238095D02*
X145463390Y-94285714D01*
X145463390Y-94285714D02*
X146034819Y-94857142D01*
X146034819Y-94857142D02*
X146034819Y-94238095D01*
X153534819Y-57616666D02*
X153058628Y-57949999D01*
X153534819Y-58188094D02*
X152534819Y-58188094D01*
X152534819Y-58188094D02*
X152534819Y-57807142D01*
X152534819Y-57807142D02*
X152582438Y-57711904D01*
X152582438Y-57711904D02*
X152630057Y-57664285D01*
X152630057Y-57664285D02*
X152725295Y-57616666D01*
X152725295Y-57616666D02*
X152868152Y-57616666D01*
X152868152Y-57616666D02*
X152963390Y-57664285D01*
X152963390Y-57664285D02*
X153011009Y-57711904D01*
X153011009Y-57711904D02*
X153058628Y-57807142D01*
X153058628Y-57807142D02*
X153058628Y-58188094D01*
X153534819Y-57140475D02*
X153534819Y-56949999D01*
X153534819Y-56949999D02*
X153487200Y-56854761D01*
X153487200Y-56854761D02*
X153439580Y-56807142D01*
X153439580Y-56807142D02*
X153296723Y-56711904D01*
X153296723Y-56711904D02*
X153106247Y-56664285D01*
X153106247Y-56664285D02*
X152725295Y-56664285D01*
X152725295Y-56664285D02*
X152630057Y-56711904D01*
X152630057Y-56711904D02*
X152582438Y-56759523D01*
X152582438Y-56759523D02*
X152534819Y-56854761D01*
X152534819Y-56854761D02*
X152534819Y-57045237D01*
X152534819Y-57045237D02*
X152582438Y-57140475D01*
X152582438Y-57140475D02*
X152630057Y-57188094D01*
X152630057Y-57188094D02*
X152725295Y-57235713D01*
X152725295Y-57235713D02*
X152963390Y-57235713D01*
X152963390Y-57235713D02*
X153058628Y-57188094D01*
X153058628Y-57188094D02*
X153106247Y-57140475D01*
X153106247Y-57140475D02*
X153153866Y-57045237D01*
X153153866Y-57045237D02*
X153153866Y-56854761D01*
X153153866Y-56854761D02*
X153106247Y-56759523D01*
X153106247Y-56759523D02*
X153058628Y-56711904D01*
X153058628Y-56711904D02*
X152963390Y-56664285D01*
X162034819Y-57616666D02*
X161558628Y-57949999D01*
X162034819Y-58188094D02*
X161034819Y-58188094D01*
X161034819Y-58188094D02*
X161034819Y-57807142D01*
X161034819Y-57807142D02*
X161082438Y-57711904D01*
X161082438Y-57711904D02*
X161130057Y-57664285D01*
X161130057Y-57664285D02*
X161225295Y-57616666D01*
X161225295Y-57616666D02*
X161368152Y-57616666D01*
X161368152Y-57616666D02*
X161463390Y-57664285D01*
X161463390Y-57664285D02*
X161511009Y-57711904D01*
X161511009Y-57711904D02*
X161558628Y-57807142D01*
X161558628Y-57807142D02*
X161558628Y-58188094D01*
X162034819Y-56664285D02*
X162034819Y-57235713D01*
X162034819Y-56949999D02*
X161034819Y-56949999D01*
X161034819Y-56949999D02*
X161177676Y-57045237D01*
X161177676Y-57045237D02*
X161272914Y-57140475D01*
X161272914Y-57140475D02*
X161320533Y-57235713D01*
X142754819Y-67833333D02*
X143469104Y-67833333D01*
X143469104Y-67833333D02*
X143611961Y-67880952D01*
X143611961Y-67880952D02*
X143707200Y-67976190D01*
X143707200Y-67976190D02*
X143754819Y-68119047D01*
X143754819Y-68119047D02*
X143754819Y-68214285D01*
X142754819Y-66880952D02*
X142754819Y-67357142D01*
X142754819Y-67357142D02*
X143231009Y-67404761D01*
X143231009Y-67404761D02*
X143183390Y-67357142D01*
X143183390Y-67357142D02*
X143135771Y-67261904D01*
X143135771Y-67261904D02*
X143135771Y-67023809D01*
X143135771Y-67023809D02*
X143183390Y-66928571D01*
X143183390Y-66928571D02*
X143231009Y-66880952D01*
X143231009Y-66880952D02*
X143326247Y-66833333D01*
X143326247Y-66833333D02*
X143564342Y-66833333D01*
X143564342Y-66833333D02*
X143659580Y-66880952D01*
X143659580Y-66880952D02*
X143707200Y-66928571D01*
X143707200Y-66928571D02*
X143754819Y-67023809D01*
X143754819Y-67023809D02*
X143754819Y-67261904D01*
X143754819Y-67261904D02*
X143707200Y-67357142D01*
X143707200Y-67357142D02*
X143659580Y-67404761D01*
X152454819Y-82142857D02*
X151978628Y-82476190D01*
X152454819Y-82714285D02*
X151454819Y-82714285D01*
X151454819Y-82714285D02*
X151454819Y-82333333D01*
X151454819Y-82333333D02*
X151502438Y-82238095D01*
X151502438Y-82238095D02*
X151550057Y-82190476D01*
X151550057Y-82190476D02*
X151645295Y-82142857D01*
X151645295Y-82142857D02*
X151788152Y-82142857D01*
X151788152Y-82142857D02*
X151883390Y-82190476D01*
X151883390Y-82190476D02*
X151931009Y-82238095D01*
X151931009Y-82238095D02*
X151978628Y-82333333D01*
X151978628Y-82333333D02*
X151978628Y-82714285D01*
X151550057Y-81761904D02*
X151502438Y-81714285D01*
X151502438Y-81714285D02*
X151454819Y-81619047D01*
X151454819Y-81619047D02*
X151454819Y-81380952D01*
X151454819Y-81380952D02*
X151502438Y-81285714D01*
X151502438Y-81285714D02*
X151550057Y-81238095D01*
X151550057Y-81238095D02*
X151645295Y-81190476D01*
X151645295Y-81190476D02*
X151740533Y-81190476D01*
X151740533Y-81190476D02*
X151883390Y-81238095D01*
X151883390Y-81238095D02*
X152454819Y-81809523D01*
X152454819Y-81809523D02*
X152454819Y-81190476D01*
X151454819Y-80857142D02*
X151454819Y-80238095D01*
X151454819Y-80238095D02*
X151835771Y-80571428D01*
X151835771Y-80571428D02*
X151835771Y-80428571D01*
X151835771Y-80428571D02*
X151883390Y-80333333D01*
X151883390Y-80333333D02*
X151931009Y-80285714D01*
X151931009Y-80285714D02*
X152026247Y-80238095D01*
X152026247Y-80238095D02*
X152264342Y-80238095D01*
X152264342Y-80238095D02*
X152359580Y-80285714D01*
X152359580Y-80285714D02*
X152407200Y-80333333D01*
X152407200Y-80333333D02*
X152454819Y-80428571D01*
X152454819Y-80428571D02*
X152454819Y-80714285D01*
X152454819Y-80714285D02*
X152407200Y-80809523D01*
X152407200Y-80809523D02*
X152359580Y-80857142D01*
X103833333Y-74954819D02*
X103500000Y-74478628D01*
X103261905Y-74954819D02*
X103261905Y-73954819D01*
X103261905Y-73954819D02*
X103642857Y-73954819D01*
X103642857Y-73954819D02*
X103738095Y-74002438D01*
X103738095Y-74002438D02*
X103785714Y-74050057D01*
X103785714Y-74050057D02*
X103833333Y-74145295D01*
X103833333Y-74145295D02*
X103833333Y-74288152D01*
X103833333Y-74288152D02*
X103785714Y-74383390D01*
X103785714Y-74383390D02*
X103738095Y-74431009D01*
X103738095Y-74431009D02*
X103642857Y-74478628D01*
X103642857Y-74478628D02*
X103261905Y-74478628D01*
X104166667Y-73954819D02*
X104833333Y-73954819D01*
X104833333Y-73954819D02*
X104404762Y-74954819D01*
X158534819Y-101142857D02*
X158058628Y-101476190D01*
X158534819Y-101714285D02*
X157534819Y-101714285D01*
X157534819Y-101714285D02*
X157534819Y-101333333D01*
X157534819Y-101333333D02*
X157582438Y-101238095D01*
X157582438Y-101238095D02*
X157630057Y-101190476D01*
X157630057Y-101190476D02*
X157725295Y-101142857D01*
X157725295Y-101142857D02*
X157868152Y-101142857D01*
X157868152Y-101142857D02*
X157963390Y-101190476D01*
X157963390Y-101190476D02*
X158011009Y-101238095D01*
X158011009Y-101238095D02*
X158058628Y-101333333D01*
X158058628Y-101333333D02*
X158058628Y-101714285D01*
X157630057Y-100761904D02*
X157582438Y-100714285D01*
X157582438Y-100714285D02*
X157534819Y-100619047D01*
X157534819Y-100619047D02*
X157534819Y-100380952D01*
X157534819Y-100380952D02*
X157582438Y-100285714D01*
X157582438Y-100285714D02*
X157630057Y-100238095D01*
X157630057Y-100238095D02*
X157725295Y-100190476D01*
X157725295Y-100190476D02*
X157820533Y-100190476D01*
X157820533Y-100190476D02*
X157963390Y-100238095D01*
X157963390Y-100238095D02*
X158534819Y-100809523D01*
X158534819Y-100809523D02*
X158534819Y-100190476D01*
X158534819Y-99238095D02*
X158534819Y-99809523D01*
X158534819Y-99523809D02*
X157534819Y-99523809D01*
X157534819Y-99523809D02*
X157677676Y-99619047D01*
X157677676Y-99619047D02*
X157772914Y-99714285D01*
X157772914Y-99714285D02*
X157820533Y-99809523D01*
D12*
%TO.C,R2*%
X169500000Y-57800000D02*
X169500000Y-57180000D01*
X170420000Y-58720000D02*
G75*
G02*
X168580000Y-58720000I-920000J0D01*
G01*
X168580000Y-58720000D02*
G75*
G02*
X170420000Y-58720000I920000J0D01*
G01*
%TO.C,J1*%
X113030000Y-50980000D02*
X120970000Y-50980000D01*
X113030000Y-56600000D02*
X120970000Y-56600000D01*
X113030000Y-58220000D02*
X113030000Y-50980000D01*
X114950000Y-58220000D02*
X113030000Y-58220000D01*
X120970000Y-50980000D02*
X120970000Y-58220000D01*
X120970000Y-58220000D02*
X115550000Y-58220000D01*
X115690000Y-58830000D02*
X114810000Y-58830000D01*
X115250000Y-58220000D01*
X115690000Y-58830000D01*
G36*
X115690000Y-58830000D02*
G01*
X114810000Y-58830000D01*
X115250000Y-58220000D01*
X115690000Y-58830000D01*
G37*
%TO.C,J8*%
X98700000Y-101240000D02*
X98700000Y-110140000D01*
X98700000Y-103590000D02*
X99200000Y-103590000D01*
X98700000Y-103690000D02*
X99200000Y-103690000D01*
X98700000Y-105590000D02*
X99200000Y-105590000D01*
X98700000Y-105690000D02*
X99200000Y-105690000D01*
X98700000Y-107590000D02*
X99200000Y-107590000D01*
X98700000Y-107690000D02*
X99200000Y-107690000D01*
X98700000Y-110140000D02*
X102200000Y-110140000D01*
X99200000Y-103590000D02*
X99200000Y-103790000D01*
X99200000Y-103790000D02*
X98700000Y-103790000D01*
X99200000Y-105590000D02*
X99200000Y-105790000D01*
X99200000Y-105790000D02*
X98700000Y-105790000D01*
X99200000Y-107590000D02*
X99200000Y-107790000D01*
X99200000Y-107790000D02*
X98700000Y-107790000D01*
X100200000Y-100630000D02*
X100200000Y-101240000D01*
X100200000Y-110750000D02*
X100200000Y-110140000D01*
X101500000Y-100630000D02*
X101500000Y-101240000D01*
X101500000Y-110750000D02*
X101500000Y-110140000D01*
X102200000Y-101240000D02*
X98700000Y-101240000D01*
X102200000Y-103190000D02*
X102200000Y-101240000D01*
X102200000Y-108190000D02*
X102810000Y-108190000D01*
X102200000Y-110140000D02*
X102200000Y-108190000D01*
X102810000Y-102390000D02*
X103010000Y-102390000D01*
X102810000Y-103190000D02*
X102200000Y-103190000D01*
X102910000Y-102390000D02*
X102910000Y-102090000D01*
X103010000Y-102090000D02*
X102810000Y-102090000D01*
X103010000Y-102390000D02*
X103010000Y-102090000D01*
X103110000Y-100330000D02*
X101860000Y-100330000D01*
X103110000Y-101580000D02*
X103110000Y-100330000D01*
X102810000Y-100630000D02*
X98090000Y-100630000D01*
X98090000Y-110750000D01*
X102810000Y-110750000D01*
X102810000Y-100630000D01*
%TO.C,R19*%
X147500000Y-76770000D02*
X147500000Y-77390000D01*
X147500000Y-81850000D02*
X147500000Y-81230000D01*
X148420000Y-77390000D02*
X146580000Y-77390000D01*
X146580000Y-81230000D01*
X148420000Y-81230000D01*
X148420000Y-77390000D01*
%TO.C,J9*%
X170890000Y-67110000D02*
X170890000Y-68360000D01*
X170890000Y-68360000D02*
X172140000Y-68360000D01*
X170990000Y-66300000D02*
X170990000Y-66600000D01*
X170990000Y-66600000D02*
X171190000Y-66600000D01*
X171090000Y-66300000D02*
X171090000Y-66600000D01*
X171190000Y-65500000D02*
X171800000Y-65500000D01*
X171190000Y-66300000D02*
X170990000Y-66300000D01*
X171800000Y-62550000D02*
X171800000Y-64500000D01*
X171800000Y-64500000D02*
X171190000Y-64500000D01*
X171800000Y-65500000D02*
X171800000Y-67450000D01*
X171800000Y-67450000D02*
X175300000Y-67450000D01*
X172500000Y-61940000D02*
X172500000Y-62550000D01*
X172500000Y-68060000D02*
X172500000Y-67450000D01*
X173800000Y-61940000D02*
X173800000Y-62550000D01*
X173800000Y-68060000D02*
X173800000Y-67450000D01*
X174800000Y-64900000D02*
X175300000Y-64900000D01*
X174800000Y-65100000D02*
X174800000Y-64900000D01*
X175300000Y-62550000D02*
X171800000Y-62550000D01*
X175300000Y-65000000D02*
X174800000Y-65000000D01*
X175300000Y-65100000D02*
X174800000Y-65100000D01*
X175300000Y-67450000D02*
X175300000Y-62550000D01*
X171190000Y-68060000D02*
X175910000Y-68060000D01*
X175910000Y-61940000D01*
X171190000Y-61940000D01*
X171190000Y-68060000D01*
%TO.C,J2*%
X164940000Y-50700000D02*
X165550000Y-50700000D01*
X164940000Y-52000000D02*
X165550000Y-52000000D01*
X165550000Y-49200000D02*
X165550000Y-52700000D01*
X165550000Y-52700000D02*
X167500000Y-52700000D01*
X167500000Y-52700000D02*
X167500000Y-53310000D01*
X167900000Y-49700000D02*
X167900000Y-49200000D01*
X168000000Y-49200000D02*
X168000000Y-49700000D01*
X168100000Y-49200000D02*
X168100000Y-49700000D01*
X168100000Y-49700000D02*
X167900000Y-49700000D01*
X169900000Y-49700000D02*
X169900000Y-49200000D01*
X170000000Y-49200000D02*
X170000000Y-49700000D01*
X170100000Y-49200000D02*
X170100000Y-49700000D01*
X170100000Y-49700000D02*
X169900000Y-49700000D01*
X171900000Y-49700000D02*
X171900000Y-49200000D01*
X172000000Y-49200000D02*
X172000000Y-49700000D01*
X172100000Y-49200000D02*
X172100000Y-49700000D01*
X172100000Y-49700000D02*
X171900000Y-49700000D01*
X172500000Y-52700000D02*
X174450000Y-52700000D01*
X172500000Y-53310000D02*
X172500000Y-52700000D01*
X173300000Y-53310000D02*
X173300000Y-53510000D01*
X173300000Y-53410000D02*
X173600000Y-53410000D01*
X173300000Y-53510000D02*
X173600000Y-53510000D01*
X173600000Y-53510000D02*
X173600000Y-53310000D01*
X174110000Y-53610000D02*
X175360000Y-53610000D01*
X174450000Y-49200000D02*
X165550000Y-49200000D01*
X174450000Y-52700000D02*
X174450000Y-49200000D01*
X175060000Y-50700000D02*
X174450000Y-50700000D01*
X175060000Y-52000000D02*
X174450000Y-52000000D01*
X175360000Y-53610000D02*
X175360000Y-52360000D01*
X175060000Y-53310000D02*
X164940000Y-53310000D01*
X164940000Y-48590000D01*
X175060000Y-48590000D01*
X175060000Y-53310000D01*
%TO.C,R17*%
X154000000Y-95080000D02*
X154000000Y-95700000D01*
X154000000Y-100160000D02*
X154000000Y-99540000D01*
X153080000Y-99540000D02*
X154920000Y-99540000D01*
X154920000Y-95700000D01*
X153080000Y-95700000D01*
X153080000Y-99540000D01*
%TO.C,R18*%
X160000000Y-81580000D02*
X160000000Y-82200000D01*
X160000000Y-86660000D02*
X160000000Y-86040000D01*
X160920000Y-82200000D02*
X159080000Y-82200000D01*
X159080000Y-86040000D01*
X160920000Y-86040000D01*
X160920000Y-82200000D01*
%TO.C,D2*%
X110260000Y-67000000D02*
X111280000Y-67000000D01*
X112060000Y-65530000D02*
X112060000Y-68470000D01*
X112180000Y-65530000D02*
X112180000Y-68470000D01*
X112300000Y-65530000D02*
X112300000Y-68470000D01*
X117740000Y-67000000D02*
X116720000Y-67000000D01*
X111280000Y-65530000D02*
X116720000Y-65530000D01*
X116720000Y-68470000D01*
X111280000Y-68470000D01*
X111280000Y-65530000D01*
%TO.C,C2*%
X113460000Y-75077349D02*
X110695000Y-75077349D01*
X113460000Y-75117349D02*
X110711000Y-75117349D01*
X113460000Y-75157349D02*
X110727000Y-75157349D01*
X113460000Y-75197349D02*
X110743000Y-75197349D01*
X113460000Y-75237349D02*
X110760000Y-75237349D01*
X113460000Y-75277349D02*
X110778000Y-75277349D01*
X113460000Y-75317349D02*
X110796000Y-75317349D01*
X113460000Y-75357349D02*
X110815000Y-75357349D01*
X113460000Y-75397349D02*
X110834000Y-75397349D01*
X113460000Y-75437349D02*
X110854000Y-75437349D01*
X113460000Y-75477349D02*
X110874000Y-75477349D01*
X113460000Y-75517349D02*
X110895000Y-75517349D01*
X113460000Y-75557349D02*
X110916000Y-75557349D01*
X113460000Y-75597349D02*
X110938000Y-75597349D01*
X113460000Y-75637349D02*
X110961000Y-75637349D01*
X113460000Y-75677349D02*
X110984000Y-75677349D01*
X113460000Y-75717349D02*
X111007000Y-75717349D01*
X113460000Y-75757349D02*
X111032000Y-75757349D01*
X113460000Y-75797349D02*
X111057000Y-75797349D01*
X113460000Y-75837349D02*
X111082000Y-75837349D01*
X113460000Y-75877349D02*
X111108000Y-75877349D01*
X113460000Y-75917349D02*
X111135000Y-75917349D01*
X113460000Y-75957349D02*
X111163000Y-75957349D01*
X113460000Y-75997349D02*
X111191000Y-75997349D01*
X113460000Y-76037349D02*
X111220000Y-76037349D01*
X113460000Y-76077349D02*
X111250000Y-76077349D01*
X113460000Y-76117349D02*
X111281000Y-76117349D01*
X113460000Y-76157349D02*
X111312000Y-76157349D01*
X113460000Y-76197349D02*
X111344000Y-76197349D01*
X113460000Y-76237349D02*
X111377000Y-76237349D01*
X113460000Y-76277349D02*
X111411000Y-76277349D01*
X113460000Y-76317349D02*
X111445000Y-76317349D01*
X113460000Y-76357349D02*
X111481000Y-76357349D01*
X113460000Y-76397349D02*
X111518000Y-76397349D01*
X113460000Y-76437349D02*
X111555000Y-76437349D01*
X113460000Y-76477349D02*
X111594000Y-76477349D01*
X113460000Y-76517349D02*
X111633000Y-76517349D01*
X113460000Y-76557349D02*
X111674000Y-76557349D01*
X113460000Y-76597349D02*
X111716000Y-76597349D01*
X113460000Y-76637349D02*
X111759000Y-76637349D01*
X113460000Y-76677349D02*
X111804000Y-76677349D01*
X113460000Y-76717349D02*
X111849000Y-76717349D01*
X113460000Y-76757349D02*
X111896000Y-76757349D01*
X113460000Y-76797349D02*
X111945000Y-76797349D01*
X113460000Y-76837349D02*
X111995000Y-76837349D01*
X113460000Y-76877349D02*
X112047000Y-76877349D01*
X113460000Y-76917349D02*
X112100000Y-76917349D01*
X113460000Y-76957349D02*
X112156000Y-76957349D01*
X113460000Y-76997349D02*
X112213000Y-76997349D01*
X113460000Y-77037349D02*
X112273000Y-77037349D01*
X113460000Y-77077349D02*
X112335000Y-77077349D01*
X113460000Y-77117349D02*
X112399000Y-77117349D01*
X115033000Y-77677349D02*
X113967000Y-77677349D01*
X115268000Y-77637349D02*
X113732000Y-77637349D01*
X115447000Y-77597349D02*
X113553000Y-77597349D01*
X115597000Y-77557349D02*
X113403000Y-77557349D01*
X115728000Y-77517349D02*
X113272000Y-77517349D01*
X115846000Y-77477349D02*
X113154000Y-77477349D01*
X115953000Y-77437349D02*
X113047000Y-77437349D01*
X116052000Y-77397349D02*
X112948000Y-77397349D01*
X116144000Y-77357349D02*
X112856000Y-77357349D01*
X116231000Y-77317349D02*
X112769000Y-77317349D01*
X116313000Y-77277349D02*
X112687000Y-77277349D01*
X116390000Y-77237349D02*
X112610000Y-77237349D01*
X116464000Y-77197349D02*
X112536000Y-77197349D01*
X116534000Y-77157349D02*
X112466000Y-77157349D01*
X116601000Y-77117349D02*
X115540000Y-77117349D01*
X116665000Y-77077349D02*
X115540000Y-77077349D01*
X116727000Y-77037349D02*
X115540000Y-77037349D01*
X116787000Y-76997349D02*
X115540000Y-76997349D01*
X116815000Y-69187651D02*
X116815000Y-69987651D01*
X116844000Y-76957349D02*
X115540000Y-76957349D01*
X116900000Y-76917349D02*
X115540000Y-76917349D01*
X116953000Y-76877349D02*
X115540000Y-76877349D01*
X117005000Y-76837349D02*
X115540000Y-76837349D01*
X117055000Y-76797349D02*
X115540000Y-76797349D01*
X117104000Y-76757349D02*
X115540000Y-76757349D01*
X117151000Y-76717349D02*
X115540000Y-76717349D01*
X117196000Y-76677349D02*
X115540000Y-76677349D01*
X117215000Y-69587651D02*
X116415000Y-69587651D01*
X117241000Y-76637349D02*
X115540000Y-76637349D01*
X117284000Y-76597349D02*
X115540000Y-76597349D01*
X117326000Y-76557349D02*
X115540000Y-76557349D01*
X117367000Y-76517349D02*
X115540000Y-76517349D01*
X117406000Y-76477349D02*
X115540000Y-76477349D01*
X117445000Y-76437349D02*
X115540000Y-76437349D01*
X117482000Y-76397349D02*
X115540000Y-76397349D01*
X117519000Y-76357349D02*
X115540000Y-76357349D01*
X117555000Y-76317349D02*
X115540000Y-76317349D01*
X117589000Y-76277349D02*
X115540000Y-76277349D01*
X117623000Y-76237349D02*
X115540000Y-76237349D01*
X117656000Y-76197349D02*
X115540000Y-76197349D01*
X117688000Y-76157349D02*
X115540000Y-76157349D01*
X117719000Y-76117349D02*
X115540000Y-76117349D01*
X117750000Y-76077349D02*
X115540000Y-76077349D01*
X117780000Y-76037349D02*
X115540000Y-76037349D01*
X117809000Y-75997349D02*
X115540000Y-75997349D01*
X117837000Y-75957349D02*
X115540000Y-75957349D01*
X117865000Y-75917349D02*
X115540000Y-75917349D01*
X117892000Y-75877349D02*
X115540000Y-75877349D01*
X117918000Y-75837349D02*
X115540000Y-75837349D01*
X117943000Y-75797349D02*
X115540000Y-75797349D01*
X117968000Y-75757349D02*
X115540000Y-75757349D01*
X117993000Y-75717349D02*
X115540000Y-75717349D01*
X118016000Y-75677349D02*
X115540000Y-75677349D01*
X118039000Y-75637349D02*
X115540000Y-75637349D01*
X118062000Y-75597349D02*
X115540000Y-75597349D01*
X118084000Y-75557349D02*
X115540000Y-75557349D01*
X118105000Y-75517349D02*
X115540000Y-75517349D01*
X118126000Y-75477349D02*
X115540000Y-75477349D01*
X118146000Y-75437349D02*
X115540000Y-75437349D01*
X118166000Y-75397349D02*
X115540000Y-75397349D01*
X118185000Y-75357349D02*
X115540000Y-75357349D01*
X118204000Y-75317349D02*
X115540000Y-75317349D01*
X118222000Y-75277349D02*
X115540000Y-75277349D01*
X118240000Y-75237349D02*
X115540000Y-75237349D01*
X118257000Y-75197349D02*
X115540000Y-75197349D01*
X118273000Y-75157349D02*
X115540000Y-75157349D01*
X118289000Y-75117349D02*
X115540000Y-75117349D01*
X118305000Y-75077349D02*
X115540000Y-75077349D01*
X118320000Y-75037349D02*
X110680000Y-75037349D01*
X118335000Y-74997349D02*
X110665000Y-74997349D01*
X118349000Y-74957349D02*
X110651000Y-74957349D01*
X118363000Y-74917349D02*
X110637000Y-74917349D01*
X118376000Y-74877349D02*
X110624000Y-74877349D01*
X118389000Y-74837349D02*
X110611000Y-74837349D01*
X118401000Y-74797349D02*
X110599000Y-74797349D01*
X118413000Y-74757349D02*
X110587000Y-74757349D01*
X118425000Y-74717349D02*
X110575000Y-74717349D01*
X118436000Y-74677349D02*
X110564000Y-74677349D01*
X118447000Y-74637349D02*
X110553000Y-74637349D01*
X118457000Y-74597349D02*
X110543000Y-74597349D01*
X118467000Y-74557349D02*
X110533000Y-74557349D01*
X118476000Y-74517349D02*
X110524000Y-74517349D01*
X118485000Y-74477349D02*
X110515000Y-74477349D01*
X118493000Y-74437349D02*
X110507000Y-74437349D01*
X118502000Y-74397349D02*
X110498000Y-74397349D01*
X118509000Y-74357349D02*
X110491000Y-74357349D01*
X118517000Y-74317349D02*
X110483000Y-74317349D01*
X118523000Y-74277349D02*
X110477000Y-74277349D01*
X118530000Y-74237349D02*
X110470000Y-74237349D01*
X118536000Y-74197349D02*
X110464000Y-74197349D01*
X118542000Y-74157349D02*
X110458000Y-74157349D01*
X118547000Y-74117349D02*
X110453000Y-74117349D01*
X118552000Y-74077349D02*
X110448000Y-74077349D01*
X118556000Y-74037349D02*
X110444000Y-74037349D01*
X118561000Y-73997349D02*
X110439000Y-73997349D01*
X118564000Y-73957349D02*
X110436000Y-73957349D01*
X118568000Y-73917349D02*
X110432000Y-73917349D01*
X118570000Y-73877349D02*
X110430000Y-73877349D01*
X118573000Y-73837349D02*
X110427000Y-73837349D01*
X118575000Y-73797349D02*
X110425000Y-73797349D01*
X118577000Y-73757349D02*
X110423000Y-73757349D01*
X118578000Y-73717349D02*
X110422000Y-73717349D01*
X118579000Y-73677349D02*
X110421000Y-73677349D01*
X118580000Y-73597349D02*
X110420000Y-73597349D01*
X118580000Y-73637349D02*
X110420000Y-73637349D01*
X118620000Y-73597349D02*
G75*
G02*
X110380000Y-73597349I-4120000J0D01*
G01*
X110380000Y-73597349D02*
G75*
G02*
X118620000Y-73597349I4120000J0D01*
G01*
%TO.C,R20*%
X153500000Y-110460000D02*
X153500000Y-111080000D01*
X153500000Y-115540000D02*
X153500000Y-114920000D01*
X154420000Y-111080000D02*
X152580000Y-111080000D01*
X152580000Y-114920000D01*
X154420000Y-114920000D01*
X154420000Y-111080000D01*
%TO.C,J13*%
X170890000Y-112110000D02*
X170890000Y-113360000D01*
X170890000Y-113360000D02*
X172140000Y-113360000D01*
X170990000Y-111300000D02*
X170990000Y-111600000D01*
X170990000Y-111600000D02*
X171190000Y-111600000D01*
X171090000Y-111300000D02*
X171090000Y-111600000D01*
X171190000Y-110500000D02*
X171800000Y-110500000D01*
X171190000Y-111300000D02*
X170990000Y-111300000D01*
X171800000Y-103550000D02*
X171800000Y-105500000D01*
X171800000Y-105500000D02*
X171190000Y-105500000D01*
X171800000Y-110500000D02*
X171800000Y-112450000D01*
X171800000Y-112450000D02*
X175300000Y-112450000D01*
X172500000Y-102940000D02*
X172500000Y-103550000D01*
X172500000Y-113060000D02*
X172500000Y-112450000D01*
X173800000Y-102940000D02*
X173800000Y-103550000D01*
X173800000Y-113060000D02*
X173800000Y-112450000D01*
X174800000Y-105900000D02*
X175300000Y-105900000D01*
X174800000Y-106100000D02*
X174800000Y-105900000D01*
X174800000Y-107900000D02*
X175300000Y-107900000D01*
X174800000Y-108100000D02*
X174800000Y-107900000D01*
X174800000Y-109900000D02*
X175300000Y-109900000D01*
X174800000Y-110100000D02*
X174800000Y-109900000D01*
X175300000Y-103550000D02*
X171800000Y-103550000D01*
X175300000Y-106000000D02*
X174800000Y-106000000D01*
X175300000Y-106100000D02*
X174800000Y-106100000D01*
X175300000Y-108000000D02*
X174800000Y-108000000D01*
X175300000Y-108100000D02*
X174800000Y-108100000D01*
X175300000Y-110000000D02*
X174800000Y-110000000D01*
X175300000Y-110100000D02*
X174800000Y-110100000D01*
X175300000Y-112450000D02*
X175300000Y-103550000D01*
X171190000Y-113060000D02*
X175910000Y-113060000D01*
X175910000Y-102940000D01*
X171190000Y-102940000D01*
X171190000Y-113060000D01*
D11*
%TO.C,U1*%
X122350000Y-51970000D02*
X140130000Y-51970000D01*
X122350000Y-112930000D02*
X122350000Y-51970000D01*
X124890000Y-74830000D02*
X124890000Y-87530000D01*
X124890000Y-87530000D02*
X137590000Y-87530000D01*
X124890000Y-100230000D02*
X124890000Y-112930000D01*
X125400800Y-58269200D02*
X127940800Y-58269200D01*
X125400800Y-70969200D02*
X125400800Y-58269200D01*
X126160000Y-111660000D02*
X126160000Y-112930000D01*
X127430000Y-50700000D02*
X135050000Y-50700000D01*
X127430000Y-51970000D02*
X127430000Y-50700000D01*
X127430000Y-57050000D02*
X127430000Y-51970000D01*
X127430000Y-57050000D02*
X135050000Y-57050000D01*
X127940800Y-58269200D02*
X127940800Y-60809200D01*
X127940800Y-58269200D02*
X127940800Y-70969200D01*
X127940800Y-60809200D02*
X125400800Y-60809200D01*
X127940800Y-70969200D02*
X125400800Y-70969200D01*
X129970000Y-92610000D02*
X132510000Y-92610000D01*
X129970000Y-96420000D02*
X129970000Y-92610000D01*
X131341600Y-65200000D02*
X131341600Y-69200000D01*
X131341600Y-69200000D02*
X137591600Y-69200000D01*
X132510000Y-92610000D02*
X132510000Y-96420000D01*
X132510000Y-96420000D02*
X129970000Y-96420000D01*
X135050000Y-50700000D02*
X135050000Y-51970000D01*
X135050000Y-57050000D02*
X135050000Y-51970000D01*
X136320000Y-111660000D02*
X126160000Y-111660000D01*
X136320000Y-112930000D02*
X136320000Y-111660000D01*
X137341600Y-65200000D02*
X131341600Y-65200000D01*
X137590000Y-74830000D02*
X124890000Y-74830000D01*
X137590000Y-87530000D02*
X137590000Y-74830000D01*
X137590000Y-100230000D02*
X124890000Y-100230000D01*
X137590000Y-112930000D02*
X137590000Y-100230000D01*
X137591600Y-65200000D02*
X137341600Y-65200000D01*
X137591600Y-69200000D02*
X137591600Y-65200000D01*
X140130000Y-51970000D02*
X140130000Y-112930000D01*
X140130000Y-112930000D02*
X122350000Y-112930000D01*
X132138026Y-94515000D02*
G75*
G02*
X130341974Y-94515000I-898026J0D01*
G01*
X130341974Y-94515000D02*
G75*
G02*
X132138026Y-94515000I898026J0D01*
G01*
D10*
X131166000Y-84631000D02*
X130785000Y-84885000D01*
X130531000Y-84631000D01*
X130912000Y-84377000D01*
X131166000Y-84631000D01*
G36*
X131166000Y-84631000D02*
G01*
X130785000Y-84885000D01*
X130531000Y-84631000D01*
X130912000Y-84377000D01*
X131166000Y-84631000D01*
G37*
X131293000Y-83869000D02*
X130912000Y-84123000D01*
X130658000Y-83869000D01*
X131039000Y-83615000D01*
X131293000Y-83869000D01*
G36*
X131293000Y-83869000D02*
G01*
X130912000Y-84123000D01*
X130658000Y-83869000D01*
X131039000Y-83615000D01*
X131293000Y-83869000D01*
G37*
X131547000Y-85012000D02*
X131166000Y-85266000D01*
X130912000Y-85012000D01*
X131293000Y-84758000D01*
X131547000Y-85012000D01*
G36*
X131547000Y-85012000D02*
G01*
X131166000Y-85266000D01*
X130912000Y-85012000D01*
X131293000Y-84758000D01*
X131547000Y-85012000D01*
G37*
X131674000Y-84250000D02*
X131293000Y-84504000D01*
X131039000Y-84250000D01*
X131420000Y-83996000D01*
X131674000Y-84250000D01*
G36*
X131674000Y-84250000D02*
G01*
X131293000Y-84504000D01*
X131039000Y-84250000D01*
X131420000Y-83996000D01*
X131674000Y-84250000D01*
G37*
X131801000Y-83488000D02*
X131420000Y-83742000D01*
X131166000Y-83488000D01*
X131547000Y-83234000D01*
X131801000Y-83488000D01*
G36*
X131801000Y-83488000D02*
G01*
X131420000Y-83742000D01*
X131166000Y-83488000D01*
X131547000Y-83234000D01*
X131801000Y-83488000D01*
G37*
X131928000Y-85393000D02*
X131547000Y-85647000D01*
X131293000Y-85393000D01*
X131674000Y-85139000D01*
X131928000Y-85393000D01*
G36*
X131928000Y-85393000D02*
G01*
X131547000Y-85647000D01*
X131293000Y-85393000D01*
X131674000Y-85139000D01*
X131928000Y-85393000D01*
G37*
X132182000Y-83869000D02*
X131801000Y-84123000D01*
X131547000Y-83869000D01*
X131928000Y-83615000D01*
X132182000Y-83869000D01*
G36*
X132182000Y-83869000D02*
G01*
X131801000Y-84123000D01*
X131547000Y-83869000D01*
X131928000Y-83615000D01*
X132182000Y-83869000D01*
G37*
X132309000Y-83107000D02*
X131928000Y-83361000D01*
X131674000Y-83107000D01*
X132055000Y-82853000D01*
X132309000Y-83107000D01*
G36*
X132309000Y-83107000D02*
G01*
X131928000Y-83361000D01*
X131674000Y-83107000D01*
X132055000Y-82853000D01*
X132309000Y-83107000D01*
G37*
D12*
%TO.C,R10*%
X106460000Y-109500000D02*
X107080000Y-109500000D01*
X111540000Y-109500000D02*
X110920000Y-109500000D01*
X107080000Y-108580000D02*
X110920000Y-108580000D01*
X110920000Y-110420000D01*
X107080000Y-110420000D01*
X107080000Y-108580000D01*
%TO.C,R13*%
X101460000Y-86000000D02*
X102080000Y-86000000D01*
X106540000Y-86000000D02*
X105920000Y-86000000D01*
X102080000Y-85080000D02*
X105920000Y-85080000D01*
X105920000Y-86920000D01*
X102080000Y-86920000D01*
X102080000Y-85080000D01*
%TO.C,R3*%
X175000000Y-57800000D02*
X175000000Y-57180000D01*
X175920000Y-58720000D02*
G75*
G02*
X174080000Y-58720000I-920000J0D01*
G01*
X174080000Y-58720000D02*
G75*
G02*
X175920000Y-58720000I920000J0D01*
G01*
%TO.C,R14*%
X166500000Y-63460000D02*
X166500000Y-64080000D01*
X166500000Y-68540000D02*
X166500000Y-67920000D01*
X165580000Y-67920000D02*
X167420000Y-67920000D01*
X167420000Y-64080000D01*
X165580000Y-64080000D01*
X165580000Y-67920000D01*
%TO.C,J10*%
X170890000Y-82610000D02*
X170890000Y-83860000D01*
X170890000Y-83860000D02*
X172140000Y-83860000D01*
X170990000Y-81800000D02*
X170990000Y-82100000D01*
X170990000Y-82100000D02*
X171190000Y-82100000D01*
X171090000Y-81800000D02*
X171090000Y-82100000D01*
X171190000Y-81000000D02*
X171800000Y-81000000D01*
X171190000Y-81800000D02*
X170990000Y-81800000D01*
X171800000Y-74050000D02*
X171800000Y-76000000D01*
X171800000Y-76000000D02*
X171190000Y-76000000D01*
X171800000Y-81000000D02*
X171800000Y-82950000D01*
X171800000Y-82950000D02*
X175300000Y-82950000D01*
X172500000Y-73440000D02*
X172500000Y-74050000D01*
X172500000Y-83560000D02*
X172500000Y-82950000D01*
X173800000Y-73440000D02*
X173800000Y-74050000D01*
X173800000Y-83560000D02*
X173800000Y-82950000D01*
X174800000Y-76400000D02*
X175300000Y-76400000D01*
X174800000Y-76600000D02*
X174800000Y-76400000D01*
X174800000Y-78400000D02*
X175300000Y-78400000D01*
X174800000Y-78600000D02*
X174800000Y-78400000D01*
X174800000Y-80400000D02*
X175300000Y-80400000D01*
X174800000Y-80600000D02*
X174800000Y-80400000D01*
X175300000Y-74050000D02*
X171800000Y-74050000D01*
X175300000Y-76500000D02*
X174800000Y-76500000D01*
X175300000Y-76600000D02*
X174800000Y-76600000D01*
X175300000Y-78500000D02*
X174800000Y-78500000D01*
X175300000Y-78600000D02*
X174800000Y-78600000D01*
X175300000Y-80500000D02*
X174800000Y-80500000D01*
X175300000Y-80600000D02*
X174800000Y-80600000D01*
X175300000Y-82950000D02*
X175300000Y-74050000D01*
X171190000Y-83560000D02*
X175910000Y-83560000D01*
X175910000Y-73440000D01*
X171190000Y-73440000D01*
X171190000Y-83560000D01*
D11*
%TO.C,J7*%
X108220000Y-102600000D02*
X108720000Y-102100000D01*
X108220000Y-103400000D02*
X108220000Y-102600000D01*
X108720000Y-102100000D02*
X112320000Y-102100000D01*
X108720000Y-103900000D02*
X108220000Y-103400000D01*
X112320000Y-102100000D02*
X112820000Y-102600000D01*
X112320000Y-103900000D02*
X108720000Y-103900000D01*
X112820000Y-102600000D02*
X112820000Y-103400000D01*
X112820000Y-103400000D02*
X112320000Y-103900000D01*
D12*
%TO.C,R11*%
X101460000Y-95500000D02*
X102080000Y-95500000D01*
X106540000Y-95500000D02*
X105920000Y-95500000D01*
X102080000Y-94580000D02*
X105920000Y-94580000D01*
X105920000Y-96420000D01*
X102080000Y-96420000D01*
X102080000Y-94580000D01*
%TO.C,R15*%
X159960000Y-114500000D02*
X160580000Y-114500000D01*
X165040000Y-114500000D02*
X164420000Y-114500000D01*
X160580000Y-113580000D02*
X164420000Y-113580000D01*
X164420000Y-115420000D01*
X160580000Y-115420000D01*
X160580000Y-113580000D01*
%TO.C,J3*%
X98700000Y-53240000D02*
X98700000Y-62140000D01*
X98700000Y-55590000D02*
X99200000Y-55590000D01*
X98700000Y-55690000D02*
X99200000Y-55690000D01*
X98700000Y-57590000D02*
X99200000Y-57590000D01*
X98700000Y-57690000D02*
X99200000Y-57690000D01*
X98700000Y-59590000D02*
X99200000Y-59590000D01*
X98700000Y-59690000D02*
X99200000Y-59690000D01*
X98700000Y-62140000D02*
X102200000Y-62140000D01*
X99200000Y-55590000D02*
X99200000Y-55790000D01*
X99200000Y-55790000D02*
X98700000Y-55790000D01*
X99200000Y-57590000D02*
X99200000Y-57790000D01*
X99200000Y-57790000D02*
X98700000Y-57790000D01*
X99200000Y-59590000D02*
X99200000Y-59790000D01*
X99200000Y-59790000D02*
X98700000Y-59790000D01*
X100200000Y-52630000D02*
X100200000Y-53240000D01*
X100200000Y-62750000D02*
X100200000Y-62140000D01*
X101500000Y-52630000D02*
X101500000Y-53240000D01*
X101500000Y-62750000D02*
X101500000Y-62140000D01*
X102200000Y-53240000D02*
X98700000Y-53240000D01*
X102200000Y-55190000D02*
X102200000Y-53240000D01*
X102200000Y-60190000D02*
X102810000Y-60190000D01*
X102200000Y-62140000D02*
X102200000Y-60190000D01*
X102810000Y-54390000D02*
X103010000Y-54390000D01*
X102810000Y-55190000D02*
X102200000Y-55190000D01*
X102910000Y-54390000D02*
X102910000Y-54090000D01*
X103010000Y-54090000D02*
X102810000Y-54090000D01*
X103010000Y-54390000D02*
X103010000Y-54090000D01*
X103110000Y-52330000D02*
X101860000Y-52330000D01*
X103110000Y-53580000D02*
X103110000Y-52330000D01*
X102810000Y-52630000D02*
X98090000Y-52630000D01*
X98090000Y-62750000D01*
X102810000Y-62750000D01*
X102810000Y-52630000D01*
%TO.C,C1*%
X107380000Y-51280000D02*
X110620000Y-51280000D01*
X107380000Y-58720000D02*
X107380000Y-51280000D01*
X110620000Y-51280000D02*
X110620000Y-58720000D01*
X110620000Y-58720000D02*
X107380000Y-58720000D01*
%TO.C,R4*%
X143500000Y-57800000D02*
X143500000Y-57180000D01*
X144420000Y-58720000D02*
G75*
G02*
X142580000Y-58720000I-920000J0D01*
G01*
X142580000Y-58720000D02*
G75*
G02*
X144420000Y-58720000I920000J0D01*
G01*
%TO.C,R12*%
X101460000Y-90638000D02*
X102080000Y-90638000D01*
X106540000Y-90638000D02*
X105920000Y-90638000D01*
X102080000Y-89718000D02*
X105920000Y-89718000D01*
X105920000Y-91558000D01*
X102080000Y-91558000D01*
X102080000Y-89718000D01*
%TO.C,J6*%
X155090000Y-70610000D02*
X155090000Y-71860000D01*
X155090000Y-71860000D02*
X156340000Y-71860000D01*
X155190000Y-69800000D02*
X155190000Y-70100000D01*
X155190000Y-70100000D02*
X155390000Y-70100000D01*
X155290000Y-69800000D02*
X155290000Y-70100000D01*
X155390000Y-69000000D02*
X156000000Y-69000000D01*
X155390000Y-69800000D02*
X155190000Y-69800000D01*
X156000000Y-64050000D02*
X156000000Y-66000000D01*
X156000000Y-66000000D02*
X155390000Y-66000000D01*
X156000000Y-69000000D02*
X156000000Y-70950000D01*
X156000000Y-70950000D02*
X159500000Y-70950000D01*
X156700000Y-63440000D02*
X156700000Y-64050000D01*
X156700000Y-71560000D02*
X156700000Y-70950000D01*
X158000000Y-63440000D02*
X158000000Y-64050000D01*
X158000000Y-71560000D02*
X158000000Y-70950000D01*
X159000000Y-66400000D02*
X159500000Y-66400000D01*
X159000000Y-66600000D02*
X159000000Y-66400000D01*
X159000000Y-68400000D02*
X159500000Y-68400000D01*
X159000000Y-68600000D02*
X159000000Y-68400000D01*
X159500000Y-64050000D02*
X156000000Y-64050000D01*
X159500000Y-66500000D02*
X159000000Y-66500000D01*
X159500000Y-66600000D02*
X159000000Y-66600000D01*
X159500000Y-68500000D02*
X159000000Y-68500000D01*
X159500000Y-68600000D02*
X159000000Y-68600000D01*
X159500000Y-70950000D02*
X159500000Y-64050000D01*
X155390000Y-71560000D02*
X160110000Y-71560000D01*
X160110000Y-63440000D01*
X155390000Y-63440000D01*
X155390000Y-71560000D01*
%TO.C,R6*%
X101460000Y-71190000D02*
X102080000Y-71190000D01*
X106540000Y-71190000D02*
X105920000Y-71190000D01*
X105920000Y-72110000D02*
X102080000Y-72110000D01*
X102080000Y-70270000D01*
X105920000Y-70270000D01*
X105920000Y-72110000D01*
%TO.C,J12*%
X170890000Y-97610000D02*
X170890000Y-98860000D01*
X170890000Y-98860000D02*
X172140000Y-98860000D01*
X170990000Y-96800000D02*
X170990000Y-97100000D01*
X170990000Y-97100000D02*
X171190000Y-97100000D01*
X171090000Y-96800000D02*
X171090000Y-97100000D01*
X171190000Y-96000000D02*
X171800000Y-96000000D01*
X171190000Y-96800000D02*
X170990000Y-96800000D01*
X171800000Y-89050000D02*
X171800000Y-91000000D01*
X171800000Y-91000000D02*
X171190000Y-91000000D01*
X171800000Y-96000000D02*
X171800000Y-97950000D01*
X171800000Y-97950000D02*
X175300000Y-97950000D01*
X172500000Y-88440000D02*
X172500000Y-89050000D01*
X172500000Y-98560000D02*
X172500000Y-97950000D01*
X173800000Y-88440000D02*
X173800000Y-89050000D01*
X173800000Y-98560000D02*
X173800000Y-97950000D01*
X174800000Y-91400000D02*
X175300000Y-91400000D01*
X174800000Y-91600000D02*
X174800000Y-91400000D01*
X174800000Y-93400000D02*
X175300000Y-93400000D01*
X174800000Y-93600000D02*
X174800000Y-93400000D01*
X174800000Y-95400000D02*
X175300000Y-95400000D01*
X174800000Y-95600000D02*
X174800000Y-95400000D01*
X175300000Y-89050000D02*
X171800000Y-89050000D01*
X175300000Y-91500000D02*
X174800000Y-91500000D01*
X175300000Y-91600000D02*
X174800000Y-91600000D01*
X175300000Y-93500000D02*
X174800000Y-93500000D01*
X175300000Y-93600000D02*
X174800000Y-93600000D01*
X175300000Y-95500000D02*
X174800000Y-95500000D01*
X175300000Y-95600000D02*
X174800000Y-95600000D01*
X175300000Y-97950000D02*
X175300000Y-89050000D01*
X171190000Y-98560000D02*
X175910000Y-98560000D01*
X175910000Y-88440000D01*
X171190000Y-88440000D01*
X171190000Y-98560000D01*
%TO.C,D1*%
X110260000Y-62000000D02*
X111280000Y-62000000D01*
X112060000Y-60530000D02*
X112060000Y-63470000D01*
X112180000Y-60530000D02*
X112180000Y-63470000D01*
X112300000Y-60530000D02*
X112300000Y-63470000D01*
X117740000Y-62000000D02*
X116720000Y-62000000D01*
X111280000Y-60530000D02*
X116720000Y-60530000D01*
X116720000Y-63470000D01*
X111280000Y-63470000D01*
X111280000Y-60530000D01*
%TO.C,R16*%
X148000000Y-107960000D02*
X148000000Y-108580000D01*
X148000000Y-113040000D02*
X148000000Y-112420000D01*
X148920000Y-108580000D02*
X147080000Y-108580000D01*
X147080000Y-112420000D01*
X148920000Y-112420000D01*
X148920000Y-108580000D01*
%TO.C,R8*%
X101460000Y-80914000D02*
X102080000Y-80914000D01*
X106540000Y-80914000D02*
X105920000Y-80914000D01*
X105920000Y-81834000D02*
X102080000Y-81834000D01*
X102080000Y-79994000D01*
X105920000Y-79994000D01*
X105920000Y-81834000D01*
%TO.C,R5*%
X149500000Y-57800000D02*
X149500000Y-57180000D01*
X150420000Y-58720000D02*
G75*
G02*
X148580000Y-58720000I-920000J0D01*
G01*
X148580000Y-58720000D02*
G75*
G02*
X150420000Y-58720000I920000J0D01*
G01*
%TO.C,J11*%
X116120000Y-89960000D02*
X117500000Y-89960000D01*
X116120000Y-91340000D02*
X116120000Y-89960000D01*
X116120000Y-92610000D02*
X116120000Y-113040000D01*
X116120000Y-92610000D02*
X118880000Y-92610000D01*
X116120000Y-113040000D02*
X118880000Y-113040000D01*
X118880000Y-92610000D02*
X118880000Y-113040000D01*
%TO.C,J4*%
X144940000Y-50700000D02*
X145550000Y-50700000D01*
X144940000Y-52000000D02*
X145550000Y-52000000D01*
X145550000Y-49200000D02*
X145550000Y-52700000D01*
X145550000Y-52700000D02*
X147500000Y-52700000D01*
X147500000Y-52700000D02*
X147500000Y-53310000D01*
X147900000Y-49700000D02*
X147900000Y-49200000D01*
X148000000Y-49200000D02*
X148000000Y-49700000D01*
X148100000Y-49200000D02*
X148100000Y-49700000D01*
X148100000Y-49700000D02*
X147900000Y-49700000D01*
X149900000Y-49700000D02*
X149900000Y-49200000D01*
X150000000Y-49200000D02*
X150000000Y-49700000D01*
X150100000Y-49200000D02*
X150100000Y-49700000D01*
X150100000Y-49700000D02*
X149900000Y-49700000D01*
X151900000Y-49700000D02*
X151900000Y-49200000D01*
X152000000Y-49200000D02*
X152000000Y-49700000D01*
X152100000Y-49200000D02*
X152100000Y-49700000D01*
X152100000Y-49700000D02*
X151900000Y-49700000D01*
X152500000Y-52700000D02*
X154450000Y-52700000D01*
X152500000Y-53310000D02*
X152500000Y-52700000D01*
X153300000Y-53310000D02*
X153300000Y-53510000D01*
X153300000Y-53410000D02*
X153600000Y-53410000D01*
X153300000Y-53510000D02*
X153600000Y-53510000D01*
X153600000Y-53510000D02*
X153600000Y-53310000D01*
X154110000Y-53610000D02*
X155360000Y-53610000D01*
X154450000Y-49200000D02*
X145550000Y-49200000D01*
X154450000Y-52700000D02*
X154450000Y-49200000D01*
X155060000Y-50700000D02*
X154450000Y-50700000D01*
X155060000Y-52000000D02*
X154450000Y-52000000D01*
X155360000Y-53610000D02*
X155360000Y-52360000D01*
X155060000Y-53310000D02*
X144940000Y-53310000D01*
X144940000Y-48590000D01*
X155060000Y-48590000D01*
X155060000Y-53310000D01*
%TO.C,R22*%
X147500000Y-92960000D02*
X147500000Y-93580000D01*
X147500000Y-98040000D02*
X147500000Y-97420000D01*
X146580000Y-97420000D02*
X148420000Y-97420000D01*
X148420000Y-93580000D01*
X146580000Y-93580000D01*
X146580000Y-97420000D01*
%TO.C,R9*%
X155000000Y-57800000D02*
X155000000Y-57180000D01*
X155920000Y-58720000D02*
G75*
G02*
X154080000Y-58720000I-920000J0D01*
G01*
X154080000Y-58720000D02*
G75*
G02*
X155920000Y-58720000I920000J0D01*
G01*
%TO.C,R1*%
X163500000Y-57800000D02*
X163500000Y-57180000D01*
X164420000Y-58720000D02*
G75*
G02*
X162580000Y-58720000I-920000J0D01*
G01*
X162580000Y-58720000D02*
G75*
G02*
X164420000Y-58720000I920000J0D01*
G01*
%TO.C,J5*%
X144090000Y-70610000D02*
X144090000Y-71860000D01*
X144090000Y-71860000D02*
X145340000Y-71860000D01*
X144190000Y-69800000D02*
X144190000Y-70100000D01*
X144190000Y-70100000D02*
X144390000Y-70100000D01*
X144290000Y-69800000D02*
X144290000Y-70100000D01*
X144390000Y-69000000D02*
X145000000Y-69000000D01*
X144390000Y-69800000D02*
X144190000Y-69800000D01*
X145000000Y-64050000D02*
X145000000Y-66000000D01*
X145000000Y-66000000D02*
X144390000Y-66000000D01*
X145000000Y-69000000D02*
X145000000Y-70950000D01*
X145000000Y-70950000D02*
X148500000Y-70950000D01*
X145700000Y-63440000D02*
X145700000Y-64050000D01*
X145700000Y-71560000D02*
X145700000Y-70950000D01*
X147000000Y-63440000D02*
X147000000Y-64050000D01*
X147000000Y-71560000D02*
X147000000Y-70950000D01*
X148000000Y-66400000D02*
X148500000Y-66400000D01*
X148000000Y-66600000D02*
X148000000Y-66400000D01*
X148000000Y-68400000D02*
X148500000Y-68400000D01*
X148000000Y-68600000D02*
X148000000Y-68400000D01*
X148500000Y-64050000D02*
X145000000Y-64050000D01*
X148500000Y-66500000D02*
X148000000Y-66500000D01*
X148500000Y-66600000D02*
X148000000Y-66600000D01*
X148500000Y-68500000D02*
X148000000Y-68500000D01*
X148500000Y-68600000D02*
X148000000Y-68600000D01*
X148500000Y-70950000D02*
X148500000Y-64050000D01*
X144390000Y-71560000D02*
X149110000Y-71560000D01*
X149110000Y-63440000D01*
X144390000Y-63440000D01*
X144390000Y-71560000D01*
%TO.C,R23*%
X154000000Y-79080000D02*
X154000000Y-79700000D01*
X154000000Y-84160000D02*
X154000000Y-83540000D01*
X154920000Y-79700000D02*
X153080000Y-79700000D01*
X153080000Y-83540000D01*
X154920000Y-83540000D01*
X154920000Y-79700000D01*
%TO.C,R7*%
X101460000Y-76052000D02*
X102080000Y-76052000D01*
X106540000Y-76052000D02*
X105920000Y-76052000D01*
X105920000Y-76972000D02*
X102080000Y-76972000D01*
X102080000Y-75132000D01*
X105920000Y-75132000D01*
X105920000Y-76972000D01*
%TO.C,R21*%
X160000000Y-97960000D02*
X160000000Y-98580000D01*
X160000000Y-103040000D02*
X160000000Y-102420000D01*
X159080000Y-102420000D02*
X160920000Y-102420000D01*
X160920000Y-98580000D01*
X159080000Y-98580000D01*
X159080000Y-102420000D01*
%TD*%
M02*
