M48
; DRILL file {KiCad 9.0.7} date 2026-01-19T21:28:51-0500
; FORMAT={-:-/ absolute / metric / decimal}
; #@! TF.CreationDate,2026-01-19T21:28:51-05:00
; #@! TF.GenerationSoftware,Kicad,Pcbnew,9.0.7
; #@! TF.FileFunction,Plated,1,2,PTH
FMAT,2
METRIC
; #@! TA.AperFunction,Plated,PTH,ViaDrill
T1C0.300
; #@! TA.AperFunction,Plated,PTH,ComponentDrill
T2C0.700
; #@! TA.AperFunction,Plated,PTH,ComponentDrill
T3C0.750
; #@! TA.AperFunction,Plated,PTH,ComponentDrill
T4C0.800
; #@! TA.AperFunction,Plated,PTH,ComponentDrill
T5C1.000
; #@! TA.AperFunction,Plated,PTH,ComponentDrill
T6C1.100
; #@! TA.AperFunction,Plated,PTH,ComponentDrill
T7C1.200
%
G90
G05
T1
X154.5Y-60.5
T2
X100.19Y-71.19
X100.19Y-76.052
X100.19Y-80.914
X100.19Y-86.0
X100.19Y-90.638
X100.19Y-95.5
X105.19Y-109.5
X107.81Y-71.19
X107.81Y-76.052
X107.81Y-80.914
X107.81Y-86.0
X107.81Y-90.638
X107.81Y-95.5
X112.81Y-109.5
X143.5Y-56.18
X143.5Y-58.72
X147.5Y-75.5
X147.5Y-83.12
X147.5Y-91.69
X147.5Y-99.31
X148.0Y-106.69
X148.0Y-114.31
X149.5Y-56.18
X149.5Y-58.72
X153.5Y-109.19
X153.5Y-116.81
X154.0Y-77.81
X154.0Y-85.43
X154.0Y-93.81
X154.0Y-101.43
X155.0Y-56.18
X155.0Y-58.72
X158.69Y-114.5
X160.0Y-80.31
X160.0Y-87.93
X160.0Y-96.69
X160.0Y-104.31
X163.5Y-56.18
X163.5Y-58.72
X166.31Y-114.5
X166.5Y-62.19
X166.5Y-69.81
X169.5Y-56.18
X169.5Y-58.72
X175.0Y-56.18
X175.0Y-58.72
T3
X101.0Y-54.69
X101.0Y-56.69
X101.0Y-58.69
X101.0Y-60.69
X101.0Y-102.69
X101.0Y-104.69
X101.0Y-106.69
X101.0Y-108.69
X146.2Y-65.5
X146.2Y-67.5
X146.2Y-69.5
X147.0Y-51.5
X149.0Y-51.5
X151.0Y-51.5
X153.0Y-51.5
X157.2Y-65.5
X157.2Y-67.5
X157.2Y-69.5
X167.0Y-51.5
X169.0Y-51.5
X171.0Y-51.5
X173.0Y-51.5
X173.0Y-64.0
X173.0Y-66.0
X173.0Y-75.5
X173.0Y-77.5
X173.0Y-79.5
X173.0Y-81.5
X173.0Y-90.5
X173.0Y-92.5
X173.0Y-94.5
X173.0Y-96.5
X173.0Y-105.0
X173.0Y-107.0
X173.0Y-109.0
X173.0Y-111.0
T4
X109.0Y-52.5
X109.0Y-57.5
X109.25Y-103.0
X111.79Y-103.0
X114.5Y-71.097
X114.5Y-76.097
X129.97Y-53.97
X132.422Y-66.21
X132.422Y-68.21
X132.51Y-53.97
X134.422Y-66.21
X134.422Y-68.21
X136.422Y-66.21
X136.422Y-68.21
T5
X117.5Y-91.34
X117.5Y-93.88
X117.5Y-96.42
X117.5Y-98.96
X117.5Y-101.5
X117.5Y-104.04
X117.5Y-106.58
X117.5Y-109.12
X117.5Y-111.66
T6
X108.92Y-62.0
X108.92Y-67.0
X119.08Y-62.0
X119.08Y-67.0
X123.62Y-53.24
X123.62Y-55.78
X123.62Y-58.32
X123.62Y-60.86
X123.62Y-63.4
X123.62Y-65.94
X123.62Y-68.48
X123.62Y-71.02
X123.62Y-73.56
X123.62Y-76.1
X123.62Y-78.64
X123.62Y-81.18
X123.62Y-83.72
X123.62Y-86.26
X123.62Y-88.8
X123.62Y-91.34
X123.62Y-93.88
X123.62Y-96.42
X123.62Y-98.96
X123.62Y-101.5
X123.62Y-104.04
X123.62Y-106.58
X123.62Y-109.12
X123.62Y-111.66
X126.16Y-98.96
X126.671Y-59.539
X126.671Y-62.079
X126.671Y-64.619
X126.671Y-67.159
X126.671Y-69.699
X128.7Y-98.96
X131.24Y-98.96
X133.78Y-98.96
X136.32Y-55.78
X136.32Y-98.96
X138.86Y-53.24
X138.86Y-55.78
X138.86Y-58.32
X138.86Y-60.86
X138.86Y-63.4
X138.86Y-65.94
X138.86Y-68.48
X138.86Y-71.02
X138.86Y-73.56
X138.86Y-76.1
X138.86Y-78.64
X138.86Y-81.18
X138.86Y-83.72
X138.86Y-86.26
X138.86Y-88.8
X138.86Y-91.34
X138.86Y-93.88
X138.86Y-96.42
X138.86Y-98.96
X138.86Y-101.5
X138.86Y-104.04
X138.86Y-106.58
X138.86Y-109.12
X138.86Y-111.66
T7
X115.25Y-54.5
X118.75Y-54.5
M30
